<svg xmlns="http://www.w3.org/2000/svg" xmlns:xlink="http://www.w3.org/1999/xlink" preserveAspectRatio="xMidYMid" width="12.469" height="12.469" viewBox="0 0 12.469 12.469">
  <defs>
    <style>
      .cls-1 {
        fill: #fff;
        fill-rule: evenodd;
      }
    </style>
  </defs>
  <path d="M9.047,6.219 L11.876,9.047 C12.657,9.828 12.657,11.095 11.876,11.876 C11.095,12.657 9.828,12.657 9.047,11.876 L6.219,9.047 L3.391,11.876 C2.609,12.657 1.343,12.657 0.562,11.876 C-0.219,11.095 -0.219,9.828 0.562,9.047 L3.391,6.219 L0.562,3.391 C-0.219,2.610 -0.219,1.343 0.562,0.562 C1.343,-0.219 2.609,-0.219 3.391,0.562 L6.219,3.391 L9.047,0.562 C9.828,-0.219 11.095,-0.219 11.876,0.562 C12.657,1.343 12.657,2.610 11.876,3.391 L9.047,6.219 Z" class="cls-1"/>
</svg>
