<?xml version="1.0" standalone="no"?>
<!DOCTYPE svg PUBLIC "-//W3C//DTD SVG 1.1//EN" "http://www.w3.org/Graphics/SVG/1.1/DTD/svg11.dtd">
<svg xmlns="http://www.w3.org/2000/svg">
<metadata>Copyright (C) 2017 by original authors @ fontello.com</metadata>
<defs>
<font id="fontello" horiz-adv-x="1000" >
<font-face font-family="fontello" font-weight="400" font-stretch="normal" units-per-em="1000" ascent="850" descent="-150" />
<missing-glyph horiz-adv-x="1000" />
<glyph glyph-name="search" unicode="&#xe800;" d="M643 386q0 103-73 176t-177 74-177-74-73-176 73-177 177-73 177 73 73 177z m286-465q0-29-22-50t-50-21q-30 0-50 21l-191 191q-100-69-223-69-80 0-153 31t-125 84-84 125-31 153 31 152 84 126 125 84 153 31 153-31 125-84 84-126 31-152q0-123-69-223l191-191q21-21 21-51z" horiz-adv-x="928.6" />

<glyph glyph-name="17" unicode="&#xe801;" d="M503 848a18 18 0 0 0 2 1c12 4 24-4 30-15 26-42 42-93 62-138q33-74 65-147c4-8 8-16 15-21 15-11 44-8 62-10 28-4 57-7 85-10 57-6 114-13 171-21 12-1 27-5 31-16 4-12-6-25-16-33q-54-50-107-101-29-27-59-54c-12-12-22-25-34-36-10-10-25-16-31-28-11-19 2-49 6-68 6-30 12-59 18-89 12-59 25-118 35-178 1-7 2-14-1-20-5-10-18-14-29-11-18 5-39 23-55 33l-74 41c-29 17-59 34-89 51-23 13-49 38-77 38-24 0-42-18-61-30-24-14-49-27-74-41q-41-24-82-47c-24-14-44-32-69-43-7-4-17-7-24-3a22 22 0 0 0-10 10c-7 13-5 28-1 41 24 97 40 197 59 295 3 12 1 20-8 28-18 16-34 31-51 47q-87 82-175 165c-10 9-21 23-15 35 5 10 17 13 28 14q150 19 301 35c7 1 15 2 21 7 5 4 8 10 10 16 43 95 85 190 127 284 3 7 7 15 14 19z m-424-402c0-7 5-9 8-12q101-95 202-190c11-10 14-20 11-35-18-89-35-178-53-267-1-5-6-12 1-16 5-4 10 2 15 5q115 66 230 133c13 7 24 10 38 2 78-46 156-91 235-136 4-3 8-8 13-4s2 9 1 14c-18 90-35 181-54 271-3 14 1 23 11 33q100 93 201 188c4 3 9 6 10 12-5 4-12 4-17 5-88 10-176 21-265 30-17 2-27 10-34 26q-55 124-111 248c-1 5-2 12-8 12s-6-7-8-12q-56-125-111-250c-6-13-14-21-29-23-71-8-142-16-213-25-25-3-49-6-73-9z" horiz-adv-x="1027" />

<glyph glyph-name="18" unicode="&#xe802;" d="M1-55a215 215 0 0 0-1 29q0 112 0 224v254c0 19-1 37 4 56a115 115 0 0 0 29 47c22 23 53 34 85 34 11 0 13 6 12 15-3 47 31 91 73 108a105 105 0 0 0 42 8c5 0 10-1 13 2s3 9 3 14c-1 47 31 92 76 108 13 5 26 5 40 5 14 1 28 1 43 1q50 0 100 0h87c84 0 167 1 250 0 8 0 15 0 23 0a170 170 0 0 0 52-9c49-19 67-72 67-121l0-127 0-253c0-29-1-58 0-88 1-15 2-31-1-47a117 117 0 0 0-36-66c-23-21-52-26-82-28a12 12 0 0 1-6-2 10 10 0 0 1-4-5c-1-8-1-16-2-23a148 148 0 0 0-5-22 112 112 0 0 0-22-40c-20-23-48-35-78-38q-5 0-9 0a20 20 0 0 1-10-2c-4-3-6-9-5-15 2-47-31-88-73-107a76 76 0 0 0-19-6 104 104 0 0 0-15-1h-239q-125 0-251 0h-21a173 173 0 0 0-28 2c-23 4-45 17-61 35-14 14-25 31-29 50-1 3-1 5-2 8z m368-49q127 0 254 0c49 0 71 21 71 70q0 254 0 509c0 45-24 69-69 69q-254 0-508 0c-50 0-71-22-71-71q0-254 0-508c0-48 21-69 69-69q127 0 254 0z m585 583c0 87 0 175 0 262 0 40-22 62-61 62q-263 1-526 0c-37 0-60-23-61-61-1-22 0-23 22-23q214 0 428 0a112 112 0 0 0 113-113c0-65 0-130 0-195 0-79 1-157 0-236 0-14 4-20 19-20 42 1 66 24 66 65 0 87 0 173 0 259z m-131-102h0c0 77 0 154 0 230-1 45-21 65-66 66-6 0-12 0-18 0q-214 0-428 0c-24 0-48 2-71 1-38-1-59-20-64-56-3-25-1-28 24-28q208 0 416 0c75 0 125-49 125-125q0-134 0-268c0-51 0-102 0-153 0-18 2-20 19-19 39 1 63 25 64 65 1 21-1 43-1 65 0 74 0 148 0 222z" horiz-adv-x="1000" />

<glyph glyph-name="19" unicode="&#xe803;" d="M1508 158c19-124-59-234-171-279-59-23-123-30-186-27-65 2-131 0-197 0q-269 0-539-2c-66 0-133-1-196 20-146 49-237 207-216 358a331 331 0 0 0 84 178 409 409 0 0 0 78 64c22 15 63 23 76 47a74 74 0 0 1 7 23c35 178 192 319 378 309 119-6 212-73 286-162a28 28 0 0 1 10-9c5-2 11 0 17 1 95 22 199 1 275-60a312 312 0 0 0 85-106 336 336 0 0 0 23-65c5-18 1-46 14-62a58 58 0 0 1 16-12c82-46 142-127 156-216z m-749-245q221 0 442 0a321 321 0 0 1 50 3c52 8 100 25 139 61 61 56 78 156 41 235-27 59-75 96-132 121-27 12-29 17-30 45a260 260 0 0 1-20 99c-51 120-192 178-322 136-28-9-36-6-52 18-71 111-171 167-305 155-146-13-262-138-265-284-1-31-7-39-36-49-61-20-114-54-153-105-50-64-60-137-50-214 15-124 123-221 248-221q222 0 445 0z" horiz-adv-x="1511" />

<glyph glyph-name="2" unicode="&#xe804;" d="M1040 416a394 394 0 0 0-10-119c-49-200-241-338-440-359a625 625 0 0 0-134 0c-42 5-73 12-112-8-92-48-188-102-294-71a54 54 0 0 0-22 10c-6 5-9 14-7 21a32 32 0 0 0 11 13c45 39 137 102 104 173-10 21-27 38-42 56a412 412 0 0 0-92 303c22 205 201 357 394 401a573 573 0 0 0 204 9c198-28 390-168 432-371a415 415 0 0 0 8-58z m-940-515a36 36 0 0 1 6-3c4 0 7 0 11 0 41 0 79 11 116 28 39 17 78 37 117 55a105 105 0 0 0 69 9c55-12 110-12 165-6 120 13 226 59 309 148 84 90 118 197 100 318-19 123-88 213-192 278-90 55-188 77-293 75s-201-29-287-89c-107-75-169-176-175-308-5-102 30-191 99-267 17-19 36-36 41-62 7-37-5-68-23-99-17-28-40-52-63-77z" horiz-adv-x="1041" />

<glyph glyph-name="20" unicode="&#xe805;" d="M1 446c-9 165 84 324 242 382a363 363 0 0 0 163 20c146-16 280-131 318-272 18-64 16-132 2-197-17-80-51-156-91-226a1173 1173 0 0 0-113-166c-40-49-85-103-141-133a23 23 0 0 0-26 0c-61 31-110 92-151 145-81 103-154 223-188 351a455 455 0 0 0-15 96z m41 35a388 388 0 0 1 5-63c13-86 46-165 89-240a1199 1199 0 0 1 149-209c19-21 39-42 61-61 19-16 24-16 43 0a430 430 0 0 1 31 29c84 89 155 186 208 296 42 87 71 177 64 275-5 71-30 135-77 188-57 66-129 102-216 110-82 8-158-11-224-59-90-66-132-156-133-266z m500-5c-4-97-94-175-186-168-94 8-166 92-162 179 4 102 96 176 186 169s168-94 162-180z m-175-123c75-1 130 52 131 125 0 78-52 133-127 134-77 0-133-52-133-127-1-78 52-132 129-132z" horiz-adv-x="737" />

<glyph glyph-name="21" unicode="&#xe806;" d="M3-96l0 2a29 29 0 0 0 9 14 39 39 0 0 0 25 7l32 1q33 0 65 0c43 0 86-1 128-1h27l130 0h390l130 0 130 0 115 0c55 0 51-35 51-35s9-42-50-42h-780l-129 0h-226c-10 0-20-1-30 2l0 0a31 31 0 0 0-4 2c-18 10-18 33-13 50z m1232 908a92 92 0 0 0-1-14c-2-13-13-22-25-25a110 110 0 0 0-28-1c-20 1-41 1-61 1h-4l-87 0-87 0-86 0h-521l-87 0-86 0-87 0h-16c-23 0-56-2-56 39s36 38 54 38h1093c13 0 25 0 38 0a83 83 0 0 0 26-4 32 32 0 0 0 16-11c5-6 5-14 5-23z m0-462a47 47 0 0 0-2-16 33 33 0 0 0-10-13 21 21 0 0 0-3-2c-6-4-15-3-22-4-9-1-18-1-27-2-22 0-45 0-67 0-12 0-24 0-35 0-29-1-79-2-108-2l-125 0h-347l-173 0c-57 0-114 0-171 0-22 0-92 1-113 2-29 0-30 32-30 39s1 36 26 36c22 1 320 1 348 1h1l173 0h174l173 0c57 0-22 0 171 0 25 0 49 0 74 0 17 0 35 0 52-1a73 73 0 0 0 16-2 41 41 0 0 0 15-8 34 34 0 0 0 9-12 38 38 0 0 0 1-16z" horiz-adv-x="1235" />

<glyph glyph-name="22" unicode="&#xe807;" d="M787-148a652 652 0 0 0-104 0c-221 17-415 150-561 310-44 48-87 99-114 160a79 79 0 0 0-8 29c-1 25 19 50 32 71a716 716 0 0 0 56 76 1095 1095 0 0 0 131 133c177 153 402 253 639 209 173-32 333-138 456-260 35-36 70-73 101-113 15-21 31-42 45-64 11-19 19-41 16-63-2-13-9-25-15-37-45-79-106-147-172-208-140-130-312-227-502-243z m-55 939c-89 1-179-23-264-63-96-45-180-105-257-178a926 926 0 0 1-130-152c-23-34-25-65 1-98 0-1 1-2 2-3 97-141 224-249 378-324 184-89 369-88 554 0 98 47 184 110 262 186 47 46 90 96 125 152 16 26 17 51-1 77-2 4-5 8-7 12-84 123-192 219-319 294-104 60-215 98-344 97z m331-442c0-176-150-326-326-326-173 1-323 152-323 326 0 177 150 326 328 326 173-1 322-152 321-326z m-325-264c152 0 266 112 266 263 1 152-113 266-265 266s-265-113-265-265 112-264 264-264z m-176 265c1 95 86 179 180 177 92-1 175-86 174-179s-87-179-180-177-175 87-174 179z m179 116c-72 1-119-46-120-116 0-69 47-117 116-118 71 0 119 46 120 116s-47 118-116 118z" horiz-adv-x="1477" />

<glyph glyph-name="23" unicode="&#xe808;" d="M572-149a499 499 0 0 0-171 40c-88 39-166 104-216 186-32 52-54 109-68 168-2 5 0 12-5 14-6 1-8-6-11-10-16-19-32-39-48-59-11-13-28-20-43-10a22 22 0 0 0-8 9 25 25 0 0 0-2 13c2 18 15 27 25 40q15 19 30 37c12 15 24 31 36 46 6 7 12 14 17 21 5 7 10 13 17 16a25 25 0 0 0 18 0 49 49 0 0 0 13-8q38-30 76-61c12-10 25-20 37-30 10-8 22-15 26-27a26 26 0 0 0-25-35c-16 1-29 16-41 25-16 13-31 25-47 38-4 3-7 7-14 7a372 372 0 0 1 35-120c72-148 190-231 353-245 99-9 198 12 280 68 74 51 134 124 163 210 4 12 7 24 16 34s23 14 34 8c14-10 11-32 6-48-57-162-204-290-373-321a463 463 0 0 0-110-6z m70 997a490 490 0 0 0 270-118l6-5a513 513 0 0 0 107-138c25-47 41-96 51-148 0-4 1-7 3-14 14 15 27 28 40 42 6 5 12 11 18 17 11 11 25 20 39 10a32 32 0 0 0 12-18 22 22 0 0 0 0-14 31 31 0 0 0-7-9c-28-29-56-56-84-85-8-9-16-17-25-25-10-9-21-10-32-3q-66 39-132 80c-21 12-21 36-1 48 10 6 20 3 30-3 24-14 48-29 72-43 3-2 7-7 12-3 4 3 1 8 1 12-26 187-177 337-365 360-130 17-246-14-347-100-57-49-97-111-123-182-2-6-4-12-6-18-6-16-19-24-33-19a27 27 0 0 0-18 35 395 395 0 0 0 21 57 576 576 0 0 0 77 118 474 474 0 0 0 100 87 487 487 0 0 0 286 81q14-1 28-2z" horiz-adv-x="1189" />

<glyph glyph-name="24" unicode="&#xe809;" d="M129-150a244 244 0 0 0-85 10c-9 3-18 7-22 16-4 8-1 17 4 23 13 18 37 32 54 48 21 20 41 44 53 71a79 79 0 0 1 9 43c-6 39-44 59-64 90-80 121-105 270-43 404a484 484 0 0 0 176 204 575 575 0 0 0 428 79c90-19 176-59 245-119 82-71 142-169 156-278 17-138-44-276-148-367-101-89-235-141-370-140-62 0-124 20-184-6-25-12-48-28-72-41s-54-21-81-28a291 291 0 0 0-56-9z m-29 52c7-5 13-3 18-3 47 0 89 17 131 35 38 17 74 38 113 54 14 5 29 8 45 5a543 543 0 0 1 172-9c122 13 228 58 312 148 93 100 125 218 94 350-31 129-117 216-234 272-91 43-188 56-288 46-121-12-228-57-311-147-97-104-128-227-91-365 17-62 51-115 96-160 28-28 37-60 29-98-6-25-19-48-34-69s-33-40-52-59z m397 405q0 66 0 132a73 73 0 0 0 2 18c2 11 10 18 21 19 13 0 20-7 23-18a61 61 0 0 0 2-17q0-133 0-266c0-24-8-36-24-36s-24 12-24 35q0 67 0 133z m1 271a132 132 0 0 0 0 22c2 13 10 21 24 21 12 0 20-8 22-21a154 154 0 0 0 0-45c-2-12-9-21-22-21-14 0-22 9-24 22-1 7 0 15 0 22z" horiz-adv-x="1042" />

<glyph glyph-name="25" unicode="&#xe80a;" d="M1426 763c-6-12-18-18-31-21-13-2-26-2-39-2-14 0-28 0-42 0l-83 0-167 0-167 0h-560c-34 0-53 14-52 36 0 24 19 38 51 38q520 0 1040 0a70 70 0 0 0 35-8 36 36 0 0 0 17-33 31 31 0 0 0-2-10z m0-426a26 26 0 0 0-5-9 50 50 0 0 0-29-15c-18-3-39-1-58-1l-63 0-125 0-250 0h-561a121 121 0 0 0-18 0 37 37 0 0 0 0 73 124 124 0 0 0 18 1h500l250 0 251 0c17 0 36 2 53 0a54 54 0 0 0 33-17 25 25 0 0 0 4-6 36 36 0 0 0 2-16 40 40 0 0 0-1-10z m0-429a30 30 0 0 0-1-2c-6-12-18-18-30-21-19-4-39-3-58-3-28 0-56 1-84 1h-112l-251 0h-556c-10 0-20 1-29 6-15 8-23 21-19 38s14 29 33 30c6 1 12 0 18 0h500l251 0c82 0 164-1 246 1 25 1 50 4 73-6a35 35 0 0 0 16-11 32 32 0 0 0 5-16 39 39 0 0 0-2-17z m-1282 865c0-71-75-68-75-68s-69 5-69 65c0 76 72 80 72 80s72 3 72-77z m-139-834c15 48 82 69 119 26a70 70 0 1 0-121-54 67 67 0 0 0 2 28z m-1 425c8 31 40 58 73 54 33-3 62-31 65-65a70 70 0 0 0-128-45 69 69 0 0 0-10 56z" horiz-adv-x="1428" />

<glyph glyph-name="26" unicode="&#xe80b;" d="M999 640a181 181 0 0 0-12-54c-25-65-87-116-156-126a193 193 0 0 0-110 18c-38 18-60 46-85 78a12 12 0 0 1-5 4 13 13 0 0 1-10-2c-77-42-154-85-231-125a18 18 0 0 1-10-9 17 17 0 0 1 0-8c3-20 11-38 12-59 1-25-5-49-11-73a15 15 0 0 1-1-9 14 14 0 0 1 6-6c35-24 76-41 113-62q59-32 118-64c5-2 9-5 14-3a17 17 0 0 1 7 6c25 34 52 62 91 79a182 182 0 0 0 113 12c96-21 167-114 156-213-10-97-100-176-197-174a186 186 0 0 0-47 6c-87 24-148 109-144 199 0 11 6 29 1 38a21 21 0 0 1-9 7q-118 63-235 127a23 23 0 0 1-11 3c-5 0-10-3-13-7-58-67-154-89-233-48a198 198 0 0 0-61 48c-33 38-52 88-48 139 11 170 233 246 342 114 7-8 13-10 23-5q119 65 239 129c6 3 9 7 8 16-20 97 43 197 137 225a186 186 0 0 0 61 8c110-3 194-105 188-209z m-954-291c0-87 64-151 151-151s151 64 151 151-63 152-150 152c-89 0-151-63-152-152z m910-303c0 88-63 150-150 151-88 0-152-63-152-150 0-89 62-152 150-152 90 0 152 61 152 151z m0 607c0 89-62 150-150 152-88 1-152-66-152-150 0-89 63-152 152-152 87 0 150 62 150 150z" horiz-adv-x="999" />

<glyph glyph-name="27" unicode="&#xe80c;" d="M461 849a25 25 0 0 0 3-2c11-6 15-19 15-31q-1-173-1-346c0-62 1-124 0-186 0-8 1-17 6-22 7-8 20-11 29-17a123 123 0 0 0 27-23 106 106 0 0 0 24-66c1-42-29-85-68-100-6-2-13-6-16-12a29 29 0 0 1-2-12c0-20 0-39 0-58s0-38 0-57q0-14 0-27c0-8 1-16-2-24a28 28 0 0 0-11-13 19 19 0 0 0-16-2 22 22 0 0 0-10 7c-6 8-7 18-7 27s0 19 0 29c0 19 0 38 0 58 0 21 3 45 0 66a21 21 0 0 1-3 9c-4 6-12 7-19 11a114 114 0 0 0-21 13 111 111 0 0 0-31 38 104 104 0 0 0 3 97c11 20 28 38 49 46 8 3 17 7 21 15a35 35 0 0 1 2 14q0 172-1 343 0 96 0 193c0 14 11 38 29 32z m-6-631c-36 4-65-27-64-62 2-42 25-66 67-65 37 0 61 25 61 64 0 41-23 63-64 63z m342-367a22 22 0 0 0-11 8 42 42 0 0 0-7 24q1 116 0 232 0 56 0 112 0 28 0 55c0 9 0 17 0 25 0 8 1 16-4 22a33 33 0 0 1-11 7c-20 10-38 22-51 40a110 110 0 0 0-20 60c0 24 9 47 24 66a117 117 0 0 0 27 25c10 6 26 9 32 19 5 7 4 15 3 23q0 15 0 29 0 29 0 58 0 57 0 115 0 23 0 47c0 8 2 17 7 24a21 21 0 0 0 14 8 21 21 0 0 0 17-6c6-7 9-17 8-26-1-23 0-47 0-70 0-65 0-130 0-195a13 13 0 0 1 3-10 17 17 0 0 1 6-3c45-17 81-62 77-111a105 105 0 0 0-26-61 120 120 0 0 0-26-22c-9-6-22-9-29-17a25 25 0 0 1-5-14c-2-18 0-37 0-55q0-29 0-58 0-57 0-115 0-57 0-114 0-29 0-58c0-16 4-36-4-52-4-8-12-14-21-13a17 17 0 0 0-3 1z m6 649c-36 4-66-24-65-63 1-41 24-64 65-64 40 0 63 24 63 64 0 40-23 63-63 63z m-689 349a21 21 0 0 0 7-4c8-6 11-17 11-27-1-29-1-58-1-87s0-58 0-86c0-8 0-15 0-22a22 22 0 0 1 4-13 23 23 0 0 1 10-7c38-16 68-50 72-92a106 106 0 0 0-40-92c-14-11-43-16-46-37-3-26 0-56 0-82q0-44 0-87 0-87 0-174 0-44 0-88 0-22 0-44c0-14 3-29-2-41-3-8-10-15-19-16a21 21 0 0 0-17 8c-8 9-8 19-8 30q0 21 0 42 0 42 0 84 0 83 0 166 0 100 0 200c0 7 2 15-8 18-50 19-87 69-76 124 8 37 36 66 70 80a25 25 0 0 1 11 8 23 23 0 0 1 4 13c0 29-1 57-1 85 0 29 0 58 0 87q0 12 0 24c0 12 6 28 20 31a18 18 0 0 0 9-1z m-69-346c0-41 24-66 62-66 41 0 65 24 65 64 1 39-23 64-60 65-43 0-67-23-67-63z" horiz-adv-x="911" />

<glyph glyph-name="28" unicode="&#xe80d;" d="M411-150a59 59 0 0 0-7 0 97 97 0 0 0-25 6c-203 65-346 260-373 467a572 572 0 0 0-5 62c-2 89 1 179 0 268a9 9 0 0 0 7 11q140 66 281 132c34 16 68 32 101 50 6 3 13 5 19 4s12-5 17-8c8-4 15-7 22-11q22-10 43-21c30-13 59-26 88-40q112-53 225-106a10 10 0 0 0 7-12c0-107 9-220-5-327-28-207-166-396-365-467a116 116 0 0 0-30-8z m350 635h0c0 42 0 84 0 126 1 14-4 22-17 28q-163 76-326 153a26 26 0 0 1-24 0c-105-50-211-99-316-148-35-17-29-8-28-46 0-80-3-161 1-241 6-93 35-177 85-255 61-93 141-161 248-198a66 66 0 0 1 45 1c81 27 148 75 203 140 80 94 123 202 128 325 2 39 1 77 1 115z" horiz-adv-x="814" />

<glyph glyph-name="3" unicode="&#xe80e;" d="M326 849c101-11 185-95 194-196a214 214 0 0 0-22-117c-21-41-52-67-89-93a26 26 0 0 1 12-8c69-28 118-82 155-146a15 15 0 0 1 7-7c9-3 17 8 24 12 10 7 24 12 36 18 1 1 3 2 3 3s-1 4-2 5c-22 22-41 46-51 75-12 31-7 70 5 100a152 152 0 0 0 286-14 152 152 0 0 0-1-86c-9-30-29-53-51-75-1-1-3-3-2-5a5 5 0 0 1 2-2c17-14 40-21 58-35a269 269 0 0 0 106-175c4-27 4-55 4-82 0-24-1-47 0-70 0-22-1-45-12-65-17-28-46-35-76-34-42 2-84 0-126 0h-504c-42 0-84-1-126 0-33 1-72-6-104 3a71 71 0 0 0-14 5 73 73 0 0 0-35 47c-3 13-3 27-3 40l1 171c0 54 5 106 27 156a323 323 0 0 0 115 136 254 254 0 0 0 47 26 17 17 0 0 1 6 3 5 5 0 0 1 1 7 8 8 0 0 1-2 1c0 4-27 20-31 23a222 222 0 0 0-23 25 228 228 0 0 0-36 60 213 213 0 0 0-9 135c22 79 93 144 174 158a203 203 0 0 0 56 1z m-19-951q118 0 236 0c20 0 20 0 20 21 0 79 0 158 0 237a255 255 0 0 1-16 91c-41 111-146 182-276 166-132-16-224-123-224-256-1-78-1-156 0-234 0-23 2-25 25-25q117 0 235 0z m470 0c51 0 102 0 152 0 21 0 24 3 24 23 0 51 0 102 0 152a211 211 0 0 1-16 82c-59 141-231 162-326 89-9-7-14-14-10-26a269 269 0 0 0 9-73c0-77 0-155-1-233 0-12 4-15 16-15 51 1 101 1 152 1z m-471 907c-101 0-173-72-174-172 0-97 73-169 168-172 96-3 177 67 178 171 0 100-72 173-172 173z m325-367c0-64 43-107 107-107s109 45 108 108-45 106-108 106c-63 1-107-43-107-107z" horiz-adv-x="1000" />

<glyph glyph-name="4" unicode="&#xe80f;" d="M3-115c5 23 13 44 20 67q15 48 30 97c9 29 19 58 27 87 8 28 13 58 30 82 23 32 58 59 86 86l107 107 211 211c45 45 90 90 135 135 37 37 72 84 128 92 47 7 89-15 120-50a655 655 0 0 1 49-48c32-30 56-66 54-112-2-39-23-71-51-98-177-177-355-353-531-531-15-16-30-32-48-46-40-30-98-39-146-53q-55-17-110-34c-32-10-63-24-97-27-6 0-13 0-16 5a16 16 0 0 0-1 10 198 198 0 0 0 3 20z m345 128c5 1 8 6 12 9q120 120 239 240 63 62 125 125c6 5 11 10 3 18q-87 85-172 172c-6 6-10 6-17 0q-82-83-165-166c-67-67-135-134-202-201-9-9-10-14-1-23 56-55 111-110 166-166 4-3 6-8 12-8z m446 790a70 70 0 0 1-48-20c-19-18-38-37-57-56-7-6-5-11 0-17q86-85 171-171c6-6 11-6 17 0 19 20 39 39 58 59 24 27 25 64 1 91-31 34-64 67-98 98-12 11-28 15-44 16z m-727-877c-1-14 8-9 14-7 68 21 137 42 205 63 11 3 13 7 4 15q-71 71-142 142c-9 10-13 8-16-4-15-48-30-96-44-144q-10-32-21-65z m763 571a61 61 0 0 1-6 8q-84 85-169 170c-7 6-12 7-19 0-15-16-29-31-45-46-7-7-7-12 0-19q85-84 169-168c6-7 11-8 18-1 15 16 31 31 47 46a13 13 0 0 1 5 10z" horiz-adv-x="1000" />

<glyph glyph-name="5" unicode="&#xe810;" d="M650 547a315 315 0 0 0-50-197c-28-44-76-75-94-125-13-37-7-78-6-116 1-43 6-93-1-136a70 70 0 0 0-29-46c-19-13-40-4-58-14-16-9-19-31-32-43-16-15-41-22-62-20a88 88 0 0 0-55 27c-11 11-16 33-32 38a55 55 0 0 1-15 1 66 66 0 0 0-58 37c-11 23-7 48-7 73 0 30 0 59 0 89-1 37 6 79-9 114-17 38-57 65-81 99a327 327 0 0 0-51 110 340 340 0 0 0 27 236 321 321 0 0 0 69 90 331 331 0 0 0 322 71c128-41 212-161 222-288z m-325-455c39 0 77 0 116-1 10 0 13 4 13 14 0 29 0 59 0 88a181 181 0 0 0 4 36c6 29 22 54 41 76s41 42 59 65c30 39 44 82 47 130s-3 94-22 137c-54 119-171 184-300 165-94-13-163-65-208-149-25-48-33-99-30-153 4-51 19-98 49-140 20-28 45-52 68-79 23-27 36-57 35-93-1-28 0-56-1-83 0-10 4-14 14-14 38 1 77 1 115 1z m1-46c-39 0-78-1-117 0-10 0-13-4-13-13 1-16 0-32 1-48s7-23 22-23q106 0 212 0c16 0 23 7 23 23s0 32 0 48c0 9-3 13-13 13-38-1-77 0-115 0z m-1-130c-9 0-18 0-27 0-2 0-4 0-5-2 0-1 1-3 2-5 13-16 47-16 60 0 1 2 3 4 3 5-1 2-4 2-6 2-9 0-18 0-27 0z m-23 356c0 41 0 82 0 122a28 28 0 0 1-9 23c-22 21-44 43-66 65-6 7-11 13-11 23a22 22 0 0 0 31 19 45 45 0 0 0 14-10c18-19 37-38 56-57 6-6 10-7 17 0 18 19 37 38 56 57a48 48 0 0 0 12 9c10 5 18 3 26-4a22 22 0 0 0 4-26 50 50 0 0 0-10-13c-21-21-43-42-64-63a29 29 0 0 1-9-23c0-80 0-160 0-240 0-5 0-9-1-13 0-6-3-8-8-8-9 0-17 0-26 0-9-1-12 3-12 12 0 30 0 61 0 91q0 18 0 36z" horiz-adv-x="651" />

<glyph glyph-name="6" unicode="&#xe811;" d="M142 848a145 145 0 0 0 27-7c36-12 66-42 81-78 9-22 11-47 15-70 2-14 9-18 22-18q315 1 630 0c13 0 27 0 39-6a57 57 0 0 0 24-24 55 55 0 0 0 7-29 87 87 0 0 0-5-22c-26-81-46-164-68-246-17-61-76-107-139-107q-202 0-405 0c-19 0-20 0-17-20 3-15 6-29 9-43s12-21 26-23c6 0 12 0 18 0h428c22 0 33-8 34-21 0-15-12-23-35-23q-216 0-433 0c-45 0-76 26-84 72q-33 177-67 353c-12 66-24 131-36 197-10 48-39 71-88 71-30 0-60 0-90 0-13 0-28 3-33 16-4 10-2 22 7 27 7 3 14 2 21 2 23 0 46 1 69 1a256 256 0 0 0 43-2z m469-218q-158 0-315 0c-18 0-18 0-14-18 20-103 40-207 59-310 2-13 9-16 20-16 141 0 281 0 422 0a89 89 0 0 1 86 67q36 127 71 255c6 21 5 22-17 22z m226-778a108 108 0 1 0 77 191 122 122 0 0 0 28-35c17-29 15-69-1-99a104 104 0 0 0-7-12 110 110 0 0 0-86-45 103 103 0 0 0-11 0z m72 107c0 40-24 65-63 65-38 0-65-26-65-64 0-40 25-65 65-65 40 0 63 24 63 64z m-568-109c-35 3-68 27-86 56q-2 2-3 4c-24 44-13 99 27 132s97 35 136 0c33-30 50-66 37-110a112 112 0 0 0-59-70c-16-8-34-13-52-12z m6 45c41 0 65 25 65 65 0 18-6 36-19 48-33 29-93 18-106-25a79 79 0 0 1-3-24c0-39 24-64 63-64z" horiz-adv-x="987" />

<glyph glyph-name="7" unicode="&#xe812;" d="M422 850a78 78 0 0 0 21-5 94 94 0 0 0 42-34c12-17 19-38 16-58a81 81 0 0 0-6-20c-2-4-5-9-1-13 13-13 36-13 52-24a126 126 0 0 0 38-47c14-28 20-59 25-89 10-52 18-104 27-156 2-10 8-15 16-21 55-43 93-104 121-167a625 625 0 0 0 33-91c8-31 18-95 18-95a112 112 0 0 0 3-29c0-43-14-42-74-42-17 0-34 0-52 0q-9 0-18 0c-36 0-72 0-108-1a29 29 0 0 1-11-2c-6-3-10-10-12-16-18-48-71-83-121-89a147 147 0 0 0-100 26 167 167 0 0 0-39 37 169 169 0 0 0-13 20c-4 7-6 21-14 24s-36 0-50 0q-30 0-60 0c-42 0-86-4-127 0-11 1-23 6-26 16a37 37 0 0 0-2 14 528 528 0 0 0 17 119c15 54 35 108 62 157a463 463 0 0 0 49 71c17 20 41 36 56 58 7 10 11 22 13 34 10 63 20 125 33 187 12 54 51 91 104 105 1 1 3 1 4 3a5 5 0 0 1-1 3c-2 9-6 18-7 28a89 89 0 0 0 30 78 85 85 0 0 0 62 19z m-8-847h352c16 0 17 2 16 18a579 579 0 0 1-54 192c-26 56-60 106-112 142-14 10-20 21-23 38q-18 109-38 218c-8 41-38 65-80 65-39 1-79 0-118 0-46 0-75-23-84-69-13-74-26-149-39-223-2-10-6-18-15-24-46-30-79-73-105-120-37-68-59-141-67-218-2-17 0-18 16-18z m1-45c-28 0-56 0-84 0-4 0-9 2-12-3s2-8 4-11c41-66 143-65 183 1 2 3 5 6 4 10-3 5-8 3-12 3-27 0-55 0-83 0z m42 805q0 43-43 43c-28 0-42-14-42-43 0-26 15-42 42-42 27 0 43 15 43 42z" horiz-adv-x="828" />

<glyph glyph-name="8" unicode="&#xe813;" d="M1216 815c-8-32-32-60-48-87q-37-69-75-137-182-325-363-651c-18-33-38-68-72-82-27-12-59-9-86 3-49 23-91 80-129 118-13 14-15 14-28 1q-41-40-81-81a109 109 0 0 0-40-26c-23-8-40-4-55 14-13 16-18 34-18 55 0 81 0 161 0 242a35 35 0 0 1-10 27c-56 54-110 110-166 165-21 21-43 46-45 77a82 82 0 0 0 18 56c38 46 120 53 172 67 72 19 143 39 214 59q345 93 689 187c35 10 69 21 105 28 6 1 13 1 17-4a16 16 0 0 0 3-10 79 79 0 0 0-2-21z m-113-90l-3 2c-2-1-5-3-7-4-53-34-105-68-157-102-102-66-205-131-307-197-107-69-214-139-321-208-11-7-13-11-3-21 91-91 182-182 273-273 32-31 63-27 85 12 18 30 34 60 51 90q92 165 184 330 77 140 155 279 25 46 50 92z m-91 15l0 2-61-16q-243-67-487-133-167-46-334-91c-21-6-42-11-62-19-19-7-23-21-12-38a112 112 0 0 1 14-16c57-56 113-112 169-169 10-10 17-10 29-2q183 119 366 237 139 90 278 180c34 21 67 43 101 65z m-732-600c-1-4-2-5-2-5q0-100 0-200c0-2-2-7 2-8 4-1 7 3 10 6 31 30 61 61 92 91 5 5 6 9 0 14-34 34-67 67-102 102z" horiz-adv-x="1218" />

<glyph glyph-name="9" unicode="&#xe814;" d="M463 849l3 0a344 344 0 0 0 37 1c15 0 29 1 44-1 42-5 70-42 73-83 1-14 8-21 22-28 26-12 43-8 64 12 29 28 71 27 102 1q25-21 49-41c17-15 26-34 28-56 2-24-9-43-22-62-7-11-5-19 0-31 12-27 29-36 59-34 37 3 70-27 78-64 6-29 16-63 10-93a80 80 0 0 0-24-43c-14-13-30-18-48-24-11-3-14-10-17-20-9-29-3-49 23-67 31-23 36-63 18-97-8-15-18-29-25-44-19-42-65-69-118-42-15 7-26 4-39-6-21-15-27-30-21-55 11-45-11-80-54-96-13-5-27-10-40-15s-27-11-41-11a81 81 0 0 0-32 7c-16 7-30 17-37 34-11 26-28 36-57 33-15-1-24-4-30-18a95 95 0 0 0-39-45 75 75 0 0 0-46-10c-13 1-26 7-39 12-11 4-23 8-34 13-14 6-30 14-41 26-22 23-16 60-12 89 1 7 2 13-4 19-29 31-32 32-72 17a79 79 0 0 0-95 33c-12 19-22 38-33 57-20 36-14 78 20 102 21 15 30 30 22 57-5 15-9 25-25 29-22 6-42 17-54 36-9 13-16 29-16 44a100 100 0 0 0 3 20c1 7 3 13 4 20 2 14 5 27 8 41 7 34 40 61 75 62 10 0 19 0 29 0s14 4 19 11c19 24 21 45 2 72-23 32-13 74 18 100q22 19 45 38c35 29 75 29 108-2 18-16 33-21 56-11 16 8 26 15 28 33 2 39 29 74 68 80z m432-367c-1 0-5 0-10-1-20-2-35 5-43 26a189 189 0 0 1-27 47c-12 15-11 28-1 43a381 381 0 0 1 22 36c9 17 7 29-8 42q-24 21-50 42c-16 13-27 13-43 0-14-11-27-22-40-34-8-6-17-8-27-3a388 388 0 0 1-67 24 27 27 0 0 0-21 23c-2 18-5 35-9 53-3 15-12 23-27 23-26 0-51 0-76 0-14 0-23-7-26-21-3-17-6-34-8-51-2-15-10-24-25-28a313 313 0 0 1-61-22c-12-7-22-5-32 4-13 11-26 23-40 33-14 12-25 12-39 0-18-14-36-29-53-44-15-12-17-23-7-40 8-15 16-29 25-43 8-12 7-23-1-34a285 285 0 0 1-32-55c-7-16-18-22-33-21-16 1-31 2-46 2s-27-6-31-22c-4-25-9-50-13-75-2-16 5-27 20-32 16-6 32-12 49-17 12-5 19-12 20-26a360 360 0 0 1 12-67 25 25 0 0 0-9-29c-13-11-27-21-40-33-14-12-17-25-8-41 11-20 22-38 33-57 11-18 21-22 41-15 16 5 31 12 47 18a26 26 0 0 0 30-7 351 351 0 0 1 53-44c10-8 15-17 12-31-4-15-6-31-9-46-4-23 1-32 23-40q29-10 58-21c21-7 31-3 42 15 9 15 17 29 25 44a26 26 0 0 0 26 14 483 483 0 0 1 70 0c14 0 23-5 29-17 8-14 16-29 24-44 9-15 20-19 36-13q34 11 68 24c16 6 21 17 19 34s-6 33-10 49c-3 14 2 24 13 32a335 335 0 0 1 51 43c10 11 21 12 35 7 14-6 29-12 44-17 19-6 29-3 39 15q17 27 32 55c11 19 10 30-7 44-12 11-25 21-38 32-9 8-13 17-9 29 6 22 9 46 12 69a27 27 0 0 0 19 24q24 8 46 16c20 8 26 17 22 38q-4 24-8 49c-7 40-14 45-55 43z m-631-138c0 129 113 242 243 242 129 0 243-114 243-243s-114-243-243-243c-130 0-243 113-243 244z m243 195c-113 0-198-84-198-196s84-197 197-197c114 0 197 82 197 195 1 115-82 198-196 198z" horiz-adv-x="1012" />

<glyph glyph-name="1" unicode="&#xe815;" d="M1-25a120 120 0 0 0 31 68c68 73 161 38 193-34 6-13 11-18 25-18 204 0 408-1 612 1 64 0 118 24 146 86 24 52 23 106-3 157-25 51-71 71-125 78a224 224 0 0 1-29 1q-309 0-618 0c-44 0-88 7-128 28-58 30-93 84-102 148-8 55 1 118 36 163 44 57 106 81 176 81 251 1 502 1 754 1 5 0 12-2 19 3-23 23-45 45-67 67-6 6-13 13-13 22a24 24 0 0 0 15 21 33 33 0 0 0 12 2 18 18 0 0 0 6-1 29 29 0 0 0 9-8c3-3 7-6 10-9q8-8 16-16c11-11 22-21 33-32 19-18 37-37 55-57a32 32 0 0 0 9-12 21 21 0 0 0-3-17 68 68 0 0 0-13-13c-13-12-25-25-38-38l-8-7a36 36 0 0 0-6-7l-47-46c-17-17-31-20-42-9-13 12-10 24 8 42 21 21 42 42 64 64-6 5-12 3-16 3-253 0-505 1-757 0-54 0-103-18-137-63a132 132 0 0 1-27-66c-6-56-1-110 44-151 33-31 73-44 117-44 213 0 426 0 639 0 57 0 110-16 154-52a176 176 0 0 0 56-82 245 245 0 0 0 10-104c-5-37-17-74-40-103q-5-6-10-12c-47-49-106-67-171-68-137-1-275 0-412 0q-95 0-189 0c-8 0-17 1-20-9a132 132 0 0 0-71-75 106 106 0 0 0-13-4c-33-10-67-1-95 20-28 21-49 55-50 90q0 3 0 5 0 3 1 6z m185-9c0 43-26 70-67 70-44 0-70-26-70-69s27-70 69-70c42 1 68 27 68 69z" horiz-adv-x="1073" />

<glyph glyph-name="10" unicode="&#xe816;" d="M1151 584c2-18 1-37 1-55v-444q0-51 0-102a178 178 0 0 0-1-22 109 109 0 0 0-9-30 142 142 0 0 0-73-72 99 99 0 0 0-26-8 153 153 0 0 0-20-1h-569c-83 0-167 1-250 0l-12 0c-15 0-30 0-46 0s-33-1-48 3c-25 7-49 23-66 43a136 136 0 0 0-24 42c-6 17-7 33-7 51-2 55 0 109 0 163v191c0 62 0 125-1 188l0 7c0 20 0 39 4 58 11 48 50 89 98 100l4 1a181 181 0 0 0 36 4c40 0 80 0 120 0 11 0 17 3 19 14a157 157 0 0 0 13 33 185 185 0 0 0 120 97q8 2 15 3c26 4 53 2 79 1 31-1 63-1 94 0 31 0 62 1 93 1 7 0 14-1 22-1a183 183 0 0 0 122-70 167 167 0 0 0 15-22 224 224 0 0 0 18-47c2-8 8-10 15-10 15 0 30 0 46 0 34 0 68 2 102-1a127 127 0 0 0 81-40 133 133 0 0 0 35-70q0-3 0-5z m-576-682q224 0 447 0c52 0 77 26 77 77q0 295 0 591c0 52-25 78-78 78s-107 0-160 0c-26 0-35 9-36 34-3 65-50 113-115 115q-134 2-268 0c-63-1-108-47-114-109-4-35-9-40-45-40l-157 0c-27 0-49-9-64-34-8-13-9-28-9-44q0-217 0-435c0-54 0-108 0-163 1-42 26-68 68-70 8 0 16 0 23 0q216 0 431 0z m301 398c2-148-123-298-299-300-162-3-300 138-300 300s138 301 300 300c161 0 299-139 299-300z m-301-249c142 0 249 106 250 245 2 143-108 255-256 253-134-3-241-109-242-247 0-143 105-250 248-251z" horiz-adv-x="1152" />

<glyph glyph-name="11" unicode="&#xe817;" d="M326 849a216 216 0 0 0 116-50c38-32 65-75 75-124a214 214 0 0 0-8-113 218 218 0 0 0-69-97q-6-5-13-10c-6-4-12-8-18-12 3-6 9-7 14-9 67-30 117-78 151-143 5-11 10-14 21-6 13 11 29 18 44 24 9 4 9 8 2 14a152 152 0 0 0-54 100c-5 41 8 77 34 108 40 48 92 71 154 53 63-17 103-61 114-126 9-54-13-99-53-135-8-7-10-10 1-14a300 300 0 0 0 79-53 256 256 0 0 0 54-73 315 315 0 0 0 25-74 196 196 0 0 0 4-26c1-7 1-13 1-19q-1-63 0-126v-10c0-10 0-20-3-29-5-13-15-24-25-33a63 63 0 0 0-24-14 75 75 0 0 0-19-1l-118 0h-634c-21 0-43-1-64 0-20 0-41-3-60 2a74 74 0 0 0-39 27 64 64 0 0 0-13 28 94 94 0 0 0-1 15q0 99 0 198c0 17 0 34 2 51a319 319 0 0 0 79 185c29 33 65 57 104 77 5 2 13 2 13 8 0 5-7 7-11 10-1 1-3 2-4 2a225 225 0 0 0-80 100 212 212 0 0 0-12 119c9 42 29 78 58 109a216 216 0 0 0 133 67 203 203 0 0 0 44 0z m-20-953q118 0 237 0c20 0 20 0 20 22 0 79 0 158 0 238a255 255 0 0 1-16 91c-41 111-146 181-276 165-132-16-224-123-225-256 0-78 0-156 0-234 0-23 3-25 26-25q117-1 234-1z m471 0c51 0 102 0 153 0 21 0 24 3 24 24 0 51 0 102 0 152a211 211 0 0 1-17 82c-58 141-231 162-326 89-9-7-14-13-10-26a269 269 0 0 0 9-72c0-78 0-156-1-234 0-12 4-15 16-15 51 1 101 0 152 1z m-472 909c-100 0-173-72-173-173 0-97 72-169 167-172 96-3 178 68 179 171 0 101-73 173-173 174z m326-367c0-65 43-108 107-108s109 45 109 108-46 107-109 107c-63 0-107-43-107-107z" horiz-adv-x="1000" />

<glyph glyph-name="12" unicode="&#xe818;" d="M417 850a381 381 0 0 0 46-5 391 391 0 0 0 139-52 416 416 0 0 0 163-188 374 374 0 0 0 28-101c15-117-18-219-93-308a129 129 0 0 0-8-11c-7-6-5-11 1-17 2-2 5-5 7-7 2-2 4-4 5-5l10-10 15-14 18-18 21-20 24-24q13-12 26-25 13-14 27-27 14-15 28-29t29-29q14-15 29-30 15-16 31-33c3-2 5-5 8-8a22 22 0 0 0 5-8 25 25 0 0 0 0-11 25 25 0 0 0-6-14 23 23 0 0 0-10-5 19 19 0 0 0-13 0 21 21 0 0 0-7 6c-2 2-4 4-6 6q-8 8-16 17l-4 4q-16 17-32 33t-32 32q-16 16-32 32t-32 32l-33 32-32 32q-16 16-32 32-13 13-26 26c-9 9-15 10-25 2-133-106-327-110-465-10-53 38-98 87-128 145a391 391 0 0 0-44 202c3 52 18 103 39 149a380 380 0 0 0 69 101 418 418 0 0 0 132 92 394 394 0 0 0 156 34q10 0 20 0z m333-398c5 188-143 353-352 354-199 0-353-154-353-353 0-202 158-355 358-353 193 1 352 157 347 352z" horiz-adv-x="977" />

<glyph glyph-name="13" unicode="&#xe819;" d="M1 642a31 31 0 0 0 8 14c10 11 27 15 41 15 75-1 150 0 225-1 111-1 206-43 286-118 46-42 89-87 133-131 19-19 19-19 38 0 42 43 84 86 127 127 83 79 182 122 298 122 46 0 91 0 137 0a1 1 0 0 1 1 0 1 1 0 0 1 0 1 15 15 0 0 1-6 13c-32 29-62 61-93 92-10 10-21 23-22 37 0 17 15 28 29 35a19 19 0 0 0 10 2 19 19 0 0 0 8-3 136 136 0 0 0 14-9q3-3 6-6l3-3c1 0 3-2 3-3q56-56 112-111l33-33c10-10 24-20 30-32a34 34 0 0 0-2-34 187 187 0 0 0-27-28c-19-17-37-35-54-54s-37-37-56-55l-43-43c-20-20-41-20-57-1-13 16-11 33 7 51 32 33 64 65 96 97 3 3 9 7 7 12s-9 4-14 4c-48 0-97 2-146-1-80-5-151-33-209-89-49-47-96-96-145-143-12-12-12-20 0-32 48-47 95-95 143-142 51-50 113-77 183-87 51-8 103-3 155-4 9 0 18 0 27 1 2 0 6 0 7 3s-1 4-3 6c-16 18-33 34-50 50q-26 27-52 53c-20 20-19 41-1 56 16 13 34 11 51-6q57-57 114-113c11-12 23-25 35-36s28-22 35-38a30 30 0 0 0-1-24 47 47 0 0 0-10-13l-14-14c-28-29-57-58-86-87q-33-33-66-66a161 161 0 0 0-22-18 24 24 0 0 0-14-5c-8 0-16 6-22 10a35 35 0 0 0-12 20c-3 13 2 26 11 35q28 29 57 56l28 29a239 239 0 0 1 22 23 4 4 0 0 1 2 3 3 3 0 0 1-2 2 13 13 0 0 1-8 2c-45-1-90-1-135 0-112 1-208 43-288 119-45 41-87 85-130 128-21 22-21 21-43 0-51-50-98-106-154-150-74-60-159-96-256-97-77-1-154 1-231 0-19-1-39 5-47 25a31 31 0 0 0-1 22 33 33 0 0 0 15 16 68 68 0 0 0 34 9c78-1 156-2 233 0 84 2 158 32 219 90 48 47 95 96 143 142 13 13 11 21-1 33-45 44-90 90-135 134-65 65-144 97-235 98-75 1-151 1-227 0-14 0-32 5-41 17a32 32 0 0 0-5 26z" horiz-adv-x="1426" />

<glyph glyph-name="14" unicode="&#xe81a;" d="M319-149a324 324 0 0 0-150 32c-50 23-91 64-121 110-57 85-62 194-21 287 20 45 53 82 91 111 27 21 58 35 87 53a9 9 0 0 1 3 3 9 9 0 0 1 1 6c-7 38-17 77-13 115a323 323 0 0 0 25 100c28 62 80 117 141 148a297 297 0 0 0 97 31 300 300 0 0 0 204-46 318 318 0 0 0 123-155q1-2 2-5a292 292 0 0 0 16-92c0-32-7-62-14-93a14 14 0 0 1 0-9 14 14 0 0 1 7-6c33-17 64-30 93-55a324 324 0 0 0 67-80c54-89 55-205 4-295-47-85-134-147-231-159-78-9-157 14-219 62-9 7-15 7-24 0a272 272 0 0 0-29-20 281 281 0 0 0-139-43z m-79 687a297 297 0 0 1 3-38c1-11 3-25 9-34a18 18 0 0 1 6-7 21 21 0 0 1 14-2 211 211 0 0 0 22 2 241 241 0 0 0 28 0 301 301 0 0 0 165-63c9-7 15-8 24-1 64 49 136 71 217 62 12-1 18 3 21 15a278 278 0 0 1 8 109c-18 139-137 242-295 222-132-17-223-125-222-265z m-196-383c1-13 0-27 2-40 34-210 261-272 406-176 18 12 17 12 5 29-62 81-83 171-54 271 4 14-1 19-13 23-64 26-114 69-150 128-8 12-15 14-28 9-102-36-168-131-168-244z m651-259c49 0 93 10 130 32 92 56 133 139 128 246-4 102-73 194-170 226-10 4-17 2-23-8-37-60-87-104-153-130-13-5-15-11-11-24a267 267 0 0 0 12-99 301 301 0 0 0-69-175c-9-10-7-15 3-22a256 256 0 0 1 153-46z m-259 261a254 254 0 0 1 51-162c11-14 13-15 23 0 54 72 64 151 43 237-2 8-7 13-16 11a266 266 0 0 0-75 0c-10 2-14-3-17-12a246 246 0 0 1-9-74z m-18 141c8-2 11 4 14 9 9 12 17 26 27 37 8 10 8 16-3 24-51 35-108 49-169 46-14-1-10-7-5-14 26-40 61-70 105-90 10-5 20-8 31-12z m272 116a253 253 0 0 1-149-47c-9-7-10-12-3-21a349 349 0 0 0 27-38c6-9 12-12 22-8 49 18 91 47 122 89 4 7 14 14 11 21-4 8-16 3-24 4a39 39 0 0 1-6 0z m-191-127l21 0a5 5 0 0 1 4 2 4 4 0 0 1 1 2 26 26 0 0 1-6 13q-7 9-13 17c-10 13-21-10-27-17a22 22 0 0 1-5-8 8 8 0 0 1 3-8 11 11 0 0 1 6-1z" horiz-adv-x="998" />

<glyph glyph-name="15" unicode="&#xe81b;" d="M1 329q-2 25 0 50c14 255 236 468 492 471 250 3 476-198 503-448 26-252-156-493-404-543-257-52-522 129-580 382a492 492 0 0 0-11 88z m498 476c-252 4-458-201-456-459 2-251 204-453 458-452 251 1 457 204 454 463-4 252-206 452-456 448z m282-215c0-8-4-14-7-19q-145-222-291-444c-12-19-25-21-41-7q-116 109-233 218a69 69 0 0 0-11 12 19 19 0 0 0 3 26c7 7 16 10 24 4a131 131 0 0 0 21-16q100-94 200-188c10-10 14-4 20 4q66 103 133 205 69 104 138 209c7 11 14 20 29 16a20 20 0 0 0 15-20z" horiz-adv-x="998" />

<glyph glyph-name="16" unicode="&#xe81c;" d="M675 800c-1-24-22-46-35-65-60-97-119-195-182-289-2-3-3-6-1-8a7 7 0 0 1 5-2c20 0 43 3 61-6 9-4 16-11 19-20s1-20-4-28c-11-20-31-37-47-53q-128-135-257-269l-149-154c-13-14-26-27-38-40-11-12-22-17-38-16a10 10 0 0 0-7 2 10 10 0 0 0-2 8c1 23 13 45 21 66l29 76 59 152q31 79 61 159c6 14 5 14-10 14s-30 1-45 0c-38-1-66 37-50 76 46 109 90 220 135 330 5 12 12 24 16 37 10 33 33 61 67 72 27 9 53 5 81 5 29 0 59 1 88 1 48 0 96 0 144 2 17 1 34 0 49-7s28-21 30-38a41 41 0 0 0 0-5z m-586-825c3-1 5 2 6 4 23 23 45 47 68 71q104 109 209 218 55 57 110 115c2 2 6 4 5 7-1 4-6 2-9 2-21 1-42 0-63 1-13 0-20 5-23 17-3 10 4 17 8 24q92 146 184 291c16 26 32 51 48 77-3 0-5 0-6 0l-313 0c-30 0-40-7-52-35-6-16-13-33-19-49q-69-167-137-335c-5-11-4-12 8-12 29 0 58 0 87 0 26 0 35-13 25-38q-67-174-134-348c-2-3-4-6-2-10z" horiz-adv-x="675" />

<glyph glyph-name="align-left" unicode="&#xe81d;" d="M1000 100v-71q0-15-11-25t-25-11h-928q-15 0-25 11t-11 25v71q0 15 11 25t25 11h928q15 0 25-11t11-25z m-214 214v-71q0-15-11-25t-25-11h-714q-15 0-25 11t-11 25v71q0 15 11 25t25 11h714q15 0 25-11t11-25z m143 215v-72q0-14-11-25t-25-11h-857q-15 0-25 11t-11 25v72q0 14 11 25t25 10h857q14 0 25-10t11-25z m-215 214v-72q0-14-10-25t-25-10h-643q-15 0-25 10t-11 25v72q0 14 11 25t25 11h643q14 0 25-11t10-25z" horiz-adv-x="1000" />

<glyph glyph-name="twitter" unicode="&#xf099;" d="M904 622q-37-54-90-93 0-8 0-23 0-73-21-145t-64-139-103-117-144-82-181-30q-151 0-276 81 19-2 43-2 126 0 224 77-59 1-105 36t-64 89q19-3 34-3 24 0 48 6-63 13-104 62t-41 115v2q38-21 82-23-37 25-59 64t-22 86q0 49 25 91 68-83 164-133t208-55q-5 21-5 41 0 75 53 127t127 53q79 0 132-57 61 12 115 44-21-64-80-100 52 6 104 28z" horiz-adv-x="928.6" />

<glyph glyph-name="smile" unicode="&#xf118;" d="M633 250q-21-67-77-109t-127-41-128 41-77 109q-4 14 3 27t21 18q14 4 27-2t17-22q14-44 52-72t85-28 84 28 52 72q4 15 18 22t27 2 21-18 2-27z m-276 243q0-30-21-51t-50-21-51 21-21 51 21 50 51 21 50-21 21-50z m286 0q0-30-21-51t-51-21-50 21-21 51 21 50 50 21 51-21 21-50z m143-143q0 73-29 139t-76 114-114 76-138 28-139-28-114-76-76-114-29-139 29-139 76-113 114-77 139-28 138 28 114 77 76 113 29 139z m71 0q0-117-57-215t-156-156-215-58-216 58-155 156-58 215 58 215 155 156 216 58 215-58 156-156 57-215z" horiz-adv-x="857.1" />

<glyph glyph-name="youtube-play" unicode="&#xf16a;" d="M397 221l270 139-270 141v-280z m103 481q94 0 181-3t128-5l41-2q0 0 9-1t13-2 13-2 16-5 16-7 17-11 16-15q4-3 9-10t16-33 15-56q4-36 7-76t3-64v-98q1-81-10-162-4-30-14-55t-18-35l-8-9q-7-8-16-15t-17-10-16-7-16-5-13-2-13-2-9-1q-140-11-350-11-115 2-201 4t-111 4l-28 3-20 2q-20 3-30 5t-29 12-31 23q-4 3-9 10t-16 33-15 56q-4 36-7 76t-3 64v98q-1 81 10 162 4 31 14 55t18 35l8 9q8 9 16 15t17 11 16 7 16 5 13 2 13 2 9 1q140 10 350 10z" horiz-adv-x="1000" />

<glyph glyph-name="instagram" unicode="&#xf16d;" d="M571 350q0 59-41 101t-101 42-101-42-42-101 42-101 101-42 101 42 41 101z m77 0q0-91-64-156t-155-64-156 64-64 156 64 156 156 64 155-64 64-156z m61 229q0-21-15-36t-37-15-36 15-15 36 15 36 36 15 37-15 15-36z m-280 123q-4 0-43 0t-59 0-54-2-57-5-40-11q-28-11-49-32t-33-49q-6-16-10-40t-6-58-1-53 0-59 0-43 0-43 0-59 1-53 6-58 10-40q12-28 33-49t49-32q16-6 40-11t57-5 54-2 59 0 43 0 42 0 59 0 54 2 58 5 39 11q28 11 50 32t32 49q6 16 10 40t6 58 1 53 0 59 0 43 0 43 0 59-1 53-6 58-10 40q-11 28-32 49t-50 32q-16 6-39 11t-58 5-54 2-59 0-42 0z m428-352q0-128-3-177-5-116-69-180t-179-69q-50-3-177-3t-177 3q-116 6-180 69t-69 180q-3 49-3 177t3 177q5 116 69 180t180 69q49 3 177 3t177-3q116-6 179-69t69-180q3-49 3-177z" horiz-adv-x="857.1" />

<glyph glyph-name="vkontakte" unicode="&#xf189;" d="M1070 560q13-36-84-164-13-18-36-48-22-28-31-40t-17-27-7-24 8-19 18-24 32-30q2-1 2-2 79-73 107-123 2-3 4-7t4-15-1-19-14-15-33-7l-142-3q-14-2-32 3t-29 13l-11 6q-17 12-39 36t-38 43-34 33-32 8q-1 0-4-2t-10-8-12-16-9-29-4-44q0-8-2-15t-4-10l-2-3q-10-11-30-12h-64q-40-3-81 9t-74 29-57 37-40 32l-14 14q-5 5-15 17t-40 50-59 85-68 117-73 152q-4 9-4 15t2 9l2 3q9 11 32 11l153 1q7-1 13-3t9-5l3-2q9-6 13-18 11-28 26-57t23-46l9-16q16-34 31-58t27-38 23-22 19-8 15 3q1 1 3 3t7 12 7 26 5 46 0 69q-1 23-5 41t-7 26l-4 6q-14 19-47 24-8 2 3 14 8 10 21 17 29 14 133 13 46-1 75-7 12-3 19-8t12-13 5-18 2-25 0-31-2-40 0-46q0-6-1-23t0-27 2-22 6-22 13-14q4-1 9-2t15 6 21 19 29 38 38 60q33 58 60 125 2 6 5 10t6 6l3 2 2 1t8 2 11 0l160 1q22 3 36-1t17-10z" horiz-adv-x="1071.4" />

<glyph glyph-name="facebook-squared" unicode="&#xf308;" d="M696 779q67 0 114-48t47-113v-536q0-66-47-113t-114-48h-104v333h111l16 129h-127v83q0 31 13 46t51 16l68 1v115q-35 5-100 5-75 0-121-44t-45-127v-95h-112v-129h112v-333h-297q-67 0-114 48t-47 113v536q0 66 47 113t114 48h535z" horiz-adv-x="857.1" />
</font>
</defs>
</svg>
