<svg xmlns="http://www.w3.org/2000/svg" width="91.532" height="24.625" viewBox="0 0 91.532 24.625">
  <metadata><?xpacket begin="﻿" id="W5M0MpCehiHzreSzNTczkc9d"?>
<x:xmpmeta xmlns:x="adobe:ns:meta/" x:xmptk="Adobe XMP Core 5.6-c138 79.159824, 2016/09/14-01:09:01        ">
   <rdf:RDF xmlns:rdf="http://www.w3.org/1999/02/22-rdf-syntax-ns#">
      <rdf:Description rdf:about=""/>
   </rdf:RDF>
</x:xmpmeta>
                                                                                                    
                                                                                                    
                                                                                                    
                                                                                                    
                                                                                                    
                                                                                                    
                                                                                                    
                                                                                                    
                                                                                                    
                                                                                                    
                                                                                                    
                                                                                                    
                                                                                                    
                                                                                                    
                                                                                                    
                                                                                                    
                                                                                                    
                                                                                                    
                                                                                                    
                                                                                                    
                           
<?xpacket end="w"?></metadata>
<defs>
    <style>
      .cls-1 {
        fill: #3a405b;
        fill-rule: evenodd;
      }
    </style>
  </defs>
  <path id="Portland" class="cls-1" d="M117.037,56.425a1.733,1.733,0,0,0,.885.237,1.883,1.883,0,0,0,1.346-.409,3.014,3.014,0,0,0,.687-1.1,13.917,13.917,0,0,0,.514-1.518q0.251-.885.489-1.9t0.449-2.072q0.21-1.056.422-2.059a12.074,12.074,0,0,0,4.594-1.083,12.521,12.521,0,0,0,3.405-2.31,10.756,10.756,0,0,0,2.192-2.97,9.262,9.262,0,0,0,.95-3.089,7.567,7.567,0,0,0-.079-1.847,5.748,5.748,0,0,0-.7-2.007,4.683,4.683,0,0,0-1.557-1.61,4.856,4.856,0,0,0-2.68-.66,13.541,13.541,0,0,0-3.036.317,14.7,14.7,0,0,0-2.4.753,11.653,11.653,0,0,0-1.729.884q-0.7.45-1.043,0.687a1.2,1.2,0,0,0-.66.871,2.173,2.173,0,0,0,.159.818,2.063,2.063,0,0,0,.185.343,2.2,2.2,0,0,0,.528.634q0.449-.475.924-0.911c0.316-.291.616-0.549,0.9-0.779a9.306,9.306,0,0,1,.977-0.713q-0.184.661-.5,1.848t-0.712,2.653q-0.4,1.465-.819,3.089t-0.831,3.155q-0.409,1.531-.753,2.878t-0.554,2.218a21.224,21.224,0,0,1-.766,2.587,9.788,9.788,0,0,1-.673,1.452,2.8,2.8,0,0,1-.528.686c-0.149.122-.26,0.211-0.33,0.264A2.776,2.776,0,0,0,117.037,56.425Zm5.954-14.731q0.237-1.083.646-2.8t1.043-4.277a1,1,0,0,0-.237-0.448,0.523,0.523,0,0,0-.185-0.132,9.273,9.273,0,0,1,1.267-.476,4.623,4.623,0,0,1,1.294-.185,4.405,4.405,0,0,1,1.373.225,2.976,2.976,0,0,1,1.214.765,3.506,3.506,0,0,1,.805,1.426,5.592,5.592,0,0,1,.145,2.2,8.712,8.712,0,0,1-.594,2.5,8.591,8.591,0,0,1-1.148,2.006,9.465,9.465,0,0,1-1.518,1.558,11.356,11.356,0,0,1-1.7,1.148,9.969,9.969,0,0,1-1.742.752,10.215,10.215,0,0,1-1.584.383q0.158-.845.277-1.518t0.2-1.1q0.157-.765.449-2.032h0ZM142.052,47q0.872-.528,1.61-1.083t1.281-1.03a7.956,7.956,0,0,0,.673-0.634,1.324,1.324,0,0,0,.29-0.528,0.5,0.5,0,0,0-.026-0.37,0.241,0.241,0,0,0-.264-0.105,0.946,0.946,0,0,0-.449.264,8,8,0,0,1-.845.713q-0.528.4-1.148,0.779t-1.281.727a13.165,13.165,0,0,1-1.267.58c0.017-.141.035-0.312,0.053-0.515s0.026-.374.026-0.515a3.965,3.965,0,0,0-1.175-2.957,3.63,3.63,0,0,0-1-.713,2.641,2.641,0,0,0-.858-0.264c-0.053-.017-0.1-0.035-0.145-0.053a0.382,0.382,0,0,0-.145-0.026,4.213,4.213,0,0,0-.977.119,4.1,4.1,0,0,0-.937.343,2.882,2.882,0,0,0-.766.567,2.17,2.17,0,0,0-.488.792,6.212,6.212,0,0,0-.779,1.161,8.619,8.619,0,0,0-.541,1.268,9.916,9.916,0,0,0-.33,1.241,5.833,5.833,0,0,0-.119,1.108q0,0.713.066,1.532a4.6,4.6,0,0,0,.37,1.505,2.839,2.839,0,0,0,.924,1.148,2.8,2.8,0,0,0,1.7.462,4.048,4.048,0,0,0,1.7-.356,4.659,4.659,0,0,0,1.4-.99,6.182,6.182,0,0,0,1.07-1.5,9.184,9.184,0,0,0,.712-1.875A8.248,8.248,0,0,0,142.052,47Zm-5.267-4a1.843,1.843,0,0,1,.963-0.277,0.675,0.675,0,0,1,.542.277,2.276,2.276,0,0,1,.369.712,4.416,4.416,0,0,1,.2.963,5.062,5.062,0,0,1,0,1.03,2.139,2.139,0,0,1-.066.488c-0.044.185-.092,0.392-0.145,0.62-0.088.018-.176,0.031-0.264,0.04a2.564,2.564,0,0,1-.264.013,2.705,2.705,0,0,1-1.28-.251A1.652,1.652,0,0,1,136.164,46a2.159,2.159,0,0,1-.264-0.831,7.835,7.835,0,0,1-.052-0.884,1.569,1.569,0,0,1,.079-0.5A3.21,3.21,0,0,1,136.785,43Zm-2.442,4.422q0.105-.527.264-1.082a3.915,3.915,0,0,0,1.122,1.518,2.644,2.644,0,0,0,1.729.594c0.141,0,.268,0,0.383-0.013s0.233-.021.356-0.039a7.3,7.3,0,0,1-.435.964,4.407,4.407,0,0,1-.568.819,2.791,2.791,0,0,1-.713.581,1.736,1.736,0,0,1-.871.224,1.02,1.02,0,0,1-.686-0.224,1.6,1.6,0,0,1-.423-0.581,2.8,2.8,0,0,1-.211-0.819,8.286,8.286,0,0,1-.053-0.937A5.086,5.086,0,0,1,134.343,47.422Zm8.276,3.788q0.332-.541.806-1.32t1.016-1.676q0.541-.9,1.03-1.716t0.858-1.426q0.369-.606.475-0.792a2.9,2.9,0,0,1,.449.158,1.418,1.418,0,0,0,.58.106q0.238,0,.357-0.013a1.8,1.8,0,0,1,.185-0.013,0.657,0.657,0,0,0,.132-0.013,1.319,1.319,0,0,1,.224-0.013,0.365,0.365,0,0,1,.343.184,0.843,0.843,0,0,1,.106.422,2.107,2.107,0,0,1-.277.911q-0.278.541-.726,1.307c-0.124.247-.26,0.5-0.41,0.753s-0.29.51-.422,0.765-0.247.5-.343,0.739a2.305,2.305,0,0,0-.172.673,2.688,2.688,0,0,0,.093.858,2.474,2.474,0,0,0,.4.845,2.348,2.348,0,0,0,.726.647,2.218,2.218,0,0,0,1.135.264,2.9,2.9,0,0,0,1.386-.4,8.54,8.54,0,0,0,1.452-1.017,13.5,13.5,0,0,0,1.386-1.373q0.66-.752,1.2-1.465t0.924-1.293q0.382-.581.541-0.845a1,1,0,0,0,.2-0.633,0.4,0.4,0,0,0-.2-0.317,0.446,0.446,0,0,0-.369,0,0.679,0.679,0,0,0-.343.29q-0.159.212-.489,0.686t-0.805,1.069q-0.475.594-1.03,1.215a15.105,15.105,0,0,1-1.122,1.135,7.412,7.412,0,0,1-1.109.845,1.939,1.939,0,0,1-.99.33,0.872,0.872,0,0,1-.739-0.211,1.462,1.462,0,0,1-.185-0.554,2.055,2.055,0,0,1,.317-1.188q0.371-.659.739-1.188,0.608-.845,1.03-1.558a2.168,2.168,0,0,0,.343-1.373,4.543,4.543,0,0,0-.119-0.7,2.78,2.78,0,0,0-.277-0.712,1.8,1.8,0,0,0-.475-0.555,1.172,1.172,0,0,0-.739-0.224,2,2,0,0,0-.541.053,2.3,2.3,0,0,1-.594.053,1,1,0,0,1-.423-0.066,1.9,1.9,0,0,1-.211-0.118,2.552,2.552,0,0,0,.4-0.95,2.6,2.6,0,0,0,.053-0.871,2.245,2.245,0,0,0-.357-0.977,1.14,1.14,0,0,0-1.042-.475,1.271,1.271,0,0,0-.819.37,4.4,4.4,0,0,0-.765.884,5.362,5.362,0,0,0-.555,1.069,1.839,1.839,0,0,0-.158.9,1.061,1.061,0,0,0,.158.515q0.1,0.119.4,0.383c-0.105.194-.273,0.506-0.5,0.938s-0.48.919-.753,1.465-0.559,1.122-.858,1.729l-0.831,1.69q-0.382.778-.66,1.333l-0.357.713a0.793,0.793,0,0,0-.1.528,0.369,0.369,0,0,0,.224.277,0.527,0.527,0,0,0,.4-0.026,0.93,0.93,0,0,0,.409-0.383Q142.29,51.753,142.619,51.211Zm20.764-5.174q-0.4.514-.924,1.148t-1.148,1.293q-0.621.66-1.228,1.215a6.92,6.92,0,0,1-1.175.884,1.571,1.571,0,0,1-.963.277,1.374,1.374,0,0,1-.845-0.317,2,2,0,0,1-.488-0.858,4,4,0,0,1-.04-1.729q0.685-1.584,1.241-2.983t0.95-2.482q0.448-1.24.792-2.3a7.554,7.554,0,0,0,.251-0.858q0.091-.409.2-0.831c0.141,0,.277,0,0.409-0.013s0.251-.013.357-0.013q0.844,0,1.478.053t1.1,0.105a7.055,7.055,0,0,1,.792.132,4.319,4.319,0,0,0,.594.106,0.572,0.572,0,0,0,.475-0.106,0.9,0.9,0,0,0,.3-0.383,0.982,0.982,0,0,0,.08-0.435,0.263,0.263,0,0,0-.2-0.264c-0.124-.035-0.308-0.1-0.555-0.2a7.519,7.519,0,0,0-.977-0.29q-0.608-.146-1.465-0.264a14.419,14.419,0,0,0-1.967-.119,14.271,14.271,0,0,0,.291-2.217,2.477,2.477,0,0,0-.106-1.082,0.639,0.639,0,0,0-.422-0.2,2.326,2.326,0,0,0-.607,0,3.058,3.058,0,0,0-.594.132,0.644,0.644,0,0,0-.357.224,5.732,5.732,0,0,0-.594,1.307q-0.33.937-.673,2.2-0.448.08-.911,0.132t-0.963.079a11.893,11.893,0,0,1-1.268-.013q-0.581-.04-1.082-0.093a0.625,0.625,0,0,0-.356.145,1.364,1.364,0,0,0-.33.343,0.946,0.946,0,0,0-.159.4,0.283,0.283,0,0,0,.185.3,6.8,6.8,0,0,0,2.719.58A7.074,7.074,0,0,0,156.018,39l0.9-.106q-0.37,1.532-.7,3.181t-0.594,3.089q-0.266,1.44-.423,2.534t-0.185,1.518a3.389,3.389,0,0,0,.08,1.1,3.222,3.222,0,0,0,.462,1.1,2.722,2.722,0,0,0,.91.845,2.823,2.823,0,0,0,1.452.343,2.762,2.762,0,0,0,1.5-.66,13.56,13.56,0,0,0,1.848-1.677,24.484,24.484,0,0,0,1.809-2.178,17.293,17.293,0,0,0,1.386-2.165,1.053,1.053,0,0,0,.145-0.5,0.344,0.344,0,0,0-.119-0.264,0.322,0.322,0,0,0-.277-0.039,0.442,0.442,0,0,0-.277.2Q163.779,45.522,163.383,46.037ZM162.2,52.029a1.777,1.777,0,0,0,.317.278,1.676,1.676,0,0,0,.37.158,3.281,3.281,0,0,0,.4.026,1.282,1.282,0,0,0,.343-0.053,0.739,0.739,0,0,0,.317-0.185q1.214-4.779,2.019-7.92t1.281-4.963q0.553-2.138.871-3.273,0.132-.58.238-1.083c0.035-.281.056-0.554,0.066-0.818a0.649,0.649,0,0,0-.146-0.528,0.3,0.3,0,0,0-.237-0.171,1.906,1.906,0,0,0-.4-0.04,3.029,3.029,0,0,0-.528.053c-0.194.036-.388,0.079-0.581,0.132q-0.237.053-.488,0.132a2.038,2.038,0,0,0-.463.211,3.907,3.907,0,0,1,.08.819,7.056,7.056,0,0,1-.053.871c-0.036.317-.079,0.642-0.132,0.976q-0.159.713-.581,2.561-0.371,1.558-1.069,4.514t-1.861,7.841A1.086,1.086,0,0,0,162.2,52.029Zm20-6.032a0.633,0.633,0,0,0-.04-0.475,0.286,0.286,0,0,0-.317-0.119,0.778,0.778,0,0,0-.422.277c-0.106.141-.277,0.361-0.515,0.66s-0.506.642-.805,1.03-0.621.788-.964,1.2-0.673.791-.99,1.135a7.647,7.647,0,0,1-.9.845,1.251,1.251,0,0,1-.686.33,0.732,0.732,0,0,1-.488-0.145,0.827,0.827,0,0,1-.251-0.383,1.908,1.908,0,0,1-.093-0.515,3.191,3.191,0,0,1,.014-0.515q0.078-.4.132-0.66c0.035-.176.066-0.33,0.092-0.462s0.053-.264.079-0.4,0.057-.277.093-0.436q0.263-1.214.422-1.98t0.238-1.214a4.239,4.239,0,0,0,.079-0.621,0.617,0.617,0,0,0-.026-0.224,0.565,0.565,0,0,0-.212-0.026c-0.088,0-.215.009-0.383,0.026a6.171,6.171,0,0,0-.62.105,1.9,1.9,0,0,0,.436-1.359,1.265,1.265,0,0,0-.489-0.779,3.206,3.206,0,0,0-1.161-.422,2.966,2.966,0,0,0-1.532.422,7.821,7.821,0,0,0-1.874,1.413,11.715,11.715,0,0,0-1.756,2.257,9.773,9.773,0,0,0-1.174,2.93,6.343,6.343,0,0,0-.212,2.046,3.678,3.678,0,0,0,.37,1.4,1.961,1.961,0,0,0,.713.792,1.565,1.565,0,0,0,.792.251,5.7,5.7,0,0,0,1.584-.343,6.273,6.273,0,0,0,1.452-.832,5.509,5.509,0,0,0,1.4-1.623,4.327,4.327,0,0,0,.092,1.188,4.674,4.674,0,0,0,.251.766,1.4,1.4,0,0,0,.4.528,1.567,1.567,0,0,0,.555.224,2.431,2.431,0,0,0,.673.039,3.161,3.161,0,0,0,.7-0.132,2.77,2.77,0,0,0,.607-0.264,6,6,0,0,0,.99-0.911q0.594-.647,1.214-1.425t1.2-1.558q0.581-.778.951-1.307A2,2,0,0,0,182.194,46Zm-8.343,2.323a6.424,6.424,0,0,1-.5.634,6.155,6.155,0,0,1-.686.66,4.358,4.358,0,0,1-.766.515,1.773,1.773,0,0,1-.752.211,0.862,0.862,0,0,1-.66-0.277,1.168,1.168,0,0,1-.211-0.674,5.1,5.1,0,0,1,.039-1.2,9.378,9.378,0,0,1,.33-1.465,7.057,7.057,0,0,1,.634-1.465,9,9,0,0,1,1.676-2.284q0.726-.619,1.017-0.383a0.62,0.62,0,0,1,.1.291,1.465,1.465,0,0,1-.013.436,2.4,2.4,0,0,1-.251.7,3.612,3.612,0,0,1,.423-0.079,1.387,1.387,0,0,0,.343-0.079,2.455,2.455,0,0,1,.29-0.079c0.071-.017.084,0.118,0.04,0.409s-0.11.656-.2,1.1-0.194.9-.317,1.373-0.229.889-.317,1.241A1.394,1.394,0,0,1,173.851,48.32Zm15.259,3.973a7.755,7.755,0,0,0,1.307-.924,12.356,12.356,0,0,0,1.267-1.268q0.607-.7,1.136-1.386t0.91-1.294q0.383-.607.568-0.977a1.65,1.65,0,0,0,.211-0.7,0.41,0.41,0,0,0-.118-0.356,0.325,0.325,0,0,0-.33.027,1.321,1.321,0,0,0-.449.449q-0.343.528-1,1.386t-1.4,1.676a12.632,12.632,0,0,1-1.465,1.4,2.138,2.138,0,0,1-1.2.581,0.442,0.442,0,0,1-.515-0.423,2.868,2.868,0,0,1,.119-1q0.29-.9.488-1.65t0.33-1.307l0.291-1.161a4.811,4.811,0,0,0,.2-1.558,3.584,3.584,0,0,0-.264-1.227,1.933,1.933,0,0,0-.621-0.806,1.48,1.48,0,0,0-.9-0.29,2.966,2.966,0,0,0-1.188.251,5.114,5.114,0,0,0-1.1.647,6.905,6.905,0,0,0-.95.884,11.828,11.828,0,0,0-.779.964q0.158-.448.264-0.872,0.1-.369.211-0.7c0.07-.219.132-0.391,0.185-0.514a1.086,1.086,0,0,0-.357-0.2,2.222,2.222,0,0,0-.382-0.093,3.553,3.553,0,0,0-.423-0.026,1.847,1.847,0,0,0-.449.106,2.319,2.319,0,0,0-.409.145,1.688,1.688,0,0,0-.383.251q-0.264,1-.462,1.848t-0.33,1.478q-0.157.74-.29,1.347-0.184.766-.4,1.61t-0.409,1.6q-0.2.752-.343,1.306t-0.172.713q-0.053.238,0.277,0.238a2.406,2.406,0,0,0,.779-0.158,4.186,4.186,0,0,0,.845-0.41,1.024,1.024,0,0,0,.475-0.515c0.053-.247.114-0.506,0.185-0.779s0.145-.589.224-0.95,0.172-.765.277-1.215,0.238-.972.4-1.57q0.448-.66.911-1.28a10.925,10.925,0,0,1,.924-1.1,4.868,4.868,0,0,1,.911-0.753,1.659,1.659,0,0,1,.871-0.277,0.446,0.446,0,0,1,.449.383,2.828,2.828,0,0,1,.053.977,9.447,9.447,0,0,1-.225,1.32q-0.171.727-.369,1.452t-0.383,1.346q-0.184.62-.264,0.99a2.646,2.646,0,0,0-.053,1.043,2.007,2.007,0,0,0,.343.858,1.933,1.933,0,0,0,.7.594,2.253,2.253,0,0,0,1.043.224A2.55,2.55,0,0,0,189.11,52.293Zm13.438-8.131q0.753-1.465,1.334-2.93a24.606,24.606,0,0,0,.937-2.838,12.488,12.488,0,0,0,.409-2.535,10.609,10.609,0,0,0,0-1.5,2.38,2.38,0,0,0-.2-0.832,0.639,0.639,0,0,0-.357-0.343,1.593,1.593,0,0,0-.475-0.066,1.412,1.412,0,0,0-.449.08,2.721,2.721,0,0,0-.448.158,2.336,2.336,0,0,0-.5.316q-0.423,1.4-.766,2.667t-0.607,2.244q-0.291,1.134-.554,2.111-0.159.66-.317,1.4t-0.343,1.505a4.85,4.85,0,0,0-.251-0.792,3.6,3.6,0,0,0-.436-0.779,2.216,2.216,0,0,0-.633-0.58,1.552,1.552,0,0,0-.819-0.224,4.018,4.018,0,0,0-2.046.594,6.529,6.529,0,0,0-1.821,1.611,9.046,9.046,0,0,0-1.334,2.389,9.427,9.427,0,0,0-.607,2.9,4.811,4.811,0,0,0,.159,1.663,3.4,3.4,0,0,0,.541,1.109,1.955,1.955,0,0,0,.752.607,2,2,0,0,0,.792.185,3.982,3.982,0,0,0,2.152-.726,11.206,11.206,0,0,0,2.231-1.967c-0.036.3-.062,0.51-0.079,0.634a2.147,2.147,0,0,0,.118.844,2.645,2.645,0,0,0,.41.765,2.327,2.327,0,0,0,.594.555,1.275,1.275,0,0,0,.7.211,2.44,2.44,0,0,0,1.122-.33,8.882,8.882,0,0,0,1.294-.858,13.762,13.762,0,0,0,1.346-1.214q0.674-.686,1.281-1.4t1.109-1.386q0.5-.673.818-1.175a1.022,1.022,0,0,0,.211-0.528,0.343,0.343,0,0,0-.1-0.29,0.357,0.357,0,0,0-.278-0.053,0.606,0.606,0,0,0-.33.185c-0.088.088-.25,0.282-0.488,0.58s-0.528.647-.871,1.043-0.718.814-1.122,1.255-0.81.845-1.215,1.214a10.574,10.574,0,0,1-1.148.924,1.737,1.737,0,0,1-.911.37,0.777,0.777,0,0,1-.581-0.291,1.312,1.312,0,0,1-.237-0.95q0.025-.449.145-1.188t0.251-1.558A29.608,29.608,0,0,0,202.548,44.162Zm-3.933,4.053a14.567,14.567,0,0,1-1,1.082,7.3,7.3,0,0,1-1.108.9,1.95,1.95,0,0,1-1.043.369,1.147,1.147,0,0,1-1-.554,3.144,3.144,0,0,1-.317-1.822,6.511,6.511,0,0,1,.422-1.795,10.181,10.181,0,0,1,.924-1.888,8.2,8.2,0,0,1,1.188-1.5,1.822,1.822,0,0,1,1.241-.621,0.767,0.767,0,0,1,.66.33,2.367,2.367,0,0,1,.356.765,4.228,4.228,0,0,1,.146.845c0.017,0.273.026,0.462,0.026,0.568a0.79,0.79,0,0,0,.106.462,0.3,0.3,0,0,0,.4.013,0.805,0.805,0,0,0,.092-0.053,0.905,0.905,0,0,1,.092-0.053q-0.132.528-.224,1.03t-0.2,1Q199.076,47.66,198.615,48.215Z" transform="translate(-116.281 -32.031)"/>
</svg>
