<?xml version="1.0" standalone="no"?>
<!DOCTYPE svg PUBLIC "-//W3C//DTD SVG 1.1//EN" "http://www.w3.org/Graphics/SVG/1.1/DTD/svg11.dtd" >
<svg xmlns="http://www.w3.org/2000/svg" xmlns:xlink="http://www.w3.org/1999/xlink" version="1.1">
<metadata>
Created by FontForge 20160405 at Sat Apr 22 15:10:46 2017
 By www-data
Copyright (c) 2013 by Roman Ershov, Jovanny Lemonad. All rights reserved.
</metadata>
<defs>
<font id="Supermolot-Light" horiz-adv-x="600" >
  <font-face 
    font-family="Supermolot"
    font-weight="300"
    font-stretch="normal"
    units-per-em="1000"
    panose-1="2 0 5 3 5 0 0 2 0 4"
    ascent="807"
    descent="-193"
    x-height="530"
    cap-height="700"
    bbox="-75 -259 1300 940"
    underline-thickness="50"
    underline-position="-100"
    unicode-range="U+0020-2122"
  />
<missing-glyph horiz-adv-x="740" 
d="M100 605h540v-510h-540v510zM580 545h-420v-390h420v390zM370 390l115 105l40 -40l-115 -105l115 -105l-40 -40l-115 105l-115 -105l-40 40l115 105l-115 105l40 40z" />
    <glyph glyph-name=".notdef" horiz-adv-x="740" 
d="M100 605h540v-510h-540v510zM580 545h-420v-390h420v390zM370 390l115 105l40 -40l-115 -105l115 -105l-40 -40l-115 105l-115 -105l-40 40l115 105l-115 105l40 40z" />
    <glyph glyph-name="afii10021" unicode="&#x414;" horiz-adv-x="700" 
d="M175 700h400v-645h100v-195h-55l-20 140h-525l-20 -140h-55v195h55c11 7 22 15 32 26c17 17 34 44 38 79zM240 645l-45 -485c-3 -35 -20 -60 -35 -76c-9 -9 -19 -17 -30 -24v-5h375v590h-265z" />
    <glyph glyph-name="afii10024" unicode="&#x416;" horiz-adv-x="960" 
d="M125 700l160 -320h160v320h70v-320h160l160 320h65v-35l-165 -310l190 -320v-35h-65l-185 325h-160v-325h-70v325h-160l-185 -325h-65v35l190 320l-165 310v35h65z" />
    <glyph glyph-name="afii10025" unicode="&#x417;" horiz-adv-x="565" 
d="M325 645h-265l-20 20v35h285c105 0 165 -59 165 -150v-70c0 -51 -25 -79 -50 -95c-15 -9 -31 -16 -50 -20v-5c20 -4 38 -11 55 -21c27 -19 55 -48 55 -104v-85c0 -91 -60 -150 -165 -150h-310v55h310c56 0 95 39 95 95v85c0 56 -39 95 -95 95h-175v55h165
c56 0 95 39 95 95v70c0 56 -39 95 -95 95z" />
    <glyph glyph-name="afii10026" unicode="&#x418;" horiz-adv-x="680" 
d="M180 0h-85v700h70v-460l-10 -145h5l340 605h85v-700h-70v460l10 145h-5z" />
    <glyph glyph-name="afii10027" unicode="&#x419;" horiz-adv-x="680" 
d="M180 0h-85v700h70v-460l-10 -145h5l340 605h85v-700h-70v460l10 145h-5zM385 770h-90c-65 0 -105 39 -105 95v40h60v-40c0 -25 20 -45 45 -45h90c25 0 45 20 45 45v40h60v-40c0 -56 -40 -95 -105 -95z" />
    <glyph glyph-name="afii10033" unicode="&#x41f;" horiz-adv-x="680" 
d="M95 700h490v-700h-70v645h-350v-645h-70v700z" />
    <glyph glyph-name="afii10037" unicode="&#x423;" 
d="M20 700h65l230 -470h5l195 470h65v-35l-230 -535c-37 -85 -90 -140 -183 -140h-57v55h57c48 0 77 29 104 85l10 20l-261 515v35z" />
    <glyph glyph-name="afii10038" unicode="&#x424;" horiz-adv-x="900" 
d="M65 200v310c0 91 60 150 165 150h185v90h70v-90h185c105 0 165 -59 165 -150v-310c0 -91 -60 -150 -165 -150h-185v-90h-70v90h-185c-105 0 -165 59 -165 150zM135 510v-310c0 -56 39 -95 95 -95h185v500h-185c-56 0 -95 -39 -95 -95zM670 605h-185v-500h185
c56 0 95 39 95 95v310c0 56 -39 95 -95 95z" />
    <glyph glyph-name="afii10040" unicode="&#x426;" horiz-adv-x="700" 
d="M600 0h-505v700h70v-645h340v645h70v-645h100v-195h-55z" />
    <glyph glyph-name="afii10041" unicode="&#x427;" horiz-adv-x="645" 
d="M140 700v-285c0 -56 39 -95 95 -95h245v380h70v-700h-70v265h-245c-105 0 -165 59 -165 150v285h70z" />
    <glyph glyph-name="afii10042" unicode="&#x428;" horiz-adv-x="1010" 
d="M915 0h-820v700h70v-645h305v645h70v-645h305v645h70v-700z" />
    <glyph glyph-name="afii10043" unicode="&#x429;" horiz-adv-x="1040" 
d="M940 0h-845v700h70v-645h305v645h70v-645h305v645h70v-645h100v-195h-55z" />
    <glyph glyph-name="afii10044" unicode="&#x42a;" horiz-adv-x="705" 
d="M485 0h-315v645h-170v55h240v-270h245c105 0 165 -59 165 -150v-130c0 -91 -60 -150 -165 -150zM240 55h245c56 0 95 39 95 95v130c0 56 -39 95 -95 95h-245v-320z" />
    <glyph glyph-name="afii10045" unicode="&#x42b;" horiz-adv-x="900" 
d="M410 0h-315v700h70v-270h245c105 0 165 -59 165 -150v-130c0 -91 -60 -150 -165 -150zM165 55h245c56 0 95 39 95 95v130c0 56 -39 95 -95 95h-245v-320zM735 700h70v-700h-70v700z" />
    <glyph glyph-name="afii10046" unicode="&#x42c;" horiz-adv-x="640" 
d="M420 0h-325v700h70v-270h255c105 0 165 -59 165 -150v-130c0 -91 -60 -150 -165 -150zM165 55h255c56 0 95 39 95 95v130c0 56 -39 95 -95 95h-255v-320z" />
    <glyph glyph-name="afii10047" unicode="&#x42d;" horiz-adv-x="570" 
d="M490 550v-400c0 -91 -60 -150 -165 -150h-290v55h290c56 0 95 39 95 95v175h-270v55h270v170c0 56 -39 95 -95 95h-270l-20 20v35h290c105 0 165 -59 165 -150z" />
    <glyph glyph-name="afii10048" unicode="&#x42e;" horiz-adv-x="915" 
d="M95 700h70v-320h180v180c0 91 60 150 165 150h160c105 0 165 -59 165 -150v-420c0 -91 -60 -150 -165 -150h-160c-105 0 -165 59 -165 150v185h-180v-325h-70v700zM510 45h160c56 0 95 39 95 95v420c0 56 -39 95 -95 95h-160c-56 0 -95 -39 -95 -95v-420
c0 -56 39 -95 95 -95z" />
    <glyph glyph-name="afii10049" unicode="&#x42f;" horiz-adv-x="650" 
d="M235 700h320v-700h-70v280h-180l-185 -280h-65v35l175 250c-100 0 -160 60 -160 145v120c0 91 60 150 165 150zM485 645h-250c-56 0 -95 -39 -95 -95v-120c0 -56 39 -95 95 -95h250v310z" />
    <glyph glyph-name="afii10066" unicode="&#x431;" horiz-adv-x="590" 
d="M145 525v-45h225c96 0 150 -55 150 -135v-220c0 -80 -54 -135 -150 -135h-145c-96 0 -150 55 -150 135v400c0 100 59 160 150 175l265 40l10 -55l-265 -40c-51 -8 -90 -44 -90 -120zM145 425v-300c0 -45 35 -80 80 -80h145c45 0 80 35 80 80v220c0 45 -35 80 -80 80h-225
z" />
    <glyph glyph-name="afii10067" unicode="&#x432;" horiz-adv-x="570" 
d="M80 530h260c96 0 150 -55 150 -135v-19c0 -41 -19 -66 -38 -81c-11 -9 -24 -15 -37 -20v-5c19 -5 35 -12 50 -21c25 -16 50 -44 50 -89v-25c0 -80 -54 -135 -150 -135h-285v530zM150 55h215c45 0 80 35 80 80v25c0 45 -35 80 -80 80h-215v-185zM340 475h-190v-180h190
c45 0 80 35 80 80v20c0 45 -35 80 -80 80z" />
    <glyph glyph-name="afii10068" unicode="&#x433;" horiz-adv-x="460" 
d="M80 530h370v-35l-20 -20h-280v-475h-70v530z" />
    <glyph glyph-name="afii10069" unicode="&#x434;" horiz-adv-x="620" 
d="M150 530h355v-475h90v-185h-55l-20 130h-445l-20 -130h-55v185h40c13 7 24 16 35 25c19 16 37 39 40 70zM215 475l-30 -325c-3 -31 -20 -53 -37 -68c-10 -9 -21 -16 -33 -22v-5h320v420h-220z" />
    <glyph glyph-name="afii10071" unicode="&#x451;" horiz-adv-x="565" 
d="M495 235h-355v-100c0 -45 35 -80 80 -80h255v-55h-255c-96 0 -150 55 -150 135v270c0 80 54 135 150 135h125c96 0 150 -55 150 -135v-170zM140 405v-115h285v115c0 45 -35 80 -80 80h-125c-45 0 -80 -35 -80 -80zM150 720h70v-100h-70v100zM350 720h70v-100h-70v100z
" />
    <glyph glyph-name="afii10072" unicode="&#x436;" horiz-adv-x="830" 
d="M115 530l125 -235h140v235h70v-235h140l125 235h65v-35l-135 -225l150 -235v-35h-65l-140 240h-140v-240h-70v240h-140l-140 -240h-65v35l150 235l-135 225v35h65z" />
    <glyph glyph-name="afii10073" unicode="&#x437;" horiz-adv-x="505" 
d="M290 475h-230l-20 20v35h250c96 0 150 -55 150 -135v-19c0 -41 -22 -66 -45 -81c-13 -9 -28 -15 -45 -20v-5c19 -5 35 -12 50 -21c25 -16 50 -44 50 -89v-25c0 -80 -54 -135 -150 -135h-275v55h275c45 0 80 35 80 80v25c0 45 -35 80 -80 80h-157v55h147c45 0 80 35 80 80
v20c0 45 -35 80 -80 80z" />
    <glyph glyph-name="afii10074" unicode="&#x438;" 
d="M455 445l-295 -445h-80v530h70v-310l-10 -135h5c96 149 198 296 295 445h80v-530h-70v310l10 135h-5z" />
    <glyph glyph-name="afii10075" unicode="&#x439;" 
d="M455 445l-295 -445h-80v530h70v-310l-10 -135h5c96 149 198 296 295 445h80v-530h-70v310l10 135h-5zM340 600h-80c-65 0 -105 39 -105 95v35h60v-35c0 -25 20 -45 45 -45h80c25 0 45 20 45 45v35h60v-35c0 -56 -40 -95 -105 -95z" />
    <glyph glyph-name="afii10076" unicode="&#x43a;" horiz-adv-x="550" 
d="M300 295l135 235h65v-35l-145 -225l160 -235v-35h-65l-150 240h-150v-240h-70v530h70v-235h150z" />
    <glyph glyph-name="afii10077" unicode="&#x43b;" horiz-adv-x="590" 
d="M15 -10v55h20c40 0 70 29 75 85l35 400h365v-530h-70v475h-230l-30 -345c-7 -85 -60 -140 -145 -140h-20z" />
    <glyph glyph-name="afii10078" unicode="&#x43c;" horiz-adv-x="795" 
d="M445 60h-95l-165 395h-5l-60 -455h-65v35l70 495h100l170 -400h5l170 400h100l70 -495v-35h-65l-60 455h-5z" />
    <glyph glyph-name="afii10079" unicode="&#x43d;" 
d="M150 0h-70v530h70v-235h300v235h70v-530h-70v240h-300v-240z" />
    <glyph glyph-name="afii10081" unicode="&#x43f;" 
d="M150 0h-70v530h440v-530h-70v475h-300v-475z" />
    <glyph glyph-name="afii10084" unicode="&#x442;" horiz-adv-x="490" 
d="M20 530h450v-35l-20 -20h-170v-475h-70v475h-190v55z" />
    <glyph glyph-name="afii10086" unicode="&#x444;" horiz-adv-x="790" 
d="M720 395v-260c0 -80 -54 -135 -150 -135h-140v-170h-70v170h-140c-96 0 -150 55 -150 135v260c0 80 54 135 150 135h140v170h70v-170h140c96 0 150 -55 150 -135zM430 475v-420h140c45 0 80 35 80 80v260c0 45 -35 80 -80 80h-140zM360 55v420h-140
c-45 0 -80 -35 -80 -80v-260c0 -45 35 -80 80 -80h140z" />
    <glyph glyph-name="afii10088" unicode="&#x446;" horiz-adv-x="625" 
d="M80 530h70v-475h290v475h70v-475h90v-185h-55l-20 130h-445v530z" />
    <glyph glyph-name="afii10089" unicode="&#x447;" horiz-adv-x="570" 
d="M60 325v205h70v-205c0 -45 35 -80 80 -80h210v285h70v-530h-70v190h-210c-96 0 -150 55 -150 135z" />
    <glyph glyph-name="afii10090" unicode="&#x448;" horiz-adv-x="870" 
d="M400 530h70v-475h250v475h70v-530h-710v530h70v-475h250v475z" />
    <glyph glyph-name="afii10091" unicode="&#x449;" horiz-adv-x="905" 
d="M400 530h70v-475h250v475h70v-475h90v-185h-55l-20 130h-725v530h70v-475h250v475z" />
    <glyph glyph-name="afii10092" unicode="&#x44a;" horiz-adv-x="625" 
d="M575 205v-70c0 -80 -54 -135 -150 -135h-270v475h-155v55h225v-190h200c96 0 150 -55 150 -135zM505 135v70c0 45 -35 80 -80 80h-200v-230h200c45 0 80 35 80 80z" />
    <glyph glyph-name="afii10093" unicode="&#x44b;" horiz-adv-x="775" 
d="M500 205v-70c0 -80 -54 -135 -150 -135h-270v530h70v-190h200c96 0 150 -55 150 -135zM430 135v70c0 45 -35 80 -80 80h-200v-230h200c45 0 80 35 80 80zM695 0h-70v530h70v-530z" />
    <glyph glyph-name="afii10094" unicode="&#x44c;" horiz-adv-x="560" 
d="M510 205v-70c0 -80 -54 -135 -150 -135h-280v530h70v-190h210c96 0 150 -55 150 -135zM440 135v70c0 45 -35 80 -80 80h-210v-230h210c45 0 80 35 80 80z" />
    <glyph glyph-name="afii10095" unicode="&#x44d;" horiz-adv-x="505" 
d="M285 0h-250v55h250c45 0 80 35 80 80v105h-220v55h220v100c0 45 -35 80 -80 80h-230l-20 20v35h250c96 0 150 -55 150 -135v-260c0 -80 -54 -135 -150 -135z" />
    <glyph glyph-name="afii10096" unicode="&#x44e;" horiz-adv-x="805" 
d="M150 0h-70v530h70v-235h155v110c0 80 54 135 150 135h130c96 0 150 -55 150 -135v-280c0 -80 -54 -135 -150 -135h-130c-96 0 -150 55 -150 135v115h-155v-240zM375 405v-280c0 -45 35 -80 80 -80h130c45 0 80 35 80 80v280c0 45 -35 80 -80 80h-130
c-45 0 -80 -35 -80 -80z" />
    <glyph glyph-name="afii10097" unicode="&#x44f;" horiz-adv-x="570" 
d="M65 335v60c0 80 54 135 150 135h275v-530h-70v200h-160l-150 -200h-65v35l145 170c-70 0 -125 55 -125 130zM135 395v-60c0 -45 35 -80 80 -80h205v220h-205c-45 0 -80 -35 -80 -80z" />
    <glyph glyph-name="A" unicode="A" horiz-adv-x="625" 
d="M155 185l-65 -185h-65v35l240 665h95l240 -665v-35h-65l-65 185h-315zM455 240l-140 390h-5l-140 -390h285z" />
    <glyph glyph-name="B" unicode="B" horiz-adv-x="650" 
d="M95 700h300c105 0 165 -59 165 -150v-65c0 -48 -20 -76 -40 -93c-12 -10 -25 -17 -40 -22v-5c20 -5 38 -12 55 -23c27 -19 55 -50 55 -102v-90c0 -91 -60 -150 -165 -150h-330v700zM165 55h260c56 0 95 39 95 95v90c0 56 -39 95 -95 95h-260v-280zM395 645h-230v-255h230
c56 0 95 39 95 95v65c0 56 -39 95 -95 95z" />
    <glyph glyph-name="C" unicode="C" horiz-adv-x="570" 
d="M80 150v400c0 91 60 150 165 150h290v-35l-20 -20h-270c-56 0 -95 -39 -95 -95v-400c0 -56 39 -95 95 -95h290v-55h-290c-105 0 -165 59 -165 150z" />
    <glyph glyph-name="D" unicode="D" horiz-adv-x="665" 
d="M95 0v700h325c105 0 165 -59 165 -150v-400c0 -91 -60 -150 -165 -150h-325zM165 645v-590h255c56 0 95 39 95 95v400c0 56 -39 95 -95 95h-255z" />
    <glyph glyph-name="E" unicode="E" horiz-adv-x="580" 
d="M95 0v700h450v-35l-20 -20h-360v-260h295v-55h-295v-275h380v-55h-450z" />
    <glyph glyph-name="F" unicode="F" horiz-adv-x="555" 
d="M165 0h-70v700h450v-35l-20 -20h-360v-285h295v-55h-295v-305z" />
    <glyph glyph-name="G" unicode="G" horiz-adv-x="655" 
d="M80 150v400c0 91 60 150 165 150h295v-35l-20 -20h-275c-56 0 -95 -39 -95 -95v-400c0 -56 39 -95 95 -95h255v275h-170v55h240v-385h-325c-105 0 -165 59 -165 150z" />
    <glyph glyph-name="H" unicode="H" horiz-adv-x="680" 
d="M95 700h70v-320h350v320h70v-700h-70v325h-350v-325h-70v700z" />
    <glyph glyph-name="I" unicode="I" horiz-adv-x="260" 
d="M95 700h70v-700h-70v700z" />
    <glyph glyph-name="J" unicode="J" horiz-adv-x="515" 
d="M255 -10h-245v55h245c56 0 95 39 95 95v560h70v-560c0 -91 -60 -150 -165 -150z" />
    <glyph glyph-name="K" unicode="K" horiz-adv-x="630" 
d="M335 380l170 320h65v-35l-175 -310l200 -320v-35h-65l-195 325h-170v-325h-70v700h70v-320h170z" />
    <glyph glyph-name="L" unicode="L" horiz-adv-x="545" 
d="M95 700h70v-645h370v-55h-440v700z" />
    <glyph glyph-name="M" unicode="M" horiz-adv-x="965" 
d="M530 85h-95l-215 540h-5l-80 -625h-65v35l90 665h100l220 -540h5l220 540h100l90 -665v-35h-65l-80 625h-5z" />
    <glyph glyph-name="N" unicode="N" horiz-adv-x="680" 
d="M585 0h-85l-340 605h-5l10 -145v-460h-70v700h85l340 -605h5l-10 145v460h70v-700z" />
    <glyph glyph-name="O" unicode="O" horiz-adv-x="670" 
d="M425 -10h-180c-105 0 -165 59 -165 150v420c0 91 60 150 165 150h180c105 0 165 -59 165 -150v-420c0 -91 -60 -150 -165 -150zM245 45h180c56 0 95 39 95 95v420c0 56 -39 95 -95 95h-180c-56 0 -95 -39 -95 -95v-420c0 -56 39 -95 95 -95z" />
    <glyph glyph-name="P" unicode="P" horiz-adv-x="630" 
d="M95 700h310c105 0 165 -59 165 -150v-160c0 -91 -60 -150 -165 -150h-240v-240h-70v700zM405 645h-240v-350h240c56 0 95 39 95 95v160c0 56 -39 95 -95 95z" />
    <glyph glyph-name="Q" unicode="Q" horiz-adv-x="670" 
d="M425 -10h-55l70 -90v-35h-65l-71 125h-59c-105 0 -165 59 -165 150v420c0 91 60 150 165 150h180c105 0 165 -59 165 -150v-420c0 -91 -60 -150 -165 -150zM245 45h180c56 0 95 39 95 95v420c0 56 -39 95 -95 95h-180c-56 0 -95 -39 -95 -95v-420c0 -56 39 -95 95 -95z
" />
    <glyph glyph-name="R" unicode="R" horiz-adv-x="650" 
d="M95 700h310c105 0 165 -59 165 -150v-120c0 -68 -35 -104 -70 -123c-21 -11 -44 -19 -70 -22c57 -84 111 -169 170 -250v-35h-65l-180 280h-190v-280h-70v700zM405 645h-240v-310h240c56 0 95 39 95 95v120c0 56 -39 95 -95 95z" />
    <glyph glyph-name="S" unicode="S" horiz-adv-x="590" 
d="M125 550v-55c0 -45 30 -74 75 -85l210 -50c80 -19 125 -65 125 -145v-65c0 -91 -60 -150 -165 -150h-315v55h315c56 0 95 39 95 95v65c0 45 -30 74 -75 85l-210 50c-80 19 -125 65 -125 145v55c0 91 60 150 165 150h285v-35l-20 -20h-265c-56 0 -95 -39 -95 -95z" />
    <glyph glyph-name="T" unicode="T" horiz-adv-x="550" 
d="M310 645v-645h-70v645h-220v55h510v-35l-20 -20h-200z" />
    <glyph glyph-name="U" unicode="U" horiz-adv-x="690" 
d="M260 45h170c56 0 95 39 95 95v560h70v-560c0 -91 -60 -150 -165 -150h-170c-105 0 -165 59 -165 150v560h70v-560c0 -56 39 -95 95 -95z" />
    <glyph glyph-name="V" unicode="V" horiz-adv-x="615" 
d="M310 70l210 630h65v-35l-230 -665h-95l-230 665v35h65l210 -630h5z" />
    <glyph glyph-name="W" unicode="W" horiz-adv-x="925" 
d="M465 520h-5l-175 -520h-95l-150 665v35h65l135 -630h5c57 172 113 347 170 520h95c57 -173 113 -348 170 -520h5l135 630h65v-35l-150 -665h-95z" />
    <glyph glyph-name="X" unicode="X" horiz-adv-x="595" 
d="M295 305l-200 -305h-65v35l220 315l-205 315v35h65l185 -300h5l185 300h65v-35l-205 -315l220 -315v-35h-65l-200 305h-5z" />
    <glyph glyph-name="Y" unicode="Y" horiz-adv-x="580" 
d="M85 700l202 -395h6l202 395h65v-35l-235 -445v-220h-70v220l-235 445v35h65z" />
    <glyph glyph-name="Z" unicode="Z" horiz-adv-x="550" 
d="M520 55v-55h-490v50l390 590v5h-370l-20 20v35h480v-50l-390 -590v-5h400z" />
    <glyph glyph-name="m" unicode="m" horiz-adv-x="890" 
d="M480 405v-405h-70v405c0 45 -35 80 -80 80h-70c-40 0 -68 -24 -85 -48c-11 -14 -19 -30 -25 -47v-390h-70v530h45l10 -70h5c6 15 15 28 26 40c19 20 49 40 94 40h70c43 0 70 -18 89 -35c11 -11 19 -22 26 -35h5c6 13 14 24 25 35c17 17 45 35 85 35h100
c96 0 150 -55 150 -135v-405h-70v405c0 45 -35 80 -80 80h-100c-45 0 -80 -35 -80 -80z" />
    <glyph glyph-name="r" unicode="r" horiz-adv-x="430" 
d="M150 390v-390h-70v530h45l10 -70h5c6 15 15 28 26 40c19 20 49 40 94 40h155v-55h-155c-40 0 -68 -24 -85 -48c-11 -14 -19 -30 -25 -47z" />
    <glyph glyph-name="s" unicode="s" horiz-adv-x="515" 
d="M345 225l-195 30c-65 11 -105 49 -105 120v20c0 80 54 135 150 135h250v-35l-20 -20h-230c-45 0 -80 -35 -80 -80v-20c0 -40 20 -60 55 -65l195 -30c65 -11 105 -49 105 -120v-25c0 -80 -54 -135 -150 -135h-275v55h275c45 0 80 35 80 80v25c0 40 -20 60 -55 65z" />
    <glyph glyph-name="t" unicode="t" horiz-adv-x="425" 
d="M105 125v350h-90v55h90l35 140h35v-140h160v-55h-160v-350c0 -45 35 -80 80 -80h155v-55h-155c-96 0 -150 55 -150 135z" />
    <glyph glyph-name="u" unicode="u" 
d="M450 140v390h70v-530h-45l-10 70h-5c-6 -15 -15 -28 -26 -40c-19 -20 -49 -40 -94 -40h-110c-96 0 -150 55 -150 135v405h70v-405c0 -45 35 -80 80 -80h110c40 0 66 23 85 47c10 14 18 30 25 48z" />
    <glyph glyph-name="v" unicode="v" horiz-adv-x="545" 
d="M275 60l175 470h65v-35l-195 -495h-95l-195 495v35h65l175 -470h5z" />
    <glyph glyph-name="w" unicode="w" horiz-adv-x="795" 
d="M445 450l135 -380h5l105 460h65v-35l-125 -495h-90l-140 385h-5l-140 -385h-90l-125 495v35h65l105 -460h5l135 380h95z" />
    <glyph glyph-name="y" unicode="y" horiz-adv-x="535" 
d="M505 495l-199 -545c-27 -71 -75 -120 -160 -120h-50v55h50c40 0 72 30 85 65l15 40v9l-216 496v35h65l186 -460h5l154 460h65v-35z" />
    <glyph glyph-name="z" unicode="z" horiz-adv-x="490" 
d="M460 55v-55h-430v50l330 420v5h-310l-20 20v35h420v-50l-330 -420v-5h340z" />
    <glyph glyph-name="one" unicode="1" horiz-adv-x="330" 
d="M230 700v-700h-70v640h-140v30l155 30h55z" />
    <glyph glyph-name="two" unicode="2" horiz-adv-x="540" 
d="M405 350l-290 -290v-5h370v-55h-460v55l330 335c11 12 21 24 30 37c15 23 30 50 30 78v45c0 56 -39 95 -95 95h-255l-20 20v35h275c105 0 165 -59 165 -150v-45c0 -40 -20 -79 -40 -108c-12 -17 -25 -33 -40 -47z" />
    <glyph glyph-name="three" unicode="3" horiz-adv-x="545" 
d="M420 150v95c0 56 -39 95 -95 95h-195v45l255 255v5h-340l-20 20v35h445v-50l-250 -250v-5h105c105 0 165 -59 165 -150v-95c0 -91 -60 -150 -165 -150h-295v55h295c56 0 95 39 95 95z" />
    <glyph glyph-name="four" unicode="4" horiz-adv-x="585" 
d="M460 700v-480h110v-55h-110v-165h-70v165h-375v50l350 485h95zM390 620h-5c-97 -132 -194 -263 -290 -395v-5h295v400z" />
    <glyph glyph-name="five" unicode="5" horiz-adv-x="575" 
d="M490 700v-35l-20 -20h-325v-235h210c105 0 165 -59 165 -150v-110c0 -91 -60 -150 -165 -150h-280v55h280c56 0 95 39 95 95v110c0 56 -39 95 -95 95h-280v345h415z" />
    <glyph glyph-name="six" unicode="6" 
d="M150 550v-130h230c105 0 165 -59 165 -150v-130c0 -91 -60 -150 -165 -150h-135c-105 0 -165 59 -165 150v410c0 91 60 150 165 150h265v-35l-20 -20h-245c-56 0 -95 -38 -95 -95zM245 45h135c56 0 95 39 95 95v130c0 56 -39 95 -95 95h-230v-225c0 -56 39 -95 95 -95z
" />
    <glyph glyph-name="seven" unicode="7" horiz-adv-x="485" 
d="M200 0h-65v35l260 605v5h-385v55h465v-50z" />
    <glyph glyph-name="eight" unicode="8" horiz-adv-x="625" 
d="M395 -10h-165c-105 0 -165 59 -165 150v105c0 52 27 83 55 102c16 11 34 18 55 23v5c-17 5 -32 12 -45 22c-23 17 -45 45 -45 93v70c0 91 60 150 165 150h125c105 0 165 -59 165 -150v-70c0 -48 -22 -76 -45 -93c-13 -10 -28 -17 -45 -22v-5c20 -5 38 -12 55 -23
c27 -19 55 -50 55 -102v-105c0 -91 -60 -150 -165 -150zM230 45h165c56 0 95 39 95 95v105c0 56 -39 95 -95 95h-165c-56 0 -95 -39 -95 -94v-106c0 -56 39 -95 95 -95zM250 395h125c56 0 95 39 95 95v70c0 56 -39 95 -95 95h-125c-56 0 -95 -39 -95 -95v-70
c0 -56 39 -95 95 -95z" />
    <glyph glyph-name="nine" unicode="9" 
d="M450 150v130h-230c-105 0 -165 59 -165 150v130c0 91 60 150 165 150h135c105 0 165 -59 165 -150v-410c0 -91 -60 -150 -165 -150h-275v55h275c56 0 95 38 95 95zM355 655h-135c-56 0 -95 -39 -95 -95v-130c0 -56 39 -95 95 -95h230v225c0 56 -39 95 -95 95z" />
    <glyph glyph-name="zero" unicode="0" horiz-adv-x="640" 
d="M395 -10h-150c-105 0 -165 59 -165 150v420c0 91 60 150 165 150h150c105 0 165 -59 165 -150v-420c0 -91 -60 -150 -165 -150zM245 45h150c56 0 95 39 95 95v420c0 56 -39 95 -95 95h-150c-56 0 -95 -39 -95 -95v-420c0 -56 39 -95 95 -95z" />
    <glyph glyph-name="question" unicode="?" horiz-adv-x="495" 
d="M160 105h70v-105h-70v105zM230 240v-40h-70v40c0 60 30 90 75 115l100 55c25 15 45 35 45 70v70c0 56 -39 95 -95 95h-255l-20 20v35h275c105 0 165 -59 165 -150v-70c0 -60 -30 -90 -75 -115l-100 -55c-25 -15 -45 -35 -45 -70z" />
    <glyph glyph-name="exclam" unicode="!" horiz-adv-x="260" 
d="M90 700h80v-180l-15 -320h-50l-15 320v180zM95 105h70v-105h-70v105z" />
    <glyph glyph-name="period" unicode="." horiz-adv-x="200" 
d="M65 105h70v-105h-70v105z" />
    <glyph glyph-name="comma" unicode="," horiz-adv-x="200" 
d="M65 105h70v-70l-35 -140h-35v210z" />
    <glyph glyph-name="colon" unicode=":" horiz-adv-x="200" 
d="M65 105h70v-105h-70v105zM65 530h70v-105h-70v105z" />
    <glyph glyph-name="semicolon" unicode=";" horiz-adv-x="200" 
d="M65 530h70v-105h-70v105zM65 105h70v-70l-35 -140h-35v210z" />
    <glyph glyph-name="at" unicode="@" horiz-adv-x="860" 
d="M80 130v440c0 91 60 150 165 150h365c105 0 165 -59 165 -150v-380h-45l-10 70h-5c-6 -15 -15 -28 -26 -40c-19 -20 -49 -40 -94 -40h-105c-96 0 -150 55 -150 135v40c0 80 54 135 150 135h215v80c0 56 -39 95 -95 95h-365c-56 0 -95 -39 -95 -95v-440
c0 -56 39 -95 95 -95h520v-55h-520c-105 0 -165 59 -165 150zM705 435h-215c-45 0 -80 -35 -80 -80v-40c0 -45 35 -80 80 -80h105c40 0 66 23 85 47c10 14 18 30 25 48v105z" />
    <glyph glyph-name="dollar" unicode="$" horiz-adv-x="590" 
d="M125 550v-55c0 -45 30 -74 75 -85l210 -50c80 -19 125 -65 125 -145v-65c0 -91 -60 -150 -165 -150h-40v-90h-70v90h-205v55h315c56 0 95 39 95 95v65c0 45 -30 74 -75 85l-210 50c-80 19 -125 65 -125 145v55c0 91 60 150 165 150h40v90h70v-90h175v-35l-20 -20h-265
c-56 0 -95 -39 -95 -95z" />
    <glyph glyph-name="numbersign" unicode="#" horiz-adv-x="695" 
d="M485 520l30 180h70l-30 -180h110v-55h-120l-40 -230h120v-55h-130l-30 -180h-70l30 180h-215l-30 -180h-70l30 180h-110v55h120l40 230h-120v55h130l30 180h70l-30 -180h215zM475 465h-215l-40 -230h215z" />
    <glyph glyph-name="ampersand" unicode="&#x26;" horiz-adv-x="660" 
d="M200 550v-35c0 -31 23 -66 47 -93c14 -17 30 -32 48 -47l355 -345v-30h-65l-80 80c-7 -17 -17 -32 -30 -45c-23 -23 -60 -45 -120 -45h-140c-105 0 -165 59 -165 150v90c0 64 38 100 75 119c22 11 47 18 75 21v5c-13 12 -25 25 -35 40c-19 25 -35 60 -35 100v35
c0 91 60 150 165 150h235v-35l-20 -20h-215c-56 0 -95 -39 -95 -95zM215 45h140c43 0 68 18 84 37c9 11 16 24 21 38l-215 210c-85 0 -125 -40 -125 -100v-90c0 -56 39 -95 95 -95z" />
    <glyph glyph-name="currency" unicode="&#xa4;" horiz-adv-x="660" 
d="M505 195v-55h-310v-140h-70v140h-90v55h90v95h-90v55h90v355h310c105 0 165 -59 165 -150v-110c0 -91 -60 -150 -165 -150h-240v-95h310zM195 345h240c56 0 95 39 95 95v110c0 56 -39 95 -95 95h-240v-300z" />
    <glyph glyph-name="Euro" unicode="&#x20ac;" horiz-adv-x="605" 
d="M115 455v95c0 91 60 150 165 150h290v-35l-20 -20h-270c-56 0 -95 -39 -95 -95v-95h272v-55h-272v-100h272v-55h-272v-95c0 -56 39 -95 95 -95h290v-55h-290c-105 0 -165 59 -165 150v95h-85v55h85v100h-85v55h85z" />
    <glyph glyph-name="afii61352" unicode="&#x2116;" horiz-adv-x="1040" 
d="M985 280v-55h-275v55h275zM585 0h-85l-340 605h-5l10 -145v-460h-70v700h85l340 -605h5l-10 145v460h70v-700zM935 470v140c0 31 -19 50 -50 50h-75c-31 0 -50 -19 -50 -50v-140c0 -31 19 -50 50 -50h75c31 0 50 19 50 50zM1000 610v-140c0 -60 -39 -100 -115 -100h-75
c-76 0 -115 40 -115 100v140c0 60 39 100 115 100h75c76 0 115 -40 115 -100z" />
    <glyph glyph-name="guillemotleft" unicode="&#xab;" horiz-adv-x="490" 
d="M65 260l105 205h65v-35l-90 -170l90 -170v-35h-65zM255 260l105 205h65v-35l-90 -170l90 -170v-35h-65z" />
    <glyph glyph-name="guillemotright" unicode="&#xbb;" horiz-adv-x="490" 
d="M320 465l105 -205l-105 -205h-65v35l90 170l-90 170v35h65zM130 465l105 -205l-105 -205h-65v35l90 170l-90 170v35h65z" />
    <glyph glyph-name="quotedblright" unicode="&#x201d;" horiz-adv-x="355" 
d="M65 700h70v-70l-35 -140h-35v210zM220 700h70v-70l-35 -140h-35v210z" />
    <glyph glyph-name="space" unicode=" " horiz-adv-x="290" 
 />
    <glyph glyph-name="asterisk" unicode="*" horiz-adv-x="410" 
d="M205 470l-85 -100l-35 25l74 110l-119 45l10 40l125 -30l10 140h40l10 -140l125 30l10 -40l-119 -45l74 -110l-35 -25z" />
    <glyph glyph-name="degree" unicode="&#xb0;" horiz-adv-x="395" 
d="M290 470v140c0 31 -19 50 -50 50h-85c-31 0 -50 -19 -50 -50v-140c0 -31 19 -50 50 -50h85c31 0 50 19 50 50zM355 610v-140c0 -60 -39 -100 -115 -100h-85c-76 0 -115 40 -115 100v140c0 60 39 100 115 100h85c76 0 115 -40 115 -100z" />
    <glyph glyph-name="parenleft" unicode="(" horiz-adv-x="340" 
d="M95 -30v650c0 91 60 150 165 150h40v-55h-40c-56 0 -95 -39 -95 -95v-650c0 -56 39 -95 95 -95h40v-55h-40c-105 0 -165 59 -165 150z" />
    <glyph glyph-name="parenright" unicode=")" horiz-adv-x="340" 
d="M245 620v-650c0 -91 -60 -150 -165 -150h-40v55h40c56 0 95 39 95 95v650c0 56 -39 95 -95 95h-40v55h40c105 0 165 -59 165 -150z" />
    <glyph glyph-name="plus" unicode="+" horiz-adv-x="530" 
d="M490 350v-55h-195v-200h-60v200h-195v55h195v200h60v-200h195z" />
    <glyph glyph-name="hyphen" unicode="-" horiz-adv-x="485" 
d="M445 350v-55h-405v55h405z" />
    <glyph glyph-name="slash" unicode="/" horiz-adv-x="460" 
d="M80 -50h-60v30l360 770h60v-30z" />
    <glyph glyph-name="equal" unicode="=" horiz-adv-x="505" 
d="M465 455v-55h-425v55h425zM465 250v-55h-425v55h425z" />
    <glyph glyph-name="bracketleft" unicode="[" horiz-adv-x="340" 
d="M300 -180h-205v950h205v-55h-135v-840h135v-55z" />
    <glyph glyph-name="bracketright" unicode="]" horiz-adv-x="340" 
d="M245 -180h-205v55h135v840h-135v55h205v-950z" />
    <glyph glyph-name="braceleft" unicode="{" horiz-adv-x="395" 
d="M355 -180h-40c-105 0 -165 59 -165 150v205c0 56 -34 90 -90 90v65c56 0 90 34 90 90v200c0 91 60 150 165 150h40v-55h-40c-56 0 -95 -39 -95 -95v-200c0 -53 -22 -82 -45 -99c-13 -10 -28 -17 -45 -21v-5c17 -4 32 -11 45 -21c23 -17 45 -47 45 -99v-205
c0 -56 39 -95 95 -95h40v-55z" />
    <glyph glyph-name="braceright" unicode="}" horiz-adv-x="395" 
d="M80 -180h-40v55h40c56 0 95 39 95 95v205c0 52 22 82 45 99c13 10 28 17 45 21v5c-17 4 -32 11 -45 21c-23 17 -45 46 -45 99v200c0 56 -39 95 -95 95h-40v55h40c105 0 165 -59 165 -150v-200c0 -56 34 -90 90 -90v-65c-56 0 -90 -34 -90 -90v-205
c0 -91 -60 -150 -165 -150z" />
    <glyph glyph-name="plusminus" unicode="&#xb1;" horiz-adv-x="550" 
d="M500 425v-55h-195v-210h190v-55h-440v55h190v210h-195v55h195v200h60v-200h195z" />
    <glyph glyph-name="asciitilde" unicode="~" horiz-adv-x="505" 
d="M110 240h-60v115c0 40 30 75 75 75h35c20 0 37 -9 52 -20c8 -6 16 -13 23 -20l75 -75c3 -5 7 -10 12 -13c7 -7 17 -12 28 -12h15c15 0 30 15 30 30v100h60v-115c0 -40 -30 -75 -75 -75h-35c-20 0 -38 9 -53 20c-8 6 -15 13 -22 20l-75 75c-5 5 -9 9 -13 12
c-8 7 -16 13 -27 13h-15c-15 0 -30 -15 -30 -30v-100z" />
    <glyph glyph-name="underscore" unicode="_" horiz-adv-x="485" 
d="M455 -70v-55h-425v55h425z" />
    <glyph glyph-name="endash" unicode="&#x2013;" horiz-adv-x="570" 
d="M530 330v-55h-490v55h490z" />
    <glyph glyph-name="emdash" unicode="&#x2014;" horiz-adv-x="835" 
d="M795 330v-55h-755v55h755z" />
    <glyph glyph-name="asciicircum" unicode="^" horiz-adv-x="445" 
d="M190 700h65l170 -240h-75l-125 180h-5l-125 -180h-75z" />
    <glyph glyph-name="grave" unicode="`" horiz-adv-x="255" 
d="M40 700h85l90 -160h-60z" />
    <glyph glyph-name="copyright" unicode="&#xa9;" horiz-adv-x="940" 
d="M860 570v-440c0 -91 -60 -150 -165 -150h-450c-105 0 -165 59 -165 150v440c0 91 60 150 165 150h450c105 0 165 -59 165 -150zM245 35h450c56 0 95 39 95 95v440c0 56 -39 95 -95 95h-450c-56 0 -95 -39 -95 -95v-440c0 -56 39 -95 95 -95zM365 440v-180
c0 -40 25 -65 65 -65h200v-55h-200c-85 0 -135 49 -135 120v180c0 71 50 120 135 120h200v-35l-20 -20h-180c-40 0 -65 -25 -65 -65z" />
    <glyph glyph-name="registered" unicode="&#xae;" horiz-adv-x="940" 
d="M650 440v-19c0 -51 -25 -78 -50 -93c-15 -9 -31 -15 -50 -18l110 -135v-35h-65c-37 53 -73 105 -110 160h-120v-160h-70v420h220c85 0 135 -49 135 -120zM580 421v19c0 40 -25 65 -65 65h-150v-150h150c40 0 65 25 65 66zM860 570v-440c0 -91 -60 -150 -165 -150h-450
c-105 0 -165 59 -165 150v440c0 91 60 150 165 150h450c105 0 165 -59 165 -150zM245 35h450c56 0 95 39 95 95v440c0 56 -39 95 -95 95h-450c-56 0 -95 -39 -95 -95v-440c0 -56 39 -95 95 -95z" />
    <glyph glyph-name="trademark" unicode="&#x2122;" horiz-adv-x="850" 
d="M5 700h315v-35l-15 -15h-110v-280h-65v280h-125v50zM610 410h-75l-93 230h-5l-27 -270h-60v30l40 300h85l95 -230h5l95 230h85l40 -300v-30h-60l-27 270h-5z" />
    <glyph glyph-name="bar" unicode="|" horiz-adv-x="260" 
d="M95 770h70v-980h-70v980z" />
    <glyph glyph-name="backslash" unicode="\" horiz-adv-x="460" 
d="M20 750h60l360 -770v-30h-60l-360 770v30z" />
    <glyph glyph-name="percent" unicode="%" horiz-adv-x="825" 
d="M595 700h60v-30l-425 -670h-60v30zM280 470v140c0 31 -19 50 -50 50h-75c-31 0 -50 -19 -50 -50v-140c0 -31 19 -50 50 -50h75c31 0 50 19 50 50zM345 610v-140c0 -60 -39 -100 -115 -100h-75c-76 0 -115 40 -115 100v140c0 60 39 100 115 100h75c76 0 115 -40 115 -100z
M720 90v140c0 31 -19 50 -50 50h-75c-31 0 -50 -19 -50 -50v-140c0 -31 19 -50 50 -50h75c31 0 50 19 50 50zM785 230v-140c0 -60 -39 -100 -115 -100h-75c-76 0 -115 40 -115 100v140c0 60 39 100 115 100h75c76 0 115 -40 115 -100z" />
    <glyph glyph-name="paragraph" unicode="&#xb6;" 
d="M580 645h-105v-815h-70v815h-115v-815h-70v495h-30c-96 0 -150 55 -150 135v105c0 80 54 135 150 135h390v-55z" />
    <glyph glyph-name="section" unicode="&#xa7;" horiz-adv-x="545" 
d="M65 520v45c0 80 54 135 150 135h250v-35l-20 -20h-230c-45 0 -80 -35 -80 -79v-46c0 -31 29 -60 60 -65l185 -30c65 -11 110 -55 110 -120v-100c0 -40 -17 -65 -33 -80c-9 -9 -20 -15 -32 -20v-5c12 -5 23 -11 32 -19c16 -15 33 -36 33 -71v-45c0 -80 -54 -135 -150 -135
h-285v55h285c45 0 80 35 80 80v45c0 31 -30 58 -65 65l-190 30c-65 11 -110 55 -110 120v100c0 40 16 65 35 80c10 9 22 15 35 20v5c-11 5 -21 11 -30 19c-15 15 -30 36 -30 71zM125 325v-100c0 -35 25 -60 60 -65l185 -30c25 0 50 24 50 75v100c0 35 -25 60 -60 65l-180 30
c-31 0 -55 -24 -55 -75z" />
    <glyph glyph-name="dagger" unicode="&#x2020;" horiz-adv-x="500" 
d="M225 700h50l10 -190h185v-55h-185v-625h-70v625h-185v55h185z" />
    <glyph glyph-name="a" unicode="a" horiz-adv-x="570" 
d="M105 475v55h235c96 0 150 -55 150 -135v-395h-45l-10 70h-5c-6 -15 -15 -28 -26 -40c-19 -20 -49 -40 -94 -40h-105c-96 0 -150 55 -150 135v40c0 80 54 135 150 135h215v95c0 45 -35 80 -80 80h-235zM420 245h-215c-45 0 -80 -35 -80 -80v-40c0 -45 35 -80 80 -80h105
c40 0 66 23 85 47c10 14 18 30 25 48v105z" />
    <glyph glyph-name="b" unicode="b" horiz-adv-x="590" 
d="M520 395v-260c0 -80 -54 -135 -150 -135h-285v700h70v-170h215c96 0 150 -55 150 -135zM155 475v-420h215c45 0 80 35 80 80v260c0 45 -35 80 -80 80h-215z" />
    <glyph glyph-name="c" unicode="c" horiz-adv-x="505" 
d="M470 0h-250c-96 0 -150 55 -150 135v260c0 80 54 135 150 135h250v-35l-20 -20h-230c-45 0 -80 -35 -80 -80v-260c0 -45 35 -80 80 -80h250v-55z" />
    <glyph glyph-name="d" unicode="d" horiz-adv-x="590" 
d="M505 0h-45l-10 70h-5c-6 -15 -15 -28 -26 -40c-19 -20 -49 -40 -94 -40h-105c-96 0 -150 55 -150 135v270c0 80 54 135 150 135h215v170h70v-700zM435 140v335h-215c-45 0 -80 -35 -80 -80v-270c0 -45 35 -80 80 -80h105c40 0 66 23 85 47c10 14 18 30 25 48z" />
    <glyph glyph-name="e" unicode="e" horiz-adv-x="565" 
d="M495 235h-355v-100c0 -45 35 -80 80 -80h255v-55h-255c-96 0 -150 55 -150 135v270c0 80 54 135 150 135h125c96 0 150 -55 150 -135v-170zM140 405v-115h285v115c0 45 -35 80 -80 80h-125c-45 0 -80 -35 -80 -80z" />
    <glyph glyph-name="f" unicode="f" horiz-adv-x="400" 
d="M150 0h-70v575c0 80 54 135 150 135h190v-35l-20 -20h-170c-45 0 -80 -35 -80 -80v-125h205v-55h-205v-395z" />
    <glyph glyph-name="g" unicode="g" horiz-adv-x="575" 
d="M140 405v-70c0 -45 35 -80 80 -80h135c45 0 80 35 80 80v70c0 45 -35 80 -80 80h-135c-45 0 -80 -35 -80 -80zM170 125h220c96 0 150 -55 150 -135v-25c0 -80 -54 -135 -150 -135h-205c-96 0 -150 55 -150 135v25c0 43 20 70 40 87c12 10 25 18 40 23v5c-6 2 -11 5 -15 9
c-8 7 -15 17 -15 36v25c0 20 9 32 20 40c6 4 13 7 20 10v5c-11 5 -20 13 -28 22c-15 16 -27 43 -27 83v70c0 80 54 135 150 135h145l50 80h65v-30l-55 -55v-5c15 -7 28 -16 40 -28c20 -20 40 -50 40 -97v-70c0 -80 -54 -135 -150 -135h-185c-17 0 -25 -8 -25 -25v-25
c0 -17 8 -25 25 -25zM390 70h-205c-45 0 -80 -35 -80 -80v-25c0 -45 35 -80 80 -80h205c45 0 80 35 80 80v25c0 45 -35 80 -80 80z" />
    <glyph glyph-name="h" unicode="h" 
d="M155 475v-475h-70v700h70v-170h215c96 0 150 -55 150 -135v-395h-70v395c0 45 -35 80 -80 80h-215z" />
    <glyph glyph-name="i" unicode="i" horiz-adv-x="230" 
d="M80 530h70v-530h-70v530zM80 710h70v-100h-70v100z" />
    <glyph glyph-name="j" unicode="j" horiz-adv-x="250" 
d="M20 -170h-95v55h95c45 0 80 35 80 80v565h70v-565c0 -80 -54 -135 -150 -135zM100 710h70v-100h-70v100z" />
    <glyph glyph-name="k" unicode="k" horiz-adv-x="555" 
d="M305 300l135 230h65v-35l-145 -220l160 -240v-35h-65l-150 245h-150v-245h-70v700h70v-400h150z" />
    <glyph glyph-name="l" unicode="l" horiz-adv-x="290" 
d="M260 -10h-25c-96 0 -150 55 -150 135v575h70v-575c0 -45 35 -80 80 -80h25v-55z" />
    <glyph glyph-name="n" unicode="n" 
d="M150 390v-390h-70v530h45l10 -70h5c6 15 15 28 26 40c19 20 49 40 94 40h110c96 0 150 -55 150 -135v-405h-70v405c0 45 -35 80 -80 80h-110c-40 0 -68 -24 -85 -48c-11 -14 -19 -30 -25 -47z" />
    <glyph glyph-name="o" unicode="o" horiz-adv-x="590" 
d="M370 -10h-150c-96 0 -150 55 -150 135v280c0 80 54 135 150 135h150c96 0 150 -55 150 -135v-280c0 -80 -54 -135 -150 -135zM140 405v-280c0 -45 35 -80 80 -80h150c45 0 80 35 80 80v280c0 45 -35 80 -80 80h-150c-45 0 -80 -35 -80 -80z" />
    <glyph glyph-name="p" unicode="p" horiz-adv-x="585" 
d="M80 530h45l10 -70h5c6 15 15 28 26 40c19 20 49 40 94 40h105c96 0 150 -55 150 -135v-270c0 -80 -54 -135 -150 -135h-215v-170h-70v700zM150 390v-335h215c45 0 80 35 80 80v270c0 45 -35 80 -80 80h-105c-40 0 -68 -24 -85 -48c-11 -14 -19 -30 -25 -47z" />
    <glyph glyph-name="q" unicode="q" horiz-adv-x="585" 
d="M70 135v260c0 80 54 135 150 135h285v-700h-70v170h-215c-96 0 -150 55 -150 135zM435 55v420h-215c-45 0 -80 -35 -80 -80v-260c0 -45 35 -80 80 -80h215z" />
    <glyph glyph-name="quotedbl" unicode="&#x22;" horiz-adv-x="355" 
d="M225 700h65v-100l-15 -120h-35l-15 120v100zM65 700h65v-100l-15 -120h-35l-15 120v100z" />
    <glyph glyph-name="quotesingle" unicode="'" horiz-adv-x="195" 
d="M65 700h65v-100l-15 -120h-35l-15 120v100z" />
    <glyph glyph-name="quotedblbase" unicode="&#x201e;" horiz-adv-x="365" 
d="M65 105h70v-70l-35 -140h-35v210zM230 105h70v-70l-35 -140h-35v210z" />
    <glyph glyph-name="less" unicode="&#x3c;" horiz-adv-x="500" 
d="M450 0l-400 235v65l400 235v-75l-330 -190v-5l330 -190v-75z" />
    <glyph glyph-name="greater" unicode="&#x3e;" horiz-adv-x="500" 
d="M450 235l-400 -235v75l330 190v5l-330 190v75l400 -235v-65z" />
    <glyph glyph-name="afii10101" unicode="&#x454;" horiz-adv-x="505" 
d="M470 0h-250c-96 0 -150 55 -150 135v260c0 80 54 135 150 135h250v-35l-20 -20h-230c-45 0 -80 -35 -80 -80v-100h220v-55h-220v-105c0 -45 35 -80 80 -80h250v-55z" />
    <glyph glyph-name="afii10053" unicode="&#x404;" horiz-adv-x="570" 
d="M80 150v400c0 91 60 150 165 150h290v-35l-20 -20h-270c-56 0 -95 -39 -95 -95v-170h270v-55h-270v-175c0 -56 39 -95 95 -95h290v-55h-290c-105 0 -165 59 -165 150z" />
    <glyph glyph-name="brokenbar" unicode="&#xa6;" horiz-adv-x="260" 
d="M95 770h70v-410h-70v410zM165 -210h-70v410h70v-410z" />
    <glyph glyph-name="logicalnot" unicode="&#xac;" horiz-adv-x="500" 
d="M390 245v120h-350v55h420v-175h-70z" />
    <glyph glyph-name="guilsinglleft" unicode="&#x2039;" horiz-adv-x="315" 
d="M185 40l-120 220l120 220h65v-35l-105 -185l105 -185v-35h-65z" />
    <glyph glyph-name="guilsinglright" unicode="&#x203a;" horiz-adv-x="315" 
d="M250 260l-120 -220h-65v35l105 185l-105 185v35h65z" />
    <glyph glyph-name="daggerdbl" unicode="&#x2021;" horiz-adv-x="520" 
d="M285 -170h-50l-10 190h-185v55h185v380h-185v55h185l10 190h50l10 -190h185v-55h-185v-380h185v-55h-185z" />
    <glyph glyph-name="perthousand" unicode="&#x2030;" horiz-adv-x="1175" 
d="M595 700h60v-30l-425 -670h-60v30zM280 470v140c0 31 -19 50 -50 50h-75c-31 0 -50 -19 -50 -50v-140c0 -31 19 -50 50 -50h75c31 0 50 19 50 50zM345 610v-140c0 -60 -39 -100 -115 -100h-75c-76 0 -115 40 -115 100v140c0 60 39 100 115 100h75c76 0 115 -40 115 -100z
M710 90v140c0 31 -19 50 -50 50h-75c-31 0 -50 -19 -50 -50v-140c0 -31 19 -50 50 -50h75c31 0 50 19 50 50zM775 230v-140c0 -60 -39 -100 -115 -100h-75c-76 0 -115 40 -115 100v140c0 60 39 100 115 100h75c76 0 115 -40 115 -100zM1070 90v140c0 31 -19 50 -50 50h-75
c-31 0 -50 -19 -50 -50v-140c0 -31 19 -50 50 -50h75c31 0 50 19 50 50zM1135 230v-140c0 -60 -39 -100 -115 -100h-75c-76 0 -115 40 -115 100v140c0 60 39 100 115 100h75c76 0 115 -40 115 -100z" />
    <glyph glyph-name="bullet" unicode="&#x2022;" horiz-adv-x="365" 
d="M130 290v45c0 15 15 30 30 30h45c15 0 30 -15 30 -30v-45c0 -15 -15 -30 -30 -30h-45c-15 0 -30 15 -30 30z" />
    <glyph glyph-name="afii10023" unicode="&#x401;" horiz-adv-x="580" 
d="M95 0v700h450v-35l-20 -20h-360v-260h295v-55h-295v-275h380v-55h-450zM180 890h70v-100h-70v100zM390 890h70v-100h-70v100z" />
    <glyph glyph-name="periodcentered" unicode="&#xb7;" horiz-adv-x="290" 
d="M110 400h70v-105h-70v105z" />
    <glyph glyph-name="afii10058" unicode="&#x409;" horiz-adv-x="1000" 
d="M780 0h-295v645h-250l-45 -505c-8 -96 -59 -150 -155 -150h-20v55h20c45 0 80 35 85 95l50 560h385v-270h225c105 0 165 -59 165 -150v-130c0 -91 -60 -150 -165 -150zM555 55h225c56 0 95 39 95 95v130c0 56 -39 95 -95 95h-225v-320z" />
    <glyph glyph-name="afii10059" unicode="&#x40a;" horiz-adv-x="1000" 
d="M780 0h-295v345h-320v-345h-70v700h70v-300h320v300h70v-300h225c105 0 165 -59 165 -150v-100c0 -91 -60 -150 -165 -150zM555 55h225c56 0 95 39 95 95v100c0 56 -39 95 -95 95h-225v-290z" />
    <glyph glyph-name="afii10106" unicode="&#x459;" horiz-adv-x="875" 
d="M825 205v-70c0 -80 -54 -135 -150 -135h-260v475h-205l-30 -345c-7 -85 -60 -140 -145 -140h-20v55h20c40 0 70 29 75 85l35 400h340v-190h190c96 0 150 -55 150 -135zM755 135v70c0 45 -35 80 -80 80h-190v-230h190c45 0 80 35 80 80z" />
    <glyph glyph-name="afii10107" unicode="&#x45a;" horiz-adv-x="890" 
d="M840 180v-45c0 -80 -54 -135 -150 -135h-260v260h-280v-260h-70v530h70v-215h280v215h70v-215h190c96 0 150 -55 150 -135zM770 135v45c0 45 -35 80 -80 80h-190v-205h190c45 0 80 35 80 80z" />
    <glyph glyph-name="afii10193" unicode="&#x45f;" 
d="M80 530h70v-475h300v475h70v-530h-180l-15 -130h-50l-15 130h-180v530z" />
    <glyph glyph-name="afii10104" unicode="&#x457;" horiz-adv-x="290" 
d="M110 530h70v-530h-70v530zM10 710h70v-100h-70v100zM210 710h70v-100h-70v100z" />
    <glyph glyph-name="afii10056" unicode="&#x407;" horiz-adv-x="290" 
d="M110 700h70v-700h-70v700zM10 865h70v-100h-70v100zM210 865h70v-100h-70v100z" />
    <glyph glyph-name="afii10052" unicode="&#x403;" horiz-adv-x="540" 
d="M360 930h85l-115 -160h-60zM165 0h-70v700h435v-35l-20 -20h-345v-645z" />
    <glyph glyph-name="afii10100" unicode="&#x453;" horiz-adv-x="460" 
d="M307 760h85l-115 -160h-60zM80 530h370v-35l-20 -20h-280v-475h-70v530z" />
    <glyph glyph-name="afii10108" unicode="&#x45b;" horiz-adv-x="610" 
d="M170 375v-375h-70v530h-90v55h90l35 120h35v-120h180v-55h-180v-100h215c96 0 150 -55 150 -135v-295h-70v295c0 45 -35 80 -80 80h-215z" />
    <glyph glyph-name="afii10099" unicode="&#x452;" horiz-adv-x="585" 
d="M385 -10h-25v55h25c45 0 80 35 80 80v170c0 45 -35 80 -80 80h-215v-375h-70v530h-90v55h90l35 120h35v-120h180v-55h-180v-100h215c96 0 150 -55 150 -135v-170c0 -80 -54 -135 -150 -135z" />
    <glyph glyph-name="mu" unicode="&#xb5;" 
d="M150 -170h-70v700h70v-405c0 -45 35 -80 80 -80h110c40 0 66 23 85 47c10 14 18 30 25 48v390h70v-530h-45l-10 70h-5c-6 -15 -15 -28 -26 -40c-19 -20 -49 -40 -94 -40h-110c-25 0 -44 8 -56 17c-7 5 -14 11 -19 18h-5v-195z" />
    <glyph glyph-name="afii10050" unicode="&#x490;" horiz-adv-x="530" 
d="M460 700l20 105h50v-160h-365v-645h-70v700h365z" />
    <glyph glyph-name="afii10098" unicode="&#x491;" horiz-adv-x="455" 
d="M455 475h-305v-475h-70v530h305l20 100h50v-155z" />
    <glyph glyph-name="x" unicode="x" horiz-adv-x="515" 
d="M255 315h5l150 215h65v-35l-175 -230l185 -230v-35h-65l-160 215h-5l-160 -215h-65v35l185 230l-175 230v35h65z" />
    <glyph glyph-name="afii10051" unicode="&#x402;" horiz-adv-x="675" 
d="M470 -10h-45v55h45c45 0 80 35 80 80v160c0 56 -39 95 -95 95h-245v-380h-70v645h-140v55h430v-35l-20 -20h-200v-210h245c105 0 165 -59 165 -150v-160c0 -80 -54 -135 -150 -135z" />
    <glyph glyph-name="afii10060" unicode="&#x40b;" horiz-adv-x="690" 
d="M210 645v-210h245c105 0 165 -59 165 -150v-285h-70v285c0 56 -39 95 -95 95h-245v-380h-70v645h-140v55h430v-35l-20 -20h-200z" />
    <glyph glyph-name="quotesinglbase" unicode="&#x201a;" horiz-adv-x="200" 
d="M65 105h70v-70l-35 -140h-35v210z" />
    <glyph glyph-name="ellipsis" unicode="&#x2026;" horiz-adv-x="620" 
d="M65 105h70v-105h-70v105zM275 105h70v-105h-70v105zM485 105h70v-105h-70v105z" />
    <glyph glyph-name="afii10029" unicode="&#x41b;" horiz-adv-x="685" 
d="M170 700h420v-700h-70v645h-285l-45 -505c-8 -96 -59 -150 -155 -150h-20v55h20c45 0 80 35 85 95z" />
    <glyph glyph-name="afii10017" unicode="&#x410;" horiz-adv-x="625" 
d="M155 185l-65 -185h-65v35l240 665h95l240 -665v-35h-65l-65 185h-315zM455 240l-140 390h-5l-140 -390h285z" />
    <glyph glyph-name="afii10019" unicode="&#x412;" horiz-adv-x="650" 
d="M95 700h300c105 0 165 -59 165 -150v-65c0 -48 -20 -76 -40 -93c-12 -10 -25 -17 -40 -22v-5c20 -5 38 -12 55 -23c27 -19 55 -50 55 -102v-90c0 -91 -60 -150 -165 -150h-330v700zM165 55h260c56 0 95 39 95 95v90c0 56 -39 95 -95 95h-260v-280zM395 645h-230v-255h230
c56 0 95 39 95 95v65c0 56 -39 95 -95 95z" />
    <glyph glyph-name="afii10022" unicode="&#x415;" horiz-adv-x="580" 
d="M95 0v700h450v-35l-20 -20h-360v-260h295v-55h-295v-275h380v-55h-450z" />
    <glyph glyph-name="afii10028" unicode="&#x41a;" horiz-adv-x="630" 
d="M335 380l170 320h65v-35l-175 -310l200 -320v-35h-65l-195 325h-170v-325h-70v700h70v-320h170z" />
    <glyph glyph-name="afii10030" unicode="&#x41c;" horiz-adv-x="965" 
d="M530 85h-95l-215 540h-5l-80 -625h-65v35l90 665h100l220 -540h5l220 540h100l90 -665v-35h-65l-80 625h-5z" />
    <glyph glyph-name="afii10031" unicode="&#x41d;" horiz-adv-x="680" 
d="M95 700h70v-320h350v320h70v-700h-70v325h-350v-325h-70v700z" />
    <glyph glyph-name="afii10032" unicode="&#x41e;" horiz-adv-x="670" 
d="M425 -10h-180c-105 0 -165 59 -165 150v420c0 91 60 150 165 150h180c105 0 165 -59 165 -150v-420c0 -91 -60 -150 -165 -150zM245 45h180c56 0 95 39 95 95v420c0 56 -39 95 -95 95h-180c-56 0 -95 -39 -95 -95v-420c0 -56 39 -95 95 -95z" />
    <glyph glyph-name="afii10034" unicode="&#x420;" horiz-adv-x="630" 
d="M95 700h310c105 0 165 -59 165 -150v-160c0 -91 -60 -150 -165 -150h-240v-240h-70v700zM405 645h-240v-350h240c56 0 95 39 95 95v160c0 56 -39 95 -95 95z" />
    <glyph glyph-name="afii10035" unicode="&#x421;" horiz-adv-x="570" 
d="M80 150v400c0 91 60 150 165 150h290v-35l-20 -20h-270c-56 0 -95 -39 -95 -95v-400c0 -56 39 -95 95 -95h290v-55h-290c-105 0 -165 59 -165 150z" />
    <glyph glyph-name="afii10036" unicode="&#x422;" horiz-adv-x="550" 
d="M310 645v-645h-70v645h-220v55h510v-35l-20 -20h-200z" />
    <glyph glyph-name="afii10039" unicode="&#x425;" horiz-adv-x="595" 
d="M295 305l-200 -305h-65v35l220 315l-205 315v35h65l185 -300h5l185 300h65v-35l-205 -315l220 -315v-35h-65l-200 305h-5z" />
    <glyph glyph-name="afii10065" unicode="&#x430;" horiz-adv-x="570" 
d="M105 475v55h235c96 0 150 -55 150 -135v-395h-45l-10 70h-5c-6 -15 -15 -28 -26 -40c-19 -20 -49 -40 -94 -40h-105c-96 0 -150 55 -150 135v40c0 80 54 135 150 135h215v95c0 45 -35 80 -80 80h-235zM420 245h-215c-45 0 -80 -35 -80 -80v-40c0 -45 35 -80 80 -80h105
c40 0 66 23 85 47c10 14 18 30 25 48v105z" />
    <glyph glyph-name="afii10070" unicode="&#x435;" horiz-adv-x="565" 
d="M495 235h-355v-100c0 -45 35 -80 80 -80h255v-55h-255c-96 0 -150 55 -150 135v270c0 80 54 135 150 135h125c96 0 150 -55 150 -135v-170zM140 405v-115h285v115c0 45 -35 80 -80 80h-125c-45 0 -80 -35 -80 -80z" />
    <glyph glyph-name="afii10080" unicode="&#x43e;" horiz-adv-x="590" 
d="M370 -10h-150c-96 0 -150 55 -150 135v280c0 80 54 135 150 135h150c96 0 150 -55 150 -135v-280c0 -80 -54 -135 -150 -135zM140 405v-280c0 -45 35 -80 80 -80h150c45 0 80 35 80 80v280c0 45 -35 80 -80 80h-150c-45 0 -80 -35 -80 -80z" />
    <glyph glyph-name="afii10082" unicode="&#x440;" horiz-adv-x="585" 
d="M80 530h45l10 -70h5c6 15 15 28 26 40c19 20 49 40 94 40h105c96 0 150 -55 150 -135v-270c0 -80 -54 -135 -150 -135h-215v-170h-70v700zM150 390v-335h215c45 0 80 35 80 80v270c0 45 -35 80 -80 80h-105c-40 0 -68 -24 -85 -48c-11 -14 -19 -30 -25 -47z" />
    <glyph glyph-name="afii10083" unicode="&#x441;" horiz-adv-x="505" 
d="M470 0h-250c-96 0 -150 55 -150 135v260c0 80 54 135 150 135h250v-35l-20 -20h-230c-45 0 -80 -35 -80 -80v-260c0 -45 35 -80 80 -80h250v-55z" />
    <glyph glyph-name="afii10085" unicode="&#x443;" horiz-adv-x="535" 
d="M505 495l-199 -545c-27 -71 -75 -120 -160 -120h-50v55h50c40 0 72 30 85 65l15 40v9l-216 496v35h65l186 -460h5l154 460h65v-35z" />
    <glyph glyph-name="afii10087" unicode="&#x445;" horiz-adv-x="515" 
d="M255 315h5l150 215h65v-35l-175 -230l185 -230v-35h-65l-160 215h-5l-160 -215h-65v35l185 230l-175 230v35h65z" />
    <glyph glyph-name="afii10055" unicode="&#x406;" horiz-adv-x="260" 
d="M95 700h70v-700h-70v700z" />
    <glyph glyph-name="afii10103" unicode="&#x456;" horiz-adv-x="230" 
d="M80 530h70v-530h-70v530zM80 710h70v-100h-70v100z" />
    <glyph glyph-name="quotedblleft" unicode="&#x201c;" horiz-adv-x="355" 
d="M290 490h-70v70l35 140h35v-210zM135 490h-70v70l35 140h35v-210z" />
    <glyph glyph-name="quoteleft" unicode="&#x2018;" horiz-adv-x="200" 
d="M135 490h-70v70l35 140h35v-210z" />
    <glyph glyph-name="quoteright" unicode="&#x2019;" horiz-adv-x="200" 
d="M65 700h70v-70l-35 -140h-35v210z" />
    <glyph glyph-name="afii10054" unicode="&#x405;" horiz-adv-x="590" 
d="M125 550v-55c0 -45 30 -74 75 -85l210 -50c80 -19 125 -65 125 -145v-65c0 -91 -60 -150 -165 -150h-315v55h315c56 0 95 39 95 95v65c0 45 -30 74 -75 85l-210 50c-80 19 -125 65 -125 145v55c0 91 60 150 165 150h285v-35l-20 -20h-265c-56 0 -95 -39 -95 -95z" />
    <glyph glyph-name="afii10102" unicode="&#x455;" horiz-adv-x="515" 
d="M345 225l-195 30c-65 11 -105 49 -105 120v20c0 80 54 135 150 135h250v-35l-20 -20h-230c-45 0 -80 -35 -80 -80v-20c0 -40 20 -60 55 -65l195 -30c65 -11 105 -49 105 -120v-25c0 -80 -54 -135 -150 -135h-275v55h275c45 0 80 35 80 80v25c0 40 -20 60 -55 65z" />
    <glyph glyph-name="afii10105" unicode="&#x458;" horiz-adv-x="250" 
d="M20 -170h-95v55h95c45 0 80 35 80 80v565h70v-565c0 -80 -54 -135 -150 -135zM100 710h70v-100h-70v100z" />
    <glyph glyph-name="afii10061" unicode="&#x40c;" horiz-adv-x="630" 
d="M370 910h85l-115 -160h-60zM335 380l170 320h65v-35l-175 -310l200 -320v-35h-65l-195 325h-170v-325h-70v700h70v-320h170z" />
    <glyph glyph-name="afii10109" unicode="&#x45c;" horiz-adv-x="550" 
d="M300 295l135 235h65v-35l-145 -225l160 -235v-35h-65l-150 240h-150v-240h-70v530h70v-235h150zM335 750h85l-115 -160h-60z" />
    <glyph glyph-name="afii10062" unicode="&#x40e;" 
d="M355 760h-90c-65 0 -105 39 -105 95v40h60v-40c0 -25 20 -45 45 -45h90c25 0 45 20 45 45v40h60v-40c0 -56 -40 -95 -105 -95zM20 700h65l230 -470h5l195 470h65v-35l-230 -535c-37 -85 -90 -140 -183 -140h-57v55h57c48 0 77 29 104 85l10 20l-261 515v35z" />
    <glyph glyph-name="afii10110" unicode="&#x45e;" horiz-adv-x="535" 
d="M315 590h-80c-65 0 -105 39 -105 95v35h60v-35c0 -25 20 -45 45 -45h80c25 0 45 20 45 45v35h60v-35c0 -56 -40 -95 -105 -95zM505 495l-199 -545c-27 -71 -75 -120 -160 -120h-50v55h50c40 0 72 30 85 65l15 40v9l-216 496v35h65l186 -460h5l154 460h65v-35z" />
    <glyph glyph-name="afii10057" unicode="&#x408;" horiz-adv-x="515" 
d="M255 -10h-245v55h245c56 0 95 39 95 95v560h70v-560c0 -91 -60 -150 -165 -150z" />
    <glyph glyph-name="uni00AD" unicode="&#xad;" horiz-adv-x="505" 
d="M465 350v-55h-425v55h425z" />
    <glyph glyph-name="afii10145" unicode="&#x40f;" horiz-adv-x="680" 
d="M300 0h-205v700h70v-645h350v645h70v-700h-205l-15 -140h-50z" />
    <glyph glyph-name="afii10018" unicode="&#x411;" horiz-adv-x="645" 
d="M420 0h-325v700h450v-35l-20 -20h-360v-215h255c105 0 165 -59 165 -150v-130c0 -91 -60 -150 -165 -150zM165 55h255c56 0 95 39 95 95v130c0 56 -39 95 -95 95h-255v-320z" />
    <glyph glyph-name="acute" unicode="&#xb4;" horiz-adv-x="255" 
d="M130 700h85l-115 -160h-60z" />
    <glyph glyph-name="breve" unicode="&#x2d8;" horiz-adv-x="370" 
d="M225 570h-80c-65 0 -105 39 -105 95v35h60v-35c0 -25 20 -45 45 -45h80c25 0 45 20 45 45v35h60v-35c0 -56 -40 -95 -105 -95z" />
    <glyph glyph-name="caron" unicode="&#x2c7;" horiz-adv-x="410" 
d="M40 700h65l100 -105l101 105h64l-135 -150h-60z" />
    <glyph glyph-name="circumflex" unicode="&#x2c6;" horiz-adv-x="410" 
d="M105 550h-65l135 150h60l135 -150h-65l-100 105z" />
    <glyph glyph-name="dieresis" unicode="&#xa8;" horiz-adv-x="350" 
d="M40 700h70v-100h-70v100zM240 700h70v-100h-70v100z" />
    <glyph glyph-name="dotaccent" unicode="&#x2d9;" horiz-adv-x="150" 
d="M40 700h70v-100h-70v100z" />
    <glyph glyph-name="hungarumlaut" unicode="&#x2dd;" horiz-adv-x="405" 
d="M130 700h80l-115 -160h-55zM285 700h80l-115 -160h-55z" />
    <glyph glyph-name="Uhungarumlaut" unicode="&#x170;" horiz-adv-x="690" 
d="M260 45h170c56 0 95 39 95 95v560h70v-560c0 -91 -60 -150 -165 -150h-170c-105 0 -165 59 -165 150v560h70v-560c0 -56 39 -95 95 -95zM317 920h80l-115 -160h-55zM472 920h80l-115 -160h-55z" />
    <glyph glyph-name="macron" unicode="&#xaf;" horiz-adv-x="400" 
d="M345 700v-55h-290v55h290z" />
    <glyph glyph-name="ring" unicode="&#x2da;" horiz-adv-x="295" 
d="M170 505h-45c-51 0 -85 35 -85 75v45c0 40 34 75 85 75h45c51 0 85 -35 85 -75v-45c0 -40 -34 -75 -85 -75zM165 660h-35c-21 0 -35 -15 -35 -35v-45c0 -20 14 -35 35 -35h35c21 0 35 15 35 35v45c0 20 -14 35 -35 35z" />
    <glyph glyph-name="cedilla" unicode="&#xb8;" horiz-adv-x="280" 
d="M70 -85v85h50v-40h35c51 0 85 -35 85 -80v-20c0 -45 -34 -80 -85 -80h-115v45h105c20 0 35 15 35 35v20c0 20 -15 35 -35 35h-75z" />
    <glyph glyph-name="commaaccent" horiz-adv-x="145" 
d="M40 -50h65v-70l-30 -120h-35v190z" />
    <glyph glyph-name="ogonek" unicode="&#x2db;" horiz-adv-x="265" 
d="M140 0h55v-15c-18 -6 -34 -14 -48 -23c-24 -16 -47 -40 -47 -72c0 -25 20 -45 45 -45h80v-45h-80c-71 0 -105 34 -105 90c0 40 25 66 50 85c15 10 31 18 50 25z" />
    <glyph glyph-name="tilde" unicode="&#x2dc;" horiz-adv-x="365" 
d="M265 695h60v-75c0 -35 -25 -60 -60 -60h-20c-13 0 -25 5 -34 12c-5 3 -11 8 -16 13l-45 40c-3 2 -6 4 -9 7c-7 4 -14 8 -21 8c-13 0 -20 -8 -20 -25v-50h-60v75c0 35 25 60 60 60h20c12 0 25 -6 34 -13c5 -3 11 -7 16 -12l45 -40l9 -8c7 -5 14 -7 21 -7c13 0 20 8 20 25
v50z" />
    <glyph glyph-name="Aacute" unicode="&#xc1;" horiz-adv-x="625" 
d="M155 185l-65 -185h-65v35l240 665h95l240 -665v-35h-65l-65 185h-315zM455 240l-140 390h-5l-140 -390h285zM365 940h85l-115 -160h-60z" />
    <glyph glyph-name="Abreve" unicode="&#x102;" horiz-adv-x="625" 
d="M155 185l-65 -185h-65v35l240 665h95l240 -665v-35h-65l-65 185h-315zM455 240l-140 390h-5l-140 -390h285zM352 770h-80c-65 0 -105 39 -105 95v35h60v-35c0 -25 20 -45 45 -45h80c25 0 45 20 45 45v35h60v-35c0 -56 -40 -95 -105 -95z" />
    <glyph glyph-name="Acircumflex" unicode="&#xc2;" horiz-adv-x="625" 
d="M155 185l-65 -185h-65v35l240 665h95l240 -665v-35h-65l-65 185h-315zM455 240l-140 390h-5l-140 -390h285zM212 740h-65l135 150h60l135 -150h-65l-100 105z" />
    <glyph glyph-name="Agrave" unicode="&#xc0;" horiz-adv-x="625" 
d="M155 185l-65 -185h-65v35l240 665h95l240 -665v-35h-65l-65 185h-315zM455 240l-140 390h-5l-140 -390h285zM165 940h85l90 -160h-60z" />
    <glyph glyph-name="Adieresis" unicode="&#xc4;" horiz-adv-x="625" 
d="M155 185l-65 -185h-65v35l240 665h95l240 -665v-35h-65l-65 185h-315zM455 240l-140 390h-5l-140 -390h285zM177 870h70v-100h-70v100zM377 870h70v-100h-70v100z" />
    <glyph glyph-name="Amacron" unicode="&#x100;" horiz-adv-x="625" 
d="M155 185l-65 -185h-65v35l240 665h95l240 -665v-35h-65l-65 185h-315zM455 240l-140 390h-5l-140 -390h285zM457 850v-55h-290v55h290z" />
    <glyph glyph-name="Aogonek" unicode="&#x104;" horiz-adv-x="625" 
d="M155 185l-65 -185h-65v35l240 665h95l240 -665v-50c-18 -6 -34 -14 -48 -23c-24 -16 -47 -40 -47 -72c0 -25 20 -45 45 -45h80v-45h-80c-71 0 -105 34 -105 90c0 76 90 107 99 110h-9l-65 185h-315zM455 240l-140 390h-5l-140 -390h285z" />
    <glyph glyph-name="Aring" unicode="&#xc5;" horiz-adv-x="625" 
d="M155 185l-65 -185h-65v35l228 632c-31 12 -48 39 -48 68v45c0 40 34 75 85 75h45c51 0 85 -35 85 -75v-45c0 -29 -19 -56 -48 -68l228 -632v-35h-65l-65 185h-315zM455 240l-140 390h-5l-140 -390h285zM330 815h-35c-21 0 -35 -15 -35 -35v-45c0 -20 14 -35 35 -35h35
c21 0 35 15 35 35v45c0 20 -14 35 -35 35z" />
    <glyph glyph-name="Atilde" unicode="&#xc3;" horiz-adv-x="625" 
d="M155 185l-65 -185h-65v35l240 665h95l240 -665v-35h-65l-65 185h-315zM455 240l-140 390h-5l-140 -390h285zM395 895h60v-75c0 -35 -25 -60 -60 -60h-20c-13 0 -25 5 -34 12c-5 3 -11 8 -16 13l-45 40c-3 2 -6 4 -9 7c-7 4 -14 8 -21 8c-13 0 -20 -8 -20 -25v-50h-60v75
c0 35 25 60 60 60h20c12 0 25 -6 34 -13c5 -3 11 -7 16 -12l45 -40l9 -8c7 -5 14 -7 21 -7c13 0 20 8 20 25v50z" />
    <glyph glyph-name="AE" unicode="&#xc6;" horiz-adv-x="945" 
d="M180 225l-105 -225h-65v35l324 665h576v-35l-20 -20h-350v-260h285v-55h-285v-275h370v-55h-440v225h-290zM383 645l-173 -365h260v365h-87z" />
    <glyph glyph-name="AEacute" unicode="&#x1fc;" horiz-adv-x="945" 
d="M180 225l-105 -225h-65v35l324 665h576v-35l-20 -20h-350v-260h285v-55h-285v-275h370v-55h-440v225h-290zM383 645l-173 -365h260v365h-87zM595 940h85l-115 -160h-60z" />
    <glyph glyph-name="Cacute" unicode="&#x106;" horiz-adv-x="570" 
d="M80 150v400c0 91 60 150 165 150h290v-35l-20 -20h-270c-56 0 -95 -39 -95 -95v-400c0 -56 39 -95 95 -95h290v-55h-290c-105 0 -165 59 -165 150zM367 940h85l-115 -160h-60z" />
    <glyph glyph-name="Ccaron" unicode="&#x10c;" horiz-adv-x="570" 
d="M80 150v400c0 91 60 150 165 150h290v-35l-20 -20h-270c-56 0 -95 -39 -95 -95v-400c0 -56 39 -95 95 -95h290v-55h-290c-105 0 -165 59 -165 150zM150 920h65l100 -105l101 105h64l-135 -150h-60z" />
    <glyph glyph-name="Ccedilla" unicode="&#xc7;" horiz-adv-x="570" 
d="M80 150v400c0 91 60 150 165 150h290v-35l-20 -20h-270c-56 0 -95 -39 -95 -95v-400c0 -56 39 -95 95 -95h290v-55h-220v-40h35c51 0 85 -35 85 -80v-20c0 -45 -34 -80 -85 -80h-115v45h105c20 0 35 15 35 35v20c0 20 -15 35 -35 35h-75v85h-20c-105 0 -165 59 -165 150z
" />
    <glyph glyph-name="Ccircumflex" unicode="&#x108;" horiz-adv-x="570" 
d="M80 150v400c0 91 60 150 165 150h290v-35l-20 -20h-270c-56 0 -95 -39 -95 -95v-400c0 -56 39 -95 95 -95h290v-55h-290c-105 0 -165 59 -165 150zM225 780h-65l135 150h60l135 -150h-65l-100 105z" />
    <glyph glyph-name="Cdotaccent" unicode="&#x10a;" horiz-adv-x="570" 
d="M80 150v400c0 91 60 150 165 150h290v-35l-20 -20h-270c-56 0 -95 -39 -95 -95v-400c0 -56 39 -95 95 -95h290v-55h-290c-105 0 -165 59 -165 150zM290 870h70v-100h-70v100z" />
    <glyph glyph-name="Dcaron" unicode="&#x10e;" horiz-adv-x="665" 
d="M95 0v700h325c105 0 165 -59 165 -150v-400c0 -91 -60 -150 -165 -150h-325zM165 645v-590h255c56 0 95 39 95 95v400c0 56 -39 95 -95 95h-255zM147 920h65l100 -105l101 105h64l-135 -150h-60z" />
    <glyph glyph-name="Dcroat" unicode="&#x110;" horiz-adv-x="665" 
d="M95 0v335h-75v55h75v310h325c105 0 165 -59 165 -150v-400c0 -91 -60 -150 -165 -150h-325zM320 390v-55h-155v-280h255c56 0 95 39 95 95v400c0 56 -39 95 -95 95h-255v-255h155z" />
    <glyph glyph-name="Eacute" unicode="&#xc9;" horiz-adv-x="580" 
d="M95 0v700h450v-35l-20 -20h-360v-260h295v-55h-295v-275h380v-55h-450zM362 940h85l-115 -160h-60z" />
    <glyph glyph-name="Ebreve" unicode="&#x114;" horiz-adv-x="580" 
d="M95 0v700h450v-35l-20 -20h-360v-260h295v-55h-295v-275h380v-55h-450zM360 780h-80c-65 0 -105 39 -105 95v35h60v-35c0 -25 20 -45 45 -45h80c25 0 45 20 45 45v35h60v-35c0 -56 -40 -95 -105 -95z" />
    <glyph glyph-name="Ecaron" unicode="&#x11a;" horiz-adv-x="580" 
d="M95 0v700h450v-35l-20 -20h-360v-260h295v-55h-295v-275h380v-55h-450zM145 920h65l100 -105l101 105h64l-135 -150h-60z" />
    <glyph glyph-name="Ecircumflex" unicode="&#xca;" horiz-adv-x="580" 
d="M95 0v700h450v-35l-20 -20h-360v-260h295v-55h-295v-275h380v-55h-450zM220 770h-65l135 150h60l135 -150h-65l-100 105z" />
    <glyph glyph-name="Edieresis" unicode="&#xcb;" horiz-adv-x="580" 
d="M95 0v700h450v-35l-20 -20h-360v-260h295v-55h-295v-275h380v-55h-450zM185 880h70v-100h-70v100zM385 880h70v-100h-70v100z" />
    <glyph glyph-name="Edotaccent" unicode="&#x116;" horiz-adv-x="580" 
d="M95 0v700h450v-35l-20 -20h-360v-260h295v-55h-295v-275h380v-55h-450zM275 880h70v-100h-70v100z" />
    <glyph glyph-name="Egrave" unicode="&#xc8;" horiz-adv-x="580" 
d="M95 0v700h450v-35l-20 -20h-360v-260h295v-55h-295v-275h380v-55h-450zM182 940h85l90 -160h-60z" />
    <glyph glyph-name="Emacron" unicode="&#x112;" horiz-adv-x="580" 
d="M95 0v700h450v-35l-20 -20h-360v-260h295v-55h-295v-275h380v-55h-450zM465 860v-55h-290v55h290z" />
    <glyph glyph-name="Eogonek" unicode="&#x118;" horiz-adv-x="580" 
d="M95 0v700h450v-35l-20 -20h-360v-260h295v-55h-295v-275h380v-55h-150c-21 -9 -41 -20 -58 -31c-29 -19 -57 -47 -57 -79c0 -25 20 -45 45 -45h80v-45h-80c-71 0 -105 34 -105 90c0 76 80 107 89 110h-214z" />
    <glyph glyph-name="Gbreve" unicode="&#x11e;" horiz-adv-x="655" 
d="M80 150v400c0 91 60 150 165 150h295v-35l-20 -20h-275c-56 0 -95 -39 -95 -95v-400c0 -56 39 -95 95 -95h255v275h-170v55h240v-385h-325c-105 0 -165 59 -165 150zM367 780h-80c-65 0 -105 39 -105 95v35h60v-35c0 -25 20 -45 45 -45h80c25 0 45 20 45 45v35h60v-35
c0 -56 -40 -95 -105 -95z" />
    <glyph glyph-name="Gcircumflex" unicode="&#x11c;" horiz-adv-x="655" 
d="M80 150v400c0 91 60 150 165 150h295v-35l-20 -20h-275c-56 0 -95 -39 -95 -95v-400c0 -56 39 -95 95 -95h255v275h-170v55h240v-385h-325c-105 0 -165 59 -165 150zM227 780h-65l135 150h60l135 -150h-65l-100 105z" />
    <glyph glyph-name="Gcommaaccent" unicode="&#x122;" horiz-adv-x="655" 
d="M80 150v400c0 91 60 150 165 150h295v-35l-20 -20h-275c-56 0 -95 -39 -95 -95v-400c0 -56 39 -95 95 -95h255v275h-170v55h240v-385h-325c-105 0 -165 59 -165 150zM305 -50h65v-70l-30 -120h-35v190z" />
    <glyph glyph-name="Gdotaccent" unicode="&#x120;" horiz-adv-x="655" 
d="M80 150v400c0 91 60 150 165 150h295v-35l-20 -20h-275c-56 0 -95 -39 -95 -95v-400c0 -56 39 -95 95 -95h255v275h-170v55h240v-385h-325c-105 0 -165 59 -165 150zM292 870h70v-100h-70v100z" />
    <glyph glyph-name="Hbar" unicode="&#x126;" horiz-adv-x="680" 
d="M650 570v-55h-65v-515h-70v315h-350v-315h-70v515h-65v55h65v130h70v-130h350v130h70v-130h65zM165 370h350v145h-350v-145z" />
    <glyph glyph-name="Hcircumflex" unicode="&#x124;" horiz-adv-x="680" 
d="M95 700h70v-320h350v320h70v-700h-70v325h-350v-325h-70v700zM240 770h-65l135 150h60l135 -150h-65l-100 105z" />
    <glyph glyph-name="Iacute" unicode="&#xcd;" horiz-adv-x="260" 
d="M95 700h70v-700h-70v700zM182 940h85l-115 -160h-60z" />
    <glyph glyph-name="Ibreve" unicode="&#x12c;" horiz-adv-x="260" 
d="M95 700h70v-700h-70v700zM171 770h-80c-65 0 -105 39 -105 95v35h60v-35c0 -25 20 -45 45 -45h80c25 0 45 20 45 45v35h60v-35c0 -56 -40 -95 -105 -95z" />
    <glyph glyph-name="Icircumflex" unicode="&#xce;" horiz-adv-x="260" 
d="M95 700h70v-700h-70v700zM31 770h-65l135 150h60l135 -150h-65l-100 105z" />
    <glyph glyph-name="Idieresis" unicode="&#xcf;" horiz-adv-x="260" 
d="M95 700h70v-700h-70v700zM-4 860h70v-100h-70v100zM196 860h70v-100h-70v100z" />
    <glyph glyph-name="Idotaccent" unicode="&#x130;" horiz-adv-x="260" 
d="M95 700h70v-700h-70v700zM95 860h70v-100h-70v100z" />
    <glyph glyph-name="Igrave" unicode="&#xcc;" horiz-adv-x="260" 
d="M95 700h70v-700h-70v700zM-7 940h85l90 -160h-60z" />
    <glyph glyph-name="Imacron" unicode="&#x12a;" horiz-adv-x="260" 
d="M95 700h70v-700h-70v700zM276 850v-55h-290v55h290z" />
    <glyph glyph-name="Iogonek" unicode="&#x12e;" horiz-adv-x="260" 
d="M95 700h70v-715c-18 -6 -34 -14 -48 -23c-24 -16 -47 -40 -47 -72c0 -25 20 -45 45 -45h80v-45h-80c-71 0 -105 34 -105 90c0 76 90 107 99 110h-14v700z" />
    <glyph glyph-name="Itilde" unicode="&#x128;" horiz-adv-x="260" 
d="M95 700h70v-700h-70v700zM214 895h60v-75c0 -35 -25 -60 -60 -60h-20c-13 0 -25 5 -34 12c-5 3 -11 8 -16 13l-45 40c-3 2 -6 4 -9 7c-7 4 -14 8 -21 8c-13 0 -20 -8 -20 -25v-50h-60v75c0 35 25 60 60 60h20c12 0 25 -6 34 -13c5 -3 11 -7 16 -12l45 -40l9 -8
c7 -5 14 -7 21 -7c13 0 20 8 20 25v50z" />
    <glyph glyph-name="IJ" unicode="&#x132;" horiz-adv-x="775" 
d="M95 700h70v-700h-70v700zM515 -10h-245v55h245c56 0 95 39 95 95v560h70v-560c0 -91 -60 -150 -165 -150z" />
    <glyph glyph-name="Jcircumflex" unicode="&#x134;" horiz-adv-x="515" 
d="M255 -10h-245v55h245c56 0 95 39 95 95v560h70v-560c0 -91 -60 -150 -165 -150zM287 760h-65l135 150h60l135 -150h-65l-100 105z" />
    <glyph glyph-name="Kcommaaccent" unicode="&#x136;" horiz-adv-x="630" 
d="M335 380l170 320h65v-35l-175 -310l200 -320v-35h-65l-195 325h-170v-325h-70v700h70v-320h170zM302 -30h65v-70l-30 -120h-35v190z" />
    <glyph glyph-name="Lacute" unicode="&#x139;" horiz-adv-x="545" 
d="M95 700h70v-645h370v-55h-440v700zM185 940h85l-115 -160h-60z" />
    <glyph glyph-name="Lcaron" unicode="&#x13d;" horiz-adv-x="545" 
d="M95 700h70v-645h370v-55h-440v700zM270 700h70v-70l-35 -140h-35v210z" />
    <glyph glyph-name="Lcommaaccent" unicode="&#x13b;" horiz-adv-x="545" 
d="M95 700h70v-645h370v-55h-440v700zM280 -69h65v-70l-30 -120h-35v190z" />
    <glyph glyph-name="Ldot" unicode="&#x13f;" horiz-adv-x="545" 
d="M95 700h70v-645h370v-55h-440v700zM287 430h70v-105h-70v105z" />
    <glyph glyph-name="Lslash" unicode="&#x141;" horiz-adv-x="545" 
d="M280 480v-75l-115 -69v-281h370v-55h-440v294l-65 -39v75l65 39v331h70v-289z" />
    <glyph glyph-name="Nacute" unicode="&#x143;" horiz-adv-x="680" 
d="M585 0h-85l-340 605h-5l10 -145v-460h-70v700h85l340 -605h5l-10 145v460h70v-700zM382 920h85l-115 -160h-60z" />
    <glyph glyph-name="Ncaron" unicode="&#x147;" horiz-adv-x="680" 
d="M585 0h-85l-340 605h-5l10 -145v-460h-70v700h85l340 -605h5l-10 145v460h70v-700zM175 900h65l100 -105l101 105h64l-135 -150h-60z" />
    <glyph glyph-name="Ncommaaccent" unicode="&#x145;" horiz-adv-x="680" 
d="M585 0h-85l-340 605h-5l10 -145v-460h-70v700h85l340 -605h5l-10 145v460h70v-700zM307 -30h65v-70l-30 -120h-35v190z" />
    <glyph glyph-name="Ntilde" unicode="&#xd1;" horiz-adv-x="680" 
d="M585 0h-85l-340 605h-5l10 -145v-460h-70v700h85l340 -605h5l-10 145v460h70v-700zM422 905h60v-75c0 -35 -25 -60 -60 -60h-20c-13 0 -25 5 -34 12c-5 3 -11 8 -16 13l-45 40c-3 2 -6 4 -9 7c-7 4 -14 8 -21 8c-13 0 -20 -8 -20 -25v-50h-60v75c0 35 25 60 60 60h20
c12 0 25 -6 34 -13c5 -3 11 -7 16 -12l45 -40l9 -8c7 -5 14 -7 21 -7c13 0 20 8 20 25v50z" />
    <glyph glyph-name="Oacute" unicode="&#xd3;" horiz-adv-x="670" 
d="M425 -10h-180c-105 0 -165 59 -165 150v420c0 91 60 150 165 150h180c105 0 165 -59 165 -150v-420c0 -91 -60 -150 -165 -150zM245 45h180c56 0 95 39 95 95v420c0 56 -39 95 -95 95h-180c-56 0 -95 -39 -95 -95v-420c0 -56 39 -95 95 -95zM387 940h85l-115 -160h-60z
" />
    <glyph glyph-name="Obreve" unicode="&#x14e;" horiz-adv-x="670" 
d="M425 -10h-180c-105 0 -165 59 -165 150v420c0 91 60 150 165 150h180c105 0 165 -59 165 -150v-420c0 -91 -60 -150 -165 -150zM245 45h180c56 0 95 39 95 95v420c0 56 -39 95 -95 95h-180c-56 0 -95 -39 -95 -95v-420c0 -56 39 -95 95 -95zM375 790h-80
c-65 0 -105 39 -105 95v35h60v-35c0 -25 20 -45 45 -45h80c25 0 45 20 45 45v35h60v-35c0 -56 -40 -95 -105 -95z" />
    <glyph glyph-name="Ocircumflex" unicode="&#xd4;" horiz-adv-x="670" 
d="M425 -10h-180c-105 0 -165 59 -165 150v420c0 91 60 150 165 150h180c105 0 165 -59 165 -150v-420c0 -91 -60 -150 -165 -150zM245 45h180c56 0 95 39 95 95v420c0 56 -39 95 -95 95h-180c-56 0 -95 -39 -95 -95v-420c0 -56 39 -95 95 -95zM235 780h-65l135 150h60
l135 -150h-65l-100 105z" />
    <glyph glyph-name="Odieresis" unicode="&#xd6;" horiz-adv-x="670" 
d="M425 -10h-180c-105 0 -165 59 -165 150v420c0 91 60 150 165 150h180c105 0 165 -59 165 -150v-420c0 -91 -60 -150 -165 -150zM245 45h180c56 0 95 39 95 95v420c0 56 -39 95 -95 95h-180c-56 0 -95 -39 -95 -95v-420c0 -56 39 -95 95 -95zM200 880h70v-100h-70v100z
M400 880h70v-100h-70v100z" />
    <glyph glyph-name="Ograve" unicode="&#xd2;" horiz-adv-x="670" 
d="M425 -10h-180c-105 0 -165 59 -165 150v420c0 91 60 150 165 150h180c105 0 165 -59 165 -150v-420c0 -91 -60 -150 -165 -150zM245 45h180c56 0 95 39 95 95v420c0 56 -39 95 -95 95h-180c-56 0 -95 -39 -95 -95v-420c0 -56 39 -95 95 -95zM207 940h85l90 -160h-60z" />
    <glyph glyph-name="Ohungarumlaut" unicode="&#x150;" horiz-adv-x="670" 
d="M425 -10h-180c-105 0 -165 59 -165 150v420c0 91 60 150 165 150h180c105 0 165 -59 165 -150v-420c0 -91 -60 -150 -165 -150zM245 45h180c56 0 95 39 95 95v420c0 56 -39 95 -95 95h-180c-56 0 -95 -39 -95 -95v-420c0 -56 39 -95 95 -95zM312 940h80l-115 -160h-55z
M467 940h80l-115 -160h-55z" />
    <glyph glyph-name="Omacron" unicode="&#x14c;" horiz-adv-x="670" 
d="M425 -10h-180c-105 0 -165 59 -165 150v420c0 91 60 150 165 150h180c105 0 165 -59 165 -150v-420c0 -91 -60 -150 -165 -150zM245 45h180c56 0 95 39 95 95v420c0 56 -39 95 -95 95h-180c-56 0 -95 -39 -95 -95v-420c0 -56 39 -95 95 -95zM480 860v-55h-290v55h290z
" />
    <glyph glyph-name="Oslash" unicode="&#xd8;" horiz-adv-x="670" 
d="M185 -50h-60v30l17 36c-41 27 -62 69 -62 124v420c0 91 60 150 165 150h180c15 0 27 -1 39 -4l21 44h60v-30l-17 -37c41 -27 62 -68 62 -123v-420c0 -91 -60 -150 -165 -150h-180c-15 0 -27 1 -40 4zM150 560v-420c0 -24 7 -45 21 -62l269 576c-5 0 -10 1 -15 1h-180
c-56 0 -95 -39 -95 -95zM245 45h180c56 0 95 39 95 95v420c0 23 -7 44 -21 61l-269 -575c3 -1 8 -1 15 -1z" />
    <glyph glyph-name="Oslashacute" unicode="&#x1fe;" horiz-adv-x="670" 
d="M185 -50h-60v30l17 36c-41 27 -62 69 -62 124v420c0 91 60 150 165 150h180c15 0 27 -1 39 -4l21 44h60v-30l-17 -37c41 -27 62 -68 62 -123v-420c0 -91 -60 -150 -165 -150h-180c-15 0 -27 1 -40 4zM150 560v-420c0 -24 7 -45 21 -62l269 576c-5 0 -10 1 -15 1h-180
c-56 0 -95 -39 -95 -95zM245 45h180c56 0 95 39 95 95v420c0 23 -7 44 -21 61l-269 -575c3 -1 8 -1 15 -1zM377 940h85l-115 -160h-60z" />
    <glyph glyph-name="Otilde" unicode="&#xd5;" horiz-adv-x="670" 
d="M425 -10h-180c-105 0 -165 59 -165 150v420c0 91 60 150 165 150h180c105 0 165 -59 165 -150v-420c0 -91 -60 -150 -165 -150zM245 45h180c56 0 95 39 95 95v420c0 56 -39 95 -95 95h-180c-56 0 -95 -39 -95 -95v-420c0 -56 39 -95 95 -95zM417 915h60v-75
c0 -35 -25 -60 -60 -60h-20c-13 0 -25 5 -34 12c-5 3 -11 8 -16 13l-45 40c-3 2 -6 4 -9 7c-7 4 -14 8 -21 8c-13 0 -20 -8 -20 -25v-50h-60v75c0 35 25 60 60 60h20c12 0 25 -6 34 -13c5 -3 11 -7 16 -12l45 -40l9 -8c7 -5 14 -7 21 -7c13 0 20 8 20 25v50z" />
    <glyph glyph-name="OE" unicode="&#x152;" horiz-adv-x="960" 
d="M925 0h-680c-105 0 -165 59 -165 150v400c0 91 60 150 165 150h680v-35l-20 -20h-350v-260h285v-55h-285v-275h370v-55zM245 55h240v590h-240c-56 0 -95 -39 -95 -95v-400c0 -56 39 -95 95 -95z" />
    <glyph glyph-name="Racute" unicode="&#x154;" horiz-adv-x="650" 
d="M95 700h310c105 0 165 -59 165 -150v-120c0 -68 -35 -104 -70 -123c-21 -11 -44 -19 -70 -22c57 -84 111 -169 170 -250v-35h-65l-180 280h-190v-280h-70v700zM405 645h-240v-310h240c56 0 95 39 95 95v120c0 56 -39 95 -95 95zM367 940h85l-115 -160h-60z" />
    <glyph glyph-name="Rcaron" unicode="&#x158;" horiz-adv-x="650" 
d="M95 700h310c105 0 165 -59 165 -150v-120c0 -68 -35 -104 -70 -123c-21 -11 -44 -19 -70 -22c57 -84 111 -169 170 -250v-35h-65l-180 280h-190v-280h-70v700zM405 645h-240v-310h240c56 0 95 39 95 95v120c0 56 -39 95 -95 95zM150 920h65l100 -105l101 105h64
l-135 -150h-60z" />
    <glyph glyph-name="Rcommaaccent" unicode="&#x156;" horiz-adv-x="650" 
d="M95 700h310c105 0 165 -59 165 -150v-120c0 -68 -35 -104 -70 -123c-21 -11 -44 -19 -70 -22c57 -84 111 -169 170 -250v-35h-65l-180 280h-190v-280h-70v700zM405 645h-240v-310h240c56 0 95 39 95 95v120c0 56 -39 95 -95 95zM292 -30h65v-70l-30 -120h-35v190z" />
    <glyph glyph-name="Sacute" unicode="&#x15a;" horiz-adv-x="590" 
d="M125 550v-55c0 -45 30 -74 75 -85l210 -50c80 -19 125 -65 125 -145v-65c0 -91 -60 -150 -165 -150h-315v55h315c56 0 95 39 95 95v65c0 45 -30 74 -75 85l-210 50c-80 19 -125 65 -125 145v55c0 91 60 150 165 150h285v-35l-20 -20h-265c-56 0 -95 -39 -95 -95zM327 940
h85l-115 -160h-60z" />
    <glyph glyph-name="Scaron" unicode="&#x160;" horiz-adv-x="590" 
d="M125 550v-55c0 -45 30 -74 75 -85l210 -50c80 -19 125 -65 125 -145v-65c0 -91 -60 -150 -165 -150h-315v55h315c56 0 95 39 95 95v65c0 45 -30 74 -75 85l-210 50c-80 19 -125 65 -125 145v55c0 91 60 150 165 150h285v-35l-20 -20h-265c-56 0 -95 -39 -95 -95zM130 920
h65l100 -105l101 105h64l-135 -150h-60z" />
    <glyph glyph-name="Scedilla" unicode="&#x15e;" horiz-adv-x="590" 
d="M125 550v-55c0 -45 30 -74 75 -85l210 -50c80 -19 125 -65 125 -145v-65c0 -91 -60 -150 -165 -150h-85v-40h35c51 0 85 -35 85 -80v-20c0 -45 -34 -80 -85 -80h-115v45h105c20 0 35 15 35 35v20c0 20 -15 35 -35 35h-75v85h-180v55h315c56 0 95 39 95 95v65
c0 45 -30 74 -75 85l-210 50c-80 19 -125 65 -125 145v55c0 91 60 150 165 150h285v-35l-20 -20h-265c-56 0 -95 -39 -95 -95z" />
    <glyph glyph-name="Scircumflex" unicode="&#x15c;" horiz-adv-x="590" 
d="M125 550v-55c0 -45 30 -74 75 -85l210 -50c80 -19 125 -65 125 -145v-65c0 -91 -60 -150 -165 -150h-315v55h315c56 0 95 39 95 95v65c0 45 -30 74 -75 85l-210 50c-80 19 -125 65 -125 145v55c0 91 60 150 165 150h285v-35l-20 -20h-265c-56 0 -95 -39 -95 -95zM195 770
h-65l135 150h60l135 -150h-65l-100 105z" />
    <glyph glyph-name="Scommaaccent" unicode="&#x218;" horiz-adv-x="590" 
d="M125 550v-55c0 -45 30 -74 75 -85l210 -50c80 -19 125 -65 125 -145v-65c0 -91 -60 -150 -165 -150h-315v55h315c56 0 95 39 95 95v65c0 45 -30 74 -75 85l-210 50c-80 19 -125 65 -125 145v55c0 91 60 150 165 150h285v-35l-20 -20h-265c-56 0 -95 -39 -95 -95zM262 -59
h65v-70l-30 -120h-35v190z" />
    <glyph glyph-name="Tbar" unicode="&#x166;" horiz-adv-x="550" 
d="M310 645v-155h210v-55h-210v-435h-70v435h-210v55h210v155h-220v55h510v-35l-20 -20h-200z" />
    <glyph glyph-name="Tcaron" unicode="&#x164;" horiz-adv-x="550" 
d="M310 645v-645h-70v645h-220v55h510v-35l-20 -20h-200zM110 920h65l100 -105l101 105h64l-135 -150h-60z" />
    <glyph glyph-name="Tcommaaccent" unicode="&#x162;" horiz-adv-x="550" 
d="M310 645v-645h-70v645h-220v55h510v-35l-20 -20h-200zM242 -69h65v-70l-30 -120h-35v190z" />
    <glyph glyph-name="Uacute" unicode="&#xda;" horiz-adv-x="690" 
d="M260 45h170c56 0 95 39 95 95v560h70v-560c0 -91 -60 -150 -165 -150h-170c-105 0 -165 59 -165 150v560h70v-560c0 -56 39 -95 95 -95zM387 900h85l-115 -160h-60z" />
    <glyph glyph-name="Ubreve" unicode="&#x16c;" horiz-adv-x="690" 
d="M260 45h170c56 0 95 39 95 95v560h70v-560c0 -91 -60 -150 -165 -150h-170c-105 0 -165 59 -165 150v560h70v-560c0 -56 39 -95 95 -95zM385 750h-80c-65 0 -105 39 -105 95v35h60v-35c0 -25 20 -45 45 -45h80c25 0 45 20 45 45v35h60v-35c0 -56 -40 -95 -105 -95z" />
    <glyph glyph-name="Ucircumflex" unicode="&#xdb;" horiz-adv-x="690" 
d="M260 45h170c56 0 95 39 95 95v560h70v-560c0 -91 -60 -150 -165 -150h-170c-105 0 -165 59 -165 150v560h70v-560c0 -56 39 -95 95 -95zM245 760h-65l135 150h60l135 -150h-65l-100 105z" />
    <glyph glyph-name="Udieresis" unicode="&#xdc;" horiz-adv-x="690" 
d="M260 45h170c56 0 95 39 95 95v560h70v-560c0 -91 -60 -150 -165 -150h-170c-105 0 -165 59 -165 150v560h70v-560c0 -56 39 -95 95 -95zM210 860h70v-100h-70v100zM410 860h70v-100h-70v100z" />
    <glyph glyph-name="Ugrave" unicode="&#xd9;" horiz-adv-x="690" 
d="M260 45h170c56 0 95 39 95 95v560h70v-560c0 -91 -60 -150 -165 -150h-170c-105 0 -165 59 -165 150v560h70v-560c0 -56 39 -95 95 -95zM227 900h85l90 -160h-60z" />
    <glyph glyph-name="Umacron" unicode="&#x16a;" horiz-adv-x="690" 
d="M260 45h170c56 0 95 39 95 95v560h70v-560c0 -91 -60 -150 -165 -150h-170c-105 0 -165 59 -165 150v560h70v-560c0 -56 39 -95 95 -95zM490 840v-55h-290v55h290z" />
    <glyph glyph-name="Uogonek" unicode="&#x172;" horiz-adv-x="690" 
d="M260 45h170c56 0 95 39 95 95v560h70v-560c0 -91 -60 -150 -165 -150h-13c-12 -5 -97 -41 -97 -100c0 -25 20 -45 45 -45h80v-45h-80c-71 0 -105 34 -105 90c0 54 44 86 75 100h-75c-105 0 -165 59 -165 150v560h70v-560c0 -56 39 -95 95 -95z" />
    <glyph glyph-name="Uring" unicode="&#x16e;" horiz-adv-x="690" 
d="M260 45h170c56 0 95 39 95 95v560h70v-560c0 -91 -60 -150 -165 -150h-170c-105 0 -165 59 -165 150v560h70v-560c0 -56 39 -95 95 -95zM367 715h-45c-51 0 -85 35 -85 75v45c0 40 34 75 85 75h45c51 0 85 -35 85 -75v-45c0 -40 -34 -75 -85 -75zM362 870h-35
c-21 0 -35 -15 -35 -35v-45c0 -20 14 -35 35 -35h35c21 0 35 15 35 35v45c0 20 -14 35 -35 35z" />
    <glyph glyph-name="Utilde" unicode="&#x168;" horiz-adv-x="690" 
d="M260 45h170c56 0 95 39 95 95v560h70v-560c0 -91 -60 -150 -165 -150h-170c-105 0 -165 59 -165 150v560h70v-560c0 -56 39 -95 95 -95zM427 891h60v-75c0 -35 -25 -60 -60 -60h-20c-13 0 -25 5 -34 12c-5 3 -11 8 -16 13l-45 40c-3 2 -6 4 -9 7c-7 4 -14 8 -21 8
c-13 0 -20 -8 -20 -25v-50h-60v75c0 35 25 60 60 60h20c12 0 25 -6 34 -13c5 -3 11 -7 16 -12l45 -40l9 -8c7 -5 14 -7 21 -7c13 0 20 8 20 25v50z" />
    <glyph glyph-name="Wacute" unicode="&#x1e82;" horiz-adv-x="925" 
d="M465 520h-5l-175 -520h-95l-150 665v35h65l135 -630h5c57 172 113 347 170 520h95c57 -173 113 -348 170 -520h5l135 630h65v-35l-150 -665h-95zM525 860h85l-115 -160h-60z" />
    <glyph glyph-name="Wcircumflex" unicode="&#x174;" horiz-adv-x="925" 
d="M465 520h-5l-175 -520h-95l-150 665v35h65l135 -630h5c57 172 113 347 170 520h95c57 -173 113 -348 170 -520h5l135 630h65v-35l-150 -665h-95zM362 690h-65l135 150h60l135 -150h-65l-100 105z" />
    <glyph glyph-name="Wdieresis" unicode="&#x1e84;" horiz-adv-x="925" 
d="M465 520h-5l-175 -520h-95l-150 665v35h65l135 -630h5c57 172 113 347 170 520h95c57 -173 113 -348 170 -520h5l135 630h65v-35l-150 -665h-95zM327 820h70v-100h-70v100zM527 820h70v-100h-70v100z" />
    <glyph glyph-name="Wgrave" unicode="&#x1e80;" horiz-adv-x="925" 
d="M465 520h-5l-175 -520h-95l-150 665v35h65l135 -630h5c57 172 113 347 170 520h95c57 -173 113 -348 170 -520h5l135 630h65v-35l-150 -665h-95zM325 870h85l90 -160h-60z" />
    <glyph glyph-name="Yacute" unicode="&#xdd;" horiz-adv-x="580" 
d="M85 700l202 -395h6l202 395h65v-35l-235 -445v-220h-70v220l-235 445v35h65zM332 900h85l-115 -160h-60z" />
    <glyph glyph-name="Ycircumflex" unicode="&#x176;" horiz-adv-x="580" 
d="M85 700l202 -395h6l202 395h65v-35l-235 -445v-220h-70v220l-235 445v35h65zM190 760h-65l135 150h60l135 -150h-65l-100 105z" />
    <glyph glyph-name="Ydieresis" unicode="&#x178;" horiz-adv-x="580" 
d="M85 700l202 -395h6l202 395h65v-35l-235 -445v-220h-70v220l-235 445v35h65zM155 850h70v-100h-70v100zM355 850h70v-100h-70v100z" />
    <glyph glyph-name="Ygrave" unicode="&#x1ef2;" horiz-adv-x="580" 
d="M85 700l202 -395h6l202 395h65v-35l-235 -445v-220h-70v220l-235 445v35h65zM152 900h85l90 -160h-60z" />
    <glyph glyph-name="Zacute" unicode="&#x179;" horiz-adv-x="550" 
d="M520 55v-55h-490v50l390 590v5h-370l-20 20v35h480v-50l-390 -590v-5h400zM307 940h85l-115 -160h-60z" />
    <glyph glyph-name="Zcaron" unicode="&#x17d;" horiz-adv-x="550" 
d="M520 55v-55h-490v50l390 590v5h-370l-20 20v35h480v-50l-390 -590v-5h400zM100 920h65l100 -105l101 105h64l-135 -150h-60z" />
    <glyph glyph-name="Zdotaccent" unicode="&#x17b;" horiz-adv-x="550" 
d="M520 55v-55h-490v50l390 590v5h-370l-20 20v35h480v-50l-390 -590v-5h400zM240 870h70v-100h-70v100z" />
    <glyph glyph-name="aacute" unicode="&#xe1;" horiz-adv-x="570" 
d="M105 475v55h235c96 0 150 -55 150 -135v-395h-45l-10 70h-5c-6 -15 -15 -28 -26 -40c-19 -20 -49 -40 -94 -40h-105c-96 0 -150 55 -150 135v40c0 80 54 135 150 135h215v95c0 45 -35 80 -80 80h-235zM420 245h-215c-45 0 -80 -35 -80 -80v-40c0 -45 35 -80 80 -80h105
c40 0 66 23 85 47c10 14 18 30 25 48v105zM327 760h85l-115 -160h-60z" />
    <glyph glyph-name="abreve" unicode="&#x103;" horiz-adv-x="570" 
d="M105 475v55h235c96 0 150 -55 150 -135v-395h-45l-10 70h-5c-6 -15 -15 -28 -26 -40c-19 -20 -49 -40 -94 -40h-105c-96 0 -150 55 -150 135v40c0 80 54 135 150 135h215v95c0 45 -35 80 -80 80h-235zM420 245h-215c-45 0 -80 -35 -80 -80v-40c0 -45 35 -80 80 -80h105
c40 0 66 23 85 47c10 14 18 30 25 48v105zM325 600h-80c-65 0 -105 39 -105 95v35h60v-35c0 -25 20 -45 45 -45h80c25 0 45 20 45 45v35h60v-35c0 -56 -40 -95 -105 -95z" />
    <glyph glyph-name="acircumflex" unicode="&#xe2;" horiz-adv-x="570" 
d="M105 475v55h235c96 0 150 -55 150 -135v-395h-45l-10 70h-5c-6 -15 -15 -28 -26 -40c-19 -20 -49 -40 -94 -40h-105c-96 0 -150 55 -150 135v40c0 80 54 135 150 135h215v95c0 45 -35 80 -80 80h-235zM420 245h-215c-45 0 -80 -35 -80 -80v-40c0 -45 35 -80 80 -80h105
c40 0 66 23 85 47c10 14 18 30 25 48v105zM185 600h-65l135 150h60l135 -150h-65l-100 105z" />
    <glyph glyph-name="adieresis" unicode="&#xe4;" horiz-adv-x="570" 
d="M105 475v55h235c96 0 150 -55 150 -135v-395h-45l-10 70h-5c-6 -15 -15 -28 -26 -40c-19 -20 -49 -40 -94 -40h-105c-96 0 -150 55 -150 135v40c0 80 54 135 150 135h215v95c0 45 -35 80 -80 80h-235zM420 245h-215c-45 0 -80 -35 -80 -80v-40c0 -45 35 -80 80 -80h105
c40 0 66 23 85 47c10 14 18 30 25 48v105zM150 700h70v-100h-70v100zM350 700h70v-100h-70v100z" />
    <glyph glyph-name="agrave" unicode="&#xe0;" horiz-adv-x="570" 
d="M105 475v55h235c96 0 150 -55 150 -135v-395h-45l-10 70h-5c-6 -15 -15 -28 -26 -40c-19 -20 -49 -40 -94 -40h-105c-96 0 -150 55 -150 135v40c0 80 54 135 150 135h215v95c0 45 -35 80 -80 80h-235zM420 245h-215c-45 0 -80 -35 -80 -80v-40c0 -45 35 -80 80 -80h105
c40 0 66 23 85 47c10 14 18 30 25 48v105zM167 760h85l90 -160h-60z" />
    <glyph glyph-name="amacron" unicode="&#x101;" horiz-adv-x="570" 
d="M105 475v55h235c96 0 150 -55 150 -135v-395h-45l-10 70h-5c-6 -15 -15 -28 -26 -40c-19 -20 -49 -40 -94 -40h-105c-96 0 -150 55 -150 135v40c0 80 54 135 150 135h215v95c0 45 -35 80 -80 80h-235zM420 245h-215c-45 0 -80 -35 -80 -80v-40c0 -45 35 -80 80 -80h105
c40 0 66 23 85 47c10 14 18 30 25 48v105zM430 681v-55h-290v55h290z" />
    <glyph glyph-name="aogonek" unicode="&#x105;" horiz-adv-x="570" 
d="M105 475v55h235c96 0 150 -55 150 -135v-410c-18 -6 -34 -14 -48 -23c-24 -16 -47 -40 -47 -72c0 -25 20 -45 45 -45h80v-45h-80c-71 0 -105 34 -105 90c0 40 25 66 50 85c15 10 31 18 50 25h10l-10 70h-5c-6 -15 -15 -28 -26 -40c-19 -20 -49 -40 -94 -40h-105
c-96 0 -150 55 -150 135v40c0 80 54 135 150 135h215v95c0 45 -35 80 -80 80h-235zM420 245h-215c-45 0 -80 -35 -80 -80v-40c0 -45 35 -80 80 -80h105c40 0 66 23 85 47c10 14 18 30 25 48v105z" />
    <glyph glyph-name="aring" unicode="&#xe5;" horiz-adv-x="570" 
d="M105 475v55h235c96 0 150 -55 150 -135v-395h-45l-10 70h-5c-6 -15 -15 -28 -26 -40c-19 -20 -49 -40 -94 -40h-105c-96 0 -150 55 -150 135v40c0 80 54 135 150 135h215v95c0 45 -35 80 -80 80h-235zM420 245h-215c-45 0 -80 -35 -80 -80v-40c0 -45 35 -80 80 -80h105
c40 0 66 23 85 47c10 14 18 30 25 48v105zM307 595h-45c-51 0 -85 35 -85 75v45c0 40 34 75 85 75h45c51 0 85 -35 85 -75v-45c0 -40 -34 -75 -85 -75zM302 750h-35c-21 0 -35 -15 -35 -35v-45c0 -20 14 -35 35 -35h35c21 0 35 15 35 35v45c0 20 -14 35 -35 35z" />
    <glyph glyph-name="atilde" unicode="&#xe3;" horiz-adv-x="570" 
d="M105 475v55h235c96 0 150 -55 150 -135v-395h-45l-10 70h-5c-6 -15 -15 -28 -26 -40c-19 -20 -49 -40 -94 -40h-105c-96 0 -150 55 -150 135v40c0 80 54 135 150 135h215v95c0 45 -35 80 -80 80h-235zM420 245h-215c-45 0 -80 -35 -80 -80v-40c0 -45 35 -80 80 -80h105
c40 0 66 23 85 47c10 14 18 30 25 48v105zM367 735h60v-75c0 -35 -25 -60 -60 -60h-20c-13 0 -25 5 -34 12c-5 3 -11 8 -16 13l-45 40c-3 2 -6 4 -9 7c-7 4 -14 8 -21 8c-13 0 -20 -8 -20 -25v-50h-60v75c0 35 25 60 60 60h20c12 0 25 -6 34 -13c5 -3 11 -7 16 -12l45 -40
l9 -8c7 -5 14 -7 21 -7c13 0 20 8 20 25v50z" />
    <glyph glyph-name="ae" unicode="&#xe6;" horiz-adv-x="915" 
d="M845 235h-355v-100c0 -45 35 -80 80 -80h255v-55h-255c-45 0 -76 20 -96 40c-12 12 -22 25 -29 40c-8 -17 -18 -32 -30 -45c-21 -23 -54 -45 -105 -45h-105c-96 0 -150 55 -150 135v40c0 80 54 135 150 135h215v105c0 35 -36 70 -80 70h-235v55h235c37 0 64 -15 83 -30
c11 -9 20 -19 27 -30c7 13 17 24 28 35c19 17 49 35 92 35h125c96 0 150 -55 150 -135v-170zM420 245h-215c-45 0 -80 -35 -80 -80v-40c0 -45 35 -80 80 -80h105c40 0 66 23 85 47c10 14 18 30 25 48v105zM490 405v-115h285v115c0 45 -35 80 -80 80h-125
c-45 0 -80 -35 -80 -80z" />
    <glyph glyph-name="aeacute" unicode="&#x1fd;" horiz-adv-x="915" 
d="M845 235h-355v-100c0 -45 35 -80 80 -80h255v-55h-255c-45 0 -76 20 -96 40c-12 12 -22 25 -29 40c-8 -17 -18 -32 -30 -45c-21 -23 -54 -45 -105 -45h-105c-96 0 -150 55 -150 135v40c0 80 54 135 150 135h215v105c0 35 -36 70 -80 70h-235v55h235c37 0 64 -15 83 -30
c11 -9 20 -19 27 -30c7 13 17 24 28 35c19 17 49 35 92 35h125c96 0 150 -55 150 -135v-170zM420 245h-215c-45 0 -80 -35 -80 -80v-40c0 -45 35 -80 80 -80h105c40 0 66 23 85 47c10 14 18 30 25 48v105zM490 405v-115h285v115c0 45 -35 80 -80 80h-125
c-45 0 -80 -35 -80 -80zM507 760h85l-115 -160h-60z" />
    <glyph glyph-name="cacute" unicode="&#x107;" horiz-adv-x="505" 
d="M470 0h-250c-96 0 -150 55 -150 135v260c0 80 54 135 150 135h250v-35l-20 -20h-230c-45 0 -80 -35 -80 -80v-260c0 -45 35 -80 80 -80h250v-55zM325 760h85l-115 -160h-60z" />
    <glyph glyph-name="ccaron" unicode="&#x10d;" horiz-adv-x="505" 
d="M470 0h-250c-96 0 -150 55 -150 135v260c0 80 54 135 150 135h250v-35l-20 -20h-230c-45 0 -80 -35 -80 -80v-260c0 -45 35 -80 80 -80h250v-55zM117 740h65l100 -105l101 105h64l-135 -150h-60z" />
    <glyph glyph-name="ccedilla" unicode="&#xe7;" horiz-adv-x="505" 
d="M470 0h-188v-40h35c51 0 85 -35 85 -80v-20c0 -45 -34 -80 -85 -80h-115v45h105c20 0 35 15 35 35v20c0 20 -15 35 -35 35h-75v85h-12c-96 0 -150 55 -150 135v260c0 80 54 135 150 135h250v-35l-20 -20h-230c-45 0 -80 -35 -80 -80v-260c0 -45 35 -80 80 -80h250v-55z
" />
    <glyph glyph-name="ccircumflex" unicode="&#x109;" horiz-adv-x="505" 
d="M470 0h-250c-96 0 -150 55 -150 135v260c0 80 54 135 150 135h250v-35l-20 -20h-230c-45 0 -80 -35 -80 -80v-260c0 -45 35 -80 80 -80h250v-55zM172 600h-65l135 150h60l135 -150h-65l-100 105z" />
    <glyph glyph-name="cdotaccent" unicode="&#x10b;" horiz-adv-x="505" 
d="M470 0h-250c-96 0 -150 55 -150 135v260c0 80 54 135 150 135h250v-35l-20 -20h-230c-45 0 -80 -35 -80 -80v-260c0 -45 35 -80 80 -80h250v-55zM250 705h70v-100h-70v100z" />
    <glyph glyph-name="dcaron" unicode="&#x10f;" horiz-adv-x="705" 
d="M505 0h-45l-10 70h-5c-6 -15 -15 -28 -26 -40c-19 -20 -49 -40 -94 -40h-105c-96 0 -150 55 -150 135v270c0 80 54 135 150 135h215v170h70v-700zM435 140v335h-215c-45 0 -80 -35 -80 -80v-270c0 -45 35 -80 80 -80h105c40 0 66 23 85 47c10 14 18 30 25 48zM595 700h70
v-70l-35 -140h-35v210z" />
    <glyph glyph-name="dcroat" unicode="&#x111;" horiz-adv-x="590" 
d="M505 0h-45l-10 70h-5c-6 -15 -15 -28 -26 -40c-19 -20 -49 -40 -94 -40h-105c-96 0 -150 55 -150 135v190c0 80 54 135 150 135h215v95h-195v55h195v100h70v-100h55v-55h-55v-545zM435 140v255h-215c-45 0 -80 -35 -80 -80v-190c0 -45 35 -80 80 -80h105
c40 0 66 23 85 47c10 14 18 30 25 48z" />
    <glyph glyph-name="eacute" unicode="&#xe9;" horiz-adv-x="565" 
d="M495 235h-355v-100c0 -45 35 -80 80 -80h255v-55h-255c-96 0 -150 55 -150 135v270c0 80 54 135 150 135h125c96 0 150 -55 150 -135v-170zM140 405v-115h285v115c0 45 -35 80 -80 80h-125c-45 0 -80 -35 -80 -80zM325 760h85l-115 -160h-60z" />
    <glyph glyph-name="ebreve" unicode="&#x115;" horiz-adv-x="565" 
d="M495 235h-355v-100c0 -45 35 -80 80 -80h255v-55h-255c-96 0 -150 55 -150 135v270c0 80 54 135 150 135h125c96 0 150 -55 150 -135v-170zM140 405v-115h285v115c0 45 -35 80 -80 80h-125c-45 0 -80 -35 -80 -80zM322 600h-80c-65 0 -105 39 -105 95v35h60v-35
c0 -25 20 -45 45 -45h80c25 0 45 20 45 45v35h60v-35c0 -56 -40 -95 -105 -95z" />
    <glyph glyph-name="ecaron" unicode="&#x11b;" horiz-adv-x="565" 
d="M495 235h-355v-100c0 -45 35 -80 80 -80h255v-55h-255c-96 0 -150 55 -150 135v270c0 80 54 135 150 135h125c96 0 150 -55 150 -135v-170zM140 405v-115h285v115c0 45 -35 80 -80 80h-125c-45 0 -80 -35 -80 -80zM117 740h65l100 -105l101 105h64l-135 -150h-60z" />
    <glyph glyph-name="ecircumflex" unicode="&#xea;" horiz-adv-x="565" 
d="M495 235h-355v-100c0 -45 35 -80 80 -80h255v-55h-255c-96 0 -150 55 -150 135v270c0 80 54 135 150 135h125c96 0 150 -55 150 -135v-170zM140 405v-115h285v115c0 45 -35 80 -80 80h-125c-45 0 -80 -35 -80 -80zM182 600h-65l135 150h60l135 -150h-65l-100 105z" />
    <glyph glyph-name="edieresis" unicode="&#xeb;" horiz-adv-x="565" 
d="M495 235h-355v-100c0 -45 35 -80 80 -80h255v-55h-255c-96 0 -150 55 -150 135v270c0 80 54 135 150 135h125c96 0 150 -55 150 -135v-170zM140 405v-115h285v115c0 45 -35 80 -80 80h-125c-45 0 -80 -35 -80 -80zM147 710h70v-100h-70v100zM347 710h70v-100h-70v100z
" />
    <glyph glyph-name="edotaccent" unicode="&#x117;" horiz-adv-x="565" 
d="M495 235h-355v-100c0 -45 35 -80 80 -80h255v-55h-255c-96 0 -150 55 -150 135v270c0 80 54 135 150 135h125c96 0 150 -55 150 -135v-170zM140 405v-115h285v115c0 45 -35 80 -80 80h-125c-45 0 -80 -35 -80 -80zM247 710h70v-100h-70v100z" />
    <glyph glyph-name="egrave" unicode="&#xe8;" horiz-adv-x="565" 
d="M495 235h-355v-100c0 -45 35 -80 80 -80h255v-55h-255c-96 0 -150 55 -150 135v270c0 80 54 135 150 135h125c96 0 150 -55 150 -135v-170zM140 405v-115h285v115c0 45 -35 80 -80 80h-125c-45 0 -80 -35 -80 -80zM155 760h85l90 -160h-60z" />
    <glyph glyph-name="emacron" unicode="&#x113;" horiz-adv-x="565" 
d="M495 235h-355v-100c0 -45 35 -80 80 -80h255v-55h-255c-96 0 -150 55 -150 135v270c0 80 54 135 150 135h125c96 0 150 -55 150 -135v-170zM140 405v-115h285v115c0 45 -35 80 -80 80h-125c-45 0 -80 -35 -80 -80zM427 681v-55h-290v55h290z" />
    <glyph glyph-name="eogonek" unicode="&#x119;" horiz-adv-x="565" 
d="M495 235h-355v-100c0 -45 35 -80 80 -80h255v-55h-120l5 -1c-19 -9 -35 -19 -50 -30c-25 -19 -50 -47 -50 -79c0 -25 20 -45 45 -45h80v-45h-80c-71 0 -105 34 -105 90c0 76 90 107 99 110h-79c-96 0 -150 55 -150 135v270c0 80 54 135 150 135h125
c96 0 150 -55 150 -135v-170zM140 405v-115h285v115c0 45 -35 80 -80 80h-125c-45 0 -80 -35 -80 -80z" />
    <glyph glyph-name="gbreve" unicode="&#x11f;" horiz-adv-x="575" 
d="M140 405v-70c0 -45 35 -80 80 -80h135c45 0 80 35 80 80v70c0 45 -35 80 -80 80h-135c-45 0 -80 -35 -80 -80zM170 125h220c96 0 150 -55 150 -135v-25c0 -80 -54 -135 -150 -135h-205c-96 0 -150 55 -150 135v25c0 43 20 70 40 87c12 10 25 18 40 23v5c-6 2 -11 5 -15 9
c-8 7 -15 17 -15 36v25c0 20 9 32 20 40c6 4 13 7 20 10v5c-11 5 -20 13 -28 22c-15 16 -27 43 -27 83v70c0 80 54 135 150 135h145l50 80h65v-30l-55 -55v-5c15 -7 28 -16 40 -28c20 -20 40 -50 40 -97v-70c0 -80 -54 -135 -150 -135h-185c-17 0 -25 -8 -25 -25v-25
c0 -17 8 -25 25 -25zM390 70h-205c-45 0 -80 -35 -80 -80v-25c0 -45 35 -80 80 -80h205c45 0 80 35 80 80v25c0 45 -35 80 -80 80zM325 615h-80c-65 0 -105 39 -105 95v35h60v-35c0 -25 20 -45 45 -45h80c25 0 45 20 45 45v35h60v-35c0 -56 -40 -95 -105 -95z" />
    <glyph glyph-name="gcircumflex" unicode="&#x11d;" horiz-adv-x="575" 
d="M140 405v-70c0 -45 35 -80 80 -80h135c45 0 80 35 80 80v70c0 45 -35 80 -80 80h-135c-45 0 -80 -35 -80 -80zM170 125h220c96 0 150 -55 150 -135v-25c0 -80 -54 -135 -150 -135h-205c-96 0 -150 55 -150 135v25c0 43 20 70 40 87c12 10 25 18 40 23v5c-6 2 -11 5 -15 9
c-8 7 -15 17 -15 36v25c0 20 9 32 20 40c6 4 13 7 20 10v5c-11 5 -20 13 -28 22c-15 16 -27 43 -27 83v70c0 80 54 135 150 135h145l50 80h65v-30l-55 -55v-5c15 -7 28 -16 40 -28c20 -20 40 -50 40 -97v-70c0 -80 -54 -135 -150 -135h-185c-17 0 -25 -8 -25 -25v-25
c0 -17 8 -25 25 -25zM390 70h-205c-45 0 -80 -35 -80 -80v-25c0 -45 35 -80 80 -80h205c45 0 80 35 80 80v25c0 45 -35 80 -80 80zM187 620h-65l135 150h60l135 -150h-65l-100 105z" />
    <glyph glyph-name="gcommaaccent" unicode="&#x123;" horiz-adv-x="575" 
d="M140 405v-70c0 -45 35 -80 80 -80h135c45 0 80 35 80 80v70c0 45 -35 80 -80 80h-135c-45 0 -80 -35 -80 -80zM170 125h220c96 0 150 -55 150 -135v-25c0 -80 -54 -135 -150 -135h-205c-96 0 -150 55 -150 135v25c0 43 20 70 40 87c12 10 25 18 40 23v5c-6 2 -11 5 -15 9
c-8 7 -15 17 -15 36v25c0 20 9 32 20 40c6 4 13 7 20 10v5c-11 5 -20 13 -28 22c-15 16 -27 43 -27 83v70c0 80 54 135 150 135h145l50 80h65v-30l-55 -55v-5c15 -7 28 -16 40 -28c20 -20 40 -50 40 -97v-70c0 -80 -54 -135 -150 -135h-185c-17 0 -25 -8 -25 -25v-25
c0 -17 8 -25 25 -25zM390 70h-205c-45 0 -80 -35 -80 -80v-25c0 -45 35 -80 80 -80h205c45 0 80 35 80 80v25c0 45 -35 80 -80 80zM317 610h-65v70l30 120h35v-190z" />
    <glyph glyph-name="gdotaccent" unicode="&#x121;" horiz-adv-x="575" 
d="M140 405v-70c0 -45 35 -80 80 -80h135c45 0 80 35 80 80v70c0 45 -35 80 -80 80h-135c-45 0 -80 -35 -80 -80zM170 125h220c96 0 150 -55 150 -135v-25c0 -80 -54 -135 -150 -135h-205c-96 0 -150 55 -150 135v25c0 43 20 70 40 87c12 10 25 18 40 23v5c-6 2 -11 5 -15 9
c-8 7 -15 17 -15 36v25c0 20 9 32 20 40c6 4 13 7 20 10v5c-11 5 -20 13 -28 22c-15 16 -27 43 -27 83v70c0 80 54 135 150 135h145l50 80h65v-30l-55 -55v-5c15 -7 28 -16 40 -28c20 -20 40 -50 40 -97v-70c0 -80 -54 -135 -150 -135h-185c-17 0 -25 -8 -25 -25v-25
c0 -17 8 -25 25 -25zM390 70h-205c-45 0 -80 -35 -80 -80v-25c0 -45 35 -80 80 -80h205c45 0 80 35 80 80v25c0 45 -35 80 -80 80zM250 720h70v-100h-70v100z" />
    <glyph glyph-name="hcircumflex" unicode="&#x125;" 
d="M155 475v-475h-70v700h70v-170h215c96 0 150 -55 150 -135v-395h-70v395c0 45 -35 80 -80 80h-215zM21 750h-65l135 150h60l135 -150h-65l-100 105z" />
    <glyph glyph-name="hbar" unicode="&#x127;" horiz-adv-x="610" 
d="M170 375v-375h-70v530h-90v55h90l35 120h35v-120h180v-55h-180v-100h215c96 0 150 -55 150 -135v-295h-70v295c0 45 -35 80 -80 80h-215z" />
    <glyph glyph-name="dotlessi" unicode="&#x131;" horiz-adv-x="230" 
d="M80 530h70v-530h-70v530z" />
    <glyph glyph-name="iacute" unicode="&#xed;" horiz-adv-x="230" 
d="M80 530h70v-530h-70v530zM168 760h85l-115 -160h-60z" />
    <glyph glyph-name="ibreve" unicode="&#x12d;" horiz-adv-x="230" 
d="M80 530h70v-530h-70v530zM156 600h-80c-65 0 -105 39 -105 95v35h60v-35c0 -25 20 -45 45 -45h80c25 0 45 20 45 45v35h60v-35c0 -56 -40 -95 -105 -95z" />
    <glyph glyph-name="icircumflex" unicode="&#xee;" horiz-adv-x="230" 
d="M80 530h70v-530h-70v530zM16 600h-65l135 150h60l135 -150h-65l-100 105z" />
    <glyph glyph-name="idieresis" unicode="&#xef;" horiz-adv-x="230" 
d="M80 530h70v-530h-70v530zM-19 700h70v-100h-70v100zM181 700h70v-100h-70v100z" />
    <glyph glyph-name="igrave" unicode="&#xec;" horiz-adv-x="230" 
d="M80 530h70v-530h-70v530zM-21 760h85l90 -160h-60z" />
    <glyph glyph-name="imacron" unicode="&#x12b;" horiz-adv-x="230" 
d="M80 530h70v-530h-70v530zM261 681v-55h-290v55h290z" />
    <glyph glyph-name="iogonek" unicode="&#x12f;" horiz-adv-x="230" 
d="M80 530h70v-545c-18 -6 -34 -14 -48 -23c-24 -16 -47 -40 -47 -72c0 -25 20 -45 45 -45h80v-45h-80c-71 0 -105 34 -105 90c0 76 90 107 99 110h-14v530zM80 710h70v-100h-70v100z" />
    <glyph glyph-name="itilde" unicode="&#x129;" horiz-adv-x="230" 
d="M80 530h70v-530h-70v530zM199 725h60v-75c0 -35 -25 -60 -60 -60h-20c-13 0 -25 5 -34 12c-5 3 -11 8 -16 13l-45 40c-3 2 -6 4 -9 7c-7 4 -14 8 -21 8c-13 0 -20 -8 -20 -25v-50h-60v75c0 35 25 60 60 60h20c12 0 25 -6 34 -13c5 -3 11 -7 16 -12l45 -40l9 -8
c7 -5 14 -7 21 -7c13 0 20 8 20 25v50z" />
    <glyph glyph-name="ij" unicode="&#x133;" horiz-adv-x="480" 
d="M80 530h70v-530h-70v530zM80 710h70v-100h-70v100zM250 -170h-95v55h95c45 0 80 35 80 80v565h70v-565c0 -80 -54 -135 -150 -135zM330 710h70v-100h-70v100z" />
    <glyph glyph-name="jcircumflex" unicode="&#x135;" horiz-adv-x="250" 
d="M20 -170h-95v55h95c45 0 80 35 80 80v565h70v-565c0 -80 -54 -135 -150 -135zM25 580h-65l135 150h60l135 -150h-65l-100 105z" />
    <glyph glyph-name="kcommaaccent" unicode="&#x137;" horiz-adv-x="555" 
d="M305 300l135 230h65v-35l-145 -220l160 -240v-35h-65l-150 245h-150v-245h-70v700h70v-400h150zM255 -30h65v-70l-30 -120h-35v190z" />
    <glyph glyph-name="lacute" unicode="&#x13a;" horiz-adv-x="290" 
d="M260 -10h-25c-96 0 -150 55 -150 135v575h70v-575c0 -45 35 -80 80 -80h25v-55zM177 940h85l-115 -160h-60z" />
    <glyph glyph-name="lcaron" unicode="&#x13e;" horiz-adv-x="345" 
d="M260 -10h-25c-96 0 -150 55 -150 135v575h70v-575c0 -45 35 -80 80 -80h25v-55zM240 700h70v-70l-35 -140h-35v210z" />
    <glyph glyph-name="lcommaaccent" unicode="&#x13c;" horiz-adv-x="290" 
d="M260 -10h-25c-96 0 -150 55 -150 135v575h70v-575c0 -45 35 -80 80 -80h25v-55zM142 -59h65v-70l-30 -120h-35v190z" />
    <glyph glyph-name="ldot" unicode="&#x140;" horiz-adv-x="360" 
d="M260 -10h-25c-96 0 -150 55 -150 135v575h70v-575c0 -45 35 -80 80 -80h25v-55zM255 415h70v-105h-70v105z" />
    <glyph glyph-name="lslash" unicode="&#x142;" horiz-adv-x="290" 
d="M250 480v-75l-95 -65v-215c0 -45 35 -80 80 -80h25v-55h-25c-96 0 -150 55 -150 135v167l-55 -37v75l55 37v333h70v-285z" />
    <glyph glyph-name="nacute" unicode="&#x144;" 
d="M150 390v-390h-70v530h45l10 -70h5c6 15 15 28 26 40c19 20 49 40 94 40h110c96 0 150 -55 150 -135v-405h-70v405c0 45 -35 80 -80 80h-110c-40 0 -68 -24 -85 -48c-11 -14 -19 -30 -25 -47zM352 760h85l-115 -160h-60z" />
    <glyph glyph-name="ncaron" unicode="&#x148;" 
d="M150 390v-390h-70v530h45l10 -70h5c6 15 15 28 26 40c19 20 49 40 94 40h110c96 0 150 -55 150 -135v-405h-70v405c0 45 -35 80 -80 80h-110c-40 0 -68 -24 -85 -48c-11 -14 -19 -30 -25 -47zM135 740h65l100 -105l101 105h64l-135 -150h-60z" />
    <glyph glyph-name="ncommaaccent" unicode="&#x146;" 
d="M150 390v-390h-70v530h45l10 -70h5c6 15 15 28 26 40c19 20 49 40 94 40h110c96 0 150 -55 150 -135v-405h-70v405c0 45 -35 80 -80 80h-110c-40 0 -68 -24 -85 -48c-11 -14 -19 -30 -25 -47zM267 -20h65v-70l-30 -120h-35v190z" />
    <glyph glyph-name="ntilde" unicode="&#xf1;" 
d="M150 390v-390h-70v530h45l10 -70h5c6 15 15 28 26 40c19 20 49 40 94 40h110c96 0 150 -55 150 -135v-405h-70v405c0 45 -35 80 -80 80h-110c-40 0 -68 -24 -85 -48c-11 -14 -19 -30 -25 -47zM382 745h60v-75c0 -35 -25 -60 -60 -60h-20c-13 0 -25 5 -34 12
c-5 3 -11 8 -16 13l-45 40c-3 2 -6 4 -9 7c-7 4 -14 8 -21 8c-13 0 -20 -8 -20 -25v-50h-60v75c0 35 25 60 60 60h20c12 0 25 -6 34 -13c5 -3 11 -7 16 -12l45 -40l9 -8c7 -5 14 -7 21 -7c13 0 20 8 20 25v50z" />
    <glyph glyph-name="oacute" unicode="&#xf3;" horiz-adv-x="590" 
d="M370 -10h-150c-96 0 -150 55 -150 135v280c0 80 54 135 150 135h150c96 0 150 -55 150 -135v-280c0 -80 -54 -135 -150 -135zM140 405v-280c0 -45 35 -80 80 -80h150c45 0 80 35 80 80v280c0 45 -35 80 -80 80h-150c-45 0 -80 -35 -80 -80zM347 760h85l-115 -160h-60z
" />
    <glyph glyph-name="obreve" unicode="&#x14f;" horiz-adv-x="590" 
d="M370 -10h-150c-96 0 -150 55 -150 135v280c0 80 54 135 150 135h150c96 0 150 -55 150 -135v-280c0 -80 -54 -135 -150 -135zM140 405v-280c0 -45 35 -80 80 -80h150c45 0 80 35 80 80v280c0 45 -35 80 -80 80h-150c-45 0 -80 -35 -80 -80zM335 610h-80
c-65 0 -105 39 -105 95v35h60v-35c0 -25 20 -45 45 -45h80c25 0 45 20 45 45v35h60v-35c0 -56 -40 -95 -105 -95z" />
    <glyph glyph-name="ocircumflex" unicode="&#xf4;" horiz-adv-x="590" 
d="M370 -10h-150c-96 0 -150 55 -150 135v280c0 80 54 135 150 135h150c96 0 150 -55 150 -135v-280c0 -80 -54 -135 -150 -135zM140 405v-280c0 -45 35 -80 80 -80h150c45 0 80 35 80 80v280c0 45 -35 80 -80 80h-150c-45 0 -80 -35 -80 -80zM195 600h-65l135 150h60
l135 -150h-65l-100 105z" />
    <glyph glyph-name="odieresis" unicode="&#xf6;" horiz-adv-x="590" 
d="M370 -10h-150c-96 0 -150 55 -150 135v280c0 80 54 135 150 135h150c96 0 150 -55 150 -135v-280c0 -80 -54 -135 -150 -135zM140 405v-280c0 -45 35 -80 80 -80h150c45 0 80 35 80 80v280c0 45 -35 80 -80 80h-150c-45 0 -80 -35 -80 -80zM160 710h70v-100h-70v100z
M360 710h70v-100h-70v100z" />
    <glyph glyph-name="ograve" unicode="&#xf2;" horiz-adv-x="590" 
d="M370 -10h-150c-96 0 -150 55 -150 135v280c0 80 54 135 150 135h150c96 0 150 -55 150 -135v-280c0 -80 -54 -135 -150 -135zM140 405v-280c0 -45 35 -80 80 -80h150c45 0 80 35 80 80v280c0 45 -35 80 -80 80h-150c-45 0 -80 -35 -80 -80zM167 760h85l90 -160h-60z" />
    <glyph glyph-name="ohungarumlaut" unicode="&#x151;" horiz-adv-x="590" 
d="M370 -10h-150c-96 0 -150 55 -150 135v280c0 80 54 135 150 135h150c96 0 150 -55 150 -135v-280c0 -80 -54 -135 -150 -135zM140 405v-280c0 -45 35 -80 80 -80h150c45 0 80 35 80 80v280c0 45 -35 80 -80 80h-150c-45 0 -80 -35 -80 -80zM262 760h80l-115 -160h-55z
M417 760h80l-115 -160h-55z" />
    <glyph glyph-name="omacron" unicode="&#x14d;" horiz-adv-x="590" 
d="M370 -10h-150c-96 0 -150 55 -150 135v280c0 80 54 135 150 135h150c96 0 150 -55 150 -135v-280c0 -80 -54 -135 -150 -135zM140 405v-280c0 -45 35 -80 80 -80h150c45 0 80 35 80 80v280c0 45 -35 80 -80 80h-150c-45 0 -80 -35 -80 -80zM440 681v-55h-290v55h290z" />
    <glyph glyph-name="oslash" unicode="&#xf8;" horiz-adv-x="590" 
d="M140 -50h-55v30l27 45c-28 25 -42 58 -42 100v280c0 80 54 135 150 135h150c19 0 36 -3 51 -7l29 47h55v-30l-28 -45c29 -25 43 -58 43 -100v-280c0 -80 -54 -135 -150 -135h-150c-19 0 -37 3 -52 7zM450 125v280c0 13 -3 26 -10 39l-241 -397c7 -1 13 -2 21 -2h150
c45 0 80 35 80 80zM140 405v-280c0 -15 3 -28 9 -39l241 396c-6 2 -13 3 -20 3h-150c-45 0 -80 -35 -80 -80z" />
    <glyph glyph-name="oslashacute" unicode="&#x1ff;" horiz-adv-x="590" 
d="M140 -50h-55v30l27 45c-28 25 -42 58 -42 100v280c0 80 54 135 150 135h150c19 0 36 -3 51 -7l29 47h55v-30l-28 -45c29 -25 43 -58 43 -100v-280c0 -80 -54 -135 -150 -135h-150c-19 0 -37 3 -52 7zM450 125v280c0 13 -3 26 -10 39l-241 -397c7 -1 13 -2 21 -2h150
c45 0 80 35 80 80zM140 405v-280c0 -15 3 -28 9 -39l241 396c-6 2 -13 3 -20 3h-150c-45 0 -80 -35 -80 -80zM347 760h85l-115 -160h-60z" />
    <glyph glyph-name="otilde" unicode="&#xf5;" horiz-adv-x="590" 
d="M370 -10h-150c-96 0 -150 55 -150 135v280c0 80 54 135 150 135h150c96 0 150 -55 150 -135v-280c0 -80 -54 -135 -150 -135zM140 405v-280c0 -45 35 -80 80 -80h150c45 0 80 35 80 80v280c0 45 -35 80 -80 80h-150c-45 0 -80 -35 -80 -80zM377 745h60v-75
c0 -35 -25 -60 -60 -60h-20c-13 0 -25 5 -34 12c-5 3 -11 8 -16 13l-45 40c-3 2 -6 4 -9 7c-7 4 -14 8 -21 8c-13 0 -20 -8 -20 -25v-50h-60v75c0 35 25 60 60 60h20c12 0 25 -6 34 -13c5 -3 11 -7 16 -12l45 -40l9 -8c7 -5 14 -7 21 -7c13 0 20 8 20 25v50z" />
    <glyph glyph-name="oe" unicode="&#x153;" horiz-adv-x="945" 
d="M875 235h-355v-105c0 -40 36 -75 80 -75h255v-55h-255c-39 0 -64 12 -83 27c-11 8 -20 17 -27 28c-7 -13 -17 -24 -28 -33c-19 -16 -49 -32 -92 -32h-150c-96 0 -150 55 -150 135v280c0 80 54 135 150 135h150c43 0 70 -17 89 -33c11 -9 19 -20 26 -32c7 12 15 23 26 32
c19 16 46 33 89 33h125c96 0 150 -55 150 -135v-170zM140 405v-280c0 -45 35 -80 80 -80h150c45 0 80 34 80 85v275c0 45 -35 80 -80 80h-150c-45 0 -80 -35 -80 -80zM520 405v-115h285v115c0 45 -35 80 -80 80h-125c-45 0 -80 -35 -80 -80z" />
    <glyph glyph-name="racute" unicode="&#x155;" horiz-adv-x="430" 
d="M150 390v-390h-70v530h45l10 -70h5c6 15 15 28 26 40c19 20 49 40 94 40h155v-55h-155c-40 0 -68 -24 -85 -48c-11 -14 -19 -30 -25 -47zM277 760h85l-115 -160h-60z" />
    <glyph glyph-name="rcaron" unicode="&#x159;" horiz-adv-x="430" 
d="M150 390v-390h-70v530h45l10 -70h5c6 15 15 28 26 40c19 20 49 40 94 40h155v-55h-155c-40 0 -68 -24 -85 -48c-11 -14 -19 -30 -25 -47zM70 740h65l100 -105l101 105h64l-135 -150h-60z" />
    <glyph glyph-name="rcommaaccent" unicode="&#x157;" horiz-adv-x="430" 
d="M150 390v-390h-70v530h45l10 -70h5c6 15 15 28 26 40c19 20 49 40 94 40h155v-55h-155c-40 0 -68 -24 -85 -48c-11 -14 -19 -30 -25 -47zM82 -69h65v-70l-30 -120h-35v190z" />
    <glyph glyph-name="sacute" unicode="&#x15b;" horiz-adv-x="515" 
d="M345 225l-195 30c-65 11 -105 49 -105 120v20c0 80 54 135 150 135h250v-35l-20 -20h-230c-45 0 -80 -35 -80 -80v-20c0 -40 20 -60 55 -65l195 -30c65 -11 105 -49 105 -120v-25c0 -80 -54 -135 -150 -135h-275v55h275c45 0 80 35 80 80v25c0 40 -20 60 -55 65zM300 760
h85l-115 -160h-60z" />
    <glyph glyph-name="scaron" unicode="&#x161;" horiz-adv-x="515" 
d="M345 225l-195 30c-65 11 -105 49 -105 120v20c0 80 54 135 150 135h250v-35l-20 -20h-230c-45 0 -80 -35 -80 -80v-20c0 -40 20 -60 55 -65l195 -30c65 -11 105 -49 105 -120v-25c0 -80 -54 -135 -150 -135h-275v55h275c45 0 80 35 80 80v25c0 40 -20 60 -55 65zM92 740
h65l100 -105l101 105h64l-135 -150h-60z" />
    <glyph glyph-name="scedilla" unicode="&#x15f;" horiz-adv-x="515" 
d="M345 225l-195 30c-65 11 -105 49 -105 120v20c0 80 54 135 150 135h250v-35l-20 -20h-230c-45 0 -80 -35 -80 -80v-20c0 -40 20 -60 55 -65l195 -30c65 -11 105 -49 105 -120v-25c0 -80 -54 -135 -150 -135h-63v-40h35c51 0 85 -35 85 -80v-20c0 -45 -34 -80 -85 -80
h-115v45h105c20 0 35 15 35 35v20c0 20 -15 35 -35 35h-75v85h-162v55h275c45 0 80 35 80 80v25c0 40 -20 60 -55 65z" />
    <glyph glyph-name="scircumflex" unicode="&#x15d;" horiz-adv-x="515" 
d="M345 225l-195 30c-65 11 -105 49 -105 120v20c0 80 54 135 150 135h250v-35l-20 -20h-230c-45 0 -80 -35 -80 -80v-20c0 -40 20 -60 55 -65l195 -30c65 -11 105 -49 105 -120v-25c0 -80 -54 -135 -150 -135h-275v55h275c45 0 80 35 80 80v25c0 40 -20 60 -55 65zM157 600
h-65l135 150h60l135 -150h-65l-100 105z" />
    <glyph glyph-name="scommaaccent" unicode="&#x219;" horiz-adv-x="515" 
d="M345 225l-195 30c-65 11 -105 49 -105 120v20c0 80 54 135 150 135h250v-35l-20 -20h-230c-45 0 -80 -35 -80 -80v-20c0 -40 20 -60 55 -65l195 -30c65 -11 105 -49 105 -120v-25c0 -80 -54 -135 -150 -135h-275v55h275c45 0 80 35 80 80v25c0 40 -20 60 -55 65zM215 -59
h65v-70l-30 -120h-35v190z" />
    <glyph glyph-name="tbar" unicode="&#x167;" horiz-adv-x="425" 
d="M105 125v200h-90v55h90v95h-90v55h90l35 140h35v-140h160v-55h-160v-95h150v-55h-150v-200c0 -45 35 -80 80 -80h155v-55h-155c-96 0 -150 55 -150 135z" />
    <glyph glyph-name="tcaron" unicode="&#x165;" horiz-adv-x="495" 
d="M105 125v350h-90v55h90l35 140h35v-140h160v-55h-160v-350c0 -45 35 -80 80 -80h155v-55h-155c-96 0 -150 55 -150 135zM395 671h70v-70l-35 -140h-35v210z" />
    <glyph glyph-name="tcommaaccent" unicode="&#x163;" horiz-adv-x="425" 
d="M105 125v350h-90v55h90l35 140h35v-140h160v-55h-160v-350c0 -45 35 -80 80 -80h155v-55h-155c-96 0 -150 55 -150 135zM210 -69h65v-70l-30 -120h-35v190z" />
    <glyph glyph-name="ubreve" unicode="&#x16d;" 
d="M450 140v390h70v-530h-45l-10 70h-5c-6 -15 -15 -28 -26 -40c-19 -20 -49 -40 -94 -40h-110c-96 0 -150 55 -150 135v405h70v-405c0 -45 35 -80 80 -80h110c40 0 66 23 85 47c10 14 18 30 25 48zM340 590h-80c-65 0 -105 39 -105 95v35h60v-35c0 -25 20 -45 45 -45h80
c25 0 45 20 45 45v35h60v-35c0 -56 -40 -95 -105 -95z" />
    <glyph glyph-name="uacute" unicode="&#xfa;" 
d="M450 140v390h70v-530h-45l-10 70h-5c-6 -15 -15 -28 -26 -40c-19 -20 -49 -40 -94 -40h-110c-96 0 -150 55 -150 135v405h70v-405c0 -45 35 -80 80 -80h110c40 0 66 23 85 47c10 14 18 30 25 48zM342 740h85l-115 -160h-60z" />
    <glyph glyph-name="ucircumflex" unicode="&#xfb;" 
d="M450 140v390h70v-530h-45l-10 70h-5c-6 -15 -15 -28 -26 -40c-19 -20 -49 -40 -94 -40h-110c-96 0 -150 55 -150 135v405h70v-405c0 -45 35 -80 80 -80h110c40 0 66 23 85 47c10 14 18 30 25 48zM210 600h-65l135 150h60l135 -150h-65l-100 105z" />
    <glyph glyph-name="udieresis" unicode="&#xfc;" 
d="M450 140v390h70v-530h-45l-10 70h-5c-6 -15 -15 -28 -26 -40c-19 -20 -49 -40 -94 -40h-110c-96 0 -150 55 -150 135v405h70v-405c0 -45 35 -80 80 -80h110c40 0 66 23 85 47c10 14 18 30 25 48zM165 700h70v-100h-70v100zM365 700h70v-100h-70v100z" />
    <glyph glyph-name="uhungarumlaut" unicode="&#x171;" 
d="M450 140v390h70v-530h-45l-10 70h-5c-6 -15 -15 -28 -26 -40c-19 -20 -49 -40 -94 -40h-110c-96 0 -150 55 -150 135v405h70v-405c0 -45 35 -80 80 -80h110c40 0 66 23 85 47c10 14 18 30 25 48zM277 760h80l-115 -160h-55zM432 760h80l-115 -160h-55z" />
    <glyph glyph-name="ugrave" unicode="&#xf9;" 
d="M450 140v390h70v-530h-45l-10 70h-5c-6 -15 -15 -28 -26 -40c-19 -20 -49 -40 -94 -40h-110c-96 0 -150 55 -150 135v405h70v-405c0 -45 35 -80 80 -80h110c40 0 66 23 85 47c10 14 18 30 25 48zM182 740h85l90 -160h-60z" />
    <glyph glyph-name="umacron" unicode="&#x16b;" 
d="M450 140v390h70v-530h-45l-10 70h-5c-6 -15 -15 -28 -26 -40c-19 -20 -49 -40 -94 -40h-110c-96 0 -150 55 -150 135v405h70v-405c0 -45 35 -80 80 -80h110c40 0 66 23 85 47c10 14 18 30 25 48zM445 681v-55h-290v55h290z" />
    <glyph glyph-name="uogonek" unicode="&#x173;" 
d="M450 140v390h70v-545c-18 -6 -34 -14 -48 -23c-24 -16 -47 -40 -47 -72c0 -25 20 -45 45 -45h80v-45h-80c-71 0 -105 34 -105 90c0 40 25 66 50 85c15 10 31 18 50 25h10l-10 70h-5c-6 -15 -15 -28 -26 -40c-19 -20 -49 -40 -94 -40h-110c-96 0 -150 55 -150 135v405h70
v-405c0 -45 35 -80 80 -80h110c40 0 66 23 85 47c10 14 18 30 25 48z" />
    <glyph glyph-name="uring" unicode="&#x16f;" 
d="M450 140v390h70v-530h-45l-10 70h-5c-6 -15 -15 -28 -26 -40c-19 -20 -49 -40 -94 -40h-110c-96 0 -150 55 -150 135v405h70v-405c0 -45 35 -80 80 -80h110c40 0 66 23 85 47c10 14 18 30 25 48zM322 565h-45c-51 0 -85 35 -85 75v45c0 40 34 75 85 75h45
c51 0 85 -35 85 -75v-45c0 -40 -34 -75 -85 -75zM317 720h-35c-21 0 -35 -15 -35 -35v-45c0 -20 14 -35 35 -35h35c21 0 35 15 35 35v45c0 20 -14 35 -35 35z" />
    <glyph glyph-name="utilde" unicode="&#x169;" 
d="M450 140v390h70v-530h-45l-10 70h-5c-6 -15 -15 -28 -26 -40c-19 -20 -49 -40 -94 -40h-110c-96 0 -150 55 -150 135v405h70v-405c0 -45 35 -80 80 -80h110c40 0 66 23 85 47c10 14 18 30 25 48zM382 735h60v-75c0 -35 -25 -60 -60 -60h-20c-13 0 -25 5 -34 12
c-5 3 -11 8 -16 13l-45 40c-3 2 -6 4 -9 7c-7 4 -14 8 -21 8c-13 0 -20 -8 -20 -25v-50h-60v75c0 35 25 60 60 60h20c12 0 25 -6 34 -13c5 -3 11 -7 16 -12l45 -40l9 -8c7 -5 14 -7 21 -7c13 0 20 8 20 25v50z" />
    <glyph glyph-name="wacute" unicode="&#x1e83;" horiz-adv-x="795" 
d="M445 450l135 -380h5l105 460h65v-35l-125 -495h-90l-140 385h-5l-140 -385h-90l-125 495v35h65l105 -460h5l135 380h95zM450 710h85l-115 -160h-60z" />
    <glyph glyph-name="wcircumflex" unicode="&#x175;" horiz-adv-x="795" 
d="M445 450l135 -380h5l105 460h65v-35l-125 -495h-90l-140 385h-5l-140 -385h-90l-125 495v35h65l105 -460h5l135 380h95zM297 550h-65l135 150h60l135 -150h-65l-100 105z" />
    <glyph glyph-name="wdieresis" unicode="&#x1e85;" horiz-adv-x="795" 
d="M445 450l135 -380h5l105 460h65v-35l-125 -495h-90l-140 385h-5l-140 -385h-90l-125 495v35h65l105 -460h5l135 380h95zM262 661h70v-100h-70v100zM462 661h70v-100h-70v100z" />
    <glyph glyph-name="wgrave" unicode="&#x1e81;" horiz-adv-x="795" 
d="M445 450l135 -380h5l105 460h65v-35l-125 -495h-90l-140 385h-5l-140 -385h-90l-125 495v35h65l105 -460h5l135 380h95zM260 710h85l90 -160h-60z" />
    <glyph glyph-name="yacute" unicode="&#xfd;" horiz-adv-x="535" 
d="M505 495l-199 -545c-27 -71 -75 -120 -160 -120h-50v55h50c40 0 72 30 85 65l15 40v9l-216 496v35h65l186 -460h5l154 460h65v-35zM310 720h85l-115 -160h-60z" />
    <glyph glyph-name="ycircumflex" unicode="&#x177;" horiz-adv-x="535" 
d="M505 495l-199 -545c-27 -71 -75 -120 -160 -120h-50v55h50c40 0 72 30 85 65l15 40v9l-216 496v35h65l186 -460h5l154 460h65v-35zM177 590h-65l135 150h60l135 -150h-65l-100 105z" />
    <glyph glyph-name="ydieresis" unicode="&#xff;" horiz-adv-x="535" 
d="M505 495l-199 -545c-27 -71 -75 -120 -160 -120h-50v55h50c40 0 72 30 85 65l15 40v9l-216 496v35h65l186 -460h5l154 460h65v-35zM132 691h70v-100h-70v100zM332 691h70v-100h-70v100z" />
    <glyph glyph-name="ygrave" unicode="&#x1ef3;" horiz-adv-x="535" 
d="M505 495l-199 -545c-27 -71 -75 -120 -160 -120h-50v55h50c40 0 72 30 85 65l15 40v9l-216 496v35h65l186 -460h5l154 460h65v-35zM150 720h85l90 -160h-60z" />
    <glyph glyph-name="zacute" unicode="&#x17a;" horiz-adv-x="490" 
d="M460 55v-55h-430v50l330 420v5h-310l-20 20v35h420v-50l-330 -420v-5h340zM297 760h85l-115 -160h-60z" />
    <glyph glyph-name="zcaron" unicode="&#x17e;" horiz-adv-x="490" 
d="M460 55v-55h-430v50l330 420v5h-310l-20 20v35h420v-50l-330 -420v-5h340zM80 750h65l100 -105l101 105h64l-135 -150h-60z" />
    <glyph glyph-name="zdotaccent" unicode="&#x17c;" horiz-adv-x="490" 
d="M460 55v-55h-430v50l330 420v5h-310l-20 20v35h420v-50l-330 -420v-5h340zM210 700h70v-100h-70v100z" />
    <glyph glyph-name="exclamdown" unicode="&#xa1;" horiz-adv-x="260" 
d="M170 -170h-80v180l15 320h50l15 -320v-180zM165 425h-70v105h70v-105z" />
    <glyph glyph-name="questiondown" unicode="&#xbf;" horiz-adv-x="465" 
d="M335 425h-70v105h70v-105zM265 290v40h70v-40c0 -60 -30 -90 -75 -115l-100 -55c-25 -15 -45 -35 -45 -70v-70c0 -56 39 -95 95 -95h255l20 -20v-35h-275c-105 0 -165 59 -165 150v70c0 60 30 90 75 115l100 55c25 15 45 35 45 70z" />
    <glyph glyph-name="divide" unicode="&#xf7;" horiz-adv-x="490" 
d="M450 350v-55h-410v55h410zM210 200h70v-105h-70v105zM210 550h70v-105h-70v105z" />
    <glyph glyph-name="multiply" unicode="&#xd7;" horiz-adv-x="480" 
d="M240 360l150 150l40 -40l-150 -150l150 -150l-40 -40l-150 150l-150 -150l-40 40l150 150l-150 150l40 40z" />
    <glyph glyph-name="germandbls" unicode="&#xdf;" horiz-adv-x="615" 
d="M475 565c0 -79 -110 -116 -110 -175v-20c0 -91 205 -69 205 -210v-25c0 -80 -54 -135 -150 -135h-140v55h140c45 0 80 35 80 80v25c0 96 -205 75 -205 210v20c0 80 110 115 110 175c0 45 -35 80 -80 80h-80c-56 0 -95 -39 -95 -95v-550h-70v550c0 91 60 150 165 150h80
c96 0 150 -55 150 -135z" />
    <glyph glyph-name="Thorn" unicode="&#xde;" horiz-adv-x="630" 
d="M95 700h70v-115h240c105 0 165 -59 165 -150v-180c0 -91 -60 -150 -165 -150h-240v-105h-70v700zM405 530h-240v-370h240c56 0 95 39 95 95v180c0 56 -39 95 -95 95z" />
    <glyph glyph-name="thorn" unicode="&#xfe;" horiz-adv-x="590" 
d="M85 700h70v-170h215c96 0 150 -55 150 -135v-260c0 -80 -54 -135 -150 -135h-215v-170h-70v870zM155 475v-420h215c45 0 80 35 80 80v260c0 45 -35 80 -80 80h-215z" />
    <glyph glyph-name="Eth" unicode="&#xd0;" horiz-adv-x="665" 
d="M95 0v335h-75v55h75v310h325c105 0 165 -59 165 -150v-400c0 -91 -60 -150 -165 -150h-325zM320 390v-55h-155v-280h255c56 0 95 39 95 95v400c0 56 -39 95 -95 95h-255v-255h155z" />
    <glyph glyph-name="eth" unicode="&#xf0;" horiz-adv-x="590" 
d="M290 795l60 -10l-17 -80l32 -5c91 -15 150 -75 150 -175v-400c0 -80 -54 -135 -150 -135h-145c-96 0 -150 55 -150 135v220c0 80 54 135 150 135h225v45c0 76 -39 112 -90 120l-34 5l-21 -100l-60 10l21 100l-121 20l10 55l123 -20zM445 125v300h-225
c-45 0 -80 -35 -80 -80v-220c0 -45 35 -80 80 -80h145c45 0 80 35 80 80z" />
    <glyph glyph-name="florin" unicode="&#x192;" horiz-adv-x="370" 
d="M0 -170h-50v55h50c45 0 80 35 80 80v610c0 80 54 135 150 135h190v-35l-20 -20h-170c-45 0 -80 -35 -80 -80v-125h180v-55h-180v-430c0 -80 -54 -135 -150 -135z" />
    <glyph glyph-name="sterling" unicode="&#xa3;" horiz-adv-x="540" 
d="M160 55h360v-55h-465v55h30c13 7 24 15 35 26c17 17 35 44 35 79v205h-80v55h80v155c0 80 54 135 150 135h176v-35l-20 -20h-156c-45 0 -80 -35 -80 -80v-155h185v-55h-185v-205c0 -35 -17 -60 -33 -76c-9 -9 -20 -17 -32 -24v-5z" />
    <glyph glyph-name="yen" unicode="&#xa5;" horiz-adv-x="580" 
d="M500 160v-55h-175v-105h-70v105h-175v55h175v60l-11 20h-164v55h135l-195 370v35h65l202 -395h6l202 395h65v-35l-196 -370h136v-55h-165l-10 -20v-60h175z" />
    <glyph glyph-name="cent" unicode="&#xa2;" horiz-adv-x="505" 
d="M260 610h70v-80h140v-35l-20 -20h-230c-45 0 -80 -35 -80 -80v-260c0 -45 35 -80 80 -80h250v-55h-140v-80h-70v80h-40c-96 0 -150 55 -150 135v260c0 80 54 135 150 135h40v80z" />
    <glyph glyph-name="afii10020" unicode="&#x413;" horiz-adv-x="540" 
d="M165 0h-70v700h435v-35l-20 -20h-345v-645z" />
    <glyph glyph-name="onequarter" unicode="&#xbc;" horiz-adv-x="745" 
d="M535 700h60v-30l-425 -670h-60v30zM585 330h65v-220h55v-50h-55v-60h-65v60h-195v45zM465 115v-5h120v135h-5zM40 645v40l85 15h55v-330h-65v275h-75z" />
    <glyph glyph-name="onesuperior" unicode="&#xb9;" horiz-adv-x="220" 
d="M40 645v40l85 15h55v-330h-65v275h-75z" />
    <glyph glyph-name="twosuperior" unicode="&#xb2;" horiz-adv-x="350" 
d="M310 370h-270v45l160 120l22 21c11 12 23 29 23 44c0 31 -19 50 -50 50h-145v50h145c76 0 115 -40 115 -100c0 -28 -18 -52 -35 -71c-11 -11 -22 -20 -35 -29l-110 -75v-5h180v-50z" />
    <glyph glyph-name="threesuperior" unicode="&#xb3;" horiz-adv-x="360" 
d="M255 470c0 31 -19 45 -50 45h-105v45l105 85v5h-165v50h255v-45l-116 -90h26c76 0 115 -35 115 -95s-39 -100 -115 -100h-165v50h165c31 0 50 19 50 50z" />
    <glyph glyph-name="onehalf" unicode="&#xbd;" horiz-adv-x="775" 
d="M535 700h60v-30l-425 -670h-60v30zM40 645v40l85 15h55v-330h-65v275h-75zM735 0h-270v45l160 120l22 21c11 12 23 29 23 44c0 31 -19 50 -50 50h-145v50h145c76 0 115 -40 115 -100c0 -28 -18 -52 -35 -71c-11 -11 -22 -20 -35 -29l-110 -75v-5h180v-50z" />
    <glyph glyph-name="threequarters" unicode="&#xbe;" horiz-adv-x="795" 
d="M595 700h60v-30l-425 -670h-60v30zM635 330h65v-220h55v-50h-55v-60h-65v60h-195v45zM515 115v-5h120v135h-5zM255 470c0 31 -19 45 -50 45h-105v45l105 85v5h-165v50h255v-45l-116 -90h26c76 0 115 -35 115 -95s-39 -100 -115 -100h-165v50h165c31 0 50 19 50 50z" />
    <glyph glyph-name="ordmasculine" unicode="&#xba;" horiz-adv-x="385" 
d="M280 470v140c0 31 -19 50 -50 50h-75c-31 0 -50 -19 -50 -50v-140c0 -31 19 -50 50 -50h75c31 0 50 19 50 50zM345 610v-140c0 -60 -39 -100 -115 -100h-75c-76 0 -115 40 -115 100v140c0 60 39 100 115 100h75c76 0 115 -40 115 -100z" />
    <glyph glyph-name="ordfeminine" unicode="&#xaa;" horiz-adv-x="380" 
d="M340 600v-230h-50l-5 45h-5c-4 -11 -10 -20 -17 -28c-12 -15 -31 -27 -58 -27h-50c-76 0 -115 40 -115 100s39 100 115 100h120v40c0 31 -19 50 -50 50h-140v50h140c76 0 115 -40 115 -100zM155 410h50c35 0 70 40 70 65v35h-120c-31 0 -50 -19 -50 -50s19 -50 50 -50z
" />
    <glyph glyph-name="uni0492" unicode="&#x492;" horiz-adv-x="540" 
d="M165 0h-70v335h-85v55h85v310h435v-35l-20 -20h-345v-255h195v-55h-195v-335z" />
    <glyph glyph-name="uni0493" unicode="&#x493;" horiz-adv-x="460" 
d="M325 290v-55h-175v-235h-70v235h-70v55h70v240h370v-35l-20 -20h-280v-185h175z" />
    <glyph glyph-name="uni04B0" unicode="&#x4b0;" horiz-adv-x="580" 
d="M455 220v-55h-130v-165h-70v165h-130v55h130l-235 445v35h65l202 -395h6l202 395h65v-35l-235 -445h130z" />
    <glyph glyph-name="uni04A2" unicode="&#x4a2;" horiz-adv-x="680" 
d="M585 0h-70v325h-350v-325h-70v700h70v-320h350v320h70v-645h75v-195h-55z" />
    <glyph glyph-name="uni04A3" unicode="&#x4a3;" 
d="M520 0h-70v240h-300v-240h-70v530h70v-235h300v235h70v-475h75v-185h-55z" />
    <glyph glyph-name="uni04A0" unicode="&#x4a0;" horiz-adv-x="640" 
d="M175 700v-320h170l170 320h65v-35l-175 -310l200 -320v-35h-65l-195 325h-170v-325h-70v645h-95v55h165z" />
    <glyph glyph-name="uni04A1" unicode="&#x4a1;" horiz-adv-x="560" 
d="M160 530v-235h150l135 235h65v-35l-145 -225l160 -235v-35h-65l-150 240h-150v-240h-70v475h-80v55h150z" />
    <glyph glyph-name="uni049A" unicode="&#x49a;" horiz-adv-x="650" 
d="M575 0h-45l-195 325h-170v-325h-70v700h70v-320h170l170 320h65v-35l-175 -310l187 -300h68v-195h-55z" />
    <glyph glyph-name="uni049B" unicode="&#x49b;" horiz-adv-x="570" 
d="M495 0h-45l-150 240h-150v-240h-70v530h70v-235h150l135 235h65v-35l-145 -225l146 -215h69v-185h-55z" />
    <glyph glyph-name="uni04BB" unicode="&#x4bb;" 
d="M155 475v-475h-70v700h70v-170h215c96 0 150 -55 150 -135v-395h-70v395c0 45 -35 80 -80 80h-215z" />
    <glyph glyph-name="uni04BA" unicode="&#x4ba;" horiz-adv-x="645" 
d="M505 0v285c0 56 -39 95 -95 95h-245v-380h-70v700h70v-265h245c105 0 165 -59 165 -150v-285h-70z" />
    <glyph glyph-name="uni04B8" unicode="&#x4b8;" horiz-adv-x="645" 
d="M345 405v-85h135v380h70v-700h-70v265h-135v-100h-65v100h-45c-105 0 -165 59 -165 150v285h70v-285c0 -56 39 -95 95 -95h45v85h65z" />
    <glyph glyph-name="uni04B9" unicode="&#x4b9;" horiz-adv-x="570" 
d="M310 325v-80h110v285h70v-530h-70v190h-110v-85h-65v85h-35c-96 0 -150 55 -150 135v205h70v-205c0 -45 35 -80 80 -80h35v80h65z" />
    <glyph glyph-name="uni0496" unicode="&#x496;" horiz-adv-x="980" 
d="M905 0h-45l-185 325h-160v-325h-70v325h-160l-185 -325h-65v35l190 320l-165 310v35h65l160 -320h160v320h70v-320h160l160 320h65v-35l-165 -310l178 -300h67v-195h-55z" />
    <glyph glyph-name="uni0497" unicode="&#x497;" horiz-adv-x="850" 
d="M775 0h-45l-140 240h-140v-240h-70v240h-140l-140 -240h-65v35l150 235l-135 225v35h65l125 -235h140v235h70v-235h140l125 235h65v-35l-135 -225l137 -215h68v-185h-55z" />
    <glyph glyph-name="uni04B2" unicode="&#x4b2;" horiz-adv-x="615" 
d="M540 0h-40l-200 305h-5l-200 -305h-65v35l220 315l-205 315v35h65l185 -300h5l185 300h65v-35l-205 -315l206 -295h64v-195h-55z" />
    <glyph glyph-name="uni04AE" unicode="&#x4ae;" horiz-adv-x="580" 
d="M85 700l202 -395h6l202 395h65v-35l-235 -445v-220h-70v220l-235 445v35h65z" />
    <glyph glyph-name="uni04B3" unicode="&#x4b3;" horiz-adv-x="530" 
d="M455 0h-35l-160 215h-5l-160 -215h-65v35l185 230l-175 230v35h65l150 -215h5l150 215h65v-35l-175 -230l169 -210h61v-185h-55z" />
    <glyph glyph-name="uni049C" unicode="&#x49c;" horiz-adv-x="630" 
d="M285 470v-90h50l170 320h65v-35l-175 -310l200 -320v-35h-65l-195 325h-50v-95h-65v95h-55v-325h-70v700h70v-320h55v90h65z" />
    <glyph glyph-name="uni04AF" unicode="&#x4af;" horiz-adv-x="545" 
d="M275 70l175 460h65v-35l-205 -495v-170h-75v170l-205 495v35h65l175 -460h5z" />
    <glyph glyph-name="uni04B1" unicode="&#x4b1;" horiz-adv-x="545" 
d="M420 0v-55h-110v-115h-75v115h-110v55h110l-205 495v35h65l175 -460h5l175 460h65v-35l-205 -495h110z" />
    <glyph glyph-name="uni04D8" unicode="&#x4d8;" horiz-adv-x="670" 
d="M80 385h440v165c0 56 -39 95 -95 95h-305v55h305c105 0 165 -59 165 -150v-410c0 -91 -60 -150 -165 -150h-180c-105 0 -165 59 -165 150v245zM245 45h180c56 0 95 39 95 95v190h-370v-190c0 -56 39 -95 95 -95z" />
    <glyph glyph-name="uni049D" unicode="&#x49d;" horiz-adv-x="550" 
d="M260 375v-80h40l135 235h65v-35l-145 -225l160 -235v-35h-65l-150 240h-40v-85h-65v85h-45v-240h-70v530h70v-235h45v80h65z" />
    <glyph glyph-name="uni0498" unicode="&#x498;" horiz-adv-x="565" 
d="M325 645h-265l-20 20v35h285c105 0 165 -59 165 -150v-70c0 -51 -25 -79 -50 -95c-15 -9 -31 -16 -50 -20v-5c20 -4 38 -11 55 -21c27 -19 55 -48 55 -104v-85c0 -91 -60 -150 -165 -150v-70c0 -60 -39 -100 -115 -100h-90v50h90c31 0 50 19 50 50v70h-245v55h310
c56 0 95 39 95 95v85c0 56 -39 95 -95 95h-175v55h165c56 0 95 39 95 95v70c0 56 -39 95 -95 95z" />
    <glyph glyph-name="uni0499" unicode="&#x499;" horiz-adv-x="505" 
d="M290 475h-230l-20 20v35h250c96 0 150 -55 150 -135v-19c0 -41 -22 -66 -45 -81c-13 -9 -28 -15 -45 -20v-5c19 -5 35 -12 50 -21c25 -16 50 -44 50 -89v-25c0 -80 -54 -135 -150 -135h-5v-60c0 -60 -39 -100 -115 -100h-80v50h80c31 0 50 19 50 50v60h-205v55h275
c45 0 80 35 80 80v25c0 45 -35 80 -80 80h-157v55h147c45 0 80 35 80 80v20c0 45 -35 80 -80 80z" />
    <glyph glyph-name="uni04AA" unicode="&#x4aa;" horiz-adv-x="570" 
d="M250 -70v70h-5c-105 0 -165 59 -165 150v400c0 91 60 150 165 150h290v-35l-20 -20h-270c-56 0 -95 -39 -95 -95v-400c0 -56 39 -95 95 -95h290v-55h-220v-70c0 -31 19 -50 50 -50h90v-50h-90c-76 0 -115 40 -115 100z" />
    <glyph glyph-name="uni04AB" unicode="&#x4ab;" horiz-adv-x="505" 
d="M225 -60v60h-5c-96 0 -150 55 -150 135v260c0 80 54 135 150 135h250v-35l-20 -20h-230c-45 0 -80 -35 -80 -80v-260c0 -45 35 -80 80 -80h250v-55h-180v-60c0 -31 19 -50 50 -50h80v-50h-80c-76 0 -115 40 -115 100z" />
    <glyph glyph-name="uni0472" unicode="&#x472;" horiz-adv-x="670" 
d="M425 -10h-180c-105 0 -165 59 -165 150v420c0 91 60 150 165 150h180c105 0 165 -59 165 -150v-420c0 -91 -60 -150 -165 -150zM245 45h180c56 0 95 39 95 95v185h-370v-185c0 -56 39 -95 95 -95zM150 560v-180h370v180c0 56 -39 95 -95 95h-180c-56 0 -95 -39 -95 -95z
" />
    <glyph glyph-name="uni0473" unicode="&#x473;" horiz-adv-x="590" 
d="M370 -10h-150c-96 0 -150 55 -150 135v280c0 80 54 135 150 135h150c96 0 150 -55 150 -135v-280c0 -80 -54 -135 -150 -135zM140 405v-115h310v115c0 45 -35 80 -80 80h-150c-45 0 -80 -35 -80 -80zM140 235v-110c0 -45 35 -80 80 -80h150c45 0 80 35 80 80v110h-310z
" />
    <glyph glyph-name="uni04D9" unicode="&#x4d9;" horiz-adv-x="565" 
d="M70 290h355v105c0 45 -35 80 -80 80h-245v55h245c96 0 150 -55 150 -135v-270c0 -80 -54 -135 -150 -135h-125c-96 0 -150 55 -150 135v165zM425 125v110h-285v-110c0 -45 35 -80 80 -80h125c45 0 80 35 80 80z" />
    <glyph glyph-name="nbspace" unicode="&#xa0;" horiz-adv-x="290" 
 />
    <glyph glyph-name="foundryicon" horiz-adv-x="1330" 
d="M200 265h-170l170 175v-175zM410 350c0 -51 -39 -90 -90 -90s-90 39 -90 90s39 90 90 90s90 -39 90 -90zM410 435h180l-90 -175zM910 435v-155l-150 155h150zM745 265v155l150 -155h-150zM725 265h-180l90 175zM1105 435v-155l-150 155h150zM940 265v155l150 -155h-150z
M1120 435h180l-90 -175z" />
    <glyph glyph-name=".ttfautohint" horiz-adv-x="1330" 
 />
    </font>
</defs>
</svg>
