<?xml version="1.0" standalone="no"?>
<!DOCTYPE svg PUBLIC "-//W3C//DTD SVG 1.1//EN" "http://www.w3.org/Graphics/SVG/1.1/DTD/svg11.dtd" >
<svg xmlns="http://www.w3.org/2000/svg" xmlns:xlink="http://www.w3.org/1999/xlink" version="1.1">
<metadata>
Created by FontForge 20161013 at Tue Sep 11 10:45:10 2007
 By ,,,
(c) 2007 by P22 type foundry. All rights reserved.
</metadata>
<defs>
<font id="P22UndergroundCYPro-Heavy" horiz-adv-x="580" >
  <font-face 
    font-family="P22 Underground CY Pro"
    font-weight="750"
    font-stretch="normal"
    units-per-em="1000"
    panose-1="0 0 8 0 0 0 0 0 0 0"
    ascent="750"
    descent="-250"
    x-height="470"
    cap-height="700"
    bbox="-685 -390 1480 1086"
    underline-thickness="50"
    underline-position="-200"
    unicode-range="U+0020-FB02"
  />
<missing-glyph horiz-adv-x="700" 
d="M65 700h570l5 -5v-690l-5 -5h-570l-5 5v690zM105 605v-130h25v90l45 -50l45 50v-90h25v130h-25l-45 -55l-45 55h-25zM280 605v-130h25v130h-25zM340 605v-130h25v90l65 -90h30v130h-25v-90l-65 90h-30zM495 605v-130h45q32 0 51 16.5t19 48.5t-19 48.5t-51 16.5h-45z
M520 580h20q45 0 45 -40t-45 -40h-20v80zM150 405v-25h45v-105h25v105h45v25h-115zM290 405v-130h25v60h65v-60h25v130h-25v-45h-65v45h-25zM440 405v-130h90v25h-65v30h45v25h-45v25h60v25h-85zM270 170v30q-20 10 -45 10q-32 0 -53.5 -20t-21.5 -50t21 -50t54 -20
q27 0 50 15v66l-50 -1v-25h25v-25q-10 -5 -25 -5q-22 0 -33.5 12.5t-11.5 32.5q0 19 12.5 30.5t32.5 11.5q23 0 45 -12zM355 205l-55 -130h30l10 25h50l10 -25h30l-55 130h-20zM365 170l17 -45h-34zM450 205v-130h25v40h20q22 0 36 13t14 32t-14 32t-36 13h-45zM475 180h20
q20 0 20 -20t-20 -20h-20v40z" />
    <glyph glyph-name="f_f" unicode="ff" horiz-adv-x="800" 
d="M25 470h75v10q0 100 58.5 162.5t161.5 62.5q54 0 100 -20v-140l-5 -5q-41 30 -83 30q-92 0 -92 -95v-5h220v10q0 107 58.5 171t161.5 64q54 0 100 -20v-140l-5 -5q-41 30 -83 30q-92 0 -92 -105v-5h175l5 -5v-130l-5 -5h-175v-325l-5 -5h-130l-5 5v325h-220v-325l-5 -5
h-130l-5 5v325h-75l-5 5v131z" />
    <glyph glyph-name="t_t" unicode="tt" horiz-adv-x="810" 
d="M110 590h130l5 -6v-114h220v115l5 5h130l5 -6v-114h180l5 -5v-130l-5 -5h-180v-110q0 -100 75 -100q56 0 105 35l5 -5v-135q-20 -12 -53 -21t-57 -9q-108 0 -161.5 59t-53.5 161v125h-220v-110q0 -54 21 -77t49 -23q46 0 90 25l5 -5v-135q-42 -20 -95 -20
q-105 0 -157.5 59t-52.5 161v125h-80l-5 5v130l5 5h80v115z" />
    <glyph glyph-name="uni0457_uni0457" unicode="&#x457;&#x457;" horiz-adv-x="520" 
d="M5 695h10l80 -80v-10l-80 -80h-10l-80 80v10zM255 695h10l80 -80v-10l-80 -80h-10l-80 80v10zM65 470h130l5 -5v-460l-5 -5h-130l-5 5v460zM505 695h10l80 -80v-10l-80 -80h-10l-80 80v10zM325 470h130l5 -5v-460l-5 -5h-130l-5 5v460z" />
    <glyph glyph-name="uni0407_uni0407" unicode="&#x407;&#x407;" horiz-adv-x="520" 
d="M65 700h130l5 -5v-690l-5 -5h-130l-5 5v690zM0 930h10l85 -85v-10l-85 -85h-10l-85 85v10zM255 930h10l85 -85v-10l-85 -85h-10l-85 85v10zM325 700h130l5 -5v-690l-5 -5h-130l-5 5v690zM510 930h10l85 -85v-10l-85 -85h-10l-85 85v10z" />
    <glyph glyph-name=".notdef" horiz-adv-x="700" 
d="M65 700h570l5 -5v-690l-5 -5h-570l-5 5v690zM105 605v-130h25v90l45 -50l45 50v-90h25v130h-25l-45 -55l-45 55h-25zM280 605v-130h25v130h-25zM340 605v-130h25v90l65 -90h30v130h-25v-90l-65 90h-30zM495 605v-130h45q32 0 51 16.5t19 48.5t-19 48.5t-51 16.5h-45z
M520 580h20q45 0 45 -40t-45 -40h-20v80zM150 405v-25h45v-105h25v105h45v25h-115zM290 405v-130h25v60h65v-60h25v130h-25v-45h-65v45h-25zM440 405v-130h90v25h-65v30h45v25h-45v25h60v25h-85zM270 170v30q-20 10 -45 10q-32 0 -53.5 -20t-21.5 -50t21 -50t54 -20
q27 0 50 15v66l-50 -1v-25h25v-25q-10 -5 -25 -5q-22 0 -33.5 12.5t-11.5 32.5q0 19 12.5 30.5t32.5 11.5q23 0 45 -12zM355 205l-55 -130h30l10 25h50l10 -25h30l-55 130h-20zM365 170l17 -45h-34zM450 205v-130h25v40h20q22 0 36 13t14 32t-14 32t-36 13h-45zM475 180h20
q20 0 20 -20t-20 -20h-20v40z" />
    <glyph glyph-name=".null" horiz-adv-x="0" 
 />
    <glyph glyph-name="nonmarkingreturn" horiz-adv-x="333" 
 />
    <glyph glyph-name="space" unicode=" " horiz-adv-x="300" 
 />
    <glyph glyph-name="exclam" unicode="!" horiz-adv-x="260" 
d="M65 700h130l5 -5v-115l-20 -365l-5 -5h-90l-5 5l-20 365v115zM125 135h10l80 -80v-10l-80 -80h-10l-80 80v10z" />
    <glyph glyph-name="quotedbl" unicode="&#x22;" horiz-adv-x="460" 
d="M65 700h130l5 -5v-95l-30 -135l-5 -5h-70l-5 5l-30 135v95zM265 700h130l5 -5v-95l-30 -135l-5 -5h-70l-5 5l-30 135v95z" />
    <glyph glyph-name="numbersign" unicode="#" horiz-adv-x="600" 
d="M55 535h82l8 120l5 5h115l5 -5l-8 -120h91l12 120l5 5h115l5 -5l-12 -120h77l5 -5v-110l-5 -5h-87l-8 -100h85l5 -5v-110l-5 -5h-93l-10 -150l-5 -5h-115l-5 5l10 150h-94l-11 -150l5 -5h-125l-5 5l11 150h-63l-5 5v110l5 5h73l7 100h-70l-5 5v110zM250 415l-7 -100h92
l8 100h-93z" />
    <glyph glyph-name="dollar" unicode="$" horiz-adv-x="520" 
d="M195 800h130l5 -5v-92q81 -27 140 -108l-108 -80h-10q-59 55 -97 55q-32 0 -48.5 -17.5t-16.5 -42.5q0 -20 16.5 -37t43 -30t58.5 -26.5t64 -32t58.5 -40.5t43 -56.5t16.5 -77.5q0 -73 -44.5 -131.5t-115.5 -81.5v-92l-5 -5h-130l-5 5v87q-60 14 -107 52t-73 96l115 77
h10q45 -87 120 -87q38 0 61.5 21.5t23.5 58.5q0 27 -31 48t-75 39.5t-88 42t-75 67t-31 103.5q0 69 41.5 122.5t108.5 72.5v90z" />
    <glyph glyph-name="percent" unicode="%" horiz-adv-x="800" 
d="M205 705q68 0 116.5 -46.5t48.5 -113.5t-48.5 -113.5t-116.5 -46.5t-116.5 46.5t-48.5 113.5t48.5 113.5t116.5 46.5zM205 580q-15 0 -25 -10t-10 -25t10 -25t25 -10t25 10t10 25t-10 25t-25 10zM555 700h155l5 -5l-460 -690l-10 -5h-155l-5 5l460 690zM595 315
q68 0 116.5 -46.5t48.5 -113.5t-48.5 -113.5t-116.5 -46.5t-116.5 46.5t-48.5 113.5t48.5 113.5t116.5 46.5zM595 190q-15 0 -25 -10t-10 -25t10 -25t25 -10t25 10t10 25t-10 25t-25 10z" />
    <glyph glyph-name="ampersand" unicode="&#x26;" horiz-adv-x="700" 
d="M675 375l5 -5q-108 -147 -145 -190q106 -116 165 -175l-5 -5h-170l-75 75q-82 -90 -190 -90q-100 0 -170 63t-70 154q0 66 32 111t93 82q-29 37 -42 67.5t-13 72.5q0 75 53.5 127.5t131.5 52.5t131.5 -52.5t53.5 -127.5q0 -57 -27 -95t-83 -70q8 -11 42.5 -50t47.5 -50
q34 36 80 105h155zM265 445q34 21 49.5 37.5t15.5 37.5q0 26 -14 40.5t-40 14.5q-56 0 -56 -55q0 -30 45 -75zM230 305q-65 -41 -65 -103q0 -32 28 -54.5t67 -22.5q58 0 95 45q-23 23 -64.5 69.5t-60.5 65.5z" />
    <glyph glyph-name="quotesingle" unicode="'" horiz-adv-x="260" 
d="M65 700h130l5 -5v-95l-30 -135l-5 -5h-70l-5 5l-30 135v95z" />
    <glyph glyph-name="parenleft" unicode="(" horiz-adv-x="380" 
d="M315 720l5 -5q-52 -74 -91 -202t-39 -283t39 -283t91 -202l-5 -5h-155q-48 81 -84 206.5t-36 283.5t36 283.5t84 206.5h155z" />
    <glyph glyph-name="parenright" unicode=")" horiz-adv-x="380" 
d="M65 720h155q48 -81 84 -206.5t36 -283.5t-36 -283.5t-84 -206.5h-155l-5 5q52 74 91 202t39 283t-39 283t-91 202z" />
    <glyph glyph-name="asterisk" unicode="*" horiz-adv-x="640" 
d="M240 700h160l5 -5l-40 -190l150 120h5l80 -130v-5l-190 -60l190 -70v-5l-80 -130h-5l-150 130l40 -190l-5 -5h-160l-5 5l40 190l-150 -130h-5l-80 130v5l190 70l-190 60v5l80 130h5l150 -120l-40 190z" />
    <glyph glyph-name="plus" unicode="+" horiz-adv-x="520" 
d="M195 560h130l5 -5v-120h120l5 -5v-130l-5 -5h-120v-120l-5 -5h-130l-5 5v120h-120l-5 5v130l5 5h120v120z" />
    <glyph glyph-name="comma" unicode="," horiz-adv-x="260" 
d="M65 140h130l5 -5v-120q0 -65 -44 -105t-121 -40q-18 0 -35 5v5q60 26 60 130v125z" />
    <glyph glyph-name="hyphen" unicode="-" horiz-adv-x="400" 
d="M45 305h310l5 -5v-130l-5 -5h-310l-5 5v130z" />
    <glyph glyph-name="period" unicode="." horiz-adv-x="260" 
d="M65 140h130l5 -5v-130l-5 -5h-130l-5 5v130z" />
    <glyph glyph-name="slash" unicode="/" horiz-adv-x="360" 
d="M215 700h129l5 -5l-200 -940l-5 -5h-129l-5 5l200 940z" />
    <glyph glyph-name="zero" unicode="0" horiz-adv-x="600" 
d="M300 715q117 0 188.5 -105t71.5 -260t-71.5 -260t-188.5 -105t-188.5 105t-71.5 260t71.5 260t188.5 105zM300 575q-50 0 -80 -59t-30 -166t30 -166t80 -59t80 59t30 166t-30 166t-80 59z" />
    <glyph glyph-name="one" unicode="1" horiz-adv-x="260" 
d="M195 705l5 -5v-695l-5 -5h-130l-5 5v582l5 10z" />
    <glyph glyph-name="two" unicode="2" horiz-adv-x="480" 
d="M30 445v185q81 85 180 85q96 0 158 -61t62 -149q0 -16 -2.5 -32t-4.5 -28t-9.5 -30t-10.5 -26.5t-13.5 -29t-13.5 -25.5t-16 -28t-15 -26l-80 -140h170l5 -5v-130l-5 -5h-405l-5 5l185 320q36 64 53 103.5t17 76.5q0 29 -21 49.5t-49 20.5q-89 0 -175 -135z" />
    <glyph glyph-name="three" unicode="3" horiz-adv-x="540" 
d="M25 700h435l5 -5l-125 -255q160 -58 160 -205q0 -109 -73.5 -179.5t-186.5 -70.5q-71 0 -131.5 42.5t-88.5 102.5l100 90h10q9 -33 39.5 -64t70.5 -31q46 0 78 31t32 79q0 47 -36.5 78.5t-83.5 31.5q-48 0 -95 -20l-5 5l117 230h-222l-5 5v130z" />
    <glyph glyph-name="four" unicode="4" horiz-adv-x="690" 
d="M555 735l5 -5v-460h115l5 -5v-130l-5 -5h-115v-125l-5 -5h-130l-5 5v125h-405l-5 5zM420 410l-120 -140h120v140z" />
    <glyph glyph-name="five" unicode="5" horiz-adv-x="540" 
d="M140 700h355l5 -5l-85 -135h-150l-5 -100q94 8 167 -57t73 -173q0 -101 -75 -173t-180 -72q-142 0 -215 110l85 110h10q51 -80 120 -80q42 0 73.5 30.5t31.5 74.5q0 48 -33 80t-82 32q-36 0 -59 -6t-66 -26l-5 5l30 380z" />
    <glyph glyph-name="six" unicode="6" horiz-adv-x="550" 
d="M472 700l5 -5q-71 -52 -137.5 -124t-106.5 -146q37 10 67 10q90 0 155 -65t65 -155q0 -97 -66 -163.5t-164 -66.5q-45 0 -88 17t-80 50t-59.5 89.5t-22.5 128.5q0 119 79.5 240.5t170.5 189.5h182zM185 250q4 -63 33.5 -94t71.5 -31q34 0 57 26t23 64q0 34 -23 57t-57 23
q-60 0 -105 -45z" />
    <glyph glyph-name="seven" unicode="7" horiz-adv-x="560" 
d="M35 700h520l5 -5l-345 -690l-10 -5h-150l-5 5l280 555h-295l-5 5v130z" />
    <glyph glyph-name="eight" unicode="8" horiz-adv-x="540" 
d="M270 715q81 0 140.5 -52.5t59.5 -132.5q0 -91 -85 -145q115 -80 115 -185q0 -89 -68 -152t-162 -63t-162 63t-68 152q0 105 115 185q-85 54 -85 145q0 80 59.5 132.5t140.5 52.5zM270 450q50 33 50 80q0 19 -14 32t-36 13t-36 -13t-14 -32q0 -47 50 -80zM270 320
q-28 -24 -39 -34t-26 -35.5t-15 -50.5q0 -30 23.5 -52.5t56.5 -22.5t56.5 22.5t23.5 52.5q0 25 -15 50.5t-26 35.5t-39 34z" />
    <glyph glyph-name="nine" unicode="9" horiz-adv-x="550" 
d="M78 0l-5 5q71 52 137.5 124t106.5 146q-37 -10 -67 -10q-90 0 -155 65t-65 155q0 97 66 163.5t164 66.5q45 0 88 -17t80 -50t59.5 -89.5t22.5 -128.5q0 -119 -79.5 -240.5t-170.5 -189.5h-182zM365 450q-4 63 -33.5 94t-71.5 31q-34 0 -57 -26t-23 -64q0 -34 23 -57
t57 -23q60 0 105 45z" />
    <glyph glyph-name="colon" unicode=":" horiz-adv-x="260" 
d="M65 460h130l5 -5v-130l-5 -5h-130l-5 5v130zM65 140h130l5 -5v-130l-5 -5h-130l-5 5v130z" />
    <glyph glyph-name="semicolon" unicode=";" horiz-adv-x="260" 
d="M65 460h130l5 -5v-130l-5 -5h-130l-5 5v130zM65 140h130l5 -5v-120q0 -65 -44 -105t-121 -40q-18 0 -35 5v5q60 26 60 130v125z" />
    <glyph glyph-name="less" unicode="&#x3c;" horiz-adv-x="520" 
d="M450 590l5 -5v-145l-5 -5l-210 -70l210 -70l5 -5v-145l-5 -5l-390 162l-5 5v115l5 5z" />
    <glyph glyph-name="equal" unicode="=" horiz-adv-x="520" 
d="M70 535h380l5 -5v-130l-5 -5h-380l-5 5v130zM70 335h380l5 -5v-130l-5 -5h-380l-5 5v130z" />
    <glyph glyph-name="greater" unicode="&#x3e;" horiz-adv-x="520" 
d="M65 585l5 5l390 -163l5 -5v-115l-5 -5l-390 -162l-5 5v145l5 5l210 70l-210 70l-5 5v145z" />
    <glyph glyph-name="question" unicode="?" horiz-adv-x="460" 
d="M120 525l-85 65q27 57 73.5 91t101.5 34q97 0 156 -50.5t59 -129.5q0 -51 -21 -95t-46.5 -68.5t-46.5 -49.5t-21 -42q0 -26 22 -43l-85 -87q-87 54 -87 130q0 32 13.5 58t32.5 44.5l38 37t32.5 42.5t13.5 53q0 27 -15.5 43.5t-44.5 16.5q-51 0 -80 -50h-10zM225 135h10
l80 -80v-10l-80 -80h-10l-80 80v10z" />
    <glyph glyph-name="at" unicode="@" horiz-adv-x="840" 
d="M275 300l50 125q45 25 95 25q74 0 119.5 -42t45.5 -118v-55q0 -44 8 -59.5t27 -15.5q30 0 30 100q0 96 -65 160.5t-165 64.5t-165 -70.5t-65 -174.5q0 -103 67.5 -174t162.5 -71q67 0 115 30h10l50 -105q-84 -45 -175 -45q-148 0 -254 105t-106 260t106 260t254 105
q153 0 256.5 -100.5t103.5 -244.5q0 -106 -48.5 -160.5t-121.5 -54.5q-37 0 -61 7t-49 28q-42 -35 -100 -35q-54 0 -97 30t-43 95q0 121 200 140q0 15 -12.5 25t-29.5 10q-69 0 -138 -50zM460 165v50q-85 -5 -85 -45q0 -11 7.5 -18t17.5 -7q33 0 60 20z" />
    <glyph glyph-name="A" unicode="A" horiz-adv-x="700" 
d="M280 700h140l5 -5l265 -690l-5 -5h-155l-5 5l-50 140h-250l-50 -140l-5 -5h-155l-5 5l265 690zM350 520l-80 -235h160z" />
    <glyph glyph-name="B" unicode="B" horiz-adv-x="550" 
d="M65 700h185q101 0 168 -51.5t67 -138.5q0 -44 -19.5 -76.5t-50.5 -48.5q45 -19 75 -66.5t30 -103.5q0 -102 -64.5 -158.5t-165.5 -56.5h-225l-5 5v690zM200 560v-130h50q80 0 80 65t-80 65h-50zM200 290v-150h80q85 0 85 75t-85 75h-80z" />
    <glyph glyph-name="C" unicode="C" horiz-adv-x="710" 
d="M650 495l-5 -5q-95 80 -235 80q-90 0 -152.5 -65t-62.5 -155t62.5 -155t152.5 -65q140 0 235 80l5 -5v-155q-90 -65 -240 -65q-153 0 -261.5 107t-108.5 258t108.5 258t261.5 107q150 0 240 -65v-155z" />
    <glyph glyph-name="D" unicode="D" horiz-adv-x="710" 
d="M65 700h235q159 0 264.5 -101.5t105.5 -248.5t-105.5 -248.5t-264.5 -101.5h-235l-5 5v690zM200 560v-420h100q98 0 159 58t61 152t-61 152t-159 58h-100z" />
    <glyph glyph-name="E" unicode="E" 
d="M65 700h470l5 -5v-130l-5 -5h-335v-125h245l5 -5v-130l-5 -5h-245v-155h345l5 -5v-130l-5 -5h-480l-5 5v690z" />
    <glyph glyph-name="F" unicode="F" horiz-adv-x="560" 
d="M65 700h460l5 -5v-130l-5 -5h-325v-135h235l5 -5v-130l-5 -5h-235v-280l-5 -5h-130l-5 5v690z" />
    <glyph glyph-name="G" unicode="G" horiz-adv-x="720" 
d="M670 515l-5 -5q-100 60 -245 60q-99 0 -162 -64t-63 -156t63.5 -156t166.5 -64q67 0 105 15v130h-105l-5 5v130l5 5h240l5 -5v-365q-112 -60 -245 -60q-161 0 -273 105.5t-112 259.5q0 151 110 258t270 107q154 0 250 -45v-155z" />
    <glyph glyph-name="H" unicode="H" horiz-adv-x="720" 
d="M65 700h130l5 -5v-260h320v260l5 5h130l5 -5v-690l-5 -5h-130l-5 5v290h-320v-290l-5 -5h-130l-5 5v690z" />
    <glyph glyph-name="I" unicode="I" horiz-adv-x="260" 
d="M65 700h130l5 -5v-690l-5 -5h-130l-5 5v690z" />
    <glyph glyph-name="J" unicode="J" horiz-adv-x="520" 
d="M305 700h130l5 -5v-490q0 -96 -60 -158t-175 -62q-67 0 -121.5 42.5t-73.5 107.5l115 60h5q22 -75 85 -75q50 0 67.5 31t17.5 99v445z" />
    <glyph glyph-name="K" unicode="K" horiz-adv-x="720" 
d="M65 700h130l5 -5v-260l270 260l10 5h175l5 -5l-325 -330l375 -360l-5 -5h-195l-10 5l-300 290v-290l-5 -5h-130l-5 5v690z" />
    <glyph glyph-name="L" unicode="L" horiz-adv-x="500" 
d="M65 700h130l5 -5v-555h265l5 -5v-130l-5 -5h-400l-5 5v690z" />
    <glyph glyph-name="M" unicode="M" horiz-adv-x="820" 
d="M65 700h130l10 -5l205 -255l205 255l10 5h130l5 -5v-690l-5 -5h-130l-5 5v480l-205 -250h-10l-205 250v-480l-5 -5h-130l-5 5v690z" />
    <glyph glyph-name="N" unicode="N" horiz-adv-x="760" 
d="M65 700h135l10 -5l350 -455v455l5 5h130l5 -5v-690l-5 -5h-135l-10 5l-350 455v-455l-5 -5h-130l-5 5v690z" />
    <glyph glyph-name="O" unicode="O" horiz-adv-x="820" 
d="M410 715q154 0 262 -106t108 -259t-108 -259t-262 -106t-262 106t-108 259t108 259t262 106zM410 570q-90 0 -152.5 -63.5t-62.5 -156.5t62.5 -156.5t152.5 -63.5t152.5 63.5t62.5 156.5t-62.5 156.5t-152.5 63.5z" />
    <glyph glyph-name="P" unicode="P" horiz-adv-x="560" 
d="M65 700h215q115 0 182.5 -65.5t67.5 -159.5t-67.5 -159.5t-182.5 -65.5h-80v-245l-5 -5h-130l-5 5v690zM200 560v-170h70q105 0 105 85t-105 85h-70z" />
    <glyph glyph-name="Q" unicode="Q" horiz-adv-x="820" 
d="M770 105v-10l-85 -95h-10l-56 48q-93 -63 -209 -63q-154 0 -262 106t-108 259t108 259t262 106t262 -106t108 -259q0 -109 -61 -202zM535 300h10l57 -50q23 44 23 100q0 93 -62.5 156.5t-152.5 63.5t-152.5 -63.5t-62.5 -156.5t62.5 -156.5t152.5 -63.5q49 0 92 20
l-52 45v10z" />
    <glyph glyph-name="R" unicode="R" horiz-adv-x="640" 
d="M65 700h185q109 0 174.5 -60.5t65.5 -149.5q0 -115 -100 -165l240 -320l-5 -5h-160l-5 5l-210 275h-50v-275l-5 -5h-130l-5 5v690zM200 560v-140h50q85 0 85 70t-85 70h-50z" />
    <glyph glyph-name="S" unicode="S" horiz-adv-x="540" 
d="M342 525h-10q-33 45 -77 45q-50 0 -50 -50q0 -21 30.5 -40t73.5 -38.5t86.5 -45.5t74 -74t30.5 -112q0 -92 -67.5 -158.5t-167.5 -66.5q-81 0 -145 41t-90 114l115 77h10q32 -87 110 -87q38 0 61.5 21.5t23.5 58.5q0 33 -30.5 59t-73.5 46.5t-86.5 44.5t-74 65t-30.5 95
q0 85 58 140t142 55q62 0 107.5 -26t87.5 -84z" />
    <glyph glyph-name="T" unicode="T" horiz-adv-x="620" 
d="M35 700h550l5 -5v-130l-5 -5h-205v-555l-5 -5h-130l-5 5v555h-205l-5 5v130z" />
    <glyph glyph-name="U" unicode="U" horiz-adv-x="740" 
d="M65 700h130l5 -5v-365q0 -97 47.5 -148.5t122.5 -51.5t122.5 51.5t47.5 148.5v365l5 5h130l5 -5v-385q0 -149 -89 -237t-221 -88t-221 88t-89 237v385z" />
    <glyph glyph-name="V" unicode="V" horiz-adv-x="700" 
d="M15 700h150l5 -5l180 -485l180 485l5 5h150l5 -5l-265 -690l-5 -5h-140l-5 5l-265 690z" />
    <glyph glyph-name="W" unicode="W" horiz-adv-x="1080" 
d="M15 700h150l5 -5l160 -485l135 475l5 5h140l5 -5l135 -475l160 485l5 5h150l5 -5l-245 -690l-5 -5h-140l-5 5l-135 415l-135 -415l-5 -5h-140l-5 5l-245 690z" />
    <glyph glyph-name="X" unicode="X" horiz-adv-x="720" 
d="M45 700h160l10 -5l145 -210l145 210l10 5h160l5 -5l-235 -325l265 -365l-5 -5h-160l-10 5l-175 250l-175 -250l-10 -5h-160l-5 5l265 365l-235 325z" />
    <glyph glyph-name="Y" unicode="Y" horiz-adv-x="640" 
d="M15 700h140l5 -5l160 -235l160 235l5 5h140l5 -5l-240 -380v-310l-5 -5h-130l-5 5v310l-240 380z" />
    <glyph glyph-name="Z" unicode="Z" horiz-adv-x="650" 
d="M25 700h585l5 -5l-355 -555h355l5 -6v-129l-5 -5h-600l-5 5l355 555h-340l-5 5v130z" />
    <glyph glyph-name="bracketleft" unicode="[" horiz-adv-x="300" 
d="M25 720h230l5 -5v-130l-5 -5h-95v-700h95l5 -5v-130l-5 -5h-230l-5 5v970z" />
    <glyph glyph-name="backslash" unicode="\" horiz-adv-x="360" 
d="M15 700h129l5 -5l200 -940l-5 -5h-129l-5 5l-200 940z" />
    <glyph glyph-name="bracketright" unicode="]" horiz-adv-x="300" 
d="M45 720h230l5 -5v-970l-5 -5h-230l-5 5v130l5 5h95v700h-95l-5 5v130z" />
    <glyph glyph-name="asciicircum" unicode="^" horiz-adv-x="520" 
d="M202 700h115l5 -5l163 -390l-5 -5h-145l-5 5l-70 210l-70 -210l-5 -5h-145l-5 5l162 390z" />
    <glyph glyph-name="underscore" unicode="_" horiz-adv-x="500" 
d="M45 -50h410l5 -5v-130l-5 -5h-410l-5 5v130z" />
    <glyph glyph-name="grave" unicode="`" 
d="M104 690h156l10 -5l135 -145l-5 -5h-130l-10 5l-160 145z" />
    <glyph glyph-name="a" unicode="a" horiz-adv-x="510" 
d="M55 310l55 145q60 30 125 30q90 0 157.5 -52.5t67.5 -147.5v-280l-5 -5h-130l-5 5v15q-56 -35 -115 -35q-65 0 -115 36.5t-50 108.5q0 85 77 128t203 47q0 21 -26 40.5t-64 19.5q-80 0 -170 -60zM320 135v75q-140 -7 -140 -65q0 -18 14.5 -29t30.5 -11q43 0 95 30z" />
    <glyph glyph-name="b" unicode="b" horiz-adv-x="600" 
d="M65 700h130l5 -5v-245q56 35 120 35q103 0 171.5 -72.5t68.5 -177.5t-68.5 -177.5t-171.5 -72.5q-64 0 -120 35v-15l-5 -5h-130l-5 5v690zM200 290v-110q40 -60 110 -60q46 0 78 34t32 81t-32 81t-78 34q-65 0 -110 -60z" />
    <glyph glyph-name="c" unicode="c" horiz-adv-x="500" 
d="M460 300l-5 -5q-69 55 -155 55q-55 0 -87.5 -32.5t-32.5 -82.5t32.5 -82.5t87.5 -32.5q86 0 155 55l5 -5v-135q-67 -50 -160 -50q-114 0 -187 72.5t-73 177.5t73 177.5t187 72.5q93 0 160 -50v-135z" />
    <glyph glyph-name="d" unicode="d" horiz-adv-x="600" 
d="M405 700h130l5 -5v-690l-5 -5h-130l-5 5v15q-56 -35 -120 -35q-103 0 -171.5 72.5t-68.5 177.5t68.5 177.5t171.5 72.5q64 0 120 -35v245zM400 180v110q-45 60 -110 60q-46 0 -78 -34t-32 -81t32 -81t78 -34q70 0 110 60z" />
    <glyph glyph-name="e" unicode="e" horiz-adv-x="550" 
d="M495 160v-125q-75 -50 -180 -50q-122 0 -198.5 72.5t-76.5 182.5q0 104 67.5 174.5t177.5 70.5q101 0 163 -68t62 -147q0 -45 -5 -65l-5 -5h-320q20 -95 135 -95q95 0 175 60zM185 300h185q-4 27 -28 46t-57 19q-72 0 -100 -65z" />
    <glyph glyph-name="f" unicode="f" horiz-adv-x="440" 
d="M25 470h75v10q0 107 58.5 171t161.5 64q54 0 100 -20v-140l-5 -5q-41 30 -83 30q-92 0 -92 -105v-5h175l5 -5v-130l-5 -5h-175v-325l-5 -5h-130l-5 5v325h-75l-5 5v131z" />
    <glyph glyph-name="g" unicode="g" horiz-adv-x="500" 
d="M480 470l5 -5v-110l-5 -5h-47q7 -28 7 -50q0 -77 -55.5 -131t-134.5 -54q-18 0 -35 5q-10 -10 -10 -20t30 -17.5t72.5 -17t85 -26t72.5 -55t30 -94.5q0 -74 -64 -114.5t-171 -40.5q-255 0 -255 145q0 41 25 77t70 58q-35 26 -35 75q0 48 45 85q-50 50 -50 125
q0 77 55.5 131t134.5 54q37 0 75 -15h155zM195 -20q-50 -34 -50 -80q0 -45 115 -45q47 0 71 12.5t24 32.5q0 22 -26.5 36.5t-74 26.5t-59.5 17zM250 365q-27 0 -46 -19t-19 -46t19 -46t46 -19t46 19t19 46t-19 46t-46 19z" />
    <glyph glyph-name="h" unicode="h" horiz-adv-x="600" 
d="M65 700h130l5 -5v-245q61 35 125 35q110 0 167.5 -58.5t57.5 -161.5v-260l-5 -5h-130l-5 5v235q0 110 -100 110q-65 0 -110 -50v-295l-5 -5h-130l-5 5v690z" />
    <glyph glyph-name="i" unicode="i" horiz-adv-x="260" 
d="M65 470h130l5 -5v-460l-5 -5h-130l-5 5v460zM125 705h10l90 -90v-10l-90 -90h-10l-90 90v10z" />
    <glyph glyph-name="j" unicode="j" horiz-adv-x="260" 
d="M65 470h130l5 -5v-535q0 -96 -48.5 -145.5t-136.5 -49.5q-35 0 -55 10v130l5 5q20 -10 40 -10q27 0 41 18.5t14 76.5v500zM125 705h10l90 -90v-10l-90 -90h-10l-90 90v10z" />
    <glyph glyph-name="k" unicode="k" horiz-adv-x="540" 
d="M65 700h130l5 -5v-375l140 145l10 5h155l5 -5l-205 -205l225 -255l-5 -5h-155l-10 5l-160 175v-175l-5 -5h-130l-5 5v690z" />
    <glyph glyph-name="l" unicode="l" horiz-adv-x="360" 
d="M55 700h130l5 -5v-505q0 -33 16.5 -51.5t43.5 -18.5q55 0 95 40l5 -5v-140q-50 -30 -105 -30q-95 0 -145 53t-50 142v515z" />
    <glyph glyph-name="m" unicode="m" horiz-adv-x="910" 
d="M65 470h130l5 -5v-15q61 35 115 35q113 0 170 -65q73 65 160 65q109 0 162 -57.5t53 -162.5v-260l-5 -5h-130l-5 5v235q0 56 -24 83t-61 27q-55 0 -105 -50v-295l-5 -5h-130l-5 5v235q0 56 -24 83t-61 27q-55 0 -105 -50v-295l-5 -5h-130l-5 5v460z" />
    <glyph glyph-name="n" unicode="n" horiz-adv-x="600" 
d="M65 470h130l5 -5v-15q61 35 125 35q110 0 167.5 -58.5t57.5 -161.5v-260l-5 -5h-130l-5 5v235q0 110 -100 110q-65 0 -110 -50v-295l-5 -5h-130l-5 5v460z" />
    <glyph glyph-name="o" unicode="o" 
d="M290 485q105 0 177.5 -72.5t72.5 -177.5t-72.5 -177.5t-177.5 -72.5t-177.5 72.5t-72.5 177.5t72.5 177.5t177.5 72.5zM290 350q-48 0 -79 -33t-31 -82t31 -82t79 -33t79 33t31 82t-31 82t-79 33z" />
    <glyph glyph-name="p" unicode="p" horiz-adv-x="600" 
d="M65 470h130l5 -5v-15q56 35 120 35q103 0 171.5 -72.5t68.5 -177.5t-68.5 -177.5t-171.5 -72.5q-64 0 -120 35v-245l-5 -5h-130l-5 5v690zM200 290v-110q40 -60 110 -60q46 0 78 34t32 81t-32 81t-78 34q-65 0 -110 -60z" />
    <glyph glyph-name="q" unicode="q" horiz-adv-x="600" 
d="M405 470h130l5 -5v-690l-5 -5h-130l-5 5v245q-56 -35 -120 -35q-103 0 -171.5 72.5t-68.5 177.5t68.5 177.5t171.5 72.5q64 0 120 -35v15zM400 180v110q-45 60 -110 60q-46 0 -78 -34t-32 -81t32 -81t78 -34q70 0 110 60z" />
    <glyph glyph-name="r" unicode="r" horiz-adv-x="430" 
d="M65 470h130l5 -5v-15q61 35 125 35q50 0 90 -20l5 -140l-5 -5q-36 30 -105 30q-65 0 -110 -50v-295l-5 -5h-130l-5 5v460z" />
    <glyph glyph-name="s" unicode="s" horiz-adv-x="470" 
d="M390 315l-5 -5q-77 45 -150 45q-45 0 -45 -30q0 -12 24.5 -19t60 -14t71 -20.5t60 -45.5t24.5 -81q0 -66 -54 -113t-141 -47q-113 0 -180 45v136l5 4q86 -55 175 -55q55 0 55 30q0 15 -24.5 23.5t-60 16.5t-71 20.5t-60 43t-24.5 76.5q0 64 51 112t134 48q91 0 155 -40
v-130z" />
    <glyph glyph-name="t" unicode="t" horiz-adv-x="450" 
d="M110 590h130l5 -6v-114h180l5 -5v-130l-5 -5h-180v-110q0 -100 75 -100q56 0 105 35l5 -5v-135q-20 -12 -53 -21t-57 -9q-108 0 -161.5 59t-53.5 161v125h-80l-5 5v130l5 5h80v115z" />
    <glyph glyph-name="u" unicode="u" horiz-adv-x="600" 
d="M55 470h130l5 -5v-235q0 -110 100 -110q65 0 110 50v295l5 5h130l5 -5v-460l-5 -5h-130l-5 5v15q-61 -35 -125 -35q-110 0 -167.5 58.5t-57.5 161.5v260z" />
    <glyph glyph-name="v" unicode="v" horiz-adv-x="520" 
d="M15 470h145l5 -5l95 -275l95 275l5 5h145l5 -5l-185 -460l-5 -5h-120l-5 5l-185 460z" />
    <glyph glyph-name="w" unicode="w" horiz-adv-x="820" 
d="M14 470h146l5 -5l95 -275l90 255l5 5h110l5 -5l90 -255l95 275l5 5h146l4 -5l-185 -460l-5 -5h-120l-5 5l-85 225l-85 -225l-5 -5h-120l-5 5l-185 460z" />
    <glyph glyph-name="x" unicode="x" horiz-adv-x="520" 
d="M25 470h155l10 -5l70 -100l70 100l10 5h155l5 -5l-160 -220l170 -240l-5 -5h-155l-10 5l-80 115l-80 -115l-10 -5h-155l-5 5l170 240l-160 220z" />
    <glyph glyph-name="y" unicode="y" horiz-adv-x="560" 
d="M15 470h145l10 -5l110 -255l110 255l10 5h145l5 -5l-280 -580q-71 -125 -240 -125l-5 7v118l5 5q90 0 125 70l50 100l-195 405z" />
    <glyph glyph-name="z" unicode="z" horiz-adv-x="460" 
d="M35 470h400l5 -5l-195 -325h190l5 -5v-130l-5 -5h-420l-5 5l195 325h-171l-4 5v130z" />
    <glyph glyph-name="braceleft" unicode="{" horiz-adv-x="400" 
d="M360 715v-130l-5 -5q-35 0 -52.5 -24t-17.5 -56q0 -14 6.5 -52.5t6.5 -67.5q0 -92 -83 -150q83 -59 83 -150q0 -29 -6.5 -67.5t-6.5 -52.5q0 -32 17.5 -56t52.5 -24l5 -5v-130l-5 -5q-92 0 -153.5 54t-61.5 166q0 14 5 52.5t5 67.5q0 36 -26 58t-79 22l-5 5v130l5 5
q53 0 79 22t26 58q0 29 -5 67.5t-5 52.5q0 112 61.5 166t153.5 54z" />
    <glyph glyph-name="bar" unicode="|" horiz-adv-x="260" 
d="M65 700h130l5 -5v-990l-5 -5h-130l-5 5v990z" />
    <glyph glyph-name="braceright" unicode="}" horiz-adv-x="400" 
d="M40 715l5 5q92 0 153.5 -54t61.5 -166q0 -14 -5 -52.5t-5 -67.5q0 -36 26 -58t79 -22l5 -5v-130l-5 -5q-53 0 -79 -22t-26 -58q0 -29 5 -67.5t5 -52.5q0 -112 -61.5 -166t-153.5 -54l-5 5v130l5 5q35 0 52.5 24t17.5 56q0 14 -6.5 52.5t-6.5 67.5q0 91 83 150
q-83 58 -83 150q0 29 6.5 67.5t6.5 52.5q0 32 -17.5 56t-52.5 24l-5 5v130z" />
    <glyph glyph-name="asciitilde" unicode="~" horiz-adv-x="520" 
d="M467 427l5 -5q-55 -137 -147 -137q-29 0 -93.5 18.5t-124.5 18.5q-25 0 -55 -20l-5 5q58 138 148 138q28 0 92.5 -19t124.5 -19q25 0 55 20z" />
    <glyph glyph-name="uni00A0" unicode="&#xa0;" horiz-adv-x="300" 
 />
    <glyph glyph-name="exclamdown" unicode="&#xa1;" horiz-adv-x="260" 
d="M195 -240h-130l-5 5v115l20 365l5 5h90l5 -5l20 -365v-115zM135 325h-10l-80 80v10l80 80h10l80 -80v-10z" />
    <glyph glyph-name="cent" unicode="&#xa2;" horiz-adv-x="510" 
d="M245 700h110l5 -5v-95q61 -12 105 -45v-135l-5 -5q-39 33 -100 50v-220q61 17 100 50l5 -5v-135q-47 -35 -105 -45v-105l-5 -5h-110l-5 5v107q-89 20 -142 87t-53 156t53.5 156t141.5 86v98zM240 255v200q-55 -31 -55 -100t55 -100z" />
    <glyph glyph-name="sterling" unicode="&#xa3;" horiz-adv-x="628" 
d="M445 505h-10q-4 30 -20.5 47.5t-39.5 17.5q-34 0 -51 -40.5t-27 -144.5h148l5 -5l-50 -130l-5 -5h-110q-6 -64 -20 -105h350l5 -5l-75 -130l-10 -5h-510l-5 5q46 38 77 102t38 138h-80l-5 5l50 130l5 5h45q19 179 67.5 254.5t157.5 75.5q83 0 140 -65z" />
    <glyph glyph-name="currency" unicode="&#xa4;" horiz-adv-x="520" 
d="M95 615h10l60 -62q44 19 90 19q50 0 96 -22l64 65h10l85 -85v-10l-62 -63q24 -43 24 -97t-24 -97l62 -63v-10l-85 -85h-10l-64 65q-46 -22 -96 -22q-46 0 -90 19l-60 -62h-10l-85 85v10l55 56q-28 48 -28 104t28 103l-55 57v10zM255 447q-35 0 -60.5 -25.5t-25.5 -61.5
t25.5 -61.5t60.5 -25.5t60.5 25.5t25.5 61.5t-25.5 61.5t-60.5 25.5z" />
    <glyph glyph-name="yen" unicode="&#xa5;" horiz-adv-x="560" 
d="M15 700h145l10 -5l110 -205l110 206l10 4h145l5 -5l-150 -250h105l5 -5v-130l-5 -5h-155v-60h155l5 -5v-130l-5 -5h-155v-100l-5 -5h-130l-5 5v100h-155l-5 5v130l5 5h155v60h-155l-5 5v130l5 5h105l-150 250z" />
    <glyph glyph-name="brokenbar" unicode="&#xa6;" horiz-adv-x="260" 
d="M65 700h130l5 -5v-430l-5 -5h-130l-5 5v430zM65 140h130l5 -5v-430l-5 -5h-130l-5 5v430z" />
    <glyph glyph-name="section" unicode="&#xa7;" horiz-adv-x="600" 
d="M410 535h-5q-26 22 -44.5 31t-45.5 9q-40 0 -40 -35q0 -18 29 -37t70 -40t82 -48.5t70 -75.5t29 -109q0 -94 -95 -170v-15q0 -79 -55.5 -129.5t-144.5 -50.5q-65 0 -119.5 33t-80.5 92l110 80h5q21 -38 40.5 -51.5t44.5 -13.5q23 0 36.5 10.5t13.5 29.5q0 21 -27.5 40.5
t-66 39t-77.5 45.5t-66.5 72.5t-27.5 107.5q0 96 80 160v30q0 79 55.5 127t134.5 48q57 0 98.5 -23t86.5 -72zM215 395q-20 -20 -20 -45q0 -36 28 -60t82.5 -52t84.5 -53q15 15 15 45q0 36 -26.5 59.5t-80 52.5t-83.5 53z" />
    <glyph glyph-name="dieresis" unicode="&#xa8;" 
d="M170 695h10l80 -80v-10l-80 -80h-10l-80 80v10zM400 695h10l80 -80v-10l-80 -80h-10l-80 80v10z" />
    <glyph glyph-name="copyright" unicode="&#xa9;" horiz-adv-x="800" 
d="M400 715q148 0 254 -105t106 -260t-106 -260t-254 -105t-254 105t-106 260t106 260t254 105zM400 595q-95 0 -162.5 -70.5t-67.5 -174.5t67.5 -174.5t162.5 -70.5t162.5 70.5t67.5 174.5t-67.5 174.5t-162.5 70.5zM510 395l-5 -5q-37 30 -95 30q-26 0 -45.5 -19.5
t-19.5 -45.5t19.5 -45.5t45.5 -19.5q51 0 95 35l5 -7v-123q-40 -30 -100 -30q-81 0 -138 55.5t-57 134.5t57 134.5t138 55.5q67 0 100 -25v-125z" />
    <glyph glyph-name="ordfeminine" unicode="&#xaa;" horiz-adv-x="400" 
d="M255 710h110l5 -5v-300l-5 -5h-110l-5 5v5q-22 -15 -60 -15q-61 0 -108 47t-47 113t47 113t108 47q38 0 60 -15v5zM250 530v50q-19 25 -50 25q-21 0 -35.5 -14.5t-14.5 -35.5t14.5 -35.5t35.5 -14.5q31 0 50 25zM50 365h315l5 -5v-110l-5 -5h-315l-5 5v110z" />
    <glyph glyph-name="guillemotleft" unicode="&#xab;" horiz-adv-x="480" 
d="M225 435l5 -5v-150l-45 -45l45 -45v-150l-5 -5l-195 195v10zM425 435l5 -5v-150l-45 -45l45 -45v-150l-5 -5l-195 195v10z" />
    <glyph glyph-name="logicalnot" unicode="&#xac;" horiz-adv-x="520" 
d="M70 415h380l5 -5v-235l-5 -5h-130l-5 5v100h-245l-5 5v130z" />
    <glyph glyph-name="uni00AD" unicode="&#xad;" horiz-adv-x="400" 
d="M45 305h310l5 -5v-130l-5 -5h-310l-5 5v130z" />
    <glyph glyph-name="registered" unicode="&#xae;" horiz-adv-x="520" 
d="M260 730q91 0 155.5 -64.5t64.5 -155.5t-64.5 -155.5t-155.5 -64.5t-155.5 64.5t-64.5 155.5t64.5 155.5t155.5 64.5zM260 655q-59 0 -99.5 -42t-40.5 -103t40.5 -103t99.5 -42q58 0 99 42t41 103t-41 103t-99 42zM185 625h70q35 0 62.5 -22t27.5 -63q0 -37 -35 -65
l40 -70l-5 -5h-55l-10 5l-30 60h-10v-60l-5 -5h-50l-5 5v215zM240 565v-50h15q25 0 25 25q0 11 -7 18t-18 7h-15z" />
    <glyph glyph-name="macron" unicode="&#xaf;" 
d="M125 670h330l5 -5v-110l-5 -5h-330l-5 5v110z" />
    <glyph glyph-name="degree" unicode="&#xb0;" horiz-adv-x="400" 
d="M200 725q68 0 116.5 -46.5t48.5 -113.5t-48.5 -113.5t-116.5 -46.5t-116.5 46.5t-48.5 113.5t48.5 113.5t116.5 46.5zM200 600q-15 0 -25 -10t-10 -25t10 -25t25 -10t25 10t10 25t-10 25t-25 10z" />
    <glyph glyph-name="plusminus" unicode="&#xb1;" horiz-adv-x="520" 
d="M195 580h130l5 -5v-120h120l5 -5v-130l-5 -5h-120v-120l-5 -5h-130l-5 5v120h-120l-5 5v130l5 5h120v120zM70 140h380l5 -5v-130l-5 -5h-380l-5 5v130z" />
    <glyph glyph-name="twosuperior" unicode="&#xb2;" horiz-adv-x="330" 
d="M40 705v135q44 35 105 35q56 0 100.5 -42.5t44.5 -107.5q0 -49 -48 -135l-17 -30h60l5 -5v-110l-5 -5h-260l-5 5l117 190q28 49 28 80q0 16 -11 28t-29 12q-28 0 -46 -13.5t-34 -41.5z" />
    <glyph glyph-name="threesuperior" unicode="&#xb3;" horiz-adv-x="340" 
d="M35 860h275l5 -5l-80 -150q80 -44 80 -130q0 -62 -47 -106t-108 -44q-87 0 -135 65l75 85h5q24 -30 55 -30q15 0 25 11t10 29q0 40 -45 40q-30 0 -60 -10l-5 5l60 120h-110l-5 5v110z" />
    <glyph glyph-name="acute" unicode="&#xb4;" 
d="M320 690h156l4 -5l-160 -145l-10 -5h-130l-5 5l135 145z" />
    <glyph glyph-name="mu" unicode="&#xb5;" horiz-adv-x="610" 
d="M65 470h130l5 -5v-235q0 -110 100 -110q65 0 110 50v184v111l5 5h130l5 -5v-115q0 -240 25 -345l-5 -5h-130l-5 5l-5 30q-64 -50 -145 -50q-50 0 -85 10v-220l-5 -5h-130l-5 5v690z" />
    <glyph glyph-name="paragraph" unicode="&#xb6;" horiz-adv-x="740" 
d="M655 700l5 -5v-690l-5 -5h-130l-5 5v555h-120v-555l-5 -5h-130l-5 5v245q-101 4 -160.5 69.5t-59.5 155.5q0 96 62.5 160.5t177.5 64.5h375z" />
    <glyph glyph-name="periodcentered" unicode="&#xb7;" horiz-adv-x="260" 
d="M65 460h130l5 -5v-130l-5 -5h-130l-5 5v130z" />
    <glyph glyph-name="cedilla" unicode="&#xb8;" 
d="M235 0h105l-10 -40q55 -28 55 -90q0 -51 -40 -83t-95 -32q-64 0 -95 50l50 60h5q22 -15 40 -15q25 0 25 20q0 8 -6 14.5t-21.5 11t-42.5 -5.5l-5 5z" />
    <glyph glyph-name="onesuperior" unicode="&#xb9;" horiz-adv-x="240" 
d="M175 865l5 -5v-415l-5 -5h-110l-5 5v315l5 10z" />
    <glyph glyph-name="ordmasculine" unicode="&#xba;" horiz-adv-x="400" 
d="M200 715q68 0 116.5 -46.5t48.5 -113.5t-48.5 -113.5t-116.5 -46.5t-116.5 46.5t-48.5 113.5t48.5 113.5t116.5 46.5zM200 605q-20 0 -35 -14t-15 -36t15 -36t35 -14t35 14t15 36t-15 36t-35 14zM50 365h310l5 -5v-110l-5 -5h-310l-5 5v110z" />
    <glyph glyph-name="guillemotright" unicode="&#xbb;" horiz-adv-x="480" 
d="M50 430l5 5l195 -195v-10l-195 -195l-5 5v150l45 45l-45 45v150zM250 430l5 5l195 -195v-10l-195 -195l-5 5v150l45 45l-45 45v150z" />
    <glyph glyph-name="onequarter" unicode="&#xbc;" horiz-adv-x="800" 
d="M175 705l5 -5v-415l-5 -5h-110l-5 5v315l5 10zM505 700h145l5 -5l-391 -690l-10 -5h-144l-5 5l390 690zM715 450l5 -5v-280h55l5 -5v-90l-5 -5h-55v-60l-5 -5h-90l-5 5v60h-215l-5 5zM620 240l-60 -75h60v75z" />
    <glyph glyph-name="onehalf" unicode="&#xbd;" horiz-adv-x="800" 
d="M175 705l5 -5v-415l-5 -5h-110l-5 5v315l5 10zM485 700h145l5 -5l-391 -690l-10 -5h-144l-5 5l390 690zM520 265v135q44 35 105 35q56 0 100.5 -42.5t44.5 -107.5q0 -49 -48 -135l-17 -30h60l5 -5v-110l-5 -5h-260l-5 5l117 190q28 49 28 80q0 16 -11 28t-29 12
q-28 0 -46 -13.5t-34 -41.5z" />
    <glyph glyph-name="threequarters" unicode="&#xbe;" horiz-adv-x="800" 
d="M35 700h275l5 -5l-80 -150q80 -44 80 -130q0 -62 -47 -106t-108 -44q-87 0 -135 65l75 85h5q24 -30 55 -30q15 0 25 11t10 29q0 40 -45 40q-30 0 -60 -10l-5 5l60 120h-110l-5 5v110zM545 700h145l5 -5l-391 -690l-10 -5h-144l-5 5l390 690zM715 450l5 -5v-280h55l5 -5
v-90l-5 -5h-55v-60l-5 -5h-90l-5 5v60h-215l-5 5zM620 240l-60 -75h60v75z" />
    <glyph glyph-name="questiondown" unicode="&#xbf;" horiz-adv-x="460" 
d="M340 -65l85 -65q-27 -57 -73.5 -91t-101.5 -34q-97 0 -156 50.5t-59 129.5q0 51 21 95t46.5 68.5t46.5 49.5t21 42q0 26 -22 43l85 87q87 -54 87 -130q0 -32 -13.5 -58t-32.5 -44.5l-38 -37t-32.5 -42.5t-13.5 -53q0 -27 15.5 -43.5t44.5 -16.5q51 0 80 50h10zM235 325
h-10l-80 80v10l80 80h10l80 -80v-10z" />
    <glyph glyph-name="Agrave" unicode="&#xc0;" horiz-adv-x="700" 
d="M280 700h140l5 -5l265 -690l-5 -5h-155l-5 5l-50 140h-250l-50 -140l-5 -5h-155l-5 5l265 690zM350 520l-80 -235h160zM154 905h166l10 -5l135 -125l-5 -5h-140l-10 5l-160 125z" />
    <glyph glyph-name="Aacute" unicode="&#xc1;" horiz-adv-x="700" 
d="M280 700h140l5 -5l265 -690l-5 -5h-155l-5 5l-50 140h-250l-50 -140l-5 -5h-155l-5 5l265 690zM350 520l-80 -235h160zM380 905h166l4 -5l-160 -125l-10 -5h-140l-5 5l135 125z" />
    <glyph glyph-name="Acircumflex" unicode="&#xc2;" horiz-adv-x="700" 
d="M280 700h140l5 -5l265 -690l-5 -5h-155l-5 5l-50 140h-250l-50 -140l-5 -5h-155l-5 5l265 690zM350 520l-80 -235h160zM280 905h140l10 -5l120 -125l-5 -5h-140l-10 5l-45 55l-45 -55l-10 -5h-140l-5 5l120 123z" />
    <glyph glyph-name="Atilde" unicode="&#xc3;" horiz-adv-x="700" 
d="M280 700h140l5 -5l265 -690l-5 -5h-155l-5 5l-50 140h-250l-50 -140l-5 -5h-155l-5 5l265 690zM350 520l-80 -235h160zM565 906l5 -5q-16 -60 -53.5 -97.5t-91.5 -37.5q-36 0 -107 20t-103 20q-53 0 -80 -40l-5 5q16 60 53.5 97.5t91.5 37.5q36 0 107 -20t103 -20
q53 0 80 40z" />
    <glyph glyph-name="Adieresis" unicode="&#xc4;" horiz-adv-x="700" 
d="M280 700h140l5 -5l265 -690l-5 -5h-155l-5 5l-50 140h-250l-50 -140l-5 -5h-155l-5 5l265 690zM350 520l-80 -235h160zM210 930h10l85 -85v-10l-85 -85h-10l-85 85v10zM480 930h10l85 -85v-10l-85 -85h-10l-85 85v10z" />
    <glyph glyph-name="Aring" unicode="&#xc5;" horiz-adv-x="700" 
d="M280 700h140l5 -5l265 -690l-5 -5h-155l-5 5l-50 140h-250l-50 -140l-5 -5h-155l-5 5l265 690zM350 520l-80 -235h160zM350 920q38 0 66.5 -26.5t28.5 -63.5t-28.5 -63.5t-66.5 -26.5t-66.5 26.5t-28.5 63.5t28.5 63.5t66.5 26.5zM350 855q-25 0 -25 -25t25 -25t25 25
t-25 25z" />
    <glyph glyph-name="AE" unicode="&#xc6;" horiz-adv-x="1060" 
d="M540 700h475l5 -5v-130l-5 -5h-335v-130h245l5 -5v-130l-5 -5h-245v-150h345l5 -5v-130l-5 -5h-480l-5 5v140h-250l-100 -140l-10 -5h-165l-5 5l520 690zM540 490l-150 -205h150v205z" />
    <glyph glyph-name="Ccedilla" unicode="&#xc7;" horiz-adv-x="710" 
d="M650 495l-5 -5q-95 80 -235 80q-90 0 -152.5 -65t-62.5 -155t62.5 -155t152.5 -65q140 0 235 80l5 -5v-155q-90 -65 -240 -65q-153 0 -261.5 107t-108.5 258t108.5 258t261.5 107q150 0 240 -65v-155zM357 -60h128l5 -5l-53 -165l-5 -5h-100l-5 5l20 165z" />
    <glyph glyph-name="Egrave" unicode="&#xc8;" 
d="M65 700h470l5 -5v-130l-5 -5h-335v-125h245l5 -5v-130l-5 -5h-245v-155h345l5 -5v-130l-5 -5h-480l-5 5v690zM114 905h166l10 -5l135 -125l-5 -5h-140l-10 5l-160 125z" />
    <glyph glyph-name="Eacute" unicode="&#xc9;" 
d="M65 700h470l5 -5v-130l-5 -5h-335v-125h245l5 -5v-130l-5 -5h-245v-155h345l5 -5v-130l-5 -5h-480l-5 5v690zM340 905h166l4 -5l-160 -125l-10 -5h-140l-5 5l135 125z" />
    <glyph glyph-name="Ecircumflex" unicode="&#xca;" 
d="M65 700h470l5 -5v-130l-5 -5h-335v-125h245l5 -5v-130l-5 -5h-245v-155h345l5 -5v-130l-5 -5h-480l-5 5v690zM240 905h140l10 -5l120 -125l-5 -5h-140l-10 5l-45 55l-45 -55l-10 -5h-140l-5 5l120 123z" />
    <glyph glyph-name="Edieresis" unicode="&#xcb;" 
d="M65 700h470l5 -5v-130l-5 -5h-335v-125h245l5 -5v-130l-5 -5h-245v-155h345l5 -5v-130l-5 -5h-480l-5 5v690zM170 930h10l85 -85v-10l-85 -85h-10l-85 85v10zM440 930h10l85 -85v-10l-85 -85h-10l-85 85v10z" />
    <glyph glyph-name="Igrave" unicode="&#xcc;" horiz-adv-x="260" 
d="M65 700h130l5 -5v-690l-5 -5h-130l-5 5v690zM-51 905h176l10 -5l110 -125l-5 -5h-145l-10 5l-140 125z" />
    <glyph glyph-name="Iacute" unicode="&#xcd;" horiz-adv-x="260" 
d="M65 700h130l5 -5v-690l-5 -5h-130l-5 5v690zM135 905h176l4 -5l-140 -125l-10 -5h-145l-5 5l110 125z" />
    <glyph glyph-name="Icircumflex" unicode="&#xce;" horiz-adv-x="260" 
d="M65 700h130l5 -5v-690l-5 -5h-130l-5 5v690zM57 905h145l10 -5l100 -125l-5 -5h-135l-10 5l-32 37l-33 -37l-10 -5h-135l-5 5l100 125z" />
    <glyph glyph-name="Idieresis" unicode="&#xcf;" horiz-adv-x="260" 
d="M65 700h130l5 -5v-690l-5 -5h-130l-5 5v690zM20 930h10l85 -85v-10l-85 -85h-10l-85 85v10zM230 930h10l85 -85v-10l-85 -85h-10l-85 85v10z" />
    <glyph glyph-name="Eth" unicode="&#xd0;" horiz-adv-x="710" 
d="M65 700h235q159 0 264.5 -101.5t105.5 -248.5t-105.5 -248.5t-264.5 -101.5h-235l-5 5v280h-55l-5 5v130l5 5h55v270zM200 560v-135h155l5 -5v-130l-5 -5h-155v-145h100q98 0 159 58t61 152t-61 152t-159 58h-100z" />
    <glyph glyph-name="Ntilde" unicode="&#xd1;" horiz-adv-x="760" 
d="M65 700h135l10 -5l350 -455v455l5 5h130l5 -5v-690l-5 -5h-135l-10 5l-350 455v-455l-5 -5h-130l-5 5v690zM605 906l5 -5q-16 -60 -53.5 -97.5t-91.5 -37.5q-36 0 -107 20t-103 20q-53 0 -80 -40l-5 5q16 60 53.5 97.5t91.5 37.5q36 0 107 -20t103 -20q53 0 80 40z" />
    <glyph glyph-name="Ograve" unicode="&#xd2;" horiz-adv-x="820" 
d="M410 715q154 0 262 -106t108 -259t-108 -259t-262 -106t-262 106t-108 259t108 259t262 106zM410 570q-90 0 -152.5 -63.5t-62.5 -156.5t62.5 -156.5t152.5 -63.5t152.5 63.5t62.5 156.5t-62.5 156.5t-152.5 63.5zM214 905h166l10 -5l135 -125l-5 -5h-140l-10 5l-160 125
z" />
    <glyph glyph-name="Oacute" unicode="&#xd3;" horiz-adv-x="820" 
d="M410 715q154 0 262 -106t108 -259t-108 -259t-262 -106t-262 106t-108 259t108 259t262 106zM410 570q-90 0 -152.5 -63.5t-62.5 -156.5t62.5 -156.5t152.5 -63.5t152.5 63.5t62.5 156.5t-62.5 156.5t-152.5 63.5zM440 905h166l4 -5l-160 -125l-10 -5h-140l-5 5l135 125z
" />
    <glyph glyph-name="Ocircumflex" unicode="&#xd4;" horiz-adv-x="820" 
d="M410 715q154 0 262 -106t108 -259t-108 -259t-262 -106t-262 106t-108 259t108 259t262 106zM410 570q-90 0 -152.5 -63.5t-62.5 -156.5t62.5 -156.5t152.5 -63.5t152.5 63.5t62.5 156.5t-62.5 156.5t-152.5 63.5zM340 905h140l10 -5l120 -125l-5 -5h-140l-10 5l-45 55
l-45 -55l-10 -5h-140l-5 5l120 123z" />
    <glyph glyph-name="Otilde" unicode="&#xd5;" horiz-adv-x="820" 
d="M410 715q154 0 262 -106t108 -259t-108 -259t-262 -106t-262 106t-108 259t108 259t262 106zM410 570q-90 0 -152.5 -63.5t-62.5 -156.5t62.5 -156.5t152.5 -63.5t152.5 63.5t62.5 156.5t-62.5 156.5t-152.5 63.5zM625 906l5 -5q-16 -60 -53.5 -97.5t-91.5 -37.5
q-36 0 -107 20t-103 20q-53 0 -80 -40l-5 5q16 60 53.5 97.5t91.5 37.5q36 0 107 -20t103 -20q53 0 80 40z" />
    <glyph glyph-name="Odieresis" unicode="&#xd6;" horiz-adv-x="820" 
d="M410 715q154 0 262 -106t108 -259t-108 -259t-262 -106t-262 106t-108 259t108 259t262 106zM410 570q-90 0 -152.5 -63.5t-62.5 -156.5t62.5 -156.5t152.5 -63.5t152.5 63.5t62.5 156.5t-62.5 156.5t-152.5 63.5zM270 930h10l85 -85v-10l-85 -85h-10l-85 85v10zM540 930
h10l85 -85v-10l-85 -85h-10l-85 85v10z" />
    <glyph glyph-name="multiply" unicode="&#xd7;" horiz-adv-x="520" 
d="M150 565h10l100 -105l100 105h10l90 -90v-10l-105 -100l105 -100v-10l-90 -90h-10l-100 105l-100 -105h-10l-90 90v10l105 100l-105 100v10z" />
    <glyph glyph-name="Oslash" unicode="&#xd8;" horiz-adv-x="820" 
d="M410 715q111 0 204 -60l96 95h5l95 -95v-5l-94 -94q64 -93 64 -206q0 -153 -108 -259t-262 -106q-113 0 -205 60l-90 -90h-5l-100 100v5l90 89q-60 90 -60 201q0 153 108 259t262 106zM213 260l292 288q-44 22 -95 22q-90 0 -152.5 -63.5t-62.5 -156.5q0 -50 18 -90z
M605 445l-292 -292q44 -23 97 -23q90 0 152.5 63.5t62.5 156.5q0 50 -20 95z" />
    <glyph glyph-name="Ugrave" unicode="&#xd9;" horiz-adv-x="740" 
d="M65 700h130l5 -5v-365q0 -97 47.5 -148.5t122.5 -51.5t122.5 51.5t47.5 148.5v365l5 5h130l5 -5v-385q0 -149 -89 -237t-221 -88t-221 88t-89 237v385zM174 905h166l10 -5l135 -125l-5 -5h-140l-10 5l-160 125z" />
    <glyph glyph-name="Uacute" unicode="&#xda;" horiz-adv-x="740" 
d="M65 700h130l5 -5v-365q0 -97 47.5 -148.5t122.5 -51.5t122.5 51.5t47.5 148.5v365l5 5h130l5 -5v-385q0 -149 -89 -237t-221 -88t-221 88t-89 237v385zM400 905h166l4 -5l-160 -125l-10 -5h-140l-5 5l135 125z" />
    <glyph glyph-name="Ucircumflex" unicode="&#xdb;" horiz-adv-x="740" 
d="M65 700h130l5 -5v-365q0 -97 47.5 -148.5t122.5 -51.5t122.5 51.5t47.5 148.5v365l5 5h130l5 -5v-385q0 -149 -89 -237t-221 -88t-221 88t-89 237v385zM300 905h140l10 -5l120 -125l-5 -5h-140l-10 5l-45 55l-45 -55l-10 -5h-140l-5 5l120 123z" />
    <glyph glyph-name="Udieresis" unicode="&#xdc;" horiz-adv-x="740" 
d="M65 700h130l5 -5v-365q0 -97 47.5 -148.5t122.5 -51.5t122.5 51.5t47.5 148.5v365l5 5h130l5 -5v-385q0 -149 -89 -237t-221 -88t-221 88t-89 237v385zM230 930h10l85 -85v-10l-85 -85h-10l-85 85v10zM500 930h10l85 -85v-10l-85 -85h-10l-85 85v10z" />
    <glyph glyph-name="Yacute" unicode="&#xdd;" horiz-adv-x="640" 
d="M15 700h140l5 -5l160 -235l160 235l5 5h140l5 -5l-240 -380v-310l-5 -5h-130l-5 5v310l-240 380zM350 905h166l4 -5l-160 -125l-10 -5h-140l-5 5l135 125z" />
    <glyph glyph-name="Thorn" unicode="&#xde;" horiz-adv-x="560" 
d="M65 700h130l5 -5v-115h90q115 0 177.5 -64.5t62.5 -160.5t-62.5 -160.5t-177.5 -64.5h-90v-125l-5 -5h-130l-5 5v690zM200 440v-170h80q100 0 100 85t-100 85h-80z" />
    <glyph glyph-name="germandbls" unicode="&#xdf;" horiz-adv-x="620" 
d="M65 0l-5 5v475q0 107 59 171t151 64t146 -46t54 -119q0 -56 -27.5 -109.5t-27.5 -75.5q0 -17 17 -31.5t41 -28.5t48.5 -31.5t41.5 -51t17 -77.5q0 -66 -54 -113t-141 -47q-77 0 -140 35v140l5 5q79 -50 135 -50q25 0 37.5 9t12.5 21q0 21 -26 41.5t-56.5 37t-56.5 51
t-26 80.5q0 47 27.5 100.5t27.5 74.5q0 25 -15.5 38.5t-39.5 13.5q-70 0 -70 -107v-470l-5 -5h-130z" />
    <glyph glyph-name="agrave" unicode="&#xe0;" horiz-adv-x="510" 
d="M55 310l55 145q60 30 125 30q90 0 157.5 -52.5t67.5 -147.5v-280l-5 -5h-130l-5 5v15q-56 -35 -115 -35q-65 0 -115 36.5t-50 108.5q0 85 77 128t203 47q0 21 -26 40.5t-64 19.5q-80 0 -170 -60zM320 135v75q-140 -7 -140 -65q0 -18 14.5 -29t30.5 -11q43 0 95 30z
M64 690h156l10 -5l135 -145l-5 -5h-130l-10 5l-160 145z" />
    <glyph glyph-name="aacute" unicode="&#xe1;" horiz-adv-x="510" 
d="M55 310l55 145q60 30 125 30q90 0 157.5 -52.5t67.5 -147.5v-280l-5 -5h-130l-5 5v15q-56 -35 -115 -35q-65 0 -115 36.5t-50 108.5q0 85 77 128t203 47q0 21 -26 40.5t-64 19.5q-80 0 -170 -60zM320 135v75q-140 -7 -140 -65q0 -18 14.5 -29t30.5 -11q43 0 95 30z
M280 690h156l4 -5l-160 -145l-10 -5h-130l-5 5l135 145z" />
    <glyph glyph-name="acircumflex" unicode="&#xe2;" horiz-adv-x="510" 
d="M55 310l55 145q60 30 125 30q90 0 157.5 -52.5t67.5 -147.5v-280l-5 -5h-130l-5 5v15q-56 -35 -115 -35q-65 0 -115 36.5t-50 108.5q0 85 77 128t203 47q0 21 -26 40.5t-64 19.5q-80 0 -170 -60zM320 135v75q-140 -7 -140 -65q0 -18 14.5 -29t30.5 -11q43 0 95 30z
M190 690h120l10 -5l130 -145l-5 -5h-135l-10 5l-50 65l-50 -65l-10 -5h-135l-5 5l130 145z" />
    <glyph glyph-name="atilde" unicode="&#xe3;" horiz-adv-x="510" 
d="M55 310l55 145q60 30 125 30q90 0 157.5 -52.5t67.5 -147.5v-280l-5 -5h-130l-5 5v15q-56 -35 -115 -35q-65 0 -115 36.5t-50 108.5q0 85 77 128t203 47q0 21 -26 40.5t-64 19.5q-80 0 -170 -60zM320 135v75q-140 -7 -140 -65q0 -18 14.5 -29t30.5 -11q43 0 95 30z
M445 680l5 -5q-16 -59 -52 -97t-83 -38q-36 0 -97 20t-93 20q-43 0 -70 -40l-5 5q16 59 52 97t83 38q36 0 97 -20t93 -20q43 0 70 40z" />
    <glyph glyph-name="adieresis" unicode="&#xe4;" horiz-adv-x="510" 
d="M55 310l55 145q60 30 125 30q90 0 157.5 -52.5t67.5 -147.5v-280l-5 -5h-130l-5 5v15q-56 -35 -115 -35q-65 0 -115 36.5t-50 108.5q0 85 77 128t203 47q0 21 -26 40.5t-64 19.5q-80 0 -170 -60zM320 135v75q-140 -7 -140 -65q0 -18 14.5 -29t30.5 -11q43 0 95 30z
M130 695h10l80 -80v-10l-80 -80h-10l-80 80v10zM360 695h10l80 -80v-10l-80 -80h-10l-80 80v10z" />
    <glyph glyph-name="aring" unicode="&#xe5;" horiz-adv-x="510" 
d="M55 310l55 145q60 30 125 30q90 0 157.5 -52.5t67.5 -147.5v-280l-5 -5h-130l-5 5v15q-56 -35 -115 -35q-65 0 -115 36.5t-50 108.5q0 85 77 128t203 47q0 21 -26 40.5t-64 19.5q-80 0 -170 -60zM320 135v75q-140 -7 -140 -65q0 -18 14.5 -29t30.5 -11q43 0 95 30z
M250 725q49 0 84.5 -33.5t35.5 -81.5t-35.5 -81.5t-84.5 -33.5t-84.5 33.5t-35.5 81.5t35.5 81.5t84.5 33.5zM250 645q-15 0 -25 -10t-10 -25t10 -25t25 -10t25 10t10 25t-10 25t-25 10z" />
    <glyph glyph-name="ae" unicode="&#xe6;" horiz-adv-x="830" 
d="M55 310l55 145q60 30 125 30q105 0 165 -60q60 60 165 60t165 -70t60 -175q0 -20 -5 -35l-5 -5h-318q18 -95 133 -95q95 0 175 60l5 -5v-125q-75 -50 -180 -50q-124 0 -205 75q-30 -31 -76.5 -53t-98.5 -22q-72 0 -123.5 37t-51.5 113q0 152 280 170q0 21 -26 40.5
t-64 19.5q-80 0 -170 -60zM320 175v35q-150 -7 -150 -65q0 -18 16 -29t39 -11q41 0 68 20t27 50zM466 300h184q-4 27 -28 46t-57 19q-73 0 -99 -65z" />
    <glyph glyph-name="ccedilla" unicode="&#xe7;" horiz-adv-x="500" 
d="M460 300l-5 -5q-69 55 -155 55q-55 0 -87.5 -32.5t-32.5 -82.5t32.5 -82.5t87.5 -32.5q86 0 155 55l5 -5v-135q-67 -50 -160 -50q-114 0 -187 72.5t-73 177.5t73 177.5t187 72.5q93 0 160 -50v-135zM247 -60h128l5 -5l-53 -165l-5 -5h-100l-5 5l20 165z" />
    <glyph glyph-name="egrave" unicode="&#xe8;" horiz-adv-x="550" 
d="M495 160v-125q-75 -50 -180 -50q-122 0 -198.5 72.5t-76.5 182.5q0 104 67.5 174.5t177.5 70.5q101 0 163 -68t62 -147q0 -45 -5 -65l-5 -5h-320q20 -95 135 -95q95 0 175 60zM185 300h185q-4 27 -28 46t-57 19q-72 0 -100 -65zM94 690h156l10 -5l135 -145l-5 -5h-130
l-10 5l-160 145z" />
    <glyph glyph-name="eacute" unicode="&#xe9;" horiz-adv-x="550" 
d="M495 160v-125q-75 -50 -180 -50q-122 0 -198.5 72.5t-76.5 182.5q0 104 67.5 174.5t177.5 70.5q101 0 163 -68t62 -147q0 -45 -5 -65l-5 -5h-320q20 -95 135 -95q95 0 175 60zM185 300h185q-4 27 -28 46t-57 19q-72 0 -100 -65zM310 690h156l4 -5l-160 -145l-10 -5h-130
l-5 5l135 145z" />
    <glyph glyph-name="ecircumflex" unicode="&#xea;" horiz-adv-x="550" 
d="M495 160v-125q-75 -50 -180 -50q-122 0 -198.5 72.5t-76.5 182.5q0 104 67.5 174.5t177.5 70.5q101 0 163 -68t62 -147q0 -45 -5 -65l-5 -5h-320q20 -95 135 -95q95 0 175 60zM185 300h185q-4 27 -28 46t-57 19q-72 0 -100 -65zM220 690h120l10 -5l130 -145l-5 -5h-135
l-10 5l-50 65l-50 -65l-10 -5h-135l-5 5l130 145z" />
    <glyph glyph-name="edieresis" unicode="&#xeb;" horiz-adv-x="550" 
d="M495 160v-125q-75 -50 -180 -50q-122 0 -198.5 72.5t-76.5 182.5q0 104 67.5 174.5t177.5 70.5q101 0 163 -68t62 -147q0 -45 -5 -65l-5 -5h-320q20 -95 135 -95q95 0 175 60zM185 300h185q-4 27 -28 46t-57 19q-72 0 -100 -65zM160 695h10l80 -80v-10l-80 -80h-10
l-80 80v10zM390 695h10l80 -80v-10l-80 -80h-10l-80 80v10z" />
    <glyph glyph-name="igrave" unicode="&#xec;" horiz-adv-x="260" 
d="M65 470h130l5 -5v-460l-5 -5h-130l-5 5v460zM-36 690h151l10 -5l100 -145l-5 -5h-130l-10 5l-120 145z" />
    <glyph glyph-name="iacute" unicode="&#xed;" horiz-adv-x="260" 
d="M65 470h130l5 -5v-460l-5 -5h-130l-5 5v460zM145 690h151l4 -5l-120 -145l-10 -5h-130l-5 5l100 145z" />
    <glyph glyph-name="icircumflex" unicode="&#xee;" horiz-adv-x="260" 
d="M65 470h130l5 -5v-460l-5 -5h-130l-5 5v460zM72 690h115l10 -5l113 -145l-5 -5h-135l-10 5l-30 40l-30 -40l-10 -5h-135l-5 5l112 145z" />
    <glyph glyph-name="idieresis" unicode="&#xef;" horiz-adv-x="260" 
d="M25 695h10l80 -80v-10l-80 -80h-10l-80 80v10zM225 695h10l80 -80v-10l-80 -80h-10l-80 80v10zM65 470h130l5 -5v-460l-5 -5h-130l-5 5v460z" />
    <glyph glyph-name="eth" unicode="&#xf0;" 
d="M144 700h176q9 -7 25.5 -21t24.5 -19l135 50l5 -5v-113l-5 -10l-50 -17q85 -131 85 -290q0 -74 -22.5 -131.5t-60 -91t-81.5 -50.5t-91 -17q-101 0 -173 70.5t-72 169.5t72 169.5t173 70.5q36 0 75 -10q-16 41 -40 67l-145 -55l-5 5v113l5 10l55 20q-52 52 -91 80z
M395 280q-43 50 -110 50q-44 0 -72 -29.5t-28 -75.5t28 -75.5t72 -29.5q43 0 76.5 40.5t33.5 119.5z" />
    <glyph glyph-name="ntilde" unicode="&#xf1;" horiz-adv-x="600" 
d="M65 470h130l5 -5v-15q61 35 125 35q110 0 167.5 -58.5t57.5 -161.5v-260l-5 -5h-130l-5 5v235q0 110 -100 110q-65 0 -110 -50v-295l-5 -5h-130l-5 5v460zM505 680l5 -5q-16 -59 -52 -97t-83 -38q-36 0 -97 20t-93 20q-43 0 -70 -40l-5 5q16 59 52 97t83 38q36 0 97 -20
t93 -20q43 0 70 40z" />
    <glyph glyph-name="ograve" unicode="&#xf2;" 
d="M290 485q105 0 177.5 -72.5t72.5 -177.5t-72.5 -177.5t-177.5 -72.5t-177.5 72.5t-72.5 177.5t72.5 177.5t177.5 72.5zM290 350q-48 0 -79 -33t-31 -82t31 -82t79 -33t79 33t31 82t-31 82t-79 33zM104 690h156l10 -5l135 -145l-5 -5h-130l-10 5l-160 145z" />
    <glyph glyph-name="oacute" unicode="&#xf3;" 
d="M290 485q105 0 177.5 -72.5t72.5 -177.5t-72.5 -177.5t-177.5 -72.5t-177.5 72.5t-72.5 177.5t72.5 177.5t177.5 72.5zM290 350q-48 0 -79 -33t-31 -82t31 -82t79 -33t79 33t31 82t-31 82t-79 33zM320 690h156l4 -5l-160 -145l-10 -5h-130l-5 5l135 145z" />
    <glyph glyph-name="ocircumflex" unicode="&#xf4;" 
d="M290 485q105 0 177.5 -72.5t72.5 -177.5t-72.5 -177.5t-177.5 -72.5t-177.5 72.5t-72.5 177.5t72.5 177.5t177.5 72.5zM290 350q-48 0 -79 -33t-31 -82t31 -82t79 -33t79 33t31 82t-31 82t-79 33zM230 690h120l10 -5l130 -145l-5 -5h-135l-10 5l-50 65l-50 -65l-10 -5
h-135l-5 5l130 145z" />
    <glyph glyph-name="otilde" unicode="&#xf5;" 
d="M290 485q105 0 177.5 -72.5t72.5 -177.5t-72.5 -177.5t-177.5 -72.5t-177.5 72.5t-72.5 177.5t72.5 177.5t177.5 72.5zM290 350q-48 0 -79 -33t-31 -82t31 -82t79 -33t79 33t31 82t-31 82t-79 33zM485 680l5 -5q-16 -59 -52 -97t-83 -38q-36 0 -97 20t-93 20
q-43 0 -70 -40l-5 5q16 59 52 97t83 38q36 0 97 -20t93 -20q43 0 70 40z" />
    <glyph glyph-name="odieresis" unicode="&#xf6;" 
d="M290 485q105 0 177.5 -72.5t72.5 -177.5t-72.5 -177.5t-177.5 -72.5t-177.5 72.5t-72.5 177.5t72.5 177.5t177.5 72.5zM290 350q-48 0 -79 -33t-31 -82t31 -82t79 -33t79 33t31 82t-31 82t-79 33zM170 695h10l80 -80v-10l-80 -80h-10l-80 80v10zM400 695h10l80 -80v-10
l-80 -80h-10l-80 80v10z" />
    <glyph glyph-name="divide" unicode="&#xf7;" horiz-adv-x="520" 
d="M255 600h10l75 -75v-10l-75 -75h-10l-75 75v10zM70 425h380l5 -5v-110l-5 -5h-380l-5 5v110zM255 290h10l75 -75v-10l-75 -75h-10l-75 75v10z" />
    <glyph glyph-name="oslash" unicode="&#xf8;" 
d="M465 520h10l100 -100v-10l-62 -62q27 -54 27 -113q0 -103 -73 -176.5t-177 -73.5q-59 0 -113 27l-62 -62h-10l-100 100v10l62 62q-27 54 -27 113q0 103 73 176.5t177 73.5q59 0 113 -27zM290 350q-48 0 -79 -33t-31 -82t31 -82t79 -33t79 33t31 82t-31 82t-79 33z" />
    <glyph glyph-name="ugrave" unicode="&#xf9;" horiz-adv-x="600" 
d="M55 470h130l5 -5v-235q0 -110 100 -110q65 0 110 50v295l5 5h130l5 -5v-460l-5 -5h-130l-5 5v15q-61 -35 -125 -35q-110 0 -167.5 58.5t-57.5 161.5v260zM114 690h156l10 -5l135 -145l-5 -5h-130l-10 5l-160 145z" />
    <glyph glyph-name="uacute" unicode="&#xfa;" horiz-adv-x="600" 
d="M55 470h130l5 -5v-235q0 -110 100 -110q65 0 110 50v295l5 5h130l5 -5v-460l-5 -5h-130l-5 5v15q-61 -35 -125 -35q-110 0 -167.5 58.5t-57.5 161.5v260zM330 690h156l4 -5l-160 -145l-10 -5h-130l-5 5l135 145z" />
    <glyph glyph-name="ucircumflex" unicode="&#xfb;" horiz-adv-x="600" 
d="M55 470h130l5 -5v-235q0 -110 100 -110q65 0 110 50v295l5 5h130l5 -5v-460l-5 -5h-130l-5 5v15q-61 -35 -125 -35q-110 0 -167.5 58.5t-57.5 161.5v260zM240 690h120l10 -5l130 -145l-5 -5h-135l-10 5l-50 65l-50 -65l-10 -5h-135l-5 5l130 145z" />
    <glyph glyph-name="udieresis" unicode="&#xfc;" horiz-adv-x="600" 
d="M55 470h130l5 -5v-235q0 -110 100 -110q65 0 110 50v295l5 5h130l5 -5v-460l-5 -5h-130l-5 5v15q-61 -35 -125 -35q-110 0 -167.5 58.5t-57.5 161.5v260zM180 695h10l80 -80v-10l-80 -80h-10l-80 80v10zM410 695h10l80 -80v-10l-80 -80h-10l-80 80v10z" />
    <glyph glyph-name="yacute" unicode="&#xfd;" horiz-adv-x="560" 
d="M15 470h145l10 -5l110 -255l110 255l10 5h145l5 -5l-280 -580q-71 -125 -240 -125l-5 7v118l5 5q90 0 125 70l50 100l-195 405zM310 690h156l4 -5l-160 -145l-10 -5h-130l-5 5l135 145z" />
    <glyph glyph-name="thorn" unicode="&#xfe;" horiz-adv-x="600" 
d="M65 700h130l5 -5v-245q56 35 120 35q103 0 171.5 -72.5t68.5 -177.5t-68.5 -177.5t-171.5 -72.5q-64 0 -120 35v-245l-5 -5h-130l-5 5v920zM200 290v-110q40 -60 110 -60q46 0 78 34t32 81t-32 81t-78 34q-65 0 -110 -60z" />
    <glyph glyph-name="ydieresis" unicode="&#xff;" horiz-adv-x="560" 
d="M15 470h145l10 -5l110 -255l110 255l10 5h145l5 -5l-280 -580q-71 -125 -240 -125l-5 7v118l5 5q90 0 125 70l50 100l-195 405zM160 695h10l80 -80v-10l-80 -80h-10l-80 80v10zM390 695h10l80 -80v-10l-80 -80h-10l-80 80v10z" />
    <glyph glyph-name="dotlessi" unicode="&#x131;" horiz-adv-x="260" 
d="M65 470h130l5 -5v-460l-5 -5h-130l-5 5v460z" />
    <glyph glyph-name="Lslash" unicode="&#x141;" horiz-adv-x="500" 
d="M64 700h132l4 -4v-266l175 90l5 -5v-130l-5 -10l-175 -90v-145h266l4 -5v-131l-4 -4h-402l-4 4v206l-75 -40l-5 5v130l5 10l75 40v341z" />
    <glyph glyph-name="lslash" unicode="&#x142;" horiz-adv-x="380" 
d="M75 700h130l5 -5v-235l122 70l5 -5v-123l-5 -10l-122 -72v-130q0 -33 16.5 -51.5t43.5 -18.5q55 0 95 40l5 -5v-140q-50 -30 -105 -30q-95 0 -145 53t-50 142v70l-80 -46l-5 5v123l5 10l80 48v305z" />
    <glyph glyph-name="OE" unicode="&#x152;" horiz-adv-x="1080" 
d="M1035 700l5 -5v-130l-5 -5h-320q38 -53 55 -130h175l5 -5v-130l-5 -5h-170q-17 -92 -60 -150h330l5 -5v-130l-5 -5h-530q-53 -15 -105 -15q-154 0 -262 106t-108 259t108 259t262 106q52 0 105 -15h520zM410 570q-90 0 -152.5 -63.5t-62.5 -156.5t62.5 -156.5
t152.5 -63.5t152.5 63.5t62.5 156.5t-62.5 156.5t-152.5 63.5z" />
    <glyph glyph-name="oe" unicode="&#x153;" horiz-adv-x="930" 
d="M875 160v-125q-75 -50 -180 -50q-133 0 -215 90q-74 -90 -190 -90q-105 0 -177.5 72.5t-72.5 177.5t72.5 177.5t177.5 72.5q108 0 185 -85q77 85 190 85q101 0 163 -68t62 -147q0 -45 -5 -65l-5 -5h-318q18 -95 133 -95q95 0 175 60zM290 350q-48 0 -79 -33t-31 -82
t31 -82t79 -33t79 33t31 82t-31 82t-79 33zM566 300h184q-4 27 -28 46t-57 19q-73 0 -99 -65z" />
    <glyph glyph-name="Scaron" unicode="&#x160;" horiz-adv-x="540" 
d="M342 525h-10q-33 45 -77 45q-50 0 -50 -50q0 -21 30.5 -40t73.5 -38.5t86.5 -45.5t74 -74t30.5 -112q0 -92 -67.5 -158.5t-167.5 -66.5q-81 0 -145 41t-90 114l115 77h10q32 -87 110 -87q38 0 61.5 21.5t23.5 58.5q0 33 -30.5 59t-73.5 46.5t-86.5 44.5t-74 65t-30.5 95
q0 85 58 140t142 55q62 0 107.5 -26t87.5 -84zM60 905h140l10 -5l45 -55l45 55l10 5h140l5 -5l-120 -125l-10 -5h-140l-10 7l-120 123z" />
    <glyph glyph-name="scaron" unicode="&#x161;" horiz-adv-x="470" 
d="M390 315l-5 -5q-77 45 -150 45q-45 0 -45 -30q0 -12 24.5 -19t60 -14t71 -20.5t60 -45.5t24.5 -81q0 -66 -54 -113t-141 -47q-113 0 -180 45v136l5 4q86 -55 175 -55q55 0 55 30q0 15 -24.5 23.5t-60 16.5t-71 20.5t-60 43t-24.5 76.5q0 64 51 112t134 48q91 0 155 -40
v-130zM33 690h135l10 -5l50 -65l50 65l10 5h135l5 -5l-130 -145l-10 -5h-120l-10 5l-130 145z" />
    <glyph glyph-name="Ydieresis" unicode="&#x178;" horiz-adv-x="640" 
d="M15 700h140l5 -5l160 -235l160 235l5 5h140l5 -5l-240 -380v-310l-5 -5h-130l-5 5v310l-240 380zM180 930h10l85 -85v-10l-85 -85h-10l-85 85v10zM450 930h10l85 -85v-10l-85 -85h-10l-85 85v10z" />
    <glyph glyph-name="Zcaron" unicode="&#x17d;" horiz-adv-x="650" 
d="M25 700h585l5 -5l-355 -555h355l5 -6v-129l-5 -5h-600l-5 5l355 555h-340l-5 5v130zM115 905h140l10 -5l45 -55l45 55l10 5h140l5 -5l-120 -125l-10 -5h-140l-10 7l-120 123z" />
    <glyph glyph-name="zcaron" unicode="&#x17e;" horiz-adv-x="460" 
d="M35 470h400l5 -5l-195 -325h190l5 -5v-130l-5 -5h-420l-5 5l195 325h-171l-4 5v130zM35 690h135l10 -5l50 -65l50 65l10 5h135l5 -5l-130 -145l-10 -5h-120l-10 5l-130 145z" />
    <glyph glyph-name="florin" unicode="&#x192;" horiz-adv-x="440" 
d="M25 470h75v10q0 107 58.5 171t161.5 64q54 0 100 -20v-140l-5 -5q-41 30 -83 30q-92 0 -92 -105v-5h175l5 -5v-130l-5 -5h-175v-400q0 -96 -48.5 -145.5t-136.5 -49.5q-35 0 -55 10v130l5 5q20 -10 40 -10q27 0 41 18.5t14 76.5v365h-75l-5 5v131z" />
    <glyph glyph-name="uni02B0" unicode="&#x2b0;" horiz-adv-x="420" 
d="M65 700h100l5 -5v-135q30 10 50 10q72 0 111 -38t39 -97v-150l-5 -5h-100l-5 5v125q0 45 -45 45q-25 0 -45 -20v-150l-5 -5h-100l-5 5v410z" />
    <glyph glyph-name="uni02B1" unicode="&#x2b1;" horiz-adv-x="420" 
d="M260 595l-5 -5q-30 10 -40 10q-36 0 -45 -35v-5q30 10 50 10q72 0 111 -38t39 -97v-150l-5 -5h-100l-5 5v125q0 45 -45 45q-25 0 -45 -20v-150l-5 -5h-100l-5 5v230q0 103 33 151.5t107 48.5q40 0 60 -10v-110z" />
    <glyph glyph-name="uni02B2" unicode="&#x2b2;" horiz-adv-x="270" 
d="M105 560h100l5 -5v-240q0 -103 -33 -151.5t-107 -48.5q-40 0 -60 10v110l5 5q30 -10 40 -10q24 0 34.5 19.5t10.5 70.5v235zM150 740h10l65 -65v-10l-65 -65h-10l-65 65v10z" />
    <glyph glyph-name="uni02B3" unicode="&#x2b3;" horiz-adv-x="320" 
d="M65 560h100l5 -5v-5q27 20 55 20q30 0 50 -10l5 -120l-5 -5q-20 20 -60 20q-25 0 -45 -20v-150l-5 -5h-100l-5 5v270z" />
    <glyph glyph-name="uni02B4" unicode="&#x2b4;" horiz-adv-x="320" 
d="M255 280h-100l-5 5v5q-27 -20 -55 -20q-30 0 -50 10l-5 120l5 5q20 -20 60 -20q25 0 45 20v150l5 5h100l5 -5v-270z" />
    <glyph glyph-name="uni02B5" unicode="&#x2b5;" horiz-adv-x="360" 
d="M155 560h100l5 -5v-235q0 -50 11 -70t34 -20q10 0 40 10l5 -5v-110q-20 -10 -60 -10q-70 0 -105 49.5t-35 120.5v5q-27 -20 -55 -20q-30 0 -50 10l-5 120l5 5q20 -20 60 -20q25 0 45 20v150z" />
    <glyph glyph-name="uni02B6" unicode="&#x2b6;" horiz-adv-x="360" 
d="M65 560h100l5 -5v-55h10l45 55l10 5h109l6 -5l-70 -85q50 -29 50 -90q0 -49 -31.5 -74.5t-73.5 -25.5h-162l-3 5v270zM170 420v-45h20q25 0 25 22q0 23 -25 23h-20z" />
    <glyph glyph-name="uni02B7" unicode="&#x2b7;" horiz-adv-x="540" 
d="M15 560h110l10 -5l40 -115l40 105l5 5h100l5 -5l40 -105l40 115l10 5h110l5 -5l-105 -270l-5 -5h-105l-5 5l-40 115l-40 -115l-5 -5h-105l-5 5l-105 270z" />
    <glyph glyph-name="uni02B8" unicode="&#x2b8;" horiz-adv-x="360" 
d="M15 560h105l10 -5l47 -125l53 125l10 5h105l5 -5l-165 -340q-50 -80 -160 -80l-5 5v100l5 5q53 0 70 25l20 37l-105 248z" />
    <glyph glyph-name="uni02B9" unicode="&#x2b9;" horiz-adv-x="260" 
d="M82 700h143l5 -5l-65 -230l-5 -5h-85l-5 5l7 230z" />
    <glyph glyph-name="uni02BA" unicode="&#x2ba;" horiz-adv-x="440" 
d="M82 700h143l5 -5l-65 -230l-5 -5h-85l-5 5l7 230zM262 700h143l5 -5l-65 -230l-5 -5h-85l-5 5l7 230z" />
    <glyph glyph-name="uni02BE" unicode="&#x2be;" 
d="M230 720l5 5q46 0 80.5 -33.5t34.5 -81.5t-34.5 -81.5t-80.5 -33.5l-5 5v70l5 5q30 7 30 35t-30 35l-5 6v69z" />
    <glyph glyph-name="uni02BF" unicode="&#x2bf;" 
d="M350 720v-69l-5 -6q-30 -7 -30 -35t30 -35l5 -5v-70l-5 -5q-46 0 -80.5 33.5t-34.5 81.5t34.5 81.5t80.5 33.5z" />
    <glyph glyph-name="uni02C0" unicode="&#x2c0;" horiz-adv-x="350" 
d="M112 577l-82 63q26 39 52 57t73 18q69 0 112 -42t43 -108q0 -34 -10.5 -58.5t-25 -39.5t-29 -29.5t-25 -37.5t-10.5 -55v-60l-5 -5h-100l-5 5v60q0 46 9.5 78t23 48.5t27.5 28.5t23.5 27.5t9.5 37.5q0 13 -12 22.5t-26 9.5q-18 0 -38 -20h-5z" />
    <glyph glyph-name="uni02C1" unicode="&#x2c1;" horiz-adv-x="350" 
d="M237 577h-5q-20 20 -37 20q-15 0 -27 -9.5t-12 -22.5q0 -22 9.5 -37.5t23.5 -27.5t28 -28.5t23.5 -48.5t9.5 -78v-60l-5 -5h-100l-5 5v60q0 32 -10.5 55t-25 37.5t-29 29.5t-25 39.5t-10.5 58.5q0 66 43 108t112 42q46 0 72.5 -18t52.5 -57z" />
    <glyph glyph-name="uni02C4" unicode="&#x2c4;" 
d="M232 680h115l10 -5l93 -165l-5 -5h-115l-10 5l-30 67l-30 -67l-10 -5h-115l-5 5l92 165z" />
    <glyph glyph-name="uni02C5" unicode="&#x2c5;" 
d="M135 680h115l10 -5l30 -68l30 68l10 5h115l5 -5l-93 -165l-10 -5h-115l-10 5l-92 165z" />
    <glyph glyph-name="circumflex" unicode="&#x2c6;" 
d="M230 690h120l10 -5l130 -145l-5 -5h-135l-10 5l-50 65l-50 -65l-10 -5h-135l-5 5l130 145z" />
    <glyph glyph-name="caron" unicode="&#x2c7;" 
d="M95 690h135l10 -5l50 -65l50 65l10 5h135l5 -5l-130 -145l-10 -5h-120l-10 5l-130 145z" />
    <glyph glyph-name="uni02C8" unicode="&#x2c8;" 
d="M225 670h130l5 -5v-145l-5 -5h-130l-5 5v145z" />
    <glyph glyph-name="uni02C9" unicode="&#x2c9;" 
d="M135 650h310l5 -5v-130l-5 -5h-310l-5 5v130z" />
    <glyph glyph-name="uni02CA" unicode="&#x2ca;" 
d="M320 690h156l4 -5l-160 -145l-10 -5h-130l-5 5l135 145z" />
    <glyph glyph-name="uni02CB" unicode="&#x2cb;" 
d="M104 690h156l10 -5l135 -145l-5 -5h-130l-10 5l-160 145z" />
    <glyph glyph-name="uni02CC" unicode="&#x2cc;" 
d="M225 -40h130l5 -5v-145l-5 -5h-130l-5 5v145z" />
    <glyph glyph-name="uni02CD" unicode="&#x2cd;" 
d="M125 -40h330l5 -5v-110l-5 -5h-330l-5 5v110z" />
    <glyph glyph-name="uni02CE" unicode="&#x2ce;" 
d="M104 -20h156l10 -5l135 -145l-5 -5h-130l-10 5l-160 145z" />
    <glyph glyph-name="uni02CF" unicode="&#x2cf;" 
d="M320 -20h156l4 -5l-160 -145l-10 -5h-130l-5 5l135 145z" />
    <glyph glyph-name="uni02D0" unicode="&#x2d0;" horiz-adv-x="300" 
d="M35 470h230l5 -5v-70l-5 -23l-63 -97l-5 -5h-95l-5 5l-62 97l-5 23v70zM102 200h95l5 -5l63 -98l5 -22v-70l-5 -5h-230l-5 5v70l5 22l62 98z" />
    <glyph glyph-name="uni02D1" unicode="&#x2d1;" horiz-adv-x="300" 
d="M35 470h230l5 -5v-70l-5 -23l-63 -97l-5 -5h-95l-5 5l-62 97l-5 23v70z" />
    <glyph glyph-name="uni02D2" unicode="&#x2d2;" 
d="M230 345l5 5q46 0 80.5 -33.5t34.5 -81.5t-34.5 -81.5t-80.5 -33.5l-5 5v70l5 5q30 8 30 35t-30 35l-5 6v69z" />
    <glyph glyph-name="uni02D3" unicode="&#x2d3;" 
d="M350 345v-69l-5 -6q-30 -8 -30 -35t30 -35l5 -5v-70l-5 -5q-46 0 -80.5 33.5t-34.5 81.5t34.5 81.5t80.5 33.5z" />
    <glyph glyph-name="uni02D4" unicode="&#x2d4;" 
d="M225 -80h130l5 -5v-40h55l5 -5v-100l-5 -5h-250l-5 5v100l5 5h55v40z" />
    <glyph glyph-name="uni02D5" unicode="&#x2d5;" 
d="M165 -80h250l5 -5v-100l-5 -5h-55v-40l-5 -5h-130l-5 5v40h-55l-5 5v100z" />
    <glyph glyph-name="uni02D6" unicode="&#x2d6;" 
d="M240 -60h100l5 -5v-43h50l5 -5v-92l-5 -5h-50v-40l-5 -5h-100l-5 5v40h-50l-5 5v92l5 5h50v43z" />
    <glyph glyph-name="uni02D7" unicode="&#x2d7;" 
d="M165 -95h250l5 -5v-100l-5 -5h-250l-5 5v100z" />
    <glyph glyph-name="breve" unicode="&#x2d8;" 
d="M110 690h125l5 -5q0 -45 50 -45t50 45l5 5h125l5 -5q-6 -82 -57.5 -123.5t-127.5 -41.5t-127 41.5t-58 123.5z" />
    <glyph glyph-name="dotaccent" unicode="&#x2d9;" 
d="M285 705h10l90 -90v-10l-90 -90h-10l-90 90v10z" />
    <glyph glyph-name="ring" unicode="&#x2da;" 
d="M290 725q49 0 84.5 -33.5t35.5 -81.5t-35.5 -81.5t-84.5 -33.5t-84.5 33.5t-35.5 81.5t35.5 81.5t84.5 33.5zM290 645q-15 0 -25 -10t-10 -25t10 -25t25 -10t25 10t10 25t-10 25t-25 10z" />
    <glyph glyph-name="ogonek" unicode="&#x2db;" 
d="M495 125v-125q-33 -17 -59 -43.5t-26 -51.5q0 -18 13 -29t32 -11q17 0 40 15l5 -5v-100q-27 -20 -70 -20q-55 0 -95 36t-40 84q0 76 47 131.5t153 118.5z" />
    <glyph glyph-name="tilde" unicode="&#x2dc;" 
d="M485 680l5 -5q-16 -59 -52 -97t-83 -38q-36 0 -97 20t-93 20q-43 0 -70 -40l-5 5q16 59 52 97t83 38q36 0 97 -20t93 -20q43 0 70 40z" />
    <glyph glyph-name="hungarumlaut" unicode="&#x2dd;" 
d="M235 690h135l5 -5l-110 -145l-10 -5h-115l-5 5l90 145zM425 690h135l5 -5l-110 -145l-10 -5h-115l-5 5l90 145z" />
    <glyph glyph-name="uni02DE" unicode="&#x2de;" 
d="M465 400l5 10l145 45l5 -5q-18 -70 20 -70q8 0 14 7t6 18q0 20 -20 40v5l75 55q45 -39 45 -100q0 -52 -35.5 -88.5t-84.5 -36.5q-55 0 -85 45l-65 -20l-5 7z" />
    <glyph glyph-name="uni02DF" unicode="&#x2df;" 
d="M243 700l47 -48l47 48h5l56 -63v-5l-40 -27l40 -28v-5l-56 -62h-5l-47 48l-47 -48h-5l-55 62v5l40 28l-40 27v5l55 63h5z" />
    <glyph glyph-name="uni02E0" unicode="&#x2e0;" horiz-adv-x="360" 
d="M15 560h120l5 -5l40 -135l40 135l5 5h120l5 -5l-85 -220q42 -49 42 -93q0 -52 -37.5 -89.5t-89.5 -37.5t-90 37.5t-38 89.5q0 43 43 93l-85 220zM180 270q-15 -15 -15 -25q0 -6 4.5 -10.5t10.5 -4.5t10.5 4.5t4.5 10.5q0 10 -15 25z" />
    <glyph glyph-name="uni02E1" unicode="&#x2e1;" horiz-adv-x="270" 
d="M65 700h100l5 -5v-235q0 -51 10.5 -70.5t34.5 -19.5q10 0 40 10l5 -5v-110q-20 -10 -60 -10q-74 0 -107 48.5t-33 151.5v240z" />
    <glyph glyph-name="uni02E2" unicode="&#x2e2;" horiz-adv-x="305" 
d="M250 455l-5 -5q-44 25 -80 25q-10 0 -10 -9q0 -5 18 -9.5t39.5 -9.5t39.5 -23.5t18 -46.5q0 -46 -33 -76.5t-92 -30.5q-64 0 -100 20v100l5 5q50 -30 95 -30q15 0 15 10q0 6 -17 12t-38 12.5t-38 25t-17 45.5q0 44 26.5 72t78.5 28q48 0 95 -20v-95z" />
    <glyph glyph-name="uni02E3" unicode="&#x2e3;" horiz-adv-x="330" 
d="M18 560h102l10 -5l35 -50l35 50l10 5h101l4 -5l-90 -130l95 -140l-4 -5h-103l-13 5l-35 55l-35 -55l-12 -5h-105l-3 5l95 140l-90 130z" />
    <glyph glyph-name="uni02E4" unicode="&#x2e4;" horiz-adv-x="350" 
d="M237 577h-5q-20 20 -37 20q-15 0 -27 -9.5t-12 -22.5q0 -24 9.5 -39.5t23.5 -26.5t28 -25.5t23.5 -47t9.5 -81.5v-60l-5 -5h-100l-5 5v60q0 32 -10.5 55t-25 37.5t-29 29.5t-25 39.5t-10.5 58.5q0 66 43 108t112 42q46 0 72.5 -18t52.5 -57z" />
    <glyph glyph-name="uni02E5" unicode="&#x2e5;" horiz-adv-x="360" 
d="M45 720h250l5 -5v-710l-5 -5h-130l-5 5v575h-115l-5 5v130z" />
    <glyph glyph-name="uni02E6" unicode="&#x2e6;" horiz-adv-x="360" 
d="M165 700h130l5 -5v-690l-5 -5h-130l-5 5v450h-115l-5 5v130l5 5h115v100z" />
    <glyph glyph-name="uni02E7" unicode="&#x2e7;" horiz-adv-x="360" 
d="M165 700h130l5 -5v-690l-5 -5h-130l-5 5v275h-115l-5 5v130l5 5h115v275z" />
    <glyph glyph-name="uni02E8" unicode="&#x2e8;" horiz-adv-x="360" 
d="M165 700h130l5 -5v-690l-5 -5h-130l-5 5v100h-115l-5 5v130l5 5h115v450z" />
    <glyph glyph-name="uni02E9" unicode="&#x2e9;" horiz-adv-x="360" 
d="M165 700h130l5 -5v-690l-5 -5h-250l-5 5v130l5 5h115v555z" />
    <glyph glyph-name="uni02EF" unicode="&#x2ef;" 
d="M135 -70h115l10 -5l30 -68l30 68l10 5h115l5 -5l-93 -165l-10 -5h-115l-10 5l-92 165z" />
    <glyph glyph-name="uni02F0" unicode="&#x2f0;" 
d="M232 -70h115l10 -5l93 -165l-5 -5h-115l-10 5l-30 67l-30 -67l-10 -5h-115l-5 5l92 165z" />
    <glyph glyph-name="uni02F3" unicode="&#x2f3;" 
d="M290 -25q49 0 84.5 -33.5t35.5 -81.5t-35.5 -81.5t-84.5 -33.5t-84.5 33.5t-35.5 81.5t35.5 81.5t84.5 33.5zM290 -105q-15 0 -25 -10t-10 -25t10 -25t25 -10t25 10t10 25t-10 25t-25 10z" />
    <glyph glyph-name="uni02F4" unicode="&#x2f4;" 
d="M104 310h156l10 -5l135 -145l-5 -5h-130l-10 5l-160 145z" />
    <glyph glyph-name="uni02F6" unicode="&#x2f6;" 
d="M235 310h135l5 -5l-110 -145l-10 -5h-115l-5 5l90 145zM425 310h135l5 -5l-110 -145l-10 -5h-115l-5 5l90 145z" />
    <glyph glyph-name="uni02F7" unicode="&#x2f7;" 
d="M485 -70l5 -5q-16 -59 -52 -97t-83 -38q-36 0 -97 20t-93 20q-43 0 -70 -40l-5 5q16 59 52 97t83 38q36 0 97 -20t93 -20q43 0 70 40z" />
    <glyph glyph-name="uni0300" unicode="&#x300;" horiz-adv-x="0" 
d="M-476 690h156l10 -5l135 -145l-5 -5h-130l-10 5l-160 145z" />
    <glyph glyph-name="uni0301" unicode="&#x301;" horiz-adv-x="0" 
d="M-260 690h156l4 -5l-160 -145l-10 -5h-130l-5 5l135 145z" />
    <glyph glyph-name="uni0302" unicode="&#x302;" horiz-adv-x="0" 
d="M-350 690h120l10 -5l130 -145l-5 -5h-135l-10 5l-50 65l-50 -65l-10 -5h-135l-5 5l130 145z" />
    <glyph glyph-name="uni0303" unicode="&#x303;" horiz-adv-x="0" 
d="M-95 680l5 -5q-16 -59 -52 -97t-83 -38q-36 0 -97 20t-93 20q-43 0 -70 -40l-5 5q16 59 52 97t83 38q36 0 97 -20t93 -20q43 0 70 40z" />
    <glyph glyph-name="uni0304" unicode="&#x304;" horiz-adv-x="0" 
d="M-455 670h330l5 -5v-110l-5 -5h-330l-5 5v110z" />
    <glyph glyph-name="uni0305" unicode="&#x305;" horiz-adv-x="0" 
d="M-455 670h330l5 -5v-110l-5 -5h-330l-5 5v110z" />
    <glyph glyph-name="uni0306" unicode="&#x306;" horiz-adv-x="0" 
d="M-470 690h125l5 -5q0 -45 50 -45t50 45l5 5h125l5 -5q-6 -82 -57.5 -123.5t-127.5 -41.5t-127 41.5t-58 123.5z" />
    <glyph glyph-name="uni0307" unicode="&#x307;" horiz-adv-x="0" 
d="M-295 705h10l90 -90v-10l-90 -90h-10l-90 90v10z" />
    <glyph glyph-name="uni0308" unicode="&#x308;" horiz-adv-x="0" 
d="M-410 695h10l80 -80v-10l-80 -80h-10l-80 80v10zM-180 695h10l80 -80v-10l-80 -80h-10l-80 80v10z" />
    <glyph glyph-name="uni0309" unicode="&#x309;" horiz-adv-x="0" 
d="M-335 610l-55 65q43 50 100 50q54 0 87 -31t33 -74q0 -26 -17.5 -44.5t-36 -31t-19.5 -24.5l-5 -5h-90l-5 5q0 22 17 39.5t34 32t17 28.5q0 10 -15 10q-20 0 -40 -20h-5z" />
    <glyph glyph-name="uni030A" unicode="&#x30a;" horiz-adv-x="0" 
d="M-290 725q49 0 84.5 -33.5t35.5 -81.5t-35.5 -81.5t-84.5 -33.5t-84.5 33.5t-35.5 81.5t35.5 81.5t84.5 33.5zM-290 645q-15 0 -25 -10t-10 -25t10 -25t25 -10t25 10t10 25t-10 25t-25 10z" />
    <glyph glyph-name="uni030B" unicode="&#x30b;" horiz-adv-x="0" 
d="M-345 690h135l5 -5l-110 -145l-10 -5h-115l-5 5l90 145zM-155 690h135l5 -5l-110 -145l-10 -5h-115l-5 5l90 145z" />
    <glyph glyph-name="uni030C" unicode="&#x30c;" horiz-adv-x="0" 
d="M-485 690h135l10 -5l50 -65l50 65l10 5h135l5 -5l-130 -145l-10 -5h-120l-10 5l-130 145z" />
    <glyph glyph-name="uni030D" unicode="&#x30d;" horiz-adv-x="0" 
d="M-355 670h130l5 -5v-145l-5 -5h-130l-5 5v145z" />
    <glyph glyph-name="uni030E" unicode="&#x30e;" horiz-adv-x="0" 
d="M-445 670h130l5 -5v-145l-5 -5h-130l-5 5v145zM-265 670h130l5 -5v-145l-5 -5h-130l-5 5v145z" />
    <glyph glyph-name="uni030F" unicode="&#x30f;" horiz-adv-x="0" 
d="M-560 690h135l10 -5l90 -145l-5 -5h-115l-10 5l-110 145zM-370 690h135l10 -5l90 -145l-5 -5h-115l-10 5l-110 145z" />
    <glyph glyph-name="uni0310" unicode="&#x310;" horiz-adv-x="0" 
d="M-470 690h125l5 -5q0 -45 50 -45t50 45l5 5h125l5 -5q-6 -82 -57.5 -123.5t-127.5 -41.5t-127 41.5t-58 123.5zM-295 845h10l90 -90v-10l-90 -90h-10l-90 90v10z" />
    <glyph glyph-name="uni0311" unicode="&#x311;" horiz-adv-x="0" 
d="M-458 515l-5 5q3 45 20.5 78t43.5 50t53 24.5t56 7.5q64 0 114.5 -37t57.5 -123l-5 -5h-122l-5 5q4 15 -8.5 25t-31.5 10t-31.5 -10t-8.5 -25l-5 -5h-123z" />
    <glyph glyph-name="uni0312" unicode="&#x312;" horiz-adv-x="0" 
d="M-238 520h-127l-5 5l52 165l5 5h100l5 -5l-20 -165z" />
    <glyph glyph-name="uni0313" unicode="&#x313;" horiz-adv-x="0" 
d="M-340 695h127l5 -5l-52 -165l-5 -5h-100l-5 5l20 165z" />
    <glyph glyph-name="uni0314" unicode="&#x314;" horiz-adv-x="0" 
d="M-368 695h128l10 -5l20 -165l-5 -5h-100l-5 5l-53 165z" />
    <glyph glyph-name="uni0315" unicode="&#x315;" horiz-adv-x="0" 
d="M-55 740h130l5 -5l-40 -165l-5 -5h-100l-5 5l10 165z" />
    <glyph glyph-name="uni0316" unicode="&#x316;" horiz-adv-x="0" 
d="M-476 -20h156l10 -5l135 -145l-5 -5h-130l-10 5l-160 145z" />
    <glyph glyph-name="uni0317" unicode="&#x317;" horiz-adv-x="0" 
d="M-260 -20h156l4 -5l-160 -145l-10 -5h-130l-5 5l135 145z" />
    <glyph glyph-name="uni031A" unicode="&#x31a;" horiz-adv-x="0" 
d="M-190 650h205l5 -5v-205l-5 -5h-130l-5 5v70h-70l-5 5v130z" />
    <glyph glyph-name="uni031B" unicode="&#x31b;" horiz-adv-x="0" 
d="M-65 550h110l5 -5v-35q0 -68 -49.5 -104t-125.5 -36v5q33 22 44 49t11 81v40z" />
    <glyph glyph-name="uni031C" unicode="&#x31c;" horiz-adv-x="0" 
d="M-230 -30v-69l-5 -6q-30 -7 -30 -35t30 -35l5 -5v-70l-5 -5q-46 0 -80.5 33.5t-34.5 81.5t34.5 81.5t80.5 33.5z" />
    <glyph glyph-name="uni031D" unicode="&#x31d;" horiz-adv-x="0" 
d="M-355 -80h130l5 -5v-40h55l5 -5v-100l-5 -5h-250l-5 5v100l5 5h55v40z" />
    <glyph glyph-name="uni031E" unicode="&#x31e;" horiz-adv-x="0" 
d="M-415 -80h250l5 -5v-100l-5 -5h-55v-40l-5 -5h-130l-5 5v40h-55l-5 5v100z" />
    <glyph glyph-name="uni0320" unicode="&#x320;" horiz-adv-x="0" 
d="M-415 -95h250l5 -5v-100l-5 -5h-250l-5 5v100z" />
    <glyph glyph-name="uni0321" unicode="&#x321;" horiz-adv-x="0" 
d="M-185 40h130l5 -5v-105q0 -96 -48.5 -145.5t-136.5 -49.5q-35 0 -55 10v130l5 5q20 -10 40 -10q27 0 41 18.5t14 76.5v70z" />
    <glyph glyph-name="uni0322" unicode="&#x322;" horiz-adv-x="0" 
d="M-185 40h130l5 -5v-70q0 -58 14 -76.5t41 -18.5q20 0 40 10l5 -5v-130q-20 -10 -55 -10q-88 0 -136.5 49.5t-48.5 145.5v105z" />
    <glyph glyph-name="uni0323" unicode="&#x323;" horiz-adv-x="0" 
d="M-295 -45h10l90 -90v-10l-90 -90h-10l-90 90v10z" />
    <glyph glyph-name="uni0324" unicode="&#x324;" horiz-adv-x="0" 
d="M-410 -55h10l80 -80v-10l-80 -80h-10l-80 80v10zM-180 -55h10l80 -80v-10l-80 -80h-10l-80 80v10z" />
    <glyph glyph-name="uni0325" unicode="&#x325;" horiz-adv-x="0" 
d="M-290 -25q49 0 84.5 -33.5t35.5 -81.5t-35.5 -81.5t-84.5 -33.5t-84.5 33.5t-35.5 81.5t35.5 81.5t84.5 33.5zM-290 -105q-15 0 -25 -10t-10 -25t10 -25t25 -10t25 10t10 25t-10 25t-25 10z" />
    <glyph glyph-name="uni0326" unicode="&#x326;" horiz-adv-x="0" 
d="M-343 -60h128l5 -5l-53 -165l-5 -5h-100l-5 5l20 165z" />
    <glyph glyph-name="uni0327" unicode="&#x327;" horiz-adv-x="0" 
d="M-345 0h105l-10 -40q55 -28 55 -90q0 -51 -40 -83t-95 -32q-64 0 -95 50l50 60h5q22 -15 40 -15q25 0 25 20q0 8 -6 14.5t-21.5 11t-42.5 -5.5l-5 5z" />
    <glyph glyph-name="uni0328" unicode="&#x328;" horiz-adv-x="0" 
d="M-85 125v-125q-33 -17 -59 -43.5t-26 -51.5q0 -18 13 -29t32 -11q18 0 40 15l5 -5v-100q-27 -20 -70 -20q-55 0 -95 36t-40 84q0 76 47 131.5t153 118.5z" />
    <glyph glyph-name="uni0329" unicode="&#x329;" horiz-adv-x="0" 
d="M-355 -80h130l5 -5v-145l-5 -5h-130l-5 5v145z" />
    <glyph glyph-name="uni032A" unicode="&#x32a;" horiz-adv-x="0" 
d="M-475 -80h370l5 -5v-145l-5 -5h-130l-5 5v40h-100v-40l-5 -5h-130l-5 5v145z" />
    <glyph glyph-name="uni032C" unicode="&#x32c;" horiz-adv-x="0" 
d="M-485 -60h135l10 -5l50 -65l50 65l10 5h135l5 -5l-130 -145l-10 -5h-120l-10 5l-130 145z" />
    <glyph glyph-name="uni032D" unicode="&#x32d;" horiz-adv-x="0" 
d="M-350 -60h120l10 -5l130 -145l-5 -5h-135l-10 5l-50 65l-50 -65l-10 -5h-135l-5 5l130 145z" />
    <glyph glyph-name="uni032E" unicode="&#x32e;" horiz-adv-x="0" 
d="M-470 -60h125l5 -5q0 -45 50 -45t50 45l5 5h125l5 -5q-6 -82 -57.5 -123.5t-127.5 -41.5t-127 41.5t-58 123.5z" />
    <glyph glyph-name="uni032F" unicode="&#x32f;" horiz-adv-x="0" 
d="M-458 -235l-5 5q3 45 20.5 78t43.5 50t53 24.5t56 7.5q64 0 114.5 -37t57.5 -123l-5 -5h-122l-5 5q4 15 -8.5 25t-31.5 10t-31.5 -10t-8.5 -25l-5 -5h-123z" />
    <glyph glyph-name="uni0330" unicode="&#x330;" horiz-adv-x="0" 
d="M-95 -70l5 -5q-16 -59 -52 -97t-83 -38q-36 0 -97 20t-93 20q-43 0 -70 -40l-5 5q16 59 52 97t83 38q36 0 97 -20t93 -20q43 0 70 40z" />
    <glyph glyph-name="uni0331" unicode="&#x331;" horiz-adv-x="0" 
d="M-455 -80h330l5 -5v-110l-5 -5h-330l-5 5v110z" />
    <glyph glyph-name="uni0334" unicode="&#x334;" horiz-adv-x="0" 
d="M-95 305l5 -5q-16 -59 -52 -97t-83 -38q-36 0 -97 20t-93 20q-43 0 -70 -40l-5 5q16 59 52 97t83 38q36 0 97 -20t93 -20q43 0 70 40z" />
    <glyph glyph-name="uni0335" unicode="&#x335;" horiz-adv-x="0" 
d="M-455 295h330l5 -5v-110l-5 -5h-330l-5 5v110z" />
    <glyph glyph-name="uni0336" unicode="&#x336;" horiz-adv-x="0" 
d="M-575 305h570l5 -5v-130l-5 -5h-570l-5 5v130z" />
    <glyph glyph-name="uni0339" unicode="&#x339;" horiz-adv-x="0" 
d="M-350 -30l5 5q46 0 80.5 -33.5t34.5 -81.5t-34.5 -81.5t-80.5 -33.5l-5 5v70l5 5q30 7 30 35t-30 35l-5 6v69z" />
    <glyph glyph-name="uni033A" unicode="&#x33a;" horiz-adv-x="0" 
d="M-475 -40h130l5 -5v-40h100v40l5 5h130l5 -5v-145l-5 -5h-370l-5 5v145z" />
    <glyph glyph-name="uni033B" unicode="&#x33b;" horiz-adv-x="0" 
d="M-425 -45h270l5 -5v-200l-5 -5h-270l-5 5v200zM-320 -140v-20h60v20h-60z" />
    <glyph glyph-name="uni033D" unicode="&#x33d;" horiz-adv-x="0" 
d="M-338 700l48 -34l47 34h5l57 -64v-5l-42 -26l42 -27v-5l-57 -63h-5l-47 34l-48 -34h-5l-56 63v5l41 27l-41 26v5l56 64h5z" />
    <glyph glyph-name="uni033E" unicode="&#x33e;" horiz-adv-x="0" 
d="M-343 712l5 5q120 7 120 -67q0 -24 -17.5 -54t-17.5 -46q0 -28 15 -43l-5 -5q-120 -8 -120 68q0 24 17.5 54t17.5 46q0 27 -15 42z" />
    <glyph glyph-name="uni0342" unicode="&#x342;" horiz-adv-x="0" 
d="M-95 680l5 -5q-16 -59 -52 -97t-83 -38q-36 0 -97 20t-93 20q-43 0 -70 -40l-5 5q16 59 52 97t83 38q36 0 97 -20t93 -20q43 0 70 40z" />
    <glyph glyph-name="uni0344" unicode="&#x344;" horiz-adv-x="0" 
d="M-320 700h107l5 -5l-57 -165l-5 -5h-80l-5 5l25 165zM-429 680h10l64 -65v-10l-65 -65h-10l-65 65v10zM-159 680h10l64 -65v-10l-65 -65h-10l-65 65v10z" />
    <glyph glyph-name="uni0345" unicode="&#x345;" horiz-adv-x="0" 
d="M-345 -60h110l5 -5v-15q0 -34 15 -49.5t35 -15.5q15 0 35 10l5 -5v-115q-20 -10 -55 -10q-74 0 -114.5 46t-40.5 139v15z" />
    <glyph glyph-name="uni0346" unicode="&#x346;" horiz-adv-x="0" 
d="M-475 670h370l5 -5v-145l-5 -5h-130l-5 5v40h-100v-40l-5 -5h-130l-5 5v145z" />
    <glyph glyph-name="uni0348" unicode="&#x348;" horiz-adv-x="0" 
d="M-445 -40h130l5 -5v-145l-5 -5h-130l-5 5v145zM-265 -40h130l5 -5v-145l-5 -5h-130l-5 5v145z" />
    <glyph glyph-name="uni034D" unicode="&#x34d;" horiz-adv-x="0" 
d="M-480 -115l82 82l10 5h75l5 -5l-40 -47h115l-40 47l5 5h75l10 -5l83 -82v-10l-83 -83l-10 -5h-75l-5 5l40 48h-115l40 -48l-5 -5h-75l-10 5l-82 83v10z" />
    <glyph glyph-name="uni034E" unicode="&#x34e;" horiz-adv-x="0" 
d="M-295 -40h10l82 -83l5 -10v-75l-5 -5l-47 40v-62l-5 -5h-70l-5 5v62l-48 -40l-5 5v75l5 10z" />
    <glyph glyph-name="uni0351" unicode="&#x351;" horiz-adv-x="0" 
d="M-230 720v-69l-5 -6q-30 -7 -30 -35t30 -35l5 -5v-70l-5 -5q-46 0 -80.5 33.5t-34.5 81.5t34.5 81.5t80.5 33.5z" />
    <glyph glyph-name="uni0352" unicode="&#x352;" horiz-adv-x="0" 
d="M-295 705h10l90 -90v-10l-90 -90h-10l-90 90v10zM-458 695l-5 5q3 45 20.5 78t43.5 50t53 24.5t56 7.5q64 0 114.5 -37t57.5 -123l-5 -5h-122l-5 5q4 15 -8.5 25t-31.5 10t-31.5 -10t-8.5 -25l-5 -5h-123z" />
    <glyph glyph-name="uni0353" unicode="&#x353;" horiz-adv-x="0" 
d="M-338 -10l48 -34l47 34h5l57 -64v-5l-42 -26l42 -27v-5l-57 -63h-5l-47 34l-48 -34h-5l-56 63v5l41 27l-41 26v5l56 64h5z" />
    <glyph glyph-name="uni0357" unicode="&#x357;" horiz-adv-x="0" 
d="M-350 720l5 5q46 0 80.5 -33.5t34.5 -81.5t-34.5 -81.5t-80.5 -33.5l-5 5v70l5 5q30 7 30 35t-30 35l-5 6v69z" />
    <glyph glyph-name="uni0359" unicode="&#x359;" horiz-adv-x="0" 
d="M-325 -55h68l5 -5l-3 -30l32 17h5l26 -58v-5l-48 -14l48 -14v-5l-26 -59h-5l-32 18l4 -30l-5 -5h-69l-5 5l5 30l-33 -18h-5l-25 59v5l48 14l-48 14v5l25 58h5l33 -17l-5 30z" />
    <glyph glyph-name="pi" unicode="&#x3c0;" horiz-adv-x="640" 
d="M15 470h610l5 -5v-130l-5 -5h-95v-105q0 -58 14 -76.5t41 -18.5q20 0 40 10l5 -5v-140q-20 -10 -55 -10q-88 0 -136.5 49.5t-48.5 145.5v150h-135q0 -165 -35 -325l-5 -5h-140l-5 5q45 135 45 325h-100l-5 5v129z" />
    <glyph glyph-name="uni0400" unicode="&#x400;" 
d="M65 700h470l5 -5v-130l-5 -5h-335v-125h245l5 -5v-130l-5 -5h-245v-155h345l5 -5v-130l-5 -5h-480l-5 5v690zM114 905h166l10 -5l135 -125l-5 -5h-140l-10 5l-160 125z" />
    <glyph glyph-name="uni0401" unicode="&#x401;" 
d="M65 700h470l5 -5v-130l-5 -5h-335v-125h245l5 -5v-130l-5 -5h-245v-155h345l5 -5v-130l-5 -5h-480l-5 5v690zM170 930h10l85 -85v-10l-85 -85h-10l-85 85v10zM440 930h10l85 -85v-10l-85 -85h-10l-85 85v10z" />
    <glyph glyph-name="uni0402" unicode="&#x402;" horiz-adv-x="820" 
d="M35 700h510l5 -5v-130l-5 -5h-205v-135q27 24 70.5 37t74.5 13q127 0 206 -75t79 -210v-260q0 -96 -48.5 -145.5t-136.5 -49.5q-35 0 -55 10v130l5 5q20 -10 40 -10q27 0 41 18.5t14 76.5v200q0 162 -145 162q-50 0 -94 -22t-51 -55v-245l-5 -5h-130l-5 5v555h-165l-5 5
v130z" />
    <glyph glyph-name="uni0403" unicode="&#x403;" horiz-adv-x="560" 
d="M65 700h460l5 -5v-130l-5 -5h-325v-555l-5 -5h-130l-5 5v690zM340 905h166l4 -5l-160 -125l-10 -5h-140l-5 5l135 125z" />
    <glyph glyph-name="uni0404" unicode="&#x404;" horiz-adv-x="710" 
d="M650 495l-5 -5q-95 80 -235 80q-68 0 -122.5 -39t-78.5 -101h296l5 -5v-130l-5 -5h-302q20 -70 77 -115t130 -45q140 0 235 80l5 -5v-155q-90 -65 -240 -65q-153 0 -261.5 107t-108.5 258t108.5 258t261.5 107q150 0 240 -65v-155z" />
    <glyph glyph-name="uni0405" unicode="&#x405;" horiz-adv-x="540" 
d="M342 525h-10q-33 45 -77 45q-50 0 -50 -50q0 -21 30.5 -40t73.5 -38.5t86.5 -45.5t74 -74t30.5 -112q0 -92 -67.5 -158.5t-167.5 -66.5q-81 0 -145 41t-90 114l115 77h10q32 -87 110 -87q38 0 61.5 21.5t23.5 58.5q0 33 -30.5 59t-73.5 46.5t-86.5 44.5t-74 65t-30.5 95
q0 85 58 140t142 55q62 0 107.5 -26t87.5 -84z" />
    <glyph glyph-name="uni0406" unicode="&#x406;" horiz-adv-x="260" 
d="M65 700h130l5 -5v-690l-5 -5h-130l-5 5v690z" />
    <glyph glyph-name="uni0407" unicode="&#x407;" horiz-adv-x="260" 
d="M65 700h130l5 -5v-690l-5 -5h-130l-5 5v690zM20 930h10l85 -85v-10l-85 -85h-10l-85 85v10zM230 930h10l85 -85v-10l-85 -85h-10l-85 85v10z" />
    <glyph glyph-name="uni0408" unicode="&#x408;" horiz-adv-x="520" 
d="M305 700h130l5 -5v-490q0 -96 -60 -158t-175 -62q-67 0 -121.5 42.5t-73.5 107.5l115 60h5q22 -75 85 -75q50 0 67.5 31t17.5 99v445z" />
    <glyph glyph-name="uni0409" unicode="&#x409;" horiz-adv-x="1020" 
d="M230 700h425l5 -5v-260h95q105 0 170 -56.5t65 -158.5q0 -103 -65.5 -161.5t-169.5 -58.5h-230l-5 5v555h-180l-65 -380q-22 -104 -84.5 -149.5t-165.5 -45.5l-5 7v123l5 5q98 0 120 95l75 480zM660 295v-155h85q47 0 71 18.5t24 61.5q0 75 -95 75h-85z" />
    <glyph glyph-name="uni040A" unicode="&#x40a;" horiz-adv-x="1000" 
d="M65 700h130l5 -5v-260h300v260l5 5h130l5 -5v-260h95q105 0 170 -56.5t65 -158.5q0 -103 -65.5 -161.5t-169.5 -58.5h-230l-5 5v290h-300v-290l-5 -5h-130l-5 5v690zM640 295v-155h85q47 0 71 18.5t24 61.5q0 75 -95 75h-85z" />
    <glyph glyph-name="uni040B" unicode="&#x40b;" horiz-adv-x="820" 
d="M35 700h510l5 -5v-130l-5 -5h-205v-135q27 24 70.5 37t74.5 13q127 0 206 -75t79 -210v-185l-5 -5h-130l-5 5v160q0 162 -145 162q-50 0 -94 -22t-51 -55v-245l-5 -5h-130l-5 5v555h-165l-5 5v130z" />
    <glyph glyph-name="uni040C" unicode="&#x40c;" horiz-adv-x="680" 
d="M65 700h130l5 -5v-240h60l220 240l10 5h155l5 -5l-275 -300l295 -390l-5 -5h-155l-10 5l-240 310h-60v-310l-5 -5h-130l-5 5v690zM387 905h166l4 -5l-160 -125l-10 -5h-140l-5 5l135 125z" />
    <glyph glyph-name="uni040D" unicode="&#x40d;" horiz-adv-x="760" 
d="M65 700h130l5 -5v-455l350 455l10 5h135l5 -5v-690l-5 -5h-130l-5 5v455l-350 -455l-10 -5h-135l-5 5v690zM184 905h166l10 -5l135 -125l-5 -5h-140l-10 5l-160 125z" />
    <glyph glyph-name="uni040E" unicode="&#x40e;" horiz-adv-x="680" 
d="M15 700h140l10 -5l175 -390l175 390l10 5h140l5 -5l-280 -580q-35 -61 -95.5 -95.5t-174.5 -34.5l-5 7v118l5 5q56 0 85.5 9.5t51.5 30.5l8 10l-255 530zM180 905h103l5 -5q12 -35 52 -35q41 0 50 35l5 5h105l5 -5q-7 -67 -53.5 -101t-111.5 -34t-111.5 34t-53.5 101z
" />
    <glyph glyph-name="uni040F" unicode="&#x40f;" horiz-adv-x="700" 
d="M65 700h130l5 -5v-555h300v555l5 5h130l5 -5v-690l-5 -5h-215v-175l-5 -5h-130l-5 5v175h-215l-5 5v690z" />
    <glyph glyph-name="uni0410" unicode="&#x410;" horiz-adv-x="700" 
d="M280 700h140l5 -5l265 -690l-5 -5h-155l-5 5l-50 140h-250l-50 -140l-5 -5h-155l-5 5l265 690zM350 520l-80 -235h160z" />
    <glyph glyph-name="uni0411" unicode="&#x411;" horiz-adv-x="560" 
d="M65 700h420l5 -5v-130l-5 -5h-285v-125h95q105 0 170 -56.5t65 -158.5q0 -103 -65.5 -161.5t-169.5 -58.5h-230l-5 5v690zM200 295v-155h85q47 0 71 18.5t24 61.5q0 75 -95 75h-85z" />
    <glyph glyph-name="uni0412" unicode="&#x412;" horiz-adv-x="560" 
d="M65 700h185q101 0 168 -51.5t67 -138.5q0 -44 -19.5 -76.5t-50.5 -48.5q45 -19 75 -66.5t30 -103.5q0 -102 -64.5 -158.5t-165.5 -56.5h-225l-5 5v690zM200 560v-130h50q80 0 80 65t-80 65h-50zM200 290v-150h80q85 0 85 75t-85 75h-80z" />
    <glyph glyph-name="uni0413" unicode="&#x413;" horiz-adv-x="560" 
d="M65 700h460l5 -5v-130l-5 -5h-325v-555l-5 -5h-130l-5 5v690z" />
    <glyph glyph-name="uni0414" unicode="&#x414;" horiz-adv-x="810" 
d="M205 700h480l5 -5v-555h75l5 -5v-310l-5 -5h-130l-5 5v175h-450v-175l-5 -5h-130l-5 5v310l5 5h86q9 18 21 70l48 485zM325 560l-33 -373q0 -2 -2 -17t-5 -30h265v420h-225z" />
    <glyph glyph-name="uni0415" unicode="&#x415;" 
d="M65 700h470l5 -5v-130l-5 -5h-335v-125h245l5 -5v-130l-5 -5h-245v-155h345l5 -5v-130l-5 -5h-480l-5 5v690z" />
    <glyph glyph-name="uni0416" unicode="&#x416;" horiz-adv-x="1020" 
d="M445 700h130l5 -5v-240h60l180 240l10 5h155l5 -5l-235 -300l255 -390l-5 -5h-155l-10 5l-200 310h-60v-310l-5 -5h-130l-5 5v310h-60l-200 -310l-10 -5h-155l-5 5l255 390l-235 300l5 5h155l10 -5l180 -240h60v240z" />
    <glyph glyph-name="uni0417" unicode="&#x417;" horiz-adv-x="550" 
d="M120 525l-80 95q32 40 87 67.5t113 27.5q114 0 177 -54.5t63 -140.5q0 -88 -70 -140q52 -22 81 -70t29 -105q0 -93 -73 -156.5t-197 -63.5q-68 0 -130.5 25.5t-99.5 69.5l80 115h10q74 -65 140 -65q56 0 85.5 22.5t29.5 52.5q0 44 -24.5 62t-75.5 18h-110l-5 5v130l5 5
h100q31 0 50.5 21.5t19.5 58.5q0 26 -24 45.5t-61 19.5q-50 0 -110 -45h-10z" />
    <glyph glyph-name="uni0418" unicode="&#x418;" horiz-adv-x="760" 
d="M65 700h130l5 -5v-455l350 455l10 5h135l5 -5v-690l-5 -5h-130l-5 5v455l-350 -455l-10 -5h-135l-5 5v690z" />
    <glyph glyph-name="uni0419" unicode="&#x419;" horiz-adv-x="760" 
d="M65 700h130l5 -5v-455l350 455l10 5h135l5 -5v-690l-5 -5h-130l-5 5v455l-350 -455l-10 -5h-135l-5 5v690zM220 905h103l5 -5q12 -35 52 -35q41 0 50 35l5 5h105l5 -5q-7 -67 -53.5 -101t-111.5 -34t-111.5 34t-53.5 101z" />
    <glyph glyph-name="uni041A" unicode="&#x41a;" horiz-adv-x="680" 
d="M65 700h130l5 -5v-240h60l220 240l10 5h155l5 -5l-275 -300l295 -390l-5 -5h-155l-10 5l-240 310h-60v-310l-5 -5h-130l-5 5v690z" />
    <glyph glyph-name="uni041B" unicode="&#x41b;" horiz-adv-x="760" 
d="M230 700h465l5 -5v-690l-5 -5h-130l-5 5v555h-220l-65 -380q-22 -104 -84.5 -149.5t-165.5 -45.5l-5 7v123l5 5q98 0 120 95l75 480z" />
    <glyph glyph-name="uni041C" unicode="&#x41c;" horiz-adv-x="820" 
d="M65 700h130l10 -5l205 -255l205 255l10 5h130l5 -5v-690l-5 -5h-130l-5 5v480l-205 -250h-10l-205 250v-480l-5 -5h-130l-5 5v690z" />
    <glyph glyph-name="uni041D" unicode="&#x41d;" horiz-adv-x="720" 
d="M65 700h130l5 -5v-260h320v260l5 5h130l5 -5v-690l-5 -5h-130l-5 5v290h-320v-290l-5 -5h-130l-5 5v690z" />
    <glyph glyph-name="uni041E" unicode="&#x41e;" horiz-adv-x="820" 
d="M410 715q154 0 262 -106t108 -259t-108 -259t-262 -106t-262 106t-108 259t108 259t262 106zM410 570q-90 0 -152.5 -63.5t-62.5 -156.5t62.5 -156.5t152.5 -63.5t152.5 63.5t62.5 156.5t-62.5 156.5t-152.5 63.5z" />
    <glyph glyph-name="uni041F" unicode="&#x41f;" horiz-adv-x="700" 
d="M65 700h570l5 -5v-690l-5 -5h-130l-5 5v555h-300v-555l-5 -5h-130l-5 5v690z" />
    <glyph glyph-name="uni0420" unicode="&#x420;" horiz-adv-x="560" 
d="M65 700h215q115 0 182.5 -65.5t67.5 -159.5t-67.5 -159.5t-182.5 -65.5h-80v-245l-5 -5h-130l-5 5v690zM200 560v-170h70q105 0 105 85t-105 85h-70z" />
    <glyph glyph-name="uni0421" unicode="&#x421;" horiz-adv-x="710" 
d="M650 495l-5 -5q-95 80 -235 80q-90 0 -152.5 -65t-62.5 -155t62.5 -155t152.5 -65q140 0 235 80l5 -5v-155q-90 -65 -240 -65q-153 0 -261.5 107t-108.5 258t108.5 258t261.5 107q150 0 240 -65v-155z" />
    <glyph glyph-name="uni0422" unicode="&#x422;" horiz-adv-x="620" 
d="M35 700h550l5 -5v-130l-5 -5h-205v-555l-5 -5h-130l-5 5v555h-205l-5 5v130z" />
    <glyph glyph-name="uni0423" unicode="&#x423;" horiz-adv-x="680" 
d="M15 700h140l10 -5l175 -390l175 390l10 5h140l5 -5l-280 -580q-35 -61 -95.5 -95.5t-174.5 -34.5l-5 7v118l5 5q56 0 85.5 9.5t51.5 30.5l8 10l-255 530z" />
    <glyph glyph-name="uni0424" unicode="&#x424;" horiz-adv-x="820" 
d="M345 740h130l5 -5v-85q129 -11 214.5 -94.5t85.5 -205.5t-85.5 -205.5t-214.5 -94.5v-85l-5 -5h-130l-5 5v85q-129 11 -214.5 94.5t-85.5 205.5t85.5 205.5t214.5 94.5v85zM340 190v320q-64 -8 -104.5 -52t-40.5 -108t40.5 -108t104.5 -52zM480 510v-320q64 8 104.5 52
t40.5 108t-40.5 108t-104.5 52z" />
    <glyph glyph-name="uni0425" unicode="&#x425;" horiz-adv-x="720" 
d="M45 700h160l10 -5l145 -210l145 210l10 5h160l5 -5l-235 -325l265 -365l-5 -5h-160l-10 5l-175 250l-175 -250l-10 -5h-160l-5 5l265 365l-235 325z" />
    <glyph glyph-name="uni0426" unicode="&#x426;" horiz-adv-x="780" 
d="M65 700h130l5 -5v-555h300v555l5 5h130l5 -5v-555h95l5 -5v-310l-5 -5h-130l-5 5v175h-535l-5 5v690z" />
    <glyph glyph-name="uni0427" unicode="&#x427;" horiz-adv-x="680" 
d="M55 700h130l5 -5v-140q0 -163 145 -163q50 0 94 22.5t51 55.5v225l5 5h130l5 -5v-690l-5 -5h-130l-5 5v290q-27 -24 -70.5 -37t-74.5 -13q-127 0 -206 75t-79 210v165z" />
    <glyph glyph-name="uni0428" unicode="&#x428;" horiz-adv-x="1000" 
d="M65 700h130l5 -5v-555h230v555l5 5h130l5 -5v-555h230v555l5 5h130l5 -5v-690l-5 -5h-870l-5 5v690z" />
    <glyph glyph-name="uni0429" unicode="&#x429;" horiz-adv-x="1080" 
d="M65 700h130l5 -5v-555h230v555l5 5h130l5 -5v-555h230v555l5 5h130l5 -5v-555h95l5 -5v-310l-5 -5h-130l-5 5v175h-835l-5 5v690z" />
    <glyph glyph-name="uni042A" unicode="&#x42a;" horiz-adv-x="740" 
d="M35 700h340l5 -5v-260h95q105 0 170 -56.5t65 -158.5q0 -103 -65.5 -161.5t-169.5 -58.5h-230l-5 5v555h-205l-5 5v130zM380 295v-155h85q47 0 71 18.5t24 61.5q0 75 -95 75h-85z" />
    <glyph glyph-name="uni042B" unicode="&#x42b;" horiz-adv-x="800" 
d="M65 700h130l5 -5v-260h95q105 0 170 -56.5t65 -158.5q0 -103 -65.5 -161.5t-169.5 -58.5h-230l-5 5v690zM200 295v-155h85q47 0 71 18.5t24 61.5q0 75 -95 75h-85zM605 700h130l5 -5v-690l-5 -5h-130l-5 5v690z" />
    <glyph glyph-name="uni042C" unicode="&#x42c;" 
d="M65 700h130l5 -5v-260h115q105 0 170 -56.5t65 -158.5q0 -103 -65.5 -161.5t-169.5 -58.5h-250l-5 5v690zM200 295v-155h105q47 0 71 18.5t24 61.5q0 75 -95 75h-105z" />
    <glyph glyph-name="uni042D" unicode="&#x42d;" horiz-adv-x="710" 
d="M60 495v155q90 65 240 65q153 0 261.5 -107t108.5 -258t-108.5 -258t-261.5 -107q-150 0 -240 65v155l5 5q95 -80 235 -80q73 0 130 45t77 115h-302l-5 5v130l5 5h296q-24 62 -78.5 101t-122.5 39q-140 0 -235 -80z" />
    <glyph glyph-name="uni042E" unicode="&#x42e;" horiz-adv-x="1040" 
d="M65 700h130l5 -5v-260h89q29 121 126.5 200.5t224.5 79.5q149 0 254.5 -106.5t105.5 -256.5q0 -152 -105.5 -259.5t-254.5 -107.5q-134 0 -235 88.5t-121 221.5h-84v-290l-5 -5h-130l-5 5v690zM640 570q-84 0 -144.5 -63t-60.5 -154q0 -93 60.5 -158t144.5 -65t144.5 65
t60.5 158q0 91 -60.5 154t-144.5 63z" />
    <glyph glyph-name="uni042F" unicode="&#x42f;" horiz-adv-x="640" 
d="M575 700l5 -5v-690l-5 -5h-130l-5 5v275h-50l-210 -275l-5 -5h-160l-5 5l240 320q-95 44 -95 165q0 89 61.5 149.5t163.5 60.5h195zM440 560h-50q-85 0 -85 -70t85 -70h50v140z" />
    <glyph glyph-name="uni0430" unicode="&#x430;" horiz-adv-x="510" 
d="M55 310l55 145q60 30 125 30q90 0 157.5 -52.5t67.5 -147.5v-280l-5 -5h-130l-5 5v15q-56 -35 -115 -35q-65 0 -115 36.5t-50 108.5q0 85 77 128t203 47q0 21 -26 40.5t-64 19.5q-80 0 -170 -60zM320 135v75q-140 -7 -140 -65q0 -18 14.5 -29t30.5 -11q43 0 95 30z" />
    <glyph glyph-name="uni0431" unicode="&#x431;" 
d="M480 710v-130l-5 -5q-26 -10 -65 -10q-21 0 -58.5 5t-51.5 5q-43 0 -72 -39t-33 -91q47 20 105 20q98 0 169 -69t71 -166q0 -105 -70 -175t-170 -70q-52 0 -96 17t-82 55t-60 109t-22 169q0 85 17 152.5t43.5 109t60.5 69t66 38.5t63 11q24 0 64 -5t56 -5q35 0 65 10z
M185 295q0 -80 30 -127.5t85 -47.5q44 0 69.5 30t25.5 80q0 42 -27 71t-68 29q-36 0 -59.5 -6.5t-55.5 -28.5z" />
    <glyph glyph-name="uni0432" unicode="&#x432;" horiz-adv-x="540" 
d="M65 470h215q82 0 136 -30.5t54 -99.5q0 -57 -40 -88q70 -26 70 -112q0 -67 -50.5 -103.5t-129.5 -36.5h-255l-5 5v460zM200 340v-50h105q25 0 25 25t-25 25h-105zM200 190v-60h130q30 0 30 30t-30 30h-130z" />
    <glyph glyph-name="uni0433" unicode="&#x433;" horiz-adv-x="440" 
d="M65 470h340l5 -5v-130l-5 -5h-205v-325l-5 -5h-130l-5 5v460z" />
    <glyph glyph-name="uni0434" unicode="&#x434;" horiz-adv-x="660" 
d="M160 470h375l5 -5v-325h75l5 -5v-270l-5 -5h-130l-5 5v135h-300v-135l-5 -5h-130l-5 5v270l5 5h65q13 26 17 55l28 270zM280 330l-13 -138q-3 -38 -7 -52h140v190h-120z" />
    <glyph glyph-name="uni0435" unicode="&#x435;" horiz-adv-x="550" 
d="M495 160v-125q-75 -50 -180 -50q-122 0 -198.5 72.5t-76.5 182.5q0 104 67.5 174.5t177.5 70.5q101 0 163 -68t62 -147q0 -45 -5 -65l-5 -5h-320q20 -95 135 -95q95 0 175 60zM185 300h185q-4 27 -28 46t-57 19q-72 0 -100 -65z" />
    <glyph glyph-name="uni0436" unicode="&#x436;" horiz-adv-x="780" 
d="M325 470h130l5 -5v-145h25l105 145l10 5h145l5 -5l-150 -210l170 -250l-5 -5h-155l-10 5l-115 175h-25v-175l-5 -5h-130l-5 5v175h-25l-115 -175l-10 -5h-155l-5 5l170 250l-150 210l5 5h145l10 -5l105 -145h25v145z" />
    <glyph glyph-name="uni0437" unicode="&#x437;" horiz-adv-x="480" 
d="M50 320v126q67 39 155 39q104 0 159.5 -41t55.5 -104q0 -57 -50 -90q70 -35 70 -120q0 -68 -61.5 -106.5t-173.5 -38.5q-105 0 -165 45v125l5 5q69 -55 160 -55q47 0 71 12.5t24 32.5q0 18 -11 29t-29 11h-110l-5 5v90l5 5h100q14 0 22 9t8 21q0 45 -75 45
q-79 0 -150 -50z" />
    <glyph glyph-name="uni0438" unicode="&#x438;" 
d="M65 470h130l5 -5v-235l167 235l10 5h137l6 -5v-460l-6 -5h-130l-4 5v235l-167 -235l-10 -5h-138l-5 5v460z" />
    <glyph glyph-name="uni0439" unicode="&#x439;" 
d="M65 470h130l5 -5v-235l167 235l10 5h137l6 -5v-460l-6 -5h-130l-4 5v235l-167 -235l-10 -5h-138l-5 5v460zM110 690h125l5 -5q0 -45 50 -45t50 45l5 5h125l5 -5q-6 -82 -57.5 -123.5t-127.5 -41.5t-127 41.5t-58 123.5z" />
    <glyph glyph-name="uni043A" unicode="&#x43a;" horiz-adv-x="560" 
d="M65 470h130l5 -5v-145h40l115 145l10 5h150l5 -5l-170 -210l200 -250l-5 -5h-155l-10 5l-140 175h-40v-175l-5 -5h-130l-5 5v460z" />
    <glyph glyph-name="uni043B" unicode="&#x43b;" horiz-adv-x="600" 
d="M160 470h375l5 -5v-460l-5 -5h-130l-5 5v325h-120l-30 -198q-34 -147 -225 -147l-5 5v125l5 5q75 0 95 80l35 265z" />
    <glyph glyph-name="uni043C" unicode="&#x43c;" horiz-adv-x="670" 
d="M65 470h122l10 -5l138 -170l137 170l10 5h123l5 -5v-460l-5 -5h-130l-5 5v250l-130 -165h-10l-130 165v-250l-5 -5h-130l-5 5v460z" />
    <glyph glyph-name="uni043D" unicode="&#x43d;" 
d="M65 470h130l5 -5v-145h180v145l5 5h130l5 -5v-460l-5 -5h-130l-5 5v175h-180v-175l-5 -5h-130l-5 5v460z" />
    <glyph glyph-name="uni043E" unicode="&#x43e;" 
d="M290 485q105 0 177.5 -72.5t72.5 -177.5t-72.5 -177.5t-177.5 -72.5t-177.5 72.5t-72.5 177.5t72.5 177.5t177.5 72.5zM290 350q-48 0 -79 -33t-31 -82t31 -82t79 -33t79 33t31 82t-31 82t-79 33z" />
    <glyph glyph-name="uni043F" unicode="&#x43f;" 
d="M65 470h450l5 -5v-460l-5 -5h-130l-5 5v325h-180v-325l-5 -5h-130l-5 5v460z" />
    <glyph glyph-name="uni0440" unicode="&#x440;" horiz-adv-x="600" 
d="M65 470h130l5 -5v-15q56 35 120 35q103 0 171.5 -72.5t68.5 -177.5t-68.5 -177.5t-171.5 -72.5q-64 0 -120 35v-245l-5 -5h-130l-5 5v690zM200 290v-110q40 -60 110 -60q46 0 78 34t32 81t-32 81t-78 34q-65 0 -110 -60z" />
    <glyph glyph-name="uni0441" unicode="&#x441;" horiz-adv-x="500" 
d="M460 300l-5 -5q-69 55 -155 55q-55 0 -87.5 -32.5t-32.5 -82.5t32.5 -82.5t87.5 -32.5q86 0 155 55l5 -5v-135q-67 -50 -160 -50q-114 0 -187 72.5t-73 177.5t73 177.5t187 72.5q93 0 160 -50v-135z" />
    <glyph glyph-name="uni0442" unicode="&#x442;" horiz-adv-x="460" 
d="M15 470h430l5 -5v-130l-5 -5h-145v-325l-5 -5h-130l-5 5v325h-145l-5 5v130z" />
    <glyph glyph-name="uni0443" unicode="&#x443;" horiz-adv-x="560" 
d="M15 470h145l10 -5l110 -255l110 255l10 5h145l5 -5l-280 -580q-71 -125 -240 -125l-5 7v118l5 5q90 0 125 70l50 100l-195 405z" />
    <glyph glyph-name="uni0444" unicode="&#x444;" horiz-adv-x="680" 
d="M275 700h130l5 -5v-215q101 -15 165.5 -83.5t64.5 -161.5q0 -94 -63 -162t-167 -83v-215l-5 -5h-130l-5 5v215q-104 15 -167 83t-63 162q0 93 64.5 161.5t165.5 83.5v215zM270 125v220q-85 -28 -85 -110q0 -84 85 -110zM410 345v-220q85 26 85 110q0 82 -85 110z" />
    <glyph glyph-name="uni0445" unicode="&#x445;" horiz-adv-x="520" 
d="M25 470h155l10 -5l70 -100l70 100l10 5h155l5 -5l-160 -220l170 -240l-5 -5h-155l-10 5l-80 115l-80 -115l-10 -5h-155l-5 5l170 240l-160 220z" />
    <glyph glyph-name="uni0446" unicode="&#x446;" horiz-adv-x="660" 
d="M65 470h130l5 -5v-325h180v325l5 5h130l5 -5v-325h95l5 -5v-270l-5 -5h-130l-5 5v135h-415l-5 5v460z" />
    <glyph glyph-name="uni0447" unicode="&#x447;" 
d="M55 470h130l5 -5v-85q0 -115 100 -115q59 0 90 25v175l5 5h130l5 -5v-460l-5 -5h-130l-5 5v152q-55 -22 -105 -22q-109 0 -167 65.5t-58 174.5v90z" />
    <glyph glyph-name="uni0448" unicode="&#x448;" horiz-adv-x="840" 
d="M65 470h130l5 -5v-325h150v325l5 5h130l5 -5v-325h150v325l5 5h130l5 -5v-460l-5 -5h-710l-5 5v460z" />
    <glyph glyph-name="uni0449" unicode="&#x449;" horiz-adv-x="920" 
d="M65 470h130l5 -5v-325h150v325l5 5h130l5 -5v-325h150v325l5 5h130l5 -5v-325h95l5 -5v-270l-5 -5h-130l-5 5v135h-675l-5 5v460z" />
    <glyph glyph-name="uni044A" unicode="&#x44a;" horiz-adv-x="620" 
d="M35 470h280l5 -5v-125h100q68 0 119 -42.5t51 -127.5t-51 -127.5t-119 -42.5h-235l-5 5v325h-145l-5 5v130zM320 220v-80h80q45 0 45 40t-45 40h-80z" />
    <glyph glyph-name="uni044B" unicode="&#x44b;" horiz-adv-x="740" 
d="M65 470h130l5 -5v-125h100q68 0 119 -42.5t51 -127.5t-51 -127.5t-119 -42.5h-235l-5 5v460zM200 220v-80h80q45 0 45 40t-45 40h-80zM545 470h130l5 -5v-460l-5 -5h-130l-5 5v460z" />
    <glyph glyph-name="uni044C" unicode="&#x44c;" horiz-adv-x="520" 
d="M65 470h130l5 -5v-125h120q68 0 119 -42.5t51 -127.5t-51 -127.5t-119 -42.5h-255l-5 5v460zM200 220v-80h100q45 0 45 40t-45 40h-100z" />
    <glyph glyph-name="uni044D" unicode="&#x44d;" horiz-adv-x="500" 
d="M40 300v135q67 50 160 50q114 0 187 -72.5t73 -177.5t-73 -177.5t-187 -72.5q-93 0 -160 50v135l5 5q69 -55 155 -55q78 0 108 60h-183l-5 5v100l5 5h183q-30 60 -108 60q-86 0 -155 -55z" />
    <glyph glyph-name="uni044E" unicode="&#x44e;" horiz-adv-x="810" 
d="M85 470h130l5 -5v-155h61q24 77 89.5 126t149.5 49q105 0 177.5 -72.5t72.5 -177.5t-72.5 -177.5t-177.5 -72.5q-88 0 -154.5 51.5t-87.5 133.5h-58v-165l-5 -5h-130l-5 5v460zM520 350q-48 0 -79 -33t-31 -82t31 -82t79 -33t79 33t31 82t-31 82t-79 33z" />
    <glyph glyph-name="uni044F" unicode="&#x44f;" horiz-adv-x="540" 
d="M475 470l5 -5v-460l-5 -5h-130l-5 5v125h-30l-110 -125l-10 -5h-175l-5 5l130 145q-100 38 -100 150q0 82 50 126t115 44h270zM340 330h-110q-45 0 -45 -40t45 -40h110v80z" />
    <glyph glyph-name="uni0450" unicode="&#x450;" horiz-adv-x="550" 
d="M495 160v-125q-75 -50 -180 -50q-122 0 -198.5 72.5t-76.5 182.5q0 104 67.5 174.5t177.5 70.5q101 0 163 -68t62 -147q0 -45 -5 -65l-5 -5h-320q20 -95 135 -95q95 0 175 60zM185 300h185q-4 27 -28 46t-57 19q-72 0 -100 -65zM94 690h156l10 -5l135 -145l-5 -5h-130
l-10 5l-160 145z" />
    <glyph glyph-name="uni0451" unicode="&#x451;" horiz-adv-x="550" 
d="M495 160v-125q-75 -50 -180 -50q-122 0 -198.5 72.5t-76.5 182.5q0 104 67.5 174.5t177.5 70.5q101 0 163 -68t62 -147q0 -45 -5 -65l-5 -5h-320q20 -95 135 -95q95 0 175 60zM185 300h185q-4 27 -28 46t-57 19q-72 0 -100 -65zM160 695h10l80 -80v-10l-80 -80h-10
l-80 80v10zM390 695h10l80 -80v-10l-80 -80h-10l-80 80v10z" />
    <glyph glyph-name="uni0452" unicode="&#x452;" horiz-adv-x="600" 
d="M65 700h130l5 -5v-50h175l5 -5v-130l-5 -5h-175v-95q61 35 125 35q110 0 167.5 -58.5t57.5 -161.5v-295q0 -96 -48.5 -145.5t-136.5 -49.5q-35 0 -55 10v130l5 5q20 -10 40 -10q27 0 41 18.5t14 76.5v235q0 110 -100 110q-65 0 -110 -50v-255l-5 -5h-130l-5 5v500h-55
l-5 5v130l5 5h55v50z" />
    <glyph glyph-name="uni0453" unicode="&#x453;" horiz-adv-x="440" 
d="M65 470h340l5 -5v-130l-5 -5h-205v-325l-5 -5h-130l-5 5v460zM280 690h156l4 -5l-160 -145l-10 -5h-130l-5 5l135 145z" />
    <glyph glyph-name="uni0454" unicode="&#x454;" horiz-adv-x="500" 
d="M460 300l-5 -5q-69 55 -155 55q-78 0 -108 -60h183l5 -5v-100l-5 -5h-183q30 -60 108 -60q86 0 155 55l5 -5v-135q-67 -50 -160 -50q-114 0 -187 72.5t-73 177.5t73 177.5t187 72.5q93 0 160 -50v-135z" />
    <glyph glyph-name="uni0455" unicode="&#x455;" horiz-adv-x="470" 
d="M390 315l-5 -5q-77 45 -150 45q-45 0 -45 -30q0 -12 24.5 -19t60 -14t71 -20.5t60 -45.5t24.5 -81q0 -66 -54 -113t-141 -47q-113 0 -180 45v136l5 4q86 -55 175 -55q55 0 55 30q0 15 -24.5 23.5t-60 16.5t-71 20.5t-60 43t-24.5 76.5q0 64 51 112t134 48q91 0 155 -40
v-130z" />
    <glyph glyph-name="uni0456" unicode="&#x456;" horiz-adv-x="260" 
d="M65 470h130l5 -5v-460l-5 -5h-130l-5 5v460zM125 705h10l90 -90v-10l-90 -90h-10l-90 90v10z" />
    <glyph glyph-name="uni0457" unicode="&#x457;" horiz-adv-x="260" 
d="M25 695h10l80 -80v-10l-80 -80h-10l-80 80v10zM225 695h10l80 -80v-10l-80 -80h-10l-80 80v10zM65 470h130l5 -5v-460l-5 -5h-130l-5 5v460z" />
    <glyph glyph-name="uni0458" unicode="&#x458;" horiz-adv-x="260" 
d="M65 470h130l5 -5v-535q0 -96 -48.5 -145.5t-136.5 -49.5q-35 0 -55 10v130l5 5q20 -10 40 -10q27 0 41 18.5t14 76.5v500zM125 705h10l90 -90v-10l-90 -90h-10l-90 90v10z" />
    <glyph glyph-name="uni0459" unicode="&#x459;" horiz-adv-x="820" 
d="M160 470h355l5 -5v-125h100q68 0 119 -42.5t51 -127.5t-51 -127.5t-119 -42.5h-235l-5 5v325h-100l-30 -198q-34 -147 -225 -147l-5 7v123l5 5q75 0 95 80l35 265zM520 220v-80h80q45 0 45 40t-45 40h-80z" />
    <glyph glyph-name="uni045A" unicode="&#x45a;" horiz-adv-x="800" 
d="M65 470h130l5 -5v-145h160v145l5 5h130l5 -5v-125h100q68 0 119 -42.5t51 -127.5t-51 -127.5t-119 -42.5h-235l-5 5v175h-160v-175l-5 -5h-130l-5 5v460zM500 220v-80h80q45 0 45 40t-45 40h-80z" />
    <glyph glyph-name="uni045B" unicode="&#x45b;" horiz-adv-x="600" 
d="M65 700h130l5 -5v-50h175l5 -5v-130l-5 -5h-175v-95q61 35 125 35q110 0 167.5 -58.5t57.5 -161.5v-220l-5 -5h-130l-5 5v195q0 110 -100 110q-65 0 -110 -50v-255l-5 -5h-130l-5 5v500h-55l-5 5v130l5 5h55v50z" />
    <glyph glyph-name="uni045C" unicode="&#x45c;" 
d="M320 690h156l4 -5l-160 -145l-10 -5h-130l-5 5l135 145zM65 470h130l5 -5v-145h40l115 145l10 5h150l5 -5l-170 -210l200 -250l-5 -5h-155l-10 5l-140 175h-40v-175l-5 -5h-130l-5 5v460z" />
    <glyph glyph-name="uni045D" unicode="&#x45d;" 
d="M65 470h130l5 -5v-235l167 235l10 5h137l6 -5v-460l-6 -5h-130l-4 5v235l-167 -235l-10 -5h-138l-5 5v460zM104 690h156l10 -5l135 -145l-5 -5h-130l-10 5l-160 145z" />
    <glyph glyph-name="uni045E" unicode="&#x45e;" horiz-adv-x="560" 
d="M15 470h145l10 -5l110 -255l110 255l10 5h145l5 -5l-280 -580q-71 -125 -240 -125l-5 7v118l5 5q90 0 125 70l50 100l-195 405zM100 690h125l5 -5q0 -45 50 -45t50 45l5 5h125l5 -5q-6 -82 -57.5 -123.5t-127.5 -41.5t-127 41.5t-58 123.5z" />
    <glyph glyph-name="uni045F" unicode="&#x45f;" horiz-adv-x="560" 
d="M65 470h130l5 -5v-325h160v325l5 5h130l5 -5v-460l-5 -5h-145v-135l-5 -5h-130l-5 5v135h-145l-5 5v460z" />
    <glyph glyph-name="uni0460" unicode="&#x460;" horiz-adv-x="940" 
d="M404 500h132l4 -4v-261q0 -60 24 -90t81 -30q42 0 76 48.5t34 156.5q0 181 -163 375l5 5h150l10 -5q60 -73 101.5 -171.5t41.5 -203.5q0 -91 -23.5 -159.5t-63 -105t-81.5 -53.5t-87 -17q-66 0 -103.5 15.5t-71.5 49.5q-34 -34 -71.5 -49.5t-103.5 -15.5q-45 0 -87.5 17
t-81.5 53.5t-62.5 105t-23.5 159.5q0 105 41 203.5t101 172.5l10 4h150l5 -5q-162 -196 -162 -375q0 -108 34 -156.5t76 -48.5q57 0 81 30t24 90v261z" />
    <glyph glyph-name="uni0461" unicode="&#x461;" horiz-adv-x="780" 
d="M334 370h112l4 -4v-131q0 -115 75 -115q40 0 57.5 28.5t17.5 86.5q0 85 -73 231l4 4h145l4 -4q32 -74 46 -124t14 -107q0 -116 -55.5 -183t-149.5 -67q-52 0 -83.5 13t-61.5 47q-30 -34 -61.5 -47t-83.5 -13q-94 0 -149.5 67t-55.5 183q0 57 14 107t46 124l4 4h144l4 -4
q-72 -147 -72 -231q0 -58 17.5 -86.5t57.5 -28.5q75 0 75 115v131z" />
    <glyph glyph-name="uni0462" unicode="&#x462;" horiz-adv-x="720" 
d="M205 740h130l5 -5v-95h205l5 -5v-130l-5 -5h-205v-65h115q105 0 170 -56.5t65 -158.5q0 -103 -65.5 -161.5t-169.5 -58.5h-250l-5 5v495h-165l-5 5v130l5 5h165v95zM340 295v-155h105q47 0 71 18.5t24 61.5q0 75 -95 75h-105z" />
    <glyph glyph-name="uni0463" unicode="&#x463;" horiz-adv-x="640" 
d="M185 700h130l5 -5v-155h165l5 -5v-130l-5 -5h-165v-60h120q68 0 119 -42.5t51 -127.5t-51 -127.5t-119 -42.5h-255l-5 5v395h-145l-5 5v130l5 5h145v155zM320 220v-80h100q45 0 45 40t-45 40h-100z" />
    <glyph glyph-name="uni0464" unicode="&#x464;" horiz-adv-x="950" 
d="M85 700h130l5 -5v-260h70q30 121 130 200.5t230 79.5q150 0 240 -65v-155l-5 -5q-95 80 -235 80q-68 0 -122.5 -39t-78.5 -101h296l5 -5v-130l-5 -5h-302q20 -70 77 -115t130 -45q140 0 235 80l5 -5v-155q-90 -65 -240 -65q-138 0 -242 89t-124 221h-64v-290l-5 -5h-130
l-5 5v690z" />
    <glyph glyph-name="uni0465" unicode="&#x465;" horiz-adv-x="730" 
d="M85 470h130l5 -5v-168h57q21 83 89 135.5t164 52.5q93 0 160 -50v-135l-5 -5q-69 55 -155 55q-78 0 -108 -60h183l5 -5v-100l-5 -5h-183q30 -60 108 -60q86 0 155 55l5 -5v-135q-67 -50 -160 -50q-100 0 -169.5 57t-86.5 145h-54v-182l-5 -5h-130l-5 5v460z" />
    <glyph glyph-name="uni0466" unicode="&#x466;" horiz-adv-x="700" 
d="M280 700h140l5 -5l265 -690l-5 -5h-155l-5 5l-50 140h-55v-140l-5 -5h-130l-5 5v140h-55l-50 -140l-5 -5h-155l-5 5l265 690zM350 520l-80 -235h160z" />
    <glyph glyph-name="uni0467" unicode="&#x467;" horiz-adv-x="540" 
d="M207 470h125l5 -5l193 -460l-5 -5h-140l-10 5l-24 60h-21v-60l-5 -5h-110l-5 5v60h-22l-23 -60l-10 -5h-140l-5 5l192 460zM270 280l-40 -95h80z" />
    <glyph glyph-name="uni0468" unicode="&#x468;" horiz-adv-x="960" 
d="M65 700h130l5 -5v-260h235l100 260l5 5h140l5 -5l265 -690l-5 -5h-155l-5 5l-50 140h-55v-140l-5 -5h-130l-5 5v140h-55l-50 -140l-5 -5h-155l-5 5l110 290h-180v-290l-5 -5h-130l-5 5v690zM610 520l-80 -235h160z" />
    <glyph glyph-name="uni0469" unicode="&#x469;" horiz-adv-x="760" 
d="M65 470h130l5 -5v-155h157l65 155l5 5h125l5 -5l193 -460l-5 -5h-140l-10 5l-24 60h-21v-60l-5 -5h-110l-5 5v60h-22l-23 -60l-10 -5h-140l-5 5l69 165h-99v-165l-5 -5h-130l-5 5v460zM490 280l-40 -95h80z" />
    <glyph glyph-name="uni046A" unicode="&#x46a;" horiz-adv-x="900" 
d="M60 700h780l5 -5l-230 -310l275 -380l-5 -5h-160l-10 5l-195 275v-275l-5 -5h-130l-5 5v275l-195 -275l-10 -5h-160l-5 5l275 380l-230 310zM340 560l110 -160l110 160h-220z" />
    <glyph glyph-name="uni046B" unicode="&#x46b;" horiz-adv-x="700" 
d="M40 470h620l5 -5l-145 -205l170 -255l-5 -5h-158l-10 5l-97 155v-155l-5 -5h-130l-5 5v155l-98 -155l-10 -5h-157l-5 5l170 255l-145 205zM275 350l75 -90l75 90h-150z" />
    <glyph glyph-name="uni046C" unicode="&#x46c;" horiz-adv-x="1140" 
d="M65 700h130l5 -5v-260h288l-193 260l5 5h780l5 -5l-230 -310l275 -380l-5 -5h-160l-10 5l-195 275v-275l-5 -5h-130l-5 5v275l-195 -275l-10 -5h-160l-5 5l210 290h-260v-290l-5 -5h-130l-5 5v690zM580 560l110 -160l110 160h-220z" />
    <glyph glyph-name="uni046D" unicode="&#x46d;" horiz-adv-x="920" 
d="M65 470h130l5 -5v-155h165l-110 155l5 5h620l5 -5l-145 -205l170 -255l-5 -5h-158l-10 5l-97 155v-155l-5 -5h-130l-5 5v155l-98 -155l-10 -5h-157l-5 5l110 165h-140v-165l-5 -5h-130l-5 5v460zM495 350l75 -90l75 90h-150z" />
    <glyph glyph-name="uni046E" unicode="&#x46e;" horiz-adv-x="550" 
d="M45 905h140l10 -5l45 -55l45 55l10 5h140l5 -5l-120 -125l-10 -5h-140l-10 7l-120 123zM120 525l-80 95q32 40 87 67.5t113 27.5q114 0 177 -54.5t63 -140.5q0 -88 -70 -140q52 -22 81 -70t29 -105q0 -93 -73 -156.5t-197 -63.5h-15l20 -160l-5 -5h-115l-5 5l-60 295l5 5
h150q140 0 140 80q0 44 -24.5 62t-75.5 18h-110l-5 5v130l5 5h100q31 0 50.5 21.5t19.5 58.5q0 26 -24 45.5t-61 19.5q-50 0 -110 -45h-10z" />
    <glyph glyph-name="uni046F" unicode="&#x46f;" horiz-adv-x="485" 
d="M50 320v126q67 39 155 39q104 0 159.5 -41t55.5 -104q0 -57 -50 -90q70 -35 70 -120q0 -64 -53.5 -104.5t-161.5 -40.5h-13l12 -140l-5 -5h-115l-5 5l-54 275l5 5h145q105 0 105 35q0 30 -40 30h-110l-5 5v90l5 5h100q14 0 22 9t8 21q0 45 -75 45q-79 0 -150 -50zM25 690
h135l10 -5l50 -65l50 65l10 5h135l5 -5l-130 -145l-10 -5h-120l-10 5l-130 145z" />
    <glyph glyph-name="uni0470" unicode="&#x470;" horiz-adv-x="760" 
d="M315 700h130l5 -5v-346q120 37 120 191v155l5 5h130l5 -5v-175q0 -131 -71 -215.5t-189 -104.5v-195l-5 -5h-130l-5 5v195q-118 20 -189 104t-71 216v175l5 5h130l5 -5v-155q0 -154 120 -191v346z" />
    <glyph glyph-name="uni0471" unicode="&#x471;" horiz-adv-x="680" 
d="M55 470h130l5 -5v-240q0 -46 20 -69.5t60 -35.5v576l4 4h132l4 -4v-576q48 10 69 45.5t21 79.5q0 57 -8 96t-37 124l4 5h132l9 -5q26 -79 33 -116t7 -104q0 -105 -63.5 -176.5t-166.5 -80.5v-214l-4 -4h-132l-4 4v211q-102 12 -161 72.5t-59 162.5v245z" />
    <glyph glyph-name="uni0472" unicode="&#x472;" horiz-adv-x="820" 
d="M410 715q153 0 261.5 -107t108.5 -258t-108.5 -258t-261.5 -107t-261.5 107t-108.5 258t108.5 258t261.5 107zM210 435h400q-22 63 -76.5 99t-123.5 36t-123.5 -36t-76.5 -99zM620 295h-420q15 -77 73.5 -121t136.5 -44t136.5 44t73.5 121z" />
    <glyph glyph-name="uni0473" unicode="&#x473;" 
d="M290 485q106 0 178 -72.5t72 -177.5t-72 -177.5t-178 -72.5q-107 0 -178.5 72t-71.5 178t71.5 178t178.5 72zM194 285h192q-23 65 -96 65t-96 -65zM386 185h-192q23 -65 96 -65t96 65z" />
    <glyph glyph-name="uni0474" unicode="&#x474;" horiz-adv-x="700" 
d="M15 700h150l5 -5l180 -485l125 360q26 69 73.5 107t146.5 38l5 -8v-122l-5 -5q-61 0 -95 -75l-175 -500l-5 -5h-140l-5 5l-265 690z" />
    <glyph glyph-name="uni0475" unicode="&#x475;" horiz-adv-x="520" 
d="M15 470h145l5 -5l95 -275l45 150q13 34 25.5 55.5t35.5 44.5t60 34t89 11l5 -8v-122l-5 -5q-32 0 -50.5 -17.5t-34.5 -57.5l-105 -270l-5 -5h-120l-5 5l-185 460z" />
    <glyph glyph-name="uni0476" unicode="&#x476;" horiz-adv-x="700" 
d="M15 700h150l5 -5l180 -485l125 360q26 69 73.5 107t146.5 38l5 -8v-122l-5 -5q-61 0 -95 -75l-175 -500l-5 -5h-140l-5 5l-265 690zM290 905h150l10 -5l73 -125l-5 -5h-123l-10 5l-100 125zM80 905h150l10 -5l73 -125l-5 -5h-123l-10 5l-100 125z" />
    <glyph glyph-name="uni0477" unicode="&#x477;" horiz-adv-x="520" 
d="M15 470h145l5 -5l95 -275l45 150q13 34 25.5 55.5t35.5 44.5t60 34t89 11l5 -8v-122l-5 -5q-32 0 -50.5 -17.5t-34.5 -57.5l-105 -270l-5 -5h-120l-5 5l-185 460zM-9 690h135l10 -5l90 -145l-5 -5h-115l-10 5l-110 145zM181 690h135l10 -5l90 -145l-5 -5h-115l-10 5
l-110 145z" />
    <glyph glyph-name="uni0478" unicode="&#x478;" horiz-adv-x="1380" 
d="M410 715q154 0 262 -106t108 -259t-108 -259t-262 -106t-262 106t-108 259t108 259t262 106zM410 570q-90 0 -152.5 -63.5t-62.5 -156.5t62.5 -156.5t152.5 -63.5t152.5 63.5t62.5 156.5t-62.5 156.5t-152.5 63.5zM835 470h145l10 -5l110 -255l110 255l10 5h145l5 -5
l-280 -580q-71 -125 -240 -125l-5 7v118l5 5q90 0 125 70l50 100l-195 405z" />
    <glyph glyph-name="uni0479" unicode="&#x479;" horiz-adv-x="1120" 
d="M290 485q105 0 177.5 -72.5t72.5 -177.5t-72.5 -177.5t-177.5 -72.5t-177.5 72.5t-72.5 177.5t72.5 177.5t177.5 72.5zM290 350q-48 0 -79 -33t-31 -82t31 -82t79 -33t79 33t31 82t-31 82t-79 33zM575 470h145l10 -5l110 -255l110 255l10 5h145l5 -5l-280 -580
q-71 -125 -240 -125l-5 7v118l5 5q90 0 125 70l50 100l-195 405z" />
    <glyph glyph-name="uni047A" unicode="&#x47a;" horiz-adv-x="820" 
d="M405 780h10l73 -73q127 -27 209.5 -126t82.5 -231q0 -133 -82.5 -232t-209.5 -125l-73 -73h-10l-73 73q-127 26 -209.5 125t-82.5 232q0 132 82.5 231t209.5 126zM405 480l-75 75q-61 -24 -98 -79.5t-37 -125.5q0 -71 37 -126t98 -79l75 75h10l75 -75q60 24 97.5 79
t37.5 126q0 70 -37.5 125.5t-97.5 79.5l-75 -75h-10z" />
    <glyph glyph-name="uni047B" unicode="&#x47b;" 
d="M285 535h10l57 -58q83 -20 135.5 -87t52.5 -155t-52.5 -155t-135.5 -87l-57 -58h-10l-58 58q-82 20 -134.5 86.5t-52.5 155.5q0 88 52.5 155t134.5 87zM285 275l-57 57q-48 -32 -48 -97t48 -97l57 57h10l57 -57q48 32 48 97t-48 97l-57 -57h-10z" />
    <glyph glyph-name="uni047C" unicode="&#x47c;" horiz-adv-x="940" 
d="M255 885h105l220 -45v35l5 5h100l5 -5v-140l-5 -5h-105l-220 45v-35l-5 -5h-100l-5 5v140zM404 500h132l4 -4v-261q0 -60 24 -90t81 -30q42 0 76 48.5t34 156.5q0 181 -163 375l5 5h150l10 -5q60 -73 101.5 -171.5t41.5 -203.5q0 -91 -23.5 -159.5t-63 -105t-81.5 -53.5
t-87 -17q-66 0 -103.5 15.5t-71.5 49.5q-34 -34 -71.5 -49.5t-103.5 -15.5q-45 0 -87.5 17t-81.5 53.5t-62.5 105t-23.5 159.5q0 105 41 203.5t101 172.5l10 4h150l5 -5q-162 -196 -162 -375q0 -108 34 -156.5t76 -48.5q57 0 81 30t24 90v261z" />
    <glyph glyph-name="uni047D" unicode="&#x47d;" horiz-adv-x="780" 
d="M185 662h105l200 -32v35l5 5h100l5 -5v-138l-5 -5h-105l-200 33v-35l-5 -5h-100l-5 5v137zM334 370h112l4 -4v-131q0 -120 75 -120q70 0 70 120q0 95 -68 231l4 4h145l4 -4q32 -74 46 -124t14 -107q0 -116 -55.5 -183t-149.5 -67q-52 0 -83.5 13t-61.5 47
q-30 -34 -61.5 -47t-83.5 -13q-94 0 -149.5 67t-55.5 183q0 57 14 107t46 124l4 4h144l4 -4q-67 -137 -67 -231q0 -120 70 -120q75 0 75 120v131z" />
    <glyph glyph-name="uni047E" unicode="&#x47e;" horiz-adv-x="940" 
d="M255 875h430l5 -5v-125l-5 -5h-90l-5 5v30h-70v-30l-5 -5h-90l-5 5v30h-70v-30l-5 -5h-90l-5 5v125zM404 500h132l4 -4v-261q0 -60 24 -90t81 -30q42 0 76 48.5t34 156.5q0 181 -163 375l5 5h150l10 -5q60 -73 101.5 -171.5t41.5 -203.5q0 -91 -23.5 -159.5t-63 -105
t-81.5 -53.5t-87 -17q-66 0 -103.5 15.5t-71.5 49.5q-34 -34 -71.5 -49.5t-103.5 -15.5q-45 0 -87.5 17t-81.5 53.5t-62.5 105t-23.5 159.5q0 105 41 203.5t101 172.5l10 4h150l5 -5q-162 -196 -162 -375q0 -108 34 -156.5t76 -48.5q57 0 81 30t24 90v261z" />
    <glyph glyph-name="uni047F" unicode="&#x47f;" horiz-adv-x="780" 
d="M185 670h410l5 -5v-145l-5 -5h-100l-5 5v40h-45v-40l-5 -5h-100l-5 5v40h-45v-40l-5 -5h-100l-5 5v145zM334 370h112l4 -4v-131q0 -120 75 -120q70 0 70 120q0 95 -68 231l4 4h145l4 -4q32 -74 46 -124t14 -107q0 -116 -55.5 -183t-149.5 -67q-52 0 -83.5 13t-61.5 47
q-30 -34 -61.5 -47t-83.5 -13q-94 0 -149.5 67t-55.5 183q0 57 14 107t46 124l4 4h144l4 -4q-67 -137 -67 -231q0 -120 70 -120q75 0 75 120v131z" />
    <glyph glyph-name="uni0480" unicode="&#x480;" horiz-adv-x="710" 
d="M650 495l-5 -5q-95 80 -235 80q-90 0 -152.5 -65t-62.5 -155q0 -92 71 -158.5t174 -66.5h130l5 -5l-60 -295l-5 -5h-115l-5 5l20 160h-5q-153 0 -259 107t-106 258t108.5 258t261.5 107q150 0 240 -65v-155z" />
    <glyph glyph-name="uni0481" unicode="&#x481;" horiz-adv-x="500" 
d="M460 300l-5 -5q-69 55 -155 55q-55 0 -87.5 -32.5t-32.5 -82.5q0 -110 170 -110h70l5 -5l-55 -275l-5 -5h-115l-5 5l20 140h-5q-77 4 -148.5 73.5t-71.5 176.5q0 105 73 177.5t187 72.5q93 0 160 -50v-135z" />
    <glyph glyph-name="uni048A" unicode="&#x48a;" horiz-adv-x="800" 
d="M65 700h130l5 -5v-455l350 455l10 5h135l5 -5v-555h95l5 -5l-55 -310l-5 -5h-115l-5 5l20 175h-75l-5 5v455l-350 -455l-10 -5h-135l-5 5v690zM220 905h103l5 -5q12 -35 52 -35q41 0 50 35l5 5h105l5 -5q-7 -67 -53.5 -101t-111.5 -34t-111.5 34t-53.5 101z" />
    <glyph glyph-name="uni048B" unicode="&#x48b;" horiz-adv-x="640" 
d="M85 470h130l5 -5v-248l166 248l10 5h138l6 -5v-325h95l5 -5l-45 -270l-5 -5h-120l-5 5l15 135h-76l-4 5v247l-168 -247l-10 -5h-137l-5 5v460zM110 690h125l5 -5q0 -45 50 -45t50 45l5 5h125l5 -5q-6 -82 -57.5 -123.5t-127.5 -41.5t-127 41.5t-58 123.5z" />
    <glyph glyph-name="uni048C" unicode="&#x48c;" horiz-adv-x="660" 
d="M145 740h130l5 -5v-95h125l5 -5v-130l-5 -5h-125v-65h115q105 0 170 -56.5t65 -158.5q0 -103 -65.5 -161.5t-169.5 -58.5h-250l-5 5v495h-105l-5 5v130l5 5h105v95zM280 295v-155h105q47 0 71 18.5t24 61.5q0 75 -95 75h-105z" />
    <glyph glyph-name="uni048D" unicode="&#x48d;" horiz-adv-x="600" 
d="M145 700h130l5 -5v-155h125l5 -5v-130l-5 -5h-125v-60h120q68 0 119 -42.5t51 -127.5t-51 -127.5t-119 -42.5h-255l-5 5v395h-105l-5 5v130l5 5h105v155zM280 220v-80h100q45 0 45 40t-45 40h-100z" />
    <glyph glyph-name="uni048E" unicode="&#x48e;" horiz-adv-x="560" 
d="M64 700h216q115 0 182.5 -65.5t67.5 -159.5q0 -63 -32 -115l42 -35v-5l-70 -80h-5l-49 41q-57 -31 -136 -31h-80v-245l-5 -5h-130l-5 5v690zM200 560v-170h70h16l-46 40v5l70 80h5l59 -51q1 4 1 11q0 85 -105 85h-70z" />
    <glyph glyph-name="uni048F" unicode="&#x48f;" horiz-adv-x="610" 
d="M65 470h130l5 -5v-15q56 35 120 35q103 0 171.5 -72.5t68.5 -177.5q0 -66 -29 -121l54 -44v-5l-75 -85h-5l-54 44q-58 -39 -131 -39q-64 0 -120 35v-245l-5 -5h-130l-5 5v690zM200 290v-110q40 -60 110 -60q8 0 22 2l-57 48v5l75 85h5l62 -52q3 14 3 27q0 47 -32 81
t-78 34q-65 0 -110 -60z" />
    <glyph glyph-name="uni0490" unicode="&#x490;" horiz-adv-x="560" 
d="M65 700h325v135l5 5h130l5 -5v-270l-5 -5h-325v-555l-5 -5h-130l-5 5v690z" />
    <glyph glyph-name="uni0491" unicode="&#x491;" horiz-adv-x="440" 
d="M65 470h205v115l5 5h130l5 -5v-250l-5 -5h-205v-325l-5 -5h-130l-5 5v460z" />
    <glyph glyph-name="uni0492" unicode="&#x492;" horiz-adv-x="560" 
d="M65 700h460l5 -5v-130l-5 -5h-325v-135h205l5 -5v-130l-5 -5h-205v-280l-5 -5h-130l-5 5v280h-65l-5 5v130l5 5h65v270z" />
    <glyph glyph-name="uni0493" unicode="&#x493;" horiz-adv-x="440" 
d="M65 470h340l5 -5v-130l-5 -5h-205v-65h115l5 -5v-110l-5 -5h-115v-140l-5 -5h-130l-5 5v140h-55l-5 5v110l5 5h55v200z" />
    <glyph glyph-name="uni0494" unicode="&#x494;" horiz-adv-x="660" 
d="M65 700h460l5 -5v-130l-5 -5h-325v-120q55 35 145 35q128 0 206.5 -83.5t78.5 -231.5q0 -174 -75.5 -264.5t-189.5 -90.5q-57 0 -95 15v155l5 5q30 -30 89 -30q47 0 79 52.5t32 157.5q0 86 -36.5 128t-93.5 42q-93 0 -145 -70v-255l-5 -5h-130l-5 5v690z" />
    <glyph glyph-name="uni0495" unicode="&#x495;" 
d="M65 470h340l5 -5v-130l-5 -5h-205v-75q52 30 120 30q114 0 172 -77.5t58 -197.5q0 -122 -68.5 -198.5t-171.5 -76.5q-52 0 -90 15v145l5 5q23 -17 39 -23.5t45 -6.5q41 0 71 38t30 102q0 140 -100 140q-72 0 -110 -60v-85l-5 -5h-130l-5 5v460z" />
    <glyph glyph-name="uni0496" unicode="&#x496;" horiz-adv-x="1040" 
d="M445 700h130l5 -5v-240h60l180 240l10 5h155l5 -5l-235 -300l255 -390v-180l-5 -5h-130l-5 5v175l-30 5l-200 310h-60v-310l-5 -5h-130l-5 5v310h-60l-200 -310l-10 -5h-155l-5 5l255 390l-235 300l5 5h155l10 -5l180 -240h60v240z" />
    <glyph glyph-name="uni0497" unicode="&#x497;" horiz-adv-x="800" 
d="M325 470h130l5 -5v-145h25l105 145l10 5h145l5 -5l-150 -210l170 -250v-140l-5 -5h-130l-5 5v135l-30 5l-115 175h-25v-175l-5 -5h-130l-5 5v175h-25l-115 -175l-10 -5h-155l-5 5l170 250l-150 210l5 5h145l10 -5l105 -145h25v145z" />
    <glyph glyph-name="uni0498" unicode="&#x498;" horiz-adv-x="550" 
d="M120 525l-80 95q32 40 87 67.5t113 27.5q114 0 177 -54.5t63 -140.5q0 -88 -70 -140q52 -22 81 -70t29 -105q0 -73 -46 -129.5t-129 -78.5q40 -53 40 -122q0 -48 -40 -84t-95 -36q-43 0 -70 20v100l5 5q20 -15 40 -15q19 0 31.5 11t12.5 29q0 41 -63 83q-123 15 -186 92
l80 115h10q74 -65 140 -65q56 0 85.5 22.5t29.5 52.5q0 44 -24.5 62t-75.5 18h-110l-5 5v130l5 5h100q31 0 50.5 21.5t19.5 58.5q0 26 -24 45.5t-61 19.5q-50 0 -110 -45h-10z" />
    <glyph glyph-name="uni0499" unicode="&#x499;" horiz-adv-x="480" 
d="M50 320v126q67 39 155 39q104 0 159.5 -41t55.5 -104q0 -57 -50 -90q70 -35 70 -120q0 -104 -138 -135q38 -53 38 -120q0 -48 -40 -84t-95 -36q-43 0 -70 20v100l5 5q20 -15 40 -15q19 0 31.5 11t12.5 29q0 22 -18 45t-46 40q-75 10 -120 40v125l5 5q69 -55 160 -55
q47 0 71 12.5t24 32.5q0 18 -11 29t-29 11h-110l-5 5v90l5 5h100q14 0 22 9t8 21q0 45 -75 45q-79 0 -150 -50z" />
    <glyph glyph-name="uni049A" unicode="&#x49a;" horiz-adv-x="700" 
d="M65 700h130l5 -5v-240h60l220 240l10 5h155l5 -5l-275 -300l295 -390v-180l-5 -5h-130l-5 5v175l-30 5l-240 310h-60v-310l-5 -5h-130l-5 5v690z" />
    <glyph glyph-name="uni049B" unicode="&#x49b;" 
d="M65 470h130l5 -5v-145h40l115 145l10 5h150l5 -5l-170 -210l200 -250v-140l-5 -5h-130l-5 5v135l-30 5l-140 175h-40v-175l-5 -5h-130l-5 5v460z" />
    <glyph glyph-name="uni049C" unicode="&#x49c;" horiz-adv-x="690" 
d="M65 700h130l5 -5v-240h40v190l5 5h110l5 -5v-85l120 135l10 5h155l5 -5l-275 -300l295 -390l-5 -5h-155l-10 5l-140 185v-65l-5 -5h-110l-5 5v190h-40v-310l-5 -5h-130l-5 5v690z" />
    <glyph glyph-name="uni049D" unicode="&#x49d;" 
d="M65 470h130l5 -5v-145h30v105l5 5h50l5 -5v-42l65 82l10 5h150l5 -5l-170 -210l200 -250l-5 -5h-155l-10 5l-90 112v-52l-5 -5h-50l-5 5v115h-30v-175l-5 -5h-130l-5 5v460z" />
    <glyph glyph-name="uni049E" unicode="&#x49e;" horiz-adv-x="680" 
d="M65 700h130l5 -5v-70h75l5 -5v-110l-5 -5h-75v-50h60l220 240l10 5h155l5 -5l-275 -300l295 -390l-5 -5h-155l-10 5l-240 310h-60v-310l-5 -5h-130l-5 5v500h-55l-5 5v110l5 5h55v70z" />
    <glyph glyph-name="uni049F" unicode="&#x49f;" 
d="M65 700h130l5 -5v-50h75l5 -5v-130l-5 -5h-75v-185h40l115 145l10 5h150l5 -5l-170 -210l200 -250l-5 -5h-155l-10 5l-140 175h-40v-175l-5 -5h-130l-5 5v500h-55l-5 5v131l5 4h55v50z" />
    <glyph glyph-name="uni04A0" unicode="&#x4a0;" horiz-adv-x="860" 
d="M35 700h340l5 -5v-240h60l220 240l10 5h155l5 -5l-275 -300l295 -390l-5 -5h-155l-10 5l-240 310h-60v-310l-5 -5h-130l-5 5v555h-205l-5 5v130z" />
    <glyph glyph-name="uni04A1" unicode="&#x4a1;" horiz-adv-x="680" 
d="M35 470h280l5 -5v-145h40l115 145l10 5h150l5 -5l-170 -210l200 -250l-5 -5h-155l-10 5l-140 175h-40v-175l-5 -5h-130l-5 5v325h-145l-5 5v130z" />
    <glyph glyph-name="uni04A2" unicode="&#x4a2;" horiz-adv-x="800" 
d="M65 700h130l5 -5v-260h320v260l5 5h130l5 -5v-555h95l5 -5v-310l-5 -5h-130l-5 5v175h-95l-5 5v290h-320v-290l-5 -5h-130l-5 5v690z" />
    <glyph glyph-name="uni04A3" unicode="&#x4a3;" horiz-adv-x="660" 
d="M65 470h130l5 -5v-145h180v145l5 5h130l5 -5v-325h95l5 -5v-270l-5 -5h-130l-5 5v135h-95l-5 5v175h-180v-175l-5 -5h-130l-5 5v460z" />
    <glyph glyph-name="uni04A4" unicode="&#x4a4;" horiz-adv-x="900" 
d="M65 700h130l5 -5v-260h320v260l5 5h340l5 -5v-130l-5 -5h-205v-555l-5 -5h-130l-5 5v290h-320v-290l-5 -5h-130l-5 5v690z" />
    <glyph glyph-name="uni04A5" unicode="&#x4a5;" horiz-adv-x="700" 
d="M65 470h130l5 -5v-145h180v145l5 5h280l5 -5v-130l-5 -5h-145v-325l-5 -5h-130l-5 5v175h-180v-175l-5 -5h-130l-5 5v460z" />
    <glyph glyph-name="uni04A6" unicode="&#x4a6;" horiz-adv-x="1100" 
d="M65 700h570l5 -5v-255q55 35 145 35q128 0 206.5 -83.5t78.5 -231.5q0 -174 -75.5 -264.5t-189.5 -90.5q-57 0 -95 15v155l5 5q30 -30 89 -30q47 0 79 52.5t32 157.5q0 86 -36.5 128t-93.5 42q-93 0 -145 -70v-255l-5 -5h-130l-5 5v555h-300v-555l-5 -5h-130l-5 5v690z
" />
    <glyph glyph-name="uni04A7" unicode="&#x4a7;" horiz-adv-x="880" 
d="M65 470h430l5 -5v-170q52 30 120 30q113 0 171.5 -87.5t58.5 -217.5q0 -134 -67.5 -209.5t-172.5 -75.5q-52 0 -90 15v145l5 5q23 -17 39 -23.5t45 -6.5q43 0 72 36.5t29 113.5q0 81 -27 125.5t-73 44.5q-72 0 -110 -60v-125l-5 -5h-130l-5 5v325h-160v-325l-5 -5h-130
l-5 5v460z" />
    <glyph glyph-name="uni04A8" unicode="&#x4a8;" horiz-adv-x="800" 
d="M650 495l-5 -5q-95 80 -235 80q-90 0 -152.5 -65t-62.5 -155q0 -62 31.5 -114.5t83.5 -80.5q4 131 73 210.5t172 79.5q86 0 145.5 -58.5t59.5 -146.5q0 -83 -62 -149.5t-167 -91.5q50 -47 109 -47q76 0 165 70l5 -5v-157q-37 -21 -56 -30.5t-48.5 -17t-65.5 -7.5
q-94 0 -174.5 50.5t-121.5 135.5q-131 23 -217.5 124.5t-86.5 234.5q0 151 108.5 258t261.5 107q150 0 240 -65v-155zM471 135q62 12 94.5 44t32.5 61q0 27 -12 42t-31 15q-39 0 -61.5 -41t-22.5 -121z" />
    <glyph glyph-name="uni04A9" unicode="&#x4a9;" 
d="M480 300l-5 -5q-69 55 -155 55q-63 0 -101.5 -40.5t-38.5 -104.5q0 -44 22 -79q26 73 80.5 113.5t127.5 40.5q80 0 125 -45t45 -115q0 -71 -65 -131t-172 -64q33 -55 107 -55q31 0 47.5 5t37.5 20l5 -5v-140q-38 -15 -90 -15q-96 0 -176 66.5t-93 160.5q-65 37 -103 101
t-38 142q0 120 78.5 200t201.5 80q93 0 160 -50v-135zM335 60q48 0 74 20t26 40q0 25 -25 25q-22 0 -43 -23t-32 -62z" />
    <glyph glyph-name="uni04AA" unicode="&#x4aa;" horiz-adv-x="710" 
d="M650 495l-5 -5q-95 80 -235 80q-90 0 -152.5 -65t-62.5 -155t62.5 -155t152.5 -65q140 0 235 80l5 -5v-155q-68 -50 -174 -61q39 -56 39 -124q0 -42 -37 -76t-83 -34q-43 0 -70 20v105l5 5q20 -20 40 -20q9 0 17 9t8 26q0 14 -14 41.5t-35 49.5q-131 22 -218.5 123.5
t-87.5 235.5q0 151 108.5 258t261.5 107q150 0 240 -65v-155z" />
    <glyph glyph-name="uni04AB" unicode="&#x4ab;" horiz-adv-x="500" 
d="M460 300l-5 -5q-69 55 -155 55q-55 0 -87.5 -32.5t-32.5 -82.5t32.5 -82.5t87.5 -32.5q86 0 155 55l5 -5v-135q-37 -28 -95 -45q41 -56 41 -125q0 -42 -37 -76t-83 -34q-43 0 -70 20v105l5 5q20 -20 40 -20q9 0 17 9t8 26q0 15 -14.5 41.5t-36.5 48.5q-89 19 -142 86.5
t-53 158.5q0 105 73 177.5t187 72.5q93 0 160 -50v-135z" />
    <glyph glyph-name="uni04AC" unicode="&#x4ac;" horiz-adv-x="620" 
d="M35 700h550l5 -5v-130l-5 -5h-205v-420h95l5 -5v-310l-5 -5h-130l-5 5v175h-95l-5 5v555h-205l-5 5v130z" />
    <glyph glyph-name="uni04AD" unicode="&#x4ad;" horiz-adv-x="460" 
d="M15 470h430l5 -5v-130l-5 -5h-145v-190h95l5 -5v-270l-5 -5h-130l-5 5v135h-95l-5 5v325h-145l-5 5v130z" />
    <glyph glyph-name="uni04AE" unicode="&#x4ae;" horiz-adv-x="640" 
d="M15 700h140l5 -5l160 -235l160 235l5 5h140l5 -5l-240 -380v-310l-5 -5h-130l-5 5v310l-240 380z" />
    <glyph glyph-name="uni04AF" unicode="&#x4af;" horiz-adv-x="520" 
d="M15 470h144l5 -5l96 -273l96 273l5 5h144l5 -5l-180 -455v-235l-5 -5h-130l-5 5v235l-180 455z" />
    <glyph glyph-name="uni04B0" unicode="&#x4b0;" horiz-adv-x="640" 
d="M15 700h140l5 -5l160 -235l160 235l5 5h140l5 -5l-190 -300h80l5 -5v-130l-5 -5h-130v-250l-5 -5h-130l-5 5v250h-130l-5 5v130l5 5h80l-190 300z" />
    <glyph glyph-name="uni04B1" unicode="&#x4b1;" horiz-adv-x="520" 
d="M15 470h144l5 -5l96 -273l96 273l5 5h144l5 -5l-160 -400h95l5 -5v-130l-5 -5h-115v-150l-5 -5h-130l-5 5v150h-115l-5 5v130l5 5h95l-160 400z" />
    <glyph glyph-name="uni04B2" unicode="&#x4b2;" horiz-adv-x="740" 
d="M45 700h160l10 -5l145 -210l145 210l10 5h160l5 -5l-235 -325l265 -365v-180l-5 -5h-130l-5 5v175l-35 5l-175 249l-175 -249l-10 -5h-160l-5 5l265 365l-235 325z" />
    <glyph glyph-name="uni04B3" unicode="&#x4b3;" horiz-adv-x="540" 
d="M25 470h154l10 -5l71 -100l70 100l10 5h155l5 -5l-160 -220l170 -240v-140l-5 -5h-130l-5 5v135l-30 5l-80 115l-80 -115l-10 -5h-155l-5 5l170 240l-160 220z" />
    <glyph glyph-name="uni04B4" unicode="&#x4b4;" horiz-adv-x="920" 
d="M35 700h490l5 -5v-130l-5 -5h-185v-420h300v555l5 5h130l5 -5v-555h95l5 -5v-310l-5 -5h-130l-5 5v175h-535l-5 5v555h-165l-5 5v130z" />
    <glyph glyph-name="uni04B5" unicode="&#x4b5;" horiz-adv-x="720" 
d="M35 470h330l5 -5v-130l-5 -5h-105v-190h180v325l5 5h130l5 -5v-325h95l5 -5v-270l-5 -5h-130l-5 5v135h-415l-5 5v325h-85l-5 5v130z" />
    <glyph glyph-name="uni04B6" unicode="&#x4b6;" horiz-adv-x="760" 
d="M55 700h130l5 -5v-140q0 -163 145 -163q50 0 94 22.5t51 55.5v225l5 5h130l5 -5v-555h95l5 -5v-310l-5 -5h-130l-5 5v175h-95l-5 5v290q-27 -24 -70.5 -37t-74.5 -13q-127 0 -206 75t-79 210v165z" />
    <glyph glyph-name="uni04B7" unicode="&#x4b7;" horiz-adv-x="660" 
d="M55 470h130l5 -5v-85q0 -115 100 -115q59 0 90 25v175l5 5h130l5 -5v-325h95l5 -5v-270l-5 -5h-130l-5 5v135h-95l-5 5v152q-55 -22 -105 -22q-109 0 -167 65.5t-58 174.5v90z" />
    <glyph glyph-name="uni04B8" unicode="&#x4b8;" horiz-adv-x="680" 
d="M55 700h130l5 -5v-140q0 -117 75 -150v100l5 5h130l5 -5v-101q64 22 75 66v225l5 5h130l5 -5v-690l-5 -5h-130l-5 5v290q-28 -25 -75 -39v-111l-5 -5h-130l-5 5v106q-99 19 -157 91.5t-58 187.5v165z" />
    <glyph glyph-name="uni04B9" unicode="&#x4b9;" 
d="M55 470h130l5 -5v-85q0 -76 45 -102v97l5 5h90l5 -5v-107q27 6 45 22v175l5 5h130l5 -5v-460l-5 -5h-130l-5 5v152q-25 -10 -45 -15v-97l-5 -5h-90l-5 5v92q-90 12 -137.5 76t-47.5 162v90z" />
    <glyph glyph-name="uni04BA" unicode="&#x4ba;" horiz-adv-x="680" 
d="M65 700h130l5 -5v-270q27 24 70.5 37t74.5 13q127 0 206 -75t79 -210v-185l-5 -5h-130l-5 5v160q0 163 -145 163q-50 0 -94 -22.5t-51 -55.5v-245l-5 -5h-130l-5 5v690z" />
    <glyph glyph-name="uni04BB" unicode="&#x4bb;" horiz-adv-x="600" 
d="M65 700h130l5 -5v-245q61 35 125 35q110 0 167.5 -58.5t57.5 -161.5v-260l-5 -5h-130l-5 5v235q0 110 -100 110q-65 0 -110 -50v-295l-5 -5h-130l-5 5v690z" />
    <glyph glyph-name="uni04BC" unicode="&#x4bc;" horiz-adv-x="1000" 
d="M925 285h-525q18 -69 74.5 -111t125.5 -42q151 0 240 78l5 -5v-160q-97 -60 -245 -60q-138 0 -240 85t-127 215q-213 0 -213 165q0 35 10 55h142l5 -5q-10 -20 -10 -35q0 -22 15 -31t54 -9q27 125 129 207.5t235 82.5q46 0 93 -13t91.5 -42t79 -70t55.5 -102t21 -133
q0 -54 -5 -65zM400 425h385q-7 51 -56.5 96.5t-128.5 45.5q-69 0 -122.5 -37t-77.5 -105z" />
    <glyph glyph-name="uni04BD" unicode="&#x4bd;" horiz-adv-x="690" 
d="M140 415l5 -5q-5 -15 -5 -35q0 -47 49 -64q22 78 84 126t152 48q101 0 163 -68t62 -147q0 -45 -5 -65l-5 -5h-318q18 -95 133 -95q95 0 175 60l5 -5v-125q-75 -50 -180 -50q-110 0 -184 59t-88 154q-70 12 -111.5 54t-41.5 108q0 35 10 55h100zM326 300h184q-4 27 -28 46
t-57 19q-73 0 -99 -65z" />
    <glyph glyph-name="uni04BE" unicode="&#x4be;" horiz-adv-x="1000" 
d="M172 505l5 -5q-10 -20 -10 -35q0 -22 15 -31t54 -9q27 125 129 207.5t235 82.5q46 0 93 -13t91.5 -42t79 -70t55.5 -102t21 -133q0 -54 -5 -65l-10 -5h-525q18 -69 74.5 -111t125.5 -42q151 0 240 78l5 -5v-163q-62 -43 -182 -55q-26 -17 -40 -41.5t-14 -48.5
q0 -12 11.5 -22t29.5 -10q8 0 11.5 2.5t18.5 17.5l5 -5v-105q-27 -20 -65 -20q-51 0 -89.5 34t-38.5 78q0 80 43 122q-114 20 -196.5 101.5t-105.5 194.5q-213 0 -213 165q0 35 10 55h142zM400 425h385q-7 51 -56.5 96.5t-128.5 45.5q-69 0 -122.5 -37t-77.5 -105z" />
    <glyph glyph-name="uni04BF" unicode="&#x4bf;" horiz-adv-x="690" 
d="M325 300h185q-4 27 -28 46t-57 19q-72 0 -100 -65zM140 415l5 -5q-5 -15 -5 -35q0 -47 49 -64q22 78 84 126t152 48q101 0 163 -68t62 -147q0 -45 -5 -65l-5 -5h-318q18 -95 133 -95q95 0 175 60l5 -5v-125q-84 -63 -84 -130q0 -18 12.5 -29t31.5 -11q17 0 40 15l5 -5
v-100q-27 -20 -70 -20q-55 0 -95 36t-40 84q0 64 30 110h-10q-110 0 -184 59t-88 154q-70 12 -111.5 54t-41.5 108q0 35 10 55h100z" />
    <glyph glyph-name="uni04C0" unicode="&#x4c0;" horiz-adv-x="260" 
d="M65 700h130l5 -5v-690l-5 -5h-130l-5 5v690z" />
    <glyph glyph-name="uni04C1" unicode="&#x4c1;" horiz-adv-x="1020" 
d="M445 700h130l5 -5v-240h60l180 240l10 5h155l5 -5l-235 -300l255 -390l-5 -5h-155l-10 5l-200 310h-60v-310l-5 -5h-130l-5 5v310h-60l-200 -310l-10 -5h-155l-5 5l255 390l-235 300l5 5h155l10 -5l180 -240h60v240zM350 905h103l5 -5q12 -35 52 -35q41 0 50 35l5 5h105
l5 -5q-7 -67 -53.5 -101t-111.5 -34t-111.5 34t-53.5 101z" />
    <glyph glyph-name="uni04C2" unicode="&#x4c2;" horiz-adv-x="740" 
d="M190 690h125l5 -5q0 -45 50 -45t50 45l5 5h125l5 -5q-6 -82 -57.5 -123.5t-127.5 -41.5t-127 41.5t-58 123.5zM305 470h130l5 -5v-145h25l105 145l10 5h145l5 -5l-150 -210l170 -250l-5 -5h-155l-10 5l-115 175h-25v-175l-5 -5h-130l-5 5v175h-25l-115 -175l-10 -5h-155
l-5 5l170 250l-150 210l5 5h145l10 -5l105 -145h25v145z" />
    <glyph glyph-name="uni04C3" unicode="&#x4c3;" horiz-adv-x="640" 
d="M65 700h130l5 -5v-240h20l215 240l10 5h160l5 -5l-245 -275q245 -95 245 -320q0 -138 -62.5 -216.5t-172.5 -78.5q-61 0 -95 15v150l5 5q30 -25 75 -25q95 0 95 150q0 88 -70.5 151.5t-159.5 63.5h-25v-310l-5 -5h-130l-5 5v690z" />
    <glyph glyph-name="uni04C4" unicode="&#x4c4;" 
d="M85 470h130l5 -5v-145h7l122 145l10 5h151l5 -5l-138 -170q90 -35 131.5 -107t41.5 -158q0 -142 -58 -218.5t-152 -76.5q-54 0 -90 10v150l5 5q21 -15 37 -20t47 -5q6 0 13.5 3.5t16.5 14t16.5 26.5t12.5 45t5 66q0 54 -50.5 102t-145.5 48h13v-175l-5 -5h-130l-5 5v460z
" />
    <glyph glyph-name="uni04C5" unicode="&#x4c5;" horiz-adv-x="800" 
d="M230 700h465l5 -5v-555h95l5 -5l-55 -310l-5 -5h-115l-5 5l20 175h-75l-5 5v555h-220l-65 -380q-22 -104 -84.5 -149.5t-165.5 -45.5l-5 7v123l5 5q98 0 120 95l75 480z" />
    <glyph glyph-name="uni04C6" unicode="&#x4c6;" horiz-adv-x="640" 
d="M160 470h375l5 -5v-325h95l5 -5l-45 -270l-5 -5h-120l-5 5l15 135h-75l-5 5v325h-120l-30 -198q-34 -147 -225 -147l-5 5v125l5 5q75 0 95 80l35 265z" />
    <glyph glyph-name="uni04C7" unicode="&#x4c7;" horiz-adv-x="720" 
d="M65 700h130l5 -5v-260h320v260l5 5h130l5 -5v-695q0 -96 -48.5 -145.5t-136.5 -49.5q-35 0 -55 10v130l5 5q20 -10 40 -10q27 0 41 18.5t14 76.5v260h-320v-290l-5 -5h-130l-5 5v690z" />
    <glyph glyph-name="uni04C8" unicode="&#x4c8;" horiz-adv-x="560" 
d="M65 470h130l5 -5v-145h160v145l5 5h130l5 -5v-535q0 -96 -48.5 -145.5t-136.5 -49.5q-35 0 -55 10v130l5 5q20 -10 40 -10q27 0 41 18.5t14 76.5v215h-160v-175l-5 -5h-130l-5 5v460z" />
    <glyph glyph-name="uni04C9" unicode="&#x4c9;" horiz-adv-x="760" 
d="M65 700h130l5 -5v-260h320v260l5 5h130l5 -5v-555h95l5 -5l-55 -310l-5 -5h-115l-5 5l20 175h-75l-5 5v290h-320v-290l-5 -5h-130l-5 5v690z" />
    <glyph glyph-name="uni04CA" unicode="&#x4ca;" horiz-adv-x="640" 
d="M85 470h130l5 -5v-145h180v145l5 5h130l5 -5v-325h95l5 -5l-45 -270l-5 -5h-120l-5 5l15 135h-75l-5 5v175h-180v-175l-5 -5h-130l-5 5v460z" />
    <glyph glyph-name="uni04CB" unicode="&#x4cb;" horiz-adv-x="680" 
d="M55 700h130l5 -5v-140q0 -163 145 -163q50 0 94 22.5t51 55.5v225l5 5h130l5 -5v-690l-5 -5h-95v-175l-5 -5h-130l-5 5v310l5 5h95v155q-27 -24 -70.5 -37t-74.5 -13q-127 0 -206 75t-79 210v165z" />
    <glyph glyph-name="uni04CC" unicode="&#x4cc;" 
d="M55 470h130l5 -5v-65q0 -115 100 -115q59 0 90 25v155l5 5h130l5 -5v-460l-5 -5h-75v-135l-5 -5h-130l-5 5v230l5 5h75v77q-55 -22 -105 -22q-109 0 -167 65.5t-58 174.5v70z" />
    <glyph glyph-name="uni04CD" unicode="&#x4cd;" horiz-adv-x="860" 
d="M65 700h130l10 -5l205 -245l205 245l10 5h130l5 -5v-555h95l5 -5l-55 -310l-5 -5h-115l-5 5l20 175h-75l-5 5v480l-205 -240h-10l-205 240v-480l-5 -5h-130l-5 5v690z" />
    <glyph glyph-name="uni04CE" unicode="&#x4ce;" horiz-adv-x="730" 
d="M85 470h122l10 -5l138 -170l137 170l10 5h123l5 -5v-325h95l5 -5l-45 -270l-5 -5h-120l-5 5l15 135h-75l-5 5v250l-130 -165h-10l-130 165v-250l-5 -5h-130l-5 5v460z" />
    <glyph glyph-name="uni04CF" unicode="&#x4cf;" horiz-adv-x="260" 
d="M65 700h130l5 -5v-690l-5 -5h-130l-5 5v690z" />
    <glyph glyph-name="uni04D0" unicode="&#x4d0;" horiz-adv-x="700" 
d="M280 700h140l5 -5l265 -690l-5 -5h-155l-5 5l-50 140h-250l-50 -140l-5 -5h-155l-5 5l265 690zM350 520l-80 -235h160zM190 905h103l5 -5q12 -35 52 -35q41 0 50 35l5 5h105l5 -5q-7 -67 -53.5 -101t-111.5 -34t-111.5 34t-53.5 101z" />
    <glyph glyph-name="uni04D1" unicode="&#x4d1;" horiz-adv-x="510" 
d="M55 310l55 145q60 30 125 30q90 0 157.5 -52.5t67.5 -147.5v-280l-5 -5h-130l-5 5v15q-56 -35 -115 -35q-65 0 -115 36.5t-50 108.5q0 85 77 128t203 47q0 21 -26 40.5t-64 19.5q-80 0 -170 -60zM320 135v75q-140 -7 -140 -65q0 -18 14.5 -29t30.5 -11q43 0 95 30z
M70 690h125l5 -5q0 -45 50 -45t50 45l5 5h125l5 -5q-6 -82 -57.5 -123.5t-127.5 -41.5t-127 41.5t-58 123.5z" />
    <glyph glyph-name="uni04D2" unicode="&#x4d2;" horiz-adv-x="700" 
d="M280 700h140l5 -5l265 -690l-5 -5h-155l-5 5l-50 140h-250l-50 -140l-5 -5h-155l-5 5l265 690zM350 520l-80 -235h160zM210 930h10l85 -85v-10l-85 -85h-10l-85 85v10zM480 930h10l85 -85v-10l-85 -85h-10l-85 85v10z" />
    <glyph glyph-name="uni04D3" unicode="&#x4d3;" horiz-adv-x="510" 
d="M55 310l55 145q60 30 125 30q90 0 157.5 -52.5t67.5 -147.5v-280l-5 -5h-130l-5 5v15q-56 -35 -115 -35q-65 0 -115 36.5t-50 108.5q0 85 77 128t203 47q0 21 -26 40.5t-64 19.5q-80 0 -170 -60zM320 135v75q-140 -7 -140 -65q0 -18 14.5 -29t30.5 -11q43 0 95 30z
M130 695h10l80 -80v-10l-80 -80h-10l-80 80v10zM360 695h10l80 -80v-10l-80 -80h-10l-80 80v10z" />
    <glyph glyph-name="uni04D4" unicode="&#x4d4;" horiz-adv-x="1060" 
d="M540 700h475l5 -5v-130l-5 -5h-335v-130h245l5 -5v-130l-5 -5h-245v-150h345l5 -5v-130l-5 -5h-480l-5 5v140h-250l-100 -140l-10 -5h-165l-5 5l520 690zM540 490l-150 -205h150v205z" />
    <glyph glyph-name="uni04D5" unicode="&#x4d5;" horiz-adv-x="830" 
d="M55 310l55 145q60 30 125 30q105 0 165 -60q60 60 165 60t165 -70t60 -175q0 -20 -5 -35l-5 -5h-318q18 -95 133 -95q95 0 175 60l5 -5v-125q-75 -50 -180 -50q-124 0 -205 75q-30 -31 -76.5 -53t-98.5 -22q-72 0 -123.5 37t-51.5 113q0 152 280 170q0 21 -26 40.5
t-64 19.5q-80 0 -170 -60zM320 175v35q-150 -7 -150 -65q0 -18 16 -29t39 -11q41 0 68 20t27 50zM466 300h184q-4 27 -28 46t-57 19q-73 0 -99 -65z" />
    <glyph glyph-name="uni04D6" unicode="&#x4d6;" 
d="M65 700h470l5 -5v-130l-5 -5h-335v-125h245l5 -5v-130l-5 -5h-245v-155h345l5 -5v-130l-5 -5h-480l-5 5v690zM150 905h103l5 -5q12 -35 52 -35q41 0 50 35l5 5h105l5 -5q-7 -67 -53.5 -101t-111.5 -34t-111.5 34t-53.5 101z" />
    <glyph glyph-name="uni04D7" unicode="&#x4d7;" horiz-adv-x="550" 
d="M495 160v-125q-75 -50 -180 -50q-122 0 -198.5 72.5t-76.5 182.5q0 104 67.5 174.5t177.5 70.5q101 0 163 -68t62 -147q0 -45 -5 -65l-5 -5h-320q20 -95 135 -95q95 0 175 60zM185 300h185q-4 27 -28 46t-57 19q-72 0 -100 -65zM100 690h125l5 -5q0 -45 50 -45t50 45l5 5
h125l5 -5q-6 -82 -57.5 -123.5t-127.5 -41.5t-127 41.5t-58 123.5z" />
    <glyph glyph-name="uni04D8" unicode="&#x4d8;" horiz-adv-x="790" 
d="M135 495v160q98 60 245 60q156 0 263 -107t107 -258q0 -150 -108.5 -257.5t-261.5 -107.5q-46 0 -93 13t-91.5 42t-79 70t-55.5 102t-21 133q0 35 5 65l10 5h530q-18 68 -77 111.5t-128 43.5q-145 0 -240 -80zM585 275h-390q6 -51 56 -98t129 -47q69 0 125 38.5t80 106.5
z" />
    <glyph glyph-name="uni04D9" unicode="&#x4d9;" horiz-adv-x="550" 
d="M60 320l50 135q60 30 125 30q122 0 198.5 -72.5t76.5 -182.5q0 -104 -67.5 -174.5t-177.5 -70.5q-103 0 -164 69t-61 161q0 35 5 55l10 5h313q-9 44 -45.5 67t-87.5 23q-47 0 -82.5 -11t-87.5 -39zM364 175h-184q4 -32 28.5 -51t56.5 -19q77 0 99 70z" />
    <glyph glyph-name="uni04DA" unicode="&#x4da;" horiz-adv-x="790" 
d="M135 495v160q98 60 245 60q156 0 263 -107t107 -258q0 -150 -108.5 -257.5t-261.5 -107.5q-46 0 -93 13t-91.5 42t-79 70t-55.5 102t-21 133q0 35 5 65l10 5h530q-18 68 -77 111.5t-128 43.5q-145 0 -240 -80zM585 275h-390q6 -51 56 -98t129 -47q69 0 125 38.5t80 106.5
zM240 930h10l85 -85v-10l-85 -85h-10l-85 85v10zM510 930h10l85 -85v-10l-85 -85h-10l-85 85v10z" />
    <glyph glyph-name="uni04DB" unicode="&#x4db;" horiz-adv-x="550" 
d="M60 320l50 135q60 30 125 30q122 0 198.5 -72.5t76.5 -182.5q0 -104 -67.5 -174.5t-177.5 -70.5q-103 0 -164 69t-61 161q0 35 5 55l10 5h313q-9 44 -45.5 67t-87.5 23q-47 0 -82.5 -11t-87.5 -39zM364 175h-184q4 -32 28.5 -51t56.5 -19q77 0 99 70zM130 695h10l80 -80
v-10l-80 -80h-10l-80 80v10zM360 695h10l80 -80v-10l-80 -80h-10l-80 80v10z" />
    <glyph glyph-name="uni04DC" unicode="&#x4dc;" horiz-adv-x="1020" 
d="M445 700h130l5 -5v-240h60l180 240l10 5h155l5 -5l-235 -300l255 -390l-5 -5h-155l-10 5l-200 310h-60v-310l-5 -5h-130l-5 5v310h-60l-200 -310l-10 -5h-155l-5 5l255 390l-235 300l5 5h155l10 -5l180 -240h60v240zM370 930h10l85 -85v-10l-85 -85h-10l-85 85v10z
M640 930h10l85 -85v-10l-85 -85h-10l-85 85v10z" />
    <glyph glyph-name="uni04DD" unicode="&#x4dd;" horiz-adv-x="780" 
d="M325 470h130l5 -5v-145h25l105 145l10 5h145l5 -5l-150 -210l170 -250l-5 -5h-155l-10 5l-115 175h-25v-175l-5 -5h-130l-5 5v175h-25l-115 -175l-10 -5h-155l-5 5l170 250l-150 210l5 5h145l10 -5l105 -145h25v145zM270 695h10l80 -80v-10l-80 -80h-10l-80 80v10z
M500 695h10l80 -80v-10l-80 -80h-10l-80 80v10z" />
    <glyph glyph-name="uni04DE" unicode="&#x4de;" horiz-adv-x="550" 
d="M120 525l-80 95q32 40 87 67.5t113 27.5q114 0 177 -54.5t63 -140.5q0 -88 -70 -140q52 -22 81 -70t29 -105q0 -93 -73 -156.5t-197 -63.5q-68 0 -130.5 25.5t-99.5 69.5l80 115h10q74 -65 140 -65q56 0 85.5 22.5t29.5 52.5q0 44 -24.5 62t-75.5 18h-110l-5 5v130l5 5
h100q31 0 50.5 21.5t19.5 58.5q0 26 -24 45.5t-61 19.5q-50 0 -110 -45h-10zM110 930h10l85 -85v-10l-85 -85h-10l-85 85v10zM380 930h10l85 -85v-10l-85 -85h-10l-85 85v10z" />
    <glyph glyph-name="uni04DF" unicode="&#x4df;" horiz-adv-x="480" 
d="M50 320v126q67 39 155 39q104 0 159.5 -41t55.5 -104q0 -57 -50 -90q70 -35 70 -120q0 -68 -61.5 -106.5t-173.5 -38.5q-105 0 -165 45v125l5 5q69 -55 160 -55q47 0 71 12.5t24 32.5q0 18 -11 29t-29 11h-110l-5 5v90l5 5h100q14 0 22 9t8 21q0 45 -75 45
q-79 0 -150 -50zM100 695h10l80 -80v-10l-80 -80h-10l-80 80v10zM330 695h10l80 -80v-10l-80 -80h-10l-80 80v10z" />
    <glyph glyph-name="uni04E0" unicode="&#x4e0;" horiz-adv-x="540" 
d="M25 700h435l5 -5l-125 -255q160 -58 160 -205q0 -109 -73.5 -179.5t-186.5 -70.5q-71 0 -131.5 42.5t-88.5 102.5l100 90h10q9 -33 39.5 -64t70.5 -31q46 0 78 31t32 79q0 47 -36.5 78.5t-83.5 31.5q-48 0 -95 -20l-5 5l117 230h-222l-5 5v130z" />
    <glyph glyph-name="uni04E1" unicode="&#x4e1;" horiz-adv-x="500" 
d="M35 470h420l5 -5l-145 -240q155 -69 155 -225q0 -106 -74.5 -185.5t-175.5 -79.5q-123 0 -200 70l80 100h10q35 -35 110 -35q46 0 78 36t32 94q0 57 -45 91t-105 34q-52 0 -90 -15l-5 5l140 215h-190l-5 5v130z" />
    <glyph glyph-name="uni04E2" unicode="&#x4e2;" horiz-adv-x="760" 
d="M65 700h130l5 -5v-455l350 455l10 5h135l5 -5v-690l-5 -5h-130l-5 5v455l-350 -455l-10 -5h-135l-5 5v690zM215 895h330l5 -5v-110l-5 -5h-330l-5 5v110z" />
    <glyph glyph-name="uni04E3" unicode="&#x4e3;" 
d="M65 470h130l5 -5v-235l167 235l10 5h137l6 -5v-460l-6 -5h-130l-4 5v235l-167 -235l-10 -5h-138l-5 5v460zM125 670h330l5 -5v-110l-5 -5h-330l-5 5v110z" />
    <glyph glyph-name="uni04E4" unicode="&#x4e4;" horiz-adv-x="760" 
d="M65 700h130l5 -5v-455l350 455l10 5h135l5 -5v-690l-5 -5h-130l-5 5v455l-350 -455l-10 -5h-135l-5 5v690zM240 930h10l85 -85v-10l-85 -85h-10l-85 85v10zM510 930h10l85 -85v-10l-85 -85h-10l-85 85v10z" />
    <glyph glyph-name="uni04E5" unicode="&#x4e5;" 
d="M65 470h130l5 -5v-235l167 235l10 5h137l6 -5v-460l-6 -5h-130l-4 5v235l-167 -235l-10 -5h-138l-5 5v460zM170 695h10l80 -80v-10l-80 -80h-10l-80 80v10zM400 695h10l80 -80v-10l-80 -80h-10l-80 80v10z" />
    <glyph glyph-name="uni04E6" unicode="&#x4e6;" horiz-adv-x="820" 
d="M410 715q154 0 262 -106t108 -259t-108 -259t-262 -106t-262 106t-108 259t108 259t262 106zM410 570q-90 0 -152.5 -63.5t-62.5 -156.5t62.5 -156.5t152.5 -63.5t152.5 63.5t62.5 156.5t-62.5 156.5t-152.5 63.5zM270 930h10l85 -85v-10l-85 -85h-10l-85 85v10zM540 930
h10l85 -85v-10l-85 -85h-10l-85 85v10z" />
    <glyph glyph-name="uni04E7" unicode="&#x4e7;" 
d="M290 485q105 0 177.5 -72.5t72.5 -177.5t-72.5 -177.5t-177.5 -72.5t-177.5 72.5t-72.5 177.5t72.5 177.5t177.5 72.5zM290 350q-48 0 -79 -33t-31 -82t31 -82t79 -33t79 33t31 82t-31 82t-79 33zM170 695h10l80 -80v-10l-80 -80h-10l-80 80v10zM400 695h10l80 -80v-10
l-80 -80h-10l-80 80v10z" />
    <glyph glyph-name="uni04E8" unicode="&#x4e8;" horiz-adv-x="820" 
d="M410 715q153 0 261.5 -107t108.5 -258t-108.5 -258t-261.5 -107t-261.5 107t-108.5 258t108.5 258t261.5 107zM210 435h400q-22 63 -76.5 99t-123.5 36t-123.5 -36t-76.5 -99zM620 295h-420q15 -77 73.5 -121t136.5 -44t136.5 44t73.5 121z" />
    <glyph glyph-name="uni04E9" unicode="&#x4e9;" 
d="M290 485q106 0 178 -72.5t72 -177.5t-72 -177.5t-178 -72.5q-107 0 -178.5 72t-71.5 178t71.5 178t178.5 72zM194 285h192q-23 65 -96 65t-96 -65zM386 185h-192q23 -65 96 -65t96 65z" />
    <glyph glyph-name="uni04EA" unicode="&#x4ea;" horiz-adv-x="820" 
d="M410 715q153 0 261.5 -107t108.5 -258t-108.5 -258t-261.5 -107t-261.5 107t-108.5 258t108.5 258t261.5 107zM210 435h400q-22 63 -76.5 99t-123.5 36t-123.5 -36t-76.5 -99zM620 295h-420q15 -77 73.5 -121t136.5 -44t136.5 44t73.5 121zM270 930h10l85 -85v-10
l-85 -85h-10l-85 85v10zM540 930h10l85 -85v-10l-85 -85h-10l-85 85v10z" />
    <glyph glyph-name="uni04EB" unicode="&#x4eb;" 
d="M290 485q106 0 178 -72.5t72 -177.5t-72 -177.5t-178 -72.5q-107 0 -178.5 72t-71.5 178t71.5 178t178.5 72zM194 285h192q-23 65 -96 65t-96 -65zM386 185h-192q23 -65 96 -65t96 65zM170 695h10l80 -80v-10l-80 -80h-10l-80 80v10zM400 695h10l80 -80v-10l-80 -80h-10
l-80 80v10z" />
    <glyph glyph-name="uni04EC" unicode="&#x4ec;" horiz-adv-x="710" 
d="M60 495v155q90 65 240 65q153 0 261.5 -107t108.5 -258t-108.5 -258t-261.5 -107q-150 0 -240 65v155l5 5q95 -80 235 -80q73 0 130 45t77 115h-302l-5 5v130l5 5h296q-24 62 -78.5 101t-122.5 39q-140 0 -235 -80zM180 925h10l80 -80v-10l-80 -80h-10l-80 80v10z
M410 925h10l80 -80v-10l-80 -80h-10l-80 80v10z" />
    <glyph glyph-name="uni04ED" unicode="&#x4ed;" horiz-adv-x="500" 
d="M40 300v135q67 50 160 50q114 0 187 -72.5t73 -177.5t-73 -177.5t-187 -72.5q-93 0 -160 50v135l5 5q69 -55 155 -55q78 0 108 60h-183l-5 5v100l5 5h183q-30 60 -108 60q-86 0 -155 -55zM90 695h10l80 -80v-10l-80 -80h-10l-80 80v10zM320 695h10l80 -80v-10l-80 -80
h-10l-80 80v10z" />
    <glyph glyph-name="uni04EE" unicode="&#x4ee;" horiz-adv-x="680" 
d="M15 700h140l10 -5l175 -390l175 390l10 5h140l5 -5l-280 -580q-35 -61 -95.5 -95.5t-174.5 -34.5l-5 7v118l5 5q56 0 85.5 9.5t51.5 30.5l8 10l-255 530zM175 895h330l5 -5v-110l-5 -5h-330l-5 5v110z" />
    <glyph glyph-name="uni04EF" unicode="&#x4ef;" horiz-adv-x="560" 
d="M15 470h145l10 -5l110 -255l110 255l10 5h145l5 -5l-280 -580q-71 -125 -240 -125l-5 7v118l5 5q90 0 125 70l50 100l-195 405zM115 670h330l5 -5v-110l-5 -5h-330l-5 5v110z" />
    <glyph glyph-name="uni04F0" unicode="&#x4f0;" horiz-adv-x="680" 
d="M15 700h140l10 -5l175 -390l175 390l10 5h140l5 -5l-280 -580q-35 -61 -95.5 -95.5t-174.5 -34.5l-5 7v118l5 5q56 0 85.5 9.5t51.5 30.5l8 10l-255 530zM200 930h10l85 -85v-10l-85 -85h-10l-85 85v10zM470 930h10l85 -85v-10l-85 -85h-10l-85 85v10z" />
    <glyph glyph-name="uni04F1" unicode="&#x4f1;" horiz-adv-x="560" 
d="M15 470h145l10 -5l110 -255l110 255l10 5h145l5 -5l-280 -580q-71 -125 -240 -125l-5 7v118l5 5q90 0 125 70l50 100l-195 405zM160 695h10l80 -80v-10l-80 -80h-10l-80 80v10zM390 695h10l80 -80v-10l-80 -80h-10l-80 80v10z" />
    <glyph glyph-name="uni04F2" unicode="&#x4f2;" horiz-adv-x="680" 
d="M15 700h140l10 -5l175 -390l175 390l10 5h140l5 -5l-280 -580q-35 -61 -95.5 -95.5t-174.5 -34.5l-5 7v118l5 5q56 0 85.5 9.5t51.5 30.5l8 10l-255 530zM250 905h150l5 -5l-100 -125l-10 -5h-123l-5 5l73 125zM460 905h150l5 -5l-100 -125l-10 -5h-123l-5 5l73 125z" />
    <glyph glyph-name="uni04F3" unicode="&#x4f3;" horiz-adv-x="560" 
d="M15 470h145l10 -5l110 -255l110 255l10 5h145l5 -5l-280 -580q-71 -125 -240 -125l-5 7v118l5 5q90 0 125 70l50 100l-195 405zM225 690h135l5 -5l-110 -145l-10 -5h-115l-5 5l90 145zM415 690h135l5 -5l-110 -145l-10 -5h-115l-5 5l90 145z" />
    <glyph glyph-name="uni04F4" unicode="&#x4f4;" horiz-adv-x="680" 
d="M55 700h130l5 -5v-140q0 -163 145 -163q50 0 94 22.5t51 55.5v225l5 5h130l5 -5v-690l-5 -5h-130l-5 5v290q-27 -24 -70.5 -37t-74.5 -13q-127 0 -206 75t-79 210v165zM190 930h10l85 -85v-10l-85 -85h-10l-85 85v10zM460 930h10l85 -85v-10l-85 -85h-10l-85 85v10z" />
    <glyph glyph-name="uni04F5" unicode="&#x4f5;" 
d="M55 470h130l5 -5v-85q0 -115 100 -115q59 0 90 25v175l5 5h130l5 -5v-460l-5 -5h-130l-5 5v152q-55 -22 -105 -22q-109 0 -167 65.5t-58 174.5v90zM170 695h10l80 -80v-10l-80 -80h-10l-80 80v10zM400 695h10l80 -80v-10l-80 -80h-10l-80 80v10z" />
    <glyph glyph-name="uni04F6" unicode="&#x4f6;" horiz-adv-x="560" 
d="M65 700h460l5 -5v-130l-5 -5h-325v-420h95l5 -5v-310l-5 -5h-130l-5 5v175h-95l-5 5v690z" />
    <glyph glyph-name="uni04F7" unicode="&#x4f7;" horiz-adv-x="440" 
d="M65 470h340l5 -5v-130l-5 -5h-205v-190h95l5 -5v-270l-5 -5h-130l-5 5v135h-95l-5 5v460z" />
    <glyph glyph-name="uni04F8" unicode="&#x4f8;" horiz-adv-x="800" 
d="M65 700h130l5 -5v-260h95q105 0 170 -56.5t65 -158.5q0 -103 -65.5 -161.5t-169.5 -58.5h-230l-5 5v690zM200 295v-155h85q47 0 71 18.5t24 61.5q0 75 -95 75h-85zM605 700h130l5 -5v-690l-5 -5h-130l-5 5v690zM260 930h10l85 -85v-10l-85 -85h-10l-85 85v10zM530 930h10
l85 -85v-10l-85 -85h-10l-85 85v10z" />
    <glyph glyph-name="uni04F9" unicode="&#x4f9;" horiz-adv-x="740" 
d="M65 470h130l5 -5v-125h100q68 0 119 -42.5t51 -127.5t-51 -127.5t-119 -42.5h-235l-5 5v460zM200 220v-80h80q45 0 45 40t-45 40h-80zM545 470h130l5 -5v-460l-5 -5h-130l-5 5v460zM250 695h10l80 -80v-10l-80 -80h-10l-80 80v10zM480 695h10l80 -80v-10l-80 -80h-10
l-80 80v10z" />
    <glyph glyph-name="uni04FA" unicode="&#x4fa;" horiz-adv-x="560" 
d="M65 700h460l5 -5v-130l-5 -5h-325v-125h225l5 -5v-130l-5 -5h-225v-155h95l5 -5v-135q0 -96 -48.5 -145.5t-136.5 -49.5q-35 0 -55 10v130l5 5q20 -10 40 -10q25 0 38 11.5t17 43.5v5h-95l-5 5v290h-65l-5 5v130l5 5h65v260z" />
    <glyph glyph-name="uni04FB" unicode="&#x4fb;" horiz-adv-x="420" 
d="M65 470h340l5 -5v-130l-5 -5h-205v-45h115l5 -5v-110l-5 -5h-115v-45h95l5 -5v-185q0 -96 -48.5 -145.5t-136.5 -49.5q-35 0 -55 10v130l5 5q20 -10 40 -10q27 0 41 18.5t14 76.5v35h-95l-5 5v160h-55l-5 5v110l5 5h55v180z" />
    <glyph glyph-name="uni04FC" unicode="&#x4fc;" horiz-adv-x="700" 
d="M50 700h155l10 -5l145 -210l145 210l10 5h160l5 -5l-225 -315q45 -47 77 -84.5t69.5 -89t58 -102t20.5 -94.5q0 -205 -205 -205q-48 0 -90 25v145l5 5q32 -30 85 -30q50 0 50 60q0 16 -4 32t-13.5 34.5t-17.5 33t-26 37.5t-28 36t-33 40.5t-33 40.5l-185 -259l-10 -5
h-160l-5 5l265 365l-230 325z" />
    <glyph glyph-name="uni04FD" unicode="&#x4fd;" horiz-adv-x="520" 
d="M25 470h155l10 -5l70 -100l70 100l10 5h155l5 -5l-150 -210q44 -52 63 -75.5t50 -70.5t44 -90t13 -89q0 -94 -55 -144.5t-140 -50.5q-43 0 -80 15v135l5 5q19 -15 33 -20t41 -5q22 0 39 16.5t17 48.5q0 78 -111 205l-89 -130l-10 -5h-155l-5 5l170 240l-160 220z" />
    <glyph glyph-name="uni04FE" unicode="&#x4fe;" horiz-adv-x="720" 
d="M45 700h160l10 -5l145 -210l145 210l10 5h160l5 -5l-190 -260h155l5 -5v-130l-5 -5h-145l210 -290l-5 -5h-160l-10 5l-175 250l-175 -250l-10 -5h-160l-5 5l210 290h-145l-5 5v130l5 5h155l-190 260z" />
    <glyph glyph-name="uni04FF" unicode="&#x4ff;" horiz-adv-x="520" 
d="M25 470h155l10 -5l70 -100l70 100l10 5h155l5 -5l-114 -160h89l5 -5v-110l-5 -5h-90l125 -180l-5 -5h-155l-10 5l-80 115l-80 -115l-10 -5h-155l-5 5l125 180h-90l-5 5v110l5 5h90l-115 160z" />
    <glyph glyph-name="uni2000" unicode="&#x2000;" horiz-adv-x="500" 
 />
    <glyph glyph-name="uni2001" unicode="&#x2001;" horiz-adv-x="1000" 
 />
    <glyph glyph-name="uni2002" unicode="&#x2002;" horiz-adv-x="500" 
 />
    <glyph glyph-name="uni2003" unicode="&#x2003;" horiz-adv-x="1000" 
 />
    <glyph glyph-name="uni2004" unicode="&#x2004;" horiz-adv-x="333" 
 />
    <glyph glyph-name="uni2005" unicode="&#x2005;" horiz-adv-x="250" 
 />
    <glyph glyph-name="uni2006" unicode="&#x2006;" horiz-adv-x="167" 
 />
    <glyph glyph-name="uni2007" unicode="&#x2007;" horiz-adv-x="565" 
 />
    <glyph glyph-name="uni2008" unicode="&#x2008;" horiz-adv-x="283" 
 />
    <glyph glyph-name="uni2009" unicode="&#x2009;" horiz-adv-x="200" 
 />
    <glyph glyph-name="uni200A" unicode="&#x200a;" horiz-adv-x="100" 
 />
    <glyph glyph-name="uni200B" unicode="&#x200b;" horiz-adv-x="0" 
 />
    <glyph glyph-name="uni200C" unicode="&#x200c;" horiz-adv-x="0" 
 />
    <glyph glyph-name="uni200D" unicode="&#x200d;" horiz-adv-x="0" 
 />
    <glyph glyph-name="uni200E" unicode="&#x200e;" horiz-adv-x="520" 
d="M65 580h245v105h10l170 -170v-10l-170 -170h-10v105h-110v-435l-5 -5h-130l-5 5v570z" />
    <glyph glyph-name="uni200F" unicode="&#x200f;" horiz-adv-x="520" 
d="M200 685h10v-105h245l5 -5v-570l-5 -5h-130l-5 5v435h-110v-105h-10l-170 170v10z" />
    <glyph glyph-name="uni2010" unicode="&#x2010;" horiz-adv-x="400" 
d="M45 305h310l5 -5v-130l-5 -5h-310l-5 5v130z" />
    <glyph glyph-name="uni2011" unicode="&#x2011;" horiz-adv-x="400" 
d="M45 305h310l5 -5v-130l-5 -5h-310l-5 5v130z" />
    <glyph glyph-name="figuredash" unicode="&#x2012;" horiz-adv-x="520" 
d="M45 305h430l5 -5v-130l-5 -5h-430l-5 5v130z" />
    <glyph glyph-name="endash" unicode="&#x2013;" horiz-adv-x="500" 
d="M45 305h410l5 -5v-130l-5 -5h-410l-5 5v130z" />
    <glyph glyph-name="emdash" unicode="&#x2014;" horiz-adv-x="1000" 
d="M45 305h910l5 -5v-130l-5 -5h-910l-5 5v130z" />
    <glyph glyph-name="uni2015" unicode="&#x2015;" horiz-adv-x="1000" 
d="M45 305h910l5 -5v-130l-5 -5h-910l-5 5v130z" />
    <glyph glyph-name="uni2016" unicode="&#x2016;" horiz-adv-x="500" 
d="M65 700h130l5 -5v-690l-5 -5h-130l-5 5v690zM305 700h130l5 -5v-690l-5 -5h-130l-5 5v690z" />
    <glyph glyph-name="underscoredbl" unicode="&#x2017;" horiz-adv-x="500" 
d="M45 -30h410l5 -5v-130l-5 -5h-410l-5 5v130zM45 -250h410l5 -5v-130l-5 -5h-410l-5 5v130z" />
    <glyph glyph-name="quoteleft" unicode="&#x2018;" horiz-adv-x="260" 
d="M195 440h-130l-5 5v115q0 68 53.5 104t131.5 36v-5q-31 -23 -38 -47t-7 -83v-120z" />
    <glyph glyph-name="quoteright" unicode="&#x2019;" horiz-adv-x="260" 
d="M65 700h130l5 -5v-115q0 -68 -53.5 -104t-131.5 -36v5q31 22 38 46.5t7 83.5v120z" />
    <glyph glyph-name="quotesinglbase" unicode="&#x201a;" horiz-adv-x="260" 
d="M65 120h130l5 -5v-115q0 -68 -53.5 -104t-131.5 -36v5q31 22 38 46.5t7 83.5v120z" />
    <glyph glyph-name="quotereversed" unicode="&#x201b;" horiz-adv-x="260" 
d="M65 700h130l5 -5v-120q0 -59 7 -83.5t38 -46.5v-5q-78 0 -131.5 36t-53.5 104v115z" />
    <glyph glyph-name="quotedblleft" unicode="&#x201c;" horiz-adv-x="460" 
d="M195 440h-130l-5 5v115q0 68 53.5 104t131.5 36v-5q-31 -23 -38 -47t-7 -83v-120zM395 470h-130l-5 5v85q0 68 53.5 104t131.5 36v-5q-31 -23 -38 -47t-7 -83v-90z" />
    <glyph glyph-name="quotedblright" unicode="&#x201d;" horiz-adv-x="460" 
d="M65 700h130l5 -5v-115q0 -68 -53.5 -104t-131.5 -36v5q31 22 38 46.5t7 83.5v120zM265 700h130l5 -5v-85q0 -68 -53.5 -104t-131.5 -36v5q31 22 38 46.5t7 83.5v90z" />
    <glyph glyph-name="quotedblbase" unicode="&#x201e;" horiz-adv-x="460" 
d="M65 120h130l5 -5v-115q0 -68 -53.5 -104t-131.5 -36v5q31 22 38 46.5t7 83.5v120zM265 120h130l5 -5v-85q0 -68 -53.5 -104t-131.5 -36v5q31 22 38 46.5t7 83.5v90z" />
    <glyph glyph-name="uni201F" unicode="&#x201f;" horiz-adv-x="460" 
d="M65 700h130l5 -5v-90q0 -59 7 -83.5t38 -46.5v-5q-78 0 -131.5 36t-53.5 104v85zM265 700h130l5 -5v-120q0 -59 7 -83.5t38 -46.5v-5q-78 0 -131.5 36t-53.5 104v115z" />
    <glyph glyph-name="dagger" unicode="&#x2020;" horiz-adv-x="440" 
d="M140 700h160l5 -5l-40 -140l140 40l5 -5v-145l-5 -5l-140 35l40 -120v-10l-45 -275l-5 -5h-70l-5 5l-45 275v10l40 120l-140 -35l-5 5v145l5 5l140 -40l-40 140z" />
    <glyph glyph-name="daggerdbl" unicode="&#x2021;" horiz-adv-x="440" 
d="M140 700h160l5 -5l-40 -140l140 40l5 -5v-145l-5 -5l-140 35l40 -120v-10l-40 -120l140 35l5 -5v-145l-5 -5l-140 40l40 -140l-5 -5h-160l-5 5l40 140l-140 -40l-5 5v145l5 5l140 -35l-40 120v10l40 120l-140 -35l-5 5v145l5 5l140 -40l-40 140z" />
    <glyph glyph-name="bullet" unicode="&#x2022;" horiz-adv-x="500" 
d="M245 400h10l160 -160v-10l-160 -160h-10l-160 160v10z" />
    <glyph glyph-name="uni2023" unicode="&#x2023;" horiz-adv-x="500" 
d="M145 395l10 5l280 -160v-10l-280 -160l-10 5v320z" />
    <glyph glyph-name="onedotenleader" unicode="&#x2024;" horiz-adv-x="500" 
d="M185 140h130l5 -5v-130l-5 -5h-130l-5 5v130z" />
    <glyph glyph-name="twodotenleader" unicode="&#x2025;" horiz-adv-x="500" 
d="M70 130h120l5 -5v-120l-5 -5h-120l-5 5v120zM320 130h120l5 -5v-120l-5 -5h-120l-5 5v120z" />
    <glyph glyph-name="ellipsis" unicode="&#x2026;" horiz-adv-x="1000" 
d="M65 140h130l5 -5v-130l-5 -5h-130l-5 5v130zM398 140h130l5 -5v-130l-5 -5h-130l-5 5v130zM731 140h130l5 -5v-130l-5 -5h-130l-5 5v130z" />
    <glyph glyph-name="uni2027" unicode="&#x2027;" horiz-adv-x="260" 
d="M65 315h130l5 -5v-130l-5 -5h-130l-5 5v130z" />
    <glyph glyph-name="perthousand" unicode="&#x2030;" horiz-adv-x="1160" 
d="M205 705q68 0 116.5 -46.5t48.5 -113.5t-48.5 -113.5t-116.5 -46.5t-116.5 46.5t-48.5 113.5t48.5 113.5t116.5 46.5zM205 580q-15 0 -25 -10t-10 -25t10 -25t25 -10t25 10t10 25t-10 25t-25 10zM555 700h155l5 -5l-460 -690l-10 -5h-155l-5 5l460 690zM595 315
q68 0 116.5 -46.5t48.5 -113.5t-48.5 -113.5t-116.5 -46.5t-116.5 46.5t-48.5 113.5t48.5 113.5t116.5 46.5zM595 190q-15 0 -25 -10t-10 -25t10 -25t25 -10t25 10t10 25t-10 25t-25 10zM955 315q68 0 116.5 -46.5t48.5 -113.5t-48.5 -113.5t-116.5 -46.5t-116.5 46.5
t-48.5 113.5t48.5 113.5t116.5 46.5zM955 190q-15 0 -25 -10t-10 -25t10 -25t25 -10t25 10t10 25t-10 25t-25 10z" />
    <glyph glyph-name="uni2031" unicode="&#x2031;" horiz-adv-x="1520" 
d="M205 705q68 0 116.5 -46.5t48.5 -113.5t-48.5 -113.5t-116.5 -46.5t-116.5 46.5t-48.5 113.5t48.5 113.5t116.5 46.5zM205 580q-15 0 -25 -10t-10 -25t10 -25t25 -10t25 10t10 25t-10 25t-25 10zM555 700h155l5 -5l-460 -690l-10 -5h-155l-5 5l460 690zM595 315
q68 0 116.5 -46.5t48.5 -113.5t-48.5 -113.5t-116.5 -46.5t-116.5 46.5t-48.5 113.5t48.5 113.5t116.5 46.5zM595 190q-15 0 -25 -10t-10 -25t10 -25t25 -10t25 10t10 25t-10 25t-25 10zM955 315q68 0 116.5 -46.5t48.5 -113.5t-48.5 -113.5t-116.5 -46.5t-116.5 46.5
t-48.5 113.5t48.5 113.5t116.5 46.5zM955 190q-15 0 -25 -10t-10 -25t10 -25t25 -10t25 10t10 25t-10 25t-25 10zM1315 315q68 0 116.5 -46.5t48.5 -113.5t-48.5 -113.5t-116.5 -46.5t-116.5 46.5t-48.5 113.5t48.5 113.5t116.5 46.5zM1315 190q-15 0 -25 -10t-10 -25
t10 -25t25 -10t25 10t10 25t-10 25t-25 10z" />
    <glyph glyph-name="uni2032" unicode="&#x2032;" horiz-adv-x="260" 
d="M82 700h143l5 -5l-65 -230l-5 -5h-85l-5 5l7 230z" />
    <glyph glyph-name="uni2033" unicode="&#x2033;" horiz-adv-x="440" 
d="M82 700h143l5 -5l-65 -230l-5 -5h-85l-5 5l7 230zM262 700h143l5 -5l-65 -230l-5 -5h-85l-5 5l7 230z" />
    <glyph glyph-name="uni2034" unicode="&#x2034;" horiz-adv-x="620" 
d="M82 700h143l5 -5l-65 -230l-5 -5h-85l-5 5l7 230zM262 700h143l5 -5l-65 -230l-5 -5h-85l-5 5l7 230zM442 700h143l5 -5l-65 -230l-5 -5h-85l-5 5l7 230z" />
    <glyph glyph-name="uni2035" unicode="&#x2035;" horiz-adv-x="260" 
d="M35 700h142l5 -5l8 -230l-5 -5h-85l-5 5l-65 230z" />
    <glyph glyph-name="uni2036" unicode="&#x2036;" horiz-adv-x="440" 
d="M35 700h142l5 -5l8 -230l-5 -5h-85l-5 5l-65 230zM215 700h142l5 -5l8 -230l-5 -5h-85l-5 5l-65 230z" />
    <glyph glyph-name="uni2037" unicode="&#x2037;" horiz-adv-x="620" 
d="M35 700h142l5 -5l8 -230l-5 -5h-85l-5 5l-65 230zM215 700h142l5 -5l8 -230l-5 -5h-85l-5 5l-65 230zM395 700h142l5 -5l8 -230l-5 -5h-85l-5 5l-65 230z" />
    <glyph glyph-name="guilsinglleft" unicode="&#x2039;" horiz-adv-x="280" 
d="M225 435l5 -5v-150l-45 -45l45 -45v-150l-5 -5l-195 195v10z" />
    <glyph glyph-name="guilsinglright" unicode="&#x203a;" horiz-adv-x="280" 
d="M50 430l5 5l195 -195v-10l-195 -195l-5 5v150l45 45l-45 45v150z" />
    <glyph glyph-name="uni203B" unicode="&#x203b;" horiz-adv-x="700" 
d="M-5 700h141l10 -5l204 -245l203 245l10 5h142l5 -5l-285 -345l285 -345l-5 -5h-142l-10 5l-203 245l-204 -245l-10 -5h-141l-5 5l285 345l-285 345zM100 430h10l75 -75v-10l-75 -75h-10l-75 75v10zM590 430h10l75 -75v-10l-75 -75h-10l-75 75v10zM270 60v10l75 75h10
l75 -75v-10l-75 -75h-10zM270 630v10l75 75h10l75 -75v-10l-75 -75h-10z" />
    <glyph glyph-name="exclamdbl" unicode="&#x203c;" horiz-adv-x="480" 
d="M65 700h130l5 -5v-115l-20 -365l-5 -5h-90l-5 5l-20 365v115zM125 135h10l80 -80v-10l-80 -80h-10l-80 80v10zM285 700h130l5 -5v-115l-20 -365l-5 -5h-90l-5 5l-20 365v115zM345 135h10l80 -80v-10l-80 -80h-10l-80 80v10z" />
    <glyph glyph-name="uni203D" unicode="&#x203d;" horiz-adv-x="600" 
d="M20 670l115 42l11 -6l56 -139l53 -197q20 17 53 32.5t56 25t41 28.5t18 46q0 28 -18 50.5t-44 22.5q-35 0 -67 -29l-5 3l-72 111q55 55 144 55q86 0 147.5 -63.5t61.5 -149.5q0 -56 -26.5 -97t-64 -62t-74.5 -36.5t-63.5 -32t-26.5 -37.5q0 -17 10 -37l-86 -42l-12 6
l-167 361l-46 133zM290 155h10l80 -80v-10l-80 -80h-10l-80 80v10z" />
    <glyph glyph-name="uni203E" unicode="&#x203e;" horiz-adv-x="500" 
d="M45 870h410l5 -5v-130l-5 -5h-410l-5 5v130z" />
    <glyph glyph-name="uni2042" unicode="&#x2042;" horiz-adv-x="1032" 
d="M192 250h128l4 -4l-32 -152l120 96h4l64 -104v-4l-152 -48l152 -56v-4l-64 -104h-4l-120 104l32 -152l-4 -4h-128l-4 4l32 152l-120 -104h-4l-64 104v4l152 56l-152 48v4l64 104h4l120 -96l-32 152zM457 700h128l4 -4l-32 -152l120 96h4l64 -104v-4l-152 -48l152 -56v-4
l-64 -104h-4l-120 104l32 -152l-4 -4h-128l-4 4l32 152l-120 -104h-4l-64 104v4l152 56l-152 48v4l64 104h4l120 -96l-32 152zM712 250h128l4 -4l-32 -152l120 96h4l64 -104v-4l-152 -48l152 -56v-4l-64 -104h-4l-120 104l32 -152l-4 -4h-128l-4 4l32 152l-120 -104h-4
l-64 104v4l152 56l-152 48v4l64 104h4l120 -96l-32 152z" />
    <glyph glyph-name="uni2043" unicode="&#x2043;" horiz-adv-x="400" 
d="M45 305h310l5 -5v-130l-5 -5h-310l-5 5v130z" />
    <glyph glyph-name="fraction" unicode="&#x2044;" horiz-adv-x="40" 
d="M145 700h145l5 -5l-391 -690l-10 -5h-144l-5 5l390 690z" />
    <glyph glyph-name="uni2045" unicode="&#x2045;" horiz-adv-x="300" 
d="M25 720h230l5 -5v-130l-5 -5h-95v-275h95l5 -5v-130l-5 -5h-95v-285h95l5 -5v-130l-5 -5h-230l-5 5v970z" />
    <glyph glyph-name="uni2046" unicode="&#x2046;" horiz-adv-x="300" 
d="M45 720h230l5 -5v-970l-5 -5h-230l-5 5v130l5 5h95v285h-95l-5 5v130l5 5h95v275h-95l-5 5v130z" />
    <glyph glyph-name="uni2047" unicode="&#x2047;" horiz-adv-x="900" 
d="M120 525l-85 65q27 57 73.5 91t101.5 34q97 0 156 -50.5t59 -129.5q0 -51 -21 -95t-46.5 -68.5t-46.5 -49.5t-21 -42q0 -26 22 -43l-85 -87q-87 54 -87 130q0 32 13.5 58t32.5 44.5l38 37t32.5 42.5t13.5 53q0 27 -15.5 43.5t-44.5 16.5q-51 0 -80 -50h-10zM225 135h10
l80 -80v-10l-80 -80h-10l-80 80v10zM560 525l-85 65q27 57 73.5 91t101.5 34q97 0 156 -50.5t59 -129.5q0 -51 -21 -95t-46.5 -68.5t-46.5 -49.5t-21 -42q0 -26 22 -43l-85 -87q-87 54 -87 130q0 32 13.5 58t32.5 44.5l38 37t32.5 42.5t13.5 53q0 27 -15.5 43.5t-44.5 16.5
q-51 0 -80 -50h-10zM665 135h10l80 -80v-10l-80 -80h-10l-80 80v10z" />
    <glyph glyph-name="uni2048" unicode="&#x2048;" horiz-adv-x="700" 
d="M120 525l-85 65q27 57 73.5 91t101.5 34q97 0 156 -50.5t59 -129.5q0 -51 -21 -95t-46.5 -68.5t-46.5 -49.5t-21 -42q0 -26 22 -43l-85 -87q-87 54 -87 130q0 32 13.5 58t32.5 44.5l38 37t32.5 42.5t13.5 53q0 27 -15.5 43.5t-44.5 16.5q-51 0 -80 -50h-10zM225 135h10
l80 -80v-10l-80 -80h-10l-80 80v10zM505 700h130l5 -5v-115l-20 -365l-5 -5h-90l-5 5l-20 365v115zM565 135h10l80 -80v-10l-80 -80h-10l-80 80v10z" />
    <glyph glyph-name="uni2049" unicode="&#x2049;" horiz-adv-x="700" 
d="M65 700h130l5 -5v-115l-20 -365l-5 -5h-90l-5 5l-20 365v115zM125 135h10l80 -80v-10l-80 -80h-10l-80 80v10zM360 525l-85 65q27 57 73.5 91t101.5 34q97 0 156 -50.5t59 -129.5q0 -51 -21 -95t-46.5 -68.5t-46.5 -49.5t-21 -42q0 -26 22 -43l-85 -87q-87 54 -87 130
q0 32 13.5 58t32.5 44.5l38 37t32.5 42.5t13.5 53q0 27 -15.5 43.5t-44.5 16.5q-51 0 -80 -50h-10zM465 135h10l80 -80v-10l-80 -80h-10l-80 80v10z" />
    <glyph glyph-name="uni204B" unicode="&#x204b;" horiz-adv-x="740" 
d="M85 700h375q115 0 177.5 -64.5t62.5 -160.5q0 -90 -59.5 -155.5t-160.5 -69.5v-245l-5 -5h-130l-5 5v555h-120v-555l-5 -5h-130l-5 5v690z" />
    <glyph glyph-name="uni204C" unicode="&#x204c;" horiz-adv-x="500" 
d="M250 385h145l5 -5v-290l-5 -5h-145q-71 0 -120.5 44t-49.5 106t49.5 106t120.5 44zM310 175v120h-60v-120h60z" />
    <glyph glyph-name="uni204D" unicode="&#x204d;" horiz-adv-x="500" 
d="M105 385h145q71 0 120.5 -44t49.5 -106t-49.5 -106t-120.5 -44h-145l-5 5v290zM190 295v-120h60v120h-60z" />
    <glyph glyph-name="uni204E" unicode="&#x204e;" horiz-adv-x="640" 
d="M240 620h160l5 -5l-40 -190l150 120h5l80 -130v-5l-190 -60l190 -70v-5l-80 -130h-5l-150 130l40 -190l-5 -5h-160l-5 5l40 190l-150 -130h-5l-80 130v5l190 70l-190 60v5l80 130h5l150 -120l-40 190z" />
    <glyph glyph-name="uni204F" unicode="&#x204f;" horiz-adv-x="260" 
d="M65 460h130l5 -5v-130l-5 -5h-130l-5 5v130zM65 140h130l5 -5v-125q0 -104 60 -130v-5q-17 -5 -35 -5q-77 0 -121 40t-44 105v120z" />
    <glyph glyph-name="uni2051" unicode="&#x2051;" horiz-adv-x="512" 
d="M192 720h128l4 -4l-32 -152l120 96h4l64 -104v-4l-152 -48l152 -56v-4l-64 -104h-4l-120 104l32 -152l-4 -4h-128l-4 4l32 152l-120 -104h-4l-64 104v4l152 56l-152 48v4l64 104h4l120 -96l-32 152zM192 230h128l4 -4l-32 -152l120 96h4l64 -104v-4l-152 -48l152 -56v-4
l-64 -104h-4l-120 104l32 -152l-4 -4h-128l-4 4l32 152l-120 -104h-4l-64 104v4l152 56l-152 48v4l64 104h4l120 -96l-32 152z" />
    <glyph glyph-name="uni2052" unicode="&#x2052;" horiz-adv-x="650" 
d="M67 700h120l5 -5v-120l-5 -5h-120l-5 5v120zM475 700h155l5 -5l-460 -690l-10 -5h-155l-5 5l460 690zM462 130h120l5 -5v-120l-5 -5h-120l-5 5v120z" />
    <glyph glyph-name="uni2053" unicode="&#x2053;" horiz-adv-x="520" 
d="M467 307l5 -5q-55 -137 -147 -137q-29 0 -93.5 18.5t-124.5 18.5q-25 0 -55 -20l-5 5q58 138 148 138q28 0 92.5 -19t124.5 -19q25 0 55 20z" />
    <glyph glyph-name="uni2055" unicode="&#x2055;" horiz-adv-x="640" 
d="M260 660h120l5 -5l-15 -155l100 115h10l80 -80v-10l-115 -95l150 15l5 -5v-120l-5 -5l-150 15l114 -100v-10l-79 -80h-10l-100 120l15 -155l-5 -5h-120l-5 5l15 155l-100 -120h-10l-80 80v10l115 100l-150 -15l-5 5v120l5 5l150 -15l-115 96v9l80 80h10l100 -115l-15 155
z" />
    <glyph glyph-name="uni2056" unicode="&#x2056;" horiz-adv-x="660" 
d="M65 710h130l5 -5v-130l-5 -5h-130l-5 5v130zM65 130h130l5 -5v-130l-5 -5h-130l-5 5v130zM465 410h130l5 -5v-130l-5 -5h-130l-5 5v130z" />
    <glyph glyph-name="uni2057" unicode="&#x2057;" horiz-adv-x="800" 
d="M82 700h143l5 -5l-65 -230l-5 -5h-85l-5 5l7 230zM262 700h143l5 -5l-65 -230l-5 -5h-85l-5 5l7 230zM442 700h143l5 -5l-65 -230l-5 -5h-85l-5 5l7 230zM622 700h143l5 -5l-65 -230l-5 -5h-85l-5 5l7 230z" />
    <glyph glyph-name="uni2058" unicode="&#x2058;" horiz-adv-x="840" 
d="M355 710h130l5 -5v-130l-5 -5h-130l-5 5v130zM65 430h130l5 -5v-130l-5 -5h-130l-5 5v130zM645 430h130l5 -5v-130l-5 -5h-130l-5 5v130zM355 140h130l5 -5v-130l-5 -5h-130l-5 5v130z" />
    <glyph glyph-name="uni2059" unicode="&#x2059;" horiz-adv-x="760" 
d="M65 710h130l5 -5v-130l-5 -5h-130l-5 5v130zM565 710h130l5 -5v-130l-5 -5h-130l-5 5v130zM315 430h130l5 -5v-130l-5 -5h-130l-5 5v130zM65 140h130l5 -5v-130l-5 -5h-130l-5 5v130zM565 140h130l5 -5v-130l-5 -5h-130l-5 5v130z" />
    <glyph glyph-name="uni205A" unicode="&#x205a;" horiz-adv-x="260" 
d="M65 710h130l5 -5v-130l-5 -5h-130l-5 5v130zM65 140h130l5 -5v-130l-5 -5h-130l-5 5v130z" />
    <glyph glyph-name="uni205B" unicode="&#x205b;" horiz-adv-x="840" 
d="M355 750h130l5 -5v-130l-5 -5h-130l-5 5v130zM65 440h130l5 -5v-130l-5 -5h-130l-5 5v130zM645 440h130l5 -5v-130l-5 -5h-130l-5 5v130zM355 90h130l5 -5v-130l-5 -5h-130l-5 5v130z" />
    <glyph glyph-name="uni205C" unicode="&#x205c;" horiz-adv-x="760" 
d="M315 700h130l5 -5v-255h275l5 -5v-130l-5 -5h-275v-295l-5 -5h-130l-5 5v295h-275l-5 5v130l5 5h275v255zM65 710h130l5 -5v-130l-5 -5h-130l-5 5v130zM565 710h130l5 -5v-130l-5 -5h-130l-5 5v130zM65 130h130l5 -5v-130l-5 -5h-130l-5 5v130zM565 130h130l5 -5v-130
l-5 -5h-130l-5 5v130z" />
    <glyph glyph-name="uni205D" unicode="&#x205d;" horiz-adv-x="260" 
d="M65 700h130l5 -5v-130l-5 -5h-130l-5 5v130zM65 430h130l5 -5v-130l-5 -5h-130l-5 5v130zM65 140h130l5 -5v-130l-5 -5h-130l-5 5v130z" />
    <glyph glyph-name="uni205E" unicode="&#x205e;" horiz-adv-x="260" 
d="M65 710h130l5 -5v-130l-5 -5h-130l-5 5v130zM65 515h130l5 -5v-130l-5 -5h-130l-5 5v130zM65 325h130l5 -5v-130l-5 -5h-130l-5 5v130zM65 130h130l5 -5v-130l-5 -5h-130l-5 5v130z" />
    <glyph glyph-name="zerosuperior" unicode="&#x2070;" horiz-adv-x="420" 
d="M210 875q79 0 129.5 -63.5t50.5 -161.5t-50.5 -161.5t-129.5 -63.5t-129.5 63.5t-50.5 161.5t50.5 161.5t129.5 63.5zM210 755q-55 0 -55 -105t55 -105t55 105t-55 105z" />
    <glyph glyph-name="uni2071" unicode="&#x2071;" horiz-adv-x="230" 
d="M65 720h100l5 -5v-270l-5 -5h-100l-5 5v270zM110 900h10l65 -65v-10l-65 -65h-10l-65 65v10z" />
    <glyph glyph-name="foursuperior" unicode="&#x2074;" horiz-adv-x="400" 
d="M315 890l5 -5v-280h55l5 -5v-90l-5 -5h-55v-60l-5 -5h-90l-5 5v60h-215l-5 5zM220 680l-60 -75h60v75z" />
    <glyph glyph-name="fivesuperior" unicode="&#x2075;" horiz-adv-x="340" 
d="M105 860h205l5 -5l-62 -115h-60l-3 -20q59 -13 92 -46t33 -99q0 -62 -47 -106t-108 -44q-87 0 -135 65l75 85h5q24 -30 55 -30q15 0 25 11t10 29q0 40 -45 40q-30 0 -75 -15l-5 5l30 240z" />
    <glyph glyph-name="sixsuperior" unicode="&#x2076;" horiz-adv-x="380" 
d="M310 860l5 -5q-3 -3 -27 -24.5t-32.5 -29.5t-25.5 -25.5t-27.5 -32t-17.5 -28.5q15 5 25 5q55 0 97.5 -37.5t42.5 -107.5q0 -68 -46 -109t-110 -41q-65 0 -114.5 46t-49.5 132q0 139 135 257h145zM150 601v-3q0 -24 13 -38.5t32 -14.5q15 0 25 11t10 29q0 15 -10 25
t-26 10q-21 0 -44 -19z" />
    <glyph glyph-name="sevensuperior" unicode="&#x2077;" horiz-adv-x="490" 
d="M110 860h330l5 -5l-200 -410l-10 -5h-125l-5 5l150 295h-145l-5 5v110z" />
    <glyph glyph-name="eightsuperior" unicode="&#x2078;" horiz-adv-x="380" 
d="M190 875q59 0 99.5 -34.5t40.5 -82.5q0 -57 -50 -93q32 -28 46 -53t14 -62q0 -51 -42.5 -88t-107.5 -37t-107.5 37t-42.5 88q0 37 14 62t46 53q-50 36 -50 93q0 48 40.5 82.5t99.5 34.5zM190 719q20 22 20 36q0 20 -20 20t-20 -20q0 -14 20 -36zM190 615q-30 -23 -30 -55
q0 -15 9 -25t21 -10t21 10t9 25q0 32 -30 55z" />
    <glyph glyph-name="ninesuperior" unicode="&#x2079;" horiz-adv-x="380" 
d="M70 440l-5 5q3 3 27 24.5t32.5 29.5t25.5 25.5t27.5 32t17.5 28.5q-15 -5 -25 -5q-55 0 -97.5 37.5t-42.5 107.5q0 68 46 109t110 41q65 0 114.5 -46t49.5 -132q0 -139 -135 -257h-145zM230 699v3q0 24 -13 38.5t-32 14.5q-15 0 -25 -11t-10 -29q0 -15 10 -25t26 -10
q21 0 44 19z" />
    <glyph glyph-name="uni207A" unicode="&#x207a;" horiz-adv-x="440" 
d="M170 810h100l5 -5v-105h105l5 -5v-100l-5 -5h-105v-105l-5 -5h-100l-5 5v105h-105l-5 5v100l5 5h105v105z" />
    <glyph glyph-name="uni207B" unicode="&#x207b;" horiz-adv-x="440" 
d="M60 700h320l5 -5v-100l-5 -5h-320l-5 5v100z" />
    <glyph glyph-name="uni207C" unicode="&#x207c;" horiz-adv-x="440" 
d="M60 780h320l5 -5v-100l-5 -5h-320l-5 5v100zM60 620h320l5 -5v-100l-5 -5h-320l-5 5v100z" />
    <glyph glyph-name="uni207D" unicode="&#x207d;" horiz-adv-x="300" 
d="M280 935l5 -5q-56 -69 -83 -137t-27 -148t27 -148t83 -137l-5 -5h-140q-90 120 -90 290t90 290h140z" />
    <glyph glyph-name="uni207E" unicode="&#x207e;" horiz-adv-x="300" 
d="M20 935h140q90 -120 90 -290t-90 -290h-140l-5 5q56 70 83 137.5t27 147.5t-27 147.5t-83 137.5z" />
    <glyph glyph-name="uni207F" unicode="&#x207f;" horiz-adv-x="420" 
d="M65 720h100l5 -5v-5q30 10 50 10q72 0 111 -38t39 -97v-140l-5 -5h-100l-5 5v115q0 45 -45 45q-25 0 -45 -20v-140l-5 -5h-100l-5 5v270z" />
    <glyph glyph-name="zeroinferior" unicode="&#x2080;" horiz-adv-x="420" 
d="M210 275q79 0 129.5 -63.5t50.5 -161.5t-50.5 -161.5t-129.5 -63.5t-129.5 63.5t-50.5 161.5t50.5 161.5t129.5 63.5zM210 155q-55 0 -55 -105t55 -105t55 105t-55 105z" />
    <glyph glyph-name="oneinferior" unicode="&#x2081;" horiz-adv-x="240" 
d="M175 265l5 -5v-415l-5 -5h-110l-5 5v315l5 10z" />
    <glyph glyph-name="twoinferior" unicode="&#x2082;" horiz-adv-x="330" 
d="M40 105v135q44 35 105 35q56 0 100.5 -42.5t44.5 -107.5q0 -49 -48 -135l-17 -30h60l5 -5v-110l-5 -5h-260l-5 5l117 190q28 49 28 80q0 16 -11 28t-29 12q-28 0 -46 -13.5t-34 -41.5z" />
    <glyph glyph-name="threeinferior" unicode="&#x2083;" horiz-adv-x="340" 
d="M35 260h275l5 -5l-80 -150q80 -44 80 -130q0 -62 -47 -106t-108 -44q-87 0 -135 65l75 85h5q24 -30 55 -30q15 0 25 11t10 29q0 40 -45 40q-30 0 -60 -10l-5 5l60 120h-110l-5 5v110z" />
    <glyph glyph-name="fourinferior" unicode="&#x2084;" horiz-adv-x="400" 
d="M315 290l5 -5v-280h55l5 -5v-90l-5 -5h-55v-60l-5 -5h-90l-5 5v60h-215l-5 5zM220 80l-60 -75h60v75z" />
    <glyph glyph-name="fiveinferior" unicode="&#x2085;" horiz-adv-x="340" 
d="M105 260h205l5 -5l-62 -115h-60l-3 -20q59 -13 92 -46t33 -99q0 -62 -47 -106t-108 -44q-87 0 -135 65l75 85h5q24 -30 55 -30q15 0 25 11t10 29q0 40 -45 40q-30 0 -75 -15l-5 5l30 240z" />
    <glyph glyph-name="sixinferior" unicode="&#x2086;" horiz-adv-x="380" 
d="M310 260l5 -5q-3 -3 -27 -24.5t-32.5 -29.5t-25.5 -25.5t-27.5 -32t-17.5 -28.5q15 5 25 5q55 0 97.5 -37.5t42.5 -107.5q0 -68 -46 -109t-110 -41q-65 0 -114.5 46t-49.5 132q0 139 135 257h145zM150 1v-3q0 -24 13 -38.5t32 -14.5q15 0 25 11t10 29q0 15 -10 25t-26 10
q-21 0 -44 -19z" />
    <glyph glyph-name="seveninferior" unicode="&#x2087;" horiz-adv-x="490" 
d="M110 260h330l5 -5l-200 -410l-10 -5h-125l-5 5l150 295h-145l-5 5v110z" />
    <glyph glyph-name="eightinferior" unicode="&#x2088;" horiz-adv-x="380" 
d="M190 275q59 0 99.5 -34.5t40.5 -82.5q0 -57 -50 -93q32 -28 46 -53t14 -62q0 -51 -42.5 -88t-107.5 -37t-107.5 37t-42.5 88q0 37 14 62t46 53q-50 36 -50 93q0 48 40.5 82.5t99.5 34.5zM190 119q20 22 20 36q0 20 -20 20t-20 -20q0 -14 20 -36zM190 15q-30 -23 -30 -55
q0 -15 9 -25t21 -10t21 10t9 25q0 32 -30 55z" />
    <glyph glyph-name="nineinferior" unicode="&#x2089;" horiz-adv-x="380" 
d="M70 -160l-5 5q3 3 27 24.5t32.5 29.5t25.5 25.5t27.5 32t17.5 28.5q-15 -5 -25 -5q-55 0 -97.5 37.5t-42.5 107.5q0 68 46 109t110 41q65 0 114.5 -46t49.5 -132q0 -139 -135 -257h-145zM230 99v3q0 24 -13 38.5t-32 14.5q-15 0 -25 -11t-10 -29q0 -15 10 -25t26 -10
q21 0 44 19z" />
    <glyph glyph-name="uni208A" unicode="&#x208a;" horiz-adv-x="440" 
d="M170 210h100l5 -5v-105h105l5 -5v-100l-5 -5h-105v-105l-5 -5h-100l-5 5v105h-105l-5 5v100l5 5h105v105z" />
    <glyph glyph-name="uni208B" unicode="&#x208b;" horiz-adv-x="440" 
d="M60 100h320l5 -5v-100l-5 -5h-320l-5 5v100z" />
    <glyph glyph-name="uni208C" unicode="&#x208c;" horiz-adv-x="440" 
d="M60 180h320l5 -5v-100l-5 -5h-320l-5 5v100zM60 20h320l5 -5v-100l-5 -5h-320l-5 5v100z" />
    <glyph glyph-name="uni208D" unicode="&#x208d;" horiz-adv-x="300" 
d="M280 335l5 -5q-56 -69 -83 -137t-27 -148t27 -148t83 -137l-5 -5h-140q-90 120 -90 290t90 290h140z" />
    <glyph glyph-name="uni208E" unicode="&#x208e;" horiz-adv-x="300" 
d="M20 335h140q90 -120 90 -290t-90 -290h-140l-5 5q56 70 83 137.5t27 147.5t-27 147.5t-83 137.5z" />
    <glyph glyph-name="colonmonetary" unicode="&#x20a1;" horiz-adv-x="520" 
d="M495 482l-5 -5q-73 103 -175 103q-68 0 -116 -67.5t-48 -162.5q0 -98 48.5 -161.5t122.5 -63.5q37 0 89 24.5t79 72.5l5 -5v-172q-28 -24 -48 -33t-68 -23l-15 -84l-5 -5h-99l-5 5l15 85q-22 0 -49 5l-17 -90l-5 -5h-99l-5 5l25 150q-56 60 -85.5 125t-29.5 170
q0 126 54.5 217.5t135.5 127.5l20 100l5 5h99l5 -5l-15 -80q48 -3 50 -3l16 83l5 5h99l5 -5l-22 -115q6 -3 33 -25v-173z" />
    <glyph glyph-name="uni20A2" unicode="&#x20a2;" horiz-adv-x="520" 
d="M480 515l-5 -5q-74 65 -155 65q-51 0 -90.5 -57t-39.5 -168q0 -132 50 -190v245l5 5h130l5 -5v-15q50 29 100 35v-130l-5 -5q-57 -8 -95 -50v-110q42 7 95 60l5 -5v-145q-64 -55 -160 -55q-124 0 -202 100.5t-78 264.5t78 264.5t202 100.5q96 0 160 -55v-145z" />
    <glyph glyph-name="franc" unicode="&#x20a3;" horiz-adv-x="520" 
d="M85 700h400l5 -5v-130l-5 -5h-265v-85h155l5 -5v-110l-5 -5h-155v-60h155l5 -5v-110l-5 -5h-155v-170l-5 -5h-130l-5 5v170h-75l-5 5v110l5 5h75v60h-75l-5 5v110l5 5h75v220z" />
    <glyph glyph-name="lira" unicode="&#x20a4;" horiz-adv-x="520" 
d="M415 505h-10q-4 30 -20.5 47.5t-39.5 17.5q-28 0 -44 -26t-26 -89h160l5 -5l-40 -90l-5 -5h-131q-1 -15 -2 -27.5t-1.5 -17.5t-1 -9t-0.5 -6h136l5 -5l-40 -90l-5 -5h-106q-6 -30 -14 -55h300l5 -5l-75 -130l-10 -5h-460l-5 5q79 65 107 190h-82l-5 5l40 90l5 5h55
q1 10 3.5 30t3.5 30h-82l-5 5l40 90l5 5h54q22 139 70 199.5t146 60.5q83 0 140 -65z" />
    <glyph glyph-name="uni20A6" unicode="&#x20a6;" horiz-adv-x="520" 
d="M45 700h160l10 -5l125 -390v390l5 5h130l5 -5v-250h45l5 -5v-150l-5 -5h-45v-280l-5 -5h-160l-10 5l-125 390v-390l-5 -5h-130l-5 5v280h-45l-5 5v150l5 5h45v250z" />
    <glyph glyph-name="peseta" unicode="&#x20a7;" horiz-adv-x="1080" 
d="M65 700h175q115 0 182.5 -65.5t67.5 -159.5v-5h30v115l5 5h130l5 -6v-114h144q40 15 81 15q42 0 66.5 -6.5t58.5 -23.5v-130l-5 -5q-44 22 -66.5 28.5t-53.5 6.5q-45 0 -45 -30q0 -9 20.5 -16t50 -15.5t59 -23.5t50 -47t20.5 -78q0 -71 -57 -115.5t-183 -44.5
q-280 0 -280 220v125h-84q-69 -80 -196 -80h-40v-245l-5 -5h-130l-5 5v690zM200 560v-170h30q105 0 105 85t-105 85h-30zM660 330v-110q0 -59 32 -82t108 -23q58 0 79 7t21 23q0 11 -31 23t-69 25t-69 46t-31 81v10h-40z" />
    <glyph glyph-name="uni20A8" unicode="&#x20a8;" horiz-adv-x="860" 
d="M65 700h165q109 0 174.5 -60.5t65.5 -149.5q0 -115 -100 -165l115 -150q47 -60 150 -60q45 0 45 30q0 15 -19.5 25.5t-47.5 20.5t-56 23.5t-47.5 42t-19.5 68.5q0 64 51 112t134 48q67 0 115 -30v-130l-5 -5q-60 35 -110 35q-45 0 -45 -30q0 -12 19.5 -20.5t47.5 -18
t56 -23.5t47.5 -44.5t19.5 -73.5q0 -66 -52 -113t-133 -47q-101 0 -166 28t-114 92l-125 175h-30v-275l-5 -5h-130l-5 5v690zM200 560v-140h30q85 0 85 70t-85 70h-30z" />
    <glyph glyph-name="dong" unicode="&#x20ab;" horiz-adv-x="520" 
d="M335 720h130l5 -5v-35h45l5 -5v-110l-5 -5h-45v-375l-5 -5h-130l-5 5v5q-41 -25 -80 -25q-79 0 -134.5 55.5t-55.5 134.5t55.5 134.5t134.5 55.5q45 0 80 -19v34h-135l-5 5v110l5 5h135v35zM330 327v55q-7 7 -13.5 12.5t-13 8.5t-10.5 5.5t-9.5 3t-8 0.5h-8.5h-7
q-26 0 -40 -16.5t-14 -40.5q0 -25 14 -41.5t40 -16.5q40 0 70 30zM75 120h370l5 -5v-130l-5 -5h-370l-5 5v130z" />
    <glyph glyph-name="Euro" unicode="&#x20ac;" horiz-adv-x="810" 
d="M750 495l-5 -5q-95 80 -235 80q-71 0 -126.5 -42t-77.5 -108h299l5 -5v-130l-5 -5h-299q22 -66 77.5 -108t126.5 -42q140 0 235 80l5 -5v-155q-90 -65 -240 -65q-134 0 -236 84t-127 211h-142l-5 5l110 130l10 5h27q25 127 127 211t236 84q150 0 240 -65v-155z" />
    <glyph glyph-name="uni20AE" unicode="&#x20ae;" horiz-adv-x="520" 
d="M35 700h450l5 -5v-130l-5 -5h-155v-70l66 36l7 -2l45 -73l-2 -7l-116 -74v-70l66 36l7 -2l45 -73l-2 -7l-116 -74v-175l-5 -5h-130l-5 5v100l-66 -41l-7 2l-45 83l2 7l116 69v70l-66 -41l-7 2l-45 83l2 7l116 69v145h-155l-5 5v130z" />
    <glyph glyph-name="uni20B1" unicode="&#x20b1;" horiz-adv-x="520" 
d="M45 700h175q92 0 154.5 -43t84.5 -112h46l5 -5v-130l-5 -5h-46q-22 -69 -84.5 -112t-154.5 -43h-40v-245l-5 -5h-130l-5 5v400h-55l-5 5v130l5 5h55v150zM180 560v-170h30q105 0 105 85t-105 85h-30z" />
    <glyph glyph-name="uni20B2" unicode="&#x20b2;" horiz-adv-x="520" 
d="M247 800h110l5 -5v-87q55 -12 98 -48v-145l-5 -5q-74 65 -155 65q-57 0 -93.5 -56t-36.5 -169t36.5 -169t93.5 -56q39 0 60 9v141h-65l-5 5v130l5 5h200l5 -5v-360q-53 -42 -138 -58v-87l-5 -5h-110l-5 5v86q-101 23 -161.5 119t-60.5 240t60.5 240t161.5 119v86z" />
    <glyph glyph-name="uni20B4" unicode="&#x20b4;" horiz-adv-x="520" 
d="M158 515l-108 80q88 120 215 120q89 0 147 -59t58 -146q0 -55 -30 -85h65l5 -5v-130l-5 -5h-245q-70 -37 -70 -75q0 -80 75 -80t120 87h10l115 -77q-33 -74 -99 -114.5t-146 -40.5q-99 0 -162 66t-63 159q0 42 15 75h-50l-5 5v130l5 5h230q43 22 64 41t21 44q0 60 -55 60
q-38 0 -97 -55h-10z" />
    <glyph glyph-name="uni20B5" unicode="&#x20b5;" horiz-adv-x="520" 
d="M267 800h110l5 -5v-87q55 -12 98 -48v-145l-5 -5q-49 42 -93 56v-433q45 14 93 57l5 -5v-145q-40 -35 -98 -48v-87l-5 -5h-110l-5 5v86q-101 23 -161.5 119t-60.5 240t60.5 240t161.5 119v86zM262 143v414q-72 -50 -72 -207t72 -207z" />
    <glyph glyph-name="uni2116" unicode="&#x2116;" horiz-adv-x="1000" 
d="M85 700h145l10 -5l180 -385v385l5 5h130l5 -5v-690l-5 -5h-145l-10 5l-180 385v-385l-5 -5h-130l-5 5v690zM795 605q68 0 116.5 -47t48.5 -113t-48.5 -113t-116.5 -47t-116.5 47t-48.5 113t48.5 113t116.5 47zM795 480q-15 0 -25 -10t-10 -25t10 -25t25 -10t25 10t10 25
t-10 25t-25 10zM655 235h290l5 -5v-130l-5 -5h-290l-5 5v130z" />
    <glyph glyph-name="uni2117" unicode="&#x2117;" horiz-adv-x="800" 
d="M395 160h-110l-5 5v360l5 5h130q71 0 118 -36.5t47 -113.5q0 -70 -47.5 -105t-117.5 -35h-15v-75zM400 410v-60h20q35 0 35 30t-35 30h-20zM400 715q148 0 254 -105t106 -260t-106 -260t-254 -105t-254 105t-106 260t106 260t254 105zM400 595q-95 0 -162.5 -70.5
t-67.5 -174.5t67.5 -174.5t162.5 -70.5t162.5 70.5t67.5 174.5t-67.5 174.5t-162.5 70.5z" />
    <glyph glyph-name="trademark" unicode="&#x2122;" horiz-adv-x="1020" 
d="M35 700h350l5 -5v-130l-5 -5h-105v-235l-5 -5h-130l-5 5v235h-105l-5 5v130zM465 700h125l10 -5l100 -120l100 120l10 5h125l5 -5v-370l-5 -5h-130l-5 5v160l-95 -115h-10l-95 115v-160l-5 -5h-130l-5 5v370z" />
    <glyph glyph-name="Omega" unicode="&#x2126;" horiz-adv-x="820" 
d="M45 140h70q-75 92 -75 220q0 149 108 252t262 103t262 -103t108 -252q0 -128 -75 -220h70l5 -5v-130l-5 -5h-280l-5 5v130l5 10q70 39 102.5 88.5t32.5 126.5q0 92 -64 151t-156 59t-156 -59t-64 -151q0 -77 32.5 -126.5t102.5 -88.5l5 -10v-130l-5 -5h-280l-5 5v130z
" />
    <glyph glyph-name="uni212E" unicode="&#x212e;" horiz-adv-x="790" 
d="M655 205v-160q-97 -60 -245 -60q-156 0 -263 107t-107 258q0 150 108.5 257.5t261.5 107.5q46 0 93 -13t91.5 -42t79 -70t55.5 -102t21 -133q0 -35 -5 -65l-10 -5h-530q18 -68 77 -111.5t128 -43.5q145 0 240 80zM205 425h390q-6 51 -56 98t-129 47q-69 0 -125 -38.5
t-80 -106.5z" />
    <glyph glyph-name="onethird" unicode="&#x2153;" horiz-adv-x="800" 
d="M175 705l5 -5v-415l-5 -5h-110l-5 5v315l5 10zM465 700h145l5 -5l-391 -690l-10 -5h-144l-5 5l390 690zM495 420h275l5 -5l-80 -150q80 -44 80 -130q0 -62 -47 -106t-108 -44q-87 0 -135 65l75 85h5q24 -30 55 -30q15 0 25 11t10 29q0 40 -45 40q-30 0 -60 -10l-5 5
l60 120h-110l-5 5v110z" />
    <glyph glyph-name="twothirds" unicode="&#x2154;" horiz-adv-x="800" 
d="M20 545v135q44 35 105 35q56 0 100.5 -42.5t44.5 -107.5q0 -49 -48 -135l-17 -30h60l5 -5v-110l-5 -5h-260l-5 5l117 190q28 49 28 80q0 16 -11 28t-29 12q-28 0 -46 -13.5t-34 -41.5zM515 700h145l5 -5l-391 -690l-10 -5h-144l-5 5l390 690zM515 420h275l5 -5l-80 -150
q80 -44 80 -130q0 -62 -47 -106t-108 -44q-87 0 -135 65l75 85h5q24 -30 55 -30q15 0 25 11t10 29q0 40 -45 40q-30 0 -60 -10l-5 5l60 120h-110l-5 5v110z" />
    <glyph glyph-name="oneeighth" unicode="&#x215b;" horiz-adv-x="800" 
d="M175 705l5 -5v-415l-5 -5h-110l-5 5v315l5 10zM465 700h145l5 -5l-391 -690l-10 -5h-144l-5 5l390 690zM610 435q59 0 99.5 -34.5t40.5 -82.5q0 -57 -50 -93q32 -28 46 -53t14 -62q0 -51 -42.5 -88t-107.5 -37t-107.5 37t-42.5 88q0 37 14 62t46 53q-50 36 -50 93
q0 48 40.5 82.5t99.5 34.5zM610 279q20 22 20 36q0 20 -20 20t-20 -20q0 -14 20 -36zM610 175q-30 -23 -30 -55q0 -15 9 -25t21 -10t21 10t9 25q0 32 -30 55z" />
    <glyph glyph-name="threeeighths" unicode="&#x215c;" horiz-adv-x="800" 
d="M35 700h275l5 -5l-80 -150q80 -44 80 -130q0 -62 -47 -106t-108 -44q-87 0 -135 65l75 85h5q24 -30 55 -30q15 0 25 11t10 29q0 40 -45 40q-30 0 -60 -10l-5 5l60 120h-110l-5 5v110zM525 700h145l5 -5l-391 -690l-10 -5h-144l-5 5l390 690zM630 435q59 0 99.5 -34.5
t40.5 -82.5q0 -57 -50 -93q32 -28 46 -53t14 -62q0 -51 -42.5 -88t-107.5 -37t-107.5 37t-42.5 88q0 37 14 62t46 53q-50 36 -50 93q0 48 40.5 82.5t99.5 34.5zM630 279q20 22 20 36q0 20 -20 20t-20 -20q0 -14 20 -36zM630 175q-30 -23 -30 -55q0 -15 9 -25t21 -10t21 10
t9 25q0 32 -30 55z" />
    <glyph glyph-name="fiveeighths" unicode="&#x215d;" horiz-adv-x="800" 
d="M105 700h205l5 -5l-62 -115h-60l-3 -20q59 -13 92 -46t33 -99q0 -62 -47 -106t-108 -44q-87 0 -135 65l75 85h5q24 -30 55 -30q15 0 25 11t10 29q0 40 -45 40q-30 0 -75 -15l-5 5l30 240zM525 700h145l5 -5l-391 -690l-10 -5h-144l-5 5l390 690zM630 435q59 0 99.5 -34.5
t40.5 -82.5q0 -57 -50 -93q32 -28 46 -53t14 -62q0 -51 -42.5 -88t-107.5 -37t-107.5 37t-42.5 88q0 37 14 62t46 53q-50 36 -50 93q0 48 40.5 82.5t99.5 34.5zM630 279q20 22 20 36q0 20 -20 20t-20 -20q0 -14 20 -36zM630 175q-30 -23 -30 -55q0 -15 9 -25t21 -10t21 10
t9 25q0 32 -30 55z" />
    <glyph glyph-name="seveneighths" unicode="&#x215e;" horiz-adv-x="800" 
d="M45 700h330l5 -5l-200 -410l-10 -5h-125l-5 5l150 295h-145l-5 5v110zM485 700h145l5 -5l-391 -690l-10 -5h-144l-5 5l390 690zM630 435q59 0 99.5 -34.5t40.5 -82.5q0 -57 -50 -93q32 -28 46 -53t14 -62q0 -51 -42.5 -88t-107.5 -37t-107.5 37t-42.5 88q0 37 14 62
t46 53q-50 36 -50 93q0 48 40.5 82.5t99.5 34.5zM630 279q20 22 20 36q0 20 -20 20t-20 -20q0 -14 20 -36zM630 175q-30 -23 -30 -55q0 -15 9 -25t21 -10t21 10t9 25q0 32 -30 55z" />
    <glyph glyph-name="uni215F" unicode="&#x215f;" horiz-adv-x="360" 
d="M175 705l5 -5v-415l-5 -5h-110l-5 5v315l5 10zM465 700h145l5 -5l-391 -690l-10 -5h-144l-5 5l390 690z" />
    <glyph glyph-name="uni2190" unicode="&#x2190;" horiz-adv-x="700" 
d="M370 700h195l5 -5l-275 -275h380l5 -5v-130l-5 -5h-380l275 -275l-5 -5h-195l-10 5l-340 340v10l340 340z" />
    <glyph glyph-name="uni2191" unicode="&#x2191;" horiz-adv-x="700" 
d="M345 680h10l340 -340l5 -10v-195l-5 -5l-275 275v-380l-5 -5h-130l-5 5v380l-275 -275l-5 5v195l5 10z" />
    <glyph glyph-name="uni2192" unicode="&#x2192;" horiz-adv-x="700" 
d="M135 700h195l10 -5l340 -340v-10l-340 -340l-10 -5h-195l-5 5l275 275h-380l-5 5v130l5 5h380l-275 275z" />
    <glyph glyph-name="uni2193" unicode="&#x2193;" horiz-adv-x="700" 
d="M285 680h130l5 -5v-380l275 275l5 -5v-195l-5 -10l-340 -340h-10l-340 340l-5 10v195l5 5l275 -275v380z" />
    <glyph glyph-name="arrowboth" unicode="&#x2194;" horiz-adv-x="700" 
d="M130 540h195l5 -5l-115 -115h270l-115 115l5 5h195l10 -5l180 -180v-10l-180 -180l-10 -5h-195l-5 5l115 115h-270l115 -115l-5 -5h-195l-10 5l-180 180v10l180 180z" />
    <glyph glyph-name="arrowupdn" unicode="&#x2195;" horiz-adv-x="700" 
d="M345 760h10l180 -180l5 -10v-195l-5 -5l-115 115v-270l115 115l5 -5v-195l-5 -10l-180 -180h-10l-180 180l-5 10v195l5 5l115 -115v270l-115 -115l-5 5v195l5 10z" />
    <glyph glyph-name="uni2196" unicode="&#x2196;" horiz-adv-x="700" 
d="M40 653l7 7h481l11 -4l137 -138v-7h-388l268 -268v-8l-91 -91h-9l-268 268v-389h-7l-137 138l-4 11v481z" />
    <glyph glyph-name="uni2197" unicode="&#x2197;" horiz-adv-x="700" 
d="M653 660l7 -7v-481l-4 -11l-138 -138h-7v389l-268 -268h-8l-91 91v8l268 268h-389v7l138 138l11 4h481z" />
    <glyph glyph-name="uni2198" unicode="&#x2198;" horiz-adv-x="700" 
d="M660 47l-7 -7h-481l-11 4l-138 137v7h389l-268 268v9l91 91h8l268 -268v388h7l138 -137l4 -11v-481z" />
    <glyph glyph-name="uni2199" unicode="&#x2199;" horiz-adv-x="700" 
d="M47 40l-7 7v481l4 11l137 137h7v-388l268 268h9l91 -91v-9l-268 -268h388v-7l-137 -137l-11 -4h-481z" />
    <glyph glyph-name="Delta" unicode="&#x2206;" horiz-adv-x="700" 
d="M280 700h140l5 -5l230 -538l5 -22v-130l-5 -5h-610l-5 5v130l5 22l230 538zM350 520l-160 -380h320z" />
    <glyph glyph-name="product" unicode="&#x220f;" horiz-adv-x="760" 
d="M85 700h590l5 -5v-820l-5 -5h-130l-5 5v685h-320v-685l-5 -5h-130l-5 5v820z" />
    <glyph glyph-name="summation" unicode="&#x2211;" horiz-adv-x="600" 
d="M85 700h440l5 -5v-130l-5 -5h-258l188 -255v-10l-208 -285h308l5 -5v-130l-5 -5h-490l-5 5v130l5 10l215 285l-195 255l-5 10v130z" />
    <glyph glyph-name="minus" unicode="&#x2212;" horiz-adv-x="520" 
d="M70 435h380l5 -5v-130l-5 -5h-380l-5 5v130z" />
    <glyph glyph-name="uni2215" unicode="&#x2215;" horiz-adv-x="40" 
d="M145 700h145l5 -5l-391 -690l-10 -5h-144l-5 5l390 690z" />
    <glyph glyph-name="uni2219" unicode="&#x2219;" horiz-adv-x="260" 
d="M65 460h130l5 -5v-130l-5 -5h-130l-5 5v130z" />
    <glyph glyph-name="infinity" unicode="&#x221e;" horiz-adv-x="710" 
d="M40 365q0 68 46.5 116.5t113.5 48.5q41 0 70.5 -12.5t59.5 -42.5q36 46 71.5 63t83.5 17q76 0 130.5 -56t54.5 -134q0 -79 -54.5 -134.5t-130.5 -55.5q-48 0 -83.5 17t-71.5 63q-30 -30 -59.5 -42.5t-70.5 -12.5q-67 0 -113.5 48t-46.5 117zM260 365q-25 25 -50 25
t-25 -25t25 -25t50 25zM400 365l12 -12t10.5 -11t8.5 -8t9 -7t8.5 -5t9.5 -4t9.5 -2t12.5 -1q19 0 32 14.5t13 35.5q0 20 -13 35t-32 15q-7 0 -12.5 -1t-9.5 -2t-9.5 -4t-8.5 -5t-9 -7t-8.5 -8t-10.5 -11z" />
    <glyph glyph-name="integral" unicode="&#x222b;" horiz-adv-x="380" 
d="M340 555l-5 -5q-38 32 -85 32q-65 0 -65 -92q0 -41 25 -106t55 -124t55 -133.5t25 -131.5q0 -107 -52.5 -166t-152.5 -59q-50 0 -90 20v140l5 5q38 -32 85 -32q65 0 65 92q0 41 -25 106t-55 124t-55 133.5t-25 131.5q0 107 52.5 166t152.5 59q50 0 90 -20v-140z" />
    <glyph glyph-name="approxequal" unicode="&#x2248;" horiz-adv-x="520" 
d="M467 527l5 -5q-55 -137 -147 -137q-29 0 -93.5 18.5t-124.5 18.5q-25 0 -55 -20l-5 5q58 138 148 138q28 0 92.5 -19t124.5 -19q25 0 55 20zM467 327l5 -5q-55 -137 -147 -137q-29 0 -93.5 18.5t-124.5 18.5q-25 0 -55 -20l-5 5q58 138 148 138q28 0 92.5 -19t124.5 -19
q25 0 55 20z" />
    <glyph glyph-name="notequal" unicode="&#x2260;" horiz-adv-x="520" 
d="M70 535h182l35 95l10 5h148l5 -5l-35 -95h35l5 -5v-130l-5 -5h-91l-27 -60h118l5 -5v-130l-5 -5h-180l-35 -95l-10 -5h-148l-5 5l35 95h-37l-5 5v130l5 5h95l25 60h-120l-5 5v130z" />
    <glyph glyph-name="lessequal" unicode="&#x2264;" horiz-adv-x="520" 
d="M450 610l5 -5v-145l-5 -5l-210 -70l210 -70l5 -5v-145l-5 -5l-390 162l-5 5v115l5 5zM70 140h380l5 -5v-130l-5 -5h-380l-5 5v130z" />
    <glyph glyph-name="greaterequal" unicode="&#x2265;" horiz-adv-x="520" 
d="M65 605l5 5l390 -163l5 -5v-115l-5 -5l-390 -162l-5 5v145l5 5l210 70l-210 70l-5 5v145zM70 140h380l5 -5v-130l-5 -5h-380l-5 5v130z" />
    <glyph glyph-name="lozenge" unicode="&#x25ca;" horiz-adv-x="520" 
d="M205 600h110l5 -5l150 -290v-10l-150 -290l-5 -5h-110l-5 5l-150 290v10l150 290zM260 450l-65 -150l65 -150l65 150z" />
    <glyph glyph-name="uni2600" unicode="&#x2600;" horiz-adv-x="630" 
d="M250 660h130l5 -5v-50q26 -7 52 -21l38 38h10l87 -87v-10l-38 -38q14 -26 21 -52h50l5 -5v-130l-5 -5h-50q-7 -28 -21 -52l38 -38v-10l-87 -88h-10l-39 38q-24 -13 -51 -21v-49l-5 -5h-130l-5 5v49q-28 7 -52 21l-38 -38h-10l-88 88v10l38 38q-14 24 -21 52h-49l-5 5v130
l5 5h49q8 27 21 51l-38 39v10l88 87h10l38 -38q24 14 52 21v50zM315 480q-48 0 -79 -33t-31 -82t31 -82t79 -33t79 33t31 82t-31 82t-79 33z" />
    <glyph glyph-name="uni2601" unicode="&#x2601;" horiz-adv-x="820" 
d="M540 120h-280q-93 0 -156.5 57.5t-63.5 152.5q0 92 55 151t135 59q57 0 99.5 -30t51.5 -70q6 49 52.5 94.5t126.5 45.5q89 0 154.5 -61.5t65.5 -168.5q0 -29 -6.5 -58.5t-23.5 -61t-43 -55.5t-69.5 -39.5t-97.5 -15.5zM265 260h275q51 0 75.5 24t24.5 66q0 39 -22.5 67
t-67.5 28q-39 0 -67 -31.5t-28 -73.5v-25l-5 -5h-110l-5 5v15q0 33 -24.5 54t-60.5 21q-35 0 -52.5 -21.5t-17.5 -53.5q0 -70 85 -70z" />
    <glyph glyph-name="uni2639" unicode="&#x2639;" horiz-adv-x="840" 
d="M255 455l70 70h10l70 -70v-10l-70 -70h-10l-70 70v10zM435 455l70 70h10l70 -70v-10l-70 -70h-10l-70 70v10zM420 715q148 0 254 -105t106 -260t-106 -260t-254 -105t-254 105t-106 260t106 260t254 105zM420 597q-94 0 -161.5 -72.5t-67.5 -174.5q0 -103 67.5 -175.5
t161.5 -72.5t161 72.5t67 175.5q0 102 -67 174.5t-161 72.5zM465 180h122l5 5q-7 86 -57.5 123t-114.5 37q-29 0 -56 -7.5t-53 -24.5t-43.5 -50t-20.5 -78l5 -5h123l5 5q-4 15 8.5 25t31.5 10t31.5 -10t8.5 -25z" />
    <glyph glyph-name="smileface" unicode="&#x263a;" horiz-adv-x="840" 
d="M420 715q148 0 254 -105t106 -260t-106 -260t-254 -105t-254 105t-106 260t106 260t254 105zM420 597q-94 0 -161.5 -72.5t-67.5 -174.5q0 -103 67.5 -175.5t161.5 -72.5t161 72.5t67 175.5q0 102 -67 174.5t-161 72.5zM325 525h10l70 -70v-10l-70 -70h-10l-70 70v10z
M505 525h10l70 -70v-10l-70 -70h-10l-70 70v10zM252 325h123l5 -5q-4 -15 8.5 -25t31.5 -10t31.5 10t8.5 25l5 5h122l5 -5q-3 -46 -20 -79t-43 -49.5t-53 -24t-56 -7.5t-55.5 7.5t-53 24t-43.5 49.5t-21 79z" />
    <glyph glyph-name="invsmileface" unicode="&#x263b;" horiz-adv-x="840" 
d="M420 715q148 0 254 -105t106 -260t-106 -260t-254 -105t-254 105t-106 260t106 260t254 105zM325 525h-10l-70 -70v-10l70 -70h10l70 70v10zM525 525h-10l-70 -70v-10l70 -70h10l70 70v10zM375 305h-123l-5 -5q4 -46 21 -79t43.5 -49.5t53 -24t55.5 -7.5t56 7.5t53 24
t43 49.5t20 79l-5 5h-122l-5 -5q4 -15 -8.5 -25t-31.5 -10t-31.5 10t-8.5 25z" />
    <glyph glyph-name="sun" unicode="&#x263c;" horiz-adv-x="630" 
d="M250 660h130l5 -5v-50q26 -7 52 -21l38 38h10l87 -87v-10l-38 -38q14 -26 21 -52h50l5 -5v-130l-5 -5h-50q-7 -28 -21 -52l38 -38v-10l-87 -88h-10l-39 38q-24 -13 -51 -21v-49l-5 -5h-130l-5 5v49q-28 7 -52 21l-38 -38h-10l-88 88v10l38 38q-14 24 -21 52h-49l-5 5v130
l5 5h49q8 27 21 51l-38 39v10l88 87h10l38 -38q24 14 52 21v50zM315 480q-48 0 -79 -33t-31 -82t31 -82t79 -33t79 33t31 82t-31 82t-79 33z" />
    <glyph glyph-name="female" unicode="&#x2640;" horiz-adv-x="660" 
d="M265 -110l-5 6v94h-100l-5 5v130l5 5h100v54q-87 24 -143.5 96t-56.5 165q0 112 79 191t191 79t191 -79t79 -191q0 -93 -56.5 -165t-143.5 -96v-54h100l5 -5v-130l-5 -5h-100v-95l-5 -5h-130zM330 580q-54 0 -92 -39.5t-38 -95.5t38 -95.5t92 -39.5t92 39.5t38 95.5
t-38 95.5t-92 39.5z" />
    <glyph glyph-name="male" unicode="&#x2642;" horiz-adv-x="790" 
d="M330 390q-54 0 -92 -39.5t-38 -95.5t38 -95.5t92 -39.5t92 39.5t38 95.5t-38 95.5t-92 39.5zM700 675l50 -50v-221l-9 -4h-116v60l-63 -68q38 -63 38 -137q0 -112 -79 -191t-191 -79t-191 79t-79 191t79 191t191 79q68 0 131 -34l74 74h-60v104l5 6h220z" />
    <glyph glyph-name="uni265A" unicode="&#x265a;" horiz-adv-x="810" 
d="M360 485h90v-65q95 120 205 120q41 0 73 -24.5t32 -75.5q0 -17 -2.5 -39t-8.5 -55t-10 -54t-14.5 -69.5t-14.5 -67.5l-35 -155h-540l-35 155q-4 19 -14.5 67.5t-14.5 69.5t-10 54t-8.5 55t-2.5 39q0 51 32 75.5t73 24.5q110 0 205 -120v65zM360 195v90q-52 155 -141 155
q-30 0 -52 -17t-22 -43q0 -32 4 -60.5t14 -70.5t12 -54h185zM450 285v-90h185q2 12 12 54t14 70.5t4 60.5q0 26 -22 43t-53 17q-88 0 -140 -155zM405 595q21 0 35.5 -14.5t14.5 -35.5t-14.5 -35.5t-35.5 -14.5t-35.5 14.5t-14.5 35.5t14.5 35.5t35.5 14.5zM405 120
q-11 0 -18 -7t-7 -18t7 -18t18 -7t18 7t7 18t-7 18t-18 7zM265 120q-11 0 -18 -7t-7 -18t7 -18t18 -7t18 7t7 18t-7 18t-18 7zM545 120q-11 0 -18 -7t-7 -18t7 -18t18 -7t18 7t7 18t-7 18t-18 7zM350 700h110l-2 -100h-106z" />
    <glyph glyph-name="uni278A" unicode="&#x278a;" horiz-adv-x="800" 
d="M400 715q145 0 247.5 -107t102.5 -258t-102.5 -258t-247.5 -107t-247.5 107t-102.5 258t102.5 258t247.5 107zM460 560l-5 5l-110 -95l-5 -10v-315l5 -5h110l5 5v415z" />
    <glyph glyph-name="uni278B" unicode="&#x278b;" horiz-adv-x="800" 
d="M400 715q145 0 247.5 -107t102.5 -258t-102.5 -258t-247.5 -107t-247.5 107t-102.5 258t102.5 258t247.5 107zM290 405l5 -5q16 28 34 41.5t46 13.5q18 0 29 -12t11 -28q0 -31 -28 -80q-9 -15 -46 -75t-71 -115l5 -5h260l5 5v110l-5 5h-60l17 30q48 86 48 135
q0 65 -44.5 107.5t-100.5 42.5q-61 0 -105 -35v-135z" />
    <glyph glyph-name="uni278C" unicode="&#x278c;" horiz-adv-x="800" 
d="M400 715q145 0 247.5 -107t102.5 -258t-102.5 -258t-247.5 -107t-247.5 107t-102.5 258t102.5 258t247.5 107zM265 560l-5 -5v-110l5 -5h110l-60 -120l5 -5q30 10 60 10q45 0 45 -40q0 -18 -10 -29t-25 -11q-31 0 -55 30h-5l-75 -85q48 -65 135 -65q61 0 108 44t47 106
q0 86 -80 130l80 150l-5 5h-275z" />
    <glyph glyph-name="uni278D" unicode="&#x278d;" horiz-adv-x="800" 
d="M400 715q145 0 247.5 -107t102.5 -258t-102.5 -258t-247.5 -107t-247.5 107t-102.5 258t102.5 258t247.5 107zM505 590l-315 -380l5 -5h215v-60l5 -5h90l5 5v60h55l5 5v90l-5 5h-55v280zM410 380v-75h-60z" />
    <glyph glyph-name="uni278E" unicode="&#x278e;" horiz-adv-x="800" 
d="M400 715q145 0 247.5 -107t102.5 -258t-102.5 -258t-247.5 -107t-247.5 107t-102.5 258t102.5 258t247.5 107zM335 560l-5 -5l-30 -240l5 -5q45 15 75 15q45 0 45 -40q0 -18 -10 -29t-25 -11q-31 0 -55 30h-5l-75 -85q48 -65 135 -65q61 0 108 44t47 106q0 66 -33 99
t-92 46l3 20h60l62 115l-5 5h-205z" />
    <glyph glyph-name="uni278F" unicode="&#x278f;" horiz-adv-x="800" 
d="M400 715q145 0 247.5 -107t102.5 -258t-102.5 -258t-247.5 -107t-247.5 107t-102.5 258t102.5 258t247.5 107zM525 555l-5 5h-145q-135 -118 -135 -257q0 -86 49.5 -132t114.5 -46q64 0 110 41t46 109q0 70 -42.5 107.5t-97.5 37.5q-10 0 -25 -5q7 14 17.5 28.5t27.5 32
t25.5 25.5t32.5 29.5t27 24.5zM360 301q23 19 44 19q16 0 26 -10t10 -25q0 -18 -10 -29t-25 -11q-19 0 -32 14.5t-13 38.5v3z" />
    <glyph glyph-name="uni2790" unicode="&#x2790;" horiz-adv-x="800" 
d="M400 715q145 0 247.5 -107t102.5 -258t-102.5 -258t-247.5 -107t-247.5 107t-102.5 258t102.5 258t247.5 107zM270 560l-5 -5v-110l5 -5h145l-150 -295l5 -5h125l10 5l200 410l-5 5h-330z" />
    <glyph glyph-name="uni2791" unicode="&#x2791;" horiz-adv-x="800" 
d="M400 715q145 0 247.5 -107t102.5 -258t-102.5 -258t-247.5 -107t-247.5 107t-102.5 258t102.5 258t247.5 107zM400 575q-59 0 -99.5 -34.5t-40.5 -82.5q0 -57 50 -93q-32 -28 -46 -53t-14 -62q0 -51 42.5 -88t107.5 -37t107.5 37t42.5 88q0 37 -14 62t-46 53q50 36 50 93
q0 48 -40.5 82.5t-99.5 34.5zM400 419q-20 22 -20 36q0 20 20 20t20 -20q0 -14 -20 -36zM400 315q30 -23 30 -55q0 -15 -9 -25t-21 -10t-21 10t-9 25q0 32 30 55z" />
    <glyph glyph-name="uni2792" unicode="&#x2792;" horiz-adv-x="800" 
d="M400 715q145 0 247.5 -107t102.5 -258t-102.5 -258t-247.5 -107t-247.5 107t-102.5 258t102.5 258t247.5 107zM275 145l5 -5h145q135 118 135 257q0 86 -49.5 132t-114.5 46q-64 0 -110 -41t-46 -109q0 -70 42.5 -107.5t97.5 -37.5q10 0 25 5q-7 -14 -17.5 -28.5
t-27.5 -32t-25.5 -25.5t-32.5 -29.5t-27 -24.5zM440 399q-23 -19 -44 -19q-16 0 -26 10t-10 25q0 18 10 29t25 11q19 0 32 -14.5t13 -38.5v-3z" />
    <glyph glyph-name="uni2793" unicode="&#x2793;" horiz-adv-x="800" 
d="M400 715q145 0 247.5 -107t102.5 -258t-102.5 -258t-247.5 -107t-247.5 107t-102.5 258t102.5 258t247.5 107zM495 575q-78 0 -126.5 -63.5t-48.5 -161.5t48.5 -161.5t126.5 -63.5t126.5 63.5t48.5 161.5t-48.5 161.5t-126.5 63.5zM495 455q50 0 50 -105t-50 -105
t-50 105t50 105zM280 560l-5 5l-110 -95l-5 -10v-315l5 -5h110l5 5v415z" />
    <glyph glyph-name="fi" unicode="&#xfb01;" horiz-adv-x="700" 
d="M25 470h75v10q0 107 58.5 171t161.5 64q54 0 100 -20v-140l-5 -5q-41 30 -83 30q-92 0 -92 -105v-5h175l5 -5v-130l-5 -5h-175v-325l-5 -5h-130l-5 5v325h-75l-5 5v131zM505 470h130l5 -5v-460l-5 -5h-130l-5 5v460zM565 705h10l90 -90v-10l-90 -90h-10l-90 90v10z" />
    <glyph glyph-name="fl" unicode="&#xfb02;" horiz-adv-x="800" 
d="M25 470h75v10q0 107 58.5 171t161.5 64q54 0 100 -20v-140l-5 -5q-41 30 -83 30q-92 0 -92 -105v-5h175l5 -5v-130l-5 -5h-175v-325l-5 -5h-130l-5 5v325h-75l-5 5v131zM495 700h130l5 -5v-505q0 -33 16.5 -51.5t43.5 -18.5q55 0 95 40l5 -5v-140q-50 -30 -105 -30
q-95 0 -145 53t-50 142v515z" />
    <glyph glyph-name="CR" horiz-adv-x="0" 
 />
    <glyph glyph-name="slash.a" horiz-adv-x="40" 
d="M145 700h145l5 -5l-391 -690l-10 -5h-144l-5 5l390 690z" />
    <glyph glyph-name="paragraph.C" horiz-adv-x="740" 
d="M420 700h255l5 -5v-690l-5 -5h-255q-160 0 -265 101t-105 249t105 249t265 101zM540 140v420h-60v-420h60z" />
    <glyph glyph-name="uni2190.a" horiz-adv-x="800" 
d="M505 540h-175l-10 -5l-180 -180v-10l180 -180l10 -5h175l5 5l-115 115h240l5 5v130l-5 5h-240l115 115zM400 715q145 0 247.5 -107t102.5 -258t-102.5 -258t-247.5 -107t-247.5 107t-102.5 258t102.5 258t247.5 107z" />
    <glyph glyph-name="uni2191.a" horiz-adv-x="800" 
d="M590 245v175l-5 10l-180 180h-10l-180 -180l-5 -10v-175l5 -5l115 115v-240l5 -5h130l5 5v240l115 -115zM400 715q145 0 247.5 -107t102.5 -258t-102.5 -258t-247.5 -107t-247.5 107t-102.5 258t102.5 258t247.5 107z" />
    <glyph glyph-name="uni2192.a" horiz-adv-x="800" 
d="M295 160h175l10 5l180 180v10l-180 180l-10 5h-175l-5 -5l115 -115h-240l-5 -5v-130l5 -5h240l-115 -115zM400 715q145 0 247.5 -107t102.5 -258t-102.5 -258t-247.5 -107t-247.5 107t-102.5 258t102.5 258t247.5 107z" />
    <glyph glyph-name="uni2193.a" horiz-adv-x="800" 
d="M210 455v-175l5 -10l180 -180h10l180 180l5 10v175l-5 5l-115 -115v240l-5 5h-130l-5 -5v-240l-115 115zM400 715q145 0 247.5 -107t102.5 -258t-102.5 -258t-247.5 -107t-247.5 107t-102.5 258t102.5 258t247.5 107z" />
    <glyph glyph-name="uni2196.a" horiz-adv-x="800" 
d="M609 410l-124 124l-11 3h-254l-7 -7v-254l3 -11l124 -124h7v163l170 -170h7l92 92v7l-170 170h163v7zM400 715q145 0 247.5 -107t102.5 -258t-102.5 -258t-247.5 -107t-247.5 107t-102.5 258t102.5 258t247.5 107z" />
    <glyph glyph-name="uni2197.a" horiz-adv-x="800" 
d="M460 141l124 124l3 11v254l-7 7h-254l-11 -3l-124 -124v-7h163l-170 -170v-7l92 -92h7l170 170v-163h7zM400 715q145 0 247.5 -107t102.5 -258t-102.5 -258t-247.5 -107t-247.5 107t-102.5 258t102.5 258t247.5 107z" />
    <glyph glyph-name="uni2198.a" horiz-adv-x="800" 
d="M191 290l124 -124l11 -3h254l7 7v254l-3 11l-124 124h-7v-163l-170 170h-7l-92 -92v-7l170 -170h-163v-7zM400 715q145 0 247.5 -107t102.5 -258t-102.5 -258t-247.5 -107t-247.5 107t-102.5 258t102.5 258t247.5 107z" />
    <glyph glyph-name="uni2199.a" horiz-adv-x="800" 
d="M340 559l-124 -124l-3 -11v-254l7 -7h254l11 3l124 124v7h-163l170 170v7l-92 92h-7l-170 -170v163h-7zM400 715q145 0 247.5 -107t102.5 -258t-102.5 -258t-247.5 -107t-247.5 107t-102.5 258t102.5 258t247.5 107z" />
    <glyph glyph-name="uni2600_uni2601" horiz-adv-x="1105" 
d="M250 680h130l5 -5v-50q26 -7 52 -21l38 38h10l87 -87v-10l-19 -19q45 -7 75.5 -31t37.5 -55q6 49 52.5 94.5t126.5 45.5q89 0 154.5 -61.5t65.5 -168.5q0 -29 -6.5 -58.5t-23.5 -61t-43 -55.5t-69.5 -39.5t-97.5 -15.5h-280q-73 0 -128 35q-25 -9 -32 -11v-49l-5 -5h-130
l-5 5v49q-28 7 -52 21l-38 -38h-10l-88 88v10l38 38q-14 24 -21 52h-49l-5 5v130l5 5h49q8 27 21 51l-38 39v10l88 87h10l38 -38q24 14 52 21v50zM315 500q-48 0 -79 -33t-31 -82t31 -82t79 -33q12 0 17 1q-7 25 -7 59q0 93 57 148q-28 22 -67 22zM550 260h275q51 0 75.5 24
t24.5 66q0 39 -22.5 67t-67.5 28q-39 0 -67 -31.5t-28 -73.5v-25l-5 -5h-110l-5 5v15q0 33 -24.5 54t-60.5 21q-35 0 -52.5 -21.5t-17.5 -53.5q0 -70 85 -70z" />
    <glyph glyph-name="uni2601.001" horiz-adv-x="820" 
d="M-1 36l90 156q-49 55 -49 138q0 92 55 151t135 59q57 0 99.5 -30t51.5 -70q6 49 52.5 94.5t126.5 45.5q89 0 154.5 -61.5t65.5 -168.5q0 -75 -63 -182l-116 -202l-7 -2l-113 65l-2 7l48 84h-77l-89 -154l-7 -2l-113 65l-2 7l48 84h-27q-27 0 -48 4l-91 -158l-7 -2
l-113 65zM265 260h244q70 0 100.5 20t30.5 70q0 39 -22.5 67t-67.5 28q-39 0 -67 -31.5t-28 -73.5v-25l-5 -5h-110l-5 5v15q0 33 -24.5 54t-60.5 21q-35 0 -52.5 -21.5t-17.5 -53.5q0 -70 85 -70z" />
    <glyph glyph-name="uni265A.a" horiz-adv-x="760" 
d="M360 485h45v-290h312l-7 -40h-610q-4 19 -14.5 67.5t-14.5 69.5t-10 54t-8.5 55t-2.5 39q0 51 32 75.5t73 24.5q110 0 205 -120v65zM145 380q0 -32 4 -60.5t14 -70.5t12 -54h185v90q-52 155 -140 155q-31 0 -53 -17t-22 -43zM125 40h560l-10 -40h-540zM350 700h25l30 -40
l30 40h25l-40 -50l38 -50h-23l-30 35l-30 -35h-23l38 50zM405 595v-100q-21 0 -35.5 14.5t-14.5 35.5t14.5 35.5t35.5 14.5z" />
    <glyph glyph-name="uni265A.b" horiz-adv-x="760" 
d="M660 155l-25 -115h-560l-25 115h610zM667 195h-82q2 12 12 54t14 70.5t4 60.5q0 26 -22 43t-53 17q-88 0 -140 -155v-90h-45v290h45v-65q95 120 205 120q41 0 73 -24.5t32 -75.5q0 -76 -43 -245zM405 545q0 -21 -14.5 -35.5t-35.5 -14.5v100q21 0 35.5 -14.5t14.5 -35.5z
M470 95q0 -11 7 -18t18 -7t18 7t7 18t-7 18t-18 7t-18 -7t-7 -18zM190 95q0 -11 7 -18t18 -7t18 7t7 18t-7 18t-18 7t-18 -7t-7 -18zM330 95q0 -11 7 -18t18 -7t18 7t7 18t-7 18t-18 7t-18 -7t-7 -18zM300 700l40 -50l-38 -50zM410 700l-2 -100l-38 50zM325 700h60l-30 -40z
M355 635l30 -35h-60z" />
    <glyph glyph-name="zero.o" 
d="M290 485q104 0 177 -73.5t73 -176.5t-73 -176.5t-177 -73.5t-177 73.5t-73 176.5t73 176.5t177 73.5zM290 345q-41 0 -70.5 -32t-29.5 -78t29.5 -78t70.5 -32t70.5 32t29.5 78t-29.5 78t-70.5 32z" />
    <glyph glyph-name="one.o" horiz-adv-x="260" 
d="M195 475l5 -5v-465l-5 -5h-130l-5 5v352l5 10z" />
    <glyph glyph-name="two.o" horiz-adv-x="480" 
d="M40 270v155q67 60 142 60q88 0 145.5 -51.5t57.5 -133.5q0 -37 -12 -64.5t-58 -80.5l-15 -15h115l5 -5v-130l-5 -5h-400l-5 5l180 205q1 1 12.5 15t17 22t12 23.5t6.5 29.5q0 19 -14.5 32t-41.5 13q-35 0 -65 -19t-72 -61z" />
    <glyph glyph-name="three.o" horiz-adv-x="540" 
d="M25 470h435l5 -5l-125 -255q160 -58 160 -205q0 -109 -73.5 -179.5t-186.5 -70.5q-71 0 -131.5 42.5t-88.5 102.5l100 90h10q9 -33 39.5 -64t70.5 -31q46 0 78 31t32 79q0 47 -36.5 78.5t-83.5 31.5q-48 0 -95 -20l-5 5l117 230h-222l-5 5v130z" />
    <glyph glyph-name="four.o" horiz-adv-x="560" 
d="M435 495l5 -5v-350h95l5 -5v-130l-5 -5h-95v-225l-5 -5h-130l-5 5v225h-295l-5 5zM300 210l-55 -70h55v70z" />
    <glyph glyph-name="five.o" horiz-adv-x="540" 
d="M140 470h355l5 -5l-85 -135h-150l-5 -100q94 8 167 -57t73 -173q0 -101 -75 -173t-180 -72q-142 0 -215 110l85 110h10q51 -80 120 -80q42 0 73.5 30.5t31.5 74.5q0 48 -33 80t-82 32q-36 0 -59 -6t-66 -26l-5 5l30 380z" />
    <glyph glyph-name="six.o" horiz-adv-x="550" 
d="M472 700l5 -5q-71 -52 -137.5 -124t-106.5 -146q37 10 67 10q90 0 155 -65t65 -155q0 -97 -66 -163.5t-164 -66.5q-45 0 -88 17t-80 50t-59.5 89.5t-22.5 128.5q0 119 79.5 240.5t170.5 189.5h182zM185 250q4 -63 33.5 -94t71.5 -31q34 0 57 26t23 64q0 34 -23 57t-57 23
q-60 0 -105 -45z" />
    <glyph glyph-name="seven.o" horiz-adv-x="520" 
d="M35 470h480l5 -5l-290 -690l-10 -5h-155l-5 5l230 555h-255l-5 5v130z" />
    <glyph glyph-name="eight.o" horiz-adv-x="540" 
d="M270 715q81 0 140.5 -52.5t59.5 -132.5q0 -91 -85 -145q115 -80 115 -185q0 -89 -68 -152t-162 -63t-162 63t-68 152q0 105 115 185q-85 54 -85 145q0 80 59.5 132.5t140.5 52.5zM270 450q50 33 50 80q0 19 -14 32t-36 13t-36 -13t-14 -32q0 -47 50 -80zM270 320
q-28 -24 -39 -34t-26 -35.5t-15 -50.5q0 -30 23.5 -52.5t56.5 -22.5t56.5 22.5t23.5 52.5q0 25 -15 50.5t-26 35.5t-39 34z" />
    <glyph glyph-name="nine.o" horiz-adv-x="550" 
d="M78 -230l-5 5q71 52 137.5 124t106.5 146q-37 -10 -67 -10q-90 0 -155 65t-65 155q0 97 66 163.5t164 66.5q45 0 88 -17t80 -50t59.5 -89.5t22.5 -128.5q0 -119 -79.5 -240.5t-170.5 -189.5h-182zM365 220q-4 63 -33.5 94t-71.5 31q-34 0 -57 -26t-23 -64q0 -34 23 -57
t57 -23q60 0 105 45z" />
    <glyph glyph-name="zero.t" horiz-adv-x="520" 
d="M260 715q109 0 167 -102.5t58 -262.5t-58 -262.5t-167 -102.5q-110 0 -167.5 102.5t-57.5 262.5t57.5 262.5t167.5 102.5zM260 575q-41 0 -60 -63t-19 -162q0 -100 19 -162.5t60 -62.5q40 0 59 62.5t19 162.5q0 99 -19 162t-59 63z" />
    <glyph glyph-name="one.t" horiz-adv-x="520" 
d="M305 705l5 -5v-695l-5 -5h-130l-5 5v582l5 10z" />
    <glyph glyph-name="two.t" horiz-adv-x="520" 
d="M50 445v185q81 85 180 85q96 0 158 -61t62 -149q0 -16 -2.5 -32t-4.5 -28t-9.5 -30t-10.5 -26.5t-13.5 -29t-13.5 -25.5t-16 -28t-15 -26l-80 -140h170l5 -5v-130l-5 -5h-405l-5 5l185 320q36 64 53 103.5t17 76.5q0 29 -21 49.5t-49 20.5q-89 0 -175 -135z" />
    <glyph glyph-name="three.t" horiz-adv-x="520" 
d="M15 700h435l5 -5l-125 -255q160 -58 160 -205q0 -109 -73.5 -179.5t-186.5 -70.5q-71 0 -131.5 42.5t-88.5 102.5l100 90h10q9 -33 39.5 -64t70.5 -31q46 0 78 31t32 79q0 47 -36.5 78.5t-83.5 31.5q-48 0 -95 -20l-5 5l117 230h-222l-5 5v130z" />
    <glyph glyph-name="four.t" horiz-adv-x="520" 
d="M415 705l5 -5v-400h65l5 -5v-130l-5 -5h-65v-155l-5 -5h-130l-5 5v155h-275l-5 5zM280 400l-75 -100h75v100z" />
    <glyph glyph-name="five.t" horiz-adv-x="520" 
d="M120 700h355l5 -5l-85 -135h-150l-5 -100q94 8 167 -57t73 -173q0 -101 -75 -173t-180 -72q-142 0 -215 110l85 110h10q51 -80 120 -80q42 0 73.5 30.5t31.5 74.5q0 48 -33 80t-82 32q-36 0 -59 -6t-66 -26l-5 5l30 380z" />
    </font>
</defs>
</svg>
