<?xml version="1.0" standalone="no"?>
<!DOCTYPE svg PUBLIC "-//W3C//DTD SVG 1.1//EN" "http://www.w3.org/Graphics/SVG/1.1/DTD/svg11.dtd" >
<svg xmlns="http://www.w3.org/2000/svg" xmlns:xlink="http://www.w3.org/1999/xlink" version="1.1">
<metadata>
Created by FontForge 20161013 at Sun Jun 16 14:00:18 2013
 By ,,,
Something Strange (c) (TattooWoo.com). 2013. All Rights Reserved
</metadata>
<defs>
<font id="SomethingStrange" horiz-adv-x="1014" >
  <font-face 
    font-family="Something Strange"
    font-weight="400"
    font-stretch="normal"
    units-per-em="2048"
    panose-1="2 0 5 0 0 0 0 0 0 0"
    ascent="1638"
    descent="-410"
    x-height="1441"
    cap-height="1521"
    bbox="-342 -422 2048 1716"
    underline-thickness="150"
    underline-position="-442"
    unicode-range="U+0020-F002"
  />
<missing-glyph horiz-adv-x="1024" 
d="M100 0v1434h824v-1434h-824zM150 50h724v1334h-724v-1334zM325 1148q31 28 58 43q53 30 112 30q92 0 148 -47.5t56 -127.5q0 -49 -23 -98.5t-87 -129.5q-63 -80 -99 -132t-36 -99q0 -38 24 -133h-32q-35 97 -35 148q0 76 81.5 218t81.5 217q0 57 -33 90t-91 33
q-38 0 -69 -17q-26 -15 -56 -40v45zM389 334l57 58q11 10 20 10q10 0 22 -11l56 -60q9 -11 9 -20q0 -11 -10 -22l-56 -62q-14 -14 -21 -14q-11 0 -20 10l-61 71q-7 9 -7 18q0 10 11 22z" />
    <glyph glyph-name=".notdef" horiz-adv-x="1024" 
d="M100 0v1434h824v-1434h-824zM150 50h724v1334h-724v-1334zM325 1148q31 28 58 43q53 30 112 30q92 0 148 -47.5t56 -127.5q0 -49 -23 -98.5t-87 -129.5q-63 -80 -99 -132t-36 -99q0 -38 24 -133h-32q-35 97 -35 148q0 76 81.5 218t81.5 217q0 57 -33 90t-91 33
q-38 0 -69 -17q-26 -15 -56 -40v45zM389 334l57 58q11 10 20 10q10 0 22 -11l56 -60q9 -11 9 -20q0 -11 -10 -22l-56 -62q-14 -14 -21 -14q-11 0 -20 10l-61 71q-7 9 -7 18q0 10 11 22z" />
    <glyph glyph-name=".null" horiz-adv-x="0" 
 />
    <glyph glyph-name="nonmarkingreturn" horiz-adv-x="508" 
 />
    <glyph glyph-name="space" unicode=" " horiz-adv-x="508" 
 />
    <glyph glyph-name="space" unicode="&#xa0;" horiz-adv-x="508" 
 />
    <glyph glyph-name="exclam" unicode="!" horiz-adv-x="672" 
d="M313 328l-49 1036q0 46 21 69t62 23q42 0 62.5 -23t20.5 -69l-80 -1036h-37zM223 167l82 84q15 14 29 14q13 0 31 -16l80 -86q12 -16 12 -29q0 -15 -14 -31l-80 -88q-20 -20 -29 -20q-16 0 -29 14l-88 101q-10 13 -10 26q0 15 16 31z" />
    <glyph glyph-name="quotedbl" unicode="&#x22;" horiz-adv-x="672" 
d="M197 1108h-30l-62 359q-4 23 -4 33q0 37 20.5 57t59.5 20t60.5 -19.5t21.5 -56.5q0 -8 -4 -34zM509 1108h-30l-62 359q-4 23 -4 33q0 37 20.5 57t59.5 20t60.5 -19.5t21.5 -56.5q0 -8 -4 -34z" />
    <glyph glyph-name="numbersign" unicode="#" horiz-adv-x="1336" 
d="M596 859l-85 -290h242l86 290h-243zM673 1434h93l-141 -477h242l142 477h92l-141 -477h259l-29 -97h-259l-83 -290h279l-30 -98h-280l-140 -472h-92l139 472h-240l-142 -472h-92l140 472h-273l30 98h271l86 290h-295l29 97h295z" />
    <glyph glyph-name="dollar" unicode="$" 
d="M577 1552v-102q68 -8 141 -35q10 -6 19 -6q25 0 41 45h50l103 -282h-49q-60 134 -168 179q-74 30 -137 39v-540q241 -93 322.5 -183t81.5 -264q0 -197 -119.5 -300t-284.5 -120v-239h-73v237q-188 3 -266 38q-10 6 -19 6q-25 0 -41 -45h-50v331h49q50 -183 152.5 -226
t174.5 -43v635q-214 67 -299 153q-92 91 -92 249q0 166 125 271q105 88 266 102v100h73zM577 655v-610q125 17 211.5 96t86.5 219q0 116 -69 183q-62 59 -229 112zM504 873v520q-119 -5 -199 -72q-86 -73 -86 -182q0 -98 55 -153q52 -54 230 -113z" />
    <glyph glyph-name="percent" unicode="%" horiz-adv-x="1610" 
d="M449 1459q98 0 190.5 -49t144.5 -139.5t52 -190.5q0 -99 -50.5 -188.5t-143 -140t-193.5 -50.5q-100 0 -192.5 50.5t-143.5 140t-51 188.5q0 100 52 190.5t144.5 139.5t190.5 49zM206 1066q13 -92 55.5 -173.5t106.5 -124.5q57 -40 114 -40q7 0 13 1q63 3 115 53t73 136
q13 54 13 111q0 32 -4 65q-12 93 -56 175.5t-107 124.5q-58 38 -115 38h-11q-61 -3 -113 -52t-73 -135q-15 -58 -15 -117q0 -31 4 -62zM297 -29l940 1461h84l-938 -1461h-86zM1161 738q97 0 190 -49.5t145 -140t52 -189.5q0 -100 -50.5 -189.5t-143 -139.5t-193.5 -50
t-193 50t-143 139.5t-51 189.5q0 99 52 189.5t144.5 140t190.5 49.5zM918 344q13 -92 55.5 -173.5t106.5 -124.5q59 -39 116 -39h11q63 3 115 53t73 136q13 54 13 111q0 32 -4 65q-12 93 -56 175.5t-107 124.5q-58 38 -115 38h-11q-61 -3 -113 -52t-73 -135
q-15 -58 -15 -117q0 -31 4 -62z" />
    <glyph glyph-name="ampersand" unicode="&#x26;" horiz-adv-x="1683" 
d="M1051 196l-554 683q-118 0 -179.5 -86t-61.5 -204q0 -91 35.5 -181.5t101.5 -164.5q72 -83 165 -127t194 -44q88 0 169 33.5t130 90.5zM1394 0q-56 0 -139 25t-167 132q-67 -74 -175 -123.5t-241 -49.5q-229 0 -374.5 150.5t-145.5 385.5q0 161 76 266.5t225 151.5
q-42 61 -62.5 116t-20.5 111q0 105 77 197t182 92q68 0 142 -39q9 -6 18 -6q23 0 38 45h46l96 -281h-46q-55 133 -155 178q-85 37 -141 37q-65 0 -106 -45.5t-41 -117.5q0 -131 102 -267l531 -670q98 146 121 244q17 78 17 130q0 97 -62 97h-90v50h443v-50h-90
q-95 0 -145 -227q-31 -132 -155 -292q109 -136 248 -136h16q143 17 192 128l49 -1l-103 -231h-160z" />
    <glyph glyph-name="quotesingle" unicode="'" horiz-adv-x="346" 
d="M197 1108h-30l-62 359q-4 23 -4 33q0 37 20.5 57t59.5 20t60.5 -19.5t21.5 -56.5q0 -8 -4 -34z" />
    <glyph glyph-name="parenleft" unicode="(" horiz-adv-x="758" 
d="M252 601q2 277 99.5 530t268.5 442h80q-172 -242 -230 -438q-57 -193 -57 -523v-22q0 -330 57 -522q58 -196 230 -438h-80q-171 189 -268.5 441.5t-99.5 529.5z" />
    <glyph glyph-name="parenright" unicode=")" horiz-adv-x="758" 
d="M138 -370h-80q172 242 230 438q57 192 57 522v22q0 330 -57 523q-58 196 -230 438h80q171 -189 268.5 -442t99.5 -530q-2 -277 -99.5 -529.5t-268.5 -441.5z" />
    <glyph glyph-name="asterisk" unicode="*" horiz-adv-x="1024" 
d="M498 1294q-4 71 -37 130q-37 66 -37 84q0 32 23.5 51.5t62.5 19.5q37 0 61.5 -18t24.5 -47q0 -21 -36 -89q-33 -61 -37 -130q66 25 113 75q51 55 69 61q11 3 21 3q18 0 35 -10q26 -17 38 -53q6 -19 6 -36q0 -15 -4 -28q-10 -30 -38 -38q-6 -2 -19 -2q-25 0 -76 9
q-28 5 -55 5q-41 0 -81 -11q44 -55 105 -83q68 -32 79 -47q13 -18 13 -38q0 -9 -2 -17q-8 -30 -39 -53q-29 -22 -59 -22q-1 0 -1 1q-31 0 -48 23q-12 17 -22 94q-10 67 -47 125q-38 -58 -46 -124q-9 -75 -20 -90q-19 -25 -49 -27h-5q-28 0 -57 21q-30 21 -39 51q-4 10 -4 20
q0 17 11 32q13 17 83 51q61 29 105 82q-41 11 -80 11q-27 0 -53 -5q-54 -11 -78 -11q-9 0 -14 2q-30 9 -41 38q-6 13 -6 29q0 17 6 36q11 35 36 53q17 12 34 12q9 0 18 -3q20 -6 74 -62q47 -49 112 -75z" />
    <glyph glyph-name="plus" unicode="+" 
d="M437 647h-350v140h350v369l1 1h139v-370h349l1 -1v-139h-350v-370h-140v370z" />
    <glyph glyph-name="comma" unicode="," horiz-adv-x="557" 
d="M238 258q44 0 88.5 -65.5t44.5 -151.5q0 -109 -71 -226.5t-139 -117.5v43q73 43 87 190q0 119 -129 161v42z" />
    <glyph glyph-name="hyphen" unicode="-" horiz-adv-x="670" 
d="M156 409q-40 0 -40 28v83q0 29 41 29h356q41 0 41 -29v-83q0 -28 -40 -28h-358z" />
    <glyph glyph-name="hyphen" unicode="&#xad;" horiz-adv-x="670" 
d="M156 409q-40 0 -40 28v83q0 29 41 29h356q41 0 41 -29v-83q0 -28 -40 -28h-358z" />
    <glyph glyph-name="period" unicode="." horiz-adv-x="557" 
d="M145 167l82 84q15 14 29 14q13 0 31 -16l80 -86q12 -16 12 -29q0 -15 -14 -31l-80 -88q-20 -20 -29 -20q-16 0 -29 14l-88 101q-10 13 -10 26q0 15 16 31z" />
    <glyph glyph-name="slash" unicode="/" horiz-adv-x="569" 
d="M93 -50h-80l541 1484h80z" />
    <glyph glyph-name="zero" unicode="0" 
d="M507 1459q108 0 211 -96t161 -274t58 -372t-56.5 -370t-159 -274t-214.5 -98t-214.5 98t-159 274t-56.5 370t57.5 372t160.5 274t212 96zM237 689q14 -180 61.5 -340t118.5 -244q65 -78 129 -78q6 0 12 1q70 7 127.5 104.5t81.5 265.5q15 107 15 220q0 62 -5 126
q-14 181 -62.5 343t-119.5 244q-65 76 -128 76q-6 0 -11 -1q-68 -7 -126 -102.5t-82 -264.5q-16 -110 -16 -225q0 -62 5 -125z" />
    <glyph glyph-name="one" unicode="1" 
d="M234 0v50h96q103 0 103 235v794q0 129 -117 129h-98v50q292 63 327 176h50v-1149q0 -235 103 -235h96v-50h-560z" />
    <glyph glyph-name="two" unicode="2" 
d="M722 1036q0 148 -86 245t-186 97q-170 0 -275 -131h-22v49q39 50 115 104t185 54q183 0 306.5 -121t123.5 -297q0 -262 -627 -916h422q130 0 209 112h49l-103 -232h-719l1 50q607 675 607 986z" />
    <glyph glyph-name="three" unicode="3" 
d="M435 22q151 0 218 116.5t67 280.5q0 104 -44.5 205.5t-176.5 148.5v19q81 45 144 120.5t63 209.5q0 110 -55 189.5t-166 92.5q-68 0 -123.5 -45t-55.5 -111h-42v159q0 20 73.5 33.5t155.5 13.5q155 0 257 -84t102 -249q0 -87 -61 -166t-193 -139q93 -14 195 -134.5
t102 -278.5q0 -163 -144 -294t-325 -131q-152 0 -247.5 39t-95.5 88v100h49q0 -83 86 -133t217 -50z" />
    <glyph glyph-name="four" unicode="4" 
d="M600 438v686l-424 -686h424zM737 338v-171q0 -117 72 -117h76v-50h-442v50h76q81 0 81 120v168h-557v35l660 1061h34v-996h19q133 0 193 132h49l-103 -232h-158z" />
    <glyph glyph-name="five" unicode="5" 
d="M229 852l144 582h396q103 0 112 52h50l-63 -172h-429l-104 -415q226 0 388 -124.5t162 -300.5q0 -234 -143.5 -365t-324.5 -131q-152 0 -248 39q-92 37 -92 82v106h46q0 -88 86 -135.5t217 -47.5q151 0 217.5 116.5t66.5 347.5q0 159 -110 265t-285 106q-40 0 -86 -5z
" />
    <glyph glyph-name="six" unicode="6" 
d="M558 11q101 0 163 98.5t62 247.5q0 203 -100 333.5t-216 130.5q-91 0 -163 -101.5t-72 -250.5q0 -153 95.5 -305.5t230.5 -152.5zM801 1459v-48q-177 -12 -326.5 -179.5t-233.5 -467.5q96 93 266 93q108 0 211 -57t161 -162.5t58 -221.5t-56.5 -220.5t-144 -162.5
t-169.5 -58q-243 0 -366.5 162.5t-123.5 372.5q0 320 209 634.5t515 314.5z" />
    <glyph glyph-name="seven" unicode="7" 
d="M737 1314h-399q-133 0 -192 -112h-50l103 232h719l-1 -50q-370 -866 -370 -1205q0 -129 67 -129h117v-50h-411v50h67q72 0 72 131q19 296 278 1133z" />
    <glyph glyph-name="eight" unicode="8" 
d="M552 830q121 25 156 124q27 75 27 140q0 20 -3 39q-12 81 -52.5 154t-99.5 110q-55 33 -106 33h-9q-57 -3 -105.5 -46t-68.5 -119q-13 -49 -13 -100q0 -28 4 -57q12 -80 51.5 -152t218.5 -126zM472 785q-114 -21 -181 -157q-56 -115 -56 -206q0 -18 2 -35
q14 -104 61.5 -196.5t118.5 -140.5q64 -44 128 -44h13q70 4 127.5 60t81.5 153q15 62 15 127q0 36 -5 73q-11 112 -73.5 212.5t-231.5 153.5zM636 811q42 -14 82 -35q103 -56 161 -158.5t58 -214.5t-56.5 -213.5t-159 -158t-214.5 -56.5t-214.5 56.5t-159 158t-56.5 213.5
t57.5 214.5t160.5 158.5q41 21 82 35q-24 9 -48 21q-86 44 -133 123t-47 166t48 167t133.5 123t176.5 43q90 0 176 -43t134 -123t48 -167t-47 -166t-132 -123q-25 -13 -50 -21z" />
    <glyph glyph-name="nine" unicode="9" 
d="M456 1423q-101 0 -162.5 -98.5t-61.5 -247.5q0 -203 100 -333.5t215 -130.5q91 0 163.5 101.5t72.5 250.5q0 153 -96 305.5t-231 152.5zM213 -25v48q177 12 326.5 179.5t233.5 467.5q-95 -93 -266 -93q-108 0 -211 57t-161 162.5t-58 221.5t56.5 220.5t144 162.5
t169.5 58q243 0 366.5 -162.5t123.5 -372.5q0 -320 -209 -634.5t-515 -314.5z" />
    <glyph glyph-name="colon" unicode=":" horiz-adv-x="557" 
d="M145 167l82 84q15 14 29 14q13 0 31 -16l80 -86q12 -16 12 -29q0 -15 -14 -31l-80 -88q-20 -20 -29 -20q-16 0 -29 14l-88 101q-10 13 -10 26q0 15 16 31zM145 860l82 84q15 14 29 14q13 0 31 -16l80 -86q12 -16 12 -29q0 -15 -14 -31l-80 -88q-20 -20 -29 -20
q-16 0 -29 14l-88 101q-10 13 -10 26q0 15 16 31z" />
    <glyph glyph-name="semicolon" unicode=";" horiz-adv-x="557" 
d="M145 859l82 84q15 14 29 14q13 0 31 -16l80 -86q12 -16 12 -29q0 -15 -14 -31l-80 -88q-20 -20 -29 -20q-16 0 -29 14l-88 101q-10 13 -10 26q0 15 16 31zM238 258q44 0 88.5 -65.5t44.5 -151.5q0 -109 -71 -226.5t-139 -117.5v43q73 43 87 190q0 119 -129 161v42z" />
    <glyph glyph-name="semicolon" unicode="&#x37e;" horiz-adv-x="557" 
d="M145 859l82 84q15 14 29 14q13 0 31 -16l80 -86q12 -16 12 -29q0 -15 -14 -31l-80 -88q-20 -20 -29 -20q-16 0 -29 14l-88 101q-10 13 -10 26q0 15 16 31zM238 258q44 0 88.5 -65.5t44.5 -151.5q0 -109 -71 -226.5t-139 -117.5v43q73 43 87 190q0 119 -129 161v42z" />
    <glyph glyph-name="less" unicode="&#x3c;" 
d="M927 1074l-625 -359l625 -355v-167l-840 481v83l840 484v-167z" />
    <glyph glyph-name="equal" unicode="=" 
d="M87 631h840v-140h-840v140zM87 943h840v-140h-840v140z" />
    <glyph glyph-name="greater" unicode="&#x3e;" 
d="M87 1241l840 -484v-83l-840 -481v167l625 355l-625 359v167z" />
    <glyph glyph-name="question" unicode="?" horiz-adv-x="748" 
d="M132 1330q128 104 242 104q132 0 212 -68t80 -182q0 -69 -32.5 -140t-124.5 -186q-90 -113 -141.5 -187.5t-51.5 -142.5q0 -63 35 -189h-47q-50 138 -50 211q0 109 116.5 312t116.5 309q0 82 -47 129t-130 47q-84 0 -178 -81v64zM223 167l82 84q15 14 29 14q13 0 31 -16
l80 -86q12 -16 12 -29q0 -15 -14 -31l-80 -88q-20 -20 -29 -20q-16 0 -29 14l-88 101q-10 13 -10 26q0 15 16 31z" />
    <glyph glyph-name="at" unicode="@" horiz-adv-x="2019" 
d="M972 622q-83 -10 -151 -80t-68 -199q0 -107 64 -194t183 -87q97 5 126 167v476q-54 -63 -154 -83zM1360 29q-63 1 -100.5 18t-61.5 54q-29 -37 -82 -64.5t-133 -27.5q-144 0 -256.5 100.5t-112.5 233.5q1 87 53 166.5t132.5 115t173.5 49.5q67 16 110 42.5t43 74.5
q-2 69 -41 125t-129 56q-72 0 -121.5 -59t-50.5 -125h-45v159q0 20 72 40q73 20 178 20q109 -2 193.5 -64.5t84.5 -157.5v-589q0 -117 94 -117q185 35 267 191.5t82 382.5q-20 335 -232 540q-197 188 -480 188q-205 0 -392.5 -137.5t-269.5 -355.5q-67 -178 -67 -361
q0 -313 129.5 -511.5t305 -290.5t318.5 -92q274 0 575 208v-75q-263 -184 -571 -184q-240 0 -461 122.5t-343 342t-122 461.5t124 464.5t345.5 342t456.5 119.5q362 0 609 -230t247 -566q0 -270 -176 -439q-175 -168 -346 -170z" />
    <glyph glyph-name="A" unicode="A" horiz-adv-x="855" 
d="M367 1440q4 0 4 -4l8 4h7q23 -12 70 -66q-16 -23 -16 -35q38 -49 51 -50q0 -7 11 -19v-12l-19 -42q23 -36 85 -294q17 -32 116 -301q10 -13 35 -85q7 -6 34 -66q0 -8 -7 -8q0 4 -4 4q-10 -15 -27 -15q46 -145 85 -197q-20 -5 -20 -12q39 -72 39 -93l-8 -4h-11
q-23 8 -58 74q-23 -5 -23 -20q0 -14 42 -77q0 -6 8 -15v-8q-12 0 -12 -8l31 -81q-19 -8 -27 -8v-27q0 -5 -12 -11h-3q-42 0 -62 69h-4l-4 -7v-105l-8 -34q0 -31 4 -113q-6 -15 -11 -15q-24 53 -24 93h4l-4 7v16q0 4 4 4q-16 259 -34 259q-70 136 -120 255h-85v-4l7 -12
q-7 -1 -7 -8v-115q-3 -97 -20 -97q-11 0 -15 73q-12 0 -12 43v93q0 7 -7 7h-35q-20 0 -35 -11h-23q-14 15 -46 19v8h11v8q-17 0 -23 3q-11 -14 -27 -81q-43 -74 -50 -143q-4 0 -20 -23l-23 4q-14 -19 -19 -19l4 -16q-19 -58 -31 -58q-23 -7 -23 -69q-31 -8 -51 -8
q0 7 -54 15q-5 16 -11 16q0 -4 -4 -4l-4 8q27 139 54 139q16 38 31 50q0 4 -4 31q15 0 19 58q11 0 43 127q4 0 4 4q0 13 -43 43v11q39 83 39 120l46 104q0 6 -4 55q55 100 55 123q3 8 3 12q-3 0 -3 4q14 2 73 181l8 4h11l12 43q-8 0 -16 -31h-3l-4 7q96 236 131 310l23 15
q1 8 8 8zM205 1080q0 -3 -4 -11h8v11h-4zM348 744q0 -7 -62 -154h4q78 23 85 23q17 15 27 15q-31 55 -47 116h-7zM719 512q3 -7 3 -11h8v4q0 7 -8 7h-3zM332 389v-8h16v8h-16z" />
    <glyph glyph-name="B" unicode="B" horiz-adv-x="975" 
d="M147 1567q29 -8 60 -75q3 -29 12 -39v-4q-12 -9 -12 -28q14 0 47 36q20 0 44 -32l7 -4l8 4q34 -12 48 -12h4q0 8 4 8q19 0 162 -40q7 4 20 4q0 9 -28 12v8q58 -5 186 -59q35 -43 35 -63h-4q0 -21 79 -87l32 -60h-4l4 -7q0 -4 -4 -4l4 -8v-8q-47 -62 -87 -107v-4
q4 -7 4 -16l-12 -8h-4l-8 4q-8 -4 -67 -71q-12 0 -47 -63v-8q110 -48 241 -166q54 -90 55 -115v-27q-24 -36 -24 -40q-2 0 -59 -47q-60 -48 -71 -48q-20 -241 -28 -264h-16q-8 0 -11 31q0 4 3 4l-3 20v20q0 46 3 146q-3 0 -3 4q-6 0 -68 -40v-12q-8 -19 -19 -19h-12
q0 -28 -48 -44l-43 -35h4q28 14 43 23h12l-47 -43q-23 2 -36 12q-14 0 -47 -28q-4 0 -36 -32l4 -7q-24 -25 -67 -103h-4l4 -8q0 -6 -24 -24h-20l-23 4q-12 -4 -12 -8q-40 4 -40 12q4 0 4 4q-4 0 -4 4l-8 -4q-7 4 -15 4q0 -9 -4 -16l4 -8q-12 -55 -12 -71v-16q-16 -9 -16 -23
q-3 -32 -24 -32l-4 8q4 158 4 198h4l-4 7q4 8 4 12q-14 54 -43 67q-16 5 -16 36v8q-10 0 -20 28v11q-28 0 -39 127q-36 13 -36 115q4 157 4 225q4 29 4 31q-4 7 -4 16q12 0 12 64v11q0 4 4 4q0 4 -4 4q27 276 35 297h12v4l4 39q-12 3 -12 32v20h4l8 -4q0 11 12 47
q-4 7 -4 16q9 0 12 63q0 4 -4 4l4 20v20q0 31 4 75q-4 8 -4 12l4 7q0 4 -4 4l4 28v24q0 10 16 12q8 -4 12 -4l-8 12v3q0 5 23 20zM337 1433h4q8 -1 8 -8h-12v8zM195 1393l-4 -39q0 -16 4 -32l-8 -47l20 4l8 -4q6 4 19 4v31q-8 10 -8 16q4 8 4 12q-15 5 -23 28h-4v8h8v11
q-6 0 -16 8zM309 1271l-4 -36l4 -16q-4 0 -4 -4q49 -37 68 -83v-11q0 -34 -4 -99q-16 0 -16 -12q2 -16 12 -16v-12q-16 -17 -16 -19v-4h12q-8 -28 -8 -32v-24h4q45 31 47 44q-4 7 -4 16q160 95 186 118l12 44v4q0 24 -44 35l-15 16q4 8 4 12h-4l-24 -4q-24 16 -44 16
q-3 -89 -15 -127h-8q-6 0 -12 12v16q-11 122 -28 122q-30 8 -91 44h-8zM471 682q-30 -48 -55 -48v-3h20q0 -24 -16 -24q-21 0 -55 8q-32 -8 -32 -16l-16 -115q-4 0 -4 -4t4 -4l-4 -19v-4l4 -20h-4q8 -15 8 -32v-4l-8 -12v-3q0 -6 16 -16q87 56 87 91q61 49 135 98h3
q7 -4 16 -4q0 6 12 12q16 -23 20 -23h16q27 39 43 39v4q-2 9 -67 44q-13 31 -87 51q-7 4 -20 4h-16zM732 461v-8q4 -8 4 -12h-4q4 -8 4 -12q9 8 24 8q-10 17 -28 24zM760 405q0 -4 -4 -12h8v12h-4zM566 263v-4h12q20 11 20 16v4h-4q-20 -16 -28 -16z" />
    <glyph glyph-name="C" unicode="C" horiz-adv-x="911" 
d="M842 1454h12q7 0 24 -48q68 0 68 -64q5 0 8 -56q-8 -1 -8 -8q0 -8 12 -52v-8l-4 -8q8 -1 8 -8v-4q0 -4 -28 -24h-4l-8 4l-8 -12h12v-4q-20 -21 -20 -28h-8v4q4 8 4 12q-19 -12 -32 -40q8 -1 8 -8q-44 -40 -48 -40q0 -26 -28 -44q-37 -389 -48 -404q0 -8 -8 -8h-8
q-8 0 -8 8q4 138 4 216v4q0 4 4 4l-4 8v40q0 8 -8 8q-25 -32 -28 -32l4 -8v-4q-28 0 -28 -24h4l8 4v-4q-4 -13 -24 -32l4 -8q-10 -20 -16 -20h-8q-38 29 -56 60h-4q-13 -39 -52 -64h-4q-32 24 -56 60v12q0 30 68 108q0 6 40 68v4q-22 -9 -28 -20l-8 -4l-8 4q-16 -6 -16 -12
h4l8 4l4 -8q-18 -22 -48 -44q0 -8 -52 -76q-4 -5 -4 -24h4v-4q0 -8 -8 -8q-8 4 -12 4l4 -8v-4q0 -16 -28 -16l4 -8v-4q0 -19 -20 -40l4 -8v-12h4v-8q-12 0 -12 -4l4 -8l-8 -20l-8 4h-4q0 -8 12 -8q0 -10 -28 -104h8v-4q-16 0 -16 -36q0 -13 -12 -52q3 -66 80 -148
q120 -88 220 -120q17 -8 60 -20l72 8l4 -8q0 -4 -4 -4l4 -8q-40 -25 -40 -28q4 -7 4 -16l-24 -20h-4q-21 0 -68 4l-16 -24q0 -6 12 -12h28q23 0 72 36h24q8 -1 8 -8v-4q0 -13 -4 -20l4 -24q0 -36 -84 -36q-43 -20 -100 -32l-8 4q-4 0 -4 -4q-78 8 -112 20q-22 -4 -36 -4h-8
l-20 4q-4 -9 -8 -52q4 -7 4 -16q-12 -26 -12 -64v-100q0 -6 -16 -16h-8q-6 0 -12 12q0 104 -8 252q-94 55 -160 160l-12 8h-8q-8 -55 -8 -72l4 -16q-4 -44 -12 -44h-16q-7 0 -12 24q0 4 4 4q-10 192 -20 192q-44 0 -104 68q0 103 64 284q4 16 4 28q-5 0 -20 44q-4 0 -4 4v4
q4 55 100 152h4v-12h16q0 11 24 16v4q-12 0 -12 8l56 72q0 17 24 44l-8 12q78 92 104 92q8 -4 12 -4q48 31 48 60q0 15 128 128q26 0 36 24q57 33 96 68l32 12l-8 12q6 0 28 16l8 -4q0 6 12 12h8q24 0 24 -24q20 0 64 32q19 0 28 8zM890 1130h4v-4q0 -8 -8 -8l-4 8zM310 926
h8q16 6 16 12h-12q-6 0 -12 -12zM722 914q0 -6 -8 -16v-4h4q0 5 12 20h-8zM282 906q-4 -8 -4 -12h-4l-12 8h-4v-4q6 0 16 -8q13 12 20 12v4h-12zM358 846v-8h12v8h-12zM350 730q8 0 16 44h-4q-9 0 -12 -44zM146 758v-4q10 8 16 8v8q-16 -6 -16 -12zM238 746v-4h8v12
q-8 -1 -8 -8zM202 650v-16h4v16h-4zM198 630v-16q7 4 20 4v4q-10 0 -20 8zM70 498v-28h4l4 24zM58 446v-8h4q6 0 12 12l-8 4q-8 -1 -8 -8zM86 434q0 -4 -4 -12l4 -16q-4 -16 -16 -16v-8q0 -4 4 -4l-4 -8v-16q6 4 24 4v4l-4 40q16 6 16 12v4q-16 0 -16 16h-4zM282 434v-4
l4 -8q-4 -8 -4 -12q0 -10 24 -56q0 -9 -4 -16q4 -7 4 -16q-4 0 -4 -4l68 -52h4v8zM66 406v-4h8v12q-8 -1 -8 -8zM110 414q0 -6 12 -12h4v4q0 8 -8 8h-8zM146 366q0 -13 -4 -20q4 0 4 -4q7 4 16 4q-8 13 -8 20h-8zM82 318q1 -8 8 -8h4l-4 8v8l16 -12q0 4 4 4l12 -24
q18 8 20 16q0 4 -36 24q-24 -8 -24 -16zM202 210h8l-4 -8v-4h4q3 24 8 24q-4 8 -4 12q-12 -4 -12 -24zM222 226q0 -24 -8 -32q1 -8 8 -8h4q0 16 16 16v4q-16 0 -16 20h-4zM358 150q8 -24 16 -24l-4 24h-12zM446 150q0 -8 28 -12q0 9 -28 12zM486 142l8 -12q-4 0 -4 -4
q56 -10 56 -16q20 12 28 12q0 9 -88 20z" />
    <glyph glyph-name="D" unicode="D" horiz-adv-x="897" 
d="M233 1483h8l31 -47l-24 -226q4 -8 4 -12h4q31 17 31 51q11 0 28 43l7 4h4q34 -40 47 -78q4 0 4 -4q-26 -62 -31 -62q-31 -171 -39 -179q-10 -8 -16 -8v-12h4l12 8q0 -4 4 -4q0 -5 -16 -27q12 -17 12 -31q-2 -39 -12 -39q0 7 -8 7q-15 -17 -15 -23q35 -59 35 -66
q0 -12 -20 -55q0 -4 4 -4l-4 -19v-19q0 -16 4 -32q-8 -62 -15 -62l4 -23q0 -18 -4 -51l4 -23q-8 -4 -12 -4v-20q-8 -1 -8 -7v-32l-4 -23q4 -8 4 -12l-8 -4l-19 4l-12 -15q8 0 8 -12h23v-15h4q13 4 39 42q8 0 39 35q26 21 70 90h4q20 -12 31 -12h4q80 97 129 207q10 26 15 81
q0 4 -4 12q4 33 4 55v4q0 12 -4 19l4 19q0 160 -35 160q-59 62 -74 62v-3q-11 -273 -23 -273h-4l-16 12q4 64 4 97v70q0 49 -4 121q4 8 4 11q-15 38 -15 47l4 8q-8 0 -8 8v54q0 4 4 4q-27 49 -78 125l4 19q0 4 -8 31v12q0 6 19 16h4q114 -98 156 -164q107 -30 167 -128
l102 -207q62 -99 62 -132v-8l-8 -12q-4 0 -23 16h-16q16 -54 16 -86l-4 -19q8 0 12 -31q-21 0 -39 -24q-46 -30 -78 -85q-5 0 -20 -24v-8q0 -3 16 -50v-16q0 -7 -35 -11q-31 -31 -31 -35v-28q-20 -114 -43 -346l-8 -4h-4q-8 0 -8 8v50q0 9 4 16q-4 7 -4 15v32q0 3 4 3
q-4 24 -7 24q7 43 7 132v8l-4 8q-15 -6 -15 -12l-8 4h-4v-16q-12 -15 -54 -35q-14 -14 -35 -62q-26 0 -51 -35q-5 0 -23 -35l-8 -4q0 4 -4 4l4 -19q-31 -20 -31 -28q11 0 11 -8q-2 -11 -31 -11v-4h8v-4q-27 -19 -27 -23h4q-4 -5 -4 -24q8 -1 8 -8q0 -5 -28 -27h-15l-20 4
q-44 -42 -70 -51q0 -30 -19 -151q0 -51 -12 -51h-4q-6 0 -12 12v23q0 51 -7 70q0 4 4 4q-4 46 -4 66v35l-4 24l4 7q0 33 -63 63q-13 74 -23 74q-22 0 -39 58v16q0 35 8 66l-4 23h4l-4 8v39q0 9 4 16q-4 6 -4 15q8 0 8 8q-4 8 -4 12h4l-4 7v12q-4 0 -4 4l4 23q-4 21 -4 39v4
q0 4 4 4l-4 8v47q0 23 12 66l-4 8q0 3 4 3l-4 20v4q0 5 7 43q0 16 -3 31q3 43 15 43l16 -12h4q0 10 7 19v12h-7q-8 -8 -28 -8q0 4 -4 4q0 122 36 140v20h11v-20l12 8l-4 8l8 19q-8 4 -12 4v12q16 0 16 16l-12 7q-4 -7 -4 -11h-8v8l-11 -8h-4v8q0 33 31 116q13 0 15 24h4
q8 -4 12 -4l4 8v3l-8 -3h-8v15q32 100 39 160h4q-4 21 -4 31q0 15 28 51l7 -4q6 0 12 11q0 9 -4 16q10 43 16 43l23 -4q1 8 8 8zM303 1311q8 -1 8 -7v-8q0 -6 -12 -12q-8 0 -8 8q8 0 8 8l-4 7zM62 848v-8h15v8h-15zM50 828v-3q0 -6 12 -12q7 0 7 8q0 7 -7 7h-12zM54 700
l8 -4l7 12l-4 19q-8 0 -11 -27zM50 622v-12h4q8 0 8 8v4h-12zM229 501v-7h16q0 7 -8 7h-8zM237 424q0 -4 -4 -12h8q7 0 7 8l-7 4h-4z" />
    <glyph glyph-name="E" unicode="E" horiz-adv-x="764" 
d="M166 1534q62 -34 62 -111v-28h12q0 26 20 73l9 -4q10 8 16 8q37 -12 53 -57q24 0 66 4l49 -4q24 12 33 12q99 -8 140 -8q36 0 53 17q24 0 33 -82q-5 -26 -13 -41q4 0 4 -5q-7 -4 -49 -8l4 -8q-4 -8 -4 -12q8 -1 8 -8q-4 -9 -4 -13l62 -16v-8q-32 0 -49 -29q-22 0 -37 -4
q-8 4 -13 4q0 -8 -20 -8v-4l25 -5v-8h-17q-24 0 -102 -12v-12h-54v-45q0 -62 -20 -62q-12 0 -17 57l4 9q-8 41 -12 41q-81 0 -82 -25q-20 -36 -20 -57q8 -66 8 -82q-8 -27 -8 -37l4 -9q-13 -49 -17 -82q4 -8 4 -12l-4 -8q5 -21 13 -21h94q21 21 53 21q162 0 181 -29l-8 -12
q20 0 24 -62q37 -8 41 -8v-4l-4 -8q8 -1 8 -8q-23 -17 -33 -17l13 -16v-4q-17 0 -17 -21q-14 -4 -16 -4v4q-4 0 -4 -4l-21 4q-4 0 -37 -12q-8 4 -12 4l-4 -8q19 0 29 -8h20v-9q-16 0 -41 -24h-65v-8q1 -9 8 -9h20v-4q0 -8 -65 -16q-8 4 -17 4q-28 -5 -28 -86l-13 -8h-4
q-6 0 -16 16v33l-4 20q-62 -4 -91 -4h-16l-16 13h-5q0 -21 -8 -21l-8 4v-24l12 8h4v-17q0 -8 -8 -8l-8 4l-4 -8v-45q8 0 8 16h8q-2 -45 -8 -45q-10 0 -20 -12q0 4 -4 4l-5 -29v-12q9 0 9 12h4v-16q-21 -21 -29 -21v-4q6 0 16 -8q2 8 9 8q6 0 16 -16v-4q-16 0 -16 -8v-13
l24 -8l168 21l9 -4q8 4 12 4q0 -6 12 -13l37 4q25 -4 25 -12l-8 -12q22 0 32 -45q4 0 4 -4q3 0 17 4q21 -4 25 -4l8 4q19 -13 24 -13v-8l-8 -12q29 -20 62 -25h37q23 -24 28 -24l-8 -17q10 0 25 -53l-33 -16q-107 -9 -201 -9v-4h49v-4q0 -8 -8 -8h-45q-30 0 -33 -12v-37
q0 -22 -16 -29h-9q-12 3 -12 33v29q0 8 -12 8q-59 0 -156 -25l-21 4h-4q-13 0 -57 -8v-74l-4 -24q0 -4 4 -4q-5 -103 -25 -103q-10 0 -16 45v53q0 10 4 17q-4 0 -8 86q-70 0 -70 53q-24 52 -61 62q-8 0 -21 37v41q3 36 12 37l-4 24q9 287 21 287l-4 9v41q0 9 4 16q0 4 -4 4
l4 41v33q16 0 28 45q-28 16 -28 21v69q0 9 -4 17q11 69 16 69l-4 17q13 86 29 115q0 4 -4 12q28 138 28 152q-8 0 -8 12q22 34 29 148q7 0 16 102q13 45 21 49l-4 9q0 7 24 16zM35 771v-8q1 -8 8 -8l4 8v16h-4q-8 -1 -8 -8zM35 673v-29h4q0 18 4 25zM470 595q1 -8 8 -8
q8 0 8 8h-16zM248 558l-4 -8l8 -4l4 8zM248 480h8v-12h-8v12zM236 431q4 -8 4 -13l8 5q-4 8 -4 12zM211 320q1 -8 8 -8h5q0 8 -9 8h-4zM416 49v-8l21 4v4h-21zM589 49h32v-8h-32v8z" />
    <glyph glyph-name="F" unicode="F" horiz-adv-x="842" 
d="M260 1472q38 -16 38 -42l8 -4h25v25l5 8q8 -4 12 -4l8 4q8 0 51 -37h21q50 0 138 -13l25 4h29v9l13 -9q67 17 130 17l17 -4q7 4 16 4q10 0 17 -4l42 4q52 -4 54 -4q5 0 5 4q100 0 100 -46l4 -8q0 -105 -37 -105h-5q0 10 -16 12q-38 0 -38 -87q-13 -17 -25 -17q-4 8 -4 12
q-126 -6 -126 -21h-8v9h-17l-13 -9h-16v9h-26l5 -9v-8h-34v-4h8v-9h-12q-5 0 -46 -8h-13v-8h-21q-8 -1 -8 -9l4 -8q-7 -37 -17 -117q-4 0 -4 -9h-8q-17 6 -17 38v54q0 10 -4 17l4 9l-4 8l4 8q-4 9 -4 13h-4l-9 -4q0 8 -4 8q-14 -10 -84 -17v-4h30v-8h-30v-4q17 0 17 -9
q-36 0 -42 -151q-4 0 -8 -12l-9 4h-4q0 -7 -8 -21q8 -4 12 -4v-4l-8 -13v-8q0 -15 50 -17q11 0 46 8l118 -21q7 5 16 5q0 -7 17 -13q8 4 17 4q14 -8 25 -8h88q29 -22 29 -46q-4 -29 -4 -46v-21q0 -10 -58 -30q0 -27 -30 -41q21 -4 21 -13q-4 -7 -4 -17h-29v13h-13
q-5 -30 -29 -30q-9 0 -9 -16h-37q-12 0 -42 -21q-8 -4 -21 -4q-4 0 -4 4q-25 -9 -25 -30q4 -36 4 -41q-8 -202 -30 -202h-4l-8 5l-9 255h-25l-42 -4v-4h17v-9q-92 -4 -92 -41q8 -2 8 -9q0 -4 -4 -4l4 -17q-5 -50 -16 -50q0 -4 4 -4q-3 -30 -9 -30q0 -4 5 -4q0 -51 -38 -67
v-29l8 4q0 -27 5 -42q-9 -54 -13 -54q8 -21 8 -34l-33 -25l4 -8q0 -7 -13 -13q0 4 -4 4v-12l9 -13v-4l-5 -21q13 0 13 -8v-13l-13 -17l5 -8q-5 -7 -5 -17q9 -1 9 -8q-4 -77 -4 -96q-14 -13 -25 -13q-6 -176 -34 -176l-8 13v79q0 23 -5 59l5 8q-21 36 -21 46q4 36 4 59v21
q-23 -4 -34 -4q-25 0 -33 42q-4 0 -4 4v4q10 7 16 80q0 11 -29 16q-7 -4 -17 -4l-16 21q4 7 4 17l-17 8q8 112 21 159q-8 0 -8 9v16q0 30 12 30l-4 67q13 3 13 33v21l-5 42h9v46q0 4 8 34v17q17 137 17 167q-9 0 -9 8v5q17 0 17 29q14 113 34 113l-4 21v4q8 9 25 134
q19 38 37 126q16 38 38 138h4l-4 9v4q34 0 34 50h12zM143 1087q0 -17 -13 -51l-4 -21h8q10 0 13 21v13h8l-4 21q4 0 4 4q-8 0 -8 13h-4zM93 831l-5 -29v-9h5q0 17 12 17v17q-4 0 -12 4zM88 785v-21h5v21h-5zM637 651v-4h17v4h-17z" />
    <glyph glyph-name="G" unicode="G" horiz-adv-x="997" 
d="M784 1437q36 -37 36 -53q0 -19 17 -37l-13 -16v-4q17 0 17 -8q-37 -8 -37 -21h4q8 4 12 4v-4l9 4h12v-8q-23 0 -29 -20q8 -16 8 -29q-15 -11 -48 -28h-13l4 8l-8 4q-21 -22 -40 -24v-8q8 0 28 8v-4l-8 -13h8q18 17 110 45q37 -3 37 -12v-4q-11 -20 -33 -20l-12 8l-4 -8h8
v-4q-2 -9 -77 -37v-16h4q36 11 61 28h8v-4q-16 -13 -102 -57v-4h8v-8h-4l-8 4q-23 -12 -33 -12v-8h13v8h8v-4l-65 -53q0 -14 -25 -17q0 -20 -32 -44q-13 -26 -70 -45q-122 -108 -122 -139q-14 -232 -32 -232q-12 0 -17 41v41q-69 -25 -69 -90q-4 -14 -4 -53q0 -44 20 -94
q0 -4 -4 -4l4 -20v-24q0 -5 -4 -5q13 -65 37 -109l8 4q7 -4 16 -4q0 7 25 20q7 18 24 28q6 0 12 -12q0 -8 -20 -8v-4q12 0 12 -8q-28 -31 -28 -45h4q32 0 146 183q7 1 53 78h5v4q0 6 -13 12l-77 -20q-18 7 -29 24v4q0 10 17 12l-21 25l4 8q-24 36 -24 53l45 36q0 5 -17 25
v32q0 10 -4 17l4 8l-4 20q21 29 49 29h8q0 16 90 16q28 5 37 12h4q12 0 12 -4q4 0 12 4q420 -7 420 -40q8 -1 8 -9v-4q0 -12 -17 -12q0 -3 29 -20v-25q0 -8 -8 -8q-4 0 -4 4q-29 -4 -29 -8l-8 4h-4q-23 -36 -69 -36v4q-12 -1 -53 -41q-5 -12 -29 -25q-4 -22 -4 -36v-21
q-11 -321 -40 -321q-9 0 -9 12q0 109 9 318q-6 20 -13 20h-4q0 -16 -49 -16q-22 -62 -44 -86q8 -1 8 -8q0 -8 -12 -8l4 -21q-6 0 -45 -48q4 0 12 -4q-50 -134 -85 -176q-9 -9 -17 -65q-5 -5 -20 -57q-25 -48 -45 -57q-35 -85 -57 -122v-28q0 -21 -24 -37q0 -11 -13 -33l4 -8
q-6 -16 -12 -16q0 8 -12 8q-37 0 -37 -24v-33l-8 -12l-8 4l-41 -49l-20 4l-8 -4q-37 10 -37 16q46 147 82 334q-4 8 -4 12q-56 -61 -61 -61l-5 9q0 14 21 44v13q0 7 -94 24q-41 35 -98 90v-49l-4 -25q0 -4 4 -4l-4 -20v-53q-15 -29 -20 -29q-14 0 -20 228q-28 62 -61 106
q-29 101 -29 184q0 112 49 293q0 18 24 24q13 12 13 29l20 -4l4 8q-12 27 -12 32l12 9l-4 8v4q0 6 12 12l8 -4v8q-4 8 -4 12l8 4q0 -6 17 -16q8 0 8 8q-4 0 -4 4l-8 -4h-5v8l9 13v16l-4 8h8l-4 16q12 45 36 45l4 8q-4 0 -4 4h4q4 0 4 -4q18 0 74 53q8 -4 12 -4q8 20 12 20
l-4 9l25 40h-9v8q11 0 57 49q50 41 61 45v4q0 4 -4 4q50 74 110 74q0 6 25 20l16 -4q16 6 16 12q-8 0 -8 8q33 37 135 78q0 9 65 16zM690 1111v-4q1 -8 8 -8q38 20 57 24v4q0 9 -8 9q-49 -25 -57 -25zM222 1038l4 -8h-12q1 8 8 8zM136 871v-8h17v4zM100 798v-17h4v17h-4z
M348 692q6 0 16 -17q-4 22 -4 41q-12 -4 -12 -24zM303 622v-8h4l57 41l-8 4q-6 0 -53 -37z" />
    <glyph glyph-name="H" unicode="H" horiz-adv-x="914" 
d="M742 1492h4q7 0 15 -40v-15l-4 -40l24 -7q2 11 20 31q-4 8 -4 12l8 4q43 -19 43 -40q0 -5 43 -63l8 -35l-4 -20q0 -4 4 -4q-12 -141 -28 -165q-8 -59 -11 -59q4 -8 4 -12q-8 -108 -16 -114q0 -4 4 -11q-2 -23 -12 -36l4 -20q0 -19 -8 -19l4 -8v-4l-20 -24q12 0 12 -8
q-7 0 -12 -23h12v-12q0 -8 -12 -8l8 -16q-4 -6 -4 -15q4 -8 4 -12q-6 0 -12 -12l8 -4q-3 -43 -8 -43l4 -8q-11 -12 -15 -27h-4v-12q11 0 11 -8t-11 -8q11 -15 11 -28q0 -12 -15 -35l4 -8l-4 -16l4 -7l-8 -28q0 -4 4 -4l-4 -39v-20q0 -4 -4 -4q0 -4 4 -4q0 -119 -28 -169
l4 -20v-23q0 -4 -4 -4l4 -8q0 -4 -4 -4q8 -15 8 -31q-9 -71 -31 -71q-2 0 -8 -12q16 -59 23 -59v-20q-4 -12 -23 -12q-24 0 -24 150q0 9 -23 31q-8 55 -12 55l4 20v20q0 9 -4 16l4 7q-4 8 -4 12h4q-4 7 -4 16l-8 -4l4 -8q-24 -41 -24 -51v-55q0 -9 4 -16q-4 -12 -8 -12
q0 -4 4 -11l-4 -36l4 -23q-9 -205 -23 -205h-4q-20 0 -20 138q4 41 4 110q-16 45 -16 75q2 47 12 47l-4 27v12q0 4 4 4q-11 21 -16 43q4 16 4 28q0 13 -8 63q12 133 20 145q0 4 -4 4q8 44 8 75h-4q-18 0 -43 -16h-4q-4 0 -4 4q-11 -1 -20 -15l-118 -24l4 -8q-9 -24 -12 -24
l4 -7v-63q0 -166 -23 -166l-12 16v43q-8 57 -8 63v114q-7 36 -16 36q0 -8 -8 -8q-9 0 -15 4q-22 0 -28 -39q-10 -8 -16 -8v-4h8v-8l-4 -8q6 0 12 -12v-8h-8v-4l4 -7q-6 0 -12 -16q4 -8 4 -12q-8 -4 -12 -4l4 -16q-4 -11 -7 -11l3 -8l-3 -8v-12l-8 -4q4 -7 4 -16l11 8v-8
l-15 -19q8 -13 8 -24v-4q0 -13 -12 -27l8 -12v-4l-20 -36q4 -6 4 -15q-5 0 -16 -20v-12q8 -10 8 -15q-9 -68 -16 -103l4 -8v-39l-31 -59h-12q-4 0 -4 4q-6 0 -24 -20h-19q-24 14 -24 20q14 135 20 165q-4 8 -4 12q-16 -4 -28 -12h-8l-11 8q0 -8 -8 -8h-12l-4 -8q0 -4 4 -4
q-10 -110 -24 -110q-19 0 -19 79v39q0 45 -20 47q0 4 4 12l-4 28l16 86l-4 8q4 7 4 16v4h-8q20 63 71 590q0 135 43 228q43 169 43 177q11 16 36 24q4 -8 4 -12h11q12 0 48 -24q0 19 7 40l-7 4q0 14 47 39v4q-4 0 -4 4l8 4q0 -4 4 -4q0 15 27 39h4l4 -19l8 4q1 -8 8 -8
q1 8 8 8q21 -10 55 -44q8 -14 8 -31q0 -40 -8 -40l4 -19q-20 -97 -36 -260q-23 -102 -43 -145l8 -4l-8 -75h39q11 0 138 8h32l23 -4q36 0 36 39l11 106l-4 8l4 20q0 9 -4 16q4 21 4 35v32q0 8 4 15q-4 7 -4 16q0 114 32 279q19 0 27 75q21 16 44 16z" />
    <glyph glyph-name="I" unicode="I" horiz-adv-x="679" 
d="M308 1521h25q29 -8 74 -87q0 -4 8 -4q72 -1 116 -8q7 4 16 4h17q49 -1 49 -8l8 4q14 0 21 -4l20 4q103 -16 103 -37v-21l-8 -12v-4q52 0 74 -25q-16 -78 -29 -78q-7 4 -16 4l-4 -8l-37 8q-3 0 -25 -4l-66 8q-16 -26 -16 -33l4 -8q-4 -7 -4 -17v-4q0 -8 12 -8v-4
q-4 0 -12 -4l-9 4q-37 0 -37 -25q-4 -19 -4 -53v-12q0 -85 -4 -231q-5 -20 -12 -20q-21 0 -29 337q-21 0 -21 8l-20 -4l-25 4q-8 -4 -12 -4v-4q1 -8 8 -8q-4 -82 -12 -124h-9v17h-4v-17h4q-4 -8 -4 -12q4 -8 4 -12q-6 0 -16 -17v-4q12 0 12 -8l-12 -21q12 -15 12 -29
q0 -4 -4 -12l8 -66q-8 0 -12 -115q-8 -1 -8 -8l8 -13l-4 -16v-12q-6 0 -12 -13l12 -16q-16 0 -21 -33l13 -25v-12h-13l5 -21q0 -13 -13 -28v-5q4 0 13 -4l-5 -41v-4l5 -21q-7 0 -13 -12v-4l13 -16v-21h16q0 -8 -29 -29v-16h-4v-13l8 4q9 -1 9 -8l-9 -12q0 -15 4 -37
q0 -4 -4 -4l4 -21v-45q20 -12 116 -12q0 4 4 4l20 -13l-12 -28l-29 4l-29 -4q0 8 -8 8q-33 -20 -33 -25l29 -4h29l12 -8h21q38 0 53 -17q8 4 13 4q0 -8 12 -8v-4h-21l-8 4q0 -32 -16 -53q4 0 4 -4q-8 -5 -13 -5v-4h9v-8q-8 0 -33 -8l-8 4q-4 0 -25 -4l-21 4q-8 -4 -12 -4
l-8 4q-30 0 -37 -45q0 -4 -4 -4q8 -22 8 -46q-11 0 -54 -24q-16 6 -16 12v53q0 9 -8 9q-21 -5 -21 -13l4 -20q-41 -21 -45 -21l-4 8v42q-13 0 -13 4l-8 -4q-7 4 -16 4l-4 -21v-41q0 -10 -13 -49v-62q0 -30 -12 -33h-8q-13 48 -25 197q-88 -4 -132 -4h-8q-8 0 -8 9l4 8
q-6 5 -21 41l5 8l-5 25q17 8 25 8v12l-8 13v25q0 17 90 24q9 -4 13 -4v4l-4 29q1 10 28 29h29v20q0 24 4 66q-4 8 -4 13h4l-4 8v4q0 10 13 37q-11 0 -13 37l4 8l-8 33q0 33 17 33v4q-18 12 -25 70v8q1 21 8 21l-4 20v5q0 9 4 16l-8 16q4 36 4 46q0 4 -4 12q0 37 20 37l-8 12
q6 0 17 21q0 8 -9 8q0 -4 -4 -4l-4 8q7 4 17 4v13h-4l-9 -4l-4 8v21l17 69q-4 8 -4 17q16 90 16 115q0 4 -4 4q4 50 12 50l-4 8v29q0 37 -41 37v8h-8l-8 -4q-5 8 -5 12h-4q-4 0 -4 -4l-16 8q0 -5 -25 -16h-29q0 -13 -8 -13h-8l8 13v4q-25 0 -25 8q-7 -4 -20 -4v-12h16v-13
q-38 -2 -49 -12l4 -8v-4q-8 0 -70 -13h-21q-8 0 -8 9v4l8 12q-8 0 -8 8l13 17q-21 5 -21 12v16q0 5 21 21l-5 8v4q0 10 5 17q-13 39 -13 41l17 25q45 10 45 16q0 48 37 66q29 14 189 29v-4q28 5 37 12l25 -4q10 8 16 8v8q0 25 25 50q0 5 12 29zM123 1405q1 -8 9 -8h16v12z
M732 1278v-8l8 4q9 -4 13 -4v4l-4 8q-7 -4 -17 -4zM650 1200h8v-13h-8v13zM20 1138h17v-8h-17v8zM45 1138h17v-8h-17v8zM103 1138h12v-8h-12v8zM403 574v-16h4q0 4 4 12zM337 475v-8h4q0 13 17 25v4h-4q-17 -8 -17 -21zM333 447l8 -4l4 16q-6 0 -12 -12zM337 294q4 -7 4 -16
q9 0 9 8v13h-5zM617 224q8 -4 12 -4v-8l-20 -4h-13q-8 0 -8 8v4zM271 39l-4 -8v-4h17v8q-4 0 -13 4z" />
    <glyph glyph-name="J" unicode="J" horiz-adv-x="898" 
d="M529 1440q14 -4 39 -4q2 0 15 4q15 -7 35 -7q4 0 12 3q81 -6 81 -15l27 8l8 -4q4 0 4 4q88 -12 151 -31q19 0 54 -12v-4q0 -6 -12 -11q-15 3 -15 7q-7 -4 -16 -4l4 -7v-4q-31 4 -31 11q4 0 4 4q-12 8 -23 8v-15h-23q0 -8 -4 -8q0 -12 15 -12v-7h-11l4 -20q0 -8 -8 -8
q0 -42 39 -42v-4q-7 -4 -20 -4v-8l16 -27q-16 -59 -23 -127q-8 -1 -8 -8q4 -21 4 -31q-5 -4 -27 -4l3 -8l8 4l8 -4l-4 -15l4 -27q-4 0 -19 -51q-5 0 -16 -34q8 -1 8 -8q-8 0 -8 -16h-8l4 20q0 7 -8 7q0 -8 -19 -23q12 0 12 -8v-31q-16 -11 -16 -30q12 -2 12 -31v-12l-8 -12
v-7q1 -8 8 -8q-12 -63 -20 -74v-23q8 -10 8 -15q-6 -16 -15 -74h-4l-8 4q0 -16 -8 -16q0 4 -3 4v-7q1 -8 7 -8l-4 -27v-16h4q8 0 8 12q8 -1 8 -8v-19q0 -8 -8 -8h-4v8h-4q0 -8 -4 -8q0 -4 4 -4l-4 -27v-11l16 15q0 -4 4 -4l-4 -19q0 -10 4 -31q-8 -39 -8 -70v-11
q15 -18 15 -55q0 -45 4 -189l-15 -89q0 -4 -4 -4h-4q-12 2 -19 81q0 4 4 4l-4 27v66q-4 0 -12 4l-4 -8q4 -8 4 -12q-21 -4 -31 -11l-19 11q0 4 4 12q-4 21 -4 31h-4q-12 -4 -12 -23v-35q0 -4 -3 -4l3 -8v-15l4 -39h-4q0 -4 16 -23q-12 -13 -12 -19q8 -13 8 -24v-7h-4l-8 3
l-3 -23q3 0 3 -4q-9 -7 -15 -7v-27q12 0 12 -8v-8q-16 0 -24 -19v-70q-8 -58 -19 -58q-8 0 -8 8v7q0 113 -27 113q-6 0 -23 69q-18 0 -70 86l-15 11q-25 -12 -27 -31l-8 -4h-12l-96 171q-8 0 -8 15h-4q-12 0 -12 -62v-50q0 -20 -11 -23q-19 0 -31 212q-4 0 -8 12q4 7 4 16
q0 5 -27 27h-8l4 -8h-4q-5 0 -23 27v4l8 11q-27 0 -39 28q-7 1 -27 34v12q-21 0 -54 70q0 15 -12 15q0 -4 -4 -4v4l4 8q-8 0 -31 54q-9 0 -15 35q7 4 11 4v27q9 0 16 -4q6 4 15 4q10 0 27 -12h8v8l-8 12v23l4 19q32 0 74 -69l19 -12h15l12 8h4q11 -11 35 -20q0 -15 89 -120
q8 4 11 4q27 0 74 -62q11 -35 93 -108l8 4h11v-8h8v4l-8 12v27q0 3 4 3l-4 8v4q1 8 8 8v-16h8l4 39v12l-4 7l-8 -3h-4v19h8v-8h8v19q-16 0 -16 8q8 4 12 4v8h-8v11h4q8 -3 11 -3v7q0 12 -3 12l3 19v16l-3 7q7 0 7 8l-7 4q11 66 11 85l-8 12h4l8 -4v8l-4 15q3 16 8 16l-4 7
q0 4 4 12q0 4 -4 12l8 77l-8 35q4 15 4 31h11l-3 19q7 7 15 89h-8v8l8 12l-8 11v8q0 8 12 8v11q0 9 4 16q0 4 -4 4l4 19l-4 19q12 4 12 24q-10 0 -12 15q4 8 4 12q-8 0 -8 7q4 0 4 4l-35 4q0 -8 -8 -8q0 8 -7 8h-12l4 -8v-4q-13 0 -19 4q-4 0 -12 -4q-33 4 -50 4l-16 -4
l-8 4q-27 -8 -27 -15v-128q0 -9 -11 -50q4 -79 4 -109l-8 -3h-4q-9 0 -19 69l3 8q0 7 -7 31l4 8q-8 36 -12 189q-4 12 -8 12l-19 -4q-4 8 -4 12h-73v-4l19 -4v-8h-4q-87 0 -108 -8q-7 4 -16 4q-5 0 -39 -4q-24 18 -42 70l4 8q-12 15 -54 19q0 16 -24 31q0 11 -19 58v4
q0 6 35 23v4l-8 12v4q20 23 66 23h186q64 0 131 15q8 0 8 -3l27 3h43q33 0 69 4zM835 1390q1 -8 8 -8h11v8h-19zM885 1344h12q0 -8 -8 -8h-4v8zM789 949v-16h7l4 20v4h-4q-7 -1 -7 -8zM827 949h4v-4q0 -8 -8 -8h-3v4q1 8 7 8zM816 918h4q7 -1 7 -8l-7 -4h-4v12zM742 655v-12
h8v12h-8zM146 589v-12h20v8zM162 573v-4q7 -9 7 -15h4v4q-6 15 -11 15zM196 527v-4q0 -23 20 -23v4q-14 23 -20 23zM734 442l-3 -20l7 -3q0 3 4 3q-4 7 -4 20h-4zM204 419v-4q6 -16 12 -16v8q0 6 -12 12zM220 395q11 -16 11 -27h8q-5 27 -15 27h-4zM541 391q8 -32 8 -38h4
v19l-4 19h-8z" />
    <glyph glyph-name="K" unicode="K" horiz-adv-x="969" 
d="M247 1697q27 -16 36 -45q46 0 64 -77l9 -4l31 31h14q45 -36 45 -40v-9l-23 -136h-9l-9 5l-4 -23q1 -9 9 -9v18h4q9 -1 9 -9l-4 -23h-9v9h-9v-13q0 -15 -14 -32v-9q4 -27 14 -27v9h9l4 -18q-4 -27 -13 -27v23q-6 0 -18 -27q4 -9 4 -14l14 9l9 -4l-5 -23l5 -32l-9 -4h-5
l-9 4q9 15 9 27v14q-18 -4 -31 -4l9 -14v-54q0 -9 -9 -9q0 4 -5 4v-31h-13l-5 -54q9 0 9 -14q10 0 194 185q9 0 77 50h9v-5q-27 -23 -27 -36v-4h4q51 62 77 63l18 -9l54 22v9l-9 14v18q24 0 46 32v4h-5l-9 -4l-5 9q23 6 23 18h18q49 -27 59 -46v-9l-5 -27q0 -24 32 -27v-4
q-31 -36 -45 -36v-9h4l14 9h4l9 -5q0 10 23 14v-5l-63 -54v-5h4q97 73 122 73l9 -5q10 9 41 9v-4h9q0 14 45 31l4 9q-9 0 -9 9v5h9q0 -6 19 -23q-11 0 -32 -31q-46 -33 -77 -73q-9 0 -59 -49q-47 -32 -49 -41q4 0 4 -4q-14 0 -49 -27v-23q-18 -17 -18 -41q4 -123 4 -149
q0 -30 -27 -45q0 -27 -9 -27q-14 0 -23 63v59q0 24 -4 77h-9q0 -14 -9 -14h-9l-9 5q-13 -40 -41 -54h-22l4 -9q-31 -18 -31 -50h4v-9h-14v9q-9 -1 -9 -9q5 -9 5 -14q-26 -6 -41 -13l5 -9l-5 -27q40 -106 122 -249q14 -36 14 -40h-9l-14 9h-9q13 -32 36 -50l-4 23v13h4
q21 -27 36 -67q-9 -5 -13 -5q29 -90 45 -90v-5l-4 -9q42 -49 49 -49l-4 -10v-4l9 -14l-5 -22q18 -2 18 -14q-4 -9 -4 -13l9 4h4q59 -81 59 -99h23q32 -41 63 -95q6 0 13 -13q-4 -9 -4 -14q9 -1 9 -9v-4q-7 0 -18 -19h-27q0 12 -91 82l-9 4h-9v-4l14 -18v-5h-5q-41 0 -54 27
v5q18 0 18 9q-18 0 -22 36h-32q-9 0 -9 13h-9v-4l14 -23v-63l9 -13q-9 -2 -9 -9v-64q-14 -117 -28 -117q-18 0 -36 280q-81 50 -81 99q-32 27 -68 100q-29 15 -54 76q-7 0 -18 9h-4q4 -124 4 -171q-13 -81 -27 -81q-27 0 -27 221q-3 9 -9 85h4q0 57 -54 127q-27 33 -27 41
h-9l5 -9v-5q-42 -43 -77 -86l4 -18q-4 -35 -13 -59l4 -22q-9 -48 -9 -50q0 -9 9 -31q0 -52 -58 -86q4 -9 4 -14l9 5l5 -9v-63q0 -5 -36 -18l-5 -41q5 -8 5 -18q-12 -8 -46 -59q-4 0 -4 5q-7 0 -27 -23h-18q-5 0 -5 5l-9 -5h-4q-18 6 -18 41v108q0 16 4 41l-4 9q0 45 22 72
v18q-4 0 -4 -4q-68 0 -68 45q-4 18 -4 36v49q0 11 -5 18l9 19q-4 24 -4 40q11 9 22 9v18q-22 4 -22 14l18 40l-5 9l5 23q-9 0 -9 -27h-9v32q1 9 9 9q1 -9 9 -9h9q0 11 18 22v5q-14 0 -27 18l4 -9q0 -9 -9 -9h-9q5 132 18 203q9 0 9 18q-9 0 -9 9t14 9l-9 13v23l27 18v5
q-8 35 -18 36q0 11 18 67l9 -4h4v4l-18 19q27 23 27 31q-9 0 -9 14q-9 0 -9 -14h-9v27q0 19 9 36q-4 0 -4 5q9 4 13 4v14l-4 9q10 1 22 41q-22 5 -22 13v5q0 4 4 4l-4 9v32h4l9 -5l5 9q-9 0 -9 9v9l4 23l-9 4q0 77 32 77q0 7 36 27q0 65 27 172l-4 9q32 54 76 54zM76 460
q-6 -25 -14 -36v-5q6 0 23 23v9q0 9 -9 9zM17 424q5 -9 5 -14h9v5q-5 9 -5 13zM762 428h13q0 -9 -9 -9zM794 397l4 -9v-5h-4q-9 0 -9 9zM857 297l4 -9l-9 -4h-4v4q1 9 9 9zM830 171v-4q1 -9 9 -9h4v13h-13z" />
    <glyph glyph-name="L" unicode="L" horiz-adv-x="392" 
d="M169 1516h32q30 -52 36 -52v-8q0 -12 -8 -32q4 -8 4 -12l20 24l28 -12l8 4l8 -4q7 4 16 4q48 -29 48 -44v-4q-24 -83 -32 -140l16 -40q0 -37 -24 -84q4 -50 4 -56q-4 -38 -8 -44l4 -24v-12q0 -4 -4 -4q0 -15 24 -32q0 -134 -20 -224l4 -24q-10 -76 -20 -76q-8 -1 -8 -8
q3 -43 12 -52v-8q-12 -10 -24 -116q-8 -1 -8 -8q5 0 16 -24v-44q0 -74 -24 -108l8 -4q0 4 4 4l4 -8v-28q0 -8 -8 -8l4 -28v-8h-12v-12q12 0 12 -8q0 -32 4 -76q-4 -72 -8 -72q-13 0 -24 -12h-24l-4 -20q0 -8 4 -8q-6 -112 -20 -112q-21 0 -36 164q-4 0 -4 8l-8 -4
q-9 24 -24 28l4 20v40q0 21 4 68h-4q-5 0 -20 -28l-16 -4l-8 12l-8 -4q-4 0 -24 16q-23 -32 -28 -32h-4q-20 20 -20 28q12 164 12 172h4q-4 8 -4 12q9 41 16 52q-8 0 -8 8v40q16 117 16 172h4q-4 8 -4 12q7 8 12 68q-8 0 -8 12q0 38 16 184l-4 20q3 28 8 28q-4 8 -4 12
q0 113 16 172l-4 8q0 4 4 4l-4 20q0 41 20 152q-4 42 -4 68l8 4h4l8 -4q12 32 12 40v40zM309 716v-16h4v16h-4zM305 688v-24h4l4 28v4q-8 -1 -8 -8zM65 200v-16h4v16h-4z" />
    <glyph glyph-name="M" unicode="M" horiz-adv-x="1257" 
d="M119 1469h12v-8l-4 -8l8 -4h4q0 12 8 12h16l8 -4q0 12 8 12h4l16 -20l16 12h8v-4q-4 -8 -4 -12l8 4h12q0 -6 24 -28q8 -44 32 -44q9 -12 12 -12l-4 -8q12 -17 12 -40q-8 -1 -8 -8q4 -7 4 -16h-4q12 -36 24 -56l20 4h4q4 0 4 -4l8 4h8q58 -27 84 -112q24 -64 24 -72
q-4 -28 -4 -32q0 -10 44 -116q20 -128 52 -128q64 96 72 96q2 22 56 100q19 5 32 44q52 40 64 40l-4 8v4q19 13 28 36l8 4h16l-4 -8v-16h12q37 48 64 48q0 -4 4 -4q21 23 40 28v-8q-7 0 -36 -44v-8l12 8h4v-12q-12 0 -12 -8h24q0 20 44 56q51 88 80 88l-4 8v4q39 52 56 60
q0 12 80 88q0 7 44 36h12q0 -10 8 -20q-31 -45 -36 -60q-41 -21 -60 -48q18 -4 24 -20l-4 -24h4l8 4l4 -8v-8q-22 -32 -44 -104q15 -4 24 -28q-4 -132 -12 -164l4 -8q-8 -88 -20 -124q4 -15 4 -32h-4q0 -4 4 -4q-6 -112 -16 -112l4 -8v-8q-12 -9 -12 -24q8 -1 8 -8
q0 -18 -32 -36v-4q0 -20 12 -20v-16q0 -8 -12 -8v-4l8 -12q-4 -54 -12 -80q0 -19 20 -40q-14 -13 -24 -36l4 -20l-8 -16q4 -16 4 -28q-8 -13 -8 -24q4 0 4 -4l-8 -4l8 -64q-4 -8 -8 -36q8 -52 8 -64l-12 -8q0 4 -4 4v-24h4v16h8q0 -12 4 -28q0 -25 -28 -44q-26 8 -36 8h-4
q8 -25 8 -32q-28 0 -28 -120q-15 0 -24 -124l-12 -8q-8 0 -16 24q0 17 20 116l-4 8q0 4 4 4l-4 20v68q-4 0 -12 4q-13 -8 -24 -8q-8 24 -16 24h-4l-16 -12q-18 16 -24 16l4 20v28h8v-8h4v24h-12v8q0 4 4 4q0 4 -4 4l4 20v16h4l8 -4l4 28q-9 0 -20 40q4 12 8 12l-4 8v44
q1 8 8 8l-8 16q4 5 4 20q-10 0 -12 48l4 16l-4 8q8 28 8 48v4h8v-8h12q17 0 24 16q-5 24 -12 24l4 20q0 16 -24 32v24q13 20 16 20l-4 8v40h8v-12h4q0 6 8 16l-12 16v8q8 0 16 24l-8 12v8q16 24 16 56q-4 8 -4 12l8 4l-4 8v20q-16 0 -16 16l12 20v8l-4 8q-19 0 -112 -132
q-44 -35 -44 -48v-100q0 -14 -12 -40q-7 -152 -20 -152q-11 0 -20 216h-8q-35 -72 -60 -100q0 -6 -36 -68q0 -19 -16 -40q0 -9 24 -48q-4 0 -36 -40q-37 60 -44 60h-16q0 -12 -8 -12l-32 44v12l8 28l-12 -8h-4q-4 21 -4 24l8 -4v12h-8v-8q-62 101 -80 164q-7 0 -8 20
q0 12 24 12v8h-4q-13 -8 -20 -8q-32 43 -32 60l4 16q-6 0 -16 8h-4q0 -63 -24 -144q4 -8 4 -12q-8 -4 -12 -4v-4l8 -12l-4 -20q4 0 4 -4q-4 0 -16 -16l4 -8q0 -4 -4 -4q8 -25 8 -32q-5 -20 -12 -20q0 20 -20 32q0 -12 -16 -12v-4h8v-8q-15 0 -40 -28q13 -32 20 -32h12
q8 22 8 32h8v-20q1 -8 8 -8q0 18 8 36h8l4 -20q-3 -44 -8 -44q0 -4 4 -4l-4 -20l4 -20q-13 -12 -20 -12l8 -12v-20h-4l-12 8q0 -11 -8 -24q4 -8 4 -12h-8l-8 4v-8l16 -28v-4h-16l-8 4q0 -4 -4 -4q4 -80 4 -120v-48q0 -4 -4 -4q0 -4 4 -4q-4 -68 -16 -68q-28 16 -28 76v56h-8
q0 -60 -52 -60h-4q-8 0 -8 8v16q0 12 32 128v16h-4q-7 -4 -16 -4q-8 10 -8 16q-23 -28 -40 -28q0 8 -8 8h-4q-8 -26 -8 -36v-8q-17 0 -32 -16l-24 4q0 -4 -4 -4q0 8 -8 8l-8 -4q-4 8 -4 12q17 146 32 184v4q0 16 -4 16l8 112q-12 24 -12 28q0 18 4 172l12 40q-12 13 -12 20
q12 18 16 56q-8 0 -8 8q0 13 12 44l-4 16l4 8q0 4 -4 12q5 53 8 60l-8 28l12 80q0 4 -4 4l16 176l-4 8q8 30 8 36l-4 8q12 87 24 140q0 4 -4 12q7 61 20 64zM1183 1285v-12h8v12h-8zM855 1125h4v-4q0 -8 -8 -8h-4v4q1 8 8 8zM903 1081h4q8 0 8 8v4q-6 0 -12 -12zM807 1045
q21 16 40 16v4l-4 20h-8q-28 -32 -28 -40zM847 1025v-8h4q21 15 36 20q-4 7 -4 16h-4q-22 -28 -32 -28zM775 1017v-4h4q12 0 24 24l-8 4q-13 -24 -20 -24zM827 921v-8h8q6 0 12 16h-12q-8 -1 -8 -8zM823 901v-4h8v12q-8 -1 -8 -8zM491 865v-12h16q0 4 4 12h-20zM263 769v-4
q8 -10 8 -20q6 0 16 16v16h-4q-13 -8 -20 -8zM939 753h4q8 -1 8 -8v-4h-4q-8 0 -8 8v4zM1143 741q0 -12 -12 -12v-4q1 -8 8 -8h4q0 13 4 20v4h-4zM375 729l12 -8v16h-4q-8 -1 -8 -8zM463 565q7 0 20 -12h4v4q0 6 -16 16q-8 -1 -8 -8zM447 565v-8q0 -6 24 -24v12
q-7 15 -24 20zM263 509l-4 -8v-8q6 0 16 -16q8 4 12 4v4q-6 0 -24 24zM299 477v-12q10 8 16 8v4h-16zM267 453q-8 4 -12 4v-8h24v12zM287 337l4 -20h-4q4 -8 4 -12h8q1 32 8 32q-4 6 -4 24q-16 -4 -16 -24zM263 321v-8h16v8h-16zM155 277v-8q8 0 8 8v8q-8 -1 -8 -8zM1087 9
h8v-16q0 -8 -8 -8v24zM1095 -47q9 0 12 -60q-6 0 -20 36v16q1 8 8 8z" />
    <glyph glyph-name="N" unicode="N" 
d="M986 1527q0 -9 21 -25v-13l21 4q0 -4 17 -25v-21q-20 -32 -46 -261q-15 -20 -30 -215q-17 -35 -17 -47t5 -12l-30 -165v-29l8 -13l-12 -17v-4q0 -115 -30 -173v-12q0 -5 5 -5q-9 -45 -9 -96q4 0 4 -5h-8v-12q8 0 8 12h9v-4l-13 -25q9 -1 9 -9v-25l-13 -17q8 -13 8 -25
q-25 -54 -25 -63l4 -17q-7 -67 -17 -67l5 -9q-9 -50 -9 -55q9 -15 9 -33v-9q-21 -29 -47 -29l-8 4q-19 -9 -42 -9q-15 5 -17 5v-5q0 -20 25 -54q0 -7 9 -17q0 -9 -9 -9q-14 12 -38 64q4 7 4 16q-21 0 -21 22h-4l-4 -17l4 -21h-4q-4 0 -4 4q-7 0 -26 -17q-21 21 -54 139
q-16 20 -51 126q-40 73 -80 182h-8l-5 -21v-118q0 -36 -4 -114l-8 -4h-4q-17 0 -30 311q0 92 -51 203q-42 84 -42 109q0 9 13 9v8q-34 18 -34 30q-12 59 -29 59q4 -23 4 -26q-31 -522 -59 -522l8 -63q-4 -9 -4 -13q7 0 13 -13l-4 -50l4 -17q-4 0 -4 -4q-14 8 -26 8
q5 -53 5 -59l-17 -29q8 -1 8 -9l-8 -12v-5q21 0 25 -46l-8 -4q-22 13 -22 17q-21 0 -21 -55q0 -56 -21 -101q-4 -34 -12 -34q-7 0 -13 13v38q0 13 -4 21l4 25q0 10 -4 114q-13 0 -13 46v8h-12v-12h-13q-22 0 -25 12v26q0 4 4 4q0 46 -38 46q0 39 -34 76q-4 8 -4 17
q0 46 13 93v8q12 156 12 320q9 57 9 72q0 4 -5 13q14 192 30 236q0 4 -4 4q0 82 59 312q0 43 29 63h17q30 0 72 -51h4l-4 9q0 21 8 21q-4 8 -4 12q4 26 13 26l21 -4v25q1 8 8 8l4 -8l-4 -25h21l9 -5q6 17 12 17l34 -67h-4q8 -14 8 -21q0 -36 -8 -68q0 -11 67 -59
q42 -151 84 -227q0 -8 47 -72q0 -6 63 -143v-9l-8 -4q-5 9 -5 13q-8 0 -8 -13q4 -58 4 -71q-4 0 -4 -5q8 -1 8 -8l-8 -4q0 4 -4 4l-5 -17h17v8h13q0 -7 21 -42v-12q-8 -5 -13 -5l5 -8l-9 -13q9 -4 13 -4v-4l-4 -8q16 -3 16 -13l-25 -25q0 -7 13 -13q0 4 4 4q25 -47 25 -50
q9 4 13 4v8h-8q16 12 16 21q8 20 21 287q9 0 9 8q0 3 -4 26q0 32 25 92l-8 13v21q0 18 12 51l-4 8q11 29 17 29l4 -29q-8 -1 -8 -8q12 -17 12 -26h9l4 26q-13 0 -13 8q13 17 21 17v21l9 13v54q20 29 42 131l8 4q0 -6 13 -12l4 16h4l13 -8h13q13 0 42 147v9h4l8 -4
q13 44 13 46q-8 0 -8 8q3 26 46 68zM763 1156h4l4 -25q-8 0 -17 -38h-4q3 63 13 63zM746 1093q8 -1 8 -9v-8q-8 0 -8 8v9zM746 954q0 -7 -9 -17q10 0 17 -4l4 8q-4 9 -4 13h-8zM552 861v-4q1 -9 8 -9v5q0 8 -8 8zM565 840v-8q12 -14 12 -26h4v9q-9 25 -16 25zM413 646v-4
q4 -8 4 -13l9 5q-5 8 -5 12h-8zM607 621v-4h12v12h-4q-8 -1 -8 -8zM657 435v-25h9v25h-9zM662 309v-4q0 -3 4 -25h-9v-5h9q0 5 4 5q21 -33 21 -43h-4q-9 0 -9 13h-4q0 -4 -4 -13q17 -23 29 -80h13q0 16 13 34l-4 9l4 21q-7 3 -38 59l4 21q-17 8 -29 8zM615 204l-4 -30l8 -4
h9q0 19 4 25q-6 0 -17 9zM628 166v-13l8 -4v4q-4 9 -4 13h-4zM636 136q0 -11 30 -88h12l-4 8l9 4q25 -25 25 -33h4v12l-8 13q9 12 12 42l-12 -8h-13l-17 21h-4v-4q4 -9 4 -13h-8q-15 0 -21 46h-9zM712 -32h4v-17q0 -4 -4 -4l4 -9q0 -6 -12 -12h-5q-12 4 -12 25q0 8 12 8h13
v9z" />
    <glyph glyph-name="O" unicode="O" horiz-adv-x="927" 
d="M539 1443l4 -9q4 0 4 4q38 -8 44 -8l9 4q36 -7 36 -22l13 9l4 -9l9 4q44 -17 44 -44l9 5q1 -9 79 -93q84 -117 84 -203q5 0 5 -17l-5 -71q5 -39 5 -66q-14 0 -14 -9q18 0 18 -13q-4 -42 -13 -66l4 -9q0 -22 -22 -22q4 -33 9 -44q-11 0 -18 -49h9v-9q-20 -111 -44 -163
q-34 -31 -53 -145q-11 -199 -26 -199q-17 0 -22 -79l-14 -9q-8 0 -8 9q4 70 4 84l-4 17q4 7 4 27l-4 9q4 7 4 17v9h-9q-16 -70 -53 -70q-28 -55 -31 -111q-25 -23 -53 -66q-8 0 -8 9q-14 -2 -36 -49l-39 -35q-15 9 -27 9l9 -13q0 -9 -9 -9h-13q-9 0 -9 9l35 53h-4l-26 -14
q-89 0 -150 31h-5q-4 0 -13 -4q-9 0 -57 18q-18 -118 -27 -234l-13 -9h-9q-8 0 -13 40l4 17q0 21 5 150q-7 125 -71 247q0 61 -62 141l-4 53v22l9 14q0 13 -5 13q14 71 14 163q1 9 8 9q0 4 -4 4q23 88 40 88h9q8 -4 13 -4q13 32 13 40q-13 2 -13 30q-9 0 -22 -48h-5v9l14 48
q-5 28 -14 53q20 93 66 172l133 172q9 30 75 102q103 110 203 110zM622 1178q26 -44 31 -44v5l-4 26l13 22v4q0 9 -13 9q-27 -9 -27 -22zM402 870h-9q-9 0 -9 8q-4 90 -4 124q-5 0 -31 -66q-6 -14 -9 -14l5 -8q-5 -27 -27 -27v-4h9v-18q-13 -49 -31 -167q-9 4 -13 4v-22
q0 -4 -5 -4q0 -5 5 -5l-5 -22q5 -45 5 -70h-5q9 -26 22 -120l-8 -4l4 -9v-4l-4 -9q7 0 22 -44l-5 -9q37 -128 62 -128q0 -9 35 -9q52 0 159 155q31 64 31 66l35 101l-9 58q9 48 22 48q9 -4 14 -4l4 9q-4 0 -4 4l-9 -4h-9q0 25 -18 57h9l9 -5v27q-7 0 -22 31q22 25 22 48
q-13 0 -13 9v5h13v4l-9 13q9 0 9 9q-7 18 -13 18l4 22v4q-5 0 -26 13l4 9l-4 22q4 8 4 18q-9 0 -9 9v4l5 9q-9 0 -14 35q-37 119 -57 119q-114 -63 -114 -198q0 -88 -18 -88zM128 909l-4 -9v-4h4q9 0 9 9zM362 914h9v-14q0 -8 -9 -8h-4zM358 887l4 -9v-4q0 -9 -9 -9l-4 9v4
q1 9 9 9zM62 737l-4 -9v-8h4q0 13 9 13v4h-9zM283 724v-13q9 0 9 9zM345 173v-9l13 -13l22 4h13q0 5 4 13l-8 5l-9 -5l-9 5q-8 -5 -18 -5zM472 63l-13 -22h5q6 0 17 17z" />
    <glyph glyph-name="P" unicode="P" horiz-adv-x="850" 
d="M180 1522h7q46 -40 46 -96q26 9 58 31q11 0 26 4l4 -8l-7 -11h30q14 0 35 4q7 0 99 -42q10 0 46 -8l19 4q34 -4 57 -4h12q75 -19 103 -61q77 -117 77 -172q0 -4 -4 -12q8 -83 19 -141l8 3h3v-3q-34 -76 -34 -85q4 -197 4 -286l-8 -4h-7q-6 0 -12 11q0 24 -11 157
q-50 -73 -88 -88q0 4 -4 4q11 26 11 30h-7q0 -15 -8 -15h-4l-7 4q0 -8 -4 -8l4 -7q0 -4 -27 -27l-19 4q-36 -43 -50 -54q4 -7 4 -11l-12 -8h-26q-4 0 -4 4q-42 -8 -42 -23q3 -45 3 -65v-107q0 -93 -19 -100h-4q-9 0 -19 88q-5 8 -23 161h-3q-20 -4 -23 -4q-62 0 -84 23
q-24 16 -31 31q-11 0 -27 19q0 -4 -4 -12q8 0 19 -23v-3l-3 -19q11 0 11 -8q0 -27 -27 -46q-7 0 -7 11q0 3 3 23l-3 8l3 23l-7 4q0 -28 -4 -42q4 -15 4 -31h-4q0 -4 4 -4l-4 -19v-15h-11v-12l7 4h4l4 -38v-4l-4 -19h-8v8h-7l-8 -35v-15q11 0 15 -38h8v-16q-8 0 -8 12h-3
l-4 -19v-27q0 -8 -19 -8v-7l7 -12q-4 -33 -4 -42q4 0 4 -4q-7 -1 -7 -7q7 0 7 -4q-7 -13 -7 -23v-19q0 -12 3 -12l-3 -19v-57l3 -23q-2 -14 -23 -23q-7 0 -7 23h-8v-23h-4l-11 8q0 -8 -8 -8l4 -8v-4h-4l-7 4l-4 -7v-4q12 0 19 -8q8 4 11 4q1 -8 8 -8l-8 -38l4 -8l-4 -7
l4 -19l-19 -8l-8 4q-7 -4 -11 -4l-19 31l-8 -4h-15q-12 0 -12 61l4 8q-7 15 -7 23l3 7q0 4 -3 12q0 8 11 88q-4 6 -4 15q4 7 4 15q-6 0 -34 31v-8h-8q0 7 -8 19q4 8 4 12q-11 0 -19 50v22l11 85l-3 23q7 98 7 145l-7 19q10 28 19 379q25 375 49 375q23 65 50 65v3l-7 12
q28 0 34 53q7 0 27 46v4zM390 1216l-4 -8q4 0 4 -3q7 3 15 3v4zM363 1067h-3q-10 0 -23 96h-4l-54 -43q-22 0 -30 -76q-12 0 -12 -11q19 -119 19 -173l8 -3q95 0 245 80q10 69 19 69h4v-12h3q16 76 16 88v4l-8 -4h-4l8 61l-15 23l-73 16q-33 -8 -38 -8q0 8 -8 8h-19
q-8 0 -19 -107zM532 1052h7v-19q0 -8 -7 -8v27zM528 990v-19h4v19h-4zM302 730q-33 4 -42 4v-15q3 -12 31 -12h15q0 8 15 8q0 -8 4 -8q69 10 69 35h-4q-36 -12 -88 -12zM222 654v-23h7l-3 23h-4zM229 528h8l4 -16l-8 -3l-4 7v12zM229 470h12v-23q0 -7 -8 -7q-7 0 -7 7v4z
M245 463h11v-8q0 -8 -7 -8h-4v16zM229 432h8v-11h-8v11zM210 417h8l4 -16l-8 -3l-4 7v12zM226 359h11v-15q0 -8 -8 -8h-3v23zM15 191h8v-15h-8v15zM11 164h8v-30h-8v30zM34 160q0 -3 4 -3q-4 -35 -11 -35l-4 8q0 29 11 30zM8 126h7v-27l12 8h4v-27q0 -7 -8 -7h-4v3q4 8 4 12
l-8 4v-19h-7v53zM23 4q8 -1 8 -8q0 -8 -8 -8l-8 12z" />
    <glyph glyph-name="Q" unicode="Q" horiz-adv-x="1116" 
d="M784 1497h39q26 -20 26 -31h22q26 -39 43 -39q181 -43 201 -65q21 0 26 -61q-6 -18 -13 -18h-4q-11 9 -18 9l-22 -4q0 38 -82 48q-3 5 -96 26q-9 -4 -13 -4q-10 0 -18 4q-50 -4 -69 -13v-5q0 -8 65 -26v-4q-9 -1 -9 -9q92 -74 92 -130q-9 -2 -9 -9q17 -79 30 -79
q9 0 18 53q-12 40 -26 109q-6 0 -13 30q0 19 48 22q74 -44 74 -96v-57q-8 0 -26 9q0 -4 -5 -13q6 0 18 -26v-13q-18 -18 -18 -26q0 -5 5 -13l-5 -27v-8q26 0 26 -26q-8 -73 -21 -109q8 0 8 -22l13 9q5 -9 5 -13q-9 -15 -9 -22h-4l-9 4l-9 -13q9 -1 9 -9v-4q-13 -14 -13 -22
q0 -77 -18 -100q18 -16 18 -57v-17l-31 -26q0 8 -8 8q0 -17 -13 -17h-5l-9 4l-4 -8v-5q18 -2 18 -13q-8 -35 -57 -74q0 -25 -4 -30q4 -8 4 -18v-13h-4l-14 9q-7 -49 -30 -83q0 -9 -17 -9v-4l21 -65q20 -37 101 -153l-5 -22h-9l-8 5q0 -57 -13 -57q8 -16 8 -35q0 -26 -43 -26
q-17 -4 -35 -4l-31 4q35 -71 35 -83q-24 -30 -43 -30h-22q-17 -144 -31 -144h-4q-20 0 -30 196q-58 153 -88 153q-17 0 -34 4q-36 -35 -57 -35v-4h9v-9l-105 -39q-4 -127 -48 -127q-22 37 -22 122l-8 5h-26q-44 0 -140 39h-22l-26 -4q-39 0 -100 87q-44 133 -74 270q0 4 4 4
l-4 22v13q13 20 13 31q-20 100 -39 126q0 17 -9 17q41 166 57 166l-5 9v4q22 12 22 18l31 78q13 28 30 105q0 25 39 47l-4 22q5 0 61 74l-4 9q34 48 34 65l-17 -8l-4 8l26 22h4v-13h5q10 9 17 9v13q-13 0 -13 9l43 39h5q30 -11 30 -22q10 0 35 35q-4 8 -4 17q90 57 139 57
l18 13h4l22 -4q0 30 100 48q1 -9 9 -9l126 30v5h-4q-46 -9 -70 -9q0 10 44 22q0 13 26 26zM627 1140l-4 -9v-26q0 -183 -27 -183l-8 -5q-13 0 -18 75v13q0 22 5 39q-5 23 -5 43v44h-13q0 -17 -9 -17q0 4 -4 4l4 9v4q-5 0 -56 -70h-5v9l9 13v9q-47 -27 -100 -127
q-9 0 -52 -78q-61 -62 -109 -205q-13 -46 -18 -100q0 -36 26 -113h5q27 0 117 56q9 -4 14 -4q0 -22 -96 -122q0 -20 -22 -31q52 -43 104 -65l9 4q14 -21 61 -39q0 -8 26 -8q0 4 92 91l4 9v8l-35 27v8q0 9 26 18q8 -5 18 -5q3 22 22 22l-5 9q0 5 35 17l5 -8l8 4l22 -4v4
q-12 32 -48 74v13q0 7 18 18h8l26 -18q9 0 9 9q-6 0 -17 17h13q0 -10 26 -13q0 -17 22 -17q0 5 30 26l9 -4l35 56h-9q57 101 57 118q-9 33 -9 39q0 26 22 26q0 9 -26 44q-9 32 -9 35q9 0 9 8q-12 0 -18 48q-4 0 -4 5l4 30q-14 0 -35 39q-21 13 -65 96q-37 31 -74 31z
M474 1035l5 -9l-13 -8v8q1 9 8 9zM444 983h9v-9q-16 -26 -22 -26v9q13 20 13 26zM980 612v-8h4q9 0 9 8h-13zM200 504h13v8h-4q-9 -1 -9 -8zM309 229v-9h13v9h-13zM335 216l4 -9v-8l-13 -18q24 -9 61 -9l5 9v4q-30 31 -53 31h-4z" />
    <glyph glyph-name="R" unicode="R" horiz-adv-x="926" 
d="M211 1590q20 -3 20 -21h8v9h9q8 0 20 -50q-8 -11 -16 -74q5 -14 21 -29q-9 -39 -9 -50q9 -4 13 -4q54 22 82 41q23 0 46 5q4 -9 4 -13h8q0 6 8 17l21 -4q76 8 83 16q136 -14 198 -54q106 -60 107 -95q79 -99 79 -169q4 0 4 -8q-3 -62 -17 -62l4 -17l-25 -95
q-12 -5 -24 -37q-16 -12 -29 -12q0 4 -4 4q-28 -28 -29 -37q4 0 4 -4q-8 -1 -8 -8v-5l8 -12l-8 -4h-4v8h-5q-41 -14 -41 -124q-4 -43 -4 -95q-8 -18 -17 -20q-16 24 -16 37v33q0 78 -21 78q-30 -9 -99 -66q0 -10 -45 -29q0 -9 -29 -24q-4 -16 -17 -25l71 -103h-13
q0 12 -66 86l-8 4v-8q109 -122 128 -169q22 -18 49 -83q18 -12 50 -95v-4l-4 -8q12 0 16 -33q-4 -7 -4 -17q28 0 46 -74q45 -27 45 -70q8 -1 8 -8v-5h-12l4 -8v-4l-4 -8q16 -2 16 -13q-16 -2 -16 -33q12 0 41 -33h8q0 17 9 17q3 -25 16 -33l-4 -8q5 -17 25 -17q0 -11 -8 -25
q13 0 37 -29l8 5h8v-5q-4 -8 -4 -12q6 0 17 -16v-5q-7 0 -33 -16q21 -32 57 -70q0 -15 21 -42q0 -6 -12 -12h-4q-17 20 -62 33q-61 54 -83 91q-8 0 -29 8l-4 -8q12 0 12 -8v-13q-21 -31 -45 -49q0 8 -33 53q0 13 -8 29l-9 -4q-10 8 -16 8v9h4l8 -4v8q0 8 -74 99q-6 0 -17 8
v-132l5 -25q-5 -78 -17 -78q-33 31 -33 70v12q0 219 -25 219q-17 95 -29 95q9 0 9 8q0 7 -17 21l4 8q-4 9 -4 13h-21q-12 10 -12 16h-12l-9 -4q-8 8 -8 25h8q0 14 -28 45l4 9h-13l4 8q-5 17 -41 49q0 10 -37 62q-3 20 -21 33l4 9q-41 27 -41 70q-33 12 -33 41h-8
q-8 -1 -8 -8v-4q12 0 20 -17v-37q0 -74 -16 -74q0 6 -13 12h-4l4 -21v-37l-8 -12q0 -38 21 -58q-6 -21 -17 -83h-8q0 -3 -4 -99q-7 0 -25 -33q-27 0 -37 -12q-4 9 -8 54q4 21 4 49h-4q-9 -4 -13 -4l-4 8l4 17q-4 12 -8 12l8 99q-4 0 -12 4q-29 -5 -29 -16v-41q0 -30 -12 -33
h-9q-10 76 -20 90q-14 -8 -21 -8q-4 7 -4 17l-12 -9q0 11 -17 13q0 62 25 153q0 4 -4 4q4 35 16 49l-8 13l4 41l-12 21l4 16q-4 8 -4 13l4 8q-4 7 -4 16q16 20 16 29q-8 0 -8 8v5q7 42 25 70q-9 27 -9 33q9 28 21 115q-4 9 -4 13l12 8l-4 8v9q13 14 13 49l-13 17v8l17 4
l-13 17q0 4 4 4l-4 20v13q0 8 13 8v16l-9 13v20q0 28 33 50q-12 19 -12 37q0 3 4 25q-4 16 -4 29q8 4 12 4l-4 17q0 17 9 41l-5 16q0 11 9 50l-4 8q12 20 20 83h4l-4 8q25 35 25 128q16 12 29 12q4 0 4 -4q13 8 25 8v9h-8v8zM289 1557l8 -4q0 -5 -8 -46h-8q0 21 8 50z
M343 1123v-4q12 0 12 -8v-4q0 -48 -29 -87v-41h8q0 -8 -8 -8q0 4 -4 4q0 -13 -21 -13v-4q13 0 13 -8q0 -18 -21 -29l-4 -29l8 -4v8h9l4 -20q-5 0 -25 -75q8 -1 8 -8v-16q0 -5 -4 -5q4 -5 4 -28q79 22 79 28q0 4 41 29v4q0 10 -4 17q8 12 8 29h21q128 46 128 78q32 38 57 38
q23 74 46 99q0 4 -4 4q4 29 8 37q-4 7 -8 37h4q0 56 -79 83q-74 -8 -74 -33q-10 -124 -29 -124q-19 2 -29 161q-8 0 -8 16h-4q-76 -23 -79 -33q0 -91 -24 -91zM743 1136l4 -17q0 -23 -41 -144q20 1 50 58h4l-4 8q9 7 16 74l-16 25h-5zM702 1086l-4 -16h8v16h-4zM273 900v-28
h4v28h-4zM446 550v-5q8 -10 8 -16h8q-8 18 -16 21zM54 483l4 -24h12q0 9 -4 16q4 7 4 17zM54 426l4 -21h4v21h-8zM132 417l-4 -20q6 0 12 12q0 8 -8 8zM132 339q0 -4 -4 -12h8v12h-4zM471 153v-12h8v4q0 8 -8 8z" />
    <glyph glyph-name="S" unicode="S" horiz-adv-x="876" 
d="M431 1454h33q50 -10 129 -49v9h16l25 4h17q1 9 8 9h8q203 -30 203 -49q16 -14 21 -31l-4 -18q4 -8 4 -13l-17 -9l5 -9v-9l-29 -4q-15 0 -38 4l-8 -4q-17 4 -29 4l-21 -4l9 -13q-23 -18 -121 -18q0 -8 -70 -18q-8 -134 -33 -134q0 -44 -13 -44q-7 0 -25 98q-7 0 -20 13
q-37 0 -87 -53q-15 0 -125 -49h-4q3 -19 71 -62q0 -9 49 -27q0 -15 104 -76h4v-9h-12q-9 0 -9 9l-8 -4q-17 9 -25 9q0 -9 -25 -14q-44 23 -78 27q0 6 -17 9q-8 -5 -13 -5q26 -20 282 -142q27 -15 38 -44v-9q-9 -11 -9 -18q54 -66 54 -76q0 -31 75 -71q62 -41 62 -89
q4 0 4 -4q-33 -5 -33 -23q33 -62 42 -106q-13 -56 -29 -76q-12 -27 -17 -80l-17 -18q-20 7 -20 31v49h-9q-10 0 -66 -89q-54 -33 -54 -62q0 -95 -25 -151q0 -76 -16 -76q-9 0 -9 9q0 64 -20 213h-13l-12 -9q0 7 -13 14l-195 -94q-7 0 -33 9q-8 -4 -12 -4l-21 4
q-48 -16 -58 -31v-53q0 -10 -4 -18q0 -5 4 -5q-8 -110 -33 -218l-8 -4q-17 19 -17 36v84q0 165 -29 165q-5 0 -21 22q4 27 4 40q-120 15 -120 62q0 7 -21 76q0 10 38 13v5q-79 77 -79 84q8 34 8 45q-8 0 -8 9l4 9l-25 35l4 18q-4 25 -4 40l4 9q-8 23 -8 36l4 9q-8 14 -8 22
q4 0 4 4l21 -4l25 22h4q134 -79 232 -174q7 -13 83 -71h4q14 0 125 67q22 0 53 40q60 36 67 36v9q-59 54 -261 218h-5q-2 -54 -16 -54q-18 0 -33 111q-71 67 -71 98q-29 0 -83 174q-15 0 -29 49l9 18l-5 9q12 95 112 222q17 17 63 53h8v-13h12q0 18 9 18q1 -9 8 -9h4
q4 0 54 44q0 -4 4 -4q55 34 108 53l8 -4q19 40 50 40zM381 324h8q19 9 21 18v4q-26 -9 -29 -22zM265 266q13 -9 21 -9q6 0 45 22v18h-4q-62 -9 -62 -31zM514 101v-4h4q8 0 8 9v9q-6 0 -12 -14zM8 97l12 -18v-22q21 0 42 35q-21 9 -29 9z" />
    <glyph glyph-name="T" unicode="T" horiz-adv-x="453" 
d="M17 1716h113q108 0 108 -18q30 4 50 13q316 -18 406 -54q167 -19 167 -40q212 -18 212 -41v-4h-9q-15 0 -23 4l-27 -4h-18q-12 0 -27 9l-27 -5q-9 5 -13 5v-9h-14l-14 9q0 -14 -9 -14l-13 9h-14l-13 -9h-45q-33 -31 -50 -31v4q-49 -22 -95 -31q-33 -55 -58 -55h-59
l-27 -230q-15 0 -22 -45h-10q-10 0 -22 131v18q0 38 4 122h-13q-27 -16 -27 -41v-94q0 -7 -18 -18l-9 4l-9 -54q0 -5 4 -5q-4 -54 -13 -54l4 -22l-9 -32l5 -45q-17 -104 -27 -104l4 -18l-4 -31l4 -32q-9 -80 -22 -158l4 -9q0 -9 -18 -95q0 -4 5 -13l-9 -72q4 -8 4 -18
q-9 -15 -9 -27v-9q0 -10 5 -18q-5 -9 -5 -14l5 -22q-9 -32 -9 -55v-81q0 -9 -9 -9q-11 0 -18 59q-5 0 -5 4l5 9l-9 5h-5l-5 -18q5 -14 10 -14q-10 -18 -10 -31l5 -18l-5 -9q5 -25 5 -36q-17 -65 -23 -172q-13 0 -22 -162l-9 -5h-14v45q0 20 -9 36q5 50 5 86v27q-9 65 -9 140
h-5q0 -13 -27 -59l5 -9q-14 -20 -14 -31q5 -25 5 -36q-14 -18 -23 -18l9 -14q-26 -67 -36 -257q0 -84 -27 -113q-8 -135 -27 -135h-9q-14 5 -14 27v18q9 146 9 158v9q-13 0 -13 9q0 5 4 14l-4 18q3 39 13 49v9h-9v18l5 27l-5 9q9 0 18 149q-13 0 -13 9q0 37 9 172l-14 9
q15 155 27 203l-4 27v13q9 63 14 63l-5 23v13q0 12 9 41q-4 9 -4 14q4 9 4 13q0 5 -4 5q0 18 22 94q-4 24 -4 27q0 8 9 36q0 5 -5 14q5 30 5 50v45q9 0 9 4q-5 9 -5 14l14 13q0 5 -5 14q23 232 41 361q0 14 4 76q-9 0 -9 5l-9 -5q-5 0 -22 32h-68q-9 -1 -9 -9
q0 -130 -23 -135h-9q-17 148 -27 148q-54 0 -54 23q0 11 9 41q-7 18 -13 18h-5l-31 -5l-5 9l9 14q-12 0 -22 22v5q0 4 4 4q-18 36 -18 50v13q10 0 14 27h81q58 14 76 14zM270 417v-23h9q0 11 5 18l-9 5h-5z" />
    <glyph glyph-name="U" unicode="U" horiz-adv-x="969" 
d="M296 1495q19 0 25 -26l9 5q17 0 17 -69q-17 -121 -17 -150q8 -28 8 -38q-12 -90 -12 -249q35 0 42 -98l5 -22q-39 -156 -47 -240q4 -40 4 -77q-21 -7 -21 -38v-4q12 0 12 -9v-26q0 -8 -12 -8q8 -11 12 -43q-4 -9 -4 -13l13 -9h13q184 40 184 90q31 30 56 90q6 17 21 30
q0 28 34 107q0 25 13 56q-4 8 -4 17h4q0 5 -4 5q7 59 21 59q9 -4 13 -4l4 9q-4 8 -4 13l-8 -5h-9v13q0 11 13 39q-9 0 -9 8q7 0 13 17q-8 0 -8 9q4 60 25 60h9l-4 8v5h12v8h-12v-8h-9q-9 0 -9 13q0 56 30 90v12q0 37 17 73q17 86 26 86q14 -9 26 -9q0 60 13 60h8
q19 -17 35 -17l12 9q9 0 9 -17h9v34q0 3 12 13q0 85 35 85l17 13q6 0 17 -21v-17q2 -51 13 -52l-17 -120l8 -21l-4 -9l4 -17q-38 -211 -68 -338q-11 -99 -22 -99v-21q0 -30 -30 -193q5 -7 5 -21q-9 -14 -9 -26l4 -30q-8 -1 -8 -8l4 -18q-17 -103 -47 -175q4 0 4 -4
q-15 0 -21 -35h-5l-4 9q0 26 17 26v4q-9 0 -17 4l-8 -13v-21q20 -27 21 -34q-9 -1 -9 -9v-26q-19 0 -38 -25h-4q-10 8 -26 8v17l4 22h-4q-5 0 -26 -60q-32 -64 -43 -64q-8 0 -17 -167q-14 -38 -25 -39q-8 0 -18 26q5 29 5 47v8q-26 0 -26 90q-14 0 -17 26q-4 0 -13 4
l-103 -55q-48 -13 -73 -13v-9q26 -4 26 -13v-4q-26 -1 -26 -8q-95 0 -137 81q-23 17 -42 17q-14 -9 -26 -9l-17 13q-10 -73 -26 -73q-17 25 -17 35q0 175 -21 175l4 22l-13 21q4 0 4 4q-30 14 -30 69l5 9q-5 7 -5 17q22 20 22 47l-13 -9h-9q0 14 -4 22q9 34 21 34v8h-12v5
q10 10 25 51q-8 0 -8 9v4q0 4 4 4q-4 9 -4 13l-13 -8q-4 8 -4 12l4 30q-4 9 -4 13q8 0 8 9q-17 19 -17 30q13 21 17 47l-4 8q4 22 8 22q-8 17 -8 30q0 7 8 26l-4 8q30 177 30 180q0 4 -4 4q38 318 64 407q0 59 60 77q0 -6 30 -51v-4h9q0 89 38 89q39 34 39 39zM279 1050
l8 -13q-21 -35 -21 -52h8v-4l-4 -8h9q17 7 17 29v13l-9 13q13 0 13 9v8q-13 0 -13 13q-8 -1 -8 -8zM154 163q0 -34 -8 -34q-9 0 -9 8q-7 -4 -17 -4l9 -13h-9v-21h9l-5 8v9h13q2 -17 13 -17h4q0 13 13 13v25q0 23 -13 26zM458 56v-4h13q9 0 9 8v5q-14 -9 -22 -9z" />
    <glyph glyph-name="V" unicode="V" horiz-adv-x="917" 
d="M154 1583q23 0 48 -48q13 0 27 -158q3 -1 30 -148h-9q-6 48 -17 48v-5q13 -38 26 -153q20 0 48 -210q35 -89 70 -253q-4 0 -4 -5q11 0 22 -92q4 0 4 -13q6 1 70 88h-4q-9 0 -9 -13l-9 4q44 74 66 144q16 0 31 44q17 11 26 66q34 27 48 83q35 50 122 210l9 4l-4 9v4
q11 22 30 22l-4 22v4h13v-4q-4 -9 -4 -13q7 0 26 52h9v-8l9 4l-5 9v4q1 9 9 9v-9h4v5q-4 8 -4 13q32 6 79 118h8l9 -5q1 9 9 9h13q20 -17 22 -17q8 4 17 4l5 -9v-22q-26 -23 -44 -91h-9l5 -9q0 -12 -9 -26q4 0 4 -5q-11 0 -17 -30q-8 -5 -18 -5v-13l9 4q0 -4 4 -4
q0 -16 -26 -35q0 4 -4 4l4 -21v-9q-16 -35 -22 -35l5 -9v-4q0 -8 -22 -13l4 -9v-9l-9 -13v-4l5 -22q-28 -32 -35 -57q-19 -10 -22 -22l4 -26q-13 -20 -13 -35q13 0 13 -9t-13 -9v-4q18 -31 26 -31t22 22h13q-6 -21 -30 -39q0 -22 -26 -53q4 -9 4 -13l-22 -13l4 -9l-17 -26
q4 -9 4 -13q-8 0 -48 -79v-4h13v8h9v-4q-29 -48 -35 -48v9q4 8 4 13q-10 -2 -21 -31h4l13 9v-9q-44 -50 -44 -205q-16 -184 -30 -184q-9 0 -18 26q0 49 5 149l-5 26q5 0 5 4l-9 5q0 -23 -35 -96q0 -17 -9 -27q4 -7 4 -17q-4 0 -17 -18l4 -8v-5q-13 0 -13 -9v-8l5 -22
q-15 0 -40 -70v-5q1 -8 9 -8q-21 -72 -35 -272l-18 -17q-39 22 -39 44v70q0 4 -9 35v35l-4 43q-4 0 -4 -4q-20 0 -66 35q-9 -4 -13 -4q-23 49 -48 65v5l-9 -5l-26 22v5q0 13 4 13q0 112 -26 192q0 29 -13 31q-48 -24 -48 -75q-5 -52 -5 -118v-8q0 -34 -17 -40
q-12 25 -22 145v43l-9 31q-10 455 -22 455v22h9v35q-18 0 -18 9l9 13q0 4 -4 4l4 9q0 4 -9 35v9q0 4 5 4q-6 22 -13 22q0 -5 -5 -5l-4 9v5h9v8h-9l4 22q-4 48 -17 48l4 22l-9 13q0 5 5 5q-13 23 -40 170q-5 47 -17 57q14 7 39 13q9 -4 13 -4q2 9 9 9q14 -9 26 -9h5
q-9 37 -9 44l9 4h4q5 0 5 -4l8 4h5l8 -4q0 13 9 13q-4 101 -13 140q4 52 39 52q2 9 9 9zM902 1386v-4q9 0 9 9v4q-9 -1 -9 -9zM793 826q0 -9 -13 -26h9v9h8v-13h5v21q0 9 -9 9zM780 787v-13h4q0 4 5 13h-9zM360 581v-4q1 -9 9 -9v13h-9z" />
    <glyph glyph-name="W" unicode="W" horiz-adv-x="1341" 
d="M-6 1545q9 0 27 -53h4l13 9q6 -31 14 -31h4q0 11 18 13q0 -17 40 -44q4 -45 18 -45v-31l22 -4l9 4q1 -9 8 -9h5v9h4q5 0 5 -4l9 4h8q45 -47 45 -102q12 -77 22 -93q-5 -9 -5 -13l5 -9l-5 -9q36 -112 40 -155q0 -4 -4 -4q31 -128 31 -138q-9 -1 -9 -8l5 -9l-5 -27v-4
q26 -51 36 -120h4l-4 -22q8 -10 8 -27h5q0 14 9 14q0 -5 4 -5q27 76 80 146q10 0 31 31h18v9q0 9 -9 9q0 54 62 129q9 4 13 4q1 -9 9 -9q0 5 4 5l-4 31v9l62 79q0 9 22 31h5l13 -9q9 20 18 23h8v-14l9 5h9q22 -39 22 -84q-31 -17 -31 -54q0 -11 45 -48q0 -11 57 -129
q54 -116 76 -186h17q0 29 27 31q0 18 26 18v18l-4 22h9v9h-9v13l9 -5q9 0 9 9v5l-9 13v13q0 8 22 14l-4 8v23q22 0 22 13v13q-14 0 -14 9q0 8 27 27v4h-9v9q7 0 18 22q4 0 4 4q0 5 -4 5q2 33 31 80q0 24 66 230q27 108 49 164v4l-13 18q15 27 22 27h4q9 0 9 -14h5l13 9h13
q14 0 14 -17h13l13 8h9v-4q-13 -39 -13 -58l4 -8q-20 -85 -26 -85l4 -8l-13 -27v-22q0 -7 13 -13l18 13h9q13 0 31 -40q0 -23 -45 -102l-9 -40v-4q27 -30 27 -36q0 -22 -9 -22q0 -7 22 -26l-31 -76q0 -11 14 -49q0 -17 -45 -84q0 -31 -22 -53q-5 -288 -31 -288h-4
q-8 0 -18 67h-4q0 -5 -5 -5l5 -9q-51 -45 -62 -111l4 -8q-17 0 -22 -40q4 -9 4 -14q-9 -1 -9 -8q9 -2 9 -9l-31 -27q9 -14 9 -26q-20 -22 -31 -102q-31 -8 -31 -49q0 -5 4 -13q0 -12 -22 -58v-160q0 -32 -13 -35h-4q-23 28 -36 182q0 36 -62 71v8q5 9 5 14q-6 0 -71 48h-5
l9 45q0 6 -80 181v14h5l13 -9q7 0 13 13v9q-11 11 -31 49q-13 0 -13 9q0 4 4 4q-4 9 -4 13h-4q0 -4 -5 -13q9 -18 9 -27h-9q-25 41 -49 102q-4 0 -4 5q4 0 4 4l9 -4q9 0 9 9q-7 0 -18 17l-8 -4q-23 31 -27 31h-9q0 -10 -31 -58l-4 -31q0 -67 4 -208q-5 -159 -22 -159
q-7 0 -13 13v111q-31 0 -31 102v13q-17 -5 -45 -67q0 -4 5 -4q-8 -49 -22 -49l4 -9q-12 -14 -22 -39q-20 0 -27 -40l5 -27q-21 0 -31 -62h-27q0 -14 -31 -35h-4l-9 4q0 -7 -14 -13q-9 0 -44 164q0 22 -31 177l-22 -5v5l-9 -5q-8 0 -49 147q-13 40 -70 310q-18 46 -45 177
q-22 54 -44 177q-5 0 -5 5v22q0 4 5 4l-5 9v22q-14 0 -22 62l5 23q-18 114 -18 132l4 32h5l9 -5q-9 42 -9 67q9 27 22 31h4l9 -5q1 9 9 9zM792 907h9l8 -31h-4q-10 0 -13 31zM668 490v-8q17 -23 17 -31h5l9 4q-3 35 -31 35zM473 420q4 -9 4 -14h5v14h-9zM756 313
q0 -13 -4 -13q4 -9 4 -13h18v8q-7 0 -18 18zM774 256v-9q0 -5 18 -27h-5q9 -15 9 -40q7 0 13 18q0 8 -8 27q4 7 4 17q-9 0 -9 5l-9 -5q-9 0 -9 14h-4zM256 220v-4q4 -9 4 -14h4v14zM260 189v-4l4 -22h9v17q0 9 -9 9h-4zM269 145v-5q4 -9 4 -13h5v18h-9z" />
    <glyph glyph-name="X" unicode="X" horiz-adv-x="1020" 
d="M121 1468q0 -6 24 -24q1 10 9 10q10 -29 62 -57q29 -31 47 -85q8 0 33 -57q29 0 29 -43q104 -176 104 -194q10 0 33 -29q31 3 209 218q27 22 113 124h10q9 0 9 -15l19 15l10 -5q8 5 19 5v-10l-5 -9l9 -5q60 54 100 109h9v-10q-9 -9 -9 -28q28 0 28 -14q0 -13 -19 -38
q-26 -63 -42 -71q-12 -16 -33 -71q-10 0 -34 -38h-18q4 -10 4 -14q-26 -43 -38 -43h-4v-29q-93 -135 -109 -146l9 -15q-24 -23 -38 -61q-33 0 -33 -38q0 -11 -28 -29q-10 -46 -10 -52h19q5 -8 5 -19q-19 0 -19 -9q38 0 38 -24q-5 -9 -5 -14q7 0 14 -14q-9 -1 -9 -10
q5 -15 19 -19q0 5 4 5l24 -33q0 -5 -5 -5q0 -27 38 -80q44 -118 95 -214q8 -1 43 -94q12 0 19 -38q22 0 33 -33q9 -2 9 -10v-38q-35 -52 -52 -52q-19 0 -19 -28q52 -84 52 -90q-11 -10 -19 -10h-14q0 -16 -33 -43h-5l-9 5q0 -9 -10 -9h-9q0 9 -19 19q0 4 -76 113l-14 -9
l-10 14v5q10 12 10 19q0 22 -24 61h-9q0 -14 -10 -14h-4q-8 0 -15 14v5h19v5q-10 0 -28 33v5q0 7 14 14q0 37 -33 47q0 -66 -10 -66l5 -9v-34q0 -10 5 -19q-5 -8 -5 -18v-34q-24 -15 -33 -71h-9q-15 0 -15 52v34q0 16 5 42q-22 89 -47 299q-25 15 -57 90h-19q-8 -48 -29 -48
h-14q-42 -56 -57 -56v-15h5l24 5l4 -9q-56 -32 -56 -67q4 -9 4 -14h-9l-10 5v-10l10 -14v-14q-39 -66 -52 -66l-24 14q5 -88 5 -128v-266q0 -24 -14 -28h-5q-21 0 -33 208q-7 6 -33 109h-15l-14 -9q-33 0 -33 28l-33 -19l-48 10q-15 -33 -42 -52q-25 14 -43 19l-33 -5
q0 4 -14 14l9 33h-5l-19 -14h-9v10q95 119 166 251q13 0 33 66q161 223 251 370v4q-20 17 -80 133h-5v-14q0 -14 5 -90l-15 -10h-4q-43 12 -43 228q-14 0 -28 52l14 9h14q5 9 5 19v5l-5 10l9 4q0 -14 15 -14q0 10 4 10q10 -5 15 -5v5q0 15 -38 75q-24 68 -38 86v9q10 0 19 5
q0 27 -33 76q0 44 -19 61q0 10 14 10q0 7 -19 43l9 4l15 -9h9q0 14 19 14zM45 1459h10q0 -8 9 -19v-5h-5q-10 0 -14 24zM941 1373v-9q9 4 14 4v5h-14zM927 1364q0 -9 -24 -33v-5h5q10 0 28 33v5h-9zM325 245h9l5 -47l-14 -9q-7 0 -14 14q14 29 14 42zM-102 132v-10h5
q10 0 10 10h-15zM-116 113q0 -11 -19 -33v-5h5q19 9 19 28v10h-5z" />
    <glyph glyph-name="Y" unicode="Y" horiz-adv-x="883" 
d="M904 1454l16 -20q0 -16 -32 -64q0 -20 -8 -20q8 -36 8 -52h4l12 8l28 -20q-45 -67 -80 -156q-19 -12 -68 -108q-44 -5 -44 -44q4 -8 4 -12q-44 -52 -44 -76q-18 -24 -48 -100q-8 0 -32 -32q-7 4 -16 4l-4 -8v-8h12q-8 -35 -32 -80q2 -12 20 -32v-16q0 -8 -8 -8l-8 4
q0 -15 -8 -24q0 -59 -12 -92q4 -8 4 -12q-11 -24 -20 -120q-15 -12 -28 -12h-4q-8 0 -8 8v20q0 64 -12 64q-4 -11 -28 -36q4 -8 4 -12q-16 -32 -28 -32v-8l8 -12l-28 -52q-4 0 -4 -4l-8 4h-4q-6 0 -12 -12v-8q16 12 24 12v-4q-52 -97 -52 -164q-4 -94 -20 -244v-20
q0 -24 -20 -24q0 -68 -20 -68h-8l-8 4q0 14 4 36q-4 103 -4 176l-4 20h-4q-18 -88 -60 -88q-10 0 -32 -4q-4 8 -4 12l-12 -8h-8q0 16 24 72q-8 4 -12 4q-13 0 -56 -8l-4 8l4 8h-4q-7 -4 -16 -4l-4 8q4 5 20 36q0 3 -4 24q12 51 28 76q8 -4 12 -4l4 8v20q-16 23 -16 32h-4
q-20 -13 -20 -16q-16 4 -28 4l4 28l-12 -8l-4 8q20 45 20 48h8q-8 -25 -8 -32q10 0 20 44l-8 -4q-8 0 -8 8v4q40 66 92 168q23 0 84 136q4 0 4 4h-12q1 8 8 8q8 -4 12 -4q12 16 12 24q-8 0 -8 8l12 20q0 7 -20 28q-3 33 -96 180l-16 12l-4 -20v-56q0 -44 -12 -44h-4
q-18 19 -28 164q0 96 -68 176q-68 55 -68 76l8 4l8 -4q0 4 4 4l-4 20q1 8 8 8l-16 28v8q7 9 12 40q-4 23 -16 28q0 20 -20 48v24q0 14 4 36q-8 13 -8 24q20 28 24 28h8q50 -36 80 -100q49 0 80 -56q14 -3 60 -96q24 -8 24 -16l-8 -12v-4q28 -30 28 -44l28 -20q8 0 8 -12
l20 4q1 -8 8 -8l-4 -20q27 -35 52 -76q18 -13 44 -80h4q62 78 112 152h8q8 -4 12 -4v8q-12 0 -12 8q19 24 32 24l-8 12q0 8 20 8v-4q8 0 24 28h8q0 -4 4 -4q0 4 4 4l-12 24v4l8 -4q4 20 16 20v4h-8v8q14 0 36 32l-8 12q0 5 40 36q0 22 40 44v8h-8v12q5 0 28 32q32 20 44 20
l8 -4q34 53 48 60h8q4 0 4 -4q16 8 28 8zM748 1330v-4h4l4 16q-8 0 -8 -12zM732 1282q1 -8 8 -8h12l4 20q-15 -12 -24 -12z" />
    <glyph glyph-name="Z" unicode="Z" horiz-adv-x="1144" 
d="M218 1441l51 -5h13l17 -14l21 4q97 -10 106 -14q7 5 21 5l-4 9l9 5l4 -9q4 0 4 4l225 -29h8q13 0 13 5l25 -5q45 0 162 -4q17 9 25 9q60 -12 60 -19h8l13 10h4q0 -15 8 -15h13v15h9q14 -22 29 -25q16 0 22 -43q4 0 4 -5v-9q-8 -68 -43 -68v-29h-51q-8 -3 -16 -24h12v-15
q-51 0 -51 -77q-8 -155 -29 -155h-5q-13 0 -21 63q-13 0 -30 -58q-13 0 -76 -92q-68 -33 -68 -125q-3 -126 -29 -126q-25 26 -39 73h-8q-34 -29 -38 -29l4 -10q-25 -35 -47 -92q-39 -15 -46 -24q0 -20 -55 -116q81 0 292 -96q26 -15 34 -44l13 -9h4q10 0 17 4
q127 -19 127 -53q17 0 17 -9q-4 -10 -4 -15h59q18 0 47 5q9 -5 13 -5v-10q-4 0 -4 5q-10 -9 -51 -9v-5q21 0 21 -5l8 5h39q25 -3 25 -15l-38 -29l-26 5q-39 0 -59 -34q-14 -24 -25 -24q-5 0 -13 5l-68 -10q-4 0 -4 5l-26 -5l-25 5q-61 0 -81 -43q0 -15 -123 -20l-8 5
q-5 0 -5 -5l-21 5h-42q-15 0 -38 -5q-6 5 -30 5q-5 0 -21 -116q0 -9 -9 -9h-4q-13 0 -13 29h-8l-9 -5q-11 9 -21 101l-51 5h-63q-9 0 -30 -208q-9 -19 -13 -19h-8q-7 7 -30 82v58q0 34 -13 92l-51 5q-8 -21 -42 -34h-9q-8 0 -8 19h-4l-17 -14h-9q0 15 -21 24q-17 0 -76 -10
l-5 10l5 29q-5 9 -5 14q5 0 5 5q-7 0 -13 15q6 0 13 14l-13 24q28 44 81 44v14l-5 29q11 45 77 87l4 10l-4 48q9 6 195 256l17 15h4v-5l-8 -15v-5h4q42 39 42 54l30 38v10l-34 -29v5q0 8 47 63l21 -5h4q0 19 26 19v5h-13v10q22 25 46 77q13 19 22 19v24q57 115 106 169
l17 -9q8 12 8 19h9q0 -14 8 -14q0 9 4 9l-4 10v5q26 0 26 9q0 15 -9 39q-13 0 -13 -15h-8q0 25 -13 25q-3 0 -34 -5v5l-8 -5h-21q-30 0 -47 -10l-9 5l-21 -5l-8 5l-60 -15q-8 5 -12 5q-7 -8 -94 -14l-4 -24v-73q0 -37 -17 -43h-8q-9 34 -17 130q-77 -24 -140 -38
q-17 14 -22 62q-11 0 -25 39l8 14l-12 10h-47q-9 0 -25 48q-17 8 -17 15q4 10 4 14q-9 0 -9 10q1 10 9 10l-4 9v10h72q20 39 55 39q0 19 81 58q12 0 25 24q17 0 17 9v5h-13v10zM413 1431h22v-9h-30q1 9 8 9zM452 1417v-10h4q8 5 12 5v5h-16zM990 1243v-15l30 -4h4v4
q0 10 -34 15zM1058 1219h30v-10h-30v10zM1054 1195h25v-5q0 -10 -8 -10h-9q-8 0 -8 10v5zM1024 1185h13v-10h-13v10zM668 1083q0 -14 -13 -14v-5h9q0 10 12 10v9h-8zM596 1030q1 -9 8 -9h4q9 0 9 9v5zM558 977v-5h4q0 15 21 15v5h-8q-17 -8 -17 -15zM994 171v-5h17v5h-17z
M1067 113h17v-10h-17v10z" />
    <glyph glyph-name="bracketleft" unicode="[" horiz-adv-x="758" 
 />
    <glyph glyph-name="backslash" unicode="\" horiz-adv-x="569" 
 />
    <glyph glyph-name="bracketright" unicode="]" horiz-adv-x="758" 
 />
    <glyph glyph-name="asciicircum" unicode="^" 
 />
    <glyph glyph-name="underscore" unicode="_" horiz-adv-x="1024" 
d="M0 -100h1024v-60h-1024v60z" />
    <glyph glyph-name="grave" unicode="`" horiz-adv-x="1024" 
d="M673 1079h-69l-330 202q-31 20 -46.5 40t-15.5 42q0 31 20.5 51t53.5 20q20 0 40.5 -12t55.5 -47z" />
    <glyph glyph-name="a" unicode="a" horiz-adv-x="855" 
d="M367 1440q4 0 4 -4l8 4h7q23 -12 70 -66q-16 -23 -16 -35q38 -49 51 -50q0 -7 11 -19v-12l-19 -42q23 -36 85 -294q17 -32 116 -301q10 -13 35 -85q7 -6 34 -66q0 -8 -7 -8q0 4 -4 4q-10 -15 -27 -15q46 -145 85 -197q-20 -5 -20 -12q39 -72 39 -93l-8 -4h-11
q-23 8 -58 74q-23 -5 -23 -20q0 -14 42 -77q0 -6 8 -15v-8q-12 0 -12 -8l31 -81q-19 -8 -27 -8v-27q0 -5 -12 -11h-3q-42 0 -62 69h-4l-4 -7v-105l-8 -34q0 -31 4 -113q-6 -15 -11 -15q-24 53 -24 93h4l-4 7v16q0 4 4 4q-16 259 -34 259q-70 136 -120 255h-85v-4l7 -12
q-7 -1 -7 -8v-115q-3 -97 -20 -97q-11 0 -15 73q-12 0 -12 43v93q0 7 -7 7h-35q-20 0 -35 -11h-23q-14 15 -46 19v8h11v8q-17 0 -23 3q-11 -14 -27 -81q-43 -74 -50 -143q-4 0 -20 -23l-23 4q-14 -19 -19 -19l4 -16q-19 -58 -31 -58q-23 -7 -23 -69q-31 -8 -51 -8
q0 7 -54 15q-5 16 -11 16q0 -4 -4 -4l-4 8q27 139 54 139q16 38 31 50q0 4 -4 31q15 0 19 58q11 0 43 127q4 0 4 4q0 13 -43 43v11q39 83 39 120l46 104q0 6 -4 55q55 100 55 123q3 8 3 12q-3 0 -3 4q14 2 73 181l8 4h11l12 43q-8 0 -16 -31h-3l-4 7q96 236 131 310l23 15
q1 8 8 8zM205 1080q0 -3 -4 -11h8v11h-4zM348 744q0 -7 -62 -154h4q78 23 85 23q17 15 27 15q-31 55 -47 116h-7zM719 512q3 -7 3 -11h8v4q0 7 -8 7h-3zM332 389v-8h16v8h-16z" />
    <glyph glyph-name="b" unicode="b" horiz-adv-x="975" 
d="M147 1567q29 -8 60 -75q3 -29 12 -39v-4q-12 -9 -12 -28q14 0 47 36q20 0 44 -32l7 -4l8 4q34 -12 48 -12h4q0 8 4 8q19 0 162 -40q7 4 20 4q0 9 -28 12v8q58 -5 186 -59q35 -43 35 -63h-4q0 -21 79 -87l32 -60h-4l4 -7q0 -4 -4 -4l4 -8v-8q-47 -62 -87 -107v-4
q4 -7 4 -16l-12 -8h-4l-8 4q-8 -4 -67 -71q-12 0 -47 -63v-8q110 -48 241 -166q54 -90 55 -115v-27q-24 -36 -24 -40q-2 0 -59 -47q-60 -48 -71 -48q-20 -241 -28 -264h-16q-8 0 -11 31q0 4 3 4l-3 20v20q0 46 3 146q-3 0 -3 4q-6 0 -68 -40v-12q-8 -19 -19 -19h-12
q0 -28 -48 -44l-43 -35h4q28 14 43 23h12l-47 -43q-23 2 -36 12q-14 0 -47 -28q-4 0 -36 -32l4 -7q-24 -25 -67 -103h-4l4 -8q0 -6 -24 -24h-20l-23 4q-12 -4 -12 -8q-40 4 -40 12q4 0 4 4q-4 0 -4 4l-8 -4q-7 4 -15 4q0 -9 -4 -16l4 -8q-12 -55 -12 -71v-16q-16 -9 -16 -23
q-3 -32 -24 -32l-4 8q4 158 4 198h4l-4 7q4 8 4 12q-14 54 -43 67q-16 5 -16 36v8q-10 0 -20 28v11q-28 0 -39 127q-36 13 -36 115q4 157 4 225q4 29 4 31q-4 7 -4 16q12 0 12 64v11q0 4 4 4q0 4 -4 4q27 276 35 297h12v4l4 39q-12 3 -12 32v20h4l8 -4q0 11 12 47
q-4 7 -4 16q9 0 12 63q0 4 -4 4l4 20v20q0 31 4 75q-4 8 -4 12l4 7q0 4 -4 4l4 28v24q0 10 16 12q8 -4 12 -4l-8 12v3q0 5 23 20zM337 1433h4q8 -1 8 -8h-12v8zM195 1393l-4 -39q0 -16 4 -32l-8 -47l20 4l8 -4q6 4 19 4v31q-8 10 -8 16q4 8 4 12q-15 5 -23 28h-4v8h8v11
q-6 0 -16 8zM309 1271l-4 -36l4 -16q-4 0 -4 -4q49 -37 68 -83v-11q0 -34 -4 -99q-16 0 -16 -12q2 -16 12 -16v-12q-16 -17 -16 -19v-4h12q-8 -28 -8 -32v-24h4q45 31 47 44q-4 7 -4 16q160 95 186 118l12 44v4q0 24 -44 35l-15 16q4 8 4 12h-4l-24 -4q-24 16 -44 16
q-3 -89 -15 -127h-8q-6 0 -12 12v16q-11 122 -28 122q-30 8 -91 44h-8zM471 682q-30 -48 -55 -48v-3h20q0 -24 -16 -24q-21 0 -55 8q-32 -8 -32 -16l-16 -115q-4 0 -4 -4t4 -4l-4 -19v-4l4 -20h-4q8 -15 8 -32v-4l-8 -12v-3q0 -6 16 -16q87 56 87 91q61 49 135 98h3
q7 -4 16 -4q0 6 12 12q16 -23 20 -23h16q27 39 43 39v4q-2 9 -67 44q-13 31 -87 51q-7 4 -20 4h-16zM732 461v-8q4 -8 4 -12h-4q4 -8 4 -12q9 8 24 8q-10 17 -28 24zM760 405q0 -4 -4 -12h8v12h-4zM566 263v-4h12q20 11 20 16v4h-4q-20 -16 -28 -16z" />
    <glyph glyph-name="c" unicode="c" horiz-adv-x="911" 
d="M842 1454h12q7 0 24 -48q68 0 68 -64q5 0 8 -56q-8 -1 -8 -8q0 -8 12 -52v-8l-4 -8q8 -1 8 -8v-4q0 -4 -28 -24h-4l-8 4l-8 -12h12v-4q-20 -21 -20 -28h-8v4q4 8 4 12q-19 -12 -32 -40q8 -1 8 -8q-44 -40 -48 -40q0 -26 -28 -44q-37 -389 -48 -404q0 -8 -8 -8h-8
q-8 0 -8 8q4 138 4 216v4q0 4 4 4l-4 8v40q0 8 -8 8q-25 -32 -28 -32l4 -8v-4q-28 0 -28 -24h4l8 4v-4q-4 -13 -24 -32l4 -8q-10 -20 -16 -20h-8q-38 29 -56 60h-4q-13 -39 -52 -64h-4q-32 24 -56 60v12q0 30 68 108q0 6 40 68v4q-22 -9 -28 -20l-8 -4l-8 4q-16 -6 -16 -12
h4l8 4l4 -8q-18 -22 -48 -44q0 -8 -52 -76q-4 -5 -4 -24h4v-4q0 -8 -8 -8q-8 4 -12 4l4 -8v-4q0 -16 -28 -16l4 -8v-4q0 -19 -20 -40l4 -8v-12h4v-8q-12 0 -12 -4l4 -8l-8 -20l-8 4h-4q0 -8 12 -8q0 -10 -28 -104h8v-4q-16 0 -16 -36q0 -13 -12 -52q3 -66 80 -148
q120 -88 220 -120q17 -8 60 -20l72 8l4 -8q0 -4 -4 -4l4 -8q-40 -25 -40 -28q4 -7 4 -16l-24 -20h-4q-21 0 -68 4l-16 -24q0 -6 12 -12h28q23 0 72 36h24q8 -1 8 -8v-4q0 -13 -4 -20l4 -24q0 -36 -84 -36q-43 -20 -100 -32l-8 4q-4 0 -4 -4q-78 8 -112 20q-22 -4 -36 -4h-8
l-20 4q-4 -9 -8 -52q4 -7 4 -16q-12 -26 -12 -64v-100q0 -6 -16 -16h-8q-6 0 -12 12q0 104 -8 252q-94 55 -160 160l-12 8h-8q-8 -55 -8 -72l4 -16q-4 -44 -12 -44h-16q-7 0 -12 24q0 4 4 4q-10 192 -20 192q-44 0 -104 68q0 103 64 284q4 16 4 28q-5 0 -20 44q-4 0 -4 4v4
q4 55 100 152h4v-12h16q0 11 24 16v4q-12 0 -12 8l56 72q0 17 24 44l-8 12q78 92 104 92q8 -4 12 -4q48 31 48 60q0 15 128 128q26 0 36 24q57 33 96 68l32 12l-8 12q6 0 28 16l8 -4q0 6 12 12h8q24 0 24 -24q20 0 64 32q19 0 28 8zM890 1130h4v-4q0 -8 -8 -8l-4 8zM310 926
h8q16 6 16 12h-12q-6 0 -12 -12zM722 914q0 -6 -8 -16v-4h4q0 5 12 20h-8zM282 906q-4 -8 -4 -12h-4l-12 8h-4v-4q6 0 16 -8q13 12 20 12v4h-12zM358 846v-8h12v8h-12zM350 730q8 0 16 44h-4q-9 0 -12 -44zM146 758v-4q10 8 16 8v8q-16 -6 -16 -12zM238 746v-4h8v12
q-8 -1 -8 -8zM202 650v-16h4v16h-4zM198 630v-16q7 4 20 4v4q-10 0 -20 8zM70 498v-28h4l4 24zM58 446v-8h4q6 0 12 12l-8 4q-8 -1 -8 -8zM86 434q0 -4 -4 -12l4 -16q-4 -16 -16 -16v-8q0 -4 4 -4l-4 -8v-16q6 4 24 4v4l-4 40q16 6 16 12v4q-16 0 -16 16h-4zM282 434v-4
l4 -8q-4 -8 -4 -12q0 -10 24 -56q0 -9 -4 -16q4 -7 4 -16q-4 0 -4 -4l68 -52h4v8zM66 406v-4h8v12q-8 -1 -8 -8zM110 414q0 -6 12 -12h4v4q0 8 -8 8h-8zM146 366q0 -13 -4 -20q4 0 4 -4q7 4 16 4q-8 13 -8 20h-8zM82 318q1 -8 8 -8h4l-4 8v8l16 -12q0 4 4 4l12 -24
q18 8 20 16q0 4 -36 24q-24 -8 -24 -16zM202 210h8l-4 -8v-4h4q3 24 8 24q-4 8 -4 12q-12 -4 -12 -24zM222 226q0 -24 -8 -32q1 -8 8 -8h4q0 16 16 16v4q-16 0 -16 20h-4zM358 150q8 -24 16 -24l-4 24h-12zM446 150q0 -8 28 -12q0 9 -28 12zM486 142l8 -12q-4 0 -4 -4
q56 -10 56 -16q20 12 28 12q0 9 -88 20z" />
    <glyph glyph-name="d" unicode="d" horiz-adv-x="897" 
d="M233 1483h8l31 -47l-24 -226q4 -8 4 -12h4q31 17 31 51q11 0 28 43l7 4h4q34 -40 47 -78q4 0 4 -4q-26 -62 -31 -62q-31 -171 -39 -179q-10 -8 -16 -8v-12h4l12 8q0 -4 4 -4q0 -5 -16 -27q12 -17 12 -31q-2 -39 -12 -39q0 7 -8 7q-15 -17 -15 -23q35 -59 35 -66
q0 -12 -20 -55q0 -4 4 -4l-4 -19v-19q0 -16 4 -32q-8 -62 -15 -62l4 -23q0 -18 -4 -51l4 -23q-8 -4 -12 -4v-20q-8 -1 -8 -7v-32l-4 -23q4 -8 4 -12l-8 -4l-19 4l-12 -15q8 0 8 -12h23v-15h4q13 4 39 42q8 0 39 35q26 21 70 90h4q20 -12 31 -12h4q80 97 129 207q10 26 15 81
q0 4 -4 12q4 33 4 55v4q0 12 -4 19l4 19q0 160 -35 160q-59 62 -74 62v-3q-11 -273 -23 -273h-4l-16 12q4 64 4 97v70q0 49 -4 121q4 8 4 11q-15 38 -15 47l4 8q-8 0 -8 8v54q0 4 4 4q-27 49 -78 125l4 19q0 4 -8 31v12q0 6 19 16h4q114 -98 156 -164q107 -30 167 -128
l102 -207q62 -99 62 -132v-8l-8 -12q-4 0 -23 16h-16q16 -54 16 -86l-4 -19q8 0 12 -31q-21 0 -39 -24q-46 -30 -78 -85q-5 0 -20 -24v-8q0 -3 16 -50v-16q0 -7 -35 -11q-31 -31 -31 -35v-28q-20 -114 -43 -346l-8 -4h-4q-8 0 -8 8v50q0 9 4 16q-4 7 -4 15v32q0 3 4 3
q-4 24 -7 24q7 43 7 132v8l-4 8q-15 -6 -15 -12l-8 4h-4v-16q-12 -15 -54 -35q-14 -14 -35 -62q-26 0 -51 -35q-5 0 -23 -35l-8 -4q0 4 -4 4l4 -19q-31 -20 -31 -28q11 0 11 -8q-2 -11 -31 -11v-4h8v-4q-27 -19 -27 -23h4q-4 -5 -4 -24q8 -1 8 -8q0 -5 -28 -27h-15l-20 4
q-44 -42 -70 -51q0 -30 -19 -151q0 -51 -12 -51h-4q-6 0 -12 12v23q0 51 -7 70q0 4 4 4q-4 46 -4 66v35l-4 24l4 7q0 33 -63 63q-13 74 -23 74q-22 0 -39 58v16q0 35 8 66l-4 23h4l-4 8v39q0 9 4 16q-4 6 -4 15q8 0 8 8q-4 8 -4 12h4l-4 7v12q-4 0 -4 4l4 23q-4 21 -4 39v4
q0 4 4 4l-4 8v47q0 23 12 66l-4 8q0 3 4 3l-4 20v4q0 5 7 43q0 16 -3 31q3 43 15 43l16 -12h4q0 10 7 19v12h-7q-8 -8 -28 -8q0 4 -4 4q0 122 36 140v20h11v-20l12 8l-4 8l8 19q-8 4 -12 4v12q16 0 16 16l-12 7q-4 -7 -4 -11h-8v8l-11 -8h-4v8q0 33 31 116q13 0 15 24h4
q8 -4 12 -4l4 8v3l-8 -3h-8v15q32 100 39 160h4q-4 21 -4 31q0 15 28 51l7 -4q6 0 12 11q0 9 -4 16q10 43 16 43l23 -4q1 8 8 8zM303 1311q8 -1 8 -7v-8q0 -6 -12 -12q-8 0 -8 8q8 0 8 8l-4 7zM62 848v-8h15v8h-15zM50 828v-3q0 -6 12 -12q7 0 7 8q0 7 -7 7h-12zM54 700
l8 -4l7 12l-4 19q-8 0 -11 -27zM50 622v-12h4q8 0 8 8v4h-12zM229 501v-7h16q0 7 -8 7h-8zM237 424q0 -4 -4 -12h8q7 0 7 8l-7 4h-4z" />
    <glyph glyph-name="e" unicode="e" horiz-adv-x="764" 
d="M166 1534q62 -34 62 -111v-28h12q0 26 20 73l9 -4q10 8 16 8q37 -12 53 -57q24 0 66 4l49 -4q24 12 33 12q99 -8 140 -8q36 0 53 17q24 0 33 -82q-5 -26 -13 -41q4 0 4 -5q-7 -4 -49 -8l4 -8q-4 -8 -4 -12q8 -1 8 -8q-4 -9 -4 -13l62 -16v-8q-32 0 -49 -29q-22 0 -37 -4
q-8 4 -13 4q0 -8 -20 -8v-4l25 -5v-8h-17q-24 0 -102 -12v-12h-54v-45q0 -62 -20 -62q-12 0 -17 57l4 9q-8 41 -12 41q-81 0 -82 -25q-20 -36 -20 -57q8 -66 8 -82q-8 -27 -8 -37l4 -9q-13 -49 -17 -82q4 -8 4 -12l-4 -8q5 -21 13 -21h94q21 21 53 21q162 0 181 -29l-8 -12
q20 0 24 -62q37 -8 41 -8v-4l-4 -8q8 -1 8 -8q-23 -17 -33 -17l13 -16v-4q-17 0 -17 -21q-14 -4 -16 -4v4q-4 0 -4 -4l-21 4q-4 0 -37 -12q-8 4 -12 4l-4 -8q19 0 29 -8h20v-9q-16 0 -41 -24h-65v-8q1 -9 8 -9h20v-4q0 -8 -65 -16q-8 4 -17 4q-28 -5 -28 -86l-13 -8h-4
q-6 0 -16 16v33l-4 20q-62 -4 -91 -4h-16l-16 13h-5q0 -21 -8 -21l-8 4v-24l12 8h4v-17q0 -8 -8 -8l-8 4l-4 -8v-45q8 0 8 16h8q-2 -45 -8 -45q-10 0 -20 -12q0 4 -4 4l-5 -29v-12q9 0 9 12h4v-16q-21 -21 -29 -21v-4q6 0 16 -8q2 8 9 8q6 0 16 -16v-4q-16 0 -16 -8v-13
l24 -8l168 21l9 -4q8 4 12 4q0 -6 12 -13l37 4q25 -4 25 -12l-8 -12q22 0 32 -45q4 0 4 -4q3 0 17 4q21 -4 25 -4l8 4q19 -13 24 -13v-8l-8 -12q29 -20 62 -25h37q23 -24 28 -24l-8 -17q10 0 25 -53l-33 -16q-107 -9 -201 -9v-4h49v-4q0 -8 -8 -8h-45q-30 0 -33 -12v-37
q0 -22 -16 -29h-9q-12 3 -12 33v29q0 8 -12 8q-59 0 -156 -25l-21 4h-4q-13 0 -57 -8v-74l-4 -24q0 -4 4 -4q-5 -103 -25 -103q-10 0 -16 45v53q0 10 4 17q-4 0 -8 86q-70 0 -70 53q-24 52 -61 62q-8 0 -21 37v41q3 36 12 37l-4 24q9 287 21 287l-4 9v41q0 9 4 16q0 4 -4 4
l4 41v33q16 0 28 45q-28 16 -28 21v69q0 9 -4 17q11 69 16 69l-4 17q13 86 29 115q0 4 -4 12q28 138 28 152q-8 0 -8 12q22 34 29 148q7 0 16 102q13 45 21 49l-4 9q0 7 24 16zM35 771v-8q1 -8 8 -8l4 8v16h-4q-8 -1 -8 -8zM35 673v-29h4q0 18 4 25zM470 595q1 -8 8 -8
q8 0 8 8h-16zM248 558l-4 -8l8 -4l4 8zM248 480h8v-12h-8v12zM236 431q4 -8 4 -13l8 5q-4 8 -4 12zM211 320q1 -8 8 -8h5q0 8 -9 8h-4zM416 49v-8l21 4v4h-21zM589 49h32v-8h-32v8z" />
    <glyph glyph-name="f" unicode="f" horiz-adv-x="842" 
d="M260 1472q38 -16 38 -42l8 -4h25v25l5 8q8 -4 12 -4l8 4q8 0 51 -37h21q50 0 138 -13l25 4h29v9l13 -9q67 17 130 17l17 -4q7 4 16 4q10 0 17 -4l42 4q52 -4 54 -4q5 0 5 4q100 0 100 -46l4 -8q0 -105 -37 -105h-5q0 10 -16 12q-38 0 -38 -87q-13 -17 -25 -17q-4 8 -4 12
q-126 -6 -126 -21h-8v9h-17l-13 -9h-16v9h-26l5 -9v-8h-34v-4h8v-9h-12q-5 0 -46 -8h-13v-8h-21q-8 -1 -8 -9l4 -8q-7 -37 -17 -117q-4 0 -4 -9h-8q-17 6 -17 38v54q0 10 -4 17l4 9l-4 8l4 8q-4 9 -4 13h-4l-9 -4q0 8 -4 8q-14 -10 -84 -17v-4h30v-8h-30v-4q17 0 17 -9
q-36 0 -42 -151q-4 0 -8 -12l-9 4h-4q0 -7 -8 -21q8 -4 12 -4v-4l-8 -13v-8q0 -15 50 -17q11 0 46 8l118 -21q7 5 16 5q0 -7 17 -13q8 4 17 4q14 -8 25 -8h88q29 -22 29 -46q-4 -29 -4 -46v-21q0 -10 -58 -30q0 -27 -30 -41q21 -4 21 -13q-4 -7 -4 -17h-29v13h-13
q-5 -30 -29 -30q-9 0 -9 -16h-37q-12 0 -42 -21q-8 -4 -21 -4q-4 0 -4 4q-25 -9 -25 -30q4 -36 4 -41q-8 -202 -30 -202h-4l-8 5l-9 255h-25l-42 -4v-4h17v-9q-92 -4 -92 -41q8 -2 8 -9q0 -4 -4 -4l4 -17q-5 -50 -16 -50q0 -4 4 -4q-3 -30 -9 -30q0 -4 5 -4q0 -51 -38 -67
v-29l8 4q0 -27 5 -42q-9 -54 -13 -54q8 -21 8 -34l-33 -25l4 -8q0 -7 -13 -13q0 4 -4 4v-12l9 -13v-4l-5 -21q13 0 13 -8v-13l-13 -17l5 -8q-5 -7 -5 -17q9 -1 9 -8q-4 -77 -4 -96q-14 -13 -25 -13q-6 -176 -34 -176l-8 13v79q0 23 -5 59l5 8q-21 36 -21 46q4 36 4 59v21
q-23 -4 -34 -4q-25 0 -33 42q-4 0 -4 4v4q10 7 16 80q0 11 -29 16q-7 -4 -17 -4l-16 21q4 7 4 17l-17 8q8 112 21 159q-8 0 -8 9v16q0 30 12 30l-4 67q13 3 13 33v21l-5 42h9v46q0 4 8 34v17q17 137 17 167q-9 0 -9 8v5q17 0 17 29q14 113 34 113l-4 21v4q8 9 25 134
q19 38 37 126q16 38 38 138h4l-4 9v4q34 0 34 50h12zM143 1087q0 -17 -13 -51l-4 -21h8q10 0 13 21v13h8l-4 21q4 0 4 4q-8 0 -8 13h-4zM93 831l-5 -29v-9h5q0 17 12 17v17q-4 0 -12 4zM88 785v-21h5v21h-5zM637 651v-4h17v4h-17z" />
    <glyph glyph-name="g" unicode="g" horiz-adv-x="997" 
d="M784 1437q36 -37 36 -53q0 -19 17 -37l-13 -16v-4q17 0 17 -8q-37 -8 -37 -21h4q8 4 12 4v-4l9 4h12v-8q-23 0 -29 -20q8 -16 8 -29q-15 -11 -48 -28h-13l4 8l-8 4q-21 -22 -40 -24v-8q8 0 28 8v-4l-8 -13h8q18 17 110 45q37 -3 37 -12v-4q-11 -20 -33 -20l-12 8l-4 -8h8
v-4q-2 -9 -77 -37v-16h4q36 11 61 28h8v-4q-16 -13 -102 -57v-4h8v-8h-4l-8 4q-23 -12 -33 -12v-8h13v8h8v-4l-65 -53q0 -14 -25 -17q0 -20 -32 -44q-13 -26 -70 -45q-122 -108 -122 -139q-14 -232 -32 -232q-12 0 -17 41v41q-69 -25 -69 -90q-4 -14 -4 -53q0 -44 20 -94
q0 -4 -4 -4l4 -20v-24q0 -5 -4 -5q13 -65 37 -109l8 4q7 -4 16 -4q0 7 25 20q7 18 24 28q6 0 12 -12q0 -8 -20 -8v-4q12 0 12 -8q-28 -31 -28 -45h4q32 0 146 183q7 1 53 78h5v4q0 6 -13 12l-77 -20q-18 7 -29 24v4q0 10 17 12l-21 25l4 8q-24 36 -24 53l45 36q0 5 -17 25
v32q0 10 -4 17l4 8l-4 20q21 29 49 29h8q0 16 90 16q28 5 37 12h4q12 0 12 -4q4 0 12 4q420 -7 420 -40q8 -1 8 -9v-4q0 -12 -17 -12q0 -3 29 -20v-25q0 -8 -8 -8q-4 0 -4 4q-29 -4 -29 -8l-8 4h-4q-23 -36 -69 -36v4q-12 -1 -53 -41q-5 -12 -29 -25q-4 -22 -4 -36v-21
q-11 -321 -40 -321q-9 0 -9 12q0 109 9 318q-6 20 -13 20h-4q0 -16 -49 -16q-22 -62 -44 -86q8 -1 8 -8q0 -8 -12 -8l4 -21q-6 0 -45 -48q4 0 12 -4q-50 -134 -85 -176q-9 -9 -17 -65q-5 -5 -20 -57q-25 -48 -45 -57q-35 -85 -57 -122v-28q0 -21 -24 -37q0 -11 -13 -33l4 -8
q-6 -16 -12 -16q0 8 -12 8q-37 0 -37 -24v-33l-8 -12l-8 4l-41 -49l-20 4l-8 -4q-37 10 -37 16q46 147 82 334q-4 8 -4 12q-56 -61 -61 -61l-5 9q0 14 21 44v13q0 7 -94 24q-41 35 -98 90v-49l-4 -25q0 -4 4 -4l-4 -20v-53q-15 -29 -20 -29q-14 0 -20 228q-28 62 -61 106
q-29 101 -29 184q0 112 49 293q0 18 24 24q13 12 13 29l20 -4l4 8q-12 27 -12 32l12 9l-4 8v4q0 6 12 12l8 -4v8q-4 8 -4 12l8 4q0 -6 17 -16q8 0 8 8q-4 0 -4 4l-8 -4h-5v8l9 13v16l-4 8h8l-4 16q12 45 36 45l4 8q-4 0 -4 4h4q4 0 4 -4q18 0 74 53q8 -4 12 -4q8 20 12 20
l-4 9l25 40h-9v8q11 0 57 49q50 41 61 45v4q0 4 -4 4q50 74 110 74q0 6 25 20l16 -4q16 6 16 12q-8 0 -8 8q33 37 135 78q0 9 65 16zM690 1111v-4q1 -8 8 -8q38 20 57 24v4q0 9 -8 9q-49 -25 -57 -25zM222 1038l4 -8h-12q1 8 8 8zM136 871v-8h17v4zM100 798v-17h4v17h-4z
M348 692q6 0 16 -17q-4 22 -4 41q-12 -4 -12 -24zM303 622v-8h4l57 41l-8 4q-6 0 -53 -37z" />
    <glyph glyph-name="h" unicode="h" horiz-adv-x="914" 
d="M742 1492h4q7 0 15 -40v-15l-4 -40l24 -7q2 11 20 31q-4 8 -4 12l8 4q43 -19 43 -40q0 -5 43 -63l8 -35l-4 -20q0 -4 4 -4q-12 -141 -28 -165q-8 -59 -11 -59q4 -8 4 -12q-8 -108 -16 -114q0 -4 4 -11q-2 -23 -12 -36l4 -20q0 -19 -8 -19l4 -8v-4l-20 -24q12 0 12 -8
q-7 0 -12 -23h12v-12q0 -8 -12 -8l8 -16q-4 -6 -4 -15q4 -8 4 -12q-6 0 -12 -12l8 -4q-3 -43 -8 -43l4 -8q-11 -12 -15 -27h-4v-12q11 0 11 -8t-11 -8q11 -15 11 -28q0 -12 -15 -35l4 -8l-4 -16l4 -7l-8 -28q0 -4 4 -4l-4 -39v-20q0 -4 -4 -4q0 -4 4 -4q0 -119 -28 -169
l4 -20v-23q0 -4 -4 -4l4 -8q0 -4 -4 -4q8 -15 8 -31q-9 -71 -31 -71q-2 0 -8 -12q16 -59 23 -59v-20q-4 -12 -23 -12q-24 0 -24 150q0 9 -23 31q-8 55 -12 55l4 20v20q0 9 -4 16l4 7q-4 8 -4 12h4q-4 7 -4 16l-8 -4l4 -8q-24 -41 -24 -51v-55q0 -9 4 -16q-4 -12 -8 -12
q0 -4 4 -11l-4 -36l4 -23q-9 -205 -23 -205h-4q-20 0 -20 138q4 41 4 110q-16 45 -16 75q2 47 12 47l-4 27v12q0 4 4 4q-11 21 -16 43q4 16 4 28q0 13 -8 63q12 133 20 145q0 4 -4 4q8 44 8 75h-4q-18 0 -43 -16h-4q-4 0 -4 4q-11 -1 -20 -15l-118 -24l4 -8q-9 -24 -12 -24
l4 -7v-63q0 -166 -23 -166l-12 16v43q-8 57 -8 63v114q-7 36 -16 36q0 -8 -8 -8q-9 0 -15 4q-22 0 -28 -39q-10 -8 -16 -8v-4h8v-8l-4 -8q6 0 12 -12v-8h-8v-4l4 -7q-6 0 -12 -16q4 -8 4 -12q-8 -4 -12 -4l4 -16q-4 -11 -7 -11l3 -8l-3 -8v-12l-8 -4q4 -7 4 -16l11 8v-8
l-15 -19q8 -13 8 -24v-4q0 -13 -12 -27l8 -12v-4l-20 -36q4 -6 4 -15q-5 0 -16 -20v-12q8 -10 8 -15q-9 -68 -16 -103l4 -8v-39l-31 -59h-12q-4 0 -4 4q-6 0 -24 -20h-19q-24 14 -24 20q14 135 20 165q-4 8 -4 12q-16 -4 -28 -12h-8l-11 8q0 -8 -8 -8h-12l-4 -8q0 -4 4 -4
q-10 -110 -24 -110q-19 0 -19 79v39q0 45 -20 47q0 4 4 12l-4 28l16 86l-4 8q4 7 4 16v4h-8q20 63 71 590q0 135 43 228q43 169 43 177q11 16 36 24q4 -8 4 -12h11q12 0 48 -24q0 19 7 40l-7 4q0 14 47 39v4q-4 0 -4 4l8 4q0 -4 4 -4q0 15 27 39h4l4 -19l8 4q1 -8 8 -8
q1 8 8 8q21 -10 55 -44q8 -14 8 -31q0 -40 -8 -40l4 -19q-20 -97 -36 -260q-23 -102 -43 -145l8 -4l-8 -75h39q11 0 138 8h32l23 -4q36 0 36 39l11 106l-4 8l4 20q0 9 -4 16q4 21 4 35v32q0 8 4 15q-4 7 -4 16q0 114 32 279q19 0 27 75q21 16 44 16z" />
    <glyph glyph-name="i" unicode="i" horiz-adv-x="679" 
d="M308 1521h25q29 -8 74 -87q0 -4 8 -4q72 -1 116 -8q7 4 16 4h17q49 -1 49 -8l8 4q14 0 21 -4l20 4q103 -16 103 -37v-21l-8 -12v-4q52 0 74 -25q-16 -78 -29 -78q-7 4 -16 4l-4 -8l-37 8q-3 0 -25 -4l-66 8q-16 -26 -16 -33l4 -8q-4 -7 -4 -17v-4q0 -8 12 -8v-4
q-4 0 -12 -4l-9 4q-37 0 -37 -25q-4 -19 -4 -53v-12q0 -85 -4 -231q-5 -20 -12 -20q-21 0 -29 337q-21 0 -21 8l-20 -4l-25 4q-8 -4 -12 -4v-4q1 -8 8 -8q-4 -82 -12 -124h-9v17h-4v-17h4q-4 -8 -4 -12q4 -8 4 -12q-6 0 -16 -17v-4q12 0 12 -8l-12 -21q12 -15 12 -29
q0 -4 -4 -12l8 -66q-8 0 -12 -115q-8 -1 -8 -8l8 -13l-4 -16v-12q-6 0 -12 -13l12 -16q-16 0 -21 -33l13 -25v-12h-13l5 -21q0 -13 -13 -28v-5q4 0 13 -4l-5 -41v-4l5 -21q-7 0 -13 -12v-4l13 -16v-21h16q0 -8 -29 -29v-16h-4v-13l8 4q9 -1 9 -8l-9 -12q0 -15 4 -37
q0 -4 -4 -4l4 -21v-45q20 -12 116 -12q0 4 4 4l20 -13l-12 -28l-29 4l-29 -4q0 8 -8 8q-33 -20 -33 -25l29 -4h29l12 -8h21q38 0 53 -17q8 4 13 4q0 -8 12 -8v-4h-21l-8 4q0 -32 -16 -53q4 0 4 -4q-8 -5 -13 -5v-4h9v-8q-8 0 -33 -8l-8 4q-4 0 -25 -4l-21 4q-8 -4 -12 -4
l-8 4q-30 0 -37 -45q0 -4 -4 -4q8 -22 8 -46q-11 0 -54 -24q-16 6 -16 12v53q0 9 -8 9q-21 -5 -21 -13l4 -20q-41 -21 -45 -21l-4 8v42q-13 0 -13 4l-8 -4q-7 4 -16 4l-4 -21v-41q0 -10 -13 -49v-62q0 -30 -12 -33h-8q-13 48 -25 197q-88 -4 -132 -4h-8q-8 0 -8 9l4 8
q-6 5 -21 41l5 8l-5 25q17 8 25 8v12l-8 13v25q0 17 90 24q9 -4 13 -4v4l-4 29q1 10 28 29h29v20q0 24 4 66q-4 8 -4 13h4l-4 8v4q0 10 13 37q-11 0 -13 37l4 8l-8 33q0 33 17 33v4q-18 12 -25 70v8q1 21 8 21l-4 20v5q0 9 4 16l-8 16q4 36 4 46q0 4 -4 12q0 37 20 37l-8 12
q6 0 17 21q0 8 -9 8q0 -4 -4 -4l-4 8q7 4 17 4v13h-4l-9 -4l-4 8v21l17 69q-4 8 -4 17q16 90 16 115q0 4 -4 4q4 50 12 50l-4 8v29q0 37 -41 37v8h-8l-8 -4q-5 8 -5 12h-4q-4 0 -4 -4l-16 8q0 -5 -25 -16h-29q0 -13 -8 -13h-8l8 13v4q-25 0 -25 8q-7 -4 -20 -4v-12h16v-13
q-38 -2 -49 -12l4 -8v-4q-8 0 -70 -13h-21q-8 0 -8 9v4l8 12q-8 0 -8 8l13 17q-21 5 -21 12v16q0 5 21 21l-5 8v4q0 10 5 17q-13 39 -13 41l17 25q45 10 45 16q0 48 37 66q29 14 189 29v-4q28 5 37 12l25 -4q10 8 16 8v8q0 25 25 50q0 5 12 29zM123 1405q1 -8 9 -8h16v12z
M732 1278v-8l8 4q9 -4 13 -4v4l-4 8q-7 -4 -17 -4zM650 1200h8v-13h-8v13zM20 1138h17v-8h-17v8zM45 1138h17v-8h-17v8zM103 1138h12v-8h-12v8zM403 574v-16h4q0 4 4 12zM337 475v-8h4q0 13 17 25v4h-4q-17 -8 -17 -21zM333 447l8 -4l4 16q-6 0 -12 -12zM337 294q4 -7 4 -16
q9 0 9 8v13h-5zM617 224q8 -4 12 -4v-8l-20 -4h-13q-8 0 -8 8v4zM271 39l-4 -8v-4h17v8q-4 0 -13 4z" />
    <glyph glyph-name="j" unicode="j" horiz-adv-x="898" 
d="M529 1440q14 -4 39 -4q2 0 15 4q15 -7 35 -7q4 0 12 3q81 -6 81 -15l27 8l8 -4q4 0 4 4q88 -12 151 -31q19 0 54 -12v-4q0 -6 -12 -11q-15 3 -15 7q-7 -4 -16 -4l4 -7v-4q-31 4 -31 11q4 0 4 4q-12 8 -23 8v-15h-23q0 -8 -4 -8q0 -12 15 -12v-7h-11l4 -20q0 -8 -8 -8
q0 -42 39 -42v-4q-7 -4 -20 -4v-8l16 -27q-16 -59 -23 -127q-8 -1 -8 -8q4 -21 4 -31q-5 -4 -27 -4l3 -8l8 4l8 -4l-4 -15l4 -27q-4 0 -19 -51q-5 0 -16 -34q8 -1 8 -8q-8 0 -8 -16h-8l4 20q0 7 -8 7q0 -8 -19 -23q12 0 12 -8v-31q-16 -11 -16 -30q12 -2 12 -31v-12l-8 -12
v-7q1 -8 8 -8q-12 -63 -20 -74v-23q8 -10 8 -15q-6 -16 -15 -74h-4l-8 4q0 -16 -8 -16q0 4 -3 4v-7q1 -8 7 -8l-4 -27v-16h4q8 0 8 12q8 -1 8 -8v-19q0 -8 -8 -8h-4v8h-4q0 -8 -4 -8q0 -4 4 -4l-4 -27v-11l16 15q0 -4 4 -4l-4 -19q0 -10 4 -31q-8 -39 -8 -70v-11
q15 -18 15 -55q0 -45 4 -189l-15 -89q0 -4 -4 -4h-4q-12 2 -19 81q0 4 4 4l-4 27v66q-4 0 -12 4l-4 -8q4 -8 4 -12q-21 -4 -31 -11l-19 11q0 4 4 12q-4 21 -4 31h-4q-12 -4 -12 -23v-35q0 -4 -3 -4l3 -8v-15l4 -39h-4q0 -4 16 -23q-12 -13 -12 -19q8 -13 8 -24v-7h-4l-8 3
l-3 -23q3 0 3 -4q-9 -7 -15 -7v-27q12 0 12 -8v-8q-16 0 -24 -19v-70q-8 -58 -19 -58q-8 0 -8 8v7q0 113 -27 113q-6 0 -23 69q-18 0 -70 86l-15 11q-25 -12 -27 -31l-8 -4h-12l-96 171q-8 0 -8 15h-4q-12 0 -12 -62v-50q0 -20 -11 -23q-19 0 -31 212q-4 0 -8 12q4 7 4 16
q0 5 -27 27h-8l4 -8h-4q-5 0 -23 27v4l8 11q-27 0 -39 28q-7 1 -27 34v12q-21 0 -54 70q0 15 -12 15q0 -4 -4 -4v4l4 8q-8 0 -31 54q-9 0 -15 35q7 4 11 4v27q9 0 16 -4q6 4 15 4q10 0 27 -12h8v8l-8 12v23l4 19q32 0 74 -69l19 -12h15l12 8h4q11 -11 35 -20q0 -15 89 -120
q8 4 11 4q27 0 74 -62q11 -35 93 -108l8 4h11v-8h8v4l-8 12v27q0 3 4 3l-4 8v4q1 8 8 8v-16h8l4 39v12l-4 7l-8 -3h-4v19h8v-8h8v19q-16 0 -16 8q8 4 12 4v8h-8v11h4q8 -3 11 -3v7q0 12 -3 12l3 19v16l-3 7q7 0 7 8l-7 4q11 66 11 85l-8 12h4l8 -4v8l-4 15q3 16 8 16l-4 7
q0 4 4 12q0 4 -4 12l8 77l-8 35q4 15 4 31h11l-3 19q7 7 15 89h-8v8l8 12l-8 11v8q0 8 12 8v11q0 9 4 16q0 4 -4 4l4 19l-4 19q12 4 12 24q-10 0 -12 15q4 8 4 12q-8 0 -8 7q4 0 4 4l-35 4q0 -8 -8 -8q0 8 -7 8h-12l4 -8v-4q-13 0 -19 4q-4 0 -12 -4q-33 4 -50 4l-16 -4
l-8 4q-27 -8 -27 -15v-128q0 -9 -11 -50q4 -79 4 -109l-8 -3h-4q-9 0 -19 69l3 8q0 7 -7 31l4 8q-8 36 -12 189q-4 12 -8 12l-19 -4q-4 8 -4 12h-73v-4l19 -4v-8h-4q-87 0 -108 -8q-7 4 -16 4q-5 0 -39 -4q-24 18 -42 70l4 8q-12 15 -54 19q0 16 -24 31q0 11 -19 58v4
q0 6 35 23v4l-8 12v4q20 23 66 23h186q64 0 131 15q8 0 8 -3l27 3h43q33 0 69 4zM835 1390q1 -8 8 -8h11v8h-19zM885 1344h12q0 -8 -8 -8h-4v8zM789 949v-16h7l4 20v4h-4q-7 -1 -7 -8zM827 949h4v-4q0 -8 -8 -8h-3v4q1 8 7 8zM816 918h4q7 -1 7 -8l-7 -4h-4v12zM742 655v-12
h8v12h-8zM146 589v-12h20v8zM162 573v-4q7 -9 7 -15h4v4q-6 15 -11 15zM196 527v-4q0 -23 20 -23v4q-14 23 -20 23zM734 442l-3 -20l7 -3q0 3 4 3q-4 7 -4 20h-4zM204 419v-4q6 -16 12 -16v8q0 6 -12 12zM220 395q11 -16 11 -27h8q-5 27 -15 27h-4zM541 391q8 -32 8 -38h4
v19l-4 19h-8z" />
    <glyph glyph-name="k" unicode="k" horiz-adv-x="969" 
d="M247 1697q27 -16 36 -45q46 0 64 -77l9 -4l31 31h14q45 -36 45 -40v-9l-23 -136h-9l-9 5l-4 -23q1 -9 9 -9v18h4q9 -1 9 -9l-4 -23h-9v9h-9v-13q0 -15 -14 -32v-9q4 -27 14 -27v9h9l4 -18q-4 -27 -13 -27v23q-6 0 -18 -27q4 -9 4 -14l14 9l9 -4l-5 -23l5 -32l-9 -4h-5
l-9 4q9 15 9 27v14q-18 -4 -31 -4l9 -14v-54q0 -9 -9 -9q0 4 -5 4v-31h-13l-5 -54q9 0 9 -14q10 0 194 185q9 0 77 50h9v-5q-27 -23 -27 -36v-4h4q51 62 77 63l18 -9l54 22v9l-9 14v18q24 0 46 32v4h-5l-9 -4l-5 9q23 6 23 18h18q49 -27 59 -46v-9l-5 -27q0 -24 32 -27v-4
q-31 -36 -45 -36v-9h4l14 9h4l9 -5q0 10 23 14v-5l-63 -54v-5h4q97 73 122 73l9 -5q10 9 41 9v-4h9q0 14 45 31l4 9q-9 0 -9 9v5h9q0 -6 19 -23q-11 0 -32 -31q-46 -33 -77 -73q-9 0 -59 -49q-47 -32 -49 -41q4 0 4 -4q-14 0 -49 -27v-23q-18 -17 -18 -41q4 -123 4 -149
q0 -30 -27 -45q0 -27 -9 -27q-14 0 -23 63v59q0 24 -4 77h-9q0 -14 -9 -14h-9l-9 5q-13 -40 -41 -54h-22l4 -9q-31 -18 -31 -50h4v-9h-14v9q-9 -1 -9 -9q5 -9 5 -14q-26 -6 -41 -13l5 -9l-5 -27q40 -106 122 -249q14 -36 14 -40h-9l-14 9h-9q13 -32 36 -50l-4 23v13h4
q21 -27 36 -67q-9 -5 -13 -5q29 -90 45 -90v-5l-4 -9q42 -49 49 -49l-4 -10v-4l9 -14l-5 -22q18 -2 18 -14q-4 -9 -4 -13l9 4h4q59 -81 59 -99h23q32 -41 63 -95q6 0 13 -13q-4 -9 -4 -14q9 -1 9 -9v-4q-7 0 -18 -19h-27q0 12 -91 82l-9 4h-9v-4l14 -18v-5h-5q-41 0 -54 27
v5q18 0 18 9q-18 0 -22 36h-32q-9 0 -9 13h-9v-4l14 -23v-63l9 -13q-9 -2 -9 -9v-64q-14 -117 -28 -117q-18 0 -36 280q-81 50 -81 99q-32 27 -68 100q-29 15 -54 76q-7 0 -18 9h-4q4 -124 4 -171q-13 -81 -27 -81q-27 0 -27 221q-3 9 -9 85h4q0 57 -54 127q-27 33 -27 41
h-9l5 -9v-5q-42 -43 -77 -86l4 -18q-4 -35 -13 -59l4 -22q-9 -48 -9 -50q0 -9 9 -31q0 -52 -58 -86q4 -9 4 -14l9 5l5 -9v-63q0 -5 -36 -18l-5 -41q5 -8 5 -18q-12 -8 -46 -59q-4 0 -4 5q-7 0 -27 -23h-18q-5 0 -5 5l-9 -5h-4q-18 6 -18 41v108q0 16 4 41l-4 9q0 45 22 72
v18q-4 0 -4 -4q-68 0 -68 45q-4 18 -4 36v49q0 11 -5 18l9 19q-4 24 -4 40q11 9 22 9v18q-22 4 -22 14l18 40l-5 9l5 23q-9 0 -9 -27h-9v32q1 9 9 9q1 -9 9 -9h9q0 11 18 22v5q-14 0 -27 18l4 -9q0 -9 -9 -9h-9q5 132 18 203q9 0 9 18q-9 0 -9 9t14 9l-9 13v23l27 18v5
q-8 35 -18 36q0 11 18 67l9 -4h4v4l-18 19q27 23 27 31q-9 0 -9 14q-9 0 -9 -14h-9v27q0 19 9 36q-4 0 -4 5q9 4 13 4v14l-4 9q10 1 22 41q-22 5 -22 13v5q0 4 4 4l-4 9v32h4l9 -5l5 9q-9 0 -9 9v9l4 23l-9 4q0 77 32 77q0 7 36 27q0 65 27 172l-4 9q32 54 76 54zM76 460
q-6 -25 -14 -36v-5q6 0 23 23v9q0 9 -9 9zM17 424q5 -9 5 -14h9v5q-5 9 -5 13zM762 428h13q0 -9 -9 -9zM794 397l4 -9v-5h-4q-9 0 -9 9zM857 297l4 -9l-9 -4h-4v4q1 9 9 9zM830 171v-4q1 -9 9 -9h4v13h-13z" />
    <glyph glyph-name="l" unicode="l" horiz-adv-x="392" 
d="M169 1516h32q30 -52 36 -52v-8q0 -12 -8 -32q4 -8 4 -12l20 24l28 -12l8 4l8 -4q7 4 16 4q48 -29 48 -44v-4q-24 -83 -32 -140l16 -40q0 -37 -24 -84q4 -50 4 -56q-4 -38 -8 -44l4 -24v-12q0 -4 -4 -4q0 -15 24 -32q0 -134 -20 -224l4 -24q-10 -76 -20 -76q-8 -1 -8 -8
q3 -43 12 -52v-8q-12 -10 -24 -116q-8 -1 -8 -8q5 0 16 -24v-44q0 -74 -24 -108l8 -4q0 4 4 4l4 -8v-28q0 -8 -8 -8l4 -28v-8h-12v-12q12 0 12 -8q0 -32 4 -76q-4 -72 -8 -72q-13 0 -24 -12h-24l-4 -20q0 -8 4 -8q-6 -112 -20 -112q-21 0 -36 164q-4 0 -4 8l-8 -4
q-9 24 -24 28l4 20v40q0 21 4 68h-4q-5 0 -20 -28l-16 -4l-8 12l-8 -4q-4 0 -24 16q-23 -32 -28 -32h-4q-20 20 -20 28q12 164 12 172h4q-4 8 -4 12q9 41 16 52q-8 0 -8 8v40q16 117 16 172h4q-4 8 -4 12q7 8 12 68q-8 0 -8 12q0 38 16 184l-4 20q3 28 8 28q-4 8 -4 12
q0 113 16 172l-4 8q0 4 4 4l-4 20q0 41 20 152q-4 42 -4 68l8 4h4l8 -4q12 32 12 40v40zM309 716v-16h4v16h-4zM305 688v-24h4l4 28v4q-8 -1 -8 -8zM65 200v-16h4v16h-4z" />
    <glyph glyph-name="m" unicode="m" horiz-adv-x="1257" 
d="M119 1469h12v-8l-4 -8l8 -4h4q0 12 8 12h16l8 -4q0 12 8 12h4l16 -20l16 12h8v-4q-4 -8 -4 -12l8 4h12q0 -6 24 -28q8 -44 32 -44q9 -12 12 -12l-4 -8q12 -17 12 -40q-8 -1 -8 -8q4 -7 4 -16h-4q12 -36 24 -56l20 4h4q4 0 4 -4l8 4h8q58 -27 84 -112q24 -64 24 -72
q-4 -28 -4 -32q0 -10 44 -116q20 -128 52 -128q64 96 72 96q2 22 56 100q19 5 32 44q52 40 64 40l-4 8v4q19 13 28 36l8 4h16l-4 -8v-16h12q37 48 64 48q0 -4 4 -4q21 23 40 28v-8q-7 0 -36 -44v-8l12 8h4v-12q-12 0 -12 -8h24q0 20 44 56q51 88 80 88l-4 8v4q39 52 56 60
q0 12 80 88q0 7 44 36h12q0 -10 8 -20q-31 -45 -36 -60q-41 -21 -60 -48q18 -4 24 -20l-4 -24h4l8 4l4 -8v-8q-22 -32 -44 -104q15 -4 24 -28q-4 -132 -12 -164l4 -8q-8 -88 -20 -124q4 -15 4 -32h-4q0 -4 4 -4q-6 -112 -16 -112l4 -8v-8q-12 -9 -12 -24q8 -1 8 -8
q0 -18 -32 -36v-4q0 -20 12 -20v-16q0 -8 -12 -8v-4l8 -12q-4 -54 -12 -80q0 -19 20 -40q-14 -13 -24 -36l4 -20l-8 -16q4 -16 4 -28q-8 -13 -8 -24q4 0 4 -4l-8 -4l8 -64q-4 -8 -8 -36q8 -52 8 -64l-12 -8q0 4 -4 4v-24h4v16h8q0 -12 4 -28q0 -25 -28 -44q-26 8 -36 8h-4
q8 -25 8 -32q-28 0 -28 -120q-15 0 -24 -124l-12 -8q-8 0 -16 24q0 17 20 116l-4 8q0 4 4 4l-4 20v68q-4 0 -12 4q-13 -8 -24 -8q-8 24 -16 24h-4l-16 -12q-18 16 -24 16l4 20v28h8v-8h4v24h-12v8q0 4 4 4q0 4 -4 4l4 20v16h4l8 -4l4 28q-9 0 -20 40q4 12 8 12l-4 8v44
q1 8 8 8l-8 16q4 5 4 20q-10 0 -12 48l4 16l-4 8q8 28 8 48v4h8v-8h12q17 0 24 16q-5 24 -12 24l4 20q0 16 -24 32v24q13 20 16 20l-4 8v40h8v-12h4q0 6 8 16l-12 16v8q8 0 16 24l-8 12v8q16 24 16 56q-4 8 -4 12l8 4l-4 8v20q-16 0 -16 16l12 20v8l-4 8q-19 0 -112 -132
q-44 -35 -44 -48v-100q0 -14 -12 -40q-7 -152 -20 -152q-11 0 -20 216h-8q-35 -72 -60 -100q0 -6 -36 -68q0 -19 -16 -40q0 -9 24 -48q-4 0 -36 -40q-37 60 -44 60h-16q0 -12 -8 -12l-32 44v12l8 28l-12 -8h-4q-4 21 -4 24l8 -4v12h-8v-8q-62 101 -80 164q-7 0 -8 20
q0 12 24 12v8h-4q-13 -8 -20 -8q-32 43 -32 60l4 16q-6 0 -16 8h-4q0 -63 -24 -144q4 -8 4 -12q-8 -4 -12 -4v-4l8 -12l-4 -20q4 0 4 -4q-4 0 -16 -16l4 -8q0 -4 -4 -4q8 -25 8 -32q-5 -20 -12 -20q0 20 -20 32q0 -12 -16 -12v-4h8v-8q-15 0 -40 -28q13 -32 20 -32h12
q8 22 8 32h8v-20q1 -8 8 -8q0 18 8 36h8l4 -20q-3 -44 -8 -44q0 -4 4 -4l-4 -20l4 -20q-13 -12 -20 -12l8 -12v-20h-4l-12 8q0 -11 -8 -24q4 -8 4 -12h-8l-8 4v-8l16 -28v-4h-16l-8 4q0 -4 -4 -4q4 -80 4 -120v-48q0 -4 -4 -4q0 -4 4 -4q-4 -68 -16 -68q-28 16 -28 76v56h-8
q0 -60 -52 -60h-4q-8 0 -8 8v16q0 12 32 128v16h-4q-7 -4 -16 -4q-8 10 -8 16q-23 -28 -40 -28q0 8 -8 8h-4q-8 -26 -8 -36v-8q-17 0 -32 -16l-24 4q0 -4 -4 -4q0 8 -8 8l-8 -4q-4 8 -4 12q17 146 32 184v4q0 16 -4 16l8 112q-12 24 -12 28q0 18 4 172l12 40q-12 13 -12 20
q12 18 16 56q-8 0 -8 8q0 13 12 44l-4 16l4 8q0 4 -4 12q5 53 8 60l-8 28l12 80q0 4 -4 4l16 176l-4 8q8 30 8 36l-4 8q12 87 24 140q0 4 -4 12q7 61 20 64zM1183 1285v-12h8v12h-8zM855 1125h4v-4q0 -8 -8 -8h-4v4q1 8 8 8zM903 1081h4q8 0 8 8v4q-6 0 -12 -12zM807 1045
q21 16 40 16v4l-4 20h-8q-28 -32 -28 -40zM847 1025v-8h4q21 15 36 20q-4 7 -4 16h-4q-22 -28 -32 -28zM775 1017v-4h4q12 0 24 24l-8 4q-13 -24 -20 -24zM827 921v-8h8q6 0 12 16h-12q-8 -1 -8 -8zM823 901v-4h8v12q-8 -1 -8 -8zM491 865v-12h16q0 4 4 12h-20zM263 769v-4
q8 -10 8 -20q6 0 16 16v16h-4q-13 -8 -20 -8zM939 753h4q8 -1 8 -8v-4h-4q-8 0 -8 8v4zM1143 741q0 -12 -12 -12v-4q1 -8 8 -8h4q0 13 4 20v4h-4zM375 729l12 -8v16h-4q-8 -1 -8 -8zM463 565q7 0 20 -12h4v4q0 6 -16 16q-8 -1 -8 -8zM447 565v-8q0 -6 24 -24v12
q-7 15 -24 20zM263 509l-4 -8v-8q6 0 16 -16q8 4 12 4v4q-6 0 -24 24zM299 477v-12q10 8 16 8v4h-16zM267 453q-8 4 -12 4v-8h24v12zM287 337l4 -20h-4q4 -8 4 -12h8q1 32 8 32q-4 6 -4 24q-16 -4 -16 -24zM263 321v-8h16v8h-16zM155 277v-8q8 0 8 8v8q-8 -1 -8 -8zM1087 9
h8v-16q0 -8 -8 -8v24zM1095 -47q9 0 12 -60q-6 0 -20 36v16q1 8 8 8z" />
    <glyph glyph-name="n" unicode="n" 
d="M986 1527q0 -9 21 -25v-13l21 4q0 -4 17 -25v-21q-20 -32 -46 -261q-15 -20 -30 -215q-17 -35 -17 -47t5 -12l-30 -165v-29l8 -13l-12 -17v-4q0 -115 -30 -173v-12q0 -5 5 -5q-9 -45 -9 -96q4 0 4 -5h-8v-12q8 0 8 12h9v-4l-13 -25q9 -1 9 -9v-25l-13 -17q8 -13 8 -25
q-25 -54 -25 -63l4 -17q-7 -67 -17 -67l5 -9q-9 -50 -9 -55q9 -15 9 -33v-9q-21 -29 -47 -29l-8 4q-19 -9 -42 -9q-15 5 -17 5v-5q0 -20 25 -54q0 -7 9 -17q0 -9 -9 -9q-14 12 -38 64q4 7 4 16q-21 0 -21 22h-4l-4 -17l4 -21h-4q-4 0 -4 4q-7 0 -26 -17q-21 21 -54 139
q-16 20 -51 126q-40 73 -80 182h-8l-5 -21v-118q0 -36 -4 -114l-8 -4h-4q-17 0 -30 311q0 92 -51 203q-42 84 -42 109q0 9 13 9v8q-34 18 -34 30q-12 59 -29 59q4 -23 4 -26q-31 -522 -59 -522l8 -63q-4 -9 -4 -13q7 0 13 -13l-4 -50l4 -17q-4 0 -4 -4q-14 8 -26 8
q5 -53 5 -59l-17 -29q8 -1 8 -9l-8 -12v-5q21 0 25 -46l-8 -4q-22 13 -22 17q-21 0 -21 -55q0 -56 -21 -101q-4 -34 -12 -34q-7 0 -13 13v38q0 13 -4 21l4 25q0 10 -4 114q-13 0 -13 46v8h-12v-12h-13q-22 0 -25 12v26q0 4 4 4q0 46 -38 46q0 39 -34 76q-4 8 -4 17
q0 46 13 93v8q12 156 12 320q9 57 9 72q0 4 -5 13q14 192 30 236q0 4 -4 4q0 82 59 312q0 43 29 63h17q30 0 72 -51h4l-4 9q0 21 8 21q-4 8 -4 12q4 26 13 26l21 -4v25q1 8 8 8l4 -8l-4 -25h21l9 -5q6 17 12 17l34 -67h-4q8 -14 8 -21q0 -36 -8 -68q0 -11 67 -59
q42 -151 84 -227q0 -8 47 -72q0 -6 63 -143v-9l-8 -4q-5 9 -5 13q-8 0 -8 -13q4 -58 4 -71q-4 0 -4 -5q8 -1 8 -8l-8 -4q0 4 -4 4l-5 -17h17v8h13q0 -7 21 -42v-12q-8 -5 -13 -5l5 -8l-9 -13q9 -4 13 -4v-4l-4 -8q16 -3 16 -13l-25 -25q0 -7 13 -13q0 4 4 4q25 -47 25 -50
q9 4 13 4v8h-8q16 12 16 21q8 20 21 287q9 0 9 8q0 3 -4 26q0 32 25 92l-8 13v21q0 18 12 51l-4 8q11 29 17 29l4 -29q-8 -1 -8 -8q12 -17 12 -26h9l4 26q-13 0 -13 8q13 17 21 17v21l9 13v54q20 29 42 131l8 4q0 -6 13 -12l4 16h4l13 -8h13q13 0 42 147v9h4l8 -4
q13 44 13 46q-8 0 -8 8q3 26 46 68zM763 1156h4l4 -25q-8 0 -17 -38h-4q3 63 13 63zM746 1093q8 -1 8 -9v-8q-8 0 -8 8v9zM746 954q0 -7 -9 -17q10 0 17 -4l4 8q-4 9 -4 13h-8zM552 861v-4q1 -9 8 -9v5q0 8 -8 8zM565 840v-8q12 -14 12 -26h4v9q-9 25 -16 25zM413 646v-4
q4 -8 4 -13l9 5q-5 8 -5 12h-8zM607 621v-4h12v12h-4q-8 -1 -8 -8zM657 435v-25h9v25h-9zM662 309v-4q0 -3 4 -25h-9v-5h9q0 5 4 5q21 -33 21 -43h-4q-9 0 -9 13h-4q0 -4 -4 -13q17 -23 29 -80h13q0 16 13 34l-4 9l4 21q-7 3 -38 59l4 21q-17 8 -29 8zM615 204l-4 -30l8 -4
h9q0 19 4 25q-6 0 -17 9zM628 166v-13l8 -4v4q-4 9 -4 13h-4zM636 136q0 -11 30 -88h12l-4 8l9 4q25 -25 25 -33h4v12l-8 13q9 12 12 42l-12 -8h-13l-17 21h-4v-4q4 -9 4 -13h-8q-15 0 -21 46h-9zM712 -32h4v-17q0 -4 -4 -4l4 -9q0 -6 -12 -12h-5q-12 4 -12 25q0 8 12 8h13
v9z" />
    <glyph glyph-name="o" unicode="o" horiz-adv-x="927" 
d="M539 1443l4 -9q4 0 4 4q38 -8 44 -8l9 4q36 -7 36 -22l13 9l4 -9l9 4q44 -17 44 -44l9 5q1 -9 79 -93q84 -117 84 -203q5 0 5 -17l-5 -71q5 -39 5 -66q-14 0 -14 -9q18 0 18 -13q-4 -42 -13 -66l4 -9q0 -22 -22 -22q4 -33 9 -44q-11 0 -18 -49h9v-9q-20 -111 -44 -163
q-34 -31 -53 -145q-11 -199 -26 -199q-17 0 -22 -79l-14 -9q-8 0 -8 9q4 70 4 84l-4 17q4 7 4 27l-4 9q4 7 4 17v9h-9q-16 -70 -53 -70q-28 -55 -31 -111q-25 -23 -53 -66q-8 0 -8 9q-14 -2 -36 -49l-39 -35q-15 9 -27 9l9 -13q0 -9 -9 -9h-13q-9 0 -9 9l35 53h-4l-26 -14
q-89 0 -150 31h-5q-4 0 -13 -4q-9 0 -57 18q-18 -118 -27 -234l-13 -9h-9q-8 0 -13 40l4 17q0 21 5 150q-7 125 -71 247q0 61 -62 141l-4 53v22l9 14q0 13 -5 13q14 71 14 163q1 9 8 9q0 4 -4 4q23 88 40 88h9q8 -4 13 -4q13 32 13 40q-13 2 -13 30q-9 0 -22 -48h-5v9l14 48
q-5 28 -14 53q20 93 66 172l133 172q9 30 75 102q103 110 203 110zM622 1178q26 -44 31 -44v5l-4 26l13 22v4q0 9 -13 9q-27 -9 -27 -22zM402 870h-9q-9 0 -9 8q-4 90 -4 124q-5 0 -31 -66q-6 -14 -9 -14l5 -8q-5 -27 -27 -27v-4h9v-18q-13 -49 -31 -167q-9 4 -13 4v-22
q0 -4 -5 -4q0 -5 5 -5l-5 -22q5 -45 5 -70h-5q9 -26 22 -120l-8 -4l4 -9v-4l-4 -9q7 0 22 -44l-5 -9q37 -128 62 -128q0 -9 35 -9q52 0 159 155q31 64 31 66l35 101l-9 58q9 48 22 48q9 -4 14 -4l4 9q-4 0 -4 4l-9 -4h-9q0 25 -18 57h9l9 -5v27q-7 0 -22 31q22 25 22 48
q-13 0 -13 9v5h13v4l-9 13q9 0 9 9q-7 18 -13 18l4 22v4q-5 0 -26 13l4 9l-4 22q4 8 4 18q-9 0 -9 9v4l5 9q-9 0 -14 35q-37 119 -57 119q-114 -63 -114 -198q0 -88 -18 -88zM128 909l-4 -9v-4h4q9 0 9 9zM362 914h9v-14q0 -8 -9 -8h-4zM358 887l4 -9v-4q0 -9 -9 -9l-4 9v4
q1 9 9 9zM62 737l-4 -9v-8h4q0 13 9 13v4h-9zM283 724v-13q9 0 9 9zM345 173v-9l13 -13l22 4h13q0 5 4 13l-8 5l-9 -5l-9 5q-8 -5 -18 -5zM472 63l-13 -22h5q6 0 17 17z" />
    <glyph glyph-name="p" unicode="p" horiz-adv-x="850" 
d="M180 1522h7q46 -40 46 -96q26 9 58 31q11 0 26 4l4 -8l-7 -11h30q14 0 35 4q7 0 99 -42q10 0 46 -8l19 4q34 -4 57 -4h12q75 -19 103 -61q77 -117 77 -172q0 -4 -4 -12q8 -83 19 -141l8 3h3v-3q-34 -76 -34 -85q4 -197 4 -286l-8 -4h-7q-6 0 -12 11q0 24 -11 157
q-50 -73 -88 -88q0 4 -4 4q11 26 11 30h-7q0 -15 -8 -15h-4l-7 4q0 -8 -4 -8l4 -7q0 -4 -27 -27l-19 4q-36 -43 -50 -54q4 -7 4 -11l-12 -8h-26q-4 0 -4 4q-42 -8 -42 -23q3 -45 3 -65v-107q0 -93 -19 -100h-4q-9 0 -19 88q-5 8 -23 161h-3q-20 -4 -23 -4q-62 0 -84 23
q-24 16 -31 31q-11 0 -27 19q0 -4 -4 -12q8 0 19 -23v-3l-3 -19q11 0 11 -8q0 -27 -27 -46q-7 0 -7 11q0 3 3 23l-3 8l3 23l-7 4q0 -28 -4 -42q4 -15 4 -31h-4q0 -4 4 -4l-4 -19v-15h-11v-12l7 4h4l4 -38v-4l-4 -19h-8v8h-7l-8 -35v-15q11 0 15 -38h8v-16q-8 0 -8 12h-3
l-4 -19v-27q0 -8 -19 -8v-7l7 -12q-4 -33 -4 -42q4 0 4 -4q-7 -1 -7 -7q7 0 7 -4q-7 -13 -7 -23v-19q0 -12 3 -12l-3 -19v-57l3 -23q-2 -14 -23 -23q-7 0 -7 23h-8v-23h-4l-11 8q0 -8 -8 -8l4 -8v-4h-4l-7 4l-4 -7v-4q12 0 19 -8q8 4 11 4q1 -8 8 -8l-8 -38l4 -8l-4 -7
l4 -19l-19 -8l-8 4q-7 -4 -11 -4l-19 31l-8 -4h-15q-12 0 -12 61l4 8q-7 15 -7 23l3 7q0 4 -3 12q0 8 11 88q-4 6 -4 15q4 7 4 15q-6 0 -34 31v-8h-8q0 7 -8 19q4 8 4 12q-11 0 -19 50v22l11 85l-3 23q7 98 7 145l-7 19q10 28 19 379q25 375 49 375q23 65 50 65v3l-7 12
q28 0 34 53q7 0 27 46v4zM390 1216l-4 -8q4 0 4 -3q7 3 15 3v4zM363 1067h-3q-10 0 -23 96h-4l-54 -43q-22 0 -30 -76q-12 0 -12 -11q19 -119 19 -173l8 -3q95 0 245 80q10 69 19 69h4v-12h3q16 76 16 88v4l-8 -4h-4l8 61l-15 23l-73 16q-33 -8 -38 -8q0 8 -8 8h-19
q-8 0 -19 -107zM532 1052h7v-19q0 -8 -7 -8v27zM528 990v-19h4v19h-4zM302 730q-33 4 -42 4v-15q3 -12 31 -12h15q0 8 15 8q0 -8 4 -8q69 10 69 35h-4q-36 -12 -88 -12zM222 654v-23h7l-3 23h-4zM229 528h8l4 -16l-8 -3l-4 7v12zM229 470h12v-23q0 -7 -8 -7q-7 0 -7 7v4z
M245 463h11v-8q0 -8 -7 -8h-4v16zM229 432h8v-11h-8v11zM210 417h8l4 -16l-8 -3l-4 7v12zM226 359h11v-15q0 -8 -8 -8h-3v23zM15 191h8v-15h-8v15zM11 164h8v-30h-8v30zM34 160q0 -3 4 -3q-4 -35 -11 -35l-4 8q0 29 11 30zM8 126h7v-27l12 8h4v-27q0 -7 -8 -7h-4v3q4 8 4 12
l-8 4v-19h-7v53zM23 4q8 -1 8 -8q0 -8 -8 -8l-8 12z" />
    <glyph glyph-name="q" unicode="q" horiz-adv-x="1116" 
d="M784 1497h39q26 -20 26 -31h22q26 -39 43 -39q181 -43 201 -65q21 0 26 -61q-6 -18 -13 -18h-4q-11 9 -18 9l-22 -4q0 38 -82 48q-3 5 -96 26q-9 -4 -13 -4q-10 0 -18 4q-50 -4 -69 -13v-5q0 -8 65 -26v-4q-9 -1 -9 -9q92 -74 92 -130q-9 -2 -9 -9q17 -79 30 -79
q9 0 18 53q-12 40 -26 109q-6 0 -13 30q0 19 48 22q74 -44 74 -96v-57q-8 0 -26 9q0 -4 -5 -13q6 0 18 -26v-13q-18 -18 -18 -26q0 -5 5 -13l-5 -27v-8q26 0 26 -26q-8 -73 -21 -109q8 0 8 -22l13 9q5 -9 5 -13q-9 -15 -9 -22h-4l-9 4l-9 -13q9 -1 9 -9v-4q-13 -14 -13 -22
q0 -77 -18 -100q18 -16 18 -57v-17l-31 -26q0 8 -8 8q0 -17 -13 -17h-5l-9 4l-4 -8v-5q18 -2 18 -13q-8 -35 -57 -74q0 -25 -4 -30q4 -8 4 -18v-13h-4l-14 9q-7 -49 -30 -83q0 -9 -17 -9v-4l21 -65q20 -37 101 -153l-5 -22h-9l-8 5q0 -57 -13 -57q8 -16 8 -35q0 -26 -43 -26
q-17 -4 -35 -4l-31 4q35 -71 35 -83q-24 -30 -43 -30h-22q-17 -144 -31 -144h-4q-20 0 -30 196q-58 153 -88 153q-17 0 -34 4q-36 -35 -57 -35v-4h9v-9l-105 -39q-4 -127 -48 -127q-22 37 -22 122l-8 5h-26q-44 0 -140 39h-22l-26 -4q-39 0 -100 87q-44 133 -74 270q0 4 4 4
l-4 22v13q13 20 13 31q-20 100 -39 126q0 17 -9 17q41 166 57 166l-5 9v4q22 12 22 18l31 78q13 28 30 105q0 25 39 47l-4 22q5 0 61 74l-4 9q34 48 34 65l-17 -8l-4 8l26 22h4v-13h5q10 9 17 9v13q-13 0 -13 9l43 39h5q30 -11 30 -22q10 0 35 35q-4 8 -4 17q90 57 139 57
l18 13h4l22 -4q0 30 100 48q1 -9 9 -9l126 30v5h-4q-46 -9 -70 -9q0 10 44 22q0 13 26 26zM627 1140l-4 -9v-26q0 -183 -27 -183l-8 -5q-13 0 -18 75v13q0 22 5 39q-5 23 -5 43v44h-13q0 -17 -9 -17q0 4 -4 4l4 9v4q-5 0 -56 -70h-5v9l9 13v9q-47 -27 -100 -127
q-9 0 -52 -78q-61 -62 -109 -205q-13 -46 -18 -100q0 -36 26 -113h5q27 0 117 56q9 -4 14 -4q0 -22 -96 -122q0 -20 -22 -31q52 -43 104 -65l9 4q14 -21 61 -39q0 -8 26 -8q0 4 92 91l4 9v8l-35 27v8q0 9 26 18q8 -5 18 -5q3 22 22 22l-5 9q0 5 35 17l5 -8l8 4l22 -4v4
q-12 32 -48 74v13q0 7 18 18h8l26 -18q9 0 9 9q-6 0 -17 17h13q0 -10 26 -13q0 -17 22 -17q0 5 30 26l9 -4l35 56h-9q57 101 57 118q-9 33 -9 39q0 26 22 26q0 9 -26 44q-9 32 -9 35q9 0 9 8q-12 0 -18 48q-4 0 -4 5l4 30q-14 0 -35 39q-21 13 -65 96q-37 31 -74 31z
M474 1035l5 -9l-13 -8v8q1 9 8 9zM444 983h9v-9q-16 -26 -22 -26v9q13 20 13 26zM980 612v-8h4q9 0 9 8h-13zM200 504h13v8h-4q-9 -1 -9 -8zM309 229v-9h13v9h-13zM335 216l4 -9v-8l-13 -18q24 -9 61 -9l5 9v4q-30 31 -53 31h-4z" />
    <glyph glyph-name="r" unicode="r" horiz-adv-x="926" 
d="M211 1590q20 -3 20 -21h8v9h9q8 0 20 -50q-8 -11 -16 -74q5 -14 21 -29q-9 -39 -9 -50q9 -4 13 -4q54 22 82 41q23 0 46 5q4 -9 4 -13h8q0 6 8 17l21 -4q76 8 83 16q136 -14 198 -54q106 -60 107 -95q79 -99 79 -169q4 0 4 -8q-3 -62 -17 -62l4 -17l-25 -95
q-12 -5 -24 -37q-16 -12 -29 -12q0 4 -4 4q-28 -28 -29 -37q4 0 4 -4q-8 -1 -8 -8v-5l8 -12l-8 -4h-4v8h-5q-41 -14 -41 -124q-4 -43 -4 -95q-8 -18 -17 -20q-16 24 -16 37v33q0 78 -21 78q-30 -9 -99 -66q0 -10 -45 -29q0 -9 -29 -24q-4 -16 -17 -25l71 -103h-13
q0 12 -66 86l-8 4v-8q109 -122 128 -169q22 -18 49 -83q18 -12 50 -95v-4l-4 -8q12 0 16 -33q-4 -7 -4 -17q28 0 46 -74q45 -27 45 -70q8 -1 8 -8v-5h-12l4 -8v-4l-4 -8q16 -2 16 -13q-16 -2 -16 -33q12 0 41 -33h8q0 17 9 17q3 -25 16 -33l-4 -8q5 -17 25 -17q0 -11 -8 -25
q13 0 37 -29l8 5h8v-5q-4 -8 -4 -12q6 0 17 -16v-5q-7 0 -33 -16q21 -32 57 -70q0 -15 21 -42q0 -6 -12 -12h-4q-17 20 -62 33q-61 54 -83 91q-8 0 -29 8l-4 -8q12 0 12 -8v-13q-21 -31 -45 -49q0 8 -33 53q0 13 -8 29l-9 -4q-10 8 -16 8v9h4l8 -4v8q0 8 -74 99q-6 0 -17 8
v-132l5 -25q-5 -78 -17 -78q-33 31 -33 70v12q0 219 -25 219q-17 95 -29 95q9 0 9 8q0 7 -17 21l4 8q-4 9 -4 13h-21q-12 10 -12 16h-12l-9 -4q-8 8 -8 25h8q0 14 -28 45l4 9h-13l4 8q-5 17 -41 49q0 10 -37 62q-3 20 -21 33l4 9q-41 27 -41 70q-33 12 -33 41h-8
q-8 -1 -8 -8v-4q12 0 20 -17v-37q0 -74 -16 -74q0 6 -13 12h-4l4 -21v-37l-8 -12q0 -38 21 -58q-6 -21 -17 -83h-8q0 -3 -4 -99q-7 0 -25 -33q-27 0 -37 -12q-4 9 -8 54q4 21 4 49h-4q-9 -4 -13 -4l-4 8l4 17q-4 12 -8 12l8 99q-4 0 -12 4q-29 -5 -29 -16v-41q0 -30 -12 -33
h-9q-10 76 -20 90q-14 -8 -21 -8q-4 7 -4 17l-12 -9q0 11 -17 13q0 62 25 153q0 4 -4 4q4 35 16 49l-8 13l4 41l-12 21l4 16q-4 8 -4 13l4 8q-4 7 -4 16q16 20 16 29q-8 0 -8 8v5q7 42 25 70q-9 27 -9 33q9 28 21 115q-4 9 -4 13l12 8l-4 8v9q13 14 13 49l-13 17v8l17 4
l-13 17q0 4 4 4l-4 20v13q0 8 13 8v16l-9 13v20q0 28 33 50q-12 19 -12 37q0 3 4 25q-4 16 -4 29q8 4 12 4l-4 17q0 17 9 41l-5 16q0 11 9 50l-4 8q12 20 20 83h4l-4 8q25 35 25 128q16 12 29 12q4 0 4 -4q13 8 25 8v9h-8v8zM289 1557l8 -4q0 -5 -8 -46h-8q0 21 8 50z
M343 1123v-4q12 0 12 -8v-4q0 -48 -29 -87v-41h8q0 -8 -8 -8q0 4 -4 4q0 -13 -21 -13v-4q13 0 13 -8q0 -18 -21 -29l-4 -29l8 -4v8h9l4 -20q-5 0 -25 -75q8 -1 8 -8v-16q0 -5 -4 -5q4 -5 4 -28q79 22 79 28q0 4 41 29v4q0 10 -4 17q8 12 8 29h21q128 46 128 78q32 38 57 38
q23 74 46 99q0 4 -4 4q4 29 8 37q-4 7 -8 37h4q0 56 -79 83q-74 -8 -74 -33q-10 -124 -29 -124q-19 2 -29 161q-8 0 -8 16h-4q-76 -23 -79 -33q0 -91 -24 -91zM743 1136l4 -17q0 -23 -41 -144q20 1 50 58h4l-4 8q9 7 16 74l-16 25h-5zM702 1086l-4 -16h8v16h-4zM273 900v-28
h4v28h-4zM446 550v-5q8 -10 8 -16h8q-8 18 -16 21zM54 483l4 -24h12q0 9 -4 16q4 7 4 17zM54 426l4 -21h4v21h-8zM132 417l-4 -20q6 0 12 12q0 8 -8 8zM132 339q0 -4 -4 -12h8v12h-4zM471 153v-12h8v4q0 8 -8 8z" />
    <glyph glyph-name="s" unicode="s" horiz-adv-x="876" 
d="M431 1454h33q50 -10 129 -49v9h16l25 4h17q1 9 8 9h8q203 -30 203 -49q16 -14 21 -31l-4 -18q4 -8 4 -13l-17 -9l5 -9v-9l-29 -4q-15 0 -38 4l-8 -4q-17 4 -29 4l-21 -4l9 -13q-23 -18 -121 -18q0 -8 -70 -18q-8 -134 -33 -134q0 -44 -13 -44q-7 0 -25 98q-7 0 -20 13
q-37 0 -87 -53q-15 0 -125 -49h-4q3 -19 71 -62q0 -9 49 -27q0 -15 104 -76h4v-9h-12q-9 0 -9 9l-8 -4q-17 9 -25 9q0 -9 -25 -14q-44 23 -78 27q0 6 -17 9q-8 -5 -13 -5q26 -20 282 -142q27 -15 38 -44v-9q-9 -11 -9 -18q54 -66 54 -76q0 -31 75 -71q62 -41 62 -89
q4 0 4 -4q-33 -5 -33 -23q33 -62 42 -106q-13 -56 -29 -76q-12 -27 -17 -80l-17 -18q-20 7 -20 31v49h-9q-10 0 -66 -89q-54 -33 -54 -62q0 -95 -25 -151q0 -76 -16 -76q-9 0 -9 9q0 64 -20 213h-13l-12 -9q0 7 -13 14l-195 -94q-7 0 -33 9q-8 -4 -12 -4l-21 4
q-48 -16 -58 -31v-53q0 -10 -4 -18q0 -5 4 -5q-8 -110 -33 -218l-8 -4q-17 19 -17 36v84q0 165 -29 165q-5 0 -21 22q4 27 4 40q-120 15 -120 62q0 7 -21 76q0 10 38 13v5q-79 77 -79 84q8 34 8 45q-8 0 -8 9l4 9l-25 35l4 18q-4 25 -4 40l4 9q-8 23 -8 36l4 9q-8 14 -8 22
q4 0 4 4l21 -4l25 22h4q134 -79 232 -174q7 -13 83 -71h4q14 0 125 67q22 0 53 40q60 36 67 36v9q-59 54 -261 218h-5q-2 -54 -16 -54q-18 0 -33 111q-71 67 -71 98q-29 0 -83 174q-15 0 -29 49l9 18l-5 9q12 95 112 222q17 17 63 53h8v-13h12q0 18 9 18q1 -9 8 -9h4
q4 0 54 44q0 -4 4 -4q55 34 108 53l8 -4q19 40 50 40zM381 324h8q19 9 21 18v4q-26 -9 -29 -22zM265 266q13 -9 21 -9q6 0 45 22v18h-4q-62 -9 -62 -31zM514 101v-4h4q8 0 8 9v9q-6 0 -12 -14zM8 97l12 -18v-22q21 0 42 35q-21 9 -29 9z" />
    <glyph glyph-name="t" unicode="t" horiz-adv-x="453" 
d="M17 1716h113q108 0 108 -18q30 4 50 13q316 -18 406 -54q167 -19 167 -40q212 -18 212 -41v-4h-9q-15 0 -23 4l-27 -4h-18q-12 0 -27 9l-27 -5q-9 5 -13 5v-9h-14l-14 9q0 -14 -9 -14l-13 9h-14l-13 -9h-45q-33 -31 -50 -31v4q-49 -22 -95 -31q-33 -55 -58 -55h-59
l-27 -230q-15 0 -22 -45h-10q-10 0 -22 131v18q0 38 4 122h-13q-27 -16 -27 -41v-94q0 -7 -18 -18l-9 4l-9 -54q0 -5 4 -5q-4 -54 -13 -54l4 -22l-9 -32l5 -45q-17 -104 -27 -104l4 -18l-4 -31l4 -32q-9 -80 -22 -158l4 -9q0 -9 -18 -95q0 -4 5 -13l-9 -72q4 -8 4 -18
q-9 -15 -9 -27v-9q0 -10 5 -18q-5 -9 -5 -14l5 -22q-9 -32 -9 -55v-81q0 -9 -9 -9q-11 0 -18 59q-5 0 -5 4l5 9l-9 5h-5l-5 -18q5 -14 10 -14q-10 -18 -10 -31l5 -18l-5 -9q5 -25 5 -36q-17 -65 -23 -172q-13 0 -22 -162l-9 -5h-14v45q0 20 -9 36q5 50 5 86v27q-9 65 -9 140
h-5q0 -13 -27 -59l5 -9q-14 -20 -14 -31q5 -25 5 -36q-14 -18 -23 -18l9 -14q-26 -67 -36 -257q0 -84 -27 -113q-8 -135 -27 -135h-9q-14 5 -14 27v18q9 146 9 158v9q-13 0 -13 9q0 5 4 14l-4 18q3 39 13 49v9h-9v18l5 27l-5 9q9 0 18 149q-13 0 -13 9q0 37 9 172l-14 9
q15 155 27 203l-4 27v13q9 63 14 63l-5 23v13q0 12 9 41q-4 9 -4 14q4 9 4 13q0 5 -4 5q0 18 22 94q-4 24 -4 27q0 8 9 36q0 5 -5 14q5 30 5 50v45q9 0 9 4q-5 9 -5 14l14 13q0 5 -5 14q23 232 41 361q0 14 4 76q-9 0 -9 5l-9 -5q-5 0 -22 32h-68q-9 -1 -9 -9
q0 -130 -23 -135h-9q-17 148 -27 148q-54 0 -54 23q0 11 9 41q-7 18 -13 18h-5l-31 -5l-5 9l9 14q-12 0 -22 22v5q0 4 4 4q-18 36 -18 50v13q10 0 14 27h81q58 14 76 14zM270 417v-23h9q0 11 5 18l-9 5h-5z" />
    <glyph glyph-name="u" unicode="u" horiz-adv-x="969" 
d="M296 1495q19 0 25 -26l9 5q17 0 17 -69q-17 -121 -17 -150q8 -28 8 -38q-12 -90 -12 -249q35 0 42 -98l5 -22q-39 -156 -47 -240q4 -40 4 -77q-21 -7 -21 -38v-4q12 0 12 -9v-26q0 -8 -12 -8q8 -11 12 -43q-4 -9 -4 -13l13 -9h13q184 40 184 90q31 30 56 90q6 17 21 30
q0 28 34 107q0 25 13 56q-4 8 -4 17h4q0 5 -4 5q7 59 21 59q9 -4 13 -4l4 9q-4 8 -4 13l-8 -5h-9v13q0 11 13 39q-9 0 -9 8q7 0 13 17q-8 0 -8 9q4 60 25 60h9l-4 8v5h12v8h-12v-8h-9q-9 0 -9 13q0 56 30 90v12q0 37 17 73q17 86 26 86q14 -9 26 -9q0 60 13 60h8
q19 -17 35 -17l12 9q9 0 9 -17h9v34q0 3 12 13q0 85 35 85l17 13q6 0 17 -21v-17q2 -51 13 -52l-17 -120l8 -21l-4 -9l4 -17q-38 -211 -68 -338q-11 -99 -22 -99v-21q0 -30 -30 -193q5 -7 5 -21q-9 -14 -9 -26l4 -30q-8 -1 -8 -8l4 -18q-17 -103 -47 -175q4 0 4 -4
q-15 0 -21 -35h-5l-4 9q0 26 17 26v4q-9 0 -17 4l-8 -13v-21q20 -27 21 -34q-9 -1 -9 -9v-26q-19 0 -38 -25h-4q-10 8 -26 8v17l4 22h-4q-5 0 -26 -60q-32 -64 -43 -64q-8 0 -17 -167q-14 -38 -25 -39q-8 0 -18 26q5 29 5 47v8q-26 0 -26 90q-14 0 -17 26q-4 0 -13 4
l-103 -55q-48 -13 -73 -13v-9q26 -4 26 -13v-4q-26 -1 -26 -8q-95 0 -137 81q-23 17 -42 17q-14 -9 -26 -9l-17 13q-10 -73 -26 -73q-17 25 -17 35q0 175 -21 175l4 22l-13 21q4 0 4 4q-30 14 -30 69l5 9q-5 7 -5 17q22 20 22 47l-13 -9h-9q0 14 -4 22q9 34 21 34v8h-12v5
q10 10 25 51q-8 0 -8 9v4q0 4 4 4q-4 9 -4 13l-13 -8q-4 8 -4 12l4 30q-4 9 -4 13q8 0 8 9q-17 19 -17 30q13 21 17 47l-4 8q4 22 8 22q-8 17 -8 30q0 7 8 26l-4 8q30 177 30 180q0 4 -4 4q38 318 64 407q0 59 60 77q0 -6 30 -51v-4h9q0 89 38 89q39 34 39 39zM279 1050
l8 -13q-21 -35 -21 -52h8v-4l-4 -8h9q17 7 17 29v13l-9 13q13 0 13 9v8q-13 0 -13 13q-8 -1 -8 -8zM154 163q0 -34 -8 -34q-9 0 -9 8q-7 -4 -17 -4l9 -13h-9v-21h9l-5 8v9h13q2 -17 13 -17h4q0 13 13 13v25q0 23 -13 26zM458 56v-4h13q9 0 9 8v5q-14 -9 -22 -9z" />
    <glyph glyph-name="v" unicode="v" horiz-adv-x="917" 
d="M154 1583q23 0 48 -48q13 0 27 -158q3 -1 30 -148h-9q-6 48 -17 48v-5q13 -38 26 -153q20 0 48 -210q35 -89 70 -253q-4 0 -4 -5q11 0 22 -92q4 0 4 -13q6 1 70 88h-4q-9 0 -9 -13l-9 4q44 74 66 144q16 0 31 44q17 11 26 66q34 27 48 83q35 50 122 210l9 4l-4 9v4
q11 22 30 22l-4 22v4h13v-4q-4 -9 -4 -13q7 0 26 52h9v-8l9 4l-5 9v4q1 9 9 9v-9h4v5q-4 8 -4 13q32 6 79 118h8l9 -5q1 9 9 9h13q20 -17 22 -17q8 4 17 4l5 -9v-22q-26 -23 -44 -91h-9l5 -9q0 -12 -9 -26q4 0 4 -5q-11 0 -17 -30q-8 -5 -18 -5v-13l9 4q0 -4 4 -4
q0 -16 -26 -35q0 4 -4 4l4 -21v-9q-16 -35 -22 -35l5 -9v-4q0 -8 -22 -13l4 -9v-9l-9 -13v-4l5 -22q-28 -32 -35 -57q-19 -10 -22 -22l4 -26q-13 -20 -13 -35q13 0 13 -9t-13 -9v-4q18 -31 26 -31t22 22h13q-6 -21 -30 -39q0 -22 -26 -53q4 -9 4 -13l-22 -13l4 -9l-17 -26
q4 -9 4 -13q-8 0 -48 -79v-4h13v8h9v-4q-29 -48 -35 -48v9q4 8 4 13q-10 -2 -21 -31h4l13 9v-9q-44 -50 -44 -205q-16 -184 -30 -184q-9 0 -18 26q0 49 5 149l-5 26q5 0 5 4l-9 5q0 -23 -35 -96q0 -17 -9 -27q4 -7 4 -17q-4 0 -17 -18l4 -8v-5q-13 0 -13 -9v-8l5 -22
q-15 0 -40 -70v-5q1 -8 9 -8q-21 -72 -35 -272l-18 -17q-39 22 -39 44v70q0 4 -9 35v35l-4 43q-4 0 -4 -4q-20 0 -66 35q-9 -4 -13 -4q-23 49 -48 65v5l-9 -5l-26 22v5q0 13 4 13q0 112 -26 192q0 29 -13 31q-48 -24 -48 -75q-5 -52 -5 -118v-8q0 -34 -17 -40
q-12 25 -22 145v43l-9 31q-10 455 -22 455v22h9v35q-18 0 -18 9l9 13q0 4 -4 4l4 9q0 4 -9 35v9q0 4 5 4q-6 22 -13 22q0 -5 -5 -5l-4 9v5h9v8h-9l4 22q-4 48 -17 48l4 22l-9 13q0 5 5 5q-13 23 -40 170q-5 47 -17 57q14 7 39 13q9 -4 13 -4q2 9 9 9q14 -9 26 -9h5
q-9 37 -9 44l9 4h4q5 0 5 -4l8 4h5l8 -4q0 13 9 13q-4 101 -13 140q4 52 39 52q2 9 9 9zM902 1386v-4q9 0 9 9v4q-9 -1 -9 -9zM793 826q0 -9 -13 -26h9v9h8v-13h5v21q0 9 -9 9zM780 787v-13h4q0 4 5 13h-9zM360 581v-4q1 -9 9 -9v13h-9z" />
    <glyph glyph-name="w" unicode="w" horiz-adv-x="1341" 
d="M-6 1545q9 0 27 -53h4l13 9q6 -31 14 -31h4q0 11 18 13q0 -17 40 -44q4 -45 18 -45v-31l22 -4l9 4q1 -9 8 -9h5v9h4q5 0 5 -4l9 4h8q45 -47 45 -102q12 -77 22 -93q-5 -9 -5 -13l5 -9l-5 -9q36 -112 40 -155q0 -4 -4 -4q31 -128 31 -138q-9 -1 -9 -8l5 -9l-5 -27v-4
q26 -51 36 -120h4l-4 -22q8 -10 8 -27h5q0 14 9 14q0 -5 4 -5q27 76 80 146q10 0 31 31h18v9q0 9 -9 9q0 54 62 129q9 4 13 4q1 -9 9 -9q0 5 4 5l-4 31v9l62 79q0 9 22 31h5l13 -9q9 20 18 23h8v-14l9 5h9q22 -39 22 -84q-31 -17 -31 -54q0 -11 45 -48q0 -11 57 -129
q54 -116 76 -186h17q0 29 27 31q0 18 26 18v18l-4 22h9v9h-9v13l9 -5q9 0 9 9v5l-9 13v13q0 8 22 14l-4 8v23q22 0 22 13v13q-14 0 -14 9q0 8 27 27v4h-9v9q7 0 18 22q4 0 4 4q0 5 -4 5q2 33 31 80q0 24 66 230q27 108 49 164v4l-13 18q15 27 22 27h4q9 0 9 -14h5l13 9h13
q14 0 14 -17h13l13 8h9v-4q-13 -39 -13 -58l4 -8q-20 -85 -26 -85l4 -8l-13 -27v-22q0 -7 13 -13l18 13h9q13 0 31 -40q0 -23 -45 -102l-9 -40v-4q27 -30 27 -36q0 -22 -9 -22q0 -7 22 -26l-31 -76q0 -11 14 -49q0 -17 -45 -84q0 -31 -22 -53q-5 -288 -31 -288h-4
q-8 0 -18 67h-4q0 -5 -5 -5l5 -9q-51 -45 -62 -111l4 -8q-17 0 -22 -40q4 -9 4 -14q-9 -1 -9 -8q9 -2 9 -9l-31 -27q9 -14 9 -26q-20 -22 -31 -102q-31 -8 -31 -49q0 -5 4 -13q0 -12 -22 -58v-160q0 -32 -13 -35h-4q-23 28 -36 182q0 36 -62 71v8q5 9 5 14q-6 0 -71 48h-5
l9 45q0 6 -80 181v14h5l13 -9q7 0 13 13v9q-11 11 -31 49q-13 0 -13 9q0 4 4 4q-4 9 -4 13h-4q0 -4 -5 -13q9 -18 9 -27h-9q-25 41 -49 102q-4 0 -4 5q4 0 4 4l9 -4q9 0 9 9q-7 0 -18 17l-8 -4q-23 31 -27 31h-9q0 -10 -31 -58l-4 -31q0 -67 4 -208q-5 -159 -22 -159
q-7 0 -13 13v111q-31 0 -31 102v13q-17 -5 -45 -67q0 -4 5 -4q-8 -49 -22 -49l4 -9q-12 -14 -22 -39q-20 0 -27 -40l5 -27q-21 0 -31 -62h-27q0 -14 -31 -35h-4l-9 4q0 -7 -14 -13q-9 0 -44 164q0 22 -31 177l-22 -5v5l-9 -5q-8 0 -49 147q-13 40 -70 310q-18 46 -45 177
q-22 54 -44 177q-5 0 -5 5v22q0 4 5 4l-5 9v22q-14 0 -22 62l5 23q-18 114 -18 132l4 32h5l9 -5q-9 42 -9 67q9 27 22 31h4l9 -5q1 9 9 9zM792 907h9l8 -31h-4q-10 0 -13 31zM668 490v-8q17 -23 17 -31h5l9 4q-3 35 -31 35zM473 420q4 -9 4 -14h5v14h-9zM756 313
q0 -13 -4 -13q4 -9 4 -13h18v8q-7 0 -18 18zM774 256v-9q0 -5 18 -27h-5q9 -15 9 -40q7 0 13 18q0 8 -8 27q4 7 4 17q-9 0 -9 5l-9 -5q-9 0 -9 14h-4zM256 220v-4q4 -9 4 -14h4v14zM260 189v-4l4 -22h9v17q0 9 -9 9h-4zM269 145v-5q4 -9 4 -13h5v18h-9z" />
    <glyph glyph-name="x" unicode="x" horiz-adv-x="1020" 
d="M121 1468q0 -6 24 -24q1 10 9 10q10 -29 62 -57q29 -31 47 -85q8 0 33 -57q29 0 29 -43q104 -176 104 -194q10 0 33 -29q31 3 209 218q27 22 113 124h10q9 0 9 -15l19 15l10 -5q8 5 19 5v-10l-5 -9l9 -5q60 54 100 109h9v-10q-9 -9 -9 -28q28 0 28 -14q0 -13 -19 -38
q-26 -63 -42 -71q-12 -16 -33 -71q-10 0 -34 -38h-18q4 -10 4 -14q-26 -43 -38 -43h-4v-29q-93 -135 -109 -146l9 -15q-24 -23 -38 -61q-33 0 -33 -38q0 -11 -28 -29q-10 -46 -10 -52h19q5 -8 5 -19q-19 0 -19 -9q38 0 38 -24q-5 -9 -5 -14q7 0 14 -14q-9 -1 -9 -10
q5 -15 19 -19q0 5 4 5l24 -33q0 -5 -5 -5q0 -27 38 -80q44 -118 95 -214q8 -1 43 -94q12 0 19 -38q22 0 33 -33q9 -2 9 -10v-38q-35 -52 -52 -52q-19 0 -19 -28q52 -84 52 -90q-11 -10 -19 -10h-14q0 -16 -33 -43h-5l-9 5q0 -9 -10 -9h-9q0 9 -19 19q0 4 -76 113l-14 -9
l-10 14v5q10 12 10 19q0 22 -24 61h-9q0 -14 -10 -14h-4q-8 0 -15 14v5h19v5q-10 0 -28 33v5q0 7 14 14q0 37 -33 47q0 -66 -10 -66l5 -9v-34q0 -10 5 -19q-5 -8 -5 -18v-34q-24 -15 -33 -71h-9q-15 0 -15 52v34q0 16 5 42q-22 89 -47 299q-25 15 -57 90h-19q-8 -48 -29 -48
h-14q-42 -56 -57 -56v-15h5l24 5l4 -9q-56 -32 -56 -67q4 -9 4 -14h-9l-10 5v-10l10 -14v-14q-39 -66 -52 -66l-24 14q5 -88 5 -128v-266q0 -24 -14 -28h-5q-21 0 -33 208q-7 6 -33 109h-15l-14 -9q-33 0 -33 28l-33 -19l-48 10q-15 -33 -42 -52q-25 14 -43 19l-33 -5
q0 4 -14 14l9 33h-5l-19 -14h-9v10q95 119 166 251q13 0 33 66q161 223 251 370v4q-20 17 -80 133h-5v-14q0 -14 5 -90l-15 -10h-4q-43 12 -43 228q-14 0 -28 52l14 9h14q5 9 5 19v5l-5 10l9 4q0 -14 15 -14q0 10 4 10q10 -5 15 -5v5q0 15 -38 75q-24 68 -38 86v9q10 0 19 5
q0 27 -33 76q0 44 -19 61q0 10 14 10q0 7 -19 43l9 4l15 -9h9q0 14 19 14zM45 1459h10q0 -8 9 -19v-5h-5q-10 0 -14 24zM941 1373v-9q9 4 14 4v5h-14zM927 1364q0 -9 -24 -33v-5h5q10 0 28 33v5h-9zM325 245h9l5 -47l-14 -9q-7 0 -14 14q14 29 14 42zM-102 132v-10h5
q10 0 10 10h-15zM-116 113q0 -11 -19 -33v-5h5q19 9 19 28v10h-5z" />
    <glyph glyph-name="y" unicode="y" horiz-adv-x="883" 
d="M904 1454l16 -20q0 -16 -32 -64q0 -20 -8 -20q8 -36 8 -52h4l12 8l28 -20q-45 -67 -80 -156q-19 -12 -68 -108q-44 -5 -44 -44q4 -8 4 -12q-44 -52 -44 -76q-18 -24 -48 -100q-8 0 -32 -32q-7 4 -16 4l-4 -8v-8h12q-8 -35 -32 -80q2 -12 20 -32v-16q0 -8 -8 -8l-8 4
q0 -15 -8 -24q0 -59 -12 -92q4 -8 4 -12q-11 -24 -20 -120q-15 -12 -28 -12h-4q-8 0 -8 8v20q0 64 -12 64q-4 -11 -28 -36q4 -8 4 -12q-16 -32 -28 -32v-8l8 -12l-28 -52q-4 0 -4 -4l-8 4h-4q-6 0 -12 -12v-8q16 12 24 12v-4q-52 -97 -52 -164q-4 -94 -20 -244v-20
q0 -24 -20 -24q0 -68 -20 -68h-8l-8 4q0 14 4 36q-4 103 -4 176l-4 20h-4q-18 -88 -60 -88q-10 0 -32 -4q-4 8 -4 12l-12 -8h-8q0 16 24 72q-8 4 -12 4q-13 0 -56 -8l-4 8l4 8h-4q-7 -4 -16 -4l-4 8q4 5 20 36q0 3 -4 24q12 51 28 76q8 -4 12 -4l4 8v20q-16 23 -16 32h-4
q-20 -13 -20 -16q-16 4 -28 4l4 28l-12 -8l-4 8q20 45 20 48h8q-8 -25 -8 -32q10 0 20 44l-8 -4q-8 0 -8 8v4q40 66 92 168q23 0 84 136q4 0 4 4h-12q1 8 8 8q8 -4 12 -4q12 16 12 24q-8 0 -8 8l12 20q0 7 -20 28q-3 33 -96 180l-16 12l-4 -20v-56q0 -44 -12 -44h-4
q-18 19 -28 164q0 96 -68 176q-68 55 -68 76l8 4l8 -4q0 4 4 4l-4 20q1 8 8 8l-16 28v8q7 9 12 40q-4 23 -16 28q0 20 -20 48v24q0 14 4 36q-8 13 -8 24q20 28 24 28h8q50 -36 80 -100q49 0 80 -56q14 -3 60 -96q24 -8 24 -16l-8 -12v-4q28 -30 28 -44l28 -20q8 0 8 -12
l20 4q1 -8 8 -8l-4 -20q27 -35 52 -76q18 -13 44 -80h4q62 78 112 152h8q8 -4 12 -4v8q-12 0 -12 8q19 24 32 24l-8 12q0 8 20 8v-4q8 0 24 28h8q0 -4 4 -4q0 4 4 4l-12 24v4l8 -4q4 20 16 20v4h-8v8q14 0 36 32l-8 12q0 5 40 36q0 22 40 44v8h-8v12q5 0 28 32q32 20 44 20
l8 -4q34 53 48 60h8q4 0 4 -4q16 8 28 8zM748 1330v-4h4l4 16q-8 0 -8 -12zM732 1282q1 -8 8 -8h12l4 20q-15 -12 -24 -12z" />
    <glyph glyph-name="z" unicode="z" horiz-adv-x="1144" 
d="M218 1441l51 -5h13l17 -14l21 4q97 -10 106 -14q7 5 21 5l-4 9l9 5l4 -9q4 0 4 4l225 -29h8q13 0 13 5l25 -5q45 0 162 -4q17 9 25 9q60 -12 60 -19h8l13 10h4q0 -15 8 -15h13v15h9q14 -22 29 -25q16 0 22 -43q4 0 4 -5v-9q-8 -68 -43 -68v-29h-51q-8 -3 -16 -24h12v-15
q-51 0 -51 -77q-8 -155 -29 -155h-5q-13 0 -21 63q-13 0 -30 -58q-13 0 -76 -92q-68 -33 -68 -125q-3 -126 -29 -126q-25 26 -39 73h-8q-34 -29 -38 -29l4 -10q-25 -35 -47 -92q-39 -15 -46 -24q0 -20 -55 -116q81 0 292 -96q26 -15 34 -44l13 -9h4q10 0 17 4
q127 -19 127 -53q17 0 17 -9q-4 -10 -4 -15h59q18 0 47 5q9 -5 13 -5v-10q-4 0 -4 5q-10 -9 -51 -9v-5q21 0 21 -5l8 5h39q25 -3 25 -15l-38 -29l-26 5q-39 0 -59 -34q-14 -24 -25 -24q-5 0 -13 5l-68 -10q-4 0 -4 5l-26 -5l-25 5q-61 0 -81 -43q0 -15 -123 -20l-8 5
q-5 0 -5 -5l-21 5h-42q-15 0 -38 -5q-6 5 -30 5q-5 0 -21 -116q0 -9 -9 -9h-4q-13 0 -13 29h-8l-9 -5q-11 9 -21 101l-51 5h-63q-9 0 -30 -208q-9 -19 -13 -19h-8q-7 7 -30 82v58q0 34 -13 92l-51 5q-8 -21 -42 -34h-9q-8 0 -8 19h-4l-17 -14h-9q0 15 -21 24q-17 0 -76 -10
l-5 10l5 29q-5 9 -5 14q5 0 5 5q-7 0 -13 15q6 0 13 14l-13 24q28 44 81 44v14l-5 29q11 45 77 87l4 10l-4 48q9 6 195 256l17 15h4v-5l-8 -15v-5h4q42 39 42 54l30 38v10l-34 -29v5q0 8 47 63l21 -5h4q0 19 26 19v5h-13v10q22 25 46 77q13 19 22 19v24q57 115 106 169
l17 -9q8 12 8 19h9q0 -14 8 -14q0 9 4 9l-4 10v5q26 0 26 9q0 15 -9 39q-13 0 -13 -15h-8q0 25 -13 25q-3 0 -34 -5v5l-8 -5h-21q-30 0 -47 -10l-9 5l-21 -5l-8 5l-60 -15q-8 5 -12 5q-7 -8 -94 -14l-4 -24v-73q0 -37 -17 -43h-8q-9 34 -17 130q-77 -24 -140 -38
q-17 14 -22 62q-11 0 -25 39l8 14l-12 10h-47q-9 0 -25 48q-17 8 -17 15q4 10 4 14q-9 0 -9 10q1 10 9 10l-4 9v10h72q20 39 55 39q0 19 81 58q12 0 25 24q17 0 17 9v5h-13v10zM413 1431h22v-9h-30q1 9 8 9zM452 1417v-10h4q8 5 12 5v5h-16zM990 1243v-15l30 -4h4v4
q0 10 -34 15zM1058 1219h30v-10h-30v10zM1054 1195h25v-5q0 -10 -8 -10h-9q-8 0 -8 10v5zM1024 1185h13v-10h-13v10zM668 1083q0 -14 -13 -14v-5h9q0 10 12 10v9h-8zM596 1030q1 -9 8 -9h4q9 0 9 9v5zM558 977v-5h4q0 15 21 15v5h-8q-17 -8 -17 -15zM994 171v-5h17v5h-17z
M1067 113h17v-10h-17v10z" />
    <glyph glyph-name="braceleft" unicode="{" 
d="M240 698q172 5 223 71t51 133v468q0 74 77 141.5t185 67.5h108v-50h-90q-61 0 -107 -33.5t-47 -91.5v-500q0 -83 -60.5 -158.5t-142.5 -76.5v-2q82 -1 143 -76t61 -158l-1 -500q1 -58 47 -91.5t107 -33.5h90v-50h-108q-108 0 -184.5 67.5t-77.5 141.5v468q0 66 -51 132
t-223 71v60z" />
    <glyph glyph-name="bar" unicode="|" 
d="M427 1577h160v-1995h-160v1995z" />
    <glyph glyph-name="braceright" unicode="}" 
d="M774 638q-172 -5 -223 -71t-51 -132v-468q-1 -74 -77.5 -141.5t-184.5 -67.5h-108v50h90q61 0 107 33.5t47 91.5l-1 500q0 83 61 158t144 76v2q-83 1 -143.5 76.5t-60.5 158.5v500q-1 58 -47 91.5t-107 33.5h-90v50h108q108 0 185 -67.5t77 -141.5v-468q0 -67 51 -133
t223 -71v-60z" />
    <glyph glyph-name="asciitilde" unicode="~" 
d="M923 878v-156q-63 -72 -122 -97.5t-116 -25.5q-60 0 -177.5 48.5t-176.5 48.5q-51 0 -107.5 -28t-129.5 -112v156q64 73 123 99t114 26q64 0 181.5 -49.5t172.5 -49.5q52 0 108.5 28t129.5 112z" />
    <glyph glyph-name="exclamdown" unicode="&#xa1;" horiz-adv-x="672" 
 />
    <glyph glyph-name="cent" unicode="&#xa2;" horiz-adv-x="1139" 
 />
    <glyph glyph-name="sterling" unicode="&#xa3;" 
d="M748 1347q-72 31 -160 31h-2q-100 0 -190 -101q-84 -93 -84 -241q0 -15 1 -30q0 -135 53 -273h360v-60h-334q14 -30 31 -60q35 -63 35 -138q0 -161 -162 -375h402q130 0 189 132l49 -1l-103 -231h-719l1 50q187 238 187 418q0 77 -34 143q-17 32 -31 62h-161v60h135
q-58 143 -58 253q0 226 123.5 347t306.5 121h4q75 0 185.5 -14t110.5 -34v-161h-58q-5 61 -77 102z" />
    <glyph glyph-name="currency" unicode="&#xa4;" 
d="M350 560q41 -40 99 -57q29 -8 58 -8t58 8q58 17 99 57q40 41 57 99q9 29 9 58t-9 58q-17 58 -57 99q-41 40 -100 57q-29 8 -58 8t-58 -9q-58 -17 -98 -56q-39 -40 -56 -98q-10 -30 -10 -60q0 -28 9 -56q16 -59 57 -100zM240 903l-118 118l80 81l118 -118q44 30 99 46
q44 14 89 14q41 0 83 -12q57 -17 102 -48l118 118l80 -81l-117 -117q31 -46 48 -102q12 -42 12 -85q0 -42 -12 -85q-17 -56 -48 -102l117 -117l-80 -81l-118 118q-45 -32 -101 -48q-42 -12 -85 -12q-42 0 -85 12q-57 16 -102 48l-118 -118l-80 81l118 117q-32 46 -48 103
q-12 42 -12 84q0 44 13 87q16 55 47 99z" />
    <glyph glyph-name="yen" unicode="&#xa5;" horiz-adv-x="1262" 
d="M547 225l-2 242q0 19 -1.5 35t-4.5 32l-484 1q-14 0 -21 6.5t-7 19.5t6.5 19t21.5 6h467l-121 172h-344q-17 0 -23.5 5.5t-6.5 18.5q0 14 6 19.5t22 5.5h307q-43 57 -108 155q-131 197 -227 197q-7 0 -13 5.5t-6 11.5q0 19 10.5 27.5t32.5 8.5q27 0 123 -8t164 -8h88
q33 0 41 -6.5t8 -26.5q0 -8 -15 -14t-38 -6q-6 0 -18.5 2t-18.5 2q-24 0 -37.5 -9.5t-13.5 -25.5q0 -18 16.5 -52t46.5 -77l158 -221q13 -19 33 -53q41 -70 71 -70q9 0 16.5 5t14.5 15l277 396q8 12 13 26.5t5 24.5q0 18 -10 27t-37 14q-15 2 -41 4q-47 3 -47 25
q0 15 8 22.5t25 7.5q3 0 15 -1q56 -7 108 -7h139q30 0 65 1t37 1q11 0 18.5 -4.5t8.5 -11.5q0 -28 -38 -34q-18 -3 -27 -5q-63 -15 -147 -117q-7 -9 -12 -15l-169 -206h323q15 0 24 -6t9 -17q0 -15 -6 -20.5t-23 -5.5h-366q-46 -57 -96.5 -112.5t-52.5 -59.5h511
q18 0 25.5 -5.5t7.5 -17.5q0 -14 -7 -21t-22 -7h-530q0 -11 -1 -30.5t-1 -29.5l2 -215q0 -114 5.5 -150t20.5 -44q30 -17 107.5 -19t77.5 -31q0 -12 -10 -20t-25 -8q-2 0 -35.5 4t-64.5 4q-91 0 -208.5 -4t-142.5 -4q-31 0 -40 4t-9 16t8 18.5t37 12.5q9 2 25 5q74 16 92 32
q17 13 24 47t7 102z" />
    <glyph glyph-name="brokenbar" unicode="&#xa6;" 
d="M427 371h160v-789h-160v789zM427 1578h160v-789h-160v789z" />
    <glyph glyph-name="section" unicode="&#xa7;" 
d="M545 321q56 16 97 53q73 65 73 166q0 5 -1 10h-2q-1 14 -4 27q-22 61 -113 127q-59 29 -126 29q-78 0 -125 -44.5t-47 -117.5q0 -123 248 -250zM466 -346q113 6 185 69q72 64 72 165q0 125 -316 276q-123 64 -175.5 137t-52.5 177q0 148 89 237q67 65 170 82l-40 19
q-123 64 -175.5 137t-52.5 177q0 148 89 237q82 79 216 86q8 1 17 1h3q66 0 163 -16.5t97 -41.5v-194h-51q-5 81 -80 132q-70 47 -149 51h-15q-78 0 -125 -44.5t-47 -117.5q0 -132 287 -269q149 -67 204.5 -143.5t55.5 -187.5q0 -171 -101 -282q-47 -39 -99 -64
q108 -56 154 -118q55 -77 55 -187q0 -171 -101 -283q-124 -102 -277 -105v1q-6 -1 -13 -1h-3q-66 0 -163 16.5t-97 41.5v194h51q5 -81 80 -132q68 -45 145 -50z" />
    <glyph glyph-name="dieresis" unicode="&#xa8;" horiz-adv-x="1024" 
d="M223 1289l71 72q13 12 25 12q11 0 27 -14l69 -73q10 -14 10 -25q0 -13 -12 -27l-69 -75q-17 -17 -25 -17q-14 0 -25 12l-76 86q-9 12 -9 23q0 13 14 26zM588 1289l71 72q13 12 25 12q11 0 27 -13l69 -74q10 -14 10 -25q0 -13 -12 -26l-69 -76q-17 -17 -25 -17
q-14 0 -25 12l-76 87q-9 11 -9 22q0 13 14 26z" />
    <glyph glyph-name="copyright" unicode="&#xa9;" horiz-adv-x="1674" 
d="M840 1456q145 0 280 -56.5t239 -160.5q102 -101 158.5 -238t56.5 -283q0 -147 -56.5 -282t-162.5 -240q-105 -105 -239 -159.5t-283 -54.5q-146 0 -278 55.5t-238 160.5q-106 104 -161.5 237.5t-55.5 282.5q0 148 55.5 283t159.5 238q102 104 238.5 160.5t286.5 56.5z
M357 1197q-95 -96 -146 -219.5t-51 -259.5q0 -137 51 -259t148 -219q98 -96 219 -147t256 -51q137 0 259.5 50.5t219.5 145.5q97 98 149 221.5t52 258.5q0 134 -52 259.5t-145 219.5q-96 96 -220 147.5t-258 51.5q-137 0 -262 -51.5t-220 -147.5zM865 223q-142 0 -264 68
t-186 185t-64 243t65.5 244t187.5 184.5t254 66.5q38 0 75 -6.5t76 -20.5q5 -1 9 -1q19 0 26 30h42l72 -198h-44q-52 94 -131 124q-72 26 -147 26h-15q-86 -8 -166.5 -71t-121.5 -177q-33 -90 -33 -184q0 -25 2 -50q11 -121 69.5 -224t149.5 -152q72 -40 166 -42
q124 0 194 56t70 126h53v-100q0 -46 -96.5 -86.5t-242.5 -40.5z" />
    <glyph glyph-name="ordfeminine" unicode="&#xaa;" horiz-adv-x="648" 
 />
    <glyph glyph-name="guillemotleft" unicode="&#xab;" horiz-adv-x="944" 
d="M174 479l342 303h14v-37l-205 -266l205 -266v-37h-14zM487 479l342 303h14v-37l-205 -266l205 -266v-37h-14z" />
    <glyph glyph-name="logicalnot" unicode="&#xac;" 
d="M87 767h840v-491l-1 -1h-98v392h-741v100z" />
    <glyph glyph-name="registered" unicode="&#xae;" horiz-adv-x="1674" 
d="M751 1099v-374l3 -8q23 -56 56 -81q29 -22 56 -22h6q31 4 61.5 38.5t46.5 97.5q13 50 13 103q0 13 -1 27q-4 67 -28 124.5t-56.5 76t-63.5 18.5h-93zM984 576l82 -116q100 -141 150 -141h34v-50h-346v50h45q30 0 30 22q0 29 -69 114l-75 102q-42 0 -84 42v-159
q0 -121 36 -121h53v-50h-316v50h43q37 0 37 121v538q0 121 -37 121h-43v70h356q64 -1 125 -42q60 -41 92.5 -114t32.5 -152q0 -78 -32 -150.5t-114 -134.5zM840 1456q145 0 280 -56.5t239 -160.5q102 -101 158.5 -238t56.5 -283q0 -147 -56.5 -282t-162.5 -240
q-105 -105 -239 -159.5t-283 -54.5q-146 0 -278 55.5t-238 160.5q-106 104 -161.5 237.5t-55.5 282.5q0 148 55.5 283t159.5 238q102 104 238.5 160.5t286.5 56.5zM357 1197q-95 -96 -146 -219.5t-51 -259.5q0 -137 51 -259t148 -219q98 -96 219 -147t256 -51
q137 0 259.5 50.5t219.5 145.5q97 98 149 221.5t52 258.5q0 134 -52 259.5t-145 219.5q-96 96 -220 147.5t-258 51.5q-137 0 -262 -51.5t-220 -147.5z" />
    <glyph glyph-name="macron" unicode="&#xaf;" horiz-adv-x="670" 
 />
    <glyph glyph-name="degree" unicode="&#xb0;" horiz-adv-x="674" 
d="M339 1372q-86 0 -147.5 -61t-61.5 -148t61 -147t148 -60t147 60t60 147t-60.5 148t-146.5 61zM339 1442q115 0 196 -81.5t81 -196.5q0 -114 -82 -196t-197 -82q-117 0 -197 81t-80 197t81.5 197t197.5 81z" />
    <glyph glyph-name="plusminus" unicode="&#xb1;" 
 />
    <glyph glyph-name="uni00B2" unicode="&#xb2;" 
 />
    <glyph glyph-name="uni00B3" unicode="&#xb3;" 
 />
    <glyph glyph-name="acute" unicode="&#xb4;" horiz-adv-x="1024" 
d="M607 1375q35 35 55.5 47t40.5 12q33 0 53.5 -20t20.5 -51q0 -22 -15.5 -42t-46.5 -40l-330 -203h-69z" />
    <glyph glyph-name="mu" unicode="&#xb5;" horiz-adv-x="1180" 
 />
    <glyph glyph-name="paragraph" unicode="&#xb6;" horiz-adv-x="1024" 
d="M929 1435v-70h-127v-1365h-82v1365h-166v-1365h-84v738q-174 8 -275.5 102.5t-101.5 245.5q0 157 107.5 253t285.5 96h443z" />
    <glyph glyph-name="periodcentered" unicode="&#xb7;" horiz-adv-x="508" 
d="M145 740l82 84q15 14 29 14q13 0 31 -16l80 -86q12 -16 12 -29q0 -15 -14 -31l-80 -88q-20 -20 -29 -20q-16 0 -29 14l-88 101q-10 13 -10 26q0 15 16 31z" />
    <glyph glyph-name="periodcentered" unicode="&#x2219;" horiz-adv-x="508" 
d="M145 740l82 84q15 14 29 14q13 0 31 -16l80 -86q12 -16 12 -29q0 -15 -14 -31l-80 -88q-20 -20 -29 -20q-16 0 -29 14l-88 101q-10 13 -10 26q0 15 16 31z" />
    <glyph glyph-name="cedilla" unicode="&#xb8;" horiz-adv-x="1024" 
d="M360 -290q85 -52 152 -52q66 0 94.5 21.5t28.5 66.5t-49 64q-40 16 -102 16q-16 0 -34 -2l48 176h63l-37 -104q32 4 62 5q86 0 134 -40.5t48 -113.5q0 -76 -58.5 -120.5t-160.5 -44.5q-109 0 -189 32v96z" />
    <glyph glyph-name="uni00B9" unicode="&#xb9;" 
 />
    <glyph glyph-name="ordmasculine" unicode="&#xba;" horiz-adv-x="718" 
 />
    <glyph glyph-name="guillemotright" unicode="&#xbb;" horiz-adv-x="944" 
d="M115 176h-14v37l205 266l-205 266v37h14l342 -303zM428 176h-14v37l205 266l-205 266v37h14l342 -303z" />
    <glyph glyph-name="onequarter" unicode="&#xbc;" horiz-adv-x="1708" 
 />
    <glyph glyph-name="onehalf" unicode="&#xbd;" horiz-adv-x="1964" 
 />
    <glyph glyph-name="threequarters" unicode="&#xbe;" horiz-adv-x="1708" 
 />
    <glyph glyph-name="questiondown" unicode="&#xbf;" horiz-adv-x="748" 
 />
    <glyph glyph-name="Agrave" unicode="&#xc0;" horiz-adv-x="1540" 
 />
    <glyph glyph-name="Aacute" unicode="&#xc1;" horiz-adv-x="1540" 
 />
    <glyph glyph-name="Acircumflex" unicode="&#xc2;" horiz-adv-x="1540" 
 />
    <glyph glyph-name="Atilde" unicode="&#xc3;" horiz-adv-x="1540" 
 />
    <glyph glyph-name="Adieresis" unicode="&#xc4;" horiz-adv-x="1540" 
 />
    <glyph glyph-name="Aring" unicode="&#xc5;" horiz-adv-x="1540" 
 />
    <glyph glyph-name="AE" unicode="&#xc6;" horiz-adv-x="2118" 
 />
    <glyph glyph-name="Ccedilla" unicode="&#xc7;" horiz-adv-x="1399" 
 />
    <glyph glyph-name="Egrave" unicode="&#xc8;" horiz-adv-x="1151" 
 />
    <glyph glyph-name="Eacute" unicode="&#xc9;" horiz-adv-x="1151" 
 />
    <glyph glyph-name="Ecircumflex" unicode="&#xca;" horiz-adv-x="1151" 
 />
    <glyph glyph-name="Edieresis" unicode="&#xcb;" horiz-adv-x="1151" 
 />
    <glyph glyph-name="Igrave" unicode="&#xcc;" horiz-adv-x="657" 
 />
    <glyph glyph-name="Iacute" unicode="&#xcd;" horiz-adv-x="657" 
 />
    <glyph glyph-name="Icircumflex" unicode="&#xce;" horiz-adv-x="657" 
 />
    <glyph glyph-name="Idieresis" unicode="&#xcf;" horiz-adv-x="657" 
 />
    <glyph glyph-name="Eth" unicode="&#xd0;" horiz-adv-x="1518" 
 />
    <glyph glyph-name="Ntilde" unicode="&#xd1;" horiz-adv-x="1554" 
 />
    <glyph glyph-name="Ograve" unicode="&#xd2;" horiz-adv-x="1614" 
 />
    <glyph glyph-name="Oacute" unicode="&#xd3;" horiz-adv-x="1614" 
 />
    <glyph glyph-name="Ocircumflex" unicode="&#xd4;" horiz-adv-x="1614" 
 />
    <glyph glyph-name="Otilde" unicode="&#xd5;" horiz-adv-x="1614" 
 />
    <glyph glyph-name="Odieresis" unicode="&#xd6;" horiz-adv-x="1614" 
 />
    <glyph glyph-name="multiply" unicode="&#xd7;" 
d="M507 618l-247 -247l-99 99l247 247l-247 248l99 98l247 -247l248 247l98 -99l-247 -247l247 -247l-99 -99z" />
    <glyph glyph-name="Oslash" unicode="&#xd8;" horiz-adv-x="1614" 
 />
    <glyph glyph-name="Ugrave" unicode="&#xd9;" horiz-adv-x="1501" 
 />
    <glyph glyph-name="Uacute" unicode="&#xda;" horiz-adv-x="1501" 
 />
    <glyph glyph-name="Ucircumflex" unicode="&#xdb;" horiz-adv-x="1501" 
 />
    <glyph glyph-name="Udieresis" unicode="&#xdc;" horiz-adv-x="1501" 
 />
    <glyph glyph-name="Yacute" unicode="&#xdd;" horiz-adv-x="1233" 
 />
    <glyph glyph-name="Thorn" unicode="&#xde;" horiz-adv-x="1120" 
 />
    <glyph glyph-name="germandbls" unicode="&#xdf;" horiz-adv-x="1251" 
 />
    <glyph glyph-name="agrave" unicode="&#xe0;" horiz-adv-x="922" 
 />
    <glyph glyph-name="aacute" unicode="&#xe1;" horiz-adv-x="922" 
 />
    <glyph glyph-name="acircumflex" unicode="&#xe2;" horiz-adv-x="922" 
 />
    <glyph glyph-name="atilde" unicode="&#xe3;" horiz-adv-x="922" 
 />
    <glyph glyph-name="adieresis" unicode="&#xe4;" horiz-adv-x="922" 
 />
    <glyph glyph-name="aring" unicode="&#xe5;" horiz-adv-x="922" 
 />
    <glyph glyph-name="ae" unicode="&#xe6;" horiz-adv-x="1454" 
 />
    <glyph glyph-name="ccedilla" unicode="&#xe7;" horiz-adv-x="905" 
 />
    <glyph glyph-name="egrave" unicode="&#xe8;" horiz-adv-x="909" 
 />
    <glyph glyph-name="eacute" unicode="&#xe9;" horiz-adv-x="909" 
 />
    <glyph glyph-name="ecircumflex" unicode="&#xea;" horiz-adv-x="909" 
 />
    <glyph glyph-name="edieresis" unicode="&#xeb;" horiz-adv-x="909" 
 />
    <glyph glyph-name="igrave" unicode="&#xec;" horiz-adv-x="514" 
 />
    <glyph glyph-name="iacute" unicode="&#xed;" horiz-adv-x="514" 
 />
    <glyph glyph-name="icircumflex" unicode="&#xee;" horiz-adv-x="514" 
 />
    <glyph glyph-name="idieresis" unicode="&#xef;" horiz-adv-x="514" 
 />
    <glyph glyph-name="eth" unicode="&#xf0;" horiz-adv-x="1139" 
 />
    <glyph glyph-name="ntilde" unicode="&#xf1;" horiz-adv-x="1108" 
 />
    <glyph glyph-name="ograve" unicode="&#xf2;" horiz-adv-x="1010" 
 />
    <glyph glyph-name="oacute" unicode="&#xf3;" horiz-adv-x="1010" 
 />
    <glyph glyph-name="ocircumflex" unicode="&#xf4;" horiz-adv-x="1010" 
 />
    <glyph glyph-name="otilde" unicode="&#xf5;" horiz-adv-x="1010" 
 />
    <glyph glyph-name="odieresis" unicode="&#xf6;" horiz-adv-x="1010" 
 />
    <glyph glyph-name="divide" unicode="&#xf7;" 
d="M87 647v140h839l1 -1v-139h-840zM398 408l82 84q15 14 29 14q13 0 31 -16l80 -86q12 -16 12 -29q0 -15 -14 -31l-80 -88q-20 -20 -29 -20q-16 0 -29 14l-88 101q-10 13 -10 26q0 15 16 31zM398 1101l82 84q15 14 29 14q13 0 31 -16l80 -86q12 -16 12 -29q0 -15 -14 -31
l-80 -88q-20 -20 -29 -20q-16 0 -29 14l-88 101q-10 13 -10 26q0 15 16 31z" />
    <glyph glyph-name="oslash" unicode="&#xf8;" horiz-adv-x="1010" 
 />
    <glyph glyph-name="ugrave" unicode="&#xf9;" horiz-adv-x="1059" 
 />
    <glyph glyph-name="uacute" unicode="&#xfa;" horiz-adv-x="1059" 
 />
    <glyph glyph-name="ucircumflex" unicode="&#xfb;" horiz-adv-x="1059" 
 />
    <glyph glyph-name="udieresis" unicode="&#xfc;" horiz-adv-x="1059" 
 />
    <glyph glyph-name="yacute" unicode="&#xfd;" horiz-adv-x="868" 
 />
    <glyph glyph-name="thorn" unicode="&#xfe;" horiz-adv-x="1010" 
 />
    <glyph glyph-name="ydieresis" unicode="&#xff;" horiz-adv-x="868" 
 />
    <glyph glyph-name="dotlessi" unicode="&#x131;" horiz-adv-x="514" 
d="M328 223q0 -173 100 -173h46v-50h-442v50h46q100 0 100 173v432q0 77 -111 77h-48v44q222 69 261 182h48v-735z" />
    <glyph glyph-name="circumflex" unicode="&#x2c6;" horiz-adv-x="1024" 
d="M221 1079l232 355h118l232 -355h-58l-233 216l-233 -216h-58z" />
    <glyph glyph-name="caron" unicode="&#x2c7;" horiz-adv-x="1024" 
d="M221 1434h58l233 -214l233 214h58l-232 -356h-118z" />
    <glyph glyph-name="uni02C9" unicode="&#x2c9;" horiz-adv-x="1024" 
d="M254 1195v125h516v-125h-516z" />
    <glyph glyph-name="breve" unicode="&#x2d8;" horiz-adv-x="1024" 
d="M219 1349h51q17 -73 75 -107t167 -34t166 33.5t74 107.5h51q-20 -133 -94 -201.5t-197 -68.5q-122 0 -197 69t-96 201z" />
    <glyph glyph-name="dotaccent" unicode="&#x2d9;" horiz-adv-x="1024" 
d="M422 1289l69 72q6 6 13 9t14 3q6 0 12.5 -3t12.5 -9l71 -76q5 -4 7 -10t2 -14q-1 -9 -3 -15t-8 -12l-71 -76q-12 -11 -16 -13.5t-7 -2.5q-10 0 -16.5 2.5t-10.5 8.5l-75 87q-4 4 -6 9.5t-2 13.5q0 6 3 12.5t11 13.5z" />
    <glyph glyph-name="ring" unicode="&#x2da;" horiz-adv-x="1024" 
d="M411 1257q0 -42 29 -71t71 -29t71 29t29 71q0 40 -29.5 69.5t-70.5 29.5t-70.5 -29.5t-29.5 -69.5zM335 1257q0 75 51 126t125 51q76 0 127.5 -51.5t51.5 -125.5q0 -75 -51.5 -126.5t-127.5 -51.5q-74 0 -125 51.5t-51 126.5z" />
    <glyph glyph-name="ogonek" unicode="&#x2db;" horiz-adv-x="1024" 
d="M640 0q-71 -62 -110.5 -119.5t-39.5 -112.5q0 -47 27 -75t73 -28q40 0 69.5 15.5t49.5 48.5l28 -16q-36 -63 -90.5 -97t-119.5 -34q-70 0 -114 35.5t-44 90.5q0 76 60.5 156.5t161.5 135.5h49z" />
    <glyph glyph-name="tilde" unicode="&#x2dc;" horiz-adv-x="1024" 
d="M808 1382q-20 -103 -68.5 -154t-126.5 -51h-4q-50 0 -113 23q-66 24 -114 24q-39 0 -60.5 -20.5t-33.5 -71.5h-54q19 106 68 158.5t129 52.5q46 -1 113 -24q64 -23 112 -23h4q36 0 58 20t36 66h54z" />
    <glyph glyph-name="hungarumlaut" unicode="&#x2dd;" horiz-adv-x="1024" 
d="M217 1079l144 273q24 44 45.5 63t46.5 19q28 0 48 -20t20 -47q0 -16 -10.5 -35t-30.5 -41l-205 -212h-58zM502 1079l144 273q24 44 45.5 63t46.5 19q28 0 48 -20t20 -47q0 -16 -10.5 -35t-30.5 -41l-205 -212h-58z" />
    <glyph glyph-name="endash" unicode="&#x2013;" horiz-adv-x="1108" 
d="M56 419v120h996v-120h-996z" />
    <glyph glyph-name="emdash" unicode="&#x2014;" horiz-adv-x="2048" 
d="M0 419v120h2048v-120h-2048z" />
    <glyph glyph-name="quoteleft" unicode="&#x2018;" horiz-adv-x="557" 
d="M319 1016q-44 0 -88.5 65.5t-44.5 151.5q0 109 71 226.5t139 117.5v-43q-73 -43 -87 -190q0 -119 129 -161v-42z" />
    <glyph glyph-name="quoteright" unicode="&#x2019;" horiz-adv-x="557" 
d="M238 1577q44 0 88.5 -65.5t44.5 -151.5q0 -109 -71 -226.5t-139 -117.5v43q73 43 87 190q0 119 -129 161v42z" />
    <glyph glyph-name="quotesinglbase" unicode="&#x201a;" horiz-adv-x="557" 
d="M238 281q44 0 88.5 -65.5t44.5 -151.5q0 -109 -71 -226.5t-139 -117.5v43q73 43 87 190q0 119 -129 161v42z" />
    <glyph glyph-name="quotedblleft" unicode="&#x201c;" horiz-adv-x="910" 
d="M319 1016q-44 0 -88.5 65.5t-44.5 151.5q0 109 71 226.5t139 117.5v-43q-73 -43 -87 -190q0 -119 129 -161v-42zM672 1016q-44 0 -88.5 65.5t-44.5 151.5q0 109 71 226.5t139 117.5v-43q-73 -43 -87 -190q0 -119 129 -161v-42z" />
    <glyph glyph-name="quotedblright" unicode="&#x201d;" horiz-adv-x="910" 
d="M238 1577q44 0 88.5 -65.5t44.5 -151.5q0 -109 -71 -226.5t-139 -117.5v43q73 43 87 190q0 119 -129 161v42zM591 1577q44 0 88.5 -65.5t44.5 -151.5q0 -109 -71 -226.5t-139 -117.5v43q73 43 87 190q0 119 -129 161v42z" />
    <glyph glyph-name="quotedblbase" unicode="&#x201e;" horiz-adv-x="910" 
d="M238 281q44 0 88.5 -65.5t44.5 -151.5q0 -109 -71 -226.5t-139 -117.5v43q73 43 87 190q0 119 -129 161v42zM591 281q44 0 88.5 -65.5t44.5 -151.5q0 -109 -71 -226.5t-139 -117.5v43q73 43 87 190q0 119 -129 161v42z" />
    <glyph glyph-name="dagger" unicode="&#x2020;" 
d="M486 1022q-8 97 -54 178q-57 101 -57 129q0 49 36 78.5t96 29.5q57 0 94.5 -27.5t37.5 -71.5q0 -32 -55 -137q-46 -85 -55 -179q96 8 177 54q101 57 129 57q49 0 79 -36t30 -96q0 -57 -27.5 -94.5t-72.5 -37.5q-32 0 -136 55q-85 46 -179 57q8 -176 110 -277
q-106 -460 -112 -974h-38q-6 514 -114 974q102 101 111 277q-96 -10 -178 -55q-101 -57 -129 -57q-49 0 -78.5 36t-29.5 96q0 57 27.5 94.5t71.5 37.5q32 0 137 -56q85 -46 179 -55z" />
    <glyph glyph-name="daggerdbl" unicode="&#x2021;" 
d="M528 186q94 11 179 57q104 55 136 55q45 0 72.5 -37.5t27.5 -94.5q0 -60 -30 -96t-79 -36q-28 0 -129 57q-81 46 -177 54q9 -94 55 -179q55 -105 55 -137q0 -44 -37.5 -71.5t-94.5 -27.5q-60 0 -96 29.5t-36 78.5q0 28 57 129q46 81 54 178q-94 -9 -179 -55
q-105 -56 -137 -56q-44 0 -71.5 37.5t-27.5 94.5q0 60 29.5 96t78.5 36q28 0 129 -57q82 -45 178 -55q-9 226 -111 398q102 171 111 397q-96 -10 -178 -55q-101 -57 -129 -57q-49 0 -78.5 36t-29.5 96q0 57 27.5 94.5t71.5 37.5q32 0 137 -56q85 -46 179 -55q-8 97 -54 178
q-57 101 -57 129q0 49 36 78.5t96 29.5q57 0 94.5 -27.5t37.5 -71.5q0 -32 -55 -137q-46 -85 -55 -179q96 8 177 54q101 57 129 57q49 0 79 -36t30 -96q0 -57 -27.5 -94.5t-72.5 -37.5q-32 0 -136 55q-85 46 -179 57q8 -226 110 -397q-102 -172 -110 -398z" />
    <glyph glyph-name="bullet" unicode="&#x2022;" horiz-adv-x="1024" 
d="M216 718q0 123 87 209t210 86q122 0 208.5 -86.5t86.5 -208.5t-87.5 -209.5t-209.5 -87.5q-123 0 -209 87t-86 210z" />
    <glyph glyph-name="ellipsis" unicode="&#x2026;" horiz-adv-x="2048" 
d="M145 167l82 84q15 14 29 14q13 0 31 -16l80 -86q12 -16 12 -29q0 -15 -14 -31l-80 -88q-20 -20 -29 -20q-16 0 -29 14l-88 101q-10 13 -10 26q0 15 16 31zM828 167l82 84q15 14 29 14q13 0 31 -16l80 -86q12 -16 12 -29q0 -15 -14 -31l-80 -88q-20 -20 -29 -20
q-16 0 -29 14l-88 101q-10 13 -10 26q0 15 16 31zM1511 167l82 84q15 14 29 14q13 0 31 -16l80 -86q12 -16 12 -29q0 -15 -14 -31l-80 -88q-20 -20 -29 -20q-16 0 -29 14l-88 101q-10 13 -10 26q0 15 16 31z" />
    <glyph glyph-name="guilsinglleft" unicode="&#x2039;" horiz-adv-x="631" 
d="M174 479l342 303h14v-37l-205 -266l205 -266v-37h-14z" />
    <glyph glyph-name="guilsinglright" unicode="&#x203a;" horiz-adv-x="631" 
d="M115 176h-14v37l205 266l-205 266v37h14l342 -303z" />
    <glyph glyph-name="fraction" unicode="&#x2044;" horiz-adv-x="342" 
d="M-342 -29l940 1461h84l-938 -1461h-86z" />
    <glyph glyph-name="fraction" unicode="&#x2215;" horiz-adv-x="342" 
d="M-342 -29l940 1461h84l-938 -1461h-86z" />
    <glyph glyph-name="franc" unicode="&#x20a3;" 
d="M247 357h-194v60h194v732q0 235 -103 235h-96v50h915l103 -231h-49q-59 182 -190 182l-316 -1q-102 0 -102 -235v-352h361q100 0 100 63v58h50v-342h-50v60q0 62 -100 62h-361v-281h194v-60h-194v-72q0 -235 102 -235h97v-50h-560v50h96q103 0 103 235v72z" />
    <glyph glyph-name="lira" unicode="&#x20a4;" 
d="M748 1347q-72 31 -160 31h-2q-100 0 -190 -101q-84 -93 -84 -241q0 -15 1 -30q0 -106 33 -213h380v-60h-360q12 -30 26 -60h352v-60h-321q35 -63 35 -138q0 -161 -162 -375h402q130 0 189 132l49 -1l-103 -231h-719l1 50q187 238 187 418q0 77 -34 143l-2 2h-172v60h143
q-14 31 -26 60h-135v60h113q-36 107 -36 193q0 226 123.5 347t310.5 121q75 0 185.5 -14t110.5 -34v-161h-58q-5 61 -77 102z" />
    <glyph glyph-name="peseta" unicode="&#x20a7;" horiz-adv-x="2028" 
d="M409 1384v-662q3 -9 7 -17q41 -102 108 -153q57 -44 116 -44q10 0 19 1q68 8 127 75t87 177q22 87 22 179q0 24 -1 47q-7 116 -49.5 218.5t-108.5 144.5q-56 35 -112 35q-10 0 -21 -1h-194zM1496 908h-179v-685q0 -81 34 -119q28 -31 81 -37l-71 192l49 1
q55 -130 114 -174q57 -44 127 -44h7q92 0 151 52q59 53 59 136q0 102 -259 226q-101 52 -144 112t-43 145q0 121 73 194zM1039 910q-7 -101 -48 -194q-50 -114 -141 -177.5t-190 -63.5q-100 0 -191 64q-33 22 -60 51v-305q0 -235 102 -235h97v-50h-560v50h96q103 0 103 235
v864q0 235 -103 235h-96v50h618q92 -2 181 -62q91 -62 143 -177q50 -113 51 -237h10q216 0 216 355h50v-355h259q42 19 110 20h2q54 0 133.5 -13.5t79.5 -33.5v-159h-42q-4 66 -65.5 108t-133.5 42q-64 0 -102.5 -36.5t-38.5 -96.5q0 -108 235 -220q122 -55 167.5 -117.5
t45.5 -153.5q0 -140 -83 -231q-102 -84 -228 -86q-58 0 -105 11q-28 6 -56 6q-18 0 -36 -3q-28 -5 -59 -5q-124 0 -173.5 57t-57.5 176h-1v687h-129z" />
    <glyph glyph-name="Euro" unicode="&#x20ac;" 
d="M140 372q-62 135 -76 281h-108l17 60h87v29q0 16 1 31h-71l17 60h58q14 145 76 281q81 178 226 274t298 96q43 0 87 -8q40 -10 82 -29q8 -6 16 -6q20 0 34 45h41l84 -281l-40 -1q-49 134 -138 178q-43 22 -81 32v3q-50 16 -101 16q-17 0 -34 -2q-120 -12 -226 -113.5
t-157 -273.5q-32 -104 -39 -211h706l-17 -60h-692q0 -30 2 -60h674l-17 -60h-652q17 -158 83 -298q74 -157 193 -236q102 -68 216 -69q186 3 256 91q74 91 74 185h48v-143q0 -70 -111 -127q-105 -54 -267 -56q-181 0 -325.5 98t-223.5 274z" />
    <glyph glyph-name="afii61352" unicode="&#x2116;" horiz-adv-x="2271" 
 />
    <glyph glyph-name="trademark" unicode="&#x2122;" horiz-adv-x="1497" 
 />
    <glyph glyph-name="partialdiff" unicode="&#x2202;" 
d="M232 537q0 -41 5 -79q14 -122 61.5 -230t118.5 -165q64 -53 128 -53q6 0 13 1q70 5 127.5 70.5t80.5 179.5q16 73 16 149q0 42 -5 85q-14 122 -62.5 231.5t-119.5 165.5q-65 50 -128 50h-11q-68 -5 -126 -69.5t-82 -178.5q-16 -84 -16 -157zM937 477q0 -132 -56.5 -251
t-159 -185t-214.5 -66t-214.5 66t-159 185t-56.5 251q0 131 58 251t161 185t211 65q109 0 212 -65q29 -18 54 -41q-84 235 -233.5 377t-326.5 155v55q306 0 515 -285t209 -697z" />
    <glyph glyph-name="Delta" unicode="&#x2206;" horiz-adv-x="1081" 
d="M514 1195l-406 -1072h801zM547 1434l526 -1434h-1067z" />
    <glyph glyph-name="product" unicode="&#x220f;" horiz-adv-x="1515" 
d="M511 1384q-102 0 -102 -235v-1281q0 -235 102 -235h97v-51h-560v51h96q103 0 103 235v1281q0 235 -103 235h-96v50h1419v-50h-97q-102 0 -102 -235v-1281q0 -235 102 -235h97v-50h-560v50h96q103 0 103 235v1281q0 235 -103 235h-492z" />
    <glyph glyph-name="summation" unicode="&#x2211;" horiz-adv-x="1206" 
d="M1059 548l-788 -914h635q130 0 189 182h49l-103 -232h-921v50q62 0 106 53l663 781l-663 859q-44 57 -106 57v50h921l103 -232h-49q-59 182 -189 182h-485z" />
    <glyph glyph-name="minus" unicode="&#x2212;" 
d="M87 647v140h839l1 -1v-139h-840z" />
    <glyph glyph-name="radical" unicode="&#x221a;" 
d="M181 0l-164 359l74 35l85 -185l728 1470h150v-60h-72z" />
    <glyph glyph-name="infinity" unicode="&#x221e;" 
d="M439 755q-15 103 -74 133q-46 22 -84 22q-12 0 -23 -2q-49 -10 -92.5 -44.5t-65.5 -84.5q-20 -46 -20 -90v-8q2 -48 27.5 -89t71.5 -58q29 -11 61 -11q16 0 33 3q47 10 90.5 43.5t75.5 185.5zM466 687q12 -96 94 -153q69 -48 123 -48q11 0 21 2q62 12 117.5 52t84.5 101
q26 54 26 108v11q-2 60 -35.5 108.5t-91.5 68.5q-37 13 -76 13q-22 0 -44 -4q-67 -9 -127 -62t-92 -197zM450 827q9 35 21 69q34 88 95 137t128 49t128 -48t95 -135t34 -182t-34 -182t-95 -135t-128 -48t-128 49t-95 136q-12 35 -21 70q-5 -21 -12 -41q-27 -73 -74 -113
t-99 -40t-100 41t-73.5 113.5t-25.5 149.5q0 76 25.5 149t73.5 114t100 41t99 -40t74 -112q7 -21 12 -42z" />
    <glyph glyph-name="integral" unicode="&#x222b;" horiz-adv-x="665" 
d="M-12 -281q-60 0 -60 29v159h36q1 -43 34.5 -64.5t63.5 -21.5h1q82 0 115 162q32 162 40 316l70 734l8 62q27 238 135 429.5t234 191.5q60 0 60 -29v-159h-36q-1 43 -35 64.5t-63 21.5q-71 0 -116 -155.5t-49 -363.5l-73 -767q-20 -231 -130.5 -420t-234.5 -189z" />
    <glyph glyph-name="approxequal" unicode="&#x2248;" 
d="M923 1053v-156q-63 -72 -122 -97.5t-116 -25.5q-60 0 -177.5 48.5t-176.5 48.5q-51 0 -107.5 -28t-129.5 -112v156q64 73 123 99t114 26q64 0 181.5 -49.5t172.5 -49.5q52 0 108.5 28t129.5 112zM923 705v-156q-63 -72 -122 -97.5t-116 -25.5q-60 0 -177.5 48.5
t-176.5 48.5q-51 0 -107.5 -28t-129.5 -112v156q64 73 123 99t114 26q64 0 181.5 -49.5t172.5 -49.5q52 0 108.5 28t129.5 112z" />
    <glyph glyph-name="lessequal" unicode="&#x2264;" 
d="M927 1074l-625 -359l625 -355v-167l-840 481v83l840 484v-167zM87 1v140h839l1 -1v-139h-840z" />
    <glyph glyph-name="greaterequal" unicode="&#x2265;" 
d="M87 1241l840 -484v-83l-840 -481v167l625 355l-625 359v167zM87 2v140h839l1 -1v-139h-840z" />
    <glyph glyph-name="uniF001" unicode="&#xf001;" horiz-adv-x="1073" 
 />
    <glyph glyph-name="uniF001" unicode="&#xfb01;" horiz-adv-x="1073" 
 />
    <glyph glyph-name="uniF002" unicode="&#xf002;" horiz-adv-x="1081" 
 />
    <glyph glyph-name="uniF002" unicode="&#xfb02;" horiz-adv-x="1081" 
 />
  </font>
</defs>
</svg>
